<?xml version="1.0" encoding="UTF-8" standalone="no"?>
<svg
   xmlns:dc="http://purl.org/dc/elements/1.1/"
   xmlns:cc="http://creativecommons.org/ns#"
   xmlns:rdf="http://www.w3.org/1999/02/22-rdf-syntax-ns#"
   xmlns:svg="http://www.w3.org/2000/svg"
   xmlns="http://www.w3.org/2000/svg"
   id="svg438"
   version="1.1"
   width="54.125"
   height="54.125">
  <defs
     id="defs442" />
  <metadata
     id="metadata2">citation: U.S. Geological Survey, 2006, FGDC Digital Cartographic Standard for Geologic Map Symbolization (PostScript Implementation): U.S. Geological Survey Techniques and Methods 11-A2 [pubs.usgs.gov/tm/2006/11A02/]. converted by CEC Geology LLC 2018 from the USGS lithologic gs converted to inkscape by the University of Otago.<rdf:RDF>
  <cc:Work
     rdf:about="">
    <dc:format>image/svg+xml</dc:format>
    <dc:type
       rdf:resource="http://purl.org/dc/dcmitype/StillImage" />
    <dc:title></dc:title>
  </cc:Work>
</rdf:RDF>
</metadata>
  <g
     id="g436"
     width="54.125"
     transform="matrix(1 0 0 -1 0 54.125)"
     stroke="#231f20"
     height="54.125"
     fill="none">
    <g
       id="g378"
       stroke-width=".7"
       stroke-linecap="round">
      <path
         id="path4"
         transform="translate(50.2851 41.4316)"
         d="m0 0 .01.01" />
      <path
         id="path6"
         transform="translate(45.9951 41.1016)"
         d="m0 0 .01.01" />
      <path
         id="path8"
         transform="translate(51.3848 37.5269)"
         d="m0 0 .01.01" />
      <path
         id="path10"
         transform="translate(47.3154 37.1968)"
         d="m0 0 .01.01" />
      <path
         id="path12"
         transform="translate(48.8555 34.2266)"
         d="m0 0 .01.01" />
      <path
         id="path14"
         transform="translate(52.4853 33.7866)"
         d="m0 0 .01.01" />
      <path
         id="path16"
         transform="translate(39.4482 42.3896)"
         d="m0 0 .01.01" />
      <path
         id="path18"
         transform="translate(43.9482 38.2231)"
         d="m0 0 .01.01" />
      <path
         id="path20"
         transform="translate(34.2812 41.5566)"
         d="m0 0 .01.01" />
      <path
         id="path22"
         transform="translate(35.4482 38.0566)"
         d="m0 0 .01.01" />
      <path
         id="path24"
         transform="translate(28.5049 39.5068)"
         d="m0 0 .01.01" />
      <path
         id="path26"
         transform="translate(32.5752 36.5366)"
         d="m0 0 .01.01" />
      <path
         id="path28"
         transform="translate(30.1553 30.5967)"
         d="m0 0 .01.01" />
      <path
         id="path30"
         transform="translate(10.959 33.333)"
         d="m0 0 .01.01" />
      <path
         id="path32"
         transform="translate(26.959 35.9995)"
         d="m0 0 .01.01" />
      <path
         id="path34"
         transform="translate(24.1055 40.0566)"
         d="m0 0 .01.01" />
      <path
         id="path36"
         transform="translate(21.6855 35.7666)"
         d="m0 0 .01.01" />
      <path
         id="path38"
         transform="translate(20.4756 39.1768)"
         d="m0 0 .01.01" />
      <path
         id="path40"
         transform="translate(15.792 36.1665)"
         d="m0 0 .01.01" />
      <path
         id="path42"
         transform="translate(15.7451 40.2769)"
         d="m0 0 .01.01" />
      <path
         id="path44"
         transform="translate(11.7812 37.5566)"
         d="m0 0 .01.01" />
      <path
         id="path46"
         transform="translate(8.4853 40.9365)"
         d="m0 0 .01.01" />
      <path
         id="path48"
         transform="translate(5.4482 42.0566)"
         d="m0 0 .01.01" />
      <path
         id="path50"
         transform="translate(1.9482 43.7231)"
         d="m0 0 .01.01" />
      <path
         id="path52"
         transform="translate(1.4453 35.9868)"
         d="m0 0 .01.01" />
      <path
         id="path54"
         transform="translate(5.2812 37.5566)"
         d="m0 0 .01.01" />
      <path
         id="path56"
         transform="translate(9.0351 36.2065)"
         d="m0 0 .01.01" />
      <path
         id="path58"
         transform="translate(7.6055 32.5767)"
         d="m0 0 .01.01" />
      <path
         id="path60"
         transform="translate(3.3154 32.5767)"
         d="m0 0 .01.01" />
      <path
         id="path62"
         transform="translate(12.9482 43.5566)"
         d="m0 0 .01.01" />
      <path
         id="path64"
         transform="translate(1.0049 29.4966)"
         d="m0 0 .01.01" />
      <path
         id="path66"
         transform="translate(1.2246 26.6367)"
         d="m0 0 .01.01" />
      <path
         id="path68"
         transform="translate(6.3955 26.417)"
         d="m0 0 .01.01" />
      <path
         id="path70"
         transform="translate(5.4053 29.3867)"
         d="m0 0 .01.01" />
      <path
         id="path72"
         transform="translate(9.3652 28.9468)"
         d="m0 0 .01.01" />
      <path
         id="path74"
         transform="translate(12.665 31.0366)"
         d="m0 0 .01.01" />
      <path
         id="path76"
         transform="translate(12.9951 27.5166)"
         d="m0 0 .01.01" />
      <path
         id="path78"
         transform="translate(16.1846 30.1567)"
         d="m0 0 .01.01" />
      <path
         id="path80"
         transform="translate(16.9551 26.3066)"
         d="m0 0 .01.01" />
      <path
         id="path82"
         transform="translate(19.7812 30.8896)"
         d="m0 0 .01.01" />
      <path
         id="path84"
         transform="translate(19.9248 25.4268)"
         d="m0 0 .01.01" />
      <path
         id="path86"
         transform="translate(23.2256 28.5063)"
         d="m0 0 .01.01" />
      <path
         id="path88"
         transform="translate(25.459 31.9995)"
         d="m0 0 .01.01" />
      <path
         id="path90"
         transform="translate(27.0752 29.1665)"
         d="m0 0 .01.01" />
      <path
         id="path92"
         transform="translate(24.3252 25.4268)"
         d="m0 0 .01.01" />
      <path
         id="path94"
         transform="translate(28.7256 25.4268)"
         d="m0 0 .01.01" />
      <path
         id="path96"
         transform="translate(32.2451 27.5166)"
         d="m0 0 .01.01" />
      <path
         id="path98"
         transform="translate(34.4453 25.207)"
         d="m0 0 .01.01" />
      <path
         id="path100"
         transform="translate(16.2949 22.8965)"
         d="m0 0 .01.01" />
      <path
         id="path102"
         transform="translate(14.4248 19.9268)"
         d="m0 0 .01.01" />
      <path
         id="path104"
         transform="translate(12.2246 22.8965)"
         d="m0 0 .01.01" />
      <path
         id="path106"
         transform="translate(35.959 14.833)"
         d="m0 0 .01.01" />
      <path
         id="path108"
         transform="translate(8.5947 21.1367)"
         d="m0 0 .01.01" />
      <path
         id="path110"
         transform="translate(6.7246 23.7764)"
         d="m0 0 .01.01" />
      <path
         id="path112"
         transform="translate(6.6152 18.3867)"
         d="m0 0 .01.01" />
      <path
         id="path114"
         transform="translate(4.3047 21.1367)"
         d="m0 0 .01.01" />
      <path
         id="path116"
         transform="translate(1.1152 23.0068)"
         d="m0 0 .01.01" />
      <path
         id="path118"
         transform="translate(18.6152 42.8896)"
         d="m0 0 .01.01" />
      <path
         id="path120"
         transform="translate(2.2812 19.0566)"
         d="m0 0 .01.01" />
      <path
         id="path122"
         transform="translate(53.1152 40.2231)"
         d="m0 0 .01.01" />
      <path
         id="path124"
         transform="translate(4.9482 14.5566)"
         d="m0 0 .01.01" />
      <path
         id="path126"
         transform="translate(5.4482 45.7231)"
         d="m0 0 .01.01" />
      <path
         id="path128"
         transform="translate(3.4248 9.3662)"
         d="m0 0 .01.01" />
      <path
         id="path130"
         transform="translate(6.3955 12.1162)"
         d="m0 0 .01.01" />
      <path
         id="path132"
         transform="translate(8.375 9.5869)"
         d="m0 0 .01.01" />
      <path
         id="path134"
         transform="translate(10.5752 13.4365)"
         d="m0 0 .01.01" />
      <path
         id="path136"
         transform="translate(14.9746 14.9766)"
         d="m0 0 .01.01" />
      <path
         id="path138"
         transform="translate(12.1152 9.1465)"
         d="m0 0 .01.01" />
      <path
         id="path140"
         transform="translate(15.085 11.5664)"
         d="m0 0 .01.01" />
      <path
         id="path142"
         transform="translate(18.6055 11.4561)"
         d="m0 0 .01.01" />
      <path
         id="path144"
         transform="translate(19.5947 14.9766)"
         d="m0 0 .01.01" />
      <path
         id="path146"
         transform="translate(23.5547 14.4268)"
         d="m0 0 .01.01" />
      <path
         id="path148"
         transform="translate(22.125 11.7861)"
         d="m0 0 .01.01" />
      <path
         id="path150"
         transform="translate(29.125 12.666)"
         d="m0 0 .01.01" />
      <path
         id="path152"
         transform="translate(.9482 15.7227)"
         d="m0 0 .01.01" />
      <path
         id="path154"
         transform="translate(1.1152 11.5566)"
         d="m0 0 .01.01" />
      <path
         id="path156"
         transform="translate(34.2812 12.3896)"
         d="m0 0 .01.01" />
      <path
         id="path158"
         transform="translate(25.7812 43.2231)"
         d="m0 0 .01.01" />
      <path
         id="path160"
         transform="translate(38.9482 13.3896)"
         d="m0 0 .01.01" />
      <path
         id="path162"
         transform="translate(22.4482 44.7231)"
         d="m0 0 .01.01" />
      <path
         id="path164"
         transform="translate(43.4648 15.1963)"
         d="m0 0 .01.01" />
      <path
         id="path166"
         transform="translate(44.8955 12.3369)"
         d="m0 0 .01.01" />
      <path
         id="path168"
         transform="translate(47.9756 14.4268)"
         d="m0 0 .01.01" />
      <path
         id="path170"
         transform="translate(51.6055 16.4063)"
         d="m0 0 .01.01" />
      <path
         id="path172"
         transform="translate(52.375 13.5469)"
         d="m0 0 .01.01" />
      <path
         id="path174"
         transform="translate(51.9482 9.3896)"
         d="m0 0 .01.01" />
      <path
         id="path176"
         transform="translate(48.9648 11.126)"
         d="m0 0 .01.01" />
      <path
         id="path178"
         transform="translate(45.8848 8.376)"
         d="m0 0 .01.01" />
      <path
         id="path180"
         transform="translate(29.9482 43.0566)"
         d="m0 0 .01.01" />
      <path
         id="path182"
         transform="translate(10.2812 48.7231)"
         d="m0 0 .01.01" />
      <path
         id="path184"
         transform="translate(9.1152 44.8896)"
         d="m0 0 .01.01" />
      <path
         id="path186"
         transform="translate(51.7148 6.1768)"
         d="m0 0 .01.01" />
      <path
         id="path188"
         transform="translate(52.7812 3.3896)"
         d="m0 0 .01.01" />
      <path
         id="path190"
         transform="translate(50.4482 1.3896)"
         d="m0 0 .01.01" />
      <path
         id="path192"
         transform="translate(48.5254 3.4268)"
         d="m0 0 .01.01" />
      <path
         id="path194"
         transform="translate(45.5557 1.2266)"
         d="m0 0 .01.01" />
      <path
         id="path196"
         transform="translate(45.5557 4.9668)"
         d="m0 0 .01.01" />
      <path
         id="path198"
         transform="translate(42.0351 7.3867)"
         d="m0 0 .01.01" />
      <path
         id="path200"
         transform="translate(19.7812 53.0566)"
         d="m0 0 .01.01" />
      <path
         id="path202"
         transform="translate(40.7148 1.5566)"
         d="m0 0 .01.01" />
      <path
         id="path204"
         transform="translate(16.1152 46.7231)"
         d="m0 0 .01.01" />
      <path
         id="path206"
         transform="translate(39.3955 8.9268)"
         d="m0 0 .01.01" />
      <path
         id="path208"
         transform="translate(39.1152 4.8896)"
         d="m0 0 .01.01" />
      <path
         id="path210"
         transform="translate(19.9482 47.8896)"
         d="m0 0 .01.01" />
      <path
         id="path212"
         transform="translate(22.7812 50.8896)"
         d="m0 0 .01.01" />
      <path
         id="path214"
         transform="translate(17.4482 51.2231)"
         d="m0 0 .01.01" />
      <path
         id="path216"
         transform="translate(13.7812 50.2231)"
         d="m0 0 .01.01" />
      <path
         id="path218"
         transform="translate(10.2812 52.3896)"
         d="m0 0 .01.01" />
      <path
         id="path220"
         transform="translate(6.7812 48.2231)"
         d="m0 0 .01.01" />
      <path
         id="path222"
         transform="translate(2.1152 47.7231)"
         d="m0 0 .01.01" />
      <path
         id="path224"
         transform="translate(2.1152 52.3896)"
         d="m0 0 .01.01" />
      <path
         id="path226"
         transform="translate(5.4482 53.3896)"
         d="m0 0 .01.01" />
      <path
         id="path228"
         transform="translate(29.792 49.9995)"
         d="m0 0 .01.01" />
      <path
         id="path230"
         transform="translate(32.2812 48.2231)"
         d="m0 0 .01.01" />
      <path
         id="path232"
         transform="translate(32.1152 52.0566)"
         d="m0 0 .01.01" />
      <path
         id="path234"
         transform="translate(25.6152 53.3896)"
         d="m0 0 .01.01" />
      <path
         id="path236"
         transform="translate(36.2812 50.3896)"
         d="m0 0 .01.01" />
      <path
         id="path238"
         transform="translate(37.7812 45.7231)"
         d="m0 0 .01.01" />
      <path
         id="path240"
         transform="translate(40.7812 49.2231)"
         d="m0 0 .01.01" />
      <path
         id="path242"
         transform="translate(42.1152 44.8896)"
         d="m0 0 .01.01" />
      <path
         id="path244"
         transform="translate(45.1152 47.7231)"
         d="m0 0 .01.01" />
      <path
         id="path246"
         transform="translate(43.1152 52.7231)"
         d="m0 0 .01.01" />
      <path
         id="path248"
         transform="translate(38.2812 53.2231)"
         d="m0 0 .01.01" />
      <path
         id="path250"
         transform="translate(45.792 50.833)"
         d="m0 0 .01.01" />
      <path
         id="path252"
         transform="translate(47.2812 44.3896)"
         d="m0 0 .01.01" />
      <path
         id="path254"
         transform="translate(49.7812 48.0566)"
         d="m0 0 .01.01" />
      <path
         id="path256"
         transform="translate(52.1152 44.2231)"
         d="m0 0 .01.01" />
      <path
         id="path258"
         transform="translate(52.7812 51.5566)"
         d="m0 0 .01.01" />
      <path
         id="path260"
         transform="translate(46.625 52.9995)"
         d="m0 0 .01.01" />
      <path
         id="path262"
         transform="translate(37.2812 2.7236)"
         d="m0 0 .01.01" />
      <path
         id="path264"
         transform="translate(35.4355 7.4961)"
         d="m0 0 .01.01" />
      <path
         id="path266"
         transform="translate(32.5752 9.3662)"
         d="m0 0 .01.01" />
      <path
         id="path268"
         transform="translate(32.7949 5.5166)"
         d="m0 0 .01.01" />
      <path
         id="path270"
         transform="translate(34.335 1.2266)"
         d="m0 0 .01.01" />
      <path
         id="path272"
         transform="translate(29.6055 6.9463)"
         d="m0 0 .01.01" />
      <path
         id="path274"
         transform="translate(28.0654 10.0264)"
         d="m0 0 .01.01" />
      <path
         id="path276"
         transform="translate(24.875 7.9365)"
         d="m0 0 .01.01" />
      <path
         id="path278"
         transform="translate(26.6348 4.5264)"
         d="m0 0 .01.01" />
      <path
         id="path280"
         transform="translate(22.125 5.7363)"
         d="m0 0 .01.01" />
      <path
         id="path282"
         transform="translate(18.8252 8.1563)"
         d="m0 0 .01.01" />
      <path
         id="path284"
         transform="translate(15.1953 7.6064)"
         d="m0 0 .01.01" />
      <path
         id="path286"
         transform="translate(19.1553 1.9961)"
         d="m0 0 .01.01" />
      <path
         id="path288"
         transform="translate(23.665 1.0068)"
         d="m0 0 .01.01" />
      <path
         id="path290"
         transform="translate(29.6055 1.9961)"
         d="m0 0 .01.01" />
      <path
         id="path292"
         transform="translate(14.2051 1.1162)"
         d="m0 0 .01.01" />
      <path
         id="path294"
         transform="translate(12.9951 4.7461)"
         d="m0 0 .01.01" />
      <path
         id="path296"
         transform="translate(9.2549 5.7363)"
         d="m0 0 .01.01" />
      <path
         id="path298"
         transform="translate(9.3652 1.1162)"
         d="m0 0 .01.01" />
      <path
         id="path300"
         transform="translate(6.6152 3.6465)"
         d="m0 0 .01.01" />
      <path
         id="path302"
         transform="translate(2.2148 5.2969)"
         d="m0 0 .01.01" />
      <path
         id="path304"
         transform="translate(2.7646 1.666)"
         d="m0 0 .01.01" />
      <path
         id="path306"
         transform="translate(39.1152 34.7231)"
         d="m0 0 .01.01" />
      <path
         id="path308"
         transform="translate(40.4482 37.5566)"
         d="m0 0 .01.01" />
      <path
         id="path310"
         transform="translate(44.4551 34.8867)"
         d="m0 0 .01.01" />
      <path
         id="path312"
         transform="translate(51.165 31.1465)"
         d="m0 0 .01.01" />
      <path
         id="path314"
         transform="translate(46.4355 31.5864)"
         d="m0 0 .01.01" />
      <path
         id="path316"
         transform="translate(38.0752 32.0264)"
         d="m0 0 .01.01" />
      <path
         id="path318"
         transform="translate(34.1152 30.8164)"
         d="m0 0 .01.01" />
      <path
         id="path320"
         transform="translate(32.6855 33.3467)"
         d="m0 0 .01.01" />
      <path
         id="path322"
         transform="translate(36.7549 28.2866)"
         d="m0 0 .01.01" />
      <path
         id="path324"
         transform="translate(39.3955 25.7568)"
         d="m0 0 .01.01" />
      <path
         id="path326"
         transform="translate(42.8057 27.4067)"
         d="m0 0 .01.01" />
      <path
         id="path328"
         transform="translate(42.8057 23.9961)"
         d="m0 0 .01.01" />
      <path
         id="path330"
         transform="translate(46.2148 24.5469)"
         d="m0 0 .01.01" />
      <path
         id="path332"
         transform="translate(46.9853 27.7363)"
         d="m0 0 .01.01" />
      <path
         id="path334"
         transform="translate(49.5156 25.8662)"
         d="m0 0 .01.01" />
      <path
         id="path336"
         transform="translate(52.375 27.9565)"
         d="m0 0 .01.01" />
      <path
         id="path338"
         transform="translate(51.8252 24.2168)"
         d="m0 0 .01.01" />
      <path
         id="path340"
         transform="translate(52.375 20.4766)"
         d="m0 0 .01.01" />
      <path
         id="path342"
         transform="translate(48.125 19)"
         d="m0 0 .01.01" />
      <path
         id="path344"
         transform="translate(25.4482 48.2231)"
         d="m0 0 .01.01" />
      <path
         id="path346"
         transform="translate(48.2812 22.0566)"
         d="m0 0 .01.01" />
      <path
         id="path348"
         transform="translate(34.1152 44.7231)"
         d="m0 0 .01.01" />
      <path
         id="path350"
         transform="translate(41.375 20.4766)"
         d="m0 0 .01.01" />
      <path
         id="path352"
         transform="translate(38.2949 21.5762)"
         d="m0 0 .01.01" />
      <path
         id="path354"
         transform="translate(38.9551 18.0566)"
         d="m0 0 .01.01" />
      <path
         id="path356"
         transform="translate(35.3252 17.2861)"
         d="m0 0 .01.01" />
      <path
         id="path358"
         transform="translate(34.665 20.4766)"
         d="m0 0 .01.01" />
      <path
         id="path360"
         transform="translate(30.9248 20.4766)"
         d="m0 0 .01.01" />
      <path
         id="path362"
         transform="translate(31.4482 15.2227)"
         d="m0 0 .01.01" />
      <path
         id="path364"
         transform="translate(27.1855 21.2461)"
         d="m0 0 .01.01" />
      <path
         id="path366"
         transform="translate(28.0654 17.0664)"
         d="m0 0 .01.01" />
      <path
         id="path368"
         transform="translate(24.9853 18.167)"
         d="m0 0 .01.01" />
      <path
         id="path370"
         transform="translate(22.7851 20.917)"
         d="m0 0 .01.01" />
      <path
         id="path372"
         transform="translate(20.585 17.7266)"
         d="m0 0 .01.01" />
      <path
         id="path374"
         transform="translate(17.0654 18.4961)"
         d="m0 0 .01.01" />
      <path
         id="path376"
         transform="translate(19.1553 21.6865)"
         d="m0 0 .01.01" />
    </g>
    <path
       id="path380"
       transform="translate(15.1953 3.3164)"
       stroke-width=".3"
       d="m0 0h17.38" />
    <path
       id="path382"
       transform="translate(11.7851 7.5)"
       stroke-width=".3"
       d="m0 0h-11.795" />
    <path
       id="path384"
       transform="translate(42.4892 10.9971)"
       stroke-width=".3"
       d="m0 0h-19.141" />
    <path
       id="path386"
       transform="translate(41.375 17.1943)"
       stroke-width=".3"
       d="m0 0h12.54" />
    <path
       id="path388"
       transform="translate(23.5547 16.7549)"
       stroke-width=".3"
       d="m0 0h-14.739" />
    <path
       id="path390"
       transform="translate(23.335 23.7764)"
       stroke-width=".3"
       d="m0 0h17.38" />
    <path
       id="path392"
       transform="translate(19.1963 46.5986)"
       stroke-width=".3"
       d="m0 0h17.38" />
    <path
       id="path394"
       transform="translate(-.0254 50.0474)"
       stroke-width=".3"
       d="m0 0h6.949" />
    <path
       id="path396"
       transform="translate(14.9746 25.3164)"
       stroke-width=".3"
       d="m0 0h-14.52" />
    <path
       id="path398"
       transform="translate(39.6152 29.9365)"
       stroke-width=".3"
       d="m0 0h14.3" />
    <path
       id="path400"
       transform="translate(30.6767 33.8223)"
       stroke-width=".3"
       d="m0 0h-15.18" />
    <path
       id="path402"
       transform="translate(14.2539 39.6509)"
       stroke-width=".3"
       d="m0 0h-14.08" />
    <path
       id="path404"
       transform="translate(32.2939 39.8706)"
       stroke-width=".3"
       d="m0 0h15.84" />
    <path
       id="path406"
       transform="translate(54.1152 7.5)"
       stroke-width=".3"
       d="m0 0h-5.281" />
    <path
       id="path408"
       transform="translate(47.9902 50.0474)"
       stroke-width=".3"
       d="m0 0h6.125" />
    <path
       id="path410"
       transform="translate(50.3545 49.9165)"
       stroke-width=".3"
       d="m0 0v2.336" />
    <path
       id="path412"
       transform="translate(35.8545 39.8716)"
       stroke-width=".3"
       d="m0 0v2.336" />
    <path
       id="path414"
       transform="translate(2.834 39.6631)"
       stroke-width=".3"
       d="m0 0v2.336" />
    <path
       id="path416"
       transform="translate(18.5215 33.877)"
       stroke-width=".3"
       d="m0 0v2.337" />
    <path
       id="path418"
       transform="translate(42.667 30.0229)"
       stroke-width=".3"
       d="m0 0v2.337" />
    <path
       id="path420"
       transform="translate(26.4795 23.8076)"
       stroke-width=".3"
       d="m0 0v2.337" />
    <path
       id="path422"
       transform="translate(3.3545 25.2627)"
       stroke-width=".3"
       d="m0 0v2.336" />
    <path
       id="path424"
       transform="translate(45 17.0996)"
       stroke-width=".3"
       d="m0 0v2.337" />
    <path
       id="path426"
       transform="translate(12.0215 16.8838)"
       stroke-width=".3"
       d="m0 0v2.337" />
    <path
       id="path428"
       transform="translate(26.834 11.1123)"
       stroke-width=".3"
       d="m0 0v2.337" />
    <path
       id="path430"
       transform="translate(52.3642 7.3477)"
       stroke-width=".3"
       d="m0 0v2.336" />
    <path
       id="path432"
       transform="translate(18.334 3.3623)"
       stroke-width=".3"
       d="m0 0v2.337" />
    <path
       id="path434"
       transform="translate(22.125 46.4883)"
       stroke-width=".3"
       d="m0 0v2.337" />
  </g>
</svg>
