<?xml version="1.0" encoding="UTF-8" standalone="no"?>
<svg
   xmlns:dc="http://purl.org/dc/elements/1.1/"
   xmlns:cc="http://creativecommons.org/ns#"
   xmlns:rdf="http://www.w3.org/1999/02/22-rdf-syntax-ns#"
   xmlns:svg="http://www.w3.org/2000/svg"
   xmlns="http://www.w3.org/2000/svg"
   id="svg184"
     width="58.8506"
     height="58.8506"
   version="1.1">
  <defs
     id="defs188" />
  <metadata
     id="metadata2">citation: U.S. Geological Survey, 2006, FGDC Digital Cartographic Standard for Geologic Map Symbolization (PostScript Implementation): U.S. Geological Survey Techniques and Methods 11-A2 [pubs.usgs.gov/tm/2006/11A02/]. converted by CEC Geology LLC 2018 from the USGS lithologic gs converted to inkscape by the University of Otago.<rdf:RDF>
  <cc:Work
     rdf:about="">
    <dc:format>image/svg+xml</dc:format>
    <dc:type
       rdf:resource="http://purl.org/dc/dcmitype/StillImage" />
    <dc:title></dc:title>
  </cc:Work>
</rdf:RDF>
</metadata>
  <g
     id="g182"
     width="58.8506"
     height="58.8506"
     transform="matrix(-1 0 0 1 58.85 0)"
     stroke-width=".3"
     stroke="#231f20"
     fill="none">
    <path
       id="path4"
       transform="translate(1.9531 58.8506)"
       d="m0 0c.854-2.126 2.937-4.768 5.716-6.188 3.094-1.581 4.698-4.369 5.5-5.912.894-1.719 4.16-4.366 6.497-5.466s5.363-4.262 5.913-5.913c.549-1.649 4.125-5.087 5.912-6.049 1.788-.963 5.088-4.125 5.775-5.638.688-1.512 3.163-4.4 5.913-5.913 2.75-1.512 5.225-4.262 5.912-5.912.688-1.65 3.438-4.813 5.913-5.912 1.328-.591 2.706-1.766 3.847-3.068" />
    <path
       id="path6"
       transform="translate(8.3467 58.8506)"
       d="m0 0c.853-2.126 2.937-4.768 5.715-6.188 3.094-1.581 4.698-4.369 5.5-5.912.894-1.719 4.16-4.366 6.497-5.466 2.338-1.1 5.363-4.262 5.913-5.913.55-1.649 4.125-5.087 5.912-6.049 1.788-.963 5.088-4.125 5.776-5.638.687-1.512 3.162-4.4 5.912-5.913 2.75-1.512 5.225-4.262 5.913-5.912.452-1.085 1.795-2.823 3.366-4.2" />
    <path
       id="path8"
       transform="translate(14.8999 58.8506)"
       d="m0 0c.853-2.126 2.936-4.768 5.716-6.188 3.094-1.581 4.697-4.369 5.5-5.912.893-1.719 4.159-4.366 6.496-5.466 2.338-1.1 5.363-4.262 5.913-5.913.55-1.649 4.125-5.087 5.913-6.049 1.787-.963 5.087-4.125 5.775-5.638.687-1.512 3.162-4.4 5.912-5.913.964-.53 1.894-1.212 2.726-1.946" />
    <path
       id="path10"
       transform="translate(21.4521 58.8506)"
       d="m0 0c.854-2.126 2.937-4.768 5.716-6.188 3.094-1.581 4.698-4.369 5.5-5.912.894-1.719 4.16-4.366 6.497-5.466s5.362-4.262 5.913-5.913c.549-1.649 4.125-5.087 5.912-6.049 1.787-.963 5.088-4.125 5.775-5.638.333-.732 1.085-1.788 2.085-2.853" />
    <path
       id="path12"
       transform="translate(28.0059 58.8506)"
       d="m0 0c.853-2.126 2.937-4.768 5.715-6.188 3.094-1.581 4.698-4.369 5.5-5.912.894-1.719 4.16-4.366 6.497-5.466 2.338-1.1 5.363-4.262 5.913-5.913.55-1.649 4.125-5.087 5.913-6.049.38-.205.829-.51 1.307-.877" />
    <path
       id="path14"
       transform="translate(34.5596 58.8506)"
       d="m0 0c.853-2.126 2.936-4.768 5.715-6.188 3.094-1.581 4.698-4.369 5.5-5.912.894-1.719 4.159-4.366 6.497-5.466s5.363-4.262 5.913-5.913c.111-.334.347-.741.666-1.186" />
    <path
       id="path16"
       transform="translate(41.1123 58.8506)"
       d="m0 0c.854-2.126 2.937-4.768 5.716-6.188 3.094-1.581 4.698-4.369 5.5-5.912.894-1.719 4.159-4.366 6.497-5.466.008-.004.017-.008.025-.012" />
    <path
       id="path18"
       transform="translate(47.665 58.8506)"
       d="m0 0c.854-2.126 2.937-4.768 5.716-6.188 3.055-1.561 4.657-4.3 5.47-5.854" />
    <path
       id="path20"
       transform="translate(54.2187 58.8506)"
       d="m0 0c.738-1.839 2.398-4.065 4.632-5.551" />
    <path
       id="path22"
       transform="translate(0 2.8804)"
       d="m0 0c.834-.952 1.54-1.972 2.008-2.88" />
    <path
       id="path24"
       transform="translate(0 7.6597)"
       d="m0 0c.818-.717 1.698-1.336 2.546-1.712 2.3-1.022 4.748-3.795 5.855-5.948" />
    <path
       id="path26"
       transform="translate(0 15.8262)"
       d="m0 0c1.54-1.359 2.74-2.895 3.187-3.967.687-1.65 3.437-4.812 5.913-5.912 2.299-1.022 4.747-3.795 5.854-5.947" />
    <path
       id="path28"
       transform="translate(0 20.8315)"
       d="m0 0c1.064-1.134 2.409-2.28 3.827-3.059 2.75-1.513 5.225-4.263 5.913-5.913.687-1.65 3.437-4.813 5.912-5.912 2.3-1.022 4.747-3.795 5.855-5.947" />
    <path
       id="path30"
       transform="translate(0 28.4458)"
       d="m0 0c1.767-1.357 3.927-3.57 4.468-4.761.688-1.512 3.163-4.4 5.913-5.913 2.75-1.512 5.224-4.262 5.912-5.912.687-1.65 3.437-4.813 5.913-5.913 2.299-1.022 4.747-3.795 5.855-5.947" />
    <path
       id="path32"
       transform="translate(0 34.1855)"
       d="m0 0c1.258-1.754 3.821-4.096 5.247-4.863 1.787-.963 5.087-4.125 5.774-5.638.688-1.512 3.163-4.4 5.913-5.912 2.75-1.513 5.225-4.263 5.913-5.913.687-1.65 3.437-4.813 5.912-5.912 2.3-1.022 4.747-3.795 5.855-5.948" />
    <path
       id="path34"
       transform="translate(0 41.2725)"
       d="m0 0c2.335-1.111 5.339-4.256 5.887-5.9.551-1.65 4.125-5.088 5.913-6.05 1.787-.963 5.087-4.125 5.775-5.638.687-1.512 3.162-4.4 5.912-5.913 2.75-1.512 5.225-4.262 5.913-5.912.687-1.65 3.437-4.813 5.913-5.912 2.299-1.022 4.747-3.795 5.854-5.948" />
    <path
       id="path36"
       transform="translate(0 46.8086)"
       d="m0 0c.01-.02.02-.039.03-.058.894-1.719 4.16-4.366 6.497-5.466 2.338-1.1 5.363-4.262 5.913-5.912s4.125-5.088 5.913-6.05c1.787-.963 5.087-4.125 5.774-5.638.688-1.512 3.163-4.4 5.913-5.913 2.75-1.512 5.225-4.262 5.913-5.912.687-1.65 3.437-4.813 5.912-5.912 2.3-1.022 4.747-3.795 5.855-5.948" />
    <path
       id="path38"
       transform="translate(0 53.2993)"
       d="m0 0c.348-.231.71-.445 1.084-.636 3.094-1.582 4.697-4.37 5.5-5.913.893-1.719 4.159-4.366 6.497-5.466s5.362-4.262 5.912-5.912c.551-1.65 4.125-5.088 5.913-6.05 1.787-.962 5.087-4.125 5.775-5.638.687-1.512 3.162-4.4 5.912-5.912 2.75-1.513 5.225-4.263 5.913-5.913.687-1.65 3.437-4.812 5.913-5.912 2.299-1.022 4.747-3.795 5.854-5.947" />
    <path
       id="path40"
       transform="translate(12.5552 51.7021)"
       d="m0 0-2.599 1.114" />
    <path
       id="path42"
       transform="translate(11.5835 45.8335)"
       d="m0 0-2.599 1.114" />
    <path
       id="path44"
       transform="translate(17.0435 47.6255)"
       d="m0 0-.124-2.723" />
    <path
       id="path46"
       transform="translate(26.9556 38.1943)"
       d="m0 0-2.908 1.299" />
    <path
       id="path48"
       transform="translate(33.6143 30.9697)"
       d="m0 0-3.005.933" />
    <path
       id="path50"
       transform="translate(24.4419 27.8813)"
       d="m0 0-2.408.707" />
    <path
       id="path52"
       transform="translate(40.2124 25.2915)"
       d="m0 0-.742-2.846" />
    <path
       id="path54"
       transform="translate(48.6211 15.6333)"
       d="m0 0-2.533 1.998" />
    <path
       id="path56"
       transform="translate(54.6235 10.1196)"
       d="m0 0-2.392.907" />
    <path
       id="path58"
       transform="translate(12.7485 56.1108)"
       d="m0 0-.852 2.296" />
    <path
       id="path60"
       transform="translate(20.5508 51.502)"
       d="m0 0-2.109-1.1" />
    <path
       id="path62"
       transform="translate(26.0024 45.0698)"
       d="m0 0-3.055-.187" />
    <path
       id="path64"
       transform="translate(12.6387 40.1895)"
       d="m0 0-2.363.213" />
    <path
       id="path66"
       transform="translate(33.54 38.3125)"
       d="m0 0-.371-2.97" />
    <path
       id="path68"
       transform="translate(40.0454 29.5498)"
       d="m0 0-1.289 2.645" />
    <path
       id="path70"
       transform="translate(47.1982 24.5195)"
       d="m0 0-1.456-2.459" />
    <path
       id="path72"
       transform="translate(33.7129 25.6943)"
       d="m0 0-1.017-1.572" />
    <path
       id="path74"
       transform="translate(21.5669 56.0693)"
       d="m0 0-1.608-1.238" />
    <path
       id="path76"
       transform="translate(40.9258 37.791)"
       d="m0 0-2.681 1.403" />
    <path
       id="path78"
       transform="translate(25.9419 31.96)"
       d="m0 0-3.032 1.856" />
    <path
       id="path80"
       transform="translate(30.1714 47.6108)"
       d="m0 0-.372-2.475" />
    <path
       id="path82"
       transform="translate(47.5674 30.6685)"
       d="m0 0-3.094.371" />
    <path
       id="path84"
       transform="translate(54.9839 22.1938)"
       d="m0 0-2.428.447" />
    <path
       id="path86"
       transform="translate(55.2178 14.7681)"
       d="m0 0-.743 2.475" />
    <path
       id="path88"
       transform="translate(3.7178 48.4731)"
       d="m0 0-1.609-1.237" />
    <path
       id="path90"
       transform="translate(16.4751 36.229)"
       d="m0 0-.371-2.475" />
    <path
       id="path92"
       transform="translate(29.5308 21.2554)"
       d="m0 0-.755 1.98" />
    <path
       id="path94"
       transform="translate(40.3896 10.4756)"
       d="m0 0-.743 2.475" />
    <path
       id="path96"
       transform="translate(5.064 52.8613)"
       d="m0 0-2.97 1.732" />
    <path
       id="path98"
       transform="translate(41.8169 16.9858)"
       d="m0 0-2.177.64" />
    <path
       id="path100"
       transform="translate(47.4497 9.0527)"
       d="m0 0-1.674 2.183" />
    <path
       id="path102"
       transform="translate(48.8589 3.8608)"
       d="m0 0-1-1.833" />
    <path
       id="path104"
       transform="translate(54.2974 3.0986)"
       d="m0 0-.647 2.033" />
    <path
       id="path106"
       transform="translate(35.6089 17.0688)"
       d="m0 0-1.644-1.037" />
    <path
       id="path108"
       transform="translate(18.8262 38.0854)"
       d="m0 0-.99 2.723" />
    <path
       id="path110"
       transform="translate(47.1968 56.5723)"
       d="m0 0-2.599 1.114" />
    <path
       id="path112"
       transform="translate(55.1089 49.5688)"
       d="m0 0-.333-3.5" />
    <path
       id="path114"
       transform="translate(48.2915 49.9648)"
       d="m0 0-3.345.487" />
    <path
       id="path116"
       transform="translate(54.959 55.002)"
       d="m0 0-3.055-.187" />
    <path
       id="path118"
       transform="translate(39.7754 49.2358)"
       d="m0 0-1.334 2.833" />
    <path
       id="path120"
       transform="translate(56.5464 40.5273)"
       d="m0 0-2.488 1.341" />
    <path
       id="path122"
       transform="translate(32.9883 57.5356)"
       d="m0 0-1.609-1.237" />
    <path
       id="path124"
       transform="translate(47.5542 43.4434)"
       d="m0 0-.371-2.475" />
    <path
       id="path126"
       transform="translate(55.1079 27.2617)"
       d="m0 0-.372 2.846" />
    <path
       id="path128"
       transform="translate(33.0464 51.6523)"
       d="m0 0-2.833.667" />
    <path
       id="path130"
       transform="translate(48.2754 36.4023)"
       d="m0 0h-2.145" />
    <path
       id="path132"
       transform="translate(24.1558 7.8174)"
       d="m0 0-2.847.743" />
    <path
       id="path134"
       transform="translate(5.1089 6.0688)"
       d="m0 0 2.029.182" />
    <path
       id="path136"
       transform="translate(4.2114 22.2139)"
       d="m0 0-2.97.743" />
    <path
       id="path138"
       transform="translate(22.9419 22.5688)"
       d="m0 0-1.519-1.093" />
    <path
       id="path140"
       transform="translate(5.252 11.5869)"
       d="m0 0-.743 3.341" />
    <path
       id="path142"
       transform="translate(25.5029 2.2744)"
       d="m0 0-2.644-1.289" />
    <path
       id="path144"
       transform="translate(16.352 3.4487)"
       d="m0 0-2.459 1.457" />
    <path
       id="path146"
       transform="translate(18.0464 13.5898)"
       d="m0 0-1.408 2.446" />
    <path
       id="path148"
       transform="translate(11.4214 26.3608)"
       d="m0 0-1.167 2.167" />
    <path
       id="path150"
       transform="translate(9.2754 35.4023)"
       d="m0 0-1.263-1.732" />
    <path
       id="path152"
       transform="translate(2.9287 42.7627)"
       d="m0 0-.32-2.027" />
    <path
       id="path154"
       transform="translate(9.1089 23.2358)"
       d="m0 0-.951-2.251" />
    <path
       id="path156"
       transform="translate(16.9419 27.0688)"
       d="m0 0-.94 1.702" />
    <path
       id="path158"
       transform="translate(17.1538 22.0186)"
       d="m0 0-1.712-1.616" />
    <path
       id="path160"
       transform="translate(29.4839 9.5898)"
       d="m0 0-.898-1.869" />
    <path
       id="path162"
       transform="translate(23.7754 13.9023)"
       d="m0 0-.818 2.361" />
    <path
       id="path164"
       transform="translate(15.6089 10.4023)"
       d="m0 0-.415-2.931" />
    <path
       id="path166"
       transform="translate(37.5879 7.7568)"
       d="m0 0-2.019-.865" />
    <path
       id="path168"
       transform="translate(3.9512 3.3662)"
       d="m0 0-.846-2.227" />
    <path
       id="path170"
       transform="translate(2.9214 29.2983)"
       d="m0 0-2.172.816" />
    <path
       id="path172"
       transform="translate(3.6089 35.2358)"
       d="m0 0-2.058-.494" />
    <path
       id="path174"
       transform="translate(12.1504 14.2568)"
       d="m0 0-2.669.803" />
    <path
       id="path176"
       transform="translate(30.9419 15.0688)"
       d="m0 0-.814-1.833" />
    <path
       id="path178"
       transform="translate(39.6875 44.103)"
       d="m0 0-2.846.743" />
    <path
       id="path180"
       transform="translate(36.2544 3.7148)"
       d="m0 0-.814-1.833" />
  </g>
</svg>
