<?xml version="1.0" encoding="UTF-8" standalone="no"?>
<svg
   xmlns:dc="http://purl.org/dc/elements/1.1/"
   xmlns:cc="http://creativecommons.org/ns#"
   xmlns:rdf="http://www.w3.org/1999/02/22-rdf-syntax-ns#"
   xmlns:svg="http://www.w3.org/2000/svg"
   xmlns="http://www.w3.org/2000/svg"
     width="53.584"
     height="53.584"
   id="svg266"
   version="1.1">
  <defs
     id="defs270" />
  <metadata
     id="metadata2">citation: U.S. Geological Survey, 2006, FGDC Digital Cartographic Standard for Geologic Map Symbolization (PostScript Implementation): U.S. Geological Survey Techniques and Methods 11-A2 [pubs.usgs.gov/tm/2006/11A02/]. converted by CEC Geology LLC 2018 from the USGS lithologic gs converted to inkscape by the University of Otago.<rdf:RDF>
  <cc:Work
     rdf:about="">
    <dc:format>image/svg+xml</dc:format>
    <dc:type
       rdf:resource="http://purl.org/dc/dcmitype/StillImage" />
    <dc:title></dc:title>
  </cc:Work>
</rdf:RDF>
</metadata>
  <g
     stroke-width=".3"
     stroke="#231f20"
     fill="none"
     id="g264"
     width="53.584"
     height="53.584">
    <path
       id="path4"
       transform="translate(3.7764,52.3208)"
       d="M 0,0 H -3.776" />
    <path
       id="path6"
       transform="translate(6.3564,52.3208)"
       d="M 0,0 H 6.369" />
    <path
       id="path8"
       transform="translate(15.2734,52.3208)"
       d="M 0,0 H 6.369" />
    <path
       id="path10"
       transform="translate(24.1895,52.3208)"
       d="M 0,0 H 6.369" />
    <path
       id="path12"
       transform="translate(33.1064,52.3208)"
       d="M 0,0 H 6.369" />
    <path
       id="path14"
       transform="translate(42.0234,52.3208)"
       d="M 0,0 H 6.369" />
    <path
       id="path16"
       transform="translate(53.584,52.3208)"
       d="M 0,0 H -2.645" />
    <path
       id="path18"
       transform="translate(0,40.4409)"
       d="M 0,0 H 1.706" />
    <path
       id="path20"
       transform="translate(4.2871,40.4409)"
       d="M 0,0 H 6.368" />
    <path
       id="path22"
       transform="translate(13.2031,40.4409)"
       d="M 0,0 H 6.369" />
    <path
       id="path24"
       transform="translate(22.1201,40.4409)"
       d="M 0,0 H 6.369" />
    <path
       id="path26"
       transform="translate(31.0361,40.4409)"
       d="M 0,0 H 6.369" />
    <path
       id="path28"
       transform="translate(39.9531,40.4409)"
       d="M 0,0 H 6.369" />
    <path
       id="path30"
       transform="translate(48.8701,40.4409)"
       d="M 0,0 H 4.714" />
    <path
       id="path32"
       transform="translate(5.2422,37.4365)"
       d="M 0,0 H -5.242" />
    <path
       id="path34"
       transform="translate(14.1592,37.4365)"
       d="M 0,0 H -6.369" />
    <path
       id="path36"
       transform="translate(23.0752,37.4365)"
       d="M 0,0 H -6.369" />
    <path
       id="path38"
       transform="translate(31.9922,37.4365)"
       d="M 0,0 H -6.369" />
    <path
       id="path40"
       transform="translate(40.9082,37.4365)"
       d="M 0,0 H -6.369" />
    <path
       id="path42"
       transform="translate(49.8252,37.4365)"
       d="M 0,0 H -6.369" />
    <path
       id="path44"
       transform="translate(53.584,37.4365)"
       d="M 0,0 H -1.211" />
    <path
       id="path46"
       transform="translate(0,34.27)"
       d="M 0,0 H 2.184" />
    <path
       id="path48"
       transform="translate(11.1338,34.27)"
       d="M 0,0 H -6.369" />
    <path
       id="path50"
       transform="translate(13.6807,34.27)"
       d="M 0,0 H 6.369" />
    <path
       id="path52"
       transform="translate(22.5977,34.27)"
       d="M 0,0 H 6.369" />
    <path
       id="path54"
       transform="translate(31.5146,34.27)"
       d="M 0,0 H 6.368" />
    <path
       id="path56"
       transform="translate(40.4307,34.27)"
       d="M 0,0 H 6.369" />
    <path
       id="path58"
       transform="translate(49.3477,34.27)"
       d="M 0,0 H 4.236" />
    <path
       id="path60"
       transform="translate(6.6748,31.3564)"
       d="M 0,0 H -6.369" />
    <path
       id="path62"
       transform="translate(15.5918,31.3564)"
       d="M 0,0 H -6.369" />
    <path
       id="path64"
       transform="translate(24.5088,31.3564)"
       d="M 0,0 H -6.369" />
    <path
       id="path66"
       transform="translate(33.4248,31.3564)"
       d="M 0,0 H -6.369" />
    <path
       id="path68"
       transform="translate(42.3418,31.3564)"
       d="M 0,0 H -6.369" />
    <path
       id="path70"
       transform="translate(44.8887,31.3564)"
       d="M 0,0 H 6.369" />
    <path
       id="path72"
       transform="translate(3.458,28.3867)"
       d="M 0,0 H -3.458" />
    <path
       id="path74"
       transform="translate(6.0381,28.3867)"
       d="M 0,0 H 6.369" />
    <path
       id="path76"
       transform="translate(14.9551,28.3867)"
       d="M 0,0 H 6.369" />
    <path
       id="path78"
       transform="translate(23.8711,28.3867)"
       d="M 0,0 H 6.369" />
    <path
       id="path80"
       transform="translate(32.7881,28.3867)"
       d="M 0,0 H 6.369" />
    <path
       id="path82"
       transform="translate(41.7051,28.3867)"
       d="M 0,0 H 6.368" />
    <path
       id="path84"
       transform="translate(50.6211,28.3867)"
       d="M 0,0 H 2.963" />
    <path
       id="path86"
       transform="translate(7.9492,25.5352)"
       d="M 0,0 H -6.369" />
    <path
       id="path88"
       transform="translate(16.8652,25.5352)"
       d="M 0,0 H -6.369" />
    <path
       id="path90"
       transform="translate(25.7822,25.5352)"
       d="M 0,0 H -6.369" />
    <path
       id="path92"
       transform="translate(34.6982,25.5352)"
       d="M 0,0 H -6.368" />
    <path
       id="path94"
       transform="translate(43.6152,25.5352)"
       d="M 0,0 H -6.369" />
    <path
       id="path96"
       transform="translate(52.5322,25.5352)"
       d="M 0,0 H -6.369" />
    <path
       id="path98"
       transform="translate(0,13.3716)"
       d="M 0,0 H 6.038" />
    <path
       id="path100"
       transform="translate(14.9551,13.3716)"
       d="M 0,0 H -6.369" />
    <path
       id="path102"
       transform="translate(17.502,13.3716)"
       d="M 0,0 H 6.369" />
    <path
       id="path104"
       transform="translate(26.4189,13.3716)"
       d="M 0,0 H 6.369" />
    <path
       id="path106"
       transform="translate(35.3359,13.3716)"
       d="M 0,0 H 6.369" />
    <path
       id="path108"
       transform="translate(44.252,13.3716)"
       d="M 0,0 H 6.369" />
    <path
       id="path110"
       transform="translate(53.584,13.3716)"
       d="M 0,0 H -0.415" />
    <path
       id="path112"
       transform="translate(0,10.5757)"
       d="M 0,0 H 3.14" />
    <path
       id="path114"
       transform="translate(12.0889,10.5757)"
       d="M 0,0 H -6.369" />
    <path
       id="path116"
       transform="translate(21.0059,10.5757)"
       d="M 0,0 H -6.369" />
    <path
       id="path118"
       transform="translate(29.9219,10.5757)"
       d="M 0,0 H -6.369" />
    <path
       id="path120"
       transform="translate(38.8389,10.5757)"
       d="M 0,0 H -6.369" />
    <path
       id="path122"
       transform="translate(47.7549,10.5757)"
       d="M 0,0 H -6.369" />
    <path
       id="path124"
       transform="translate(50.3027,10.5757)"
       d="M 0,0 H 3.281" />
    <path
       id="path126"
       transform="translate(8.2676,7.4404)"
       d="M 0,0 H -6.369" />
    <path
       id="path128"
       transform="translate(10.8145,7.4404)"
       d="M 0,0 H 6.369" />
    <path
       id="path130"
       transform="translate(26.1006,7.4404)"
       d="M 0,0 H -6.369" />
    <path
       id="path132"
       transform="translate(35.0176,7.4404)"
       d="M 0,0 H -6.369" />
    <path
       id="path134"
       transform="translate(37.5645,7.4404)"
       d="M 0,0 H 6.369" />
    <path
       id="path136"
       transform="translate(46.4814,7.4404)"
       d="M 0,0 H 6.369" />
    <path
       id="path138"
       transform="translate(4.7314,4.4707)"
       d="M 0,0 H -4.731" />
    <path
       id="path140"
       transform="translate(7.3115,4.4707)"
       d="M 0,0 H 6.369" />
    <path
       id="path142"
       transform="translate(16.2285,4.4707)"
       d="M 0,0 H 6.369" />
    <path
       id="path144"
       transform="translate(25.1455,4.4707)"
       d="M 0,0 H 6.369" />
    <path
       id="path146"
       transform="translate(34.0615,4.4707)"
       d="M 0,0 H 6.369" />
    <path
       id="path148"
       transform="translate(42.9785,4.4707)"
       d="M 0,0 H 6.369" />
    <path
       id="path150"
       transform="translate(51.8955,4.4707)"
       d="M 0,0 H 1.688" />
    <path
       id="path152"
       transform="translate(8.5859,1.5005)"
       d="M 0,0 H -6.369" />
    <path
       id="path154"
       transform="translate(17.502,1.5005)"
       d="M 0,0 H -6.368" />
    <path
       id="path156"
       transform="translate(26.4189,1.5005)"
       d="M 0,0 H -6.369" />
    <path
       id="path158"
       transform="translate(35.3359,1.5005)"
       d="M 0,0 H -6.369" />
    <path
       id="path160"
       transform="translate(44.252,1.5005)"
       d="M 0,0 H -6.369" />
    <path
       id="path162"
       transform="translate(53.1689,1.5005)"
       d="M 0,0 H -6.369" />
    <path
       id="path164"
       transform="translate(45.8838,46.3696)"
       d="M 0,0 H 4.737" />
    <path
       id="path166"
       transform="translate(5.2588,46.3696)"
       d="M 0,0 H 3.862" />
    <path
       id="path168"
       transform="translate(37.8711,46.3696)"
       d="M 0,0 H -6.612" />
    <path
       id="path170"
       transform="translate(18.0088,46.3696)"
       d="M 0,0 H 6.112" />
    <path
       id="path172"
       transform="translate(53.584,46.3696)"
       d="M 0,0 H -2.963" />
    <path
       id="path174"
       transform="translate(31.2588,46.3696)"
       d="M 0,0 H -7.138" />
    <path
       id="path176"
       transform="translate(9.1211,46.3696)"
       d="M 0,0 H 8.888" />
    <path
       id="path178"
       transform="translate(45.8838,46.3696)"
       d="M 0,0 H -8.013" />
    <path
       id="path180"
       transform="translate(5.2588,46.3696)"
       d="M 0,0 H -5.259" />
    <path
       id="path182"
       transform="translate(53.584,43.0879)"
       d="M 0,0 H -53.584" />
    <path
       id="path184"
       transform="translate(45.8838,46.3696)"
       d="M 0,0 V -3.269" />
    <path
       id="path186"
       transform="translate(45.8838,46.3696)"
       d="M 0,0 V 0.031" />
    <path
       id="path188"
       transform="translate(31.2588,46.4009)"
       d="M 0,0 V -0.031" />
    <path
       id="path190"
       transform="translate(31.2588,46.3696)"
       d="M 0,0 V -3.269" />
    <path
       id="path192"
       transform="translate(18.0088,43.1006)"
       d="M 0,0 V 3.269" />
    <path
       id="path194"
       transform="translate(18.0088,46.3696)"
       d="M 0,0 V 0.031" />
    <path
       id="path196"
       transform="translate(5.2588,46.3696)"
       d="M 0,0 V -3.269" />
    <path
       id="path198"
       transform="translate(5.2588,46.3696)"
       d="M 0,0 V 0.031" />
    <path
       id="path200"
       transform="translate(37.8711,49.748)"
       d="M 0,0 H 12.75" />
    <path
       id="path202"
       transform="translate(50.6211,49.748)"
       d="M 0,0 H 2.963" />
    <path
       id="path204"
       transform="translate(9.1211,49.748)"
       d="M 0,0 H -9.121" />
    <path
       id="path206"
       transform="translate(37.8711,49.748)"
       d="M 0,0 H -13.75" />
    <path
       id="path208"
       transform="translate(9.1211,49.748)"
       d="M 0,0 H 15" />
    <path
       id="path210"
       transform="translate(9.1211,46.3354)"
       d="M 0,0 V 0.034" />
    <path
       id="path212"
       transform="translate(9.1211,49.748)"
       d="M 0,0 V -3.378" />
    <path
       id="path214"
       transform="translate(9.1211,49.748)"
       d="M 0,0 V 0.012" />
    <path
       id="path216"
       transform="translate(24.1211,49.748)"
       d="M 0,0 V 0.012" />
    <path
       id="path218"
       transform="translate(24.1211,46.3696)"
       d="M 0,0 V 3.378" />
    <path
       id="path220"
       transform="translate(24.1211,46.3354)"
       d="M 0,0 V 0.034" />
    <path
       id="path222"
       transform="translate(37.8711,49.748)"
       d="M 0,0 V 0.012" />
    <path
       id="path224"
       transform="translate(37.8711,46.3696)"
       d="M 0,0 V -0.034" />
    <path
       id="path226"
       transform="translate(37.8711,49.748)"
       d="M 0,0 V -3.378" />
    <path
       id="path228"
       transform="translate(50.6211,49.748)"
       d="M 0,0 V 0.012" />
    <path
       id="path230"
       transform="translate(50.6211,46.3696)"
       d="M 0,0 V 3.378" />
    <path
       id="path232"
       transform="translate(50.6211,46.3354)"
       d="M 0,0 V 0.034" />
    <path
       id="path234"
       transform="translate(8.4355,15.6587)"
       d="M 0,0 H 13.25" />
    <path
       id="path236"
       transform="translate(35.3105,15.6587)"
       d="M 0,0 H -13.625" />
    <path
       id="path238"
       transform="translate(50.1855,15.6587)"
       d="M 0,0 H 3.398" />
    <path
       id="path240"
       transform="translate(8.4355,15.6587)"
       d="M 0,0 H -8.436" />
    <path
       id="path242"
       transform="translate(35.3105,15.6587)"
       d="M 0,0 H 14.875" />
    <path
       id="path244"
       transform="translate(53.584,22.4966)"
       d="M 0,0 H -53.584" />
    <path
       id="path246"
       transform="translate(53.584,19.2715)"
       d="M 0,0 H -53.584" />
    <path
       id="path248"
       transform="translate(43.752,19.2837)"
       d="M 0,0 V 3.163" />
    <path
       id="path250"
       transform="translate(29.6025,19.2837)"
       d="M 0,0 V 3.163" />
    <path
       id="path252"
       transform="translate(14.4775,19.2837)"
       d="M 0,0 V 3.163" />
    <path
       id="path254"
       transform="translate(2.0605,22.4463)"
       d="M 0,0 V -3.163" />
    <path
       id="path256"
       transform="translate(8.4355,15.6587)"
       d="M 0,0 V 3.563" />
    <path
       id="path258"
       transform="translate(21.6855,19.2212)"
       d="M 0,0 V -3.563" />
    <path
       id="path260"
       transform="translate(35.3105,15.6587)"
       d="M 0,0 V 3.563" />
    <path
       id="path262"
       transform="translate(50.1855,15.6587)"
       d="M 0,0 V 3.563" />
  </g>
</svg>
