<?xml version="1.0" encoding="UTF-8" standalone="no"?>
<svg
   xmlns:dc="http://purl.org/dc/elements/1.1/"
   xmlns:cc="http://creativecommons.org/ns#"
   xmlns:rdf="http://www.w3.org/1999/02/22-rdf-syntax-ns#"
   xmlns:svg="http://www.w3.org/2000/svg"
   xmlns="http://www.w3.org/2000/svg"
   height="41.863667"
   width="41.091988"
   id="svg260"
   version="1.1">
  <defs
     id="defs264" />
  <metadata
     id="metadata2">citation: U.S. Geological Survey, 2006, FGDC Digital Cartographic Standard for Geologic Map Symbolization (PostScript Implementation): U.S. Geological Survey Techniques and Methods 11-A2 [pubs.usgs.gov/tm/2006/11A02/]. converted by CEC Geology LLC 2018 from the USGS lithologic gs converted to inkscape by the University of Otago.<rdf:RDF>
  <cc:Work
     rdf:about="">
    <dc:format>image/svg+xml</dc:format>
    <dc:type
       rdf:resource="http://purl.org/dc/dcmitype/StillImage" />
    <dc:title></dc:title>
  </cc:Work>
</rdf:RDF>
</metadata>
  <g
     stroke-width=".3"
     stroke="#231f20"
     fill="none"
     id="g258"
     width="41.8809"
     height="41.8818">
    <path
       id="path4"
       transform="translate(41.0107,30.5542)"
       d="M 0,0 C 0.171,-0.767 0.255,-2.213 0.086,-3.575" />
    <path
       id="path6"
       transform="translate(41.2295,24.8559)"
       d="M 0,0 C -0.255,-1.276 -0.17,-3.66 0.085,-4.341" />
    <path
       id="path8"
       transform="translate(39.3594,28.7392)"
       d="m 0,0 c 0.17,-1.447 0.17,-1.958 -0.17,-3.49 -0.341,-1.532 -0.341,-2.213 0,-3.32" />
    <path
       id="path10"
       transform="translate(37.1733,30.9282)"
       d="M 0,0 C 0.341,-1.192 0.18,-2.567 -0.16,-4.184" />
    <path
       id="path12"
       transform="translate(36.9702,24.9565)"
       d="M 0,0 C -0.042,-0.893 -0.17,-0.553 -0.255,-1.532 -0.341,-2.511 0.477,-4.689 1.073,-5.711" />
    <path
       id="path14"
       transform="translate(34.4595,29.5107)"
       d="m 0,0 c 0.341,-1.362 0.254,-2.384 -0.17,-4.043 -0.426,-1.66 -0.3,-2.37 0.423,-3.519" />
    <path
       id="path16"
       transform="translate(31.6079,30.7446)"
       d="M 0,0 C 0.468,-1.191 0.681,-2.639 0.638,-3.49" />
    <path
       id="path18"
       transform="translate(32.1611,25.7661)"
       d="M 0,0 C -0.255,-1.745 -0.947,-5.115 0.331,-6.52" />
    <path
       id="path20"
       transform="translate(30.9619,34.2368)"
       d="M 0,0 C 0.17,-0.893 0.254,-1.669 0.254,-2.009" />
    <path
       id="path22"
       transform="translate(29.9058,27.5635)"
       d="M 0,0 C 0.084,-1.234 0,-2.649 -0.255,-3.755 -0.511,-4.862 0.234,-7.901 0.703,-8.752" />
    <path
       id="path24"
       transform="translate(27.7349,30.4043)"
       d="M 0,0 C 0.255,-1.659 0.341,-3.363 0,-5.192" />
    <path
       id="path26"
       transform="translate(27.3945,23.6372)"
       d="M 0,0 C -0.255,-1.021 -0.255,-3.021 0.128,-3.617" />
    <path
       id="path28"
       transform="translate(25.8198,27.979)"
       d="M 0,0 C 0.17,-1.49 0.043,-2.554 -0.425,-3.958 -0.893,-5.363 -0.978,-7.15 -0.553,-8.129" />
    <path
       id="path30"
       transform="translate(23.4365,30.5405)"
       d="M 0,0 C 0.214,-1.233 0.383,-3.499 0,-5.03" />
    <path
       id="path32"
       transform="translate(23.126,23.6953)"
       d="M 0,0 C -0.574,-2.677 -0.699,-5.144 -0.316,-5.767" />
    <path
       id="path34"
       transform="translate(21.437,28.6597)"
       d="M 0,0 C 0.128,-1.873 0.212,-2.553 -0.171,-4.086 -0.554,-5.618 -0.597,-6.767 -0.469,-7.491" />
    <path
       id="path36"
       transform="translate(19.7471,31.1694)"
       d="M 0,0 C 0.34,-1.32 -0.056,-3.532 -0.225,-4.468" />
    <path
       id="path38"
       transform="translate(19.3081,24.9995)"
       d="M 0,0 C -0.085,-0.809 -0.042,-0.468 -0.213,-1.447 -0.383,-2.426 -0.468,-4.212 0,-5.108" />
    <path
       id="path40"
       transform="translate(17.2363,29.1426)"
       d="m 0,0 c 0.212,-2 0.212,-3.845 0.042,-5.292 -0.171,-1.447 -0.171,-3.149 0.127,-3.83" />
    <path
       id="path42"
       transform="translate(15.0298,30.2768)"
       d="M 0,0 C 0.468,-1.447 0.681,-2.427 0.639,-3.532" />
    <path
       id="path44"
       transform="translate(15.2002,24.6162)"
       d="M 0,0 C -0.256,-1.191 -0.425,-3.489 0.297,-4.681" />
    <path
       id="path46"
       transform="translate(12.8438,30.5903)"
       d="M 0,0 C 0.468,-2.085 0.921,-3.761 0.624,-5.25 0.325,-6.74 0.283,-6.612 0.283,-7.038" />
    <path
       id="path48"
       transform="translate(13.4482,22.185)"
       d="M 0,0 C 0.232,-0.868 0.322,-2.64 0.386,-3.354" />
    <path
       id="path50"
       transform="translate(11.311,29.1274)"
       d="M 0,0 C 0.34,-1.745 0.425,-2.809 0.085,-4.34 -0.255,-5.872 -0.212,-7.704 0.34,-9.064" />
    <path
       id="path52"
       transform="translate(8.8052,30.8896)"
       d="M 0,0 C 0.384,-1.277 0.797,-2.826 0.754,-3.677" />
    <path
       id="path54"
       transform="translate(9.2612,24.5737)"
       d="M 0,0 C -0.383,-1.49 -0.512,-3.769 0.467,-5.344" />
    <path
       id="path56"
       transform="translate(7.2656,29.6802)"
       d="M 0,0 C 0.255,-1.744 0.382,-2.595 0.085,-3.872 -0.213,-5.148 -0.17,-5.107 -0.17,-5.575" />
    <path
       id="path58"
       transform="translate(26.8008,40.0234)"
       d="M 0,0 C 0.73,-0.935 0.927,-7.496 0.927,-7.496" />
    <path
       id="path60"
       transform="translate(5.7471,28.5625)"
       d="m 0,0 c -0.213,-1.362 -0.494,-3.861 -0.749,-4.797 -0.255,-0.936 -0.639,-2.766 0,-3.831" />
    <path
       id="path62"
       transform="translate(3.5864,30.4453)"
       d="M 0,0 C 0.213,-1.404 0.425,-2.299 0.17,-3.532 -0.084,-4.767 0,-5.107 -0.043,-5.362" />
    <path
       id="path64"
       transform="translate(3.0767,22.8296)"
       d="M 0,0 C -0.213,-0.81 -0.298,-1.745 -0.085,-2.342 0.127,-2.938 0.699,-3.934 0.699,-3.934" />
    <path
       id="path66"
       transform="translate(1.4102,28.5737)"
       d="M 0,0 C 0.34,-1.191 0.596,-3.276 0.212,-4.639 -0.171,-6 -0.426,-7.787 0.128,-8.894" />
    <path
       id="path68"
       transform="translate(6.7974,22.1479)"
       d="M 0,0 C 0.042,-0.85 1.223,-3.701 1.605,-4.254" />
    <path
       id="path70"
       transform="translate(1.0938,17.0415)"
       d="M 0,0 C 0.34,-1.703 0.468,-2.214 0.042,-3.703 -0.383,-5.193 -0.553,-6.257 -0.17,-7.405" />
    <path
       id="path72"
       transform="translate(2.668,18.3179)"
       d="M 0,0 C 0.341,-0.894 0.681,-2.042 0.596,-2.894 0.511,-3.745 0.299,-4.213 0.341,-4.341" />
    <path
       id="path74"
       transform="translate(2.7534,12.8286)"
       d="M 0,0 C -0.341,-1.022 0.118,-3.419 0.585,-4.355" />
    <path
       id="path76"
       transform="translate(4.7964,17.2539)"
       d="m 0,0 c 0.212,-1.064 0.425,-1.618 -0.085,-3.191 -0.511,-1.576 -0.426,-2.81 -0.128,-3.66" />
    <path
       id="path78"
       transform="translate(6.4292,18.709)"
       d="M 0,0 C 0.256,-1.064 0.469,-2.256 0.256,-3.32" />
    <path
       id="path80"
       transform="translate(6.8384,13.5517)"
       d="M 0,0 C -0.383,-1.064 -0.279,-3.592 0.019,-4.443" />
    <path
       id="path82"
       transform="translate(8.8809,15.8071)"
       d="M 0,0 C 0.043,-0.893 0.086,-1.021 -0.254,-2.426 -0.595,-3.831 -1.005,-6.275 -0.536,-7.17" />
    <path
       id="path84"
       transform="translate(10.8818,17.5517)"
       d="M 0,0 C 0.256,-1.192 0.468,-2.17 0.043,-3.533 -0.382,-4.895 -0.724,-6.128 0.085,-7.618" />
    <path
       id="path86"
       transform="translate(12.6021,18.7148)"
       d="M 0,0 C 0.297,-1.234 0.876,-2.099 0.621,-3.036 0.365,-3.973 0.152,-4.397 0.068,-4.865" />
    <path
       id="path88"
       transform="translate(12.688,12.6543)"
       d="M 0,0 C 0,-0.894 -0.034,-2.003 0.264,-2.6" />
    <path
       id="path90"
       transform="translate(14.6274,17.6797)"
       d="m 0,0 c 0.383,-1.617 0.809,-2.341 0.255,-3.703 -0.553,-1.361 -0.471,-4.083 -0.3,-5.061" />
    <path
       id="path92"
       transform="translate(16.2446,18.4878)"
       d="M 0,0 C 0.468,-1.022 0.723,-2.639 0.638,-3.277" />
    <path
       id="path94"
       transform="translate(16.5845,13.3389)"
       d="M 0,0 C -0.298,-1.021 -0.24,-3.659 -0.028,-4.255" />
    <path
       id="path96"
       transform="translate(17.8193,17.6797)"
       d="M 0,0 C 0.467,-1.575 0.724,-2.17 0.383,-3.575 0.042,-4.98 -0.298,-6.469 -0.085,-7.277" />
    <path
       id="path98"
       transform="translate(20.063,18.8071)"
       d="M 0,0 C 0.169,-0.851 -0.201,-2.405 -0.201,-2.916" />
    <path
       id="path100"
       transform="translate(19.665,14.0625)"
       d="M 0,0 C -0.086,-0.895 -0.042,-0.767 -0.256,-1.575 -0.469,-2.384 0.269,-6.414 0.482,-7.009" />
    <path
       id="path102"
       transform="translate(21.437,17.2959)"
       d="M 0,0 C 0.467,-1.958 0.808,-2.936 0.511,-4.042 0.212,-5.149 0.128,-6.425 0.255,-7.022" />
    <path
       id="path104"
       transform="translate(23.3086,17.0845)"
       d="m 0,0 c -0.042,-0.853 0.086,-1.32 0.255,-2.044 0.17,-0.723 0.342,-1.319 0,-2.553 -0.34,-1.235 0.078,-2.234 0.163,-2.745" />
    <path
       id="path106"
       transform="translate(25.4077,18.3179)"
       d="M 0,0 C 0,-0.766 0.17,-2.255 0.298,-2.809" />
    <path
       id="path108"
       transform="translate(25.79,14.2319)"
       d="m 0,0 c -0.041,-1.022 -0.041,-1.064 -0.212,-2.127 -0.17,-1.065 -0.118,-2.956 0.01,-3.383" />
    <path
       id="path110"
       transform="translate(28.7993,19.1836)"
       d="M 0,0 C 0.384,-1.32 0.785,-2.525 0.657,-3.802" />
    <path
       id="path112"
       transform="translate(29.2017,13.8501)"
       d="m 0,0 c -0.17,-1.32 -0.426,-2.512 -0.254,-3.321 0.169,-0.808 0.116,-2.242 0.116,-2.242" />
    <path
       id="path114"
       transform="translate(31.2485,17.5093)"
       d="m 0,0 c 0.128,-1.745 0.17,-1.787 -0.17,-3.064 -0.341,-1.277 -0.225,-3.715 0.2,-4.694" />
    <path
       id="path116"
       transform="translate(34.1812,20.5493)"
       d="M 0,0 C 0.772,-1.256 1.065,-4.785 0.725,-6.444 0.384,-8.105 0.555,-9.424 0.98,-10.531" />
    <path
       id="path118"
       transform="translate(36.1118,19.6929)"
       d="M 0,0 C 0.255,-1.064 0.899,-3.904 0.814,-4.925" />
    <path
       id="path120"
       transform="translate(36.7363,13.0405)"
       d="M 0,0 C -0.17,-1.064 0.213,-3.515 0.426,-4.238" />
    <path
       id="path122"
       transform="translate(38.5684,17.5517)"
       d="M 0,0 C 0.384,-1.661 0.596,-2.213 0.384,-3.66 0.17,-5.107 0.085,-6.341 0.213,-6.937" />
    <path
       id="path124"
       transform="translate(40.2617,19.23)"
       d="M 0,0 C 0.657,-1.033 0.606,-2.274 0.606,-2.998" />
    <path
       id="path126"
       transform="translate(40.9102,14.147)"
       d="M 0,0 C -0.17,-1.021 -0.753,-3.638 0.056,-5.298" />
    <path
       id="path128"
       transform="translate(1.4014,40.9575)"
       d="M 0,0 C 0.341,-0.894 0.046,-1.889 -0.04,-2.74 -0.125,-3.592 -0.337,-4.06 -0.294,-4.188" />
    <path
       id="path130"
       transform="translate(0.8516,35.1221)"
       d="M 0,0 C -0.341,-1.02 0.214,-3.61 0.683,-4.547" />
    <path
       id="path132"
       transform="translate(2.8936,40.206)"
       d="M 0,0 C 0.213,-1.064 0.426,-2.275 -0.085,-3.85 -0.595,-5.424 -0.51,-6.658 -0.212,-7.509" />
    <path
       id="path134"
       transform="translate(4.4673,40.9883)"
       d="M 0,0 C 0.255,-1.064 0.468,-1.829 0.255,-2.893" />
    <path
       id="path136"
       transform="translate(4.895,36.1733)"
       d="M 0,0 C -0.384,-1.064 -0.169,-4.925 0.128,-5.776" />
    <path
       id="path138"
       transform="translate(6.9795,38.1016)"
       d="m 0,0 c 0.042,-0.894 0.085,-1.022 -0.255,-2.426 -0.34,-1.405 -0.129,-3.634 0.34,-4.528" />
    <path
       id="path140"
       transform="translate(8.9795,40.6352)"
       d="M 0,0 C 0.255,-1.191 0.469,-2.96 0.043,-4.322 -0.383,-5.683 -0.723,-6.917 0.085,-8.407" />
    <path
       id="path142"
       transform="translate(10.6421,41.4258)"
       d="M 0,0 C 0.298,-1.233 0.468,-1.645 0.213,-2.581 -0.043,-3.517 -0.255,-3.943 -0.34,-4.411" />
    <path
       id="path144"
       transform="translate(10.5552,35.77)"
       d="M 0,0 C 0,-0.895 0.687,-4.391 0.985,-4.986" />
    <path
       id="path146"
       transform="translate(12.7241,40.7656)"
       d="M 0,0 C 0.384,-1.617 0.81,-2.505 0.256,-3.867 -0.297,-5.229 -0.637,-6.249 -0.468,-7.229" />
    <path
       id="path148"
       transform="translate(14.9165,39.4453)"
       d="M 0,0 C 0.468,-1.021 0.263,-2.835 0.177,-3.475" />
    <path
       id="path150"
       transform="translate(14.1299,34.8257)"
       d="M 0,0 C -0.297,-1.021 -0.51,-3.064 -0.297,-3.659" />
    <path
       id="path152"
       transform="translate(15.9165,41.4258)"
       d="M 0,0 C 0.468,-1.574 0.724,-3.123 0.383,-4.528 0.042,-5.933 -0.101,-9.158 0.113,-9.966" />
    <path
       id="path154"
       transform="translate(18.02,40.4707)"
       d="M 0,0 C 0.415,-2.081 0.029,-4.233 0.029,-3.684" />
    <path
       id="path156"
       transform="translate(18.418,35.4839)"
       d="M 0,0 C -0.085,-0.895 -0.373,-1.593 -0.586,-2.402 -0.799,-3.21 -0.714,-4.529 -0.501,-5.125" />
    <path
       id="path158"
       transform="translate(19.5347,41.4023)"
       d="M 0,0 C 0.467,-1.958 0.809,-4.12 0.511,-5.227 0.212,-6.333 0.127,-7.61 0.255,-8.206" />
    <path
       id="path160"
       transform="translate(21.4067,39.0391)"
       d="m 0,0 c -0.043,-0.852 0.085,-0.98 0.255,-1.704 0.171,-0.723 0.341,-1.319 0,-2.553 -0.34,-1.234 -0.174,-3.317 -0.089,-3.828" />
    <path
       id="path162"
       transform="translate(23.3179,41.1113)"
       d="M 0,0 C 0,-0.766 -0.432,-2.256 -0.304,-2.809" />
    <path
       id="path164"
       transform="translate(23.4492,36.5273)"
       d="m 0,0 c -0.042,-1.022 -0.042,-1.065 -0.212,-2.129 -0.171,-1.063 -0.043,-2.042 0.085,-2.468" />
    <path
       id="path166"
       transform="translate(24.9604,41.6269)"
       d="M 0,0 C 0.468,-1.573 0.105,-5.696 -0.063,-7.143" />
    <path
       id="path168"
       transform="translate(26.3218,34.6284)"
       d="m 0,0 c -0.17,-1.319 -0.913,-2.992 -0.743,-3.801 0.171,-0.808 0.298,-1.148 0.298,-1.148" />
    <path
       id="path170"
       transform="translate(29.0386,41.4614)"
       d="M 0,0 C 0.128,-1.745 0.171,-2.818 -0.17,-4.095 -0.511,-5.372 -0.723,-6.436 -0.298,-7.413" />
    <path
       id="path172"
       transform="translate(31.2271,38.9883)"
       d="M 0,0 C 0.128,-0.935 0.255,-1.042 0.084,-1.936 -0.085,-2.83 -0.299,-3.34 -0.341,-3.681" />
    <path
       id="path174"
       transform="translate(33.1543,40.8808)"
       d="M 0,0 C 0.298,-1.32 0.426,-2.17 0.085,-3.83 -0.255,-5.49 -0.413,-8.122 0.013,-9.228" />
    <path
       id="path176"
       transform="translate(35.291,41.5893)"
       d="M 0,0 C 0.256,-1.064 0.182,-3.316 0.097,-4.337" />
    <path
       id="path178"
       transform="translate(34.834,35.3349)"
       d="M 0,0 C -0.171,-1.064 0.196,-4.238 0.409,-4.961" />
    <path
       id="path180"
       transform="translate(36.8418,39.3423)"
       d="M 0,0 C 0.383,-1.66 0.595,-1.71 0.383,-3.156 0.17,-4.604 0.085,-5.837 0.213,-6.433" />
    <path
       id="path182"
       transform="translate(38.9722,41.4892)"
       d="M 0,0 C 0.213,-1.15 0.213,-2.239 0.213,-2.962" />
    <path
       id="path184"
       transform="translate(39.2271,36.4419)"
       d="M 0,0 C -0.17,-1.021 -0.859,-3.441 -0.051,-5.1" />
    <path
       id="path186"
       transform="translate(40.7212,41.1411)"
       d="M 0,0 C 0.255,-1.404 0.17,-3.55 0,-4.742 -0.17,-5.934 -0.341,-7.295 0.127,-8.444" />
    <path
       id="path188"
       transform="translate(1.7788,8.061)"
       d="M 0,0 C 0.297,-1.319 0.382,-2.169 0.254,-3.022" />
    <path
       id="path190"
       transform="translate(1.5137,3.8906)"
       d="M 0,0 C -0.34,-1.064 -0.922,-2.901 -0.625,-3.625" />
    <path
       id="path192"
       transform="translate(3.5977,7.082)"
       d="M 0,0 C 0.17,-1.233 -0.128,-1.999 -0.341,-3.063 -0.553,-4.127 -0.682,-5.775 -0.383,-6.626" />
    <path
       id="path194"
       transform="translate(5.5869,9.5058)"
       d="M 0,0 C 0.17,-0.893 -0.359,-6.469 -0.786,-7.788" />
    <path
       id="path196"
       transform="translate(7.1787,6.3691)"
       d="M 0,0 C 0.043,-1.191 -0.073,-0.938 -0.297,-1.957 -0.583,-3.253 -0.804,-5.001 -0.76,-6.347" />
    <path
       id="path198"
       transform="translate(11.2158,7.082)"
       d="m 0,0 c 0.084,-1.489 0.255,-1.83 -0.255,-3.15 -0.512,-1.318 -0.64,-1.485 -0.426,-2.377" />
    <path
       id="path200"
       transform="translate(12.6816,8.7383)"
       d="M 0,0 C 0.256,-0.766 0.854,-2.379 0.77,-3.102" />
    <path
       id="path202"
       transform="translate(12.6997,4.4429)"
       d="M 0,0 C -0.297,-0.766 -0.814,-2.629 -0.728,-3.863" />
    <path
       id="path204"
       transform="translate(14.647,7.2104)"
       d="M 0,0 C 0.383,-1.574 0.482,-2.236 0,-3.362 -0.394,-4.283 -0.333,-6.088 -0.341,-7.199" />
    <path
       id="path206"
       transform="translate(18.1538,8.5288)"
       d="M 0,0 C 0.382,-1.575 0.541,-3.319 0.158,-4.298 -0.225,-5.276 -0.455,-7.214 -0.241,-8.149" />
    <path
       id="path208"
       transform="translate(20.1953,5.6338)"
       d="M 0,0 C -0.085,-0.723 -0.871,-3.504 -0.701,-4.057" />
    <path
       id="path210"
       transform="translate(21.5811,9.0117)"
       d="M 0,0 C 0.383,-1.362 0.308,-3.021 -0.053,-4.065 -0.383,-5.017 -0.497,-7.494 -0.501,-8.99" />
    <path
       id="path212"
       transform="translate(24.812,7.3804)"
       d="M 0,0 C 0.383,-1.233 0.383,-1.958 0.042,-3.234 -0.298,-4.511 -0.511,-4.84 -0.255,-5.692" />
    <path
       id="path214"
       transform="translate(27.0693,8.4766)"
       d="M 0,0 C 0.17,-0.809 -0.198,-2.009 -0.24,-2.562" />
    <path
       id="path216"
       transform="translate(26.9917,4.8467)"
       d="M 0,0 C -0.297,-0.85 -0.961,-3.317 -0.834,-3.912" />
    <path
       id="path218"
       transform="translate(28.2886,7.2954)"
       d="M 0,0 C 0.34,-1.831 0.382,-2.596 -0.128,-3.703 -0.638,-4.81 -0.809,-6.214 -0.511,-7.064" />
    <path
       id="path220"
       transform="translate(32.3418,7.6245)"
       d="m 0,0 c 0.596,-1.574 0.351,-2.265 -0.436,-3.692 -0.483,-0.876 -0.645,-2.654 -0.636,-3.91" />
    <path
       id="path222"
       transform="translate(33.3545,9.4473)"
       d="M 0,0 C 0.557,-0.557 0.897,-3.131 0.812,-3.556" />
    <path
       id="path224"
       transform="translate(33.6182,4.2974)"
       d="M 0,0 C 0,-1.064 -0.565,-3.062 -0.82,-3.913" />
    <path
       id="path226"
       transform="translate(35.6328,7.8276)"
       d="m 0,0 c 0.128,-0.809 -0.279,-0.575 0.06,-1.852 0.341,-1.276 0.086,-1.83 -0.255,-2.723 -0.34,-0.894 -0.1,-1.659 -0.057,-2.169" />
    <path
       id="path228"
       transform="translate(6.4185,41.8691)"
       d="M 0,0 C 0.032,-0.982 0.147,-1.494 0.425,-1.813" />
    <path
       id="path230"
       transform="translate(14.3062,41.8603)"
       d="M 0,0 C -0.003,-0.441 -0.018,-0.739 -0.076,-0.863" />
    <path
       id="path232"
       transform="translate(21.0806,41.8691)"
       d="M 0,0 C -0.001,-0.663 0.019,-1.472 0.053,-1.524" />
    <path
       id="path234"
       transform="translate(31.2695,41.8691)"
       d="M 0,0 C 0.004,-0.689 0.059,-1.582 0.141,-1.715" />
    <path
       id="path236"
       transform="translate(37.3882,41.8691)"
       d="M 0,0 C -0.005,-0.364 0.004,-1.141 0.03,-1.253" />
    <path
       id="path238"
       transform="translate(37.5659,7.2954)"
       d="M 0,0 C 0.213,-0.851 0.469,-2.043 0.213,-3.021 0.016,-3.777 -0.161,-6.045 -0.178,-7.273" />
    <path
       id="path240"
       transform="translate(41.439,7.5503)"
       d="m 0,0 c 0.084,-0.979 0.128,-1.234 -0.128,-2.255 -0.255,-1.021 -0.508,-3.59 -0.21,-4.568" />
    <path
       id="path242"
       transform="translate(27.1895,17.5439)"
       d="M 0,0 C 0.129,-1.547 0.516,-1.805 0.257,-3.74 0,-5.674 -0.258,-6.577 0,-7.351" />
    <path
       id="path244"
       transform="translate(29.5137,32.9253)"
       d="M 0,0 C -0.042,-1.149 0.17,-2.899 0.383,-3.453" />
    <path
       id="path246"
       transform="translate(30.2866,8.3755)"
       d="M 0,0 C 0.212,-1.064 0.425,-1.619 -0.085,-3.192 -0.474,-4.39 -0.998,-5.924 -0.577,-7.123" />
    <path
       id="path248"
       transform="translate(33.0781,17.8393)"
       d="M 0,0 C 0.212,-1.063 0.426,-1.617 -0.085,-3.192 -0.596,-4.767 -0.511,-6 -0.213,-6.852" />
    <path
       id="path250"
       transform="translate(23.4829,8.2827)"
       d="m 0,0 c 0.212,-1.064 0.226,-2.094 -0.286,-3.667 -0.51,-1.575 -0.721,-3.098 -0.423,-3.949" />
    <path
       id="path252"
       transform="translate(16.2124,7.6753)"
       d="m 0,0 c 0.212,-1.063 0.54,-1.722 0.029,-3.296 -0.511,-1.575 -0.55,-2.35 -0.252,-3.202" />
    <path
       id="path254"
       transform="translate(9.7617,9.3149)"
       d="M 0,0 C 0.212,-1.064 -0.297,-3.079 -0.808,-4.652 -1.319,-6.227 -1.289,-8.128 -0.991,-8.978" />
    <path
       id="path256"
       transform="translate(39.3799,8.688)"
       d="M 0,0 C 0.212,-1.064 0.797,-2.545 0.286,-4.12 -0.225,-5.695 -0.14,-6.534 0.158,-7.385" />
  </g>
</svg>
