<?xml version="1.0" encoding="UTF-8" standalone="no"?>
<svg
   xmlns:dc="http://purl.org/dc/elements/1.1/"
   xmlns:cc="http://creativecommons.org/ns#"
   xmlns:rdf="http://www.w3.org/1999/02/22-rdf-syntax-ns#"
   xmlns:svg="http://www.w3.org/2000/svg"
   xmlns="http://www.w3.org/2000/svg"
   height="54.125"
   width="54.125"
   id="svg440"
   version="1.1">
  <defs
     id="defs444" />
  <metadata
     id="metadata2">citation: U.S. Geological Survey, 2006, FGDC Digital Cartographic Standard for Geologic Map Symbolization (PostScript Implementation): U.S. Geological Survey Techniques and Methods 11-A2 [pubs.usgs.gov/tm/2006/11A02/]. converted by CEC Geology LLC 2018 from the USGS lithologic gs converted to inkscape by the University of Otago.<rdf:RDF>
  <cc:Work
     rdf:about="">
    <dc:format>image/svg+xml</dc:format>
    <dc:type
       rdf:resource="http://purl.org/dc/dcmitype/StillImage" />
    <dc:title></dc:title>
  </cc:Work>
</rdf:RDF>
</metadata>
  <g
     stroke-width=".3"
     stroke="#231f20"
     fill="none"

     id="g438"
     width="54.125"
     height="54.125">
    <path
       id="path4"
       transform="translate(27.4746,50.375)"
       d="M 0,0 H -8.8" />
    <path
       id="path6"
       transform="translate(27.4746,50.375)"
       d="M 0,0 H 4.7" />
    <path
       id="path8"
       transform="translate(12.5996,50.375)"
       d="M 0,0 H 6.075" />
    <path
       id="path10"
       transform="translate(41.0996,50.375)"
       d="M 0,0 H 5.45" />
    <path
       id="path12"
       transform="translate(53.9248,50.375)"
       d="M 0,0 H -7.375" />
    <path
       id="path14"
       transform="translate(41.0996,50.375)"
       d="M 0,0 H -8.925" />
    <path
       id="path16"
       transform="translate(12.5996,50.375)"
       d="M 0,0 H -6.675" />
    <path
       id="path18"
       transform="translate(0,50.375)"
       d="M 0,0 H 5.925" />
    <path
       id="path20"
       transform="translate(53.9248,50.375)"
       d="M 0,0 H 0.2" />
    <path
       id="path22"
       transform="translate(0,46.2002)"
       d="M 0,0 H 54.125" />
    <path
       id="path24"
       transform="translate(53.4121,42.0127)"
       d="M 0,0 H 0.713" />
    <path
       id="path26"
       transform="translate(40.1621,42.0127)"
       d="M 0,0 H 13.25" />
    <path
       id="path28"
       transform="translate(40.1621,42.0127)"
       d="M 0,0 H -13.375" />
    <path
       id="path30"
       transform="translate(26.7871,42.0127)"
       d="M 0,0 H -14.875" />
    <path
       id="path32"
       transform="translate(11.9121,42.0127)"
       d="M 0,0 H -11.912" />
    <path
       id="path34"
       transform="translate(33.7578,12.4004)"
       d="M 0,0 H 14.875" />
    <path
       id="path36"
       transform="translate(20.1328,12.4004)"
       d="M 0,0 H 13.625" />
    <path
       id="path38"
       transform="translate(20.1328,12.4004)"
       d="M 0,0 H -13.25" />
    <path
       id="path40"
       transform="translate(6.8828,12.4004)"
       d="M 0,0 H -6.883" />
    <path
       id="path42"
       transform="translate(48.6328,12.4004)"
       d="M 0,0 H 5.492" />
    <path
       id="path44"
       transform="translate(26.4082,8.625)"
       d="M 0,0 H -14.55" />
    <path
       id="path46"
       transform="translate(40.2832,8.625)"
       d="M 0,0 H 13.45" />
    <path
       id="path48"
       transform="translate(40.2832,8.625)"
       d="M 0,0 H -13.875" />
    <path
       id="path50"
       transform="translate(53.7334,8.625)"
       d="M 0,0 H 0.392" />
    <path
       id="path52"
       transform="translate(11.8584,8.625)"
       d="M 0,0 H -11.858" />
    <path
       id="path54"
       transform="translate(46.5498,37.9941)"
       d="M 0,0 H 7.575" />
    <path
       id="path56"
       transform="translate(18.6748,37.9941)"
       d="M 0,0 H 13.25" />
    <path
       id="path58"
       transform="translate(31.9248,37.9941)"
       d="M 0,0 H 14.625" />
    <path
       id="path60"
       transform="translate(18.6748,37.9941)"
       d="M 0,0 H -12.75" />
    <path
       id="path62"
       transform="translate(5.9248,37.9941)"
       d="M 0,0 H -5.925" />
    <path
       id="path64"
       transform="translate(27.4746,34.7129)"
       d="M 0,0 H -15" />
    <path
       id="path66"
       transform="translate(53.9746,34.7129)"
       d="M 0,0 H 0.15" />
    <path
       id="path68"
       transform="translate(41.2246,34.7129)"
       d="M 0,0 H -13.75" />
    <path
       id="path70"
       transform="translate(41.2246,34.7129)"
       d="M 0,0 H 12.75" />
    <path
       id="path72"
       transform="translate(12.4746,34.7129)"
       d="M 0,0 H -12.475" />
    <path
       id="path74"
       transform="translate(20.1621,31.2881)"
       d="M 0,0 H -13.5" />
    <path
       id="path76"
       transform="translate(48.6621,31.2881)"
       d="M 0,0 H -14.875" />
    <path
       id="path78"
       transform="translate(48.6621,31.2881)"
       d="M 0,0 H 5.463" />
    <path
       id="path80"
       transform="translate(33.7871,31.2881)"
       d="M 0,0 H -13.625" />
    <path
       id="path82"
       transform="translate(6.6621,31.2881)"
       d="M 0,0 H -6.662" />
    <path
       id="path84"
       transform="translate(0,27.2373)"
       d="M 0,0 H 54.125" />
    <path
       id="path86"
       transform="translate(0,23.4375)"
       d="M 0,0 H 54.125" />
    <path
       id="path88"
       transform="translate(0,19.2373)"
       d="M 0,0 H 54.125" />
    <path
       id="path90"
       transform="translate(0,16.0127)"
       d="M 0,0 H 54.125" />
    <path
       id="path92"
       transform="translate(0,0.8379)"
       d="M 0,0 H 5.925" />
    <path
       id="path94"
       transform="translate(10.2959,0.8379)"
       d="M 0,0 H -4.371" />
    <path
       id="path96"
       transform="translate(38.3584,0.8379)"
       d="M 0,0 H -6.184" />
    <path
       id="path98"
       transform="translate(51.7334,0.8379)"
       d="M 0,0 H 2.392" />
    <path
       id="path100"
       transform="translate(24.7334,0.8379)"
       d="M 0,0 H -6.059" />
    <path
       id="path102"
       transform="translate(51.7334,0.8379)"
       d="M 0,0 H -5.184" />
    <path
       id="path104"
       transform="translate(24.7334,0.8379)"
       d="M 0,0 H 7.441" />
    <path
       id="path106"
       transform="translate(10.2959,0.8379)"
       d="M 0,0 H 8.379" />
    <path
       id="path108"
       transform="translate(38.3584,0.8379)"
       d="M 0,0 H 8.191" />
    <path
       id="path110"
       transform="translate(5.9248,54.125)"
       d="M 0,0 V -3.75" />
    <path
       id="path112"
       transform="translate(18.6748,54.125)"
       d="M 0,0 V -3.75" />
    <path
       id="path114"
       transform="translate(32.1748,54.125)"
       d="M 0,0 V -3.75" />
    <path
       id="path116"
       transform="translate(46.5498,54.125)"
       d="M 0,0 V -3.75" />
    <path
       id="path118"
       transform="translate(5.9248)"
       d="M 0,0 V 0.838" />
    <path
       id="path120"
       transform="translate(5.9248,0.8506)"
       d="M 0,0 V -0.013" />
    <path
       id="path122"
       transform="translate(18.6748,0.8506)"
       d="M 0,0 V -0.013" />
    <path
       id="path124"
       transform="translate(18.6748)"
       d="M 0,0 V 0.838" />
    <path
       id="path126"
       transform="translate(32.1748,0.8506)"
       d="M 0,0 V -0.013" />
    <path
       id="path128"
       transform="translate(32.1748)"
       d="M 0,0 V 0.838" />
    <path
       id="path130"
       transform="translate(46.5498)"
       d="M 0,0 V 0.838" />
    <path
       id="path132"
       transform="translate(46.5498,0.8506)"
       d="M 0,0 V -0.013" />
    <path
       id="path134"
       transform="translate(12.5996,50.375)"
       d="M 0,0 V 0.063" />
    <path
       id="path136"
       transform="translate(12.5996,50.375)"
       d="M 0,0 V -4.162" />
    <path
       id="path138"
       transform="translate(27.4746,50.375)"
       d="M 0,0 V -4.162" />
    <path
       id="path140"
       transform="translate(27.4746,50.375)"
       d="M 0,0 V 0.063" />
    <path
       id="path142"
       transform="translate(41.0996,50.375)"
       d="M 0,0 V 0.063" />
    <path
       id="path144"
       transform="translate(41.0996,50.375)"
       d="M 0,0 V -4.162" />
    <path
       id="path146"
       transform="translate(53.9248,50.375)"
       d="M 0,0 V -4.162" />
    <path
       id="path148"
       transform="translate(53.9248,50.375)"
       d="M 0,0 V 0.063" />
    <path
       id="path150"
       transform="translate(7.0371,42.0254)"
       d="M 0,0 V 4.05" />
    <path
       id="path152"
       transform="translate(20.2871,42.0254)"
       d="M 0,0 V 4.05" />
    <path
       id="path154"
       transform="translate(33.8496,42.0254)"
       d="M 0,0 V 4.05" />
    <path
       id="path156"
       transform="translate(48.7871,42.0254)"
       d="M 0,0 V 4.05" />
    <path
       id="path158"
       transform="translate(40.1621,42.0127)"
       d="M 0,0 V 0.013" />
    <path
       id="path160"
       transform="translate(40.1621,42.0127)"
       d="M 0,0 V -3.987" />
    <path
       id="path162"
       transform="translate(26.7871,42.0127)"
       d="M 0,0 V 0.013" />
    <path
       id="path164"
       transform="translate(26.7871,42.0127)"
       d="M 0,0 V -3.987" />
    <path
       id="path166"
       transform="translate(11.9121,42.0127)"
       d="M 0,0 V -3.987" />
    <path
       id="path168"
       transform="translate(11.9121,42.0127)"
       d="M 0,0 V 0.013" />
    <path
       id="path170"
       transform="translate(53.4121,42.0127)"
       d="M 0,0 V 0.013" />
    <path
       id="path172"
       transform="translate(53.4121,42.0127)"
       d="M 0,0 V -3.987" />
    <path
       id="path174"
       transform="translate(46.5498,37.9941)"
       d="M 0,0 V -3.268" />
    <path
       id="path176"
       transform="translate(46.5498,37.9941)"
       d="M 0,0 V 0.031" />
    <path
       id="path178"
       transform="translate(31.9248,37.9941)"
       d="M 0,0 V -3.268" />
    <path
       id="path180"
       transform="translate(31.9248,37.9941)"
       d="M 0,0 V 0.031" />
    <path
       id="path182"
       transform="translate(18.6748,37.9941)"
       d="M 0,0 V -3.268" />
    <path
       id="path184"
       transform="translate(18.6748,37.9941)"
       d="M 0,0 V 0.031" />
    <path
       id="path186"
       transform="translate(5.9248,37.9941)"
       d="M 0,0 V 0.031" />
    <path
       id="path188"
       transform="translate(5.9248,37.9941)"
       d="M 0,0 V -3.268" />
    <path
       id="path190"
       transform="translate(12.4746,34.7129)"
       d="M 0,0 V 0.013" />
    <path
       id="path192"
       transform="translate(12.4746,34.7129)"
       d="M 0,0 V -3.413" />
    <path
       id="path194"
       transform="translate(27.4746,34.7129)"
       d="M 0,0 V -3.413" />
    <path
       id="path196"
       transform="translate(27.4746,34.7256)"
       d="M 0,0 V -0.013" />
    <path
       id="path198"
       transform="translate(41.2246,34.7129)"
       d="M 0,0 V -3.413" />
    <path
       id="path200"
       transform="translate(41.2246,34.7129)"
       d="M 0,0 V 0.013" />
    <path
       id="path202"
       transform="translate(53.9746,34.7129)"
       d="M 0,0 V -3.413" />
    <path
       id="path204"
       transform="translate(53.9746,34.7129)"
       d="M 0,0 V 0.013" />
    <path
       id="path206"
       transform="translate(6.6621,31.2881)"
       d="M 0,0 V -4.038" />
    <path
       id="path208"
       transform="translate(6.6621,31.2998)"
       d="M 0,0 V -0.012" />
    <path
       id="path210"
       transform="translate(20.1621,31.2998)"
       d="M 0,0 V -0.012" />
    <path
       id="path212"
       transform="translate(20.1621,31.2881)"
       d="M 0,0 V -4.038" />
    <path
       id="path214"
       transform="translate(33.7871,31.2881)"
       d="M 0,0 V -4.038" />
    <path
       id="path216"
       transform="translate(33.7871,31.2998)"
       d="M 0,0 V -0.012" />
    <path
       id="path218"
       transform="translate(48.6621,31.2881)"
       d="M 0,0 V -4.038" />
    <path
       id="path220"
       transform="translate(48.6621,31.2881)"
       d="M 0,0 V 0.012" />
    <path
       id="path222"
       transform="translate(40.0371,27.1875)"
       d="M 0,0 V -3.737" />
    <path
       id="path224"
       transform="translate(26.7119,27.1875)"
       d="M 0,0 V -3.737" />
    <path
       id="path226"
       transform="translate(11.7119,27.1875)"
       d="M 0,0 V -3.737" />
    <path
       id="path228"
       transform="translate(53.2666,23.4502)"
       d="M 0,0 V 3.737" />
    <path
       id="path230"
       transform="translate(5.5244,23.3877)"
       d="M 0,0 V -4.138" />
    <path
       id="path232"
       transform="translate(18.5244,23.3877)"
       d="M 0,0 V -4.138" />
    <path
       id="path234"
       transform="translate(32.1494,23.3877)"
       d="M 0,0 V -4.138" />
    <path
       id="path236"
       transform="translate(46.3994,23.3877)"
       d="M 0,0 V -4.138" />
    <path
       id="path238"
       transform="translate(42.2002,19.1875)"
       d="M 0,0 V -3.162" />
    <path
       id="path240"
       transform="translate(28.0498,19.1875)"
       d="M 0,0 V -3.162" />
    <path
       id="path242"
       transform="translate(12.9248,19.1875)"
       d="M 0,0 V -3.162" />
    <path
       id="path244"
       transform="translate(0.5078,19.1875)"
       d="M 0,0 V -3.162" />
    <path
       id="path246"
       transform="translate(6.8828,12.4004)"
       d="M 0,0 V 3.563" />
    <path
       id="path248"
       transform="translate(20.1328,12.4004)"
       d="M 0,0 V 3.563" />
    <path
       id="path250"
       transform="translate(33.7578,12.4004)"
       d="M 0,0 V 3.563" />
    <path
       id="path252"
       transform="translate(48.6328,12.4004)"
       d="M 0,0 V 3.563" />
    <path
       id="path254"
       transform="translate(40.2832,8.625)"
       d="M 0,0 V 3.725" />
    <path
       id="path256"
       transform="translate(40.2832,8.625)"
       d="M 0,0 V -0.037" />
    <path
       id="path258"
       transform="translate(26.4082,8.625)"
       d="M 0,0 V -0.037" />
    <path
       id="path260"
       transform="translate(26.4082,12.3496)"
       d="M 0,0 V -3.725" />
    <path
       id="path262"
       transform="translate(11.8584,8.625)"
       d="M 0,0 V 3.725" />
    <path
       id="path264"
       transform="translate(11.8584,8.625)"
       d="M 0,0 V -0.037" />
    <path
       id="path266"
       transform="translate(53.7334,8.625)"
       d="M 0,0 V -0.037" />
    <path
       id="path268"
       transform="translate(53.7334,12.3496)"
       d="M 0,0 V -3.725" />
    <path
       id="path270"
       transform="translate(51.7334,4.2129)"
       d="M 0,0 H -13.375" />
    <path
       id="path272"
       transform="translate(38.3584,4.2129)"
       d="M 0,0 H -13.625" />
    <path
       id="path274"
       transform="translate(24.7334,4.2129)"
       d="M 0,0 H -14.438" />
    <path
       id="path276"
       transform="translate(10.2959,4.2129)"
       d="M 0,0 H -10.296" />
    <path
       id="path278"
       transform="translate(51.7334,4.2129)"
       d="M 0,0 H 2.392" />
    <path
       id="path280"
       transform="translate(10.2959,4.2383)"
       d="M 0,0 V -0.025" />
    <path
       id="path282"
       transform="translate(10.2959,0.8379)"
       d="M 0,0 V -0.063" />
    <path
       id="path284"
       transform="translate(10.2959,0.8379)"
       d="M 0,0 V 3.375" />
    <path
       id="path286"
       transform="translate(24.7334,0.8379)"
       d="M 0,0 V 3.375" />
    <path
       id="path288"
       transform="translate(24.7334,4.2383)"
       d="M 0,0 V -0.025" />
    <path
       id="path290"
       transform="translate(24.7334,0.8379)"
       d="M 0,0 V -0.063" />
    <path
       id="path292"
       transform="translate(38.3584,4.2383)"
       d="M 0,0 V -0.025" />
    <path
       id="path294"
       transform="translate(38.3584,0.8379)"
       d="M 0,0 V -0.063" />
    <path
       id="path296"
       transform="translate(38.3584,0.8379)"
       d="M 0,0 V 3.375" />
    <path
       id="path298"
       transform="translate(51.7334,4.2129)"
       d="M 0,0 V 0.025" />
    <path
       id="path300"
       transform="translate(51.7334,0.8379)"
       d="M 0,0 V -0.063" />
    <path
       id="path302"
       transform="translate(51.7334,0.8379)"
       d="M 0,0 V 3.375" />
    <path
       id="path304"
       transform="translate(4.5703,4.2383)"
       d="M 0,0 V 4.35" />
    <path
       id="path306"
       transform="translate(17.5703,8.5879)"
       d="M 0,0 V -4.35" />
    <path
       id="path308"
       transform="translate(31.5703,8.5879)"
       d="M 0,0 V -4.35" />
    <path
       id="path310"
       transform="translate(46.1328,4.2383)"
       d="M 0,0 V 4.35" />
    <path
       id="path312"
       transform="translate(0,43.2842)"
       d="m 0,0 c 0.311,-0.05 0.662,-0.078 1.031,-0.078 1.317,0 2.384,0.355 2.384,0.794 0,0.439 -1.067,0.795 -2.384,0.795 C 0.662,1.511 0.311,1.482 0,1.433" />
    <path
       id="path314"
       transform="translate(16.04,44)"
       d="M 0,0 C 0,0.439 -1.067,0.795 -2.384,0.795 -3.7,0.795 -4.767,0.439 -4.767,0 c 0,-0.438 1.067,-0.794 2.383,-0.794 C -1.067,-0.794 0,-0.438 0,0 Z" />
    <path
       id="path316"
       transform="translate(29.665,44)"
       d="M 0,0 C 0,0.439 -1.067,0.795 -2.384,0.795 -3.7,0.795 -4.767,0.439 -4.767,0 c 0,-0.438 1.067,-0.794 2.383,-0.794 C -1.067,-0.794 0,-0.438 0,0 Z" />
    <path
       id="path318"
       transform="translate(43.915,44)"
       d="M 0,0 C 0,0.439 -1.067,0.795 -2.384,0.795 -3.7,0.795 -4.767,0.439 -4.767,0 c 0,-0.438 1.067,-0.794 2.383,-0.794 C -1.067,-0.794 0,-0.438 0,0 Z" />
    <path
       id="path320"
       transform="translate(0,51.6455)"
       d="M 0,0 C 0.952,0.104 1.64,0.403 1.64,0.755 1.64,1.106 0.952,1.406 0,1.51" />
    <path
       id="path322"
       transform="translate(14.54,52.4004)"
       d="M 0,0 C 0,0.438 -1.067,0.795 -2.384,0.795 -3.7,0.795 -4.767,0.438 -4.767,0 c 0,-0.439 1.067,-0.795 2.383,-0.795 C -1.067,-0.795 0,-0.439 0,0 Z" />
    <path
       id="path324"
       transform="translate(27.915,52.4004)"
       d="M 0,0 C 0,0.438 -1.067,0.795 -2.384,0.795 -3.7,0.795 -4.767,0.438 -4.767,0 c 0,-0.439 1.067,-0.795 2.383,-0.795 C -1.067,-0.795 0,-0.439 0,0 Z" />
    <path
       id="path326"
       transform="translate(41.665,52.4004)"
       d="M 0,0 C 0,0.438 -1.067,0.795 -2.384,0.795 -3.7,0.795 -4.767,0.438 -4.767,0 c 0,-0.439 1.067,-0.795 2.383,-0.795 C -1.067,-0.795 0,-0.439 0,0 Z" />
    <path
       id="path328"
       transform="translate(3.6484,48.125)"
       d="m 0,0 c 0,-0.438 1.066,-0.794 2.383,-0.794 1.316,0 2.384,0.356 2.384,0.794 0,0.439 -1.068,0.795 -2.384,0.795 C 1.066,0.795 0,0.439 0,0 Z" />
    <path
       id="path330"
       transform="translate(17.6484,48.125)"
       d="m 0,0 c 0,-0.438 1.066,-0.794 2.383,-0.794 1.316,0 2.384,0.356 2.384,0.794 0,0.439 -1.068,0.795 -2.384,0.795 C 1.066,0.795 0,0.439 0,0 Z" />
    <path
       id="path332"
       transform="translate(31.7734,48.125)"
       d="m 0,0 c 0,-0.438 1.066,-0.794 2.383,-0.794 1.316,0 2.384,0.356 2.384,0.794 0,0.439 -1.068,0.795 -2.384,0.795 C 1.066,0.795 0,0.439 0,0 Z" />
    <path
       id="path334"
       transform="translate(45.2734,48.125)"
       d="m 0,0 c 0,-0.438 1.066,-0.794 2.383,-0.794 1.316,0 2.384,0.356 2.384,0.794 0,0.439 -1.068,0.795 -2.384,0.795 C 1.066,0.795 0,0.439 0,0 Z" />
    <path
       id="path336"
       transform="translate(3.1484,39.875)"
       d="m 0,0 c 0,-0.438 1.066,-0.794 2.383,-0.794 1.316,0 2.384,0.356 2.384,0.794 0,0.439 -1.068,0.795 -2.384,0.795 C 1.066,0.795 0,0.439 0,0 Z" />
    <path
       id="path338"
       transform="translate(16.8984,39.875)"
       d="m 0,0 c 0,-0.438 1.066,-0.794 2.383,-0.794 1.316,0 2.384,0.356 2.384,0.794 0,0.439 -1.068,0.795 -2.384,0.795 C 1.066,0.795 0,0.439 0,0 Z" />
    <path
       id="path340"
       transform="translate(33.6563,39.0811)"
       d="M 0,0 C 1.316,0 2.384,0.355 2.384,0.794 2.384,1.233 1.316,1.589 0,1.589 -1.316,1.589 -2.383,1.233 -2.383,0.794 -2.383,0.355 -1.316,0 0,0 Z" />
    <path
       id="path342"
       transform="translate(47.2813,39.0811)"
       d="M 0,0 C 1.316,0 2.384,0.355 2.384,0.794 2.384,1.233 1.316,1.589 0,1.589 -1.316,1.589 -2.383,1.233 -2.383,0.794 -2.383,0.355 -1.316,0 0,0 Z" />
    <path
       id="path344"
       transform="translate(0,35.4531)"
       d="M 0,0 C 1.042,0.085 1.814,0.399 1.814,0.773 1.814,1.146 1.042,1.459 0,1.544" />
    <path
       id="path346"
       transform="translate(9.8984,36.2256)"
       d="m 0,0 c 0,-0.439 1.066,-0.795 2.383,-0.795 1.316,0 2.384,0.356 2.384,0.795 0,0.439 -1.068,0.794 -2.384,0.794 C 1.066,0.794 0,0.439 0,0 Z" />
    <path
       id="path348"
       transform="translate(28.04,36.2256)"
       d="M 0,0 C 0,0.439 -1.067,0.794 -2.384,0.794 -3.7,0.794 -4.767,0.439 -4.767,0 c 0,-0.439 1.067,-0.795 2.383,-0.795 C -1.067,-0.795 0,-0.439 0,0 Z" />
    <path
       id="path350"
       transform="translate(39.1563,35.4307)"
       d="M 0,0 C 1.316,0 2.384,0.355 2.384,0.795 2.384,1.233 1.316,1.589 0,1.589 -1.316,1.589 -2.383,1.233 -2.383,0.795 -2.383,0.355 -1.316,0 0,0 Z" />
    <path
       id="path352"
       transform="translate(8.04,33)"
       d="M 0,0 C 0,0.439 -1.067,0.795 -2.384,0.795 -3.7,0.795 -4.767,0.439 -4.767,0 c 0,-0.438 1.067,-0.794 2.383,-0.794 C -1.067,-0.794 0,-0.438 0,0 Z" />
    <path
       id="path354"
       transform="translate(21.915,33)"
       d="M 0,0 C 0,0.439 -1.067,0.795 -2.384,0.795 -3.7,0.795 -4.767,0.439 -4.767,0 c 0,-0.438 1.067,-0.794 2.383,-0.794 C -1.067,-0.794 0,-0.438 0,0 Z" />
    <path
       id="path356"
       transform="translate(34.2813,32.2061)"
       d="M 0,0 C 1.316,0 2.384,0.355 2.384,0.794 2.384,1.233 1.316,1.589 0,1.589 -1.316,1.589 -2.383,1.233 -2.383,0.794 -2.383,0.355 -1.316,0 0,0 Z" />
    <path
       id="path358"
       transform="translate(47.5313,32.2061)"
       d="M 0,0 C 1.316,0 2.384,0.355 2.384,0.794 2.384,1.233 1.316,1.589 0,1.589 -1.316,1.589 -2.383,1.233 -2.383,0.794 -2.383,0.355 -1.316,0 0,0 Z" />
    <path
       id="path360"
       transform="translate(0,28.3506)"
       d="m 0,0 c 0.171,-0.013 0.349,-0.02 0.531,-0.02 1.317,0 2.384,0.356 2.384,0.794 0,0.44 -1.067,0.795 -2.384,0.795 C 0.349,1.569 0.171,1.563 0,1.549" />
    <path
       id="path362"
       transform="translate(10.7734,29.125)"
       d="m 0,0 c 0,-0.439 1.066,-0.794 2.383,-0.794 1.316,0 2.384,0.355 2.384,0.794 0,0.439 -1.068,0.795 -2.384,0.795 C 1.066,0.795 0,0.439 0,0 Z" />
    <path
       id="path364"
       transform="translate(24.3984,29.125)"
       d="m 0,0 c 0,-0.439 1.066,-0.794 2.383,-0.794 1.316,0 2.384,0.355 2.384,0.794 0,0.439 -1.068,0.795 -2.384,0.795 C 1.066,0.795 0,0.439 0,0 Z" />
    <path
       id="path366"
       transform="translate(38.8984,29.125)"
       d="m 0,0 c 0,-0.439 1.066,-0.794 2.383,-0.794 1.316,0 2.384,0.355 2.384,0.794 0,0.439 -1.068,0.795 -2.384,0.795 C 1.066,0.795 0,0.439 0,0 Z" />
    <path
       id="path368"
       transform="translate(2.3984,25.25)"
       d="m 0,0 c 0,-0.439 1.066,-0.794 2.383,-0.794 1.316,0 2.384,0.355 2.384,0.794 0,0.439 -1.068,0.795 -2.384,0.795 C 1.066,0.795 0,0.439 0,0 Z" />
    <path
       id="path370"
       transform="translate(16.2734,25.25)"
       d="m 0,0 c 0,-0.439 1.066,-0.794 2.383,-0.794 1.316,0 2.384,0.355 2.384,0.794 0,0.439 -1.068,0.795 -2.384,0.795 C 1.066,0.795 0,0.439 0,0 Z" />
    <path
       id="path372"
       transform="translate(30.7734,25.25)"
       d="m 0,0 c 0,-0.439 1.066,-0.794 2.383,-0.794 1.316,0 2.384,0.355 2.384,0.794 0,0.439 -1.068,0.795 -2.384,0.795 C 1.066,0.795 0,0.439 0,0 Z" />
    <path
       id="path374"
       transform="translate(43.8984,25.25)"
       d="m 0,0 c 0,-0.439 1.066,-0.794 2.383,-0.794 1.316,0 2.384,0.355 2.384,0.794 0,0.439 -1.068,0.795 -2.384,0.795 C 1.066,0.795 0,0.439 0,0 Z" />
    <path
       id="path376"
       transform="translate(0,20.3994)"
       d="M 0,0 C 0.834,0.124 1.415,0.402 1.415,0.726 1.415,1.05 0.834,1.328 0,1.452" />
    <path
       id="path378"
       transform="translate(9.5234,21.125)"
       d="m 0,0 c 0,-0.439 1.066,-0.794 2.383,-0.794 1.316,0 2.384,0.355 2.384,0.794 0,0.439 -1.068,0.795 -2.384,0.795 C 1.066,0.795 0,0.439 0,0 Z" />
    <path
       id="path380"
       transform="translate(22.7734,21.125)"
       d="m 0,0 c 0,-0.439 1.066,-0.794 2.383,-0.794 1.316,0 2.384,0.355 2.384,0.794 0,0.439 -1.068,0.795 -2.384,0.795 C 1.066,0.795 0,0.439 0,0 Z" />
    <path
       id="path382"
       transform="translate(36.6484,21.125)"
       d="m 0,0 c 0,-0.439 1.066,-0.794 2.383,-0.794 1.316,0 2.384,0.355 2.384,0.794 0,0.439 -1.068,0.795 -2.384,0.795 C 1.066,0.795 0,0.439 0,0 Z" />
    <path
       id="path384"
       transform="translate(4.1484,17.625)"
       d="m 0,0 c 0,-0.439 1.066,-0.794 2.383,-0.794 1.316,0 2.384,0.355 2.384,0.794 0,0.439 -1.068,0.795 -2.384,0.795 C 1.066,0.795 0,0.439 0,0 Z" />
    <path
       id="path386"
       transform="translate(17.6484,17.625)"
       d="m 0,0 c 0,-0.439 1.066,-0.794 2.383,-0.794 1.316,0 2.384,0.355 2.384,0.794 0,0.439 -1.068,0.795 -2.384,0.795 C 1.066,0.795 0,0.439 0,0 Z" />
    <path
       id="path388"
       transform="translate(32.2734,17.625)"
       d="m 0,0 c 0,-0.439 1.066,-0.794 2.383,-0.794 1.316,0 2.384,0.355 2.384,0.794 0,0.439 -1.068,0.795 -2.384,0.795 C 1.066,0.795 0,0.439 0,0 Z" />
    <path
       id="path390"
       transform="translate(45.7734,17.625)"
       d="m 0,0 c 0,-0.439 1.066,-0.794 2.383,-0.794 1.316,0 2.384,0.355 2.384,0.794 0,0.439 -1.068,0.795 -2.384,0.795 C 1.066,0.795 0,0.439 0,0 Z" />
    <path
       id="path392"
       transform="translate(0,13.3623)"
       d="m 0,0 c 0.209,-0.021 0.429,-0.031 0.656,-0.031 1.317,0 2.384,0.355 2.384,0.794 0,0.439 -1.067,0.795 -2.384,0.795 C 0.429,1.558 0.209,1.547 0,1.527" />
    <path
       id="path394"
       transform="translate(15.54,14.125)"
       d="M 0,0 C 0,0.439 -1.067,0.795 -2.384,0.795 -3.7,0.795 -4.767,0.439 -4.767,0 c 0,-0.439 1.067,-0.794 2.383,-0.794 C -1.067,-0.794 0,-0.439 0,0 Z" />
    <path
       id="path396"
       transform="translate(29.04,14.125)"
       d="M 0,0 C 0,0.439 -1.067,0.795 -2.384,0.795 -3.7,0.795 -4.767,0.439 -4.767,0 c 0,-0.439 1.067,-0.794 2.383,-0.794 C -1.067,-0.794 0,-0.439 0,0 Z" />
    <path
       id="path398"
       transform="translate(43.415,14.125)"
       d="M 0,0 C 0,0.439 -1.067,0.795 -2.384,0.795 -3.7,0.795 -4.767,0.439 -4.767,0 c 0,-0.439 1.067,-0.794 2.383,-0.794 C -1.067,-0.794 0,-0.439 0,0 Z" />
    <path
       id="path400"
       transform="translate(2.5234,10.375)"
       d="m 0,0 c 0,-0.439 1.066,-0.794 2.383,-0.794 1.316,0 2.384,0.355 2.384,0.794 0,0.439 -1.068,0.795 -2.384,0.795 C 1.066,0.795 0,0.439 0,0 Z" />
    <path
       id="path402"
       transform="translate(18.7813,11.1699)"
       d="m 0,0 c -1.316,0 -2.383,-0.355 -2.383,-0.795 0,-0.438 1.067,-0.794 2.383,-0.794 1.316,0 2.384,0.356 2.384,0.794 C 2.384,-0.355 1.316,0 0,0 Z" />
    <path
       id="path404"
       transform="translate(30.8984,10.375)"
       d="m 0,0 c 0,-0.439 1.066,-0.794 2.383,-0.794 1.316,0 2.384,0.355 2.384,0.794 0,0.439 -1.068,0.795 -2.384,0.795 C 1.066,0.795 0,0.439 0,0 Z" />
    <path
       id="path406"
       transform="translate(44.6484,10.375)"
       d="m 0,0 c 0,-0.439 1.066,-0.794 2.383,-0.794 1.316,0 2.384,0.355 2.384,0.794 0,0.439 -1.068,0.795 -2.384,0.795 C 1.066,0.795 0,0.439 0,0 Z" />
    <path
       id="path408"
       transform="translate(0,5.7002)"
       d="M 0,0 C 0.411,0.143 0.665,0.336 0.665,0.55 0.665,0.764 0.411,0.958 0,1.101" />
    <path
       id="path410"
       transform="translate(10.9063,5.4561)"
       d="M 0,0 C 1.316,0 2.384,0.355 2.384,0.794 2.384,1.233 1.316,1.589 0,1.589 -1.316,1.589 -2.383,1.233 -2.383,0.794 -2.383,0.355 -1.316,0 0,0 Z" />
    <path
       id="path412"
       transform="translate(27.04,6.25)"
       d="M 0,0 C 0,0.439 -1.067,0.795 -2.384,0.795 -3.7,0.795 -4.767,0.439 -4.767,0 c 0,-0.439 1.067,-0.794 2.383,-0.794 C -1.067,-0.794 0,-0.439 0,0 Z" />
    <path
       id="path414"
       transform="translate(38.7813,5.4561)"
       d="M 0,0 C 1.316,0 2.384,0.355 2.384,0.794 2.384,1.233 1.316,1.589 0,1.589 -1.316,1.589 -2.383,1.233 -2.383,0.794 -2.383,0.355 -1.316,0 0,0 Z" />
    <path
       id="path416"
       transform="translate(6.04,2.375)"
       d="M 0,0 C 0,0.439 -1.067,0.795 -2.384,0.795 -3.7,0.795 -4.767,0.439 -4.767,0 c 0,-0.439 1.067,-0.794 2.383,-0.794 C -1.067,-0.794 0,-0.439 0,0 Z" />
    <path
       id="path418"
       transform="translate(19.54,2.375)"
       d="M 0,0 C 0,0.439 -1.067,0.795 -2.384,0.795 -3.7,0.795 -4.767,0.439 -4.767,0 c 0,-0.439 1.067,-0.794 2.383,-0.794 C -1.067,-0.794 0,-0.439 0,0 Z" />
    <path
       id="path420"
       transform="translate(33.79,2.375)"
       d="M 0,0 C 0,0.439 -1.067,0.795 -2.384,0.795 -3.7,0.795 -4.767,0.439 -4.767,0 c 0,-0.439 1.067,-0.794 2.383,-0.794 C -1.067,-0.794 0,-0.439 0,0 Z" />
    <path
       id="path422"
       transform="translate(47.29,2.375)"
       d="M 0,0 C 0,0.439 -1.067,0.795 -2.384,0.795 -3.7,0.795 -4.767,0.439 -4.767,0 c 0,-0.439 1.067,-0.794 2.383,-0.794 C -1.067,-0.794 0,-0.439 0,0 Z" />
    <path
       id="path424"
       transform="translate(54.125,44.7168)"
       d="M 0,0 C -0.8,-0.128 -1.352,-0.4 -1.352,-0.717 -1.352,-1.032 -0.8,-1.305 0,-1.433" />
    <path
       id="path426"
       transform="translate(54.125,53.1553)"
       d="m 0,0 c -0.234,0.026 -0.483,0.04 -0.743,0.04 -1.317,0 -2.384,-0.356 -2.384,-0.795 0,-0.438 1.067,-0.795 2.384,-0.795 0.26,0 0.509,0.014 0.743,0.04" />
    <path
       id="path428"
       transform="translate(54.125,36.9971)"
       d="m 0,0 c -0.183,0.015 -0.372,0.022 -0.568,0.022 -1.317,0 -2.384,-0.355 -2.384,-0.793 0,-0.44 1.067,-0.795 2.384,-0.795 0.196,0 0.385,0.007 0.568,0.022" />
    <path
       id="path430"
       transform="translate(54.125,29.8994)"
       d="m 0,0 c -1.061,-0.08 -1.852,-0.395 -1.852,-0.774 0,-0.378 0.791,-0.694 1.852,-0.775" />
    <path
       id="path432"
       transform="translate(54.125,21.8516)"
       d="m 0,0 c -0.296,0.044 -0.624,0.068 -0.969,0.068 -1.316,0 -2.384,-0.355 -2.384,-0.795 0,-0.438 1.068,-0.793 2.384,-0.793 0.345,0 0.673,0.024 0.969,0.068" />
    <path
       id="path434"
       transform="translate(54.125,14.8896)"
       d="m 0,0 c -0.997,-0.096 -1.727,-0.401 -1.727,-0.765 0,-0.362 0.73,-0.668 1.727,-0.762" />
    <path
       id="path436"
       transform="translate(54.125,6.8008)"
       d="m 0,0 c -0.434,0.15 -1.043,0.244 -1.719,0.244 -1.316,0 -2.384,-0.355 -2.384,-0.795 0,-0.438 1.068,-0.794 2.384,-0.794 0.676,0 1.285,0.094 1.719,0.244" />
  </g>
</svg>
