<?xml version="1.0" encoding="UTF-8" standalone="no"?>
<svg
   xmlns:dc="http://purl.org/dc/elements/1.1/"
   xmlns:cc="http://creativecommons.org/ns#"
   xmlns:rdf="http://www.w3.org/1999/02/22-rdf-syntax-ns#"
   xmlns:svg="http://www.w3.org/2000/svg"
   xmlns="http://www.w3.org/2000/svg"
   height="46.75"
   width="46.75"
   id="svg584"
   version="1.1">
  <defs
     id="defs588" />
  <metadata
     id="metadata2">citation: U.S. Geological Survey, 2006, FGDC Digital Cartographic Standard for Geologic Map Symbolization (PostScript Implementation): U.S. Geological Survey Techniques and Methods 11-A2 [pubs.usgs.gov/tm/2006/11A02/]. converted by CEC Geology LLC 2018 from the USGS lithologic gs converted to inkscape by the University of Otago.<rdf:RDF>
  <cc:Work
     rdf:about="">
    <dc:format>image/svg+xml</dc:format>
    <dc:type
       rdf:resource="http://purl.org/dc/dcmitype/StillImage" />
    <dc:title></dc:title>
  </cc:Work>
</rdf:RDF>
</metadata>
  <g
     stroke="#231f20"
     fill="none"
     id="g582"
     width="46.75"
     height="46.75">
    <path
       style="stroke-width:0.3"
       id="path4"
       transform="translate(37.8193,45.4438)"
       d="M 0,0 H 7.818" />
    <path
       style="stroke-width:0.3"
       id="path6"
       transform="translate(18.0693,45.4438)"
       d="M 0,0 H 7.818" />
    <path
       style="stroke-width:0.3"
       id="path8"
       transform="translate(2.3691,45.4438)"
       d="M 0,0 H 6.881" />
    <path
       style="stroke-width:0.3"
       id="path10"
       transform="translate(36.4941,33.8188)"
       d="M 0,0 H 6.894" />
    <path
       style="stroke-width:0.3"
       id="path12"
       transform="translate(23.6377,33.8188)"
       d="M 0,0 H -6.899" />
    <path
       style="stroke-width:0.3"
       id="path14"
       transform="translate(7.7607,33.8188)"
       d="M 0,0 H -7.055" />
    <path
       style="stroke-width:0.3"
       id="path16"
       transform="translate(38.8379,19.1675)"
       d="M 0,0 H 7.104" />
    <path
       style="stroke-width:0.3"
       id="path18"
       transform="translate(26.2695,19.1675)"
       d="M 0,0 H -7.145" />
    <path
       style="stroke-width:0.3"
       id="path20"
       transform="translate(10.3037,19.1675)"
       d="M 0,0 H -5.591" />
    <path
       style="stroke-width:0.3"
       id="path22"
       transform="translate(33.249,4.855)"
       d="M 0,0 H 6.837" />
    <path
       style="stroke-width:0.3"
       id="path24"
       transform="translate(14.5439,4.855)"
       d="M 0,0 H -6.783" />
    <path
       style="stroke-width:0.3"
       id="path26"
       transform="translate(10.1045,42.4785)"
       d="M 0,0 H 6.895" />
    <path
       style="stroke-width:0.3"
       id="path28"
       transform="translate(24.4736,42.4785)"
       d="M 0,0 H 7.177" />
    <path
       style="stroke-width:0.3"
       id="path30"
       transform="translate(38.4941,39.5513)"
       d="M 0,0 H -5.596" />
    <path
       style="stroke-width:0.3"
       id="path32"
       transform="translate(7.9873,39.6138)"
       d="M 0,0 H -6.295" />
    <path
       style="stroke-width:0.3"
       id="path34"
       transform="translate(11.5615,36.6138)"
       d="M 0,0 H 5.725" />
    <path
       style="stroke-width:0.3"
       id="path36"
       transform="translate(42.4287,36.6138)"
       d="M 0,0 H 4.321" />
    <path
       style="stroke-width:0.3"
       id="path38"
       transform="translate(26.1992,30.8638)"
       d="M 0,0 H 5.451" />
    <path
       style="stroke-width:0.3"
       id="path40"
       transform="translate(10.6191,30.8638)"
       d="M 0,0 H -6.295" />
    <path
       style="stroke-width:0.3"
       id="path42"
       transform="translate(16.7383,27.9814)"
       d="M 0,0 H 6.71" />
    <path
       style="stroke-width:0.3"
       id="path44"
       transform="translate(3.9482,27.9814)"
       d="M 0,0 H -3.948" />
    <path
       style="stroke-width:0.3"
       id="path46"
       transform="translate(38.456,27.9814)"
       d="M 0,0 H -5.558" />
    <path
       style="stroke-width:0.3"
       id="path48"
       transform="translate(33.6982,24.9814)"
       d="M 0,0 H -5.639" />
    <path
       style="stroke-width:0.3"
       id="path50"
       transform="translate(10.3232,24.9814)"
       d="M 0,0 H -6.294" />
    <path
       style="stroke-width:0.3"
       id="path52"
       transform="translate(20.3301,22.2314)"
       d="M 0,0 H -7.551" />
    <path
       style="stroke-width:0.3"
       id="path54"
       transform="translate(40.3232,22.2314)"
       d="M 0,0 H -5.629" />
    <path
       style="stroke-width:0.3"
       id="path56"
       transform="translate(27.5293,16.2314)"
       d="M 0,0 H 5.369" />
    <path
       style="stroke-width:0.3"
       id="path58"
       transform="translate(15.3232,16.2314)"
       d="M 0,0 H -6.294" />
    <path
       style="stroke-width:0.3"
       id="path60"
       transform="translate(2.8203,13.4814)"
       d="M 0,0 H -2.82" />
    <path
       style="stroke-width:0.3"
       id="path62"
       transform="translate(19.2353,13.4814)"
       d="M 0,0 H -5.54" />
    <path
       style="stroke-width:0.3"
       id="path64"
       transform="translate(31.6504,13.4814)"
       d="M 0,0 H 5.585" />
    <path
       style="stroke-width:0.3"
       id="path66"
       transform="translate(20.3301,10.4814)"
       d="M 0,0 H 7.53" />
    <path
       style="stroke-width:0.3"
       id="path68"
       transform="translate(36.4941,10.4814)"
       d="M 0,0 H 5.616" />
    <path
       style="stroke-width:0.3"
       id="path70"
       transform="translate(15.3545,7.5649)"
       d="M 0,0 H 5.528" />
    <path
       style="stroke-width:0.3"
       id="path72"
       transform="translate(0,7.5649)"
       d="M 0,0 H 1.024" />
    <path
       style="stroke-width:0.3"
       id="path74"
       transform="translate(33.6494,7.5649)"
       d="M 0,0 H -5.59" />
    <path
       style="stroke-width:0.3"
       id="path76"
       transform="translate(33.4463,1.8149)"
       d="M 0,0 H -5.387" />
    <path
       style="stroke-width:0.3"
       id="path78"
       transform="translate(17.2861,1.8149)"
       d="M 0,0 H -5.386" />
    <path
       style="stroke-width:0.3"
       id="path80"
       transform="translate(11.4853,10.3564)"
       d="M 0,0 H -5.525" />
    <path
       style="stroke-width:0.3"
       id="path82"
       transform="translate(45.3232,27.9814)"
       d="M 0,0 H 1.427" />
    <path
       style="stroke-width:0.3"
       id="path84"
       transform="translate(43.4004,13.4814)"
       d="M 0,0 H 3.35" />
    <path
       style="stroke-width:0.3"
       id="path86"
       transform="translate(42.1718,7.5649)"
       d="M 0,0 H 4.578" />
    <g
       style="stroke-width:0.69999999;stroke-linecap:round"
       id="g580">
      <path
         id="path88"
         transform="translate(1.122,42.4985)"
         d="M 0,0 0.01,0.01" />
      <path
         id="path90"
         transform="translate(4.7129,42.4985)"
         d="M 0,0 0.01,0.01" />
      <path
         id="path92"
         transform="translate(2.917,42.4985)"
         d="M 0,0 0.01,0.01" />
      <path
         id="path94"
         transform="translate(8.3086,42.4985)"
         d="M 0,0 0.01,0.01" />
      <path
         id="path96"
         transform="translate(6.5136,42.4985)"
         d="M 0,0 0.01,0.01" />
      <path
         id="path98"
         transform="translate(19.082,42.4985)"
         d="M 0,0 0.01,0.01" />
      <path
         id="path100"
         transform="translate(22.6787,42.4985)"
         d="M 0,0 0.01,0.01" />
      <path
         id="path102"
         transform="translate(20.8828,42.4985)"
         d="M 0,0 0.01,0.01" />
      <path
         id="path104"
         transform="translate(33.4463,42.4985)"
         d="M 0,0 0.01,0.01" />
      <path
         id="path106"
         transform="translate(37.0429,42.4985)"
         d="M 0,0 0.01,0.01" />
      <path
         id="path108"
         transform="translate(35.247,42.4985)"
         d="M 0,0 0.01,0.01" />
      <path
         id="path110"
         transform="translate(40.6338,42.4985)"
         d="M 0,0 0.01,0.01" />
      <path
         id="path112"
         transform="translate(38.8379,42.4985)"
         d="M 0,0 0.01,0.01" />
      <path
         id="path114"
         transform="translate(44.2246,42.4985)"
         d="M 0,0 0.01,0.01" />
      <path
         id="path116"
         transform="translate(42.4287,42.4985)"
         d="M 0,0 0.01,0.01" />
      <path
         id="path118"
         transform="translate(46.0205,42.4985)"
         d="M 0,0 0.01,0.01" />
      <path
         id="path120"
         transform="translate(1.122,36.624)"
         d="M 0,0 0.01,0.01" />
      <path
         id="path122"
         transform="translate(4.7129,36.624)"
         d="M 0,0 0.01,0.01" />
      <path
         id="path124"
         transform="translate(2.917,36.624)"
         d="M 0,0 0.01,0.01" />
      <path
         id="path126"
         transform="translate(8.3086,36.624)"
         d="M 0,0 0.01,0.01" />
      <path
         id="path128"
         transform="translate(6.5136,36.624)"
         d="M 0,0 0.01,0.01" />
      <path
         id="path130"
         transform="translate(10.1045,36.624)"
         d="M 0,0 0.01,0.01" />
      <path
         id="path132"
         transform="translate(19.082,36.624)"
         d="M 0,0 0.01,0.01" />
      <path
         id="path134"
         transform="translate(22.6787,36.624)"
         d="M 0,0 0.01,0.01" />
      <path
         id="path136"
         transform="translate(20.8828,36.624)"
         d="M 0,0 0.01,0.01" />
      <path
         id="path138"
         transform="translate(26.2695,36.624)"
         d="M 0,0 0.01,0.01" />
      <path
         id="path140"
         transform="translate(24.4736,36.624)"
         d="M 0,0 0.01,0.01" />
      <path
         id="path142"
         transform="translate(29.8554,36.624)"
         d="M 0,0 0.01,0.01" />
      <path
         id="path144"
         transform="translate(28.0595,36.624)"
         d="M 0,0 0.01,0.01" />
      <path
         id="path146"
         transform="translate(33.4463,36.624)"
         d="M 0,0 0.01,0.01" />
      <path
         id="path148"
         transform="translate(31.6504,36.624)"
         d="M 0,0 0.01,0.01" />
      <path
         id="path150"
         transform="translate(37.0429,36.624)"
         d="M 0,0 0.01,0.01" />
      <path
         id="path152"
         transform="translate(35.247,36.624)"
         d="M 0,0 0.01,0.01" />
      <path
         id="path154"
         transform="translate(40.6338,36.624)"
         d="M 0,0 0.01,0.01" />
      <path
         id="path156"
         transform="translate(38.8379,36.624)"
         d="M 0,0 0.01,0.01" />
      <path
         id="path158"
         transform="translate(1.122,30.9292)"
         d="M 0,0 0.01,0.01" />
      <path
         id="path160"
         transform="translate(2.917,30.9292)"
         d="M 0,0 0.01,0.01" />
      <path
         id="path162"
         transform="translate(11.9004,30.9292)"
         d="M 0,0 0.01,0.01" />
      <path
         id="path164"
         transform="translate(15.4912,30.9292)"
         d="M 0,0 0.01,0.01" />
      <path
         id="path166"
         transform="translate(13.6953,30.9292)"
         d="M 0,0 0.01,0.01" />
      <path
         id="path168"
         transform="translate(19.082,30.9292)"
         d="M 0,0 0.01,0.01" />
      <path
         id="path170"
         transform="translate(17.2861,30.9292)"
         d="M 0,0 0.01,0.01" />
      <path
         id="path172"
         transform="translate(22.6787,30.9292)"
         d="M 0,0 0.01,0.01" />
      <path
         id="path174"
         transform="translate(20.8828,30.9292)"
         d="M 0,0 0.01,0.01" />
      <path
         id="path176"
         transform="translate(24.4736,30.9292)"
         d="M 0,0 0.01,0.01" />
      <path
         id="path178"
         transform="translate(33.4463,30.9292)"
         d="M 0,0 0.01,0.01" />
      <path
         id="path180"
         transform="translate(37.0429,30.9292)"
         d="M 0,0 0.01,0.01" />
      <path
         id="path182"
         transform="translate(35.247,30.9292)"
         d="M 0,0 0.01,0.01" />
      <path
         id="path184"
         transform="translate(40.6338,30.9292)"
         d="M 0,0 0.01,0.01" />
      <path
         id="path186"
         transform="translate(38.8379,30.9292)"
         d="M 0,0 0.01,0.01" />
      <path
         id="path188"
         transform="translate(44.2246,30.9292)"
         d="M 0,0 0.01,0.01" />
      <path
         id="path190"
         transform="translate(42.4287,30.9292)"
         d="M 0,0 0.01,0.01" />
      <path
         id="path192"
         transform="translate(46.0205,30.9292)"
         d="M 0,0 0.01,0.01" />
      <path
         id="path194"
         transform="translate(1.122,25.0439)"
         d="M 0,0 0.01,0.01" />
      <path
         id="path196"
         transform="translate(2.917,25.0439)"
         d="M 0,0 0.01,0.01" />
      <path
         id="path198"
         transform="translate(11.9004,25.0439)"
         d="M 0,0 0.01,0.01" />
      <path
         id="path200"
         transform="translate(15.4912,25.0439)"
         d="M 0,0 0.01,0.01" />
      <path
         id="path202"
         transform="translate(13.6953,25.0439)"
         d="M 0,0 0.01,0.01" />
      <path
         id="path204"
         transform="translate(19.082,25.0439)"
         d="M 0,0 0.01,0.01" />
      <path
         id="path206"
         transform="translate(17.2861,25.0439)"
         d="M 0,0 0.01,0.01" />
      <path
         id="path208"
         transform="translate(22.6787,25.0439)"
         d="M 0,0 0.01,0.01" />
      <path
         id="path210"
         transform="translate(20.8828,25.0439)"
         d="M 0,0 0.01,0.01" />
      <path
         id="path212"
         transform="translate(26.2695,25.0439)"
         d="M 0,0 0.01,0.01" />
      <path
         id="path214"
         transform="translate(24.4736,25.0439)"
         d="M 0,0 0.01,0.01" />
      <path
         id="path216"
         transform="translate(37.0429,25.0439)"
         d="M 0,0 0.01,0.01" />
      <path
         id="path218"
         transform="translate(35.247,25.0439)"
         d="M 0,0 0.01,0.01" />
      <path
         id="path220"
         transform="translate(40.6338,25.0439)"
         d="M 0,0 0.01,0.01" />
      <path
         id="path222"
         transform="translate(38.8379,25.0439)"
         d="M 0,0 0.01,0.01" />
      <path
         id="path224"
         transform="translate(44.2246,25.0439)"
         d="M 0,0 0.01,0.01" />
      <path
         id="path226"
         transform="translate(42.4287,25.0439)"
         d="M 0,0 0.01,0.01" />
      <path
         id="path228"
         transform="translate(46.0205,25.0439)"
         d="M 0,0 0.01,0.01" />
      <path
         id="path230"
         transform="translate(1.122,19.2236)"
         d="M 0,0 0.01,0.01" />
      <path
         id="path232"
         transform="translate(2.917,19.2236)"
         d="M 0,0 0.01,0.01" />
      <path
         id="path234"
         transform="translate(11.9004,19.2236)"
         d="M 0,0 0.01,0.01" />
      <path
         id="path236"
         transform="translate(15.4912,19.2236)"
         d="M 0,0 0.01,0.01" />
      <path
         id="path238"
         transform="translate(13.6953,19.2236)"
         d="M 0,0 0.01,0.01" />
      <path
         id="path240"
         transform="translate(17.2861,19.2236)"
         d="M 0,0 0.01,0.01" />
      <path
         id="path242"
         transform="translate(29.8554,19.2236)"
         d="M 0,0 0.01,0.01" />
      <path
         id="path244"
         transform="translate(28.0595,19.2236)"
         d="M 0,0 0.01,0.01" />
      <path
         id="path246"
         transform="translate(33.4463,19.2236)"
         d="M 0,0 0.01,0.01" />
      <path
         id="path248"
         transform="translate(31.6504,19.2236)"
         d="M 0,0 0.01,0.01" />
      <path
         id="path250"
         transform="translate(37.0429,19.2236)"
         d="M 0,0 0.01,0.01" />
      <path
         id="path252"
         transform="translate(35.247,19.2236)"
         d="M 0,0 0.01,0.01" />
      <path
         id="path254"
         transform="translate(4.7129,13.4639)"
         d="M 0,0 0.01,0.01" />
      <path
         id="path256"
         transform="translate(8.3086,13.4639)"
         d="M 0,0 0.01,0.01" />
      <path
         id="path258"
         transform="translate(6.5136,13.4639)"
         d="M 0,0 0.01,0.01" />
      <path
         id="path260"
         transform="translate(11.9004,13.4639)"
         d="M 0,0 0.01,0.01" />
      <path
         id="path262"
         transform="translate(10.1045,13.4639)"
         d="M 0,0 0.01,0.01" />
      <path
         id="path264"
         transform="translate(22.6787,13.4639)"
         d="M 0,0 0.01,0.01" />
      <path
         id="path266"
         transform="translate(20.8828,13.4639)"
         d="M 0,0 0.01,0.01" />
      <path
         id="path268"
         transform="translate(26.2695,13.4639)"
         d="M 0,0 0.01,0.01" />
      <path
         id="path270"
         transform="translate(24.4736,13.4639)"
         d="M 0,0 0.01,0.01" />
      <path
         id="path272"
         transform="translate(29.8554,13.4639)"
         d="M 0,0 0.01,0.01" />
      <path
         id="path274"
         transform="translate(28.0595,13.4639)"
         d="M 0,0 0.01,0.01" />
      <path
         id="path276"
         transform="translate(40.6338,13.4639)"
         d="M 0,0 0.01,0.01" />
      <path
         id="path278"
         transform="translate(38.8379,13.4639)"
         d="M 0,0 0.01,0.01" />
      <path
         id="path280"
         transform="translate(42.4287,13.4639)"
         d="M 0,0 0.01,0.01" />
      <path
         id="path282"
         transform="translate(4.7129,7.5835)"
         d="M 0,0 0.01,0.01" />
      <path
         id="path284"
         transform="translate(2.917,7.5835)"
         d="M 0,0 0.01,0.01" />
      <path
         id="path286"
         transform="translate(8.3086,7.5835)"
         d="M 0,0 0.01,0.01" />
      <path
         id="path288"
         transform="translate(6.5136,7.5835)"
         d="M 0,0 0.01,0.01" />
      <path
         id="path290"
         transform="translate(11.9004,7.5835)"
         d="M 0,0 0.01,0.01" />
      <path
         id="path292"
         transform="translate(10.1045,7.5835)"
         d="M 0,0 0.01,0.01" />
      <path
         id="path294"
         transform="translate(13.6953,7.5835)"
         d="M 0,0 0.01,0.01" />
      <path
         id="path296"
         transform="translate(22.6787,7.5835)"
         d="M 0,0 0.01,0.01" />
      <path
         id="path298"
         transform="translate(26.2695,7.5835)"
         d="M 0,0 0.01,0.01" />
      <path
         id="path300"
         transform="translate(24.4736,7.5835)"
         d="M 0,0 0.01,0.01" />
      <path
         id="path302"
         transform="translate(37.0429,7.5835)"
         d="M 0,0 0.01,0.01" />
      <path
         id="path304"
         transform="translate(35.247,7.5835)"
         d="M 0,0 0.01,0.01" />
      <path
         id="path306"
         transform="translate(40.6338,7.5835)"
         d="M 0,0 0.01,0.01" />
      <path
         id="path308"
         transform="translate(38.8379,7.5835)"
         d="M 0,0 0.01,0.01" />
      <path
         id="path310"
         transform="translate(1.122,1.8237)"
         d="M 0,0 0.01,0.01" />
      <path
         id="path312"
         transform="translate(4.7129,1.8237)"
         d="M 0,0 0.01,0.01" />
      <path
         id="path314"
         transform="translate(2.917,1.8237)"
         d="M 0,0 0.01,0.01" />
      <path
         id="path316"
         transform="translate(8.3086,1.8237)"
         d="M 0,0 0.01,0.01" />
      <path
         id="path318"
         transform="translate(6.5136,1.8237)"
         d="M 0,0 0.01,0.01" />
      <path
         id="path320"
         transform="translate(10.1045,1.8237)"
         d="M 0,0 0.01,0.01" />
      <path
         id="path322"
         transform="translate(19.082,1.8237)"
         d="M 0,0 0.01,0.01" />
      <path
         id="path324"
         transform="translate(22.6787,1.8237)"
         d="M 0,0 0.01,0.01" />
      <path
         id="path326"
         transform="translate(20.8828,1.8237)"
         d="M 0,0 0.01,0.01" />
      <path
         id="path328"
         transform="translate(26.2695,1.8237)"
         d="M 0,0 0.01,0.01" />
      <path
         id="path330"
         transform="translate(24.4736,1.8237)"
         d="M 0,0 0.01,0.01" />
      <path
         id="path332"
         transform="translate(37.0429,1.8237)"
         d="M 0,0 0.01,0.01" />
      <path
         id="path334"
         transform="translate(35.247,1.8237)"
         d="M 0,0 0.01,0.01" />
      <path
         id="path336"
         transform="translate(40.6338,1.8237)"
         d="M 0,0 0.01,0.01" />
      <path
         id="path338"
         transform="translate(38.8379,1.8237)"
         d="M 0,0 0.01,0.01" />
      <path
         id="path340"
         transform="translate(44.2246,1.8237)"
         d="M 0,0 0.01,0.01" />
      <path
         id="path342"
         transform="translate(42.4287,1.8237)"
         d="M 0,0 0.01,0.01" />
      <path
         id="path344"
         transform="translate(46.0205,1.8237)"
         d="M 0,0 0.01,0.01" />
      <path
         id="path346"
         transform="translate(0.5732,45.4473)"
         d="M 0,0 0.01,0.01" />
      <path
         id="path348"
         transform="translate(13.1474,45.4473)"
         d="M 0,0 0.01,0.01" />
      <path
         id="path350"
         transform="translate(11.3515,45.4473)"
         d="M 0,0 0.01,0.01" />
      <path
         id="path352"
         transform="translate(16.7383,45.4473)"
         d="M 0,0 0.01,0.01" />
      <path
         id="path354"
         transform="translate(14.9433,45.4473)"
         d="M 0,0 0.01,0.01" />
      <path
         id="path356"
         transform="translate(27.5166,45.4473)"
         d="M 0,0 0.01,0.01" />
      <path
         id="path358"
         transform="translate(31.1025,45.4473)"
         d="M 0,0 0.01,0.01" />
      <path
         id="path360"
         transform="translate(29.3076,45.4473)"
         d="M 0,0 0.01,0.01" />
      <path
         id="path362"
         transform="translate(34.6943,45.4473)"
         d="M 0,0 0.01,0.01" />
      <path
         id="path364"
         transform="translate(32.8984,45.4473)"
         d="M 0,0 0.01,0.01" />
      <path
         id="path366"
         transform="translate(36.4941,45.4473)"
         d="M 0,0 0.01,0.01" />
      <path
         id="path368"
         transform="translate(0.5732,39.5728)"
         d="M 0,0 0.01,0.01" />
      <path
         id="path370"
         transform="translate(9.5566,39.5728)"
         d="M 0,0 0.01,0.01" />
      <path
         id="path372"
         transform="translate(13.1474,39.5728)"
         d="M 0,0 0.01,0.01" />
      <path
         id="path374"
         transform="translate(11.3515,39.5728)"
         d="M 0,0 0.01,0.01" />
      <path
         id="path376"
         transform="translate(16.7383,39.5728)"
         d="M 0,0 0.01,0.01" />
      <path
         id="path378"
         transform="translate(14.9433,39.5728)"
         d="M 0,0 0.01,0.01" />
      <path
         id="path380"
         transform="translate(20.3301,39.5728)"
         d="M 0,0 0.01,0.01" />
      <path
         id="path382"
         transform="translate(18.5342,39.5728)"
         d="M 0,0 0.01,0.01" />
      <path
         id="path384"
         transform="translate(23.9258,39.5728)"
         d="M 0,0 0.01,0.01" />
      <path
         id="path386"
         transform="translate(22.1308,39.5728)"
         d="M 0,0 0.01,0.01" />
      <path
         id="path388"
         transform="translate(27.5166,39.5728)"
         d="M 0,0 0.01,0.01" />
      <path
         id="path390"
         transform="translate(25.7217,39.5728)"
         d="M 0,0 0.01,0.01" />
      <path
         id="path392"
         transform="translate(31.1025,39.5728)"
         d="M 0,0 0.01,0.01" />
      <path
         id="path394"
         transform="translate(29.3076,39.5728)"
         d="M 0,0 0.01,0.01" />
      <path
         id="path396"
         transform="translate(41.8808,39.5728)"
         d="M 0,0 0.01,0.01" />
      <path
         id="path398"
         transform="translate(40.0859,39.5728)"
         d="M 0,0 0.01,0.01" />
      <path
         id="path400"
         transform="translate(45.4726,39.5728)"
         d="M 0,0 0.01,0.01" />
      <path
         id="path402"
         transform="translate(43.6767,39.5728)"
         d="M 0,0 0.01,0.01" />
      <path
         id="path404"
         transform="translate(9.5566,33.8784)"
         d="M 0,0 0.01,0.01" />
      <path
         id="path406"
         transform="translate(13.1474,33.8784)"
         d="M 0,0 0.01,0.01" />
      <path
         id="path408"
         transform="translate(11.3515,33.8784)"
         d="M 0,0 0.01,0.01" />
      <path
         id="path410"
         transform="translate(14.9433,33.8784)"
         d="M 0,0 0.01,0.01" />
      <path
         id="path412"
         transform="translate(27.5166,33.8784)"
         d="M 0,0 0.01,0.01" />
      <path
         id="path414"
         transform="translate(25.7217,33.8784)"
         d="M 0,0 0.01,0.01" />
      <path
         id="path416"
         transform="translate(31.1025,33.8784)"
         d="M 0,0 0.01,0.01" />
      <path
         id="path418"
         transform="translate(29.3076,33.8784)"
         d="M 0,0 0.01,0.01" />
      <path
         id="path420"
         transform="translate(34.6943,33.8784)"
         d="M 0,0 0.01,0.01" />
      <path
         id="path422"
         transform="translate(32.8984,33.8784)"
         d="M 0,0 0.01,0.01" />
      <path
         id="path424"
         transform="translate(45.4726,33.8784)"
         d="M 0,0 0.01,0.01" />
      <path
         id="path426"
         transform="translate(5.9599,27.9927)"
         d="M 0,0 0.01,0.01" />
      <path
         id="path428"
         transform="translate(9.5566,27.9927)"
         d="M 0,0 0.01,0.01" />
      <path
         id="path430"
         transform="translate(7.7607,27.9927)"
         d="M 0,0 0.01,0.01" />
      <path
         id="path432"
         transform="translate(13.1474,27.9927)"
         d="M 0,0 0.01,0.01" />
      <path
         id="path434"
         transform="translate(11.3515,27.9927)"
         d="M 0,0 0.01,0.01" />
      <path
         id="path436"
         transform="translate(14.9433,27.9927)"
         d="M 0,0 0.01,0.01" />
      <path
         id="path438"
         transform="translate(27.5166,27.9927)"
         d="M 0,0 0.01,0.01" />
      <path
         id="path440"
         transform="translate(25.7217,27.9927)"
         d="M 0,0 0.01,0.01" />
      <path
         id="path442"
         transform="translate(31.1025,27.9927)"
         d="M 0,0 0.01,0.01" />
      <path
         id="path444"
         transform="translate(29.3076,27.9927)"
         d="M 0,0 0.01,0.01" />
      <path
         id="path446"
         transform="translate(41.8808,27.9927)"
         d="M 0,0 0.01,0.01" />
      <path
         id="path448"
         transform="translate(40.0859,27.9927)"
         d="M 0,0 0.01,0.01" />
      <path
         id="path450"
         transform="translate(43.6767,27.9927)"
         d="M 0,0 0.01,0.01" />
      <path
         id="path452"
         transform="translate(2.3691,22.1729)"
         d="M 0,0 0.01,0.01" />
      <path
         id="path454"
         transform="translate(0.5732,22.1729)"
         d="M 0,0 0.01,0.01" />
      <path
         id="path456"
         transform="translate(5.9599,22.1729)"
         d="M 0,0 0.01,0.01" />
      <path
         id="path458"
         transform="translate(4.165,22.1729)"
         d="M 0,0 0.01,0.01" />
      <path
         id="path460"
         transform="translate(9.5566,22.1729)"
         d="M 0,0 0.01,0.01" />
      <path
         id="path462"
         transform="translate(7.7607,22.1729)"
         d="M 0,0 0.01,0.01" />
      <path
         id="path464"
         transform="translate(11.3515,22.1729)"
         d="M 0,0 0.01,0.01" />
      <path
         id="path466"
         transform="translate(23.9258,22.1729)"
         d="M 0,0 0.01,0.01" />
      <path
         id="path468"
         transform="translate(22.1308,22.1729)"
         d="M 0,0 0.01,0.01" />
      <path
         id="path470"
         transform="translate(27.5166,22.1729)"
         d="M 0,0 0.01,0.01" />
      <path
         id="path472"
         transform="translate(25.7217,22.1729)"
         d="M 0,0 0.01,0.01" />
      <path
         id="path474"
         transform="translate(31.1025,22.1729)"
         d="M 0,0 0.01,0.01" />
      <path
         id="path476"
         transform="translate(29.3076,22.1729)"
         d="M 0,0 0.01,0.01" />
      <path
         id="path478"
         transform="translate(32.8984,22.1729)"
         d="M 0,0 0.01,0.01" />
      <path
         id="path480"
         transform="translate(41.8808,22.1729)"
         d="M 0,0 0.01,0.01" />
      <path
         id="path482"
         transform="translate(45.4726,22.1729)"
         d="M 0,0 0.01,0.01" />
      <path
         id="path484"
         transform="translate(43.6767,22.1729)"
         d="M 0,0 0.01,0.01" />
      <path
         id="path486"
         transform="translate(2.3691,16.4126)"
         d="M 0,0 0.01,0.01" />
      <path
         id="path488"
         transform="translate(0.5732,16.4126)"
         d="M 0,0 0.01,0.01" />
      <path
         id="path490"
         transform="translate(5.9599,16.4126)"
         d="M 0,0 0.01,0.01" />
      <path
         id="path492"
         transform="translate(4.165,16.4126)"
         d="M 0,0 0.01,0.01" />
      <path
         id="path494"
         transform="translate(7.7607,16.4126)"
         d="M 0,0 0.01,0.01" />
      <path
         id="path496"
         transform="translate(16.7383,16.4126)"
         d="M 0,0 0.01,0.01" />
      <path
         id="path498"
         transform="translate(20.3301,16.4126)"
         d="M 0,0 0.01,0.01" />
      <path
         id="path500"
         transform="translate(18.5342,16.4126)"
         d="M 0,0 0.01,0.01" />
      <path
         id="path502"
         transform="translate(23.9258,16.4126)"
         d="M 0,0 0.01,0.01" />
      <path
         id="path504"
         transform="translate(22.1308,16.4126)"
         d="M 0,0 0.01,0.01" />
      <path
         id="path506"
         transform="translate(25.7217,16.4126)"
         d="M 0,0 0.01,0.01" />
      <path
         id="path508"
         transform="translate(34.6943,16.4126)"
         d="M 0,0 0.01,0.01" />
      <path
         id="path510"
         transform="translate(38.29,16.4126)"
         d="M 0,0 0.01,0.01" />
      <path
         id="path512"
         transform="translate(36.4941,16.4126)"
         d="M 0,0 0.01,0.01" />
      <path
         id="path514"
         transform="translate(41.8808,16.4126)"
         d="M 0,0 0.01,0.01" />
      <path
         id="path516"
         transform="translate(40.0859,16.4126)"
         d="M 0,0 0.01,0.01" />
      <path
         id="path518"
         transform="translate(45.4726,16.4126)"
         d="M 0,0 0.01,0.01" />
      <path
         id="path520"
         transform="translate(43.6767,16.4126)"
         d="M 0,0 0.01,0.01" />
      <path
         id="path522"
         transform="translate(2.3691,10.5327)"
         d="M 0,0 0.01,0.01" />
      <path
         id="path524"
         transform="translate(0.5732,10.5327)"
         d="M 0,0 0.01,0.01" />
      <path
         id="path526"
         transform="translate(4.165,10.5327)"
         d="M 0,0 0.01,0.01" />
      <path
         id="path528"
         transform="translate(13.1474,10.5327)"
         d="M 0,0 0.01,0.01" />
      <path
         id="path530"
         transform="translate(16.7383,10.5327)"
         d="M 0,0 0.01,0.01" />
      <path
         id="path532"
         transform="translate(14.9433,10.5327)"
         d="M 0,0 0.01,0.01" />
      <path
         id="path534"
         transform="translate(18.5342,10.5327)"
         d="M 0,0 0.01,0.01" />
      <path
         id="path536"
         transform="translate(31.1025,10.5327)"
         d="M 0,0 0.01,0.01" />
      <path
         id="path538"
         transform="translate(29.3076,10.5327)"
         d="M 0,0 0.01,0.01" />
      <path
         id="path540"
         transform="translate(34.6943,10.5327)"
         d="M 0,0 0.01,0.01" />
      <path
         id="path542"
         transform="translate(32.8984,10.5327)"
         d="M 0,0 0.01,0.01" />
      <path
         id="path544"
         transform="translate(45.4726,10.5327)"
         d="M 0,0 0.01,0.01" />
      <path
         id="path546"
         transform="translate(43.6767,10.5327)"
         d="M 0,0 0.01,0.01" />
      <path
         id="path548"
         transform="translate(2.3691,4.7725)"
         d="M 0,0 0.01,0.01" />
      <path
         id="path550"
         transform="translate(0.5732,4.7725)"
         d="M 0,0 0.01,0.01" />
      <path
         id="path552"
         transform="translate(5.9599,4.7725)"
         d="M 0,0 0.01,0.01" />
      <path
         id="path554"
         transform="translate(4.165,4.7725)"
         d="M 0,0 0.01,0.01" />
      <path
         id="path556"
         transform="translate(16.7383,4.7725)"
         d="M 0,0 0.01,0.01" />
      <path
         id="path558"
         transform="translate(20.3301,4.7725)"
         d="M 0,0 0.01,0.01" />
      <path
         id="path560"
         transform="translate(18.5342,4.7725)"
         d="M 0,0 0.01,0.01" />
      <path
         id="path562"
         transform="translate(23.9258,4.7725)"
         d="M 0,0 0.01,0.01" />
      <path
         id="path564"
         transform="translate(22.1308,4.7725)"
         d="M 0,0 0.01,0.01" />
      <path
         id="path566"
         transform="translate(27.5166,4.7725)"
         d="M 0,0 0.01,0.01" />
      <path
         id="path568"
         transform="translate(25.7217,4.7725)"
         d="M 0,0 0.01,0.01" />
      <path
         id="path570"
         transform="translate(31.1025,4.7725)"
         d="M 0,0 0.01,0.01" />
      <path
         id="path572"
         transform="translate(29.3076,4.7725)"
         d="M 0,0 0.01,0.01" />
      <path
         id="path574"
         transform="translate(41.8808,4.7725)"
         d="M 0,0 0.01,0.01" />
      <path
         id="path576"
         transform="translate(45.4726,4.7725)"
         d="M 0,0 0.01,0.01" />
      <path
         id="path578"
         transform="translate(43.6767,4.7725)"
         d="M 0,0 0.01,0.01" />
    </g>
  </g>
</svg>
