<?xml version="1.0" encoding="UTF-8" standalone="no"?>
<svg
   xmlns:dc="http://purl.org/dc/elements/1.1/"
   xmlns:cc="http://creativecommons.org/ns#"
   xmlns:rdf="http://www.w3.org/1999/02/22-rdf-syntax-ns#"
   xmlns:svg="http://www.w3.org/2000/svg"
   xmlns="http://www.w3.org/2000/svg"
   height="54.125"
   width="54.125"
   id="svg70"
   version="1.1">
  <defs
     id="defs74" />
  <metadata
     id="metadata2">citation: U.S. Geological Survey, 2006, FGDC Digital Cartographic Standard for Geologic Map Symbolization (PostScript Implementation): U.S. Geological Survey Techniques and Methods 11-A2 [pubs.usgs.gov/tm/2006/11A02/]. converted by CEC Geology LLC 2018 from the USGS lithologic gs converted to inkscape by the University of Otago.<rdf:RDF>
  <cc:Work
     rdf:about="">
    <dc:format>image/svg+xml</dc:format>
    <dc:type
       rdf:resource="http://purl.org/dc/dcmitype/StillImage" />
    <dc:title></dc:title>
  </cc:Work>
</rdf:RDF>
</metadata>
  <g
     stroke="#231f20"
     fill="none"
     id="g68"
     width="54.125"
     height="54.125">
    <path
       style="stroke-width:4"
       id="path4"
       transform="translate(0,42.7393)"
       d="M 0,0 H 54.125" />
    <path
       style="stroke-width:4"
       id="path6"
       transform="translate(54.125,0.1416)"
       d="M 0,0 H -54.125" />
    <path
       style="stroke-width:4"
       id="path8"
       transform="translate(0,54.1143)"
       d="M 0,0 H 54.125" />
    <path
       style="stroke-width:4.5"
       id="path10"
       transform="translate(54.125,9.8096)"
       d="M 0,0 H -54.125" />
    <path
       style="stroke-width:2"
       id="path12"
       transform="translate(54.125,17.3145)"
       d="M 0,0 H -54.125" />
    <path
       style="stroke-width:2"
       id="path14"
       transform="translate(54.125,24.252)"
       d="M 0,0 H -54.125" />
    <path
       style="stroke-width:0.80000001"
       id="path16"
       transform="translate(54.125,29.252)"
       d="M 0,0 H -54.125" />
    <path
       style="stroke-width:0.69999999"
       id="path18"
       transform="translate(54.125,33.752)"
       d="M 0,0 H -54.125" />
    <path
       style="stroke-width:0.69999999"
       id="path20"
       transform="translate(0,49.3604)"
       d="M 0,0 H 54.125" />
    <path
       style="stroke-width:0.69999999"
       id="path22"
       transform="translate(54.125,36.752)"
       d="M 0,0 H -54.125" />
    <path
       style="stroke-width:0.69999999"
       id="path24"
       transform="translate(54.125,20.502)"
       d="M 0,0 H -54.125" />
    <path
       style="stroke-width:0.40000001"
       id="path26"
       transform="translate(54.125,5.127)"
       d="M 0,0 H -54.125" />
    <path
       style="stroke-width:0.40000001"
       id="path28"
       transform="translate(54.125,14.877)"
       d="M 0,0 H -54.125" />
    <path
       style="stroke-width:0.40000001"
       id="path30"
       transform="translate(0,13.877)"
       d="M 0,0 H 54.125" />
    <path
       style="stroke-width:0.40000001"
       id="path32"
       transform="translate(54.125,21.752)"
       d="M 0,0 H -54.125" />
    <path
       style="stroke-width:0.40000001"
       id="path34"
       transform="translate(54.125,26.877)"
       d="M 0,0 H -54.125" />
    <path
       style="stroke-width:0.40000001"
       id="path36"
       transform="translate(54.125,34.627)"
       d="M 0,0 H -54.125" />
    <g
       style="stroke-width:0.30000001"
       id="g60">
      <path
         id="path38"
         transform="translate(0,38.877)"
         d="M 0,0 H 54.125" />
      <path
         id="path40"
         transform="translate(0,37.877)"
         d="M 0,0 H 54.125" />
      <path
         id="path42"
         transform="translate(0,51.1895)"
         d="M 0,0 H 54.125" />
      <path
         id="path44"
         transform="translate(54.125,31.502)"
         d="M 0,0 H -54.125" />
      <path
         id="path46"
         transform="translate(54.125,30.377)"
         d="M 0,0 H -54.125" />
      <path
         id="path48"
         transform="translate(54.125,4.1895)"
         d="M 0,0 H -54.125" />
      <path
         id="path50"
         transform="translate(54.125,28.127)"
         d="M 0,0 H -54.125" />
      <path
         id="path52"
         transform="translate(54.125,19.252)"
         d="M 0,0 H -54.125" />
      <path
         id="path54"
         transform="translate(54.125,12.877)"
         d="M 0,0 H -54.125" />
      <path
         id="path56"
         transform="translate(54.125,6.752)"
         d="M 0,0 H -54.125" />
      <path
         id="path58"
         transform="translate(54.125,22.502)"
         d="M 0,0 H -54.125" />
    </g>
    <path
       style="stroke-width:0.69999999"
       id="path62"
       transform="translate(0,45.8379)"
       d="M 0,0 H 54.125" />
    <path
       style="stroke-width:0.40000001"
       id="path64"
       transform="translate(0,47.0879)"
       d="M 0,0 H 54.125" />
    <path
       style="stroke-width:0.30000001"
       id="path66"
       transform="translate(0,48.2354)"
       d="M 0,0 H 54.125" />
  </g>
</svg>
