<?xml version="1.0" encoding="UTF-8" standalone="no"?>
<svg
   xmlns:dc="http://purl.org/dc/elements/1.1/"
   xmlns:cc="http://creativecommons.org/ns#"
   xmlns:rdf="http://www.w3.org/1999/02/22-rdf-syntax-ns#"
   xmlns:svg="http://www.w3.org/2000/svg"
   xmlns="http://www.w3.org/2000/svg"
   height="54.125"
   width="54.2417"
   id="svg386"
   version="1.1">
  <defs
     id="defs390" />
  <metadata
     id="metadata2">citation: U.S. Geological Survey, 2006, FGDC Digital Cartographic Standard for Geologic Map Symbolization (PostScript Implementation): U.S. Geological Survey Techniques and Methods 11-A2 [pubs.usgs.gov/tm/2006/11A02/]. converted by CEC Geology LLC 2018 from the USGS lithologic gs converted to inkscape by the University of Otago.<rdf:RDF>
  <cc:Work
     rdf:about="">
    <dc:format>image/svg+xml</dc:format>
    <dc:type
       rdf:resource="http://purl.org/dc/dcmitype/StillImage" />
    <dc:title></dc:title>
  </cc:Work>
</rdf:RDF>
</metadata>
  <g

     stroke="#231f20"
     fill="none"

     id="g384"
     width="54.2417"
     height="54.125">
    <path
       style="stroke-width:0.7;stroke-linecap:round"
       id="path4"
       transform="translate(25.3958,52.4375)"
       d="M 0,0 0.01,0.01" />
    <path
       style="stroke-width:0.7;stroke-linecap:round"
       id="path6"
       transform="translate(22.2791,52.4375)"
       d="M 0,0 0.01,0.01" />
    <path
       style="stroke-width:0.7;stroke-linecap:round"
       id="path8"
       transform="translate(28.1458,52.4375)"
       d="M 0,0 0.01,0.01" />
    <path
       style="stroke-width:0.7;stroke-linecap:round"
       id="path10"
       transform="translate(1.9458,52.4375)"
       d="M 0,0 0.01,0.01" />
    <path
       style="stroke-width:0.7;stroke-linecap:round"
       id="path12"
       transform="translate(53.4458,52.4375)"
       d="M 0,0 0.01,0.01" />
    <path
       style="stroke-width:0.7;stroke-linecap:round"
       id="path14"
       transform="translate(51.1125,52.4375)"
       d="M 0,0 0.01,0.01" />
    <path
       style="stroke-width:0.7;stroke-linecap:round"
       id="path16"
       transform="translate(34.4458,48.1708)"
       d="M 0,0 0.01,0.01" />
    <path
       style="stroke-width:0.7;stroke-linecap:round"
       id="path18"
       transform="translate(6.1125,48.1708)"
       d="M 0,0 0.01,0.01" />
    <path
       style="stroke-width:0.7;stroke-linecap:round"
       id="path20"
       transform="translate(9.0458,48.1708)"
       d="M 0,0 0.01,0.01" />
    <path
       style="stroke-width:0.7;stroke-linecap:round"
       id="path22"
       transform="translate(13.7791,44.1542)"
       d="M 0,0 0.01,0.01" />
    <path
       style="stroke-width:0.7;stroke-linecap:round"
       id="path24"
       transform="translate(16.7791,44.1542)"
       d="M 0,0 0.01,0.01" />
    <path
       style="stroke-width:0.7;stroke-linecap:round"
       id="path26"
       transform="translate(10.6125,44.1542)"
       d="M 0,0 0.01,0.01" />
    <path
       style="stroke-width:0.7;stroke-linecap:round"
       id="path28"
       transform="translate(34.6125,33.0542)"
       d="M 0,0 0.01,0.01" />
    <path
       style="stroke-width:0.7;stroke-linecap:round"
       id="path30"
       transform="translate(37.6125,33.0542)"
       d="M 0,0 0.01,0.01" />
    <path
       style="stroke-width:0.7;stroke-linecap:round"
       id="path32"
       transform="translate(31.4458,33.0542)"
       d="M 0,0 0.01,0.01" />
    <path
       style="stroke-width:0.7;stroke-linecap:round"
       id="path34"
       transform="translate(6.1125,33.0542)"
       d="M 0,0 0.01,0.01" />
    <path
       style="stroke-width:0.7;stroke-linecap:round"
       id="path36"
       transform="translate(9.1125,33.0542)"
       d="M 0,0 0.01,0.01" />
    <path
       style="stroke-width:0.7;stroke-linecap:round"
       id="path38"
       transform="translate(2.9458,33.0542)"
       d="M 0,0 0.01,0.01" />
    <path
       style="stroke-width:0.7;stroke-linecap:round"
       id="path40"
       transform="translate(13.6125,29.2542)"
       d="M 0,0 0.01,0.01" />
    <path
       style="stroke-width:0.7;stroke-linecap:round"
       id="path42"
       transform="translate(16.6125,29.2542)"
       d="M 0,0 0.01,0.01" />
    <path
       style="stroke-width:0.7;stroke-linecap:round"
       id="path44"
       transform="translate(10.4458,29.2542)"
       d="M 0,0 0.01,0.01" />
    <path
       style="stroke-width:0.7;stroke-linecap:round"
       id="path46"
       transform="translate(41.4458,29.2542)"
       d="M 0,0 0.01,0.01" />
    <path
       style="stroke-width:0.7;stroke-linecap:round"
       id="path48"
       transform="translate(44.4458,29.2542)"
       d="M 0,0 0.01,0.01" />
    <path
       style="stroke-width:0.7;stroke-linecap:round"
       id="path50"
       transform="translate(38.2791,29.2542)"
       d="M 0,0 0.01,0.01" />
    <path
       style="stroke-width:0.7;stroke-linecap:round"
       id="path52"
       transform="translate(33.6125,25.2542)"
       d="M 0,0 0.01,0.01" />
    <path
       style="stroke-width:0.7;stroke-linecap:round"
       id="path54"
       transform="translate(36.6125,25.2542)"
       d="M 0,0 0.01,0.01" />
    <path
       style="stroke-width:0.7;stroke-linecap:round"
       id="path56"
       transform="translate(30.4458,25.2542)"
       d="M 0,0 0.01,0.01" />
    <path
       style="stroke-width:0.7;stroke-linecap:round"
       id="path58"
       transform="translate(5.4458,25.2542)"
       d="M 0,0 0.01,0.01" />
    <path
       style="stroke-width:0.7;stroke-linecap:round"
       id="path60"
       transform="translate(8.4458,25.2542)"
       d="M 0,0 0.01,0.01" />
    <path
       style="stroke-width:0.7;stroke-linecap:round"
       id="path62"
       transform="translate(2.2791,25.2542)"
       d="M 0,0 0.01,0.01" />
    <path
       style="stroke-width:0.7;stroke-linecap:round"
       id="path64"
       transform="translate(25.6125,21.2542)"
       d="M 0,0 0.01,0.01" />
    <path
       style="stroke-width:0.7;stroke-linecap:round"
       id="path66"
       transform="translate(28.6125,21.2542)"
       d="M 0,0 0.01,0.01" />
    <path
       style="stroke-width:0.7;stroke-linecap:round"
       id="path68"
       transform="translate(22.4458,21.2542)"
       d="M 0,0 0.01,0.01" />
    <path
       style="stroke-width:0.7;stroke-linecap:round"
       id="path70"
       transform="translate(20.9458,17.5875)"
       d="M 0,0 0.01,0.01" />
    <path
       style="stroke-width:0.7;stroke-linecap:round"
       id="path72"
       transform="translate(23.9458,17.5875)"
       d="M 0,0 0.01,0.01" />
    <path
       style="stroke-width:0.7;stroke-linecap:round"
       id="path74"
       transform="translate(17.7791,17.5875)"
       d="M 0,0 0.01,0.01" />
    <path
       style="stroke-width:0.7;stroke-linecap:round"
       id="path76"
       transform="translate(48.7791,17.5875)"
       d="M 0,0 0.01,0.01" />
    <path
       style="stroke-width:0.7;stroke-linecap:round"
       id="path78"
       transform="translate(51.7791,17.5875)"
       d="M 0,0 0.01,0.01" />
    <path
       style="stroke-width:0.7;stroke-linecap:round"
       id="path80"
       transform="translate(45.6125,17.5875)"
       d="M 0,0 0.01,0.01" />
    <path
       style="stroke-width:0.7;stroke-linecap:round"
       id="path82"
       transform="translate(41.6125,14.0875)"
       d="M 0,0 0.01,0.01" />
    <path
       style="stroke-width:0.7;stroke-linecap:round"
       id="path84"
       transform="translate(44.6125,14.0875)"
       d="M 0,0 0.01,0.01" />
    <path
       style="stroke-width:0.7;stroke-linecap:round"
       id="path86"
       transform="translate(38.4458,14.0875)"
       d="M 0,0 0.01,0.01" />
    <path
       style="stroke-width:0.7;stroke-linecap:round"
       id="path88"
       transform="translate(13.9458,14.0875)"
       d="M 0,0 0.01,0.01" />
    <path
       style="stroke-width:0.7;stroke-linecap:round"
       id="path90"
       transform="translate(16.9458,14.0875)"
       d="M 0,0 0.01,0.01" />
    <path
       style="stroke-width:0.7;stroke-linecap:round"
       id="path92"
       transform="translate(10.7791,14.0875)"
       d="M 0,0 0.01,0.01" />
    <path
       style="stroke-width:0.7;stroke-linecap:round"
       id="path94"
       transform="translate(5.7791,10.4208)"
       d="M 0,0 0.01,0.01" />
    <path
       style="stroke-width:0.7;stroke-linecap:round"
       id="path96"
       transform="translate(8.7791,10.4208)"
       d="M 0,0 0.01,0.01" />
    <path
       style="stroke-width:0.7;stroke-linecap:round"
       id="path98"
       transform="translate(2.6125,10.4208)"
       d="M 0,0 0.01,0.01" />
    <path
       style="stroke-width:0.7;stroke-linecap:round"
       id="path100"
       transform="translate(33.6125,10.4208)"
       d="M 0,0 0.01,0.01" />
    <path
       style="stroke-width:0.7;stroke-linecap:round"
       id="path102"
       transform="translate(36.6125,10.4208)"
       d="M 0,0 0.01,0.01" />
    <path
       style="stroke-width:0.7;stroke-linecap:round"
       id="path104"
       transform="translate(30.4458,10.4208)"
       d="M 0,0 0.01,0.01" />
    <path
       style="stroke-width:0.7;stroke-linecap:round"
       id="path106"
       transform="translate(25.1125,6.3208)"
       d="M 0,0 0.01,0.01" />
    <path
       style="stroke-width:0.7;stroke-linecap:round"
       id="path108"
       transform="translate(28.1125,6.3208)"
       d="M 0,0 0.01,0.01" />
    <path
       style="stroke-width:0.7;stroke-linecap:round"
       id="path110"
       transform="translate(21.9458,6.3208)"
       d="M 0,0 0.01,0.01" />
    <path
       style="stroke-width:0.7;stroke-linecap:round"
       id="path112"
       transform="translate(18.1125,2.5375)"
       d="M 0,0 0.01,0.01" />
    <path
       style="stroke-width:0.7;stroke-linecap:round"
       id="path114"
       transform="translate(21.1125,2.5375)"
       d="M 0,0 0.01,0.01" />
    <path
       style="stroke-width:0.7;stroke-linecap:round"
       id="path116"
       transform="translate(14.9458,2.5375)"
       d="M 0,0 0.01,0.01" />
    <path
       style="stroke-width:0.7;stroke-linecap:round"
       id="path118"
       transform="translate(45.1458,2.4875)"
       d="M 0,0 0.01,0.01" />
    <path
       style="stroke-width:0.7;stroke-linecap:round"
       id="path120"
       transform="translate(48.1458,2.4875)"
       d="M 0,0 0.01,0.01" />
    <path
       style="stroke-width:0.7;stroke-linecap:round"
       id="path122"
       transform="translate(41.9791,2.4875)"
       d="M 0,0 0.01,0.01" />
    <path
       style="stroke-width:0.7;stroke-linecap:round"
       id="path124"
       transform="translate(53.1125,6.3208)"
       d="M 0,0 0.01,0.01" />
    <path
       style="stroke-width:0.7;stroke-linecap:round"
       id="path126"
       transform="translate(1.7791,6.3208)"
       d="M 0,0 0.01,0.01" />
    <path
       style="stroke-width:0.7;stroke-linecap:round"
       id="path128"
       transform="translate(49.9458,6.3208)"
       d="M 0,0 0.01,0.01" />
    <path
       style="stroke-width:0.7;stroke-linecap:round"
       id="path130"
       transform="translate(53.1125,21.2542)"
       d="M 0,0 0.01,0.01" />
    <path
       style="stroke-width:0.7;stroke-linecap:round"
       id="path132"
       transform="translate(49.9458,21.2542)"
       d="M 0,0 0.01,0.01" />
    <path
       style="stroke-width:0.7;stroke-linecap:round"
       id="path134"
       transform="translate(2.4458,21.2542)"
       d="M 0,0 0.01,0.01" />
    <path
       style="stroke-width:0.7;stroke-linecap:round"
       id="path136"
       transform="translate(41.4458,44.1542)"
       d="M 0,0 0.01,0.01" />
    <path
       style="stroke-width:0.7;stroke-linecap:round"
       id="path138"
       transform="translate(44.6125,44.1542)"
       d="M 0,0 0.01,0.01" />
    <path
       style="stroke-width:0.7;stroke-linecap:round"
       id="path140"
       transform="translate(37.7791,44.1542)"
       d="M 0,0 0.01,0.01" />
    <path
       style="stroke-width:0.7;stroke-linecap:round"
       id="path142"
       transform="translate(46.9458,40.0042)"
       d="M 0,0 0.01,0.01" />
    <path
       style="stroke-width:0.7;stroke-linecap:round"
       id="path144"
       transform="translate(49.7791,40.0042)"
       d="M 0,0 0.01,0.01" />
    <path
       style="stroke-width:0.7;stroke-linecap:round"
       id="path146"
       transform="translate(43.6125,40.0042)"
       d="M 0,0 0.01,0.01" />
    <path
       style="stroke-width:0.7;stroke-linecap:round"
       id="path148"
       transform="translate(19.9458,40.0042)"
       d="M 0,0 0.01,0.01" />
    <path
       style="stroke-width:0.7;stroke-linecap:round"
       id="path150"
       transform="translate(22.7791,40.0042)"
       d="M 0,0 0.01,0.01" />
    <path
       style="stroke-width:0.7;stroke-linecap:round"
       id="path152"
       transform="translate(16.6125,40.0042)"
       d="M 0,0 0.01,0.01" />
    <path
       style="stroke-width:0.7;stroke-linecap:round"
       id="path154"
       transform="translate(25.4458,36.2542)"
       d="M 0,0 0.01,0.01" />
    <path
       style="stroke-width:0.7;stroke-linecap:round"
       id="path156"
       transform="translate(28.2791,36.2542)"
       d="M 0,0 0.01,0.01" />
    <path
       style="stroke-width:0.7;stroke-linecap:round"
       id="path158"
       transform="translate(22.1125,36.2542)"
       d="M 0,0 0.01,0.01" />
    <path
       style="stroke-width:0.7;stroke-linecap:round"
       id="path160"
       transform="translate(53.2791,36.2542)"
       d="M 0,0 0.01,0.01" />
    <path
       style="stroke-width:0.7;stroke-linecap:round"
       id="path162"
       transform="translate(2.0125,36.2542)"
       d="M 0,0 0.01,0.01" />
    <path
       style="stroke-width:0.7;stroke-linecap:round"
       id="path164"
       transform="translate(49.9458,36.2542)"
       d="M 0,0 0.01,0.01" />
    <path
       style="stroke-width:0.7;stroke-linecap:round"
       id="path166"
       transform="translate(2.9458,48.1708)"
       d="M 0,0 0.01,0.01" />
    <path
       style="stroke-width:0.7;stroke-linecap:round"
       id="path168"
       transform="translate(37.2791,48.1708)"
       d="M 0,0 0.01,0.01" />
    <path
       style="stroke-width:0.7;stroke-linecap:round"
       id="path170"
       transform="translate(31.2791,48.1708)"
       d="M 0,0 0.01,0.01" />
    <g
       style="stroke-width:0.30000001"
       id="g382">
      <path
         id="path172"
         transform="translate(0.0542,50.375)"
         d="M 0,0 H 54.125" />
      <path
         id="path174"
         transform="translate(0.0542,46.2)"
         d="M 0,0 H 54.125" />
      <path
         id="path176"
         transform="translate(0.0542,42.0125)"
         d="M 0,0 H 54.125" />
      <path
         id="path178"
         transform="translate(0.0542,12.3997)"
         d="M 0,0 H 54.188" />
      <path
         id="path180"
         transform="translate(0.0542,8.6246)"
         d="M 0,0 H 54.125" />
      <path
         id="path182"
         transform="translate(0.0542,37.9937)"
         d="M 0,0 H 54.125" />
      <path
         id="path184"
         transform="translate(0.0542,34.7123)"
         d="M 0,0 H 54.125" />
      <path
         id="path186"
         transform="translate(0.0542,31.2873)"
         d="M 0,0 H 54.125" />
      <path
         id="path188"
         transform="translate(0.0542,27.2373)"
         d="M 0,0 H 54.125" />
      <path
         id="path190"
         transform="translate(0.0542,23.4373)"
         d="M 0,0 H 54.125" />
      <path
         id="path192"
         transform="translate(0.0542,19.2373)"
         d="M 0,0 H 54.188" />
      <path
         id="path194"
         transform="translate(0.0542,16.0123)"
         d="M 0,0 H 54.125" />
      <path
         id="path196"
         transform="translate(0.0542,0.8374)"
         d="M 0,0 H 54.125" />
      <path
         id="path198"
         transform="translate(5.9792,54.125)"
         d="M 0,0 V -3.75" />
      <path
         id="path200"
         transform="translate(18.7292,54.125)"
         d="M 0,0 V -3.75" />
      <path
         id="path202"
         transform="translate(32.2292,54.125)"
         d="M 0,0 V -3.75" />
      <path
         id="path204"
         transform="translate(46.6042,54.125)"
         d="M 0,0 V -3.75" />
      <path
         id="path206"
         transform="translate(5.9792,0.8499)"
         d="M 0,0 V -0.85" />
      <path
         id="path208"
         transform="translate(18.7292,0.8499)"
         d="M 0,0 V -0.85" />
      <path
         id="path210"
         transform="translate(32.2292,0.8499)"
         d="M 0,0 V -0.85" />
      <path
         id="path212"
         transform="translate(46.6042,0.8499)"
         d="M 0,0 V -0.85" />
      <path
         id="path214"
         transform="translate(12.6542,50.4375)"
         d="M 0,0 V -4.225" />
      <path
         id="path216"
         transform="translate(27.5292,50.4375)"
         d="M 0,0 V -4.225" />
      <path
         id="path218"
         transform="translate(41.1542,50.4375)"
         d="M 0,0 V -4.225" />
      <path
         id="path220"
         transform="translate(53.9792,50.4375)"
         d="M 0,0 V -4.225" />
      <path
         id="path222"
         transform="translate(7.0917,46.075)"
         d="M 0,0 V -4.05" />
      <path
         id="path224"
         transform="translate(20.3417,46.075)"
         d="M 0,0 V -4.05" />
      <path
         id="path226"
         transform="translate(33.9042,46.075)"
         d="M 0,0 V -4.05" />
      <path
         id="path228"
         transform="translate(48.8417,46.075)"
         d="M 0,0 V -4.05" />
      <path
         id="path230"
         transform="translate(40.2167,42.0249)"
         d="M 0,0 V -4" />
      <path
         id="path232"
         transform="translate(26.8417,42.0249)"
         d="M 0,0 V -4" />
      <path
         id="path234"
         transform="translate(11.9667,42.0249)"
         d="M 0,0 V -4" />
      <path
         id="path236"
         transform="translate(53.4667,42.0249)"
         d="M 0,0 V -4" />
      <path
         id="path238"
         transform="translate(46.6042,38.025)"
         d="M 0,0 V -3.3" />
      <path
         id="path240"
         transform="translate(31.9792,38.025)"
         d="M 0,0 V -3.3" />
      <path
         id="path242"
         transform="translate(18.7292,38.025)"
         d="M 0,0 V -3.3" />
      <path
         id="path244"
         transform="translate(5.9792,38.025)"
         d="M 0,0 V -3.3" />
      <path
         id="path246"
         transform="translate(12.5292,34.7248)"
         d="M 0,0 V -3.425" />
      <path
         id="path248"
         transform="translate(27.5292,34.7248)"
         d="M 0,0 V -3.425" />
      <path
         id="path250"
         transform="translate(41.2792,34.7248)"
         d="M 0,0 V -3.425" />
      <path
         id="path252"
         transform="translate(54.0292,34.7248)"
         d="M 0,0 V -3.425" />
      <path
         id="path254"
         transform="translate(6.7167,31.2998)"
         d="M 0,0 V -4.05" />
      <path
         id="path256"
         transform="translate(20.2167,31.2998)"
         d="M 0,0 V -4.05" />
      <path
         id="path258"
         transform="translate(33.8417,31.2998)"
         d="M 0,0 V -4.05" />
      <path
         id="path260"
         transform="translate(48.7167,31.2998)"
         d="M 0,0 V -4.05" />
      <path
         id="path262"
         transform="translate(40.0917,27.1873)"
         d="M 0,0 V -3.738" />
      <path
         id="path264"
         transform="translate(26.7668,27.1873)"
         d="M 0,0 V -3.738" />
      <path
         id="path266"
         transform="translate(11.7668,27.1873)"
         d="M 0,0 V -3.738" />
      <path
         id="path268"
         transform="translate(53.3209,27.1873)"
         d="M 0,0 V -3.738" />
      <path
         id="path270"
         transform="translate(5.5793,23.3873)"
         d="M 0,0 V -4.137" />
      <path
         id="path272"
         transform="translate(18.5793,23.3873)"
         d="M 0,0 V -4.137" />
      <path
         id="path274"
         transform="translate(32.2043,23.3873)"
         d="M 0,0 V -4.137" />
      <path
         id="path276"
         transform="translate(46.4543,23.3873)"
         d="M 0,0 V -4.137" />
      <path
         id="path278"
         transform="translate(42.2542,19.1873)"
         d="M 0,0 V -3.163" />
      <path
         id="path280"
         transform="translate(28.1042,19.1873)"
         d="M 0,0 V -3.163" />
      <path
         id="path282"
         transform="translate(12.9792,19.1873)"
         d="M 0,0 V -3.163" />
      <path
         id="path284"
         transform="translate(0.5625,19.1873)"
         d="M 0,0 V -3.163" />
      <path
         id="path286"
         transform="translate(6.9375,15.9623)"
         d="M 0,0 V -3.563" />
      <path
         id="path288"
         transform="translate(20.1875,15.9623)"
         d="M 0,0 V -3.563" />
      <path
         id="path290"
         transform="translate(33.8125,15.9623)"
         d="M 0,0 V -3.563" />
      <path
         id="path292"
         transform="translate(48.6875,15.9623)"
         d="M 0,0 V -3.563" />
      <path
         id="path294"
         transform="translate(40.3376,12.3497)"
         d="M 0,0 V -3.763" />
      <path
         id="path296"
         transform="translate(26.4626,12.3497)"
         d="M 0,0 V -3.763" />
      <path
         id="path298"
         transform="translate(11.9125,12.3497)"
         d="M 0,0 V -3.763" />
      <path
         id="path300"
         transform="translate(53.7875,12.3497)"
         d="M 0,0 V -3.763" />
      <path
         id="path302"
         transform="translate(0.0542,4.2122)"
         d="M 0,0 H 54.125" />
      <path
         id="path304"
         transform="translate(10.35,4.2375)"
         d="M 0,0 V -3.463" />
      <path
         id="path306"
         transform="translate(24.7875,4.2375)"
         d="M 0,0 V -3.463" />
      <path
         id="path308"
         transform="translate(38.4125,4.2375)"
         d="M 0,0 V -3.463" />
      <path
         id="path310"
         transform="translate(51.7875,4.2375)"
         d="M 0,0 V -3.463" />
      <path
         id="path312"
         transform="translate(4.625,8.5873)"
         d="M 0,0 V -4.35" />
      <path
         id="path314"
         transform="translate(17.625,8.5873)"
         d="M 0,0 V -4.35" />
      <path
         id="path316"
         transform="translate(31.625,8.5873)"
         d="M 0,0 V -4.35" />
      <path
         id="path318"
         transform="translate(46.1875,8.5873)"
         d="M 0,0 V -4.35" />
      <path
         id="path320"
         transform="translate(8.8125,52.4667)"
         d="M 0,0 H 7.25" />
      <path
         id="path322"
         transform="translate(35.9375,52.4667)"
         d="M 0,0 H 7.25" />
      <path
         id="path324"
         transform="translate(16.3125,48.2042)"
         d="M 0,0 H 7.25" />
      <path
         id="path326"
         transform="translate(44.0625,48.2042)"
         d="M 0,0 H 7.25" />
      <path
         id="path328"
         transform="translate(23.5625,44.1417)"
         d="M 0,0 H 7.25" />
      <path
         id="path330"
         transform="translate(0,44.1417)"
         d="M 0,0 H 4.488" />
      <path
         id="path332"
         transform="translate(30.2375,39.8917)"
         d="M 0,0 H 7.25" />
      <path
         id="path334"
         transform="translate(1.8625,39.8917)"
         d="M 0,0 H 7.25" />
      <path
         id="path336"
         transform="translate(35.4875,36.3917)"
         d="M 0,0 H 7.25" />
      <path
         id="path338"
         transform="translate(44.2375,33.0167)"
         d="M 0,0 H 7.25" />
      <path
         id="path340"
         transform="translate(51.3625,29.1417)"
         d="M 0,0 H 2.783" />
      <path
         id="path342"
         transform="translate(43.2375,25.3917)"
         d="M 0,0 H 7.25" />
      <path
         id="path344"
         transform="translate(35.8625,21.3917)"
         d="M 0,0 H 7.25" />
      <path
         id="path346"
         transform="translate(31.7375,17.6417)"
         d="M 0,0 H 7.25" />
      <path
         id="path348"
         transform="translate(23.6125,14.1417)"
         d="M 0,0 H 7.25" />
      <path
         id="path350"
         transform="translate(15.4875,10.5167)"
         d="M 0,0 H 7.25" />
      <path
         id="path352"
         transform="translate(7.3625,6.1417)"
         d="M 0,0 H 7.25" />
      <path
         id="path354"
         transform="translate(0.2375,2.4667)"
         d="M 0,0 H 7.25" />
      <path
         id="path356"
         transform="translate(8.6125,36.2792)"
         d="M 0,0 H 7.25" />
      <path
         id="path358"
         transform="translate(15.9875,33.0292)"
         d="M 0,0 H 7.25" />
      <path
         id="path360"
         transform="translate(23.3625,29.2792)"
         d="M 0,0 H 7.25" />
      <path
         id="path362"
         transform="translate(15.8625,25.2792)"
         d="M 0,0 H 7.25" />
      <path
         id="path364"
         transform="translate(8.4875,21.2792)"
         d="M 0,0 H 7.25" />
      <path
         id="path366"
         transform="translate(3.2375,17.5292)"
         d="M 0,0 H 7.25" />
      <path
         id="path368"
         transform="translate(0,14.0292)"
         d="M 0,0 H 3.863" />
      <path
         id="path370"
         transform="translate(43.7375,10.4042)"
         d="M 0,0 H 7.25" />
      <path
         id="path372"
         transform="translate(35.3625,6.2792)"
         d="M 0,0 H 7.25" />
      <path
         id="path374"
         transform="translate(27.9875,2.5292)"
         d="M 0,0 H 7.25" />
      <path
         id="path376"
         transform="translate(51.3125,44.1417)"
         d="M 0,0 H 2.813" />
      <path
         id="path378"
         transform="translate(51.3125,14.0292)"
         d="M 0,0 H 2.813" />
      <path
         id="path380"
         transform="translate(0.0625,29.1417)"
         d="M 0,0 H 2.625" />
    </g>
  </g>
</svg>
