<?xml version="1.0" encoding="UTF-8" standalone="no"?>
<svg
   xmlns:dc="http://purl.org/dc/elements/1.1/"
   xmlns:cc="http://creativecommons.org/ns#"
   xmlns:rdf="http://www.w3.org/1999/02/22-rdf-syntax-ns#"
   xmlns:svg="http://www.w3.org/2000/svg"
   xmlns="http://www.w3.org/2000/svg"
   height="46.75"
   width="46.75"
   id="svg512"
   version="1.1">
  <defs
     id="defs516" />
  <metadata
     id="metadata2">citation: U.S. Geological Survey, 2006, FGDC Digital Cartographic Standard for Geologic Map Symbolization (PostScript Implementation): U.S. Geological Survey Techniques and Methods 11-A2 [pubs.usgs.gov/tm/2006/11A02/]. converted by CEC Geology LLC 2018 from the USGS lithologic gs converted to inkscape by the University of Otago.<rdf:RDF>
  <cc:Work
     rdf:about="">
    <dc:format>image/svg+xml</dc:format>
    <dc:type
       rdf:resource="http://purl.org/dc/dcmitype/StillImage" />
    <dc:title></dc:title>
  </cc:Work>
</rdf:RDF>
</metadata>
  <g
     stroke-width=".3"
     stroke="#231f20"
     fill="none"
     id="g510"
     width="46.75"
     height="46.75">
    <path
       style="stroke-width:0.30000001"
       id="path4"
       transform="translate(7.6797,45.438)"
       d="M 0,0 H -6.621" />
    <path
       style="stroke-width:0.30000001"
       id="path6"
       transform="translate(10.333,45.438)"
       d="M 0,0 H 6.621" />
    <path
       style="stroke-width:0.30000001"
       id="path8"
       transform="translate(19.8447,45.438)"
       d="M 0,0 H 6.621" />
    <path
       style="stroke-width:0.30000001"
       id="path10"
       transform="translate(29.2568,45.438)"
       d="M 0,0 H 6.621" />
    <path
       style="stroke-width:0.30000001"
       id="path12"
       transform="translate(38.5938,45.438)"
       d="M 0,0 H 6.621" />
    <path
       style="stroke-width:0.30000001"
       id="path14"
       transform="translate(0,39.646)"
       d="M 0,0 H 3.117" />
    <path
       style="stroke-width:0.30000001"
       id="path16"
       transform="translate(12.3916,39.646)"
       d="M 0,0 H -6.621" />
    <path
       style="stroke-width:0.30000001"
       id="path18"
       transform="translate(21.9033,39.646)"
       d="M 0,0 H -6.621" />
    <path
       style="stroke-width:0.30000001"
       id="path20"
       transform="translate(31.3154,39.646)"
       d="M 0,0 H -6.621" />
    <path
       style="stroke-width:0.30000001"
       id="path22"
       transform="translate(40.6523,39.646)"
       d="M 0,0 H -6.621" />
    <path
       style="stroke-width:0.30000001"
       id="path24"
       transform="translate(46.75,39.646)"
       d="M 0,0 H -3.605" />
    <path
       style="stroke-width:0.30000001"
       id="path26"
       transform="translate(7.6797,33.813)"
       d="M 0,0 H -6.621" />
    <path
       style="stroke-width:0.30000001"
       id="path28"
       transform="translate(16.9541,33.813)"
       d="M 0,0 H -6.621" />
    <path
       style="stroke-width:0.30000001"
       id="path30"
       transform="translate(19.8447,33.813)"
       d="M 0,0 H 6.621" />
    <path
       style="stroke-width:0.30000001"
       id="path32"
       transform="translate(29.2568,33.813)"
       d="M 0,0 H 6.621" />
    <path
       style="stroke-width:0.30000001"
       id="path34"
       transform="translate(38.5938,33.813)"
       d="M 0,0 H 6.621" />
    <path
       style="stroke-width:0.30000001"
       id="path36"
       transform="translate(3.1172,28.021)"
       d="M 0,0 H -3.117" />
    <path
       style="stroke-width:0.30000001"
       id="path38"
       transform="translate(12.3916,28.021)"
       d="M 0,0 H -6.621" />
    <path
       style="stroke-width:0.30000001"
       id="path40"
       transform="translate(21.9033,28.021)"
       d="M 0,0 H -6.621" />
    <path
       style="stroke-width:0.30000001"
       id="path42"
       transform="translate(31.3154,28.021)"
       d="M 0,0 H -6.621" />
    <path
       style="stroke-width:0.30000001"
       id="path44"
       transform="translate(40.6523,28.021)"
       d="M 0,0 H -6.621" />
    <path
       style="stroke-width:0.30000001"
       id="path46"
       transform="translate(43.1445,28.021)"
       d="M 0,0 H 3.605" />
    <path
       style="stroke-width:0.30000001"
       id="path48"
       transform="translate(1.0586,22.1821)"
       d="M 0,0 H 6.621" />
    <path
       style="stroke-width:0.30000001"
       id="path50"
       transform="translate(16.9541,22.1821)"
       d="M 0,0 H -6.621" />
    <path
       style="stroke-width:0.30000001"
       id="path52"
       transform="translate(26.4658,22.1821)"
       d="M 0,0 H -6.621" />
    <path
       style="stroke-width:0.30000001"
       id="path54"
       transform="translate(29.2568,22.1821)"
       d="M 0,0 H 6.621" />
    <path
       style="stroke-width:0.30000001"
       id="path56"
       transform="translate(38.5938,22.1821)"
       d="M 0,0 H 6.621" />
    <path
       style="stroke-width:0.30000001"
       id="path58"
       transform="translate(3.1172,16.3906)"
       d="M 0,0 H -3.117" />
    <path
       style="stroke-width:0.30000001"
       id="path60"
       transform="translate(12.3916,16.3906)"
       d="M 0,0 H -6.621" />
    <path
       style="stroke-width:0.30000001"
       id="path62"
       transform="translate(15.2822,16.3906)"
       d="M 0,0 H 6.621" />
    <path
       style="stroke-width:0.30000001"
       id="path64"
       transform="translate(31.3154,16.3906)"
       d="M 0,0 H -6.621" />
    <path
       style="stroke-width:0.30000001"
       id="path66"
       transform="translate(34.0313,16.3906)"
       d="M 0,0 H 6.621" />
    <path
       style="stroke-width:0.30000001"
       id="path68"
       transform="translate(43.1445,16.3906)"
       d="M 0,0 H 3.605" />
    <path
       style="stroke-width:0.30000001"
       id="path70"
       transform="translate(7.6797,10.5781)"
       d="M 0,0 H -6.621" />
    <path
       style="stroke-width:0.30000001"
       id="path72"
       transform="translate(16.9541,10.5781)"
       d="M 0,0 H -6.621" />
    <path
       style="stroke-width:0.30000001"
       id="path74"
       transform="translate(19.8447,10.5781)"
       d="M 0,0 H 6.621" />
    <path
       style="stroke-width:0.30000001"
       id="path76"
       transform="translate(29.2568,10.5781)"
       d="M 0,0 H 6.621" />
    <path
       style="stroke-width:0.30000001"
       id="path78"
       transform="translate(38.5938,10.5781)"
       d="M 0,0 H 6.621" />
    <path
       style="stroke-width:0.30000001"
       id="path80"
       transform="translate(3.1172,4.7861)"
       d="M 0,0 H -3.117" />
    <path
       style="stroke-width:0.30000001"
       id="path82"
       transform="translate(5.7705,4.7861)"
       d="M 0,0 H 6.621" />
    <path
       style="stroke-width:0.30000001"
       id="path84"
       transform="translate(21.9033,4.7861)"
       d="M 0,0 H -6.621" />
    <path
       style="stroke-width:0.30000001"
       id="path86"
       transform="translate(31.3154,4.7861)"
       d="M 0,0 H -6.621" />
    <path
       style="stroke-width:0.30000001"
       id="path88"
       transform="translate(40.6523,4.7861)"
       d="M 0,0 H -6.621" />
    <path
       style="stroke-width:0.30000001"
       id="path90"
       transform="translate(43.1445,4.7861)"
       d="M 0,0 H 3.605" />
    <g
       style="stroke-width:0.69999999;stroke-linecap:round"
       id="g508">
      <path
         id="path92"
         transform="translate(1.1211,42.4985)"
         d="M 0,0 0.01,0.01" />
      <path
         id="path94"
         transform="translate(4.7129,42.4985)"
         d="M 0,0 0.01,0.01" />
      <path
         id="path96"
         transform="translate(2.917,42.4985)"
         d="M 0,0 0.01,0.01" />
      <path
         id="path98"
         transform="translate(8.3086,42.4985)"
         d="M 0,0 0.01,0.01" />
      <path
         id="path100"
         transform="translate(6.5137,42.4985)"
         d="M 0,0 0.01,0.01" />
      <path
         id="path102"
         transform="translate(11.8994,42.4985)"
         d="M 0,0 0.01,0.01" />
      <path
         id="path104"
         transform="translate(10.1045,42.4985)"
         d="M 0,0 0.01,0.01" />
      <path
         id="path106"
         transform="translate(15.4912,42.4985)"
         d="M 0,0 0.01,0.01" />
      <path
         id="path108"
         transform="translate(13.6953,42.4985)"
         d="M 0,0 0.01,0.01" />
      <path
         id="path110"
         transform="translate(19.082,42.4985)"
         d="M 0,0 0.01,0.01" />
      <path
         id="path112"
         transform="translate(17.2861,42.4985)"
         d="M 0,0 0.01,0.01" />
      <path
         id="path114"
         transform="translate(22.6777,42.4985)"
         d="M 0,0 0.01,0.01" />
      <path
         id="path116"
         transform="translate(20.8828,42.4985)"
         d="M 0,0 0.01,0.01" />
      <path
         id="path118"
         transform="translate(26.2695,42.4985)"
         d="M 0,0 0.01,0.01" />
      <path
         id="path120"
         transform="translate(24.4736,42.4985)"
         d="M 0,0 0.01,0.01" />
      <path
         id="path122"
         transform="translate(29.8555,42.4985)"
         d="M 0,0 0.01,0.01" />
      <path
         id="path124"
         transform="translate(28.0596,42.4985)"
         d="M 0,0 0.01,0.01" />
      <path
         id="path126"
         transform="translate(33.4463,42.4985)"
         d="M 0,0 0.01,0.01" />
      <path
         id="path128"
         transform="translate(31.6504,42.4985)"
         d="M 0,0 0.01,0.01" />
      <path
         id="path130"
         transform="translate(37.042,42.4985)"
         d="M 0,0 0.01,0.01" />
      <path
         id="path132"
         transform="translate(35.2471,42.4985)"
         d="M 0,0 0.01,0.01" />
      <path
         id="path134"
         transform="translate(40.6338,42.4985)"
         d="M 0,0 0.01,0.01" />
      <path
         id="path136"
         transform="translate(38.8379,42.4985)"
         d="M 0,0 0.01,0.01" />
      <path
         id="path138"
         transform="translate(44.2246,42.4985)"
         d="M 0,0 0.01,0.01" />
      <path
         id="path140"
         transform="translate(42.4287,42.4985)"
         d="M 0,0 0.01,0.01" />
      <path
         id="path142"
         transform="translate(46.0195,42.4985)"
         d="M 0,0 0.01,0.01" />
      <path
         id="path144"
         transform="translate(1.1211,36.624)"
         d="M 0,0 0.01,0.01" />
      <path
         id="path146"
         transform="translate(4.7129,36.624)"
         d="M 0,0 0.01,0.01" />
      <path
         id="path148"
         transform="translate(2.917,36.624)"
         d="M 0,0 0.01,0.01" />
      <path
         id="path150"
         transform="translate(8.3086,36.624)"
         d="M 0,0 0.01,0.01" />
      <path
         id="path152"
         transform="translate(6.5137,36.624)"
         d="M 0,0 0.01,0.01" />
      <path
         id="path154"
         transform="translate(11.8994,36.624)"
         d="M 0,0 0.01,0.01" />
      <path
         id="path156"
         transform="translate(10.1045,36.624)"
         d="M 0,0 0.01,0.01" />
      <path
         id="path158"
         transform="translate(15.4912,36.624)"
         d="M 0,0 0.01,0.01" />
      <path
         id="path160"
         transform="translate(13.6953,36.624)"
         d="M 0,0 0.01,0.01" />
      <path
         id="path162"
         transform="translate(19.082,36.624)"
         d="M 0,0 0.01,0.01" />
      <path
         id="path164"
         transform="translate(17.2861,36.624)"
         d="M 0,0 0.01,0.01" />
      <path
         id="path166"
         transform="translate(22.6777,36.624)"
         d="M 0,0 0.01,0.01" />
      <path
         id="path168"
         transform="translate(20.8828,36.624)"
         d="M 0,0 0.01,0.01" />
      <path
         id="path170"
         transform="translate(26.2695,36.624)"
         d="M 0,0 0.01,0.01" />
      <path
         id="path172"
         transform="translate(24.4736,36.624)"
         d="M 0,0 0.01,0.01" />
      <path
         id="path174"
         transform="translate(29.8555,36.624)"
         d="M 0,0 0.01,0.01" />
      <path
         id="path176"
         transform="translate(28.0596,36.624)"
         d="M 0,0 0.01,0.01" />
      <path
         id="path178"
         transform="translate(33.4463,36.624)"
         d="M 0,0 0.01,0.01" />
      <path
         id="path180"
         transform="translate(31.6504,36.624)"
         d="M 0,0 0.01,0.01" />
      <path
         id="path182"
         transform="translate(37.042,36.624)"
         d="M 0,0 0.01,0.01" />
      <path
         id="path184"
         transform="translate(35.2471,36.624)"
         d="M 0,0 0.01,0.01" />
      <path
         id="path186"
         transform="translate(40.6338,36.624)"
         d="M 0,0 0.01,0.01" />
      <path
         id="path188"
         transform="translate(38.8379,36.624)"
         d="M 0,0 0.01,0.01" />
      <path
         id="path190"
         transform="translate(44.2246,36.624)"
         d="M 0,0 0.01,0.01" />
      <path
         id="path192"
         transform="translate(42.4287,36.624)"
         d="M 0,0 0.01,0.01" />
      <path
         id="path194"
         transform="translate(46.0195,36.624)"
         d="M 0,0 0.01,0.01" />
      <path
         id="path196"
         transform="translate(1.1211,30.9292)"
         d="M 0,0 0.01,0.01" />
      <path
         id="path198"
         transform="translate(4.7129,30.9292)"
         d="M 0,0 0.01,0.01" />
      <path
         id="path200"
         transform="translate(2.917,30.9292)"
         d="M 0,0 0.01,0.01" />
      <path
         id="path202"
         transform="translate(8.3086,30.9292)"
         d="M 0,0 0.01,0.01" />
      <path
         id="path204"
         transform="translate(6.5137,30.9292)"
         d="M 0,0 0.01,0.01" />
      <path
         id="path206"
         transform="translate(11.8994,30.9292)"
         d="M 0,0 0.01,0.01" />
      <path
         id="path208"
         transform="translate(10.1045,30.9292)"
         d="M 0,0 0.01,0.01" />
      <path
         id="path210"
         transform="translate(15.4912,30.9292)"
         d="M 0,0 0.01,0.01" />
      <path
         id="path212"
         transform="translate(13.6953,30.9292)"
         d="M 0,0 0.01,0.01" />
      <path
         id="path214"
         transform="translate(19.082,30.9292)"
         d="M 0,0 0.01,0.01" />
      <path
         id="path216"
         transform="translate(17.2861,30.9292)"
         d="M 0,0 0.01,0.01" />
      <path
         id="path218"
         transform="translate(22.6777,30.9292)"
         d="M 0,0 0.01,0.01" />
      <path
         id="path220"
         transform="translate(20.8828,30.9292)"
         d="M 0,0 0.01,0.01" />
      <path
         id="path222"
         transform="translate(26.2695,30.9292)"
         d="M 0,0 0.01,0.01" />
      <path
         id="path224"
         transform="translate(24.4736,30.9292)"
         d="M 0,0 0.01,0.01" />
      <path
         id="path226"
         transform="translate(29.8555,30.9292)"
         d="M 0,0 0.01,0.01" />
      <path
         id="path228"
         transform="translate(28.0596,30.9292)"
         d="M 0,0 0.01,0.01" />
      <path
         id="path230"
         transform="translate(33.4463,30.9292)"
         d="M 0,0 0.01,0.01" />
      <path
         id="path232"
         transform="translate(31.6504,30.9292)"
         d="M 0,0 0.01,0.01" />
      <path
         id="path234"
         transform="translate(37.042,30.9292)"
         d="M 0,0 0.01,0.01" />
      <path
         id="path236"
         transform="translate(35.2471,30.9292)"
         d="M 0,0 0.01,0.01" />
      <path
         id="path238"
         transform="translate(40.6338,30.9292)"
         d="M 0,0 0.01,0.01" />
      <path
         id="path240"
         transform="translate(38.8379,30.9292)"
         d="M 0,0 0.01,0.01" />
      <path
         id="path242"
         transform="translate(44.2246,30.9292)"
         d="M 0,0 0.01,0.01" />
      <path
         id="path244"
         transform="translate(42.4287,30.9292)"
         d="M 0,0 0.01,0.01" />
      <path
         id="path246"
         transform="translate(46.0195,30.9292)"
         d="M 0,0 0.01,0.01" />
      <path
         id="path248"
         transform="translate(1.1211,25.0439)"
         d="M 0,0 0.01,0.01" />
      <path
         id="path250"
         transform="translate(4.7129,25.0439)"
         d="M 0,0 0.01,0.01" />
      <path
         id="path252"
         transform="translate(2.917,25.0439)"
         d="M 0,0 0.01,0.01" />
      <path
         id="path254"
         transform="translate(8.3086,25.0439)"
         d="M 0,0 0.01,0.01" />
      <path
         id="path256"
         transform="translate(6.5137,25.0439)"
         d="M 0,0 0.01,0.01" />
      <path
         id="path258"
         transform="translate(11.8994,25.0439)"
         d="M 0,0 0.01,0.01" />
      <path
         id="path260"
         transform="translate(10.1045,25.0439)"
         d="M 0,0 0.01,0.01" />
      <path
         id="path262"
         transform="translate(15.4912,25.0439)"
         d="M 0,0 0.01,0.01" />
      <path
         id="path264"
         transform="translate(13.6953,25.0439)"
         d="M 0,0 0.01,0.01" />
      <path
         id="path266"
         transform="translate(19.082,25.0439)"
         d="M 0,0 0.01,0.01" />
      <path
         id="path268"
         transform="translate(17.2861,25.0439)"
         d="M 0,0 0.01,0.01" />
      <path
         id="path270"
         transform="translate(22.6777,25.0439)"
         d="M 0,0 0.01,0.01" />
      <path
         id="path272"
         transform="translate(20.8828,25.0439)"
         d="M 0,0 0.01,0.01" />
      <path
         id="path274"
         transform="translate(26.2695,25.0439)"
         d="M 0,0 0.01,0.01" />
      <path
         id="path276"
         transform="translate(24.4736,25.0439)"
         d="M 0,0 0.01,0.01" />
      <path
         id="path278"
         transform="translate(29.8555,25.0439)"
         d="M 0,0 0.01,0.01" />
      <path
         id="path280"
         transform="translate(28.0596,25.0439)"
         d="M 0,0 0.01,0.01" />
      <path
         id="path282"
         transform="translate(33.4463,25.0439)"
         d="M 0,0 0.01,0.01" />
      <path
         id="path284"
         transform="translate(31.6504,25.0439)"
         d="M 0,0 0.01,0.01" />
      <path
         id="path286"
         transform="translate(37.042,25.0439)"
         d="M 0,0 0.01,0.01" />
      <path
         id="path288"
         transform="translate(35.2471,25.0439)"
         d="M 0,0 0.01,0.01" />
      <path
         id="path290"
         transform="translate(40.6338,25.0439)"
         d="M 0,0 0.01,0.01" />
      <path
         id="path292"
         transform="translate(38.8379,25.0439)"
         d="M 0,0 0.01,0.01" />
      <path
         id="path294"
         transform="translate(44.2246,25.0439)"
         d="M 0,0 0.01,0.01" />
      <path
         id="path296"
         transform="translate(42.4287,25.0439)"
         d="M 0,0 0.01,0.01" />
      <path
         id="path298"
         transform="translate(46.0195,25.0439)"
         d="M 0,0 0.01,0.01" />
      <path
         id="path300"
         transform="translate(1.1211,19.2236)"
         d="M 0,0 0.01,0.01" />
      <path
         id="path302"
         transform="translate(4.7129,19.2236)"
         d="M 0,0 0.01,0.01" />
      <path
         id="path304"
         transform="translate(2.917,19.2236)"
         d="M 0,0 0.01,0.01" />
      <path
         id="path306"
         transform="translate(8.3086,19.2236)"
         d="M 0,0 0.01,0.01" />
      <path
         id="path308"
         transform="translate(6.5137,19.2236)"
         d="M 0,0 0.01,0.01" />
      <path
         id="path310"
         transform="translate(11.8994,19.2236)"
         d="M 0,0 0.01,0.01" />
      <path
         id="path312"
         transform="translate(10.1045,19.2236)"
         d="M 0,0 0.01,0.01" />
      <path
         id="path314"
         transform="translate(15.4912,19.2236)"
         d="M 0,0 0.01,0.01" />
      <path
         id="path316"
         transform="translate(13.6953,19.2236)"
         d="M 0,0 0.01,0.01" />
      <path
         id="path318"
         transform="translate(19.082,19.2236)"
         d="M 0,0 0.01,0.01" />
      <path
         id="path320"
         transform="translate(17.2861,19.2236)"
         d="M 0,0 0.01,0.01" />
      <path
         id="path322"
         transform="translate(22.6777,19.2236)"
         d="M 0,0 0.01,0.01" />
      <path
         id="path324"
         transform="translate(20.8828,19.2236)"
         d="M 0,0 0.01,0.01" />
      <path
         id="path326"
         transform="translate(26.2695,19.2236)"
         d="M 0,0 0.01,0.01" />
      <path
         id="path328"
         transform="translate(24.4736,19.2236)"
         d="M 0,0 0.01,0.01" />
      <path
         id="path330"
         transform="translate(29.8555,19.2236)"
         d="M 0,0 0.01,0.01" />
      <path
         id="path332"
         transform="translate(28.0596,19.2236)"
         d="M 0,0 0.01,0.01" />
      <path
         id="path334"
         transform="translate(33.4463,19.2236)"
         d="M 0,0 0.01,0.01" />
      <path
         id="path336"
         transform="translate(31.6504,19.2236)"
         d="M 0,0 0.01,0.01" />
      <path
         id="path338"
         transform="translate(37.042,19.2236)"
         d="M 0,0 0.01,0.01" />
      <path
         id="path340"
         transform="translate(35.2471,19.2236)"
         d="M 0,0 0.01,0.01" />
      <path
         id="path342"
         transform="translate(40.6338,19.2236)"
         d="M 0,0 0.01,0.01" />
      <path
         id="path344"
         transform="translate(38.8379,19.2236)"
         d="M 0,0 0.01,0.01" />
      <path
         id="path346"
         transform="translate(44.2246,19.2236)"
         d="M 0,0 0.01,0.01" />
      <path
         id="path348"
         transform="translate(42.4287,19.2236)"
         d="M 0,0 0.01,0.01" />
      <path
         id="path350"
         transform="translate(46.0195,19.2236)"
         d="M 0,0 0.01,0.01" />
      <path
         id="path352"
         transform="translate(1.1211,13.4639)"
         d="M 0,0 0.01,0.01" />
      <path
         id="path354"
         transform="translate(4.7129,13.4639)"
         d="M 0,0 0.01,0.01" />
      <path
         id="path356"
         transform="translate(2.917,13.4639)"
         d="M 0,0 0.01,0.01" />
      <path
         id="path358"
         transform="translate(8.3086,13.4639)"
         d="M 0,0 0.01,0.01" />
      <path
         id="path360"
         transform="translate(6.5137,13.4639)"
         d="M 0,0 0.01,0.01" />
      <path
         id="path362"
         transform="translate(11.8994,13.4639)"
         d="M 0,0 0.01,0.01" />
      <path
         id="path364"
         transform="translate(10.1045,13.4639)"
         d="M 0,0 0.01,0.01" />
      <path
         id="path366"
         transform="translate(15.4912,13.4639)"
         d="M 0,0 0.01,0.01" />
      <path
         id="path368"
         transform="translate(13.6953,13.4639)"
         d="M 0,0 0.01,0.01" />
      <path
         id="path370"
         transform="translate(19.082,13.4639)"
         d="M 0,0 0.01,0.01" />
      <path
         id="path372"
         transform="translate(17.2861,13.4639)"
         d="M 0,0 0.01,0.01" />
      <path
         id="path374"
         transform="translate(22.6777,13.4639)"
         d="M 0,0 0.01,0.01" />
      <path
         id="path376"
         transform="translate(20.8828,13.4639)"
         d="M 0,0 0.01,0.01" />
      <path
         id="path378"
         transform="translate(26.2695,13.4639)"
         d="M 0,0 0.01,0.01" />
      <path
         id="path380"
         transform="translate(24.4736,13.4639)"
         d="M 0,0 0.01,0.01" />
      <path
         id="path382"
         transform="translate(29.8555,13.4639)"
         d="M 0,0 0.01,0.01" />
      <path
         id="path384"
         transform="translate(28.0596,13.4639)"
         d="M 0,0 0.01,0.01" />
      <path
         id="path386"
         transform="translate(33.4463,13.4639)"
         d="M 0,0 0.01,0.01" />
      <path
         id="path388"
         transform="translate(31.6504,13.4639)"
         d="M 0,0 0.01,0.01" />
      <path
         id="path390"
         transform="translate(37.042,13.4639)"
         d="M 0,0 0.01,0.01" />
      <path
         id="path392"
         transform="translate(35.2471,13.4639)"
         d="M 0,0 0.01,0.01" />
      <path
         id="path394"
         transform="translate(40.6338,13.4639)"
         d="M 0,0 0.01,0.01" />
      <path
         id="path396"
         transform="translate(38.8379,13.4639)"
         d="M 0,0 0.01,0.01" />
      <path
         id="path398"
         transform="translate(44.2246,13.4639)"
         d="M 0,0 0.01,0.01" />
      <path
         id="path400"
         transform="translate(42.4287,13.4639)"
         d="M 0,0 0.01,0.01" />
      <path
         id="path402"
         transform="translate(46.0195,13.4639)"
         d="M 0,0 0.01,0.01" />
      <path
         id="path404"
         transform="translate(1.1211,7.5835)"
         d="M 0,0 0.01,0.01" />
      <path
         id="path406"
         transform="translate(4.7129,7.5835)"
         d="M 0,0 0.01,0.01" />
      <path
         id="path408"
         transform="translate(2.917,7.5835)"
         d="M 0,0 0.01,0.01" />
      <path
         id="path410"
         transform="translate(8.3086,7.5835)"
         d="M 0,0 0.01,0.01" />
      <path
         id="path412"
         transform="translate(6.5137,7.5835)"
         d="M 0,0 0.01,0.01" />
      <path
         id="path414"
         transform="translate(11.8994,7.5835)"
         d="M 0,0 0.01,0.01" />
      <path
         id="path416"
         transform="translate(10.1045,7.5835)"
         d="M 0,0 0.01,0.01" />
      <path
         id="path418"
         transform="translate(15.4912,7.5835)"
         d="M 0,0 0.01,0.01" />
      <path
         id="path420"
         transform="translate(13.6953,7.5835)"
         d="M 0,0 0.01,0.01" />
      <path
         id="path422"
         transform="translate(19.082,7.5835)"
         d="M 0,0 0.01,0.01" />
      <path
         id="path424"
         transform="translate(17.2861,7.5835)"
         d="M 0,0 0.01,0.01" />
      <path
         id="path426"
         transform="translate(22.6777,7.5835)"
         d="M 0,0 0.01,0.01" />
      <path
         id="path428"
         transform="translate(20.8828,7.5835)"
         d="M 0,0 0.01,0.01" />
      <path
         id="path430"
         transform="translate(26.2695,7.5835)"
         d="M 0,0 0.01,0.01" />
      <path
         id="path432"
         transform="translate(24.4736,7.5835)"
         d="M 0,0 0.01,0.01" />
      <path
         id="path434"
         transform="translate(29.8555,7.5835)"
         d="M 0,0 0.01,0.01" />
      <path
         id="path436"
         transform="translate(28.0596,7.5835)"
         d="M 0,0 0.01,0.01" />
      <path
         id="path438"
         transform="translate(33.4463,7.5835)"
         d="M 0,0 0.01,0.01" />
      <path
         id="path440"
         transform="translate(31.6504,7.5835)"
         d="M 0,0 0.01,0.01" />
      <path
         id="path442"
         transform="translate(37.042,7.5835)"
         d="M 0,0 0.01,0.01" />
      <path
         id="path444"
         transform="translate(35.2471,7.5835)"
         d="M 0,0 0.01,0.01" />
      <path
         id="path446"
         transform="translate(40.6338,7.5835)"
         d="M 0,0 0.01,0.01" />
      <path
         id="path448"
         transform="translate(38.8379,7.5835)"
         d="M 0,0 0.01,0.01" />
      <path
         id="path450"
         transform="translate(44.2246,7.5835)"
         d="M 0,0 0.01,0.01" />
      <path
         id="path452"
         transform="translate(42.4287,7.5835)"
         d="M 0,0 0.01,0.01" />
      <path
         id="path454"
         transform="translate(46.0195,7.5835)"
         d="M 0,0 0.01,0.01" />
      <path
         id="path456"
         transform="translate(1.1211,1.8237)"
         d="M 0,0 0.01,0.01" />
      <path
         id="path458"
         transform="translate(4.7129,1.8237)"
         d="M 0,0 0.01,0.01" />
      <path
         id="path460"
         transform="translate(2.917,1.8237)"
         d="M 0,0 0.01,0.01" />
      <path
         id="path462"
         transform="translate(8.3086,1.8237)"
         d="M 0,0 0.01,0.01" />
      <path
         id="path464"
         transform="translate(6.5137,1.8237)"
         d="M 0,0 0.01,0.01" />
      <path
         id="path466"
         transform="translate(11.8994,1.8237)"
         d="M 0,0 0.01,0.01" />
      <path
         id="path468"
         transform="translate(10.1045,1.8237)"
         d="M 0,0 0.01,0.01" />
      <path
         id="path470"
         transform="translate(15.4912,1.8237)"
         d="M 0,0 0.01,0.01" />
      <path
         id="path472"
         transform="translate(13.6953,1.8237)"
         d="M 0,0 0.01,0.01" />
      <path
         id="path474"
         transform="translate(19.082,1.8237)"
         d="M 0,0 0.01,0.01" />
      <path
         id="path476"
         transform="translate(17.2861,1.8237)"
         d="M 0,0 0.01,0.01" />
      <path
         id="path478"
         transform="translate(22.6777,1.8237)"
         d="M 0,0 0.01,0.01" />
      <path
         id="path480"
         transform="translate(20.8828,1.8237)"
         d="M 0,0 0.01,0.01" />
      <path
         id="path482"
         transform="translate(26.2695,1.8237)"
         d="M 0,0 0.01,0.01" />
      <path
         id="path484"
         transform="translate(24.4736,1.8237)"
         d="M 0,0 0.01,0.01" />
      <path
         id="path486"
         transform="translate(29.8555,1.8237)"
         d="M 0,0 0.01,0.01" />
      <path
         id="path488"
         transform="translate(28.0596,1.8237)"
         d="M 0,0 0.01,0.01" />
      <path
         id="path490"
         transform="translate(33.4463,1.8237)"
         d="M 0,0 0.01,0.01" />
      <path
         id="path492"
         transform="translate(31.6504,1.8237)"
         d="M 0,0 0.01,0.01" />
      <path
         id="path494"
         transform="translate(37.042,1.8237)"
         d="M 0,0 0.01,0.01" />
      <path
         id="path496"
         transform="translate(35.2471,1.8237)"
         d="M 0,0 0.01,0.01" />
      <path
         id="path498"
         transform="translate(40.6338,1.8237)"
         d="M 0,0 0.01,0.01" />
      <path
         id="path500"
         transform="translate(38.8379,1.8237)"
         d="M 0,0 0.01,0.01" />
      <path
         id="path502"
         transform="translate(44.2246,1.8237)"
         d="M 0,0 0.01,0.01" />
      <path
         id="path504"
         transform="translate(42.4287,1.8237)"
         d="M 0,0 0.01,0.01" />
      <path
         id="path506"
         transform="translate(46.0195,1.8237)"
         d="M 0,0 0.01,0.01" />
    </g>
  </g>
</svg>
