<?xml version="1.0" encoding="UTF-8" standalone="no"?>
<svg
   xmlns:dc="http://purl.org/dc/elements/1.1/"
   xmlns:cc="http://creativecommons.org/ns#"
   xmlns:rdf="http://www.w3.org/1999/02/22-rdf-syntax-ns#"
   xmlns:svg="http://www.w3.org/2000/svg"
   xmlns="http://www.w3.org/2000/svg"
   height="54.125"
   width="54.125"
   id="svg216"
   version="1.1">
  <defs
     id="defs220" />
  <metadata
     id="metadata2">citation: U.S. Geological Survey, 2006, FGDC Digital Cartographic Standard for Geologic Map Symbolization (PostScript Implementation): U.S. Geological Survey Techniques and Methods 11-A2 [pubs.usgs.gov/tm/2006/11A02/]. converted by CEC Geology LLC 2018 from the USGS lithologic gs converted to inkscape by the University of Otago.<rdf:RDF>
  <cc:Work
     rdf:about="">
    <dc:format>image/svg+xml</dc:format>
    <dc:type
       rdf:resource="http://purl.org/dc/dcmitype/StillImage" />
    <dc:title></dc:title>
  </cc:Work>
</rdf:RDF>
</metadata>
  <g
     stroke-width=".3"
     stroke="#231f20"
     fill="none"

     id="g214"
     width="54.2417"
     height="54.125">
    <path
       id="path4"
       transform="translate(0.0542,50.375)"
       d="M 0,0 H 54.125" />
    <path
       id="path6"
       transform="translate(0.0542,46.2)"
       d="M 0,0 H 54.125" />
    <path
       id="path8"
       transform="translate(0.0542,42.0125)"
       d="M 0,0 H 54.125" />
    <path
       id="path10"
       transform="translate(0.0542,12.3997)"
       d="M 0,0 H 54.188" />
    <path
       id="path12"
       transform="translate(0.0542,8.6246)"
       d="M 0,0 H 54.125" />
    <path
       id="path14"
       transform="translate(0.0542,37.9937)"
       d="M 0,0 H 54.125" />
    <path
       id="path16"
       transform="translate(0.0542,34.7123)"
       d="M 0,0 H 54.125" />
    <path
       id="path18"
       transform="translate(0.0542,31.2873)"
       d="M 0,0 H 54.125" />
    <path
       id="path20"
       transform="translate(0.0542,27.2373)"
       d="M 0,0 H 54.125" />
    <path
       id="path22"
       transform="translate(0.0542,23.4373)"
       d="M 0,0 H 54.125" />
    <path
       id="path24"
       transform="translate(0.0542,19.2373)"
       d="M 0,0 H 54.188" />
    <path
       id="path26"
       transform="translate(0.0542,16.0123)"
       d="M 0,0 H 54.125" />
    <path
       id="path28"
       transform="translate(0.0542,0.8374)"
       d="M 0,0 H 54.125" />
    <path
       id="path30"
       transform="translate(5.9792,54.125)"
       d="M 0,0 V -3.75" />
    <path
       id="path32"
       transform="translate(18.7292,54.125)"
       d="M 0,0 V -3.75" />
    <path
       id="path34"
       transform="translate(32.2292,54.125)"
       d="M 0,0 V -3.75" />
    <path
       id="path36"
       transform="translate(46.6042,54.125)"
       d="M 0,0 V -3.75" />
    <path
       id="path38"
       transform="translate(5.9792,0.8499)"
       d="M 0,0 V -0.85" />
    <path
       id="path40"
       transform="translate(18.7292,0.8499)"
       d="M 0,0 V -0.85" />
    <path
       id="path42"
       transform="translate(32.2292,0.8499)"
       d="M 0,0 V -0.85" />
    <path
       id="path44"
       transform="translate(46.6042,0.8499)"
       d="M 0,0 V -0.85" />
    <path
       id="path46"
       transform="translate(12.6542,50.4375)"
       d="M 0,0 V -4.225" />
    <path
       id="path48"
       transform="translate(27.5292,50.4375)"
       d="M 0,0 V -4.225" />
    <path
       id="path50"
       transform="translate(41.1542,50.4375)"
       d="M 0,0 V -4.225" />
    <path
       id="path52"
       transform="translate(53.9792,50.4375)"
       d="M 0,0 V -4.225" />
    <path
       id="path54"
       transform="translate(7.0917,46.075)"
       d="M 0,0 V -4.05" />
    <path
       id="path56"
       transform="translate(20.3417,46.075)"
       d="M 0,0 V -4.05" />
    <path
       id="path58"
       transform="translate(33.9042,46.075)"
       d="M 0,0 V -4.05" />
    <path
       id="path60"
       transform="translate(48.8417,46.075)"
       d="M 0,0 V -4.05" />
    <path
       id="path62"
       transform="translate(40.2167,42.0249)"
       d="M 0,0 V -4" />
    <path
       id="path64"
       transform="translate(26.8417,42.0249)"
       d="M 0,0 V -4" />
    <path
       id="path66"
       transform="translate(11.9667,42.0249)"
       d="M 0,0 V -4" />
    <path
       id="path68"
       transform="translate(53.4667,42.0249)"
       d="M 0,0 V -4" />
    <path
       id="path70"
       transform="translate(46.6042,38.025)"
       d="M 0,0 V -3.3" />
    <path
       id="path72"
       transform="translate(31.9792,38.025)"
       d="M 0,0 V -3.3" />
    <path
       id="path74"
       transform="translate(18.7292,38.025)"
       d="M 0,0 V -3.3" />
    <path
       id="path76"
       transform="translate(5.9792,38.025)"
       d="M 0,0 V -3.3" />
    <path
       id="path78"
       transform="translate(12.5292,34.7248)"
       d="M 0,0 V -3.425" />
    <path
       id="path80"
       transform="translate(27.5292,34.7248)"
       d="M 0,0 V -3.425" />
    <path
       id="path82"
       transform="translate(41.2792,34.7248)"
       d="M 0,0 V -3.425" />
    <path
       id="path84"
       transform="translate(54.0292,34.7248)"
       d="M 0,0 V -3.425" />
    <path
       id="path86"
       transform="translate(6.7167,31.2998)"
       d="M 0,0 V -4.05" />
    <path
       id="path88"
       transform="translate(20.2167,31.2998)"
       d="M 0,0 V -4.05" />
    <path
       id="path90"
       transform="translate(33.8417,31.2998)"
       d="M 0,0 V -4.05" />
    <path
       id="path92"
       transform="translate(48.7167,31.2998)"
       d="M 0,0 V -4.05" />
    <path
       id="path94"
       transform="translate(40.0917,27.1873)"
       d="M 0,0 V -3.738" />
    <path
       id="path96"
       transform="translate(26.7668,27.1873)"
       d="M 0,0 V -3.738" />
    <path
       id="path98"
       transform="translate(11.7668,27.1873)"
       d="M 0,0 V -3.738" />
    <path
       id="path100"
       transform="translate(53.3209,27.1873)"
       d="M 0,0 V -3.738" />
    <path
       id="path102"
       transform="translate(5.5793,23.3873)"
       d="M 0,0 V -4.137" />
    <path
       id="path104"
       transform="translate(18.5793,23.3873)"
       d="M 0,0 V -4.137" />
    <path
       id="path106"
       transform="translate(32.2043,23.3873)"
       d="M 0,0 V -4.137" />
    <path
       id="path108"
       transform="translate(46.4543,23.3873)"
       d="M 0,0 V -4.137" />
    <path
       id="path110"
       transform="translate(42.2542,19.1873)"
       d="M 0,0 V -3.163" />
    <path
       id="path112"
       transform="translate(28.1042,19.1873)"
       d="M 0,0 V -3.163" />
    <path
       id="path114"
       transform="translate(12.9792,19.1873)"
       d="M 0,0 V -3.163" />
    <path
       id="path116"
       transform="translate(0.5625,19.1873)"
       d="M 0,0 V -3.163" />
    <path
       id="path118"
       transform="translate(6.9375,15.9623)"
       d="M 0,0 V -3.563" />
    <path
       id="path120"
       transform="translate(20.1875,15.9623)"
       d="M 0,0 V -3.563" />
    <path
       id="path122"
       transform="translate(33.8125,15.9623)"
       d="M 0,0 V -3.563" />
    <path
       id="path124"
       transform="translate(48.6875,15.9623)"
       d="M 0,0 V -3.563" />
    <path
       id="path126"
       transform="translate(40.3376,12.3497)"
       d="M 0,0 V -3.763" />
    <path
       id="path128"
       transform="translate(26.4626,12.3497)"
       d="M 0,0 V -3.763" />
    <path
       id="path130"
       transform="translate(11.9125,12.3497)"
       d="M 0,0 V -3.763" />
    <path
       id="path132"
       transform="translate(53.7875,12.3497)"
       d="M 0,0 V -3.763" />
    <path
       id="path134"
       transform="translate(0.0542,4.2122)"
       d="M 0,0 H 54.125" />
    <path
       id="path136"
       transform="translate(10.35,4.2375)"
       d="M 0,0 V -3.463" />
    <path
       id="path138"
       transform="translate(24.7875,4.2375)"
       d="M 0,0 V -3.463" />
    <path
       id="path140"
       transform="translate(38.4125,4.2375)"
       d="M 0,0 V -3.463" />
    <path
       id="path142"
       transform="translate(51.7875,4.2375)"
       d="M 0,0 V -3.463" />
    <path
       id="path144"
       transform="translate(4.625,8.5873)"
       d="M 0,0 V -4.35" />
    <path
       id="path146"
       transform="translate(17.625,8.5873)"
       d="M 0,0 V -4.35" />
    <path
       id="path148"
       transform="translate(31.625,8.5873)"
       d="M 0,0 V -4.35" />
    <path
       id="path150"
       transform="translate(46.1875,8.5873)"
       d="M 0,0 V -4.35" />
    <path
       id="path152"
       transform="translate(8.8125,52.4667)"
       d="M 0,0 H 7.25" />
    <path
       id="path154"
       transform="translate(35.9375,52.4667)"
       d="M 0,0 H 7.25" />
    <path
       id="path156"
       transform="translate(16.3125,48.2042)"
       d="M 0,0 H 7.25" />
    <path
       id="path158"
       transform="translate(44.0625,48.2042)"
       d="M 0,0 H 7.25" />
    <path
       id="path160"
       transform="translate(23.5625,44.1417)"
       d="M 0,0 H 7.25" />
    <path
       id="path162"
       transform="translate(0,44.1417)"
       d="M 0,0 H 4.488" />
    <path
       id="path164"
       transform="translate(30.2375,39.8917)"
       d="M 0,0 H 7.25" />
    <path
       id="path166"
       transform="translate(1.8625,39.8917)"
       d="M 0,0 H 7.25" />
    <path
       id="path168"
       transform="translate(35.4875,36.3917)"
       d="M 0,0 H 7.25" />
    <path
       id="path170"
       transform="translate(44.2375,33.0167)"
       d="M 0,0 H 7.25" />
    <path
       id="path172"
       transform="translate(51.3625,29.1417)"
       d="M 0,0 H 2.783" />
    <path
       id="path174"
       transform="translate(43.2375,25.3917)"
       d="M 0,0 H 7.25" />
    <path
       id="path176"
       transform="translate(35.8625,21.3917)"
       d="M 0,0 H 7.25" />
    <path
       id="path178"
       transform="translate(31.7375,17.6417)"
       d="M 0,0 H 7.25" />
    <path
       id="path180"
       transform="translate(23.6125,14.1417)"
       d="M 0,0 H 7.25" />
    <path
       id="path182"
       transform="translate(15.4875,10.5167)"
       d="M 0,0 H 7.25" />
    <path
       id="path184"
       transform="translate(7.3625,6.1417)"
       d="M 0,0 H 7.25" />
    <path
       id="path186"
       transform="translate(0.2375,2.4667)"
       d="M 0,0 H 7.25" />
    <path
       id="path188"
       transform="translate(8.6125,36.2792)"
       d="M 0,0 H 7.25" />
    <path
       id="path190"
       transform="translate(15.9875,33.0292)"
       d="M 0,0 H 7.25" />
    <path
       id="path192"
       transform="translate(23.3625,29.2792)"
       d="M 0,0 H 7.25" />
    <path
       id="path194"
       transform="translate(15.8625,25.2792)"
       d="M 0,0 H 7.25" />
    <path
       id="path196"
       transform="translate(8.4875,21.2792)"
       d="M 0,0 H 7.25" />
    <path
       id="path198"
       transform="translate(3.2375,17.5292)"
       d="M 0,0 H 7.25" />
    <path
       id="path200"
       transform="translate(0,14.0292)"
       d="M 0,0 H 3.863" />
    <path
       id="path202"
       transform="translate(43.7375,10.4042)"
       d="M 0,0 H 7.25" />
    <path
       id="path204"
       transform="translate(35.3625,6.2792)"
       d="M 0,0 H 7.25" />
    <path
       id="path206"
       transform="translate(27.9875,2.5292)"
       d="M 0,0 H 7.25" />
    <path
       id="path208"
       transform="translate(51.3125,44.1417)"
       d="M 0,0 H 2.813" />
    <path
       id="path210"
       transform="translate(51.3125,14.0292)"
       d="M 0,0 H 2.813" />
    <path
       id="path212"
       transform="translate(0.0625,29.1417)"
       d="M 0,0 H 2.625" />
  </g>
</svg>
