<?xml version="1.0" encoding="UTF-8" standalone="no"?>
<svg
   xmlns:dc="http://purl.org/dc/elements/1.1/"
   xmlns:cc="http://creativecommons.org/ns#"
   xmlns:rdf="http://www.w3.org/1999/02/22-rdf-syntax-ns#"
   xmlns:svg="http://www.w3.org/2000/svg"
   xmlns="http://www.w3.org/2000/svg"
   height="44.667"
   width="44.667"
   id="svg242"
   version="1.1">
  <defs
     id="defs246" />
  <metadata
     id="metadata2">citation: U.S. Geological Survey, 2006, FGDC Digital Cartographic Standard for Geologic Map Symbolization (PostScript Implementation): U.S. Geological Survey Techniques and Methods 11-A2 [pubs.usgs.gov/tm/2006/11A02/]. converted by CEC Geology LLC 2018 from the USGS lithologic gs converted to inkscape by the University of Otago.<rdf:RDF>
  <cc:Work
     rdf:about="">
    <dc:format>image/svg+xml</dc:format>
    <dc:type
       rdf:resource="http://purl.org/dc/dcmitype/StillImage" />
    <dc:title></dc:title>
  </cc:Work>
</rdf:RDF>
</metadata>
  <g

     stroke="#231f20"
     fill="none"
     id="g240"
     width="44.667"
     height="44.667">
    <g
       style="stroke-width:0.30000001"
       id="g202">
      <path
         id="path4"
         transform="translate(0.6592,33.0005)"
         d="M 0,0 H 7.5" />
      <path
         id="path6"
         transform="translate(24.126,32.9321)"
         d="M 0,0 H 7.5" />
      <path
         id="path8"
         transform="translate(11.501,3.0747)"
         d="M 0,0 H -7.5" />
      <path
         id="path10"
         transform="translate(35.001,3.0747)"
         d="M 0,0 H -7.5" />
      <path
         id="path12"
         transform="translate(16.8994,17.8755)"
         d="M 0,0 H -7.5" />
      <path
         id="path14"
         transform="translate(40.3994,17.8755)"
         d="M 0,0 H -7.5" />
      <path
         id="path16"
         transform="translate(0,43.4038)"
         d="M 0,0 H 3.776" />
      <path
         id="path18"
         transform="translate(6.3564,43.4038)"
         d="M 0,0 H 6.369" />
      <path
         id="path20"
         transform="translate(15.2734,43.4038)"
         d="M 0,0 H 6.369" />
      <path
         id="path22"
         transform="translate(24.1895,43.4038)"
         d="M 0,0 H 6.369" />
      <path
         id="path24"
         transform="translate(33.1064,43.4038)"
         d="M 0,0 H 6.369" />
      <path
         id="path26"
         transform="translate(8.1084,40.269)"
         d="M 0,0 H -6.369" />
      <path
         id="path28"
         transform="translate(17.0244,40.269)"
         d="M 0,0 H -6.369" />
      <path
         id="path30"
         transform="translate(25.9414,40.269)"
         d="M 0,0 H -6.369" />
      <path
         id="path32"
         transform="translate(34.8584,40.269)"
         d="M 0,0 H -6.369" />
      <path
         id="path34"
         transform="translate(43.7744,40.269)"
         d="M 0,0 H -6.369" />
      <path
         id="path36"
         transform="translate(2.0244,37.2988)"
         d="M 0,0 H -2.024" />
      <path
         id="path38"
         transform="translate(4.6055,37.2988)"
         d="M 0,0 H 6.369" />
      <path
         id="path40"
         transform="translate(13.5215,37.2988)"
         d="M 0,0 H 6.369" />
      <path
         id="path42"
         transform="translate(22.4385,37.2988)"
         d="M 0,0 H 6.369" />
      <path
         id="path44"
         transform="translate(31.3545,37.2988)"
         d="M 0,0 H 6.369" />
      <path
         id="path46"
         transform="translate(5.2422,28.52)"
         d="M 0,0 H -5.242" />
      <path
         id="path48"
         transform="translate(7.79,28.52)"
         d="M 0,0 H 6.368" />
      <path
         id="path50"
         transform="translate(23.0752,28.52)"
         d="M 0,0 H -6.369" />
      <path
         id="path52"
         transform="translate(31.9922,28.52)"
         d="M 0,0 H -6.369" />
      <path
         id="path54"
         transform="translate(34.5391,28.52)"
         d="M 0,0 H 6.369" />
      <path
         id="path56"
         transform="translate(0,25.353)"
         d="M 0,0 H 2.184" />
      <path
         id="path58"
         transform="translate(11.1338,25.353)"
         d="M 0,0 H -6.369" />
      <path
         id="path60"
         transform="translate(20.0498,25.353)"
         d="M 0,0 H -6.369" />
      <path
         id="path62"
         transform="translate(22.5977,25.353)"
         d="M 0,0 H 6.369" />
      <path
         id="path64"
         transform="translate(31.5146,25.353)"
         d="M 0,0 H 6.368" />
      <path
         id="path66"
         transform="translate(6.6748,22.4399)"
         d="M 0,0 H -6.369" />
      <path
         id="path68"
         transform="translate(15.5918,22.4399)"
         d="M 0,0 H -6.369" />
      <path
         id="path70"
         transform="translate(18.1396,22.4399)"
         d="M 0,0 H 6.368" />
      <path
         id="path72"
         transform="translate(33.4248,22.4399)"
         d="M 0,0 H -6.369" />
      <path
         id="path74"
         transform="translate(42.3418,22.4399)"
         d="M 0,0 H -6.369" />
      <path
         id="path76"
         transform="translate(2.9805,13.5298)"
         d="M 0,0 H -2.98" />
      <path
         id="path78"
         transform="translate(5.5605,13.5298)"
         d="M 0,0 H 6.369" />
      <path
         id="path80"
         transform="translate(14.4775,13.5298)"
         d="M 0,0 H 6.368" />
      <path
         id="path82"
         transform="translate(23.3936,13.5298)"
         d="M 0,0 H 6.369" />
      <path
         id="path84"
         transform="translate(32.3105,13.5298)"
         d="M 0,0 H 6.369" />
      <path
         id="path86"
         transform="translate(6.834,10.3945)"
         d="M 0,0 H -6.369" />
      <path
         id="path88"
         transform="translate(9.3818,10.3945)"
         d="M 0,0 H 6.369" />
      <path
         id="path90"
         transform="translate(18.2988,10.3945)"
         d="M 0,0 H 6.368" />
      <path
         id="path92"
         transform="translate(27.2148,10.3945)"
         d="M 0,0 H 6.369" />
      <path
         id="path94"
         transform="translate(36.1318,10.3945)"
         d="M 0,0 H 6.369" />
      <path
         id="path96"
         transform="translate(0,7.4248)"
         d="M 0,0 H 2.184" />
      <path
         id="path98"
         transform="translate(11.1338,7.4248)"
         d="M 0,0 H -6.369" />
      <path
         id="path100"
         transform="translate(20.0498,7.4248)"
         d="M 0,0 H -6.369" />
      <path
         id="path102"
         transform="translate(28.9668,7.4248)"
         d="M 0,0 H -6.369" />
      <path
         id="path104"
         transform="translate(37.8828,7.4248)"
         d="M 0,0 H -6.368" />
      <path
         id="path106"
         transform="translate(19.4512,19.6353)"
         d="M 0,0 H -12.432" />
      <path
         id="path108"
         transform="translate(31.3545,19.6353)"
         d="M 0,0 H 13.313" />
      <path
         id="path110"
         transform="translate(7.0195,19.6353)"
         d="M 0,0 H -7.02" />
      <path
         id="path112"
         transform="translate(31.3545,19.6353)"
         d="M 0,0 H -11.903" />
      <path
         id="path114"
         transform="translate(41.7285,16.3535)"
         d="M 0,0 H 2.939" />
      <path
         id="path116"
         transform="translate(0,16.3535)"
         d="M 0,0 H 41.729" />
      <path
         id="path118"
         transform="translate(31.3545,19.6353)"
         d="M 0,0 V -3.269" />
      <path
         id="path120"
         transform="translate(31.3545,19.6353)"
         d="M 0,0 V 0.031" />
      <path
         id="path122"
         transform="translate(41.7285,16.3535)"
         d="M 0,0 V 3.229" />
      <path
         id="path124"
         transform="translate(41.7285,16.3535)"
         d="M 0,0 V -0.072" />
      <path
         id="path126"
         transform="translate(19.4512,19.6353)"
         d="M 0,0 V -3.269" />
      <path
         id="path128"
         transform="translate(19.4512,19.6665)"
         d="M 0,0 V -0.031" />
      <path
         id="path130"
         transform="translate(7.0195,19.6665)"
         d="M 0,0 V -0.031" />
      <path
         id="path132"
         transform="translate(7.0195,19.6353)"
         d="M 0,0 V -3.269" />
      <path
         id="path134"
         transform="translate(34.0459,31.3071)"
         d="M 0,0 H 10.125" />
      <path
         id="path136"
         transform="translate(9.5459,31.3071)"
         d="M 0,0 H -9.546" />
      <path
         id="path138"
         transform="translate(44.1709,31.3071)"
         d="M 0,0 H 0.496" />
      <path
         id="path140"
         transform="translate(9.5459,31.3071)"
         d="M 0,0 H 12.409" />
      <path
         id="path142"
         transform="translate(21.9551,31.3071)"
         d="M 0,0 H 12.091" />
      <path
         id="path144"
         transform="translate(9.5459,34.6855)"
         d="M 0,0 H 12.409" />
      <path
         id="path146"
         transform="translate(44.1709,34.6855)"
         d="M 0,0 H -10.125" />
      <path
         id="path148"
         transform="translate(9.5459,34.6855)"
         d="M 0,0 H -9.546" />
      <path
         id="path150"
         transform="translate(21.9551,34.6855)"
         d="M 0,0 H 12.091" />
      <path
         id="path152"
         transform="translate(44.1709,34.6855)"
         d="M 0,0 H 0.496" />
      <path
         id="path154"
         transform="translate(9.5459,31.3071)"
         d="M 0,0 V -0.034" />
      <path
         id="path156"
         transform="translate(9.5459,34.6855)"
         d="M 0,0 V -3.378" />
      <path
         id="path158"
         transform="translate(9.5459,34.6855)"
         d="M 0,0 V 0.013" />
      <path
         id="path160"
         transform="translate(21.9551,31.3071)"
         d="M 0,0 V 3.378" />
      <path
         id="path162"
         transform="translate(21.9551,31.2729)"
         d="M 0,0 V 0.034" />
      <path
         id="path164"
         transform="translate(21.9551,34.6855)"
         d="M 0,0 V 0.013" />
      <path
         id="path166"
         transform="translate(44.1709,31.3071)"
         d="M 0,0 V -0.034" />
      <path
         id="path168"
         transform="translate(44.1709,34.6855)"
         d="M 0,0 V 0.013" />
      <path
         id="path170"
         transform="translate(44.1709,31.3071)"
         d="M 0,0 V 3.378" />
      <path
         id="path172"
         transform="translate(34.0459,31.3071)"
         d="M 0,0 V 3.378" />
      <path
         id="path174"
         transform="translate(34.0459,31.3071)"
         d="M 0,0 V -0.034" />
      <path
         id="path176"
         transform="translate(34.0459,34.6982)"
         d="M 0,0 V -0.013" />
      <path
         id="path178"
         transform="translate(0,4.6621)"
         d="M 0,0 H 44.667" />
      <path
         id="path180"
         transform="translate(0,1.437)"
         d="M 0,0 H 44.667" />
      <path
         id="path182"
         transform="translate(36.915,1.4497)"
         d="M 0,0 V 3.163" />
      <path
         id="path184"
         transform="translate(25.2764,4.6123)"
         d="M 0,0 V -3.163" />
      <path
         id="path186"
         transform="translate(13.709,4.6123)"
         d="M 0,0 V -3.163" />
      <path
         id="path188"
         transform="translate(1.707,4.6123)"
         d="M 0,0 V -3.163" />
      <path
         id="path190"
         transform="translate(42.0742,43.4038)"
         d="M 0,0 H 2.593" />
      <path
         id="path192"
         transform="translate(40.3232,37.2988)"
         d="M 0,0 H 4.344" />
      <path
         id="path194"
         transform="translate(44.667,28.52)"
         d="M 0,0 H -1.127" />
      <path
         id="path196"
         transform="translate(40.4824,25.353)"
         d="M 0,0 H 4.185" />
      <path
         id="path198"
         transform="translate(44.667,13.5298)"
         d="M 0,0 H -3.389" />
      <path
         id="path200"
         transform="translate(40.4824,7.4248)"
         d="M 0,0 H 4.185" />
    </g>
    <path
       style="stroke-width:0.69999999;stroke-linecap:round"
       id="path204"
       transform="translate(16.0313,32.8872)"
       d="M 0,0 0.01,0.01" />
    <path
       style="stroke-width:0.69999999;stroke-linecap:round"
       id="path206"
       transform="translate(18.0127,32.8872)"
       d="M 0,0 0.01,0.01" />
    <path
       style="stroke-width:0.69999999;stroke-linecap:round"
       id="path208"
       transform="translate(13.9561,32.8872)"
       d="M 0,0 0.01,0.01" />
    <path
       style="stroke-width:0.69999999;stroke-linecap:round"
       id="path210"
       transform="translate(39.667,32.8872)"
       d="M 0,0 0.01,0.01" />
    <path
       style="stroke-width:0.69999999;stroke-linecap:round"
       id="path212"
       transform="translate(41.6494,32.8872)"
       d="M 0,0 0.01,0.01" />
    <path
       style="stroke-width:0.69999999;stroke-linecap:round"
       id="path214"
       transform="translate(37.5928,32.8872)"
       d="M 0,0 0.01,0.01" />
    <path
       style="stroke-width:0.69999999;stroke-linecap:round"
       id="path216"
       transform="translate(25.542,17.8755)"
       d="M 0,0 0.01,0.01" />
    <path
       style="stroke-width:0.69999999;stroke-linecap:round"
       id="path218"
       transform="translate(27.5244,17.8755)"
       d="M 0,0 0.01,0.01" />
    <path
       style="stroke-width:0.69999999;stroke-linecap:round"
       id="path220"
       transform="translate(23.4678,17.8755)"
       d="M 0,0 0.01,0.01" />
    <path
       style="stroke-width:0.69999999;stroke-linecap:round"
       id="path222"
       transform="translate(19.667,3.0122)"
       d="M 0,0 0.01,0.01" />
    <path
       style="stroke-width:0.69999999;stroke-linecap:round"
       id="path224"
       transform="translate(21.6494,3.0122)"
       d="M 0,0 0.01,0.01" />
    <path
       style="stroke-width:0.69999999;stroke-linecap:round"
       id="path226"
       transform="translate(17.5928,3.0122)"
       d="M 0,0 0.01,0.01" />
    <path
       style="stroke-width:0.69999999;stroke-linecap:round"
       id="path228"
       transform="translate(41.917,3.0122)"
       d="M 0,0 0.01,0.01" />
    <path
       style="stroke-width:0.69999999;stroke-linecap:round"
       id="path230"
       transform="translate(43.8994,3.0122)"
       d="M 0,0 0.01,0.01" />
    <path
       style="stroke-width:0.69999999;stroke-linecap:round"
       id="path232"
       transform="translate(39.8428,3.0122)"
       d="M 0,0 0.01,0.01" />
    <path
       style="stroke-width:0.69999999;stroke-linecap:round"
       id="path234"
       transform="translate(1.542,17.8755)"
       d="M 0,0 0.01,0.01" />
    <path
       style="stroke-width:0.69999999;stroke-linecap:round"
       id="path236"
       transform="translate(3.5244,17.8755)"
       d="M 0,0 0.01,0.01" />
    <path
       style="stroke-width:0.69999999;stroke-linecap:round"
       id="path238"
       transform="translate(44.2627,17.8755)"
       d="M 0,0 0.01,0.01" />
  </g>
</svg>
