<?xml version="1.0" encoding="UTF-8" standalone="no"?>
<svg
   xmlns:dc="http://purl.org/dc/elements/1.1/"
   xmlns:cc="http://creativecommons.org/ns#"
   xmlns:rdf="http://www.w3.org/1999/02/22-rdf-syntax-ns#"
   xmlns:svg="http://www.w3.org/2000/svg"
   xmlns="http://www.w3.org/2000/svg"
   id="svg260"
   version="1.1"
   width="54.5"
   height="54.5"><defs
   id="defs264" />
version=&quot;1.1&quot;&gt; <metadata
   id="metadata2">citation: U.S. Geological Survey, 2006, FGDC Digital Cartographic Standard for Geologic Map Symbolization (PostScript Implementation): U.S. Geological Survey Techniques and Methods 11-A2 [pubs.usgs.gov/tm/2006/11A02/]. converted by CEC Geology LLC 2018 from the USGS lithologic gs converted to inkscape by the University of Otago.<rdf:RDF>
  <cc:Work
     rdf:about="">
    <dc:format>image/svg+xml</dc:format>
    <dc:type
       rdf:resource="http://purl.org/dc/dcmitype/StillImage" />
    <dc:title></dc:title>
  </cc:Work>
</rdf:RDF>
</metadata>
<g   
   stroke="none"
   fill="#231f20"
>
<path
   id="path4"
   d="m35.4375 13.125c-3.437.078 14.375-2.75 14.813-2.25.437.5-.188 1.25-1.688 1.562-1.5.313-11.875 1.563-13.5 1.813s3.125-1.188.375-1.125" />
<path
   id="path6"
   d="m48.854 7.0415c-2.17 1.654-3.813.625-9.25.75-5.438.125-12-.437-7.188-1.438 4.813-1 7.125-1.187 10-.75 2.875.438 7.751.438 6.438 1.438" />
<path
   id="path8"
   d="m39.125 29.125c-2.667-.381 6 .438 8.313.25 2.312-.187 3.187-.438 3.187.063 0 .5-1.812.937-4 .812-2.187-.125-5.937-.687-6.812-.5-.876.188-.25-.562-.688-.625" />
<path
   id="path10"
   d="m36.9375 21.125c2.346 1.613 4.125 1.125 6.625.125s1.938-1 3.688-.813c1.75.188 3.125-.187 4.625-.937s2.375-1.625 1.187-1.438c-1.187.188-4.625 1.313-6.125 1.25-1.5-.062-2.937.25-4.312.813-1.375.562-6.688.312-5.688 1" />
</g>
<g
   id="g258"
   stroke-width=".3"
   stroke-linecap="square"
   stroke="#231f20"
   fill="none">
  <path
     id="path12"
     d="m51.2632 54.4917c.047-.094.102-.252.15-.365.592-1.398 1.259-4.193 1.837-6.043.625-2-1.063-2.75-2.875-3.688-1.813-.937-2.25-.875-4.375-1.5-3.243-.954-3.813-4.083-6.75-4.646-2.938-.562-6.125-3-6.25-4.812-.125-1.813 3.125-2.938 5-3.25 1.875-.313 3.437-.75 1.937-.938-1.5-.187-2.5-.437-4.687-1.187-2.284-.783-.333-1.854-6.333-2.479s-7.167-5.834-6.563-7.25c.746-1.749 3.25-2.25 6.063-2.5 2.812-.25 2.895-.896 6.083-1.459 3.187-.562 2.875-1.375.687-1.25-2.187.125-3.062.483-10.75-2.812-2.187-.938-3.098-1.151-5.02-1.896-3.063-1.188-6.886-1.981-7.167-3.667-.167-1 1.5-2.166 7.5-1.333s8.5-1 13.167-1.333c4.666-.334 12.333-.212 14.333-.167.937.021 3.187-.083 4.021-1.917" />
  <path
     id="path14"
     d="m2.104 54.5c-3.667-5.354 5.771-7.938 6.146-8.125 4.837-2.419 4.215-7.69-2.5-7.958-6.25-.25-3.375-3.25 3.5-4s6.253-3.542 5.878-6.292 3.737-3.378-6.375-5.625c-1.125-.25-3.125-.375-4.125-1.75s-2-3.625.5-4.125 7.742-3.236 3.875-5.5c-9.753-5.708 2.184-8.063-6.899-11.125" />
  <path
     id="path16"
     d="m28.9287 25.6157-17.74 17.76" />
  <path
     id="path18"
     d="m26.8179 25.1304-15.772 15.79" />
  <path
     id="path20"
     d="m49.3228 0-1.879 1.881" />
  <path
     id="path22"
     d="m25.0815 24.269-15.272 15.29" />
  <path
     id="path24"
     d="m46.7275 0-1.925 1.927" />
  <path
     id="path26"
     d="m33.4653 13.2773-1.937 1.939" />
  <path
     id="path28"
     d="m23.7207 23.0332-8.808 8.818" />
  <path
     id="path30"
     d="m14.9131 31.8511-1.436 1.438" />
  <path
     id="path32"
     d="m13.4766 33.2891-5.497 5.503" />
  <path
     id="path34"
     d="m44.1313 0-1.846 1.848" />
  <path
     id="path36"
     d="m31.3232 12.8228-3.061 3.064" />
  <path
     id="path38"
     d="m22.7031 21.4526-7.527 7.536" />
  <path
     id="path40"
     d="m9.8354 34.3355-4.122 4.127" />
  <path
     id="path42"
     d="m41.5352 0-1.86 1.862" />
  <path
     id="path44"
     d="m29.3057 12.2437-4.247 4.252" />
  <path
     id="path46"
     d="m22.1851 19.3726-6.684 6.691" />
  <path
     id="path48"
     d="m6.8188 34.7563-3.373 3.377" />
  <path
     id="path50"
     d="m38.939 0-1.874 1.877" />
  <path
     id="path52"
     d="m27.4448 11.5073-12.774 12.789" />
  <path
     id="path54"
     d="m36.3437 0-2.014 2.017" />
  <path
     id="path56"
     d="m25.522 10.8345-12.744 12.758" />
  <path
     id="path58"
     d="m33.7476 0-2.247 2.25" />
  <path
     id="path60"
     d="m23.6919 10.0669-12.992 13.007" />
  <path
     id="path62"
     d="m31.1514 0-2.886 2.89" />
  <path
     id="path64"
     d="m21.8623 9.2998-13.18 13.195" />
  <path
     id="path66"
     d="m28.5552 0-3.525 3.53" />
  <path
     id="path68"
     d="m19.9082 8.6572-13.337 13.352" />
  <path
     id="path70"
     d="m25.96 0-3.603 3.607" />
  <path
     id="path72"
     d="m18.0151 7.9536-13.117 13.132" />
  <path
     id="path74"
     d="m23.3638 0-3.43 3.434" />
  <path
     id="path76"
     d="m16.1235 7.2485-5.684 5.691" />
  <path
     id="path78"
     d="m7.8784 15.5029-4.029 4.034" />
  <path
     id="path80"
     d="m20.7676 0-3.257 3.261" />
  <path
     id="path82"
     d="m14.2314 6.5439-4.84 4.846" />
  <path
     id="path84"
     d="m18.1714 0-3.271 3.275" />
  <path
     id="path86"
     d="m12.7144 5.4639-4.935 4.94" />
  <path
     id="path88"
     d="m15.5762 0-9.251 9.262" />
  <path
     id="path90"
     d="m12.98 0-7.767 7.776" />
  <path
     id="path92"
     d="m10.3838 0-5.407 5.414" />
  <path
     id="path94"
     d="m7.7876 0-2.174 2.177" />
  <path
     id="path96"
     d="m5.1924 0-.939.94" />
  <path
     id="path98"
     d="m38.5068 29.0063-1.437 1.438" />
  <path
     id="path100"
     d="m5.1875 0 17.625 17.625" />
  <path
     id="path102"
     d="m30.9687 25.7813 4.938 4.938" />
  <path
     id="path104"
     d="m48.9062 43.7188 4.344 4.344" />
  <path
     id="path106"
     d="m7.8125 0 4.438 4.438" />
  <path
     id="path108"
     d="m14.2812 6.4688 10.156 10.156" />
  <path
     id="path110"
     d="m36.125 28.3125 1.875 1.875" />
  <path
     id="path112"
     d="m10.4375 0 3.344 3.344" />
  <path
     id="path114"
     d="m18.5312 8.0938 7.969 7.969" />
  <path
     id="path116"
     d="m13.0625 0 3.125 3.125" />
  <path
     id="path118"
     d="m22.5937 9.5313 6.281 6.281" />
  <path
     id="path120"
     d="m15.625 0 3.281 3.281" />
  <path
     id="path122"
     d="m26.9687 11.3438 3.969 3.969" />
  <path
     id="path124"
     d="m18.25 0 3.531 3.531" />
  <path
     id="path126"
     d="m31.0312 12.7813 1.875 1.875" />
  <path
     id="path128"
     d="m20.75 0 3.5 3.5" />
  <path
     id="path130"
     d="m34.0312 13.2813 1.031 1.031" />
  <path
     id="path132"
     d="m23.375 0 3.188 3.188" />
  <path
     id="path134"
     d="m26 0 2.813 2.813" />
  <path
     id="path136"
     d="m28.625 0 2.281 2.281" />
  <path
     id="path138"
     d="m31.125 0 2.063 2.063" />
  <path
     id="path140"
     d="m33.75 0 1.938 1.938" />
  <path
     id="path142"
     d="m36.375 0 1.875 1.875" />
  <path
     id="path144"
     d="m39 0 1.813 1.813" />
  <path
     id="path146"
     d="m41.5 0 1.813 1.813" />
  <path
     id="path148"
     d="m44.125 0 1.875 1.875" />
  <path
     id="path150"
     d="m46.75 0 1.781 1.781" />
  <path
     id="path152"
     d="m49.375 0 1.063 1.063" />
  <path
     id="path154"
     d="m5.7427 3.1328 16.594 16.594" />
  <path
     id="path156"
     d="m27.9927 25.3828 6.188 6.188" />
  <path
     id="path158"
     d="m45.1177 42.5078 7.594 7.594" />
  <path
     id="path160"
     d="m5.0864 5.0391 27.969 27.969" />
  <path
     id="path162"
     d="m37.8989 37.8516 14.25 14.25" />
  <path
     id="path164"
     d="m5.1802 7.6953 2.656 2.656" />
  <path
     id="path166"
     d="m7.8364 10.3516 2.625 2.625" />
  <path
     id="path168"
     d="m10.4614 12.9766 41.031 41.031" />
  <path
     id="path170"
     d="m5.9927 16.3203 7.375 7.375" />
  <path
     id="path172"
     d="m4.0864 17.0391 5.688 5.688" />
  <path
     id="path174"
     d="m3.8989 19.4141 2.5 2.5" />
  <path
     id="path176"
     d="m4.3677 35.5078 3.063 3.063" />
  <path
     id="path178"
     d="m2.7114 36.4766 1.719 1.719" />
  <path
     id="path180"
     d="m1.5132 53.3667 1.143 1.118" />
  <path
     id="path182"
     d="m1.4443 53.1313 6.715-6.722" />
  <path
     id="path184"
     d="m49.3115 54.5 2.911-2.84" />
  <path
     id="path186"
     d="m53.2974 47.9849-6.586 6.515" />
  <path
     id="path188"
     d="m52.7798 45.9038-8.663 8.596" />
  <path
     id="path190"
     d="m51.231 44.856-9.709 9.644" />
  <path
     id="path192"
     d="m49.5264 43.9634-10.598 10.537" />
  <path
     id="path194"
     d="m47.5718 43.3218-11.237 11.178" />
  <path
     id="path196"
     d="m45.5859 42.7105-11.845 11.79" />
  <path
     id="path198"
     d="m43.8809 41.8184-12.749 12.682" />
  <path
     id="path200"
     d="m42.6138 40.4883-14.076 14.012" />
  <path
     id="path202"
     d="m41.2524 39.2524-15.309 15.248" />
  <path
     id="path204"
     d="m39.5478 38.3599-16.198 16.14" />
  <path
     id="path206"
     d="m37.5615 37.7495-16.804 16.751" />
  <path
     id="path208"
     d="m35.8262 36.8877-17.664 17.612" />
  <path
     id="path210"
     d="m34.3711 35.7461-18.803 18.754" />
  <path
     id="path212"
     d="m33.1973 34.3223-20.238 20.178" />
  <path
     id="path214"
     d="m36.4897 28.4268-26.125 26.073" />
  <path
     id="path216"
     d="m34.5659 27.7534-26.795 26.747" />
  <path
     id="path218"
     d="m33.1743 26.5483-27.997 27.952" />
  <path
     id="path220"
     d="m2.6538 54.4917 28.503-28.523" />
  <path
     id="path222"
     d="m49.3804 54.5-39.982-39.961" />
  <path
     id="path224"
     d="m7.8052 15.5078 38.951 38.992" />
  <path
     id="path226"
     d="m15.5552 25.8828 28.576 28.617" />
  <path
     id="path228"
     d="m15.1489 28.1016 26.357 26.398" />
  <path
     id="path230"
     d="m15.2739 30.7891 23.732 23.711" />
  <path
     id="path232"
     d="m14.5239 32.6016 21.857 21.898" />
  <path
     id="path234"
     d="m33.7554 54.5-20.982-20.961" />
  <path
     id="path236"
     d="m10.7427 34.0703 20.389 20.43" />
  <path
     id="path238"
     d="m8.5552 34.4453 20.075 20.055" />
  <path
     id="path240"
     d="m6.3364 34.8516 19.669 19.648" />
  <path
     id="path242"
     d="m11.3677 42.5078 12.012 11.992" />
  <path
     id="path244"
     d="m20.7554 54.5-10.107-10.086" />
  <path
     id="path246"
     d="m9.3677 45.6328 8.887 8.867" />
  <path
     id="path248"
     d="m7.6489 46.5391 7.981 7.961" />
  <path
     id="path250"
     d="m13.0674 54.5-7.231-7.211" />
  <path
     id="path252"
     d="m4.0864 48.1641 6.356 6.336" />
  <path
     id="path254"
     d="m7.8203 54.5-5.171-5.211" />
  <path
     id="path256"
     d="m1.5552 50.8203 3.64 3.68" />
</g>
</svg>
