<?xml version="1.0" encoding="UTF-8" standalone="no"?>
<svg
   xmlns:dc="http://purl.org/dc/elements/1.1/"
   xmlns:cc="http://creativecommons.org/ns#"
   xmlns:rdf="http://www.w3.org/1999/02/22-rdf-syntax-ns#"
   xmlns:svg="http://www.w3.org/2000/svg"
   xmlns="http://www.w3.org/2000/svg"
   height="53.584"
   width="53.584"
   id="svg244"
   version="1.1">
  <defs
     id="defs248" />
  <metadata
     id="metadata2">citation: U.S. Geological Survey, 2006, FGDC Digital Cartographic Standard for Geologic Map Symbolization (PostScript Implementation): U.S. Geological Survey Techniques and Methods 11-A2 [pubs.usgs.gov/tm/2006/11A02/]. converted by CEC Geology LLC 2018 from the USGS lithologic gs converted to inkscape by the University of Otago.<rdf:RDF>
  <cc:Work
     rdf:about="">
    <dc:format>image/svg+xml</dc:format>
    <dc:type
       rdf:resource="http://purl.org/dc/dcmitype/StillImage" />
    <dc:title></dc:title>
  </cc:Work>
</rdf:RDF>
</metadata>
  <g
     stroke-width=".3"
     stroke="#231f20"
     fill="none"
     id="g242"
     width="53.584"
     height="53.584">
    <path
       id="path4"
       transform="translate(3.7764,52.3203)"
       d="M 0,0 H -3.776" />
    <path
       id="path6"
       transform="translate(6.3565,52.3203)"
       d="M 0,0 H 6.369" />
    <path
       id="path8"
       transform="translate(15.2734,52.3203)"
       d="M 0,0 H 6.369" />
    <path
       id="path10"
       transform="translate(24.1895,52.3203)"
       d="M 0,0 H 6.369" />
    <path
       id="path12"
       transform="translate(33.1065,52.3203)"
       d="M 0,0 H 6.369" />
    <path
       id="path14"
       transform="translate(42.0234,52.3203)"
       d="M 0,0 H 6.369" />
    <path
       id="path16"
       transform="translate(53.584,52.3203)"
       d="M 0,0 H -2.645" />
    <path
       id="path18"
       transform="translate(8.1084,49.1855)"
       d="M 0,0 H -6.369" />
    <path
       id="path20"
       transform="translate(17.0244,49.1855)"
       d="M 0,0 H -6.369" />
    <path
       id="path22"
       transform="translate(25.9414,49.1855)"
       d="M 0,0 H -6.369" />
    <path
       id="path24"
       transform="translate(34.8584,49.1855)"
       d="M 0,0 H -6.369" />
    <path
       id="path26"
       transform="translate(43.7744,49.1855)"
       d="M 0,0 H -6.369" />
    <path
       id="path28"
       transform="translate(46.3223,49.1855)"
       d="M 0,0 H 6.369" />
    <path
       id="path30"
       transform="translate(0,46.2158)"
       d="M 0,0 H 2.024" />
    <path
       id="path32"
       transform="translate(10.9746,46.2158)"
       d="M 0,0 H -6.369" />
    <path
       id="path34"
       transform="translate(13.5215,46.2158)"
       d="M 0,0 H 6.369" />
    <path
       id="path36"
       transform="translate(22.4385,46.2158)"
       d="M 0,0 H 6.369" />
    <path
       id="path38"
       transform="translate(31.3555,46.2158)"
       d="M 0,0 H 6.368" />
    <path
       id="path40"
       transform="translate(40.2715,46.2158)"
       d="M 0,0 H 6.369" />
    <path
       id="path42"
       transform="translate(49.1885,46.2158)"
       d="M 0,0 H 4.395" />
    <path
       id="path44"
       transform="translate(7.3115,43.4111)"
       d="M 0,0 H -6.368" />
    <path
       id="path46"
       transform="translate(16.2285,43.4111)"
       d="M 0,0 H -6.369" />
    <path
       id="path48"
       transform="translate(25.1455,43.4111)"
       d="M 0,0 H -6.369" />
    <path
       id="path50"
       transform="translate(34.0615,43.4111)"
       d="M 0,0 H -6.369" />
    <path
       id="path52"
       transform="translate(42.9785,43.4111)"
       d="M 0,0 H -6.369" />
    <path
       id="path54"
       transform="translate(45.5264,43.4111)"
       d="M 0,0 H 6.369" />
    <path
       id="path56"
       transform="translate(1.7061,40.4404)"
       d="M 0,0 H -1.706" />
    <path
       id="path58"
       transform="translate(4.2871,40.4404)"
       d="M 0,0 H 6.368" />
    <path
       id="path60"
       transform="translate(19.5723,40.4404)"
       d="M 0,0 H -6.369" />
    <path
       id="path62"
       transform="translate(22.1201,40.4404)"
       d="M 0,0 H 6.369" />
    <path
       id="path64"
       transform="translate(31.0361,40.4404)"
       d="M 0,0 H 6.369" />
    <path
       id="path66"
       transform="translate(39.9531,40.4404)"
       d="M 0,0 H 6.369" />
    <path
       id="path68"
       transform="translate(48.8701,40.4404)"
       d="M 0,0 H 4.714" />
    <path
       id="path70"
       transform="translate(5.2422,37.4365)"
       d="M 0,0 H -5.242" />
    <path
       id="path72"
       transform="translate(14.1592,37.4365)"
       d="M 0,0 H -6.369" />
    <path
       id="path74"
       transform="translate(23.0752,37.4365)"
       d="M 0,0 H -6.369" />
    <path
       id="path76"
       transform="translate(25.6231,37.4365)"
       d="M 0,0 H 6.369" />
    <path
       id="path78"
       transform="translate(34.5391,37.4365)"
       d="M 0,0 H 6.369" />
    <path
       id="path80"
       transform="translate(43.4561,37.4365)"
       d="M 0,0 H 6.369" />
    <path
       id="path82"
       transform="translate(53.584,37.4365)"
       d="M 0,0 H -1.211" />
    <path
       id="path84"
       transform="translate(2.1836,34.2695)"
       d="M 0,0 H -2.184" />
    <path
       id="path86"
       transform="translate(11.1338,34.2695)"
       d="M 0,0 H -6.369" />
    <path
       id="path88"
       transform="translate(13.6807,34.2695)"
       d="M 0,0 H 6.369" />
    <path
       id="path90"
       transform="translate(28.9668,34.2695)"
       d="M 0,0 H -6.369" />
    <path
       id="path92"
       transform="translate(37.8828,34.2695)"
       d="M 0,0 H -6.368" />
    <path
       id="path94"
       transform="translate(46.7998,34.2695)"
       d="M 0,0 H -6.369" />
    <path
       id="path96"
       transform="translate(53.584,34.2695)"
       d="M 0,0 H -4.236" />
    <path
       id="path98"
       transform="translate(6.6748,31.3564)"
       d="M 0,0 H -6.369" />
    <path
       id="path100"
       transform="translate(15.5918,31.3564)"
       d="M 0,0 H -6.369" />
    <path
       id="path102"
       transform="translate(24.5088,31.3564)"
       d="M 0,0 H -6.369" />
    <path
       id="path104"
       transform="translate(27.0557,31.3564)"
       d="M 0,0 H 6.369" />
    <path
       id="path106"
       transform="translate(35.9727,31.3564)"
       d="M 0,0 H 6.369" />
    <path
       id="path108"
       transform="translate(44.8887,31.3564)"
       d="M 0,0 H 6.369" />
    <path
       id="path110"
       transform="translate(3.458,28.3867)"
       d="M 0,0 H -3.458" />
    <path
       id="path112"
       transform="translate(6.0381,28.3867)"
       d="M 0,0 H 6.369" />
    <path
       id="path114"
       transform="translate(21.3242,28.3867)"
       d="M 0,0 H -6.369" />
    <path
       id="path116"
       transform="translate(30.2402,28.3867)"
       d="M 0,0 H -6.369" />
    <path
       id="path118"
       transform="translate(32.7881,28.3867)"
       d="M 0,0 H 6.369" />
    <path
       id="path120"
       transform="translate(41.7051,28.3867)"
       d="M 0,0 H 6.368" />
    <path
       id="path122"
       transform="translate(50.6211,28.3867)"
       d="M 0,0 H 2.963" />
    <path
       id="path124"
       transform="translate(7.9492,25.5352)"
       d="M 0,0 H -6.369" />
    <path
       id="path126"
       transform="translate(16.8652,25.5352)"
       d="M 0,0 H -6.369" />
    <path
       id="path128"
       transform="translate(25.7822,25.5352)"
       d="M 0,0 H -6.369" />
    <path
       id="path130"
       transform="translate(28.3301,25.5352)"
       d="M 0,0 H 6.368" />
    <path
       id="path132"
       transform="translate(43.6152,25.5352)"
       d="M 0,0 H -6.369" />
    <path
       id="path134"
       transform="translate(46.1631,25.5352)"
       d="M 0,0 H 6.369" />
    <path
       id="path136"
       transform="translate(2.9805,22.4463)"
       d="M 0,0 H -2.98" />
    <path
       id="path138"
       transform="translate(11.9297,22.4463)"
       d="M 0,0 H -6.369" />
    <path
       id="path140"
       transform="translate(14.4775,22.4463)"
       d="M 0,0 H 6.368" />
    <path
       id="path142"
       transform="translate(23.3936,22.4463)"
       d="M 0,0 H 6.369" />
    <path
       id="path144"
       transform="translate(32.3106,22.4463)"
       d="M 0,0 H 6.369" />
    <path
       id="path146"
       transform="translate(41.2266,22.4463)"
       d="M 0,0 H 6.369" />
    <path
       id="path148"
       transform="translate(50.1436,22.4463)"
       d="M 0,0 H 3.44" />
    <path
       id="path150"
       transform="translate(6.834,19.3115)"
       d="M 0,0 H -6.369" />
    <path
       id="path152"
       transform="translate(15.751,19.3115)"
       d="M 0,0 H -6.369" />
    <path
       id="path154"
       transform="translate(24.668,19.3115)"
       d="M 0,0 H -6.369" />
    <path
       id="path156"
       transform="translate(27.2149,19.3115)"
       d="M 0,0 H 6.369" />
    <path
       id="path158"
       transform="translate(42.501,19.3115)"
       d="M 0,0 H -6.369" />
    <path
       id="path160"
       transform="translate(45.0488,19.3115)"
       d="M 0,0 H 6.368" />
    <path
       id="path162"
       transform="translate(0,16.3418)"
       d="M 0,0 H 2.184" />
    <path
       id="path164"
       transform="translate(4.7647,16.3418)"
       d="M 0,0 H 6.369" />
    <path
       id="path166"
       transform="translate(20.0498,16.3418)"
       d="M 0,0 H -6.369" />
    <path
       id="path168"
       transform="translate(22.5977,16.3418)"
       d="M 0,0 H 6.369" />
    <path
       id="path170"
       transform="translate(31.5147,16.3418)"
       d="M 0,0 H 6.368" />
    <path
       id="path172"
       transform="translate(40.4307,16.3418)"
       d="M 0,0 H 6.369" />
    <path
       id="path174"
       transform="translate(49.3477,16.3418)"
       d="M 0,0 H 4.236" />
    <path
       id="path176"
       transform="translate(6.0381,13.3711)"
       d="M 0,0 H -6.038" />
    <path
       id="path178"
       transform="translate(14.9551,13.3711)"
       d="M 0,0 H -6.369" />
    <path
       id="path180"
       transform="translate(23.8711,13.3711)"
       d="M 0,0 H -6.369" />
    <path
       id="path182"
       transform="translate(26.419,13.3711)"
       d="M 0,0 H 6.369" />
    <path
       id="path184"
       transform="translate(35.3359,13.3711)"
       d="M 0,0 H 6.369" />
    <path
       id="path186"
       transform="translate(44.252,13.3711)"
       d="M 0,0 H 6.369" />
    <path
       id="path188"
       transform="translate(53.584,13.3711)"
       d="M 0,0 H -0.415" />
    <path
       id="path190"
       transform="translate(0,10.5752)"
       d="M 0,0 H 3.14" />
    <path
       id="path192"
       transform="translate(12.0889,10.5752)"
       d="M 0,0 H -6.369" />
    <path
       id="path194"
       transform="translate(14.6367,10.5752)"
       d="M 0,0 H 6.369" />
    <path
       id="path196"
       transform="translate(23.5527,10.5752)"
       d="M 0,0 H 6.369" />
    <path
       id="path198"
       transform="translate(32.4697,10.5752)"
       d="M 0,0 H 6.369" />
    <path
       id="path200"
       transform="translate(47.7549,10.5752)"
       d="M 0,0 H -6.369" />
    <path
       id="path202"
       transform="translate(50.3027,10.5752)"
       d="M 0,0 H 3.281" />
    <path
       id="path204"
       transform="translate(8.2676,7.4404)"
       d="M 0,0 H -6.369" />
    <path
       id="path206"
       transform="translate(17.1836,7.4404)"
       d="M 0,0 H -6.369" />
    <path
       id="path208"
       transform="translate(26.1006,7.4404)"
       d="M 0,0 H -6.369" />
    <path
       id="path210"
       transform="translate(35.0176,7.4404)"
       d="M 0,0 H -6.369" />
    <path
       id="path212"
       transform="translate(37.5645,7.4404)"
       d="M 0,0 H 6.369" />
    <path
       id="path214"
       transform="translate(46.4815,7.4404)"
       d="M 0,0 H 6.369" />
    <path
       id="path216"
       transform="translate(4.7315,4.4707)"
       d="M 0,0 H -4.732" />
    <path
       id="path218"
       transform="translate(7.3115,4.4707)"
       d="M 0,0 H 6.369" />
    <path
       id="path220"
       transform="translate(16.2285,4.4707)"
       d="M 0,0 H 6.369" />
    <path
       id="path222"
       transform="translate(25.1455,4.4707)"
       d="M 0,0 H 6.369" />
    <path
       id="path224"
       transform="translate(34.0615,4.4707)"
       d="M 0,0 H 6.369" />
    <path
       id="path226"
       transform="translate(42.9785,4.4707)"
       d="M 0,0 H 6.369" />
    <path
       id="path228"
       transform="translate(51.8955,4.4707)"
       d="M 0,0 H 1.688" />
    <path
       id="path230"
       transform="translate(8.5859,1.501)"
       d="M 0,0 H -6.369" />
    <path
       id="path232"
       transform="translate(17.502,1.501)"
       d="M 0,0 H -6.368" />
    <path
       id="path234"
       transform="translate(26.419,1.501)"
       d="M 0,0 H -6.369" />
    <path
       id="path236"
       transform="translate(35.3359,1.501)"
       d="M 0,0 H -6.369" />
    <path
       id="path238"
       transform="translate(44.252,1.501)"
       d="M 0,0 H -6.369" />
    <path
       id="path240"
       transform="translate(53.169,1.501)"
       d="M 0,0 H -6.369" />
  </g>
</svg>
