<?xml version="1.0" encoding="UTF-8" standalone="no"?>
<svg
   xmlns:dc="http://purl.org/dc/elements/1.1/"
   xmlns:cc="http://creativecommons.org/ns#"
   xmlns:rdf="http://www.w3.org/1999/02/22-rdf-syntax-ns#"
   xmlns:svg="http://www.w3.org/2000/svg"
   xmlns="http://www.w3.org/2000/svg"
   height="54.125"
   width="54.125"
   id="svg494"
   version="1.1">
  <defs
     id="defs498" />
  <metadata
     id="metadata2">citation: U.S. Geological Survey, 2006, FGDC Digital Cartographic Standard for Geologic Map Symbolization (PostScript Implementation): U.S. Geological Survey Techniques and Methods 11-A2 [pubs.usgs.gov/tm/2006/11A02/]. converted by CEC Geology LLC 2018 from the USGS lithologic gs converted to inkscape by the University of Otago.<rdf:RDF>
  <cc:Work
     rdf:about="">
    <dc:format>image/svg+xml</dc:format>
    <dc:type
       rdf:resource="http://purl.org/dc/dcmitype/StillImage" />
    <dc:title></dc:title>
  </cc:Work>
</rdf:RDF>
</metadata>
  <g
     stroke-width=".3"
     stroke="#231f20"
     fill="none"

     id="g492"
     width="54.125"
     height="54.125">
    <path
       id="path4"
       transform="translate(0,50.375)"
       d="M 0,0 H 54.125" />
    <path
       id="path6"
       transform="translate(0,46.2)"
       d="M 0,0 H 54.125" />
    <path
       id="path8"
       transform="translate(0,42.0125)"
       d="M 0,0 H 54.125" />
    <path
       id="path10"
       transform="translate(0,12.3997)"
       d="M 0,0 H 54.188" />
    <path
       id="path12"
       transform="translate(0,8.6246)"
       d="M 0,0 H 54.125" />
    <path
       id="path14"
       transform="translate(0,37.9937)"
       d="M 0,0 H 54.125" />
    <path
       id="path16"
       transform="translate(0,34.7123)"
       d="M 0,0 H 54.125" />
    <path
       id="path18"
       transform="translate(0,31.2873)"
       d="M 0,0 H 54.125" />
    <path
       id="path20"
       transform="translate(0,27.2373)"
       d="M 0,0 H 54.125" />
    <path
       id="path22"
       transform="translate(0,23.4373)"
       d="M 0,0 H 54.125" />
    <path
       id="path24"
       transform="translate(0,19.2373)"
       d="M 0,0 H 54.188" />
    <path
       id="path26"
       transform="translate(0,16.0123)"
       d="M 0,0 H 54.125" />
    <path
       id="path28"
       transform="translate(0,0.8374)"
       d="M 0,0 H 54.125" />
    <path
       id="path30"
       transform="translate(5.925,54.125)"
       d="M 0,0 V -3.75" />
    <path
       id="path32"
       transform="translate(18.675,54.125)"
       d="M 0,0 V -3.75" />
    <path
       id="path34"
       transform="translate(32.175,54.125)"
       d="M 0,0 V -3.75" />
    <path
       id="path36"
       transform="translate(46.55,54.125)"
       d="M 0,0 V -3.75" />
    <path
       id="path38"
       transform="translate(5.925,0.8499)"
       d="M 0,0 V -0.85" />
    <path
       id="path40"
       transform="translate(18.675,0.8499)"
       d="M 0,0 V -0.85" />
    <path
       id="path42"
       transform="translate(32.175,0.8499)"
       d="M 0,0 V -0.85" />
    <path
       id="path44"
       transform="translate(46.55,0.8499)"
       d="M 0,0 V -0.85" />
    <path
       id="path46"
       transform="translate(12.6,50.4375)"
       d="M 0,0 V -4.225" />
    <path
       id="path48"
       transform="translate(27.475,50.4375)"
       d="M 0,0 V -4.225" />
    <path
       id="path50"
       transform="translate(41.1,50.4375)"
       d="M 0,0 V -4.225" />
    <path
       id="path52"
       transform="translate(53.925,50.4375)"
       d="M 0,0 V -4.225" />
    <path
       id="path54"
       transform="translate(7.0375,46.075)"
       d="M 0,0 V -4.05" />
    <path
       id="path56"
       transform="translate(20.2875,46.075)"
       d="M 0,0 V -4.05" />
    <path
       id="path58"
       transform="translate(33.85,46.075)"
       d="M 0,0 V -4.05" />
    <path
       id="path60"
       transform="translate(48.7875,46.075)"
       d="M 0,0 V -4.05" />
    <path
       id="path62"
       transform="translate(40.1625,42.0249)"
       d="M 0,0 V -4" />
    <path
       id="path64"
       transform="translate(26.7875,42.0249)"
       d="M 0,0 V -4" />
    <path
       id="path66"
       transform="translate(11.9125,42.0249)"
       d="M 0,0 V -4" />
    <path
       id="path68"
       transform="translate(53.4125,42.0249)"
       d="M 0,0 V -4" />
    <path
       id="path70"
       transform="translate(46.55,38.025)"
       d="M 0,0 V -3.3" />
    <path
       id="path72"
       transform="translate(31.925,38.025)"
       d="M 0,0 V -3.3" />
    <path
       id="path74"
       transform="translate(18.675,38.025)"
       d="M 0,0 V -3.3" />
    <path
       id="path76"
       transform="translate(5.925,38.025)"
       d="M 0,0 V -3.3" />
    <path
       id="path78"
       transform="translate(12.475,34.7248)"
       d="M 0,0 V -3.425" />
    <path
       id="path80"
       transform="translate(27.475,34.7248)"
       d="M 0,0 V -3.425" />
    <path
       id="path82"
       transform="translate(41.225,34.7248)"
       d="M 0,0 V -3.425" />
    <path
       id="path84"
       transform="translate(53.975,34.7248)"
       d="M 0,0 V -3.425" />
    <path
       id="path86"
       transform="translate(6.6625,31.2998)"
       d="M 0,0 V -4.05" />
    <path
       id="path88"
       transform="translate(20.1625,31.2998)"
       d="M 0,0 V -4.05" />
    <path
       id="path90"
       transform="translate(33.7875,31.2998)"
       d="M 0,0 V -4.05" />
    <path
       id="path92"
       transform="translate(48.6625,31.2998)"
       d="M 0,0 V -4.05" />
    <path
       id="path94"
       transform="translate(40.0375,27.1873)"
       d="M 0,0 V -3.738" />
    <path
       id="path96"
       transform="translate(26.7126,27.1873)"
       d="M 0,0 V -3.738" />
    <path
       id="path98"
       transform="translate(11.7126,27.1873)"
       d="M 0,0 V -3.738" />
    <path
       id="path100"
       transform="translate(53.2667,27.1873)"
       d="M 0,0 V -3.738" />
    <path
       id="path102"
       transform="translate(5.5251,23.3873)"
       d="M 0,0 V -4.137" />
    <path
       id="path104"
       transform="translate(18.5251,23.3873)"
       d="M 0,0 V -4.137" />
    <path
       id="path106"
       transform="translate(32.1501,23.3873)"
       d="M 0,0 V -4.137" />
    <path
       id="path108"
       transform="translate(46.4001,23.3873)"
       d="M 0,0 V -4.137" />
    <path
       id="path110"
       transform="translate(42.2,19.1873)"
       d="M 0,0 V -3.163" />
    <path
       id="path112"
       transform="translate(28.05,19.1873)"
       d="M 0,0 V -3.163" />
    <path
       id="path114"
       transform="translate(12.925,19.1873)"
       d="M 0,0 V -3.163" />
    <path
       id="path116"
       transform="translate(0.5083,19.1873)"
       d="M 0,0 V -3.163" />
    <path
       id="path118"
       transform="translate(6.8833,15.9623)"
       d="M 0,0 V -3.563" />
    <path
       id="path120"
       transform="translate(20.1333,15.9623)"
       d="M 0,0 V -3.563" />
    <path
       id="path122"
       transform="translate(33.7583,15.9623)"
       d="M 0,0 V -3.563" />
    <path
       id="path124"
       transform="translate(48.6333,15.9623)"
       d="M 0,0 V -3.563" />
    <path
       id="path126"
       transform="translate(40.2834,12.3497)"
       d="M 0,0 V -3.763" />
    <path
       id="path128"
       transform="translate(26.4084,12.3497)"
       d="M 0,0 V -3.763" />
    <path
       id="path130"
       transform="translate(11.8583,12.3497)"
       d="M 0,0 V -3.763" />
    <path
       id="path132"
       transform="translate(53.7333,12.3497)"
       d="M 0,0 V -3.763" />
    <path
       id="path134"
       transform="translate(0,4.2122)"
       d="M 0,0 H 54.125" />
    <path
       id="path136"
       transform="translate(10.2958,4.2375)"
       d="M 0,0 V -3.463" />
    <path
       id="path138"
       transform="translate(24.7333,4.2375)"
       d="M 0,0 V -3.463" />
    <path
       id="path140"
       transform="translate(38.3583,4.2375)"
       d="M 0,0 V -3.463" />
    <path
       id="path142"
       transform="translate(51.7333,4.2375)"
       d="M 0,0 V -3.463" />
    <path
       id="path144"
       transform="translate(4.5708,8.5873)"
       d="M 0,0 V -4.35" />
    <path
       id="path146"
       transform="translate(17.5708,8.5873)"
       d="M 0,0 V -4.35" />
    <path
       id="path148"
       transform="translate(31.5708,8.5873)"
       d="M 0,0 V -4.35" />
    <path
       id="path150"
       transform="translate(46.1333,8.5873)"
       d="M 0,0 V -4.35" />
    <path
       id="path152"
       transform="translate(11.0625,44.8374)"
       d="M 0,0 -1.875,-1.625" />
    <path
       id="path154"
       transform="translate(14.375,43.1499)"
       d="M 0,0 -1.125,1.75" />
    <path
       id="path156"
       transform="translate(18.9375,44.7124)"
       d="M 0,0 -2.375,-1.5" />
    <path
       id="path158"
       transform="translate(38.25,44.8374)"
       d="M 0,0 -1.875,-1.625" />
    <path
       id="path160"
       transform="translate(41.5625,43.1499)"
       d="M 0,0 -1.125,1.75" />
    <path
       id="path162"
       transform="translate(46.625,44.7124)"
       d="M 0,0 -2.375,-1.5" />
    <path
       id="path164"
       transform="translate(43.875,40.7124)"
       d="M 0,0 -1.875,-1.625" />
    <path
       id="path166"
       transform="translate(47.1875,39.0249)"
       d="M 0,0 -1.125,1.75" />
    <path
       id="path168"
       transform="translate(51.75,40.5874)"
       d="M 0,0 -2.375,-1.5" />
    <path
       id="path170"
       transform="translate(16.5,40.8374)"
       d="M 0,0 -1.875,-1.625" />
    <path
       id="path172"
       transform="translate(19.8125,39.1499)"
       d="M 0,0 -1.125,1.75" />
    <path
       id="path174"
       transform="translate(24.375,40.7124)"
       d="M 0,0 -2.375,-1.5" />
    <path
       id="path176"
       transform="translate(22.375,37.2124)"
       d="M 0,0 -1.875,-1.625" />
    <path
       id="path178"
       transform="translate(25.6875,35.5249)"
       d="M 0,0 -1.125,1.75" />
    <path
       id="path180"
       transform="translate(30.25,37.0874)"
       d="M 0,0 -2.375,-1.5" />
    <path
       id="path182"
       transform="translate(8.1875,7.1499)"
       d="M 0,0 -1.875,-1.625" />
    <path
       id="path184"
       transform="translate(11.5,5.4624)"
       d="M 0,0 -1.125,1.75" />
    <path
       id="path186"
       transform="translate(16.0625,7.0249)"
       d="M 0,0 -2.375,-1.5" />
    <path
       id="path188"
       transform="translate(14.625,3.2124)"
       d="M 0,0 -1.875,-1.625" />
    <path
       id="path190"
       transform="translate(17.9375,1.5249)"
       d="M 0,0 -1.125,1.75" />
    <path
       id="path192"
       transform="translate(22.5,3.0874)"
       d="M 0,0 -2.375,-1.5" />
    <path
       id="path194"
       transform="translate(41.875,3.3999)"
       d="M 0,0 -1.875,-1.625" />
    <path
       id="path196"
       transform="translate(45.1875,1.7124)"
       d="M 0,0 -1.125,1.75" />
    <path
       id="path198"
       transform="translate(49.75,3.2749)"
       d="M 0,0 -2.375,-1.5" />
    <path
       id="path200"
       transform="translate(36,7.0249)"
       d="M 0,0 -1.875,-1.625" />
    <path
       id="path202"
       transform="translate(39.3125,5.3374)"
       d="M 0,0 -1.125,1.75" />
    <path
       id="path204"
       transform="translate(43.875,6.8999)"
       d="M 0,0 -2.375,-1.5" />
    <path
       id="path206"
       transform="translate(30.625,11.2749)"
       d="M 0,0 -1.875,-1.625" />
    <path
       id="path208"
       transform="translate(33.9375,9.5874)"
       d="M 0,0 -1.125,1.75" />
    <path
       id="path210"
       transform="translate(38.5,11.1499)"
       d="M 0,0 -2.375,-1.5" />
    <path
       id="path212"
       transform="translate(2.875,11.3999)"
       d="M 0,0 -1.875,-1.625" />
    <path
       id="path214"
       transform="translate(5.6875,9.7124)"
       d="M 0,0 -1.125,1.75" />
    <path
       id="path216"
       transform="translate(10.25,11.2749)"
       d="M 0,0 -2.375,-1.5" />
    <path
       id="path218"
       transform="translate(10.6875,14.8374)"
       d="M 0,0 -1.875,-1.625" />
    <path
       id="path220"
       transform="translate(14,13.1499)"
       d="M 0,0 -1.125,1.75" />
    <path
       id="path222"
       transform="translate(18.5625,14.7124)"
       d="M 0,0 -2.375,-1.5" />
    <path
       id="path224"
       transform="translate(38.0625,15.0249)"
       d="M 0,0 -1.875,-1.625" />
    <path
       id="path226"
       transform="translate(41.375,13.3374)"
       d="M 0,0 -1.125,1.75" />
    <path
       id="path228"
       transform="translate(45.9375,14.8999)"
       d="M 0,0 -2.375,-1.5" />
    <path
       id="path230"
       transform="translate(45.875,18.4624)"
       d="M 0,0 -1.875,-1.625" />
    <path
       id="path232"
       transform="translate(48.8375,16.7749)"
       d="M 0,0 -1.125,1.75" />
    <path
       id="path234"
       transform="translate(52.7999,18.3374)"
       d="M 0,0 -2.375,-1.5" />
    <path
       id="path236"
       transform="translate(17.75,18.3374)"
       d="M 0,0 -1.875,-1.625" />
    <path
       id="path238"
       transform="translate(21.0625,16.6499)"
       d="M 0,0 -1.125,1.75" />
    <path
       id="path240"
       transform="translate(25.625,18.2124)"
       d="M 0,0 -2.375,-1.5" />
    <path
       id="path242"
       transform="translate(22.5,22.0874)"
       d="M 0,0 -1.875,-1.625" />
    <path
       id="path244"
       transform="translate(25.8125,20.3999)"
       d="M 0,0 -1.125,1.75" />
    <path
       id="path246"
       transform="translate(30.375,21.9624)"
       d="M 0,0 -2.375,-1.5" />
    <path
       id="path248"
       transform="translate(30.5,26.2124)"
       d="M 0,0 -1.875,-1.625" />
    <path
       id="path250"
       transform="translate(33.8125,24.5249)"
       d="M 0,0 -1.125,1.75" />
    <path
       id="path252"
       transform="translate(38.375,26.0874)"
       d="M 0,0 -2.375,-1.5" />
    <path
       id="path254"
       transform="translate(2.375,26.0874)"
       d="M 0,0 -1.875,-1.625" />
    <path
       id="path256"
       transform="translate(5.6875,24.3999)"
       d="M 0,0 -1.125,1.75" />
    <path
       id="path258"
       transform="translate(10.25,25.9624)"
       d="M 0,0 -2.375,-1.5" />
    <path
       id="path260"
       transform="translate(5.25,29.9624)"
       d="M 0,0 -1.5,-1.712" />
    <path
       id="path262"
       transform="translate(3.625,22.0874)"
       d="M 0,0 -2.375,-1.5" />
    <path
       id="path264"
       transform="translate(16.875,33.7124)"
       d="M 0,0 -1.875,-1.625" />
    <path
       id="path266"
       transform="translate(20.1875,32.0249)"
       d="M 0,0 -1.125,1.75" />
    <path
       id="path268"
       transform="translate(24.75,33.5874)"
       d="M 0,0 -2.375,-1.5" />
    <path
       id="path270"
       transform="translate(23.75,30.0874)"
       d="M 0,0 -1.875,-1.625" />
    <path
       id="path272"
       transform="translate(27.0625,28.3999)"
       d="M 0,0 -1.125,1.75" />
    <path
       id="path274"
       transform="translate(31.625,29.9624)"
       d="M 0,0 -2.375,-1.5" />
    <path
       id="path276"
       transform="translate(44.5,33.8374)"
       d="M 0,0 -1.875,-1.625" />
    <path
       id="path278"
       transform="translate(47.8125,32.1499)"
       d="M 0,0 -1.125,1.75" />
    <path
       id="path280"
       transform="translate(52.375,33.7124)"
       d="M 0,0 -2.375,-1.5" />
    <path
       id="path282"
       transform="translate(3.625,36.9624)"
       d="M 0,0 -2.375,-1.5" />
    <path
       id="path284"
       transform="translate(17,49.0874)"
       d="M 0,0 -1.875,-1.625" />
    <path
       id="path286"
       transform="translate(20.3125,47.3999)"
       d="M 0,0 -1.125,1.75" />
    <path
       id="path288"
       transform="translate(24.875,48.9624)"
       d="M 0,0 -2.375,-1.5" />
    <path
       id="path290"
       transform="translate(44.5,48.9624)"
       d="M 0,0 -1.875,-1.625" />
    <path
       id="path292"
       transform="translate(47.8125,47.2749)"
       d="M 0,0 -1.125,1.75" />
    <path
       id="path294"
       transform="translate(52.375,48.8374)"
       d="M 0,0 -2.375,-1.5" />
    <path
       id="path296"
       transform="translate(22.6875,53.2575)"
       d="M 0,0 -1.875,-1.625" />
    <path
       id="path298"
       transform="translate(26,51.57)"
       d="M 0,0 -1.125,1.75" />
    <path
       id="path300"
       transform="translate(30.5625,53.1325)"
       d="M 0,0 -2.375,-1.5" />
    <path
       id="path302"
       transform="translate(50.3125,53.195)"
       d="M 0,0 -1.875,-1.625" />
    <path
       id="path304"
       transform="translate(53.625,51.5075)"
       d="M 0,0 -1.125,1.75" />
    <path
       id="path306"
       transform="translate(4.1875,53.1325)"
       d="M 0,0 -2.375,-1.5" />
    <path
       id="path308"
       transform="translate(52.1263,43.0874)"
       d="M 0,0 -1.875,1.625" />
    <path
       id="path310"
       transform="translate(1.4388,44.7749)"
       d="M 0,0 -1.125,-1.75" />
    <path
       id="path312"
       transform="translate(5.2513,43.2124)"
       d="M 0,0 -2.375,1.5" />
    <path
       id="path314"
       transform="translate(23.8125,43.0874)"
       d="M 0,0 -1.875,1.625" />
    <path
       id="path316"
       transform="translate(27.5625,44.7124)"
       d="M 0,0 -1.125,-1.75" />
    <path
       id="path318"
       transform="translate(32.0625,43.1499)"
       d="M 0,0 -2.375,1.5" />
    <path
       id="path320"
       transform="translate(2.8589,39.1499)"
       d="M 0,0 -1.875,1.625" />
    <path
       id="path322"
       transform="translate(5.6714,40.8374)"
       d="M 0,0 -1.125,-1.75" />
    <path
       id="path324"
       transform="translate(10.2339,39.2749)"
       d="M 0,0 -2.375,1.5" />
    <path
       id="path326"
       transform="translate(30.5625,39.1499)"
       d="M 0,0 -1.875,1.625" />
    <path
       id="path328"
       transform="translate(33.875,40.8374)"
       d="M 0,0 -1.125,-1.75" />
    <path
       id="path330"
       transform="translate(38.4375,39.2749)"
       d="M 0,0 -2.375,1.5" />
    <path
       id="path332"
       transform="translate(36.125,35.4624)"
       d="M 0,0 -1.875,1.625" />
    <path
       id="path334"
       transform="translate(39.4375,37.1499)"
       d="M 0,0 -1.125,-1.75" />
    <path
       id="path336"
       transform="translate(44,35.5874)"
       d="M 0,0 -2.375,1.5" />
    <path
       id="path338"
       transform="translate(31.5,32.0874)"
       d="M 0,0 -1.875,1.625" />
    <path
       id="path340"
       transform="translate(34.8125,33.7749)"
       d="M 0,0 -1.125,-1.75" />
    <path
       id="path342"
       transform="translate(39.375,32.2124)"
       d="M 0,0 -2.375,1.5" />
    <path
       id="path344"
       transform="translate(9.25,35.3999)"
       d="M 0,0 -1.875,1.625" />
    <path
       id="path346"
       transform="translate(12.5625,37.0874)"
       d="M 0,0 -1.125,-1.75" />
    <path
       id="path348"
       transform="translate(17.125,35.5249)"
       d="M 0,0 -2.375,1.5" />
    <path
       id="path350"
       transform="translate(3.4625,32.1499)"
       d="M 0,0 -1.875,1.625" />
    <path
       id="path352"
       transform="translate(6.125,33.8374)"
       d="M 0,0 -1.125,-1.75" />
    <path
       id="path354"
       transform="translate(10.6875,32.2749)"
       d="M 0,0 -2.375,1.5" />
    <path
       id="path356"
       transform="translate(10.25,28.2124)"
       d="M 0,0 -1.875,1.625" />
    <path
       id="path358"
       transform="translate(13.5625,29.8999)"
       d="M 0,0 -1.125,-1.75" />
    <path
       id="path360"
       transform="translate(18.125,28.3374)"
       d="M 0,0 -2.375,1.5" />
    <path
       id="path362"
       transform="translate(16,24.5249)"
       d="M 0,0 -1.875,1.625" />
    <path
       id="path364"
       transform="translate(19.3125,26.2124)"
       d="M 0,0 -1.125,-1.75" />
    <path
       id="path366"
       transform="translate(23.875,24.6499)"
       d="M 0,0 -2.375,1.5" />
    <path
       id="path368"
       transform="translate(8.875,20.5249)"
       d="M 0,0 -1.875,1.625" />
    <path
       id="path370"
       transform="translate(12.1875,22.2124)"
       d="M 0,0 -1.125,-1.75" />
    <path
       id="path372"
       transform="translate(16.75,20.6499)"
       d="M 0,0 -2.375,1.5" />
    <path
       id="path374"
       transform="translate(4.2,16.7749)"
       d="M 0,0 -1.875,1.625" />
    <path
       id="path376"
       transform="translate(7.3795,18.4624)"
       d="M 0,0 -1.125,-1.75" />
    <path
       id="path378"
       transform="translate(11.375,16.8999)"
       d="M 0,0 -2.375,1.5" />
    <path
       id="path380"
       transform="translate(36.25,20.3999)"
       d="M 0,0 -1.875,1.625" />
    <path
       id="path382"
       transform="translate(39.5625,22.0874)"
       d="M 0,0 -1.125,-1.75" />
    <path
       id="path384"
       transform="translate(44.125,20.5249)"
       d="M 0,0 -2.375,1.5" />
    <path
       id="path386"
       transform="translate(43.4375,24.3999)"
       d="M 0,0 -1.875,1.625" />
    <path
       id="path388"
       transform="translate(46.75,26.0874)"
       d="M 0,0 -1.125,-1.75" />
    <path
       id="path390"
       transform="translate(51.3125,24.5249)"
       d="M 0,0 -2.375,1.5" />
    <path
       id="path392"
       transform="translate(38.4375,28.2124)"
       d="M 0,0 -1.875,1.625" />
    <path
       id="path394"
       transform="translate(41.75,29.8999)"
       d="M 0,0 -1.125,-1.75" />
    <path
       id="path396"
       transform="translate(46.3125,28.3374)"
       d="M 0,0 -2.375,1.5" />
    <path
       id="path398"
       transform="translate(32.1875,16.7124)"
       d="M 0,0 -1.875,1.625" />
    <path
       id="path400"
       transform="translate(35.5,18.3999)"
       d="M 0,0 -1.125,-1.75" />
    <path
       id="path402"
       transform="translate(40.0625,16.8374)"
       d="M 0,0 -2.375,1.5" />
    <path
       id="path404"
       transform="translate(23.75,13.2124)"
       d="M 0,0 -1.875,1.625" />
    <path
       id="path406"
       transform="translate(27.0625,14.8999)"
       d="M 0,0 -1.125,-1.75" />
    <path
       id="path408"
       transform="translate(31.625,13.3374)"
       d="M 0,0 -2.375,1.5" />
    <path
       id="path410"
       transform="translate(0.875,15.0249)"
       d="M 0,0 -1.125,-1.75" />
    <path
       id="path412"
       transform="translate(5.4375,13.4624)"
       d="M 0,0 -2.375,1.5" />
    <path
       id="path414"
       transform="translate(15.8125,9.5874)"
       d="M 0,0 -1.875,1.625" />
    <path
       id="path416"
       transform="translate(19.125,11.2749)"
       d="M 0,0 -1.125,-1.75" />
    <path
       id="path418"
       transform="translate(23.6875,9.7124)"
       d="M 0,0 -2.375,1.5" />
    <path
       id="path420"
       transform="translate(44.0625,9.5874)"
       d="M 0,0 -1.875,1.625" />
    <path
       id="path422"
       transform="translate(47.375,11.2749)"
       d="M 0,0 -1.125,-1.75" />
    <path
       id="path424"
       transform="translate(51.9375,9.7124)"
       d="M 0,0 -2.375,1.5" />
    <path
       id="path426"
       transform="translate(21.375,5.4624)"
       d="M 0,0 -1.875,1.625" />
    <path
       id="path428"
       transform="translate(24.6875,7.1499)"
       d="M 0,0 -1.125,-1.75" />
    <path
       id="path430"
       transform="translate(29.25,5.5874)"
       d="M 0,0 -2.375,1.5" />
    <path
       id="path432"
       transform="translate(28.5,1.5249)"
       d="M 0,0 -1.875,1.625" />
    <path
       id="path434"
       transform="translate(31.8125,3.2124)"
       d="M 0,0 -1.125,-1.75" />
    <path
       id="path436"
       transform="translate(36.375,1.6499)"
       d="M 0,0 -2.375,1.5" />
    <path
       id="path438"
       transform="translate(1.275,1.5874)"
       d="M 0,0 -1.875,1.625" />
    <path
       id="path440"
       transform="translate(4.5875,3.2749)"
       d="M 0,0 -1.125,-1.75" />
    <path
       id="path442"
       transform="translate(8.9,1.7124)"
       d="M 0,0 -2.375,1.5" />
    <path
       id="path444"
       transform="translate(2.6875,5.6499)"
       d="M 0,0 -2.375,1.5" />
    <path
       id="path446"
       transform="translate(36.25,51.3825)"
       d="M 0,0 -1.875,1.625" />
    <path
       id="path448"
       transform="translate(39.5625,53.07)"
       d="M 0,0 -1.125,-1.75" />
    <path
       id="path450"
       transform="translate(44.125,51.5075)"
       d="M 0,0 -2.375,1.5" />
    <path
       id="path452"
       transform="translate(9.3125,51.6325)"
       d="M 0,0 -1.875,1.625" />
    <path
       id="path454"
       transform="translate(12.625,53.32)"
       d="M 0,0 -1.125,-1.75" />
    <path
       id="path456"
       transform="translate(17.1875,51.7575)"
       d="M 0,0 -2.375,1.5" />
    <path
       id="path458"
       transform="translate(3.3625,47.2749)"
       d="M 0,0 -1.875,1.625" />
    <path
       id="path460"
       transform="translate(6.125,48.9624)"
       d="M 0,0 -1.125,-1.75" />
    <path
       id="path462"
       transform="translate(10.6875,47.3999)"
       d="M 0,0 -2.375,1.5" />
    <path
       id="path464"
       transform="translate(31.0625,47.3374)"
       d="M 0,0 -1.875,1.625" />
    <path
       id="path466"
       transform="translate(34.375,49.0249)"
       d="M 0,0 -1.125,-1.75" />
    <path
       id="path468"
       transform="translate(38.9375,47.4624)"
       d="M 0,0 -2.375,1.5" />
    <path
       id="path470"
       transform="translate(52.875,29.9624)"
       d="M 0,0 -1.875,-1.625" />
    <path
       id="path472"
       transform="translate(1.8125,28.2749)"
       d="M 0,0 -1.125,1.75" />
    <path
       id="path474"
       transform="translate(49.875,22.2124)"
       d="M 0,0 -1.875,-1.625" />
    <path
       id="path476"
       transform="translate(53.1875,20.5249)"
       d="M 0,0 -1.125,1.75" />
    <path
       id="path478"
       transform="translate(49.875,37.0874)"
       d="M 0,0 -1.875,-1.625" />
    <path
       id="path480"
       transform="translate(53.1875,35.3999)"
       d="M 0,0 -1.125,1.75" />
    <path
       id="path482"
       transform="translate(51.6875,13.3374)"
       d="M 0,0 -1.875,1.625" />
    <path
       id="path484"
       transform="translate(55,15.0249)"
       d="M 0,0 -1.125,-1.75" />
    <path
       id="path486"
       transform="translate(55.4,1.5874)"
       d="M 0,0 -1.875,1.625" />
    <path
       id="path488"
       transform="translate(48.9375,5.5249)"
       d="M 0,0 -1.875,1.625" />
    <path
       id="path490"
       transform="translate(52.25,7.2124)"
       d="M 0,0 -1.125,-1.75" />
  </g>
</svg>
