<?xml version="1.0" encoding="UTF-8" standalone="no"?>
<svg
   xmlns:dc="http://purl.org/dc/elements/1.1/"
   xmlns:cc="http://creativecommons.org/ns#"
   xmlns:rdf="http://www.w3.org/1999/02/22-rdf-syntax-ns#"
   xmlns:svg="http://www.w3.org/2000/svg"
   xmlns="http://www.w3.org/2000/svg"
   id="svg150"
   version="1.1"
   height="46px"
   width="46px"		>
  <defs
     id="defs154" />
  <metadata
     id="metadata2">citation: U.S. Geological Survey, 2006, FGDC Digital Cartographic Standard for Geologic Map Symbolization (PostScript Implementation): U.S. Geological Survey Techniques and Methods 11-A2 [pubs.usgs.gov/tm/2006/11A02/]. converted by CEC Geology LLC 2018 from the USGS lithologic gs converted to inkscape by the University of Otago.<rdf:RDF>
  <cc:Work
     rdf:about="">
    <dc:format>image/svg+xml</dc:format>
    <dc:type
       rdf:resource="http://purl.org/dc/dcmitype/StillImage" />
    <dc:title></dc:title>
  </cc:Work>
</rdf:RDF>
</metadata>
  <g
     id="g148"
     width="46"
     stroke-width=".3"
     stroke="#231f20"
     height="46"
     fill="none">
    <path
       id="path4"
       transform="translate(5.0082 41.9709)"
       d="m0 0 2.313-3.188" />
    <path
       id="path6"
       transform="translate(7.3832 41.9709)"
       d="m0 0-2.375-3.25" />
    <path
       id="path8"
       transform="translate(12.6957 41.9709)"
       d="m0 0 2.313-3.188" />
    <path
       id="path10"
       transform="translate(15.0707 41.9709)"
       d="m0 0-2.375-3.25" />
    <path
       id="path12"
       transform="translate(20.2582 41.9709)"
       d="m0 0 2.313-3.188" />
    <path
       id="path14"
       transform="translate(22.6332 41.9709)"
       d="m0 0-2.375-3.25" />
    <path
       id="path16"
       transform="translate(27.8832 41.9709)"
       d="m0 0 2.313-3.188" />
    <path
       id="path18"
       transform="translate(30.2582 41.9709)"
       d="m0 0-2.375-3.25" />
    <path
       id="path20"
       transform="translate(35.5707 41.9709)"
       d="m0 0 2.313-3.188" />
    <path
       id="path22"
       transform="translate(37.9457 41.9709)"
       d="m0 0-2.375-3.25" />
    <path
       id="path24"
       transform="translate(43.3207 41.9709)"
       d="m0 0 2.313-3.188" />
    <path
       id="path26"
       transform="translate(45.6957 41.9709)"
       d="m0 0-2.375-3.25" />
    <path
       id="path28"
       transform="translate(1.1124 34.2834)"
       d="m0 0 2.313-3.188" />
    <path
       id="path30"
       transform="translate(3.4874 34.2834)"
       d="m0 0-2.375-3.25" />
    <path
       id="path32"
       transform="translate(8.7999 34.2834)"
       d="m0 0 2.313-3.188" />
    <path
       id="path34"
       transform="translate(11.1749 34.2834)"
       d="m0 0-2.375-3.25" />
    <path
       id="path36"
       transform="translate(16.3624 34.2834)"
       d="m0 0 2.313-3.188" />
    <path
       id="path38"
       transform="translate(18.7374 34.2834)"
       d="m0 0-2.375-3.25" />
    <path
       id="path40"
       transform="translate(23.9874 34.2834)"
       d="m0 0 2.313-3.188" />
    <path
       id="path42"
       transform="translate(26.3624 34.2834)"
       d="m0 0-2.375-3.25" />
    <path
       id="path44"
       transform="translate(31.6749 34.2834)"
       d="m0 0 2.313-3.188" />
    <path
       id="path46"
       transform="translate(34.0499 34.2834)"
       d="m0 0-2.375-3.25" />
    <path
       id="path48"
       transform="translate(39.4249 34.2834)"
       d="m0 0 2.313-3.188" />
    <path
       id="path50"
       transform="translate(41.7999 34.2834)"
       d="m0 0-2.375-3.25" />
    <path
       id="path52"
       transform="translate(5.029 26.5334)"
       d="m0 0 2.313-3.188" />
    <path
       id="path54"
       transform="translate(7.404 26.5334)"
       d="m0 0-2.375-3.25" />
    <path
       id="path56"
       transform="translate(12.7165 26.5334)"
       d="m0 0 2.313-3.188" />
    <path
       id="path58"
       transform="translate(15.0915 26.5334)"
       d="m0 0-2.375-3.25" />
    <path
       id="path60"
       transform="translate(20.279 26.5334)"
       d="m0 0 2.313-3.188" />
    <path
       id="path62"
       transform="translate(22.654 26.5334)"
       d="m0 0-2.375-3.25" />
    <path
       id="path64"
       transform="translate(27.904 26.5334)"
       d="m0 0 2.313-3.188" />
    <path
       id="path66"
       transform="translate(30.279 26.5334)"
       d="m0 0-2.375-3.25" />
    <path
       id="path68"
       transform="translate(35.5915 26.5334)"
       d="m0 0 2.313-3.188" />
    <path
       id="path70"
       transform="translate(37.9665 26.5334)"
       d="m0 0-2.375-3.25" />
    <path
       id="path72"
       transform="translate(43.3415 26.5334)"
       d="m0 0 2.313-3.188" />
    <path
       id="path74"
       transform="translate(45.7165 26.5334)"
       d="m0 0-2.375-3.25" />
    <path
       id="path76"
       transform="translate(.9457 18.7834)"
       d="m0 0 2.313-3.188" />
    <path
       id="path78"
       transform="translate(3.3207 18.7834)"
       d="m0 0-2.375-3.25" />
    <path
       id="path80"
       transform="translate(8.6332 18.7834)"
       d="m0 0 2.313-3.188" />
    <path
       id="path82"
       transform="translate(11.0082 18.7834)"
       d="m0 0-2.375-3.25" />
    <path
       id="path84"
       transform="translate(16.1957 18.7834)"
       d="m0 0 2.313-3.188" />
    <path
       id="path86"
       transform="translate(18.5707 18.7834)"
       d="m0 0-2.375-3.25" />
    <path
       id="path88"
       transform="translate(23.8207 18.7834)"
       d="m0 0 2.313-3.188" />
    <path
       id="path90"
       transform="translate(26.1957 18.7834)"
       d="m0 0-2.375-3.25" />
    <path
       id="path92"
       transform="translate(31.5082 18.7834)"
       d="m0 0 2.313-3.188" />
    <path
       id="path94"
       transform="translate(33.8832 18.7834)"
       d="m0 0-2.375-3.25" />
    <path
       id="path96"
       transform="translate(39.2582 18.7834)"
       d="m0 0 2.313-3.188" />
    <path
       id="path98"
       transform="translate(41.6332 18.7834)"
       d="m0 0-2.375-3.25" />
    <path
       id="path100"
       transform="translate(4.9457 11.2834)"
       d="m0 0 2.313-3.188" />
    <path
       id="path102"
       transform="translate(7.3207 11.2834)"
       d="m0 0-2.375-3.25" />
    <path
       id="path104"
       transform="translate(12.6332 11.2834)"
       d="m0 0 2.313-3.188" />
    <path
       id="path106"
       transform="translate(15.0082 11.2834)"
       d="m0 0-2.375-3.25" />
    <path
       id="path108"
       transform="translate(20.1957 11.2834)"
       d="m0 0 2.313-3.188" />
    <path
       id="path110"
       transform="translate(22.5707 11.2834)"
       d="m0 0-2.375-3.25" />
    <path
       id="path112"
       transform="translate(27.8207 11.2834)"
       d="m0 0 2.313-3.188" />
    <path
       id="path114"
       transform="translate(30.1957 11.2834)"
       d="m0 0-2.375-3.25" />
    <path
       id="path116"
       transform="translate(35.5082 11.2834)"
       d="m0 0 2.313-3.188" />
    <path
       id="path118"
       transform="translate(37.8832 11.2834)"
       d="m0 0-2.375-3.25" />
    <path
       id="path120"
       transform="translate(43.2582 11.2834)"
       d="m0 0 2.313-3.188" />
    <path
       id="path122"
       transform="translate(45.6332 11.2834)"
       d="m0 0-2.375-3.25" />
    <path
       id="path124"
       transform="translate(1.1124 3.6168)"
       d="m0 0 2.313-3.188" />
    <path
       id="path126"
       transform="translate(3.4874 3.6168)"
       d="m0 0-2.375-3.25" />
    <path
       id="path128"
       transform="translate(8.7999 3.6168)"
       d="m0 0 2.313-3.188" />
    <path
       id="path130"
       transform="translate(11.1749 3.6168)"
       d="m0 0-2.375-3.25" />
    <path
       id="path132"
       transform="translate(16.3624 3.6168)"
       d="m0 0 2.313-3.188" />
    <path
       id="path134"
       transform="translate(18.7374 3.6168)"
       d="m0 0-2.375-3.25" />
    <path
       id="path136"
       transform="translate(23.9874 3.6168)"
       d="m0 0 2.313-3.188" />
    <path
       id="path138"
       transform="translate(26.3624 3.6168)"
       d="m0 0-2.375-3.25" />
    <path
       id="path140"
       transform="translate(31.6749 3.6168)"
       d="m0 0 2.313-3.188" />
    <path
       id="path142"
       transform="translate(34.0499 3.6168)"
       d="m0 0-2.375-3.25" />
    <path
       id="path144"
       transform="translate(39.4249 3.6168)"
       d="m0 0 2.313-3.188" />
    <path
       id="path146"
       transform="translate(41.7999 3.6168)"
       d="m0 0-2.375-3.25" />
  </g>
</svg>
