<?xml version="1.0" encoding="UTF-8" standalone="no"?>
<svg
   xmlns:dc="http://purl.org/dc/elements/1.1/"
   xmlns:cc="http://creativecommons.org/ns#"
   xmlns:rdf="http://www.w3.org/1999/02/22-rdf-syntax-ns#"
   xmlns:svg="http://www.w3.org/2000/svg"
   xmlns="http://www.w3.org/2000/svg"
   height="54"
   width="54"
   id="svg348"
   version="1.1">
  <defs
     id="defs352" />
  <metadata
     id="metadata2">citation: U.S. Geological Survey, 2006, FGDC Digital Cartographic Standard for Geologic Map Symbolization (PostScript Implementation): U.S. Geological Survey Techniques and Methods 11-A2 [pubs.usgs.gov/tm/2006/11A02/]. converted by CEC Geology LLC 2018 from the USGS lithologic gs converted to inkscape by the University of Otago.<rdf:RDF>
  <cc:Work
     rdf:about="">
    <dc:format>image/svg+xml</dc:format>
    <dc:type
       rdf:resource="http://purl.org/dc/dcmitype/StillImage" />
    <dc:title></dc:title>
  </cc:Work>
</rdf:RDF>
</metadata>
  <g
     stroke-width=".3"
     stroke="#231f20"
     fill="none"

     transform="matrix(1,0,0,-1,0,54)"
     id="g346"
     width="54"
     height="54">
    <path
       id="path4"
       transform="translate(5.1665,39.5)"
       d="M 0,0 C 4.092,0.487 10.134,1.62 16.872,3.235" />
    <path
       id="path6"
       transform="translate(38.3301,47.271)"
       d="M 0,0 C -3.168,-1.015 -6.389,-1.959 -9.553,-2.816" />
    <path
       id="path8"
       transform="translate(54,53.25)"
       d="M 0,0 C -2.21,-1.032 -4.602,-2.03 -7.107,-2.988" />
    <path
       id="path10"
       transform="translate(38.3301,47.271)"
       d="M 0,0 C 2.931,0.939 5.815,1.94 8.563,2.991" />
    <path
       id="path12"
       transform="translate(22.0381,42.7353)"
       d="M 0,0 C 2.187,0.524 4.448,1.1 6.739,1.72" />
    <path
       id="path14"
       transform="translate(0,53.25)"
       d="M 0,0 1.607,0.75" />
    <path
       id="path16"
       transform="translate(3.6728,0.9126)"
       d="M 0,0 0.077,0.036" />
    <path
       id="path18"
       transform="translate(3.6728,0.9126)"
       d="M 0,0 -1.956,-0.913" />
    <path
       id="path20"
       transform="translate(41.4028,0.9873)"
       d="M 0,0 C 0.995,-0.213 2,-0.415 3.017,-0.605" />
    <path
       id="path22"
       transform="translate(44.4194,0.3828)"
       d="M 0,0 C 0.72,-0.134 1.445,-0.262 2.175,-0.383" />
    <path
       id="path24"
       transform="translate(19.7378,7.6245)"
       d="M 0,0 C -3.705,1.443 -7.097,2.897 -10.134,4.227" />
    <path
       id="path26"
       transform="translate(32.5098,3.2456)"
       d="M 0,0 C 2.85,-0.834 5.819,-1.599 8.893,-2.258" />
    <path
       id="path28"
       transform="translate(19.7378,7.6245)"
       d="M 0,0 C 3.922,-1.527 8.195,-3.04 12.772,-4.379" />
    <path
       id="path30"
       transform="translate(9.604,11.8516)"
       d="M 0,0 C -1.837,0.804 -3.544,1.563 -5.113,2.246" />
    <path
       id="path32"
       transform="translate(4.4907,14.0977)"
       d="M 0,0 C -0.053,0.023 -0.105,0.046 -0.158,0.069" />
    <path
       id="path34"
       transform="translate(28.9482,18.5664)"
       d="M 0,0 C -2.278,-0.547 -4.601,-1.075 -6.94,-1.57" />
    <path
       id="path36"
       transform="translate(4.4907,14.0977)"
       d="M 0,0 C 4.432,0.483 9.087,1.229 13.741,2.132" />
    <path
       id="path38"
       transform="translate(46.1812,23.2593)"
       d="M 0,0 C 2.994,0.913 5.644,1.776 7.819,2.529" />
    <path
       id="path40"
       transform="translate(18.2314,16.2295)"
       d="M 0,0 C 1.26,0.245 2.521,0.501 3.776,0.767" />
    <path
       id="path42"
       transform="translate(28.9482,18.5664)"
       d="M 0,0 C 0.746,0.179 1.487,0.36 2.222,0.543" />
    <path
       id="path44"
       transform="translate(4.4907,14.0977)"
       d="M 0,0 C -1.526,-0.166 -3.026,-0.301 -4.491,-0.401" />
    <path
       id="path46"
       transform="translate(31.1699,19.1099)"
       d="M 0,0 C 5.467,1.36 10.61,2.808 15.011,4.149" />
    <path
       id="path48"
       transform="translate(54,41.2002)"
       d="M 0,0 C -0.444,0.156 -0.881,0.312 -1.312,0.466" />
    <path
       id="path50"
       transform="translate(38.3301,47.271)"
       d="M 0,0 C 2.96,-1.283 7.969,-3.317 14.358,-5.605" />
    <path
       id="path52"
       transform="translate(38.3301,47.271)"
       d="M 0,0 C -0.048,0.021 -0.096,0.041 -0.143,0.062" />
    <path
       id="path54"
       transform="translate(37.9243,13.8213)"
       d="M 0,0 C -4.143,0.299 -11.518,1.045 -15.917,3.175" />
    <path
       id="path56"
       transform="translate(22.0078,16.9961)"
       d="M 0,0 C -0.002,0.002 -0.005,0.003 -0.008,0.004" />
    <path
       id="path58"
       transform="translate(37.9243,13.8213)"
       d="m 0,0 c 1.039,-0.075 1.874,-0.122 2.409,-0.155 2.667,-0.166 7.687,-0.166 7.687,-0.166 1.904,-0.015 3.906,0.055 5.98,0.195" />
    <path
       id="path60"
       transform="translate(19.7686,34.9678)"
       d="M 0,0 C -7.308,2.021 -14.044,4.206 -19.769,6.225" />
    <path
       id="path62"
       transform="translate(19.7686,34.9678)"
       d="M 0,0 C 8.946,-2.473 18.749,-4.701 28.602,-6.078" />
    <path
       id="path64"
       transform="translate(48.3701,28.8896)"
       d="M 0,0 C 1.876,-0.262 3.755,-0.494 5.63,-0.69" />
    <path
       id="path66"
       transform="translate(0,41.7925)"
       d="M 0,0 C 7.492,0.733 22.249,2.554 34.68,5.284" />
    <path
       id="path68"
       transform="translate(34.6797,47.0767)"
       d="M 0,0 C 4.223,0.928 8.178,1.96 11.487,3.09" />
    <path
       id="path70"
       transform="translate(37.7895,50.4082)"
       d="M 0,0 C -10.327,-2.197 -22.033,-3.323 -31.562,-3.933" />
    <path
       id="path72"
       transform="translate(0,46.1279)"
       d="M 0,0 C 1.93,0.093 4.02,0.207 6.228,0.348" />
    <path
       id="path74"
       transform="translate(37.7895,50.4082)"
       d="M 0,0 C 4.098,0.872 7.979,1.913 11.419,3.157" />
    <path
       id="path76"
       transform="translate(17.8101,50.8721)"
       d="M 0,0 C -1.535,-0.102 -3.06,-0.191 -4.566,-0.268" />
    <path
       id="path78"
       transform="translate(17.8101,50.8721)"
       d="M 0,0 C 8.724,0.58 17.719,1.573 24.92,3.128" />
    <path
       id="path80"
       transform="translate(0,50.2069)"
       d="M 0,0 C 3.99,0.031 8.521,0.155 13.244,0.397" />
    <path
       id="path82"
       transform="translate(48.5,1.5)"
       d="M 0,0 C -1.26,-0.398 -2.627,-0.77 -4.081,-1.117" />
    <path
       id="path84"
       transform="translate(42.7305)"
       d="M 0,0 C 0.575,0.124 1.138,0.252 1.689,0.383" />
    <path
       id="path86"
       transform="translate(31.4922,0.9883)"
       d="M 0,0 C -9.593,-0.629 -19.551,-0.486 -27.819,-0.076" />
    <path
       id="path88"
       transform="translate(31.4922,0.9883)"
       d="M 0,0 C 2.327,0.152 4.632,0.351 6.887,0.602" />
    <path
       id="path90"
       transform="translate(0,1.1182)"
       d="M 0,0 C 1.18,-0.074 2.406,-0.143 3.673,-0.206" />
    <path
       id="path92"
       transform="translate(20.3853,39.0483)"
       d="M 0,0 C 6.85,-2.554 14.168,-4.45 21.423,-5.826" />
    <path
       id="path94"
       transform="translate(20.3853,39.0483)"
       d="M 0,0 C -1.774,0.661 -3.517,1.366 -5.219,2.118" />
    <path
       id="path96"
       transform="translate(41.8081,33.2222)"
       d="M 0,0 C 4.117,-0.781 8.213,-1.395 12.192,-1.866" />
    <path
       id="path98"
       transform="translate(22.0381,42.7353)"
       d="M 0,0 C 5.637,-2.656 18.858,-6.339 31.962,-8.453" />
    <path
       id="path100"
       transform="translate(22.0381,42.7353)"
       d="M 0,0 C -0.069,0.033 -0.138,0.065 -0.205,0.098" />
    <path
       id="path102"
       transform="translate(28.7773,44.4555)"
       d="M 0,0 C -0.037,0.015 -0.074,0.03 -0.111,0.044" />
    <path
       id="path104"
       transform="translate(41.4912,39.6182)"
       d="M 0,0 C -5.255,1.77 -9.682,3.623 -12.714,4.837" />
    <path
       id="path106"
       transform="translate(41.4912,39.6182)"
       d="M 0,0 C 3.807,-1.282 8.048,-2.52 12.509,-3.44" />
    <path
       id="path108"
       transform="translate(34.333,46)"
       d="M 0,0 C 7.446,-3.004 10.899,-5.19 19.667,-6.717" />
    <path
       id="path110"
       transform="translate(7.9941,33.2055)"
       d="M 0,0 C 6.916,-0.74 13.333,-0.861 18.016,0.054" />
    <path
       id="path112"
       transform="translate(7.9941,33.2055)"
       d="M 0,0 C -2.616,0.28 -5.302,0.649 -7.994,1.083" />
    <path
       id="path114"
       transform="translate(9.4878,34.8198)"
       d="M 0,0 C 3.417,-0.259 6.872,-0.246 10.281,0.148" />
    <path
       id="path116"
       transform="translate(9.4878,34.8198)"
       d="M 0,0 C -3.22,0.244 -6.407,0.729 -9.488,1.367" />
    <path
       id="path118"
       transform="translate(19.7686,34.9678)"
       d="M 0,0 C 0.091,0.011 0.182,0.021 0.273,0.032" />
    <path
       id="path120"
       transform="translate(8.708,38.1665)"
       d="M 0,0 C -2.227,0.211 -4.199,0.442 -5.972,0.693" />
    <path
       id="path122"
       transform="translate(0,39.2904)"
       d="M 0,0 C 0.858,-0.15 1.768,-0.293 2.736,-0.431" />
    <path
       id="path124"
       transform="translate(54,41.7904)"
       d="M 0,0 C -0.466,-0.045 -0.905,-0.087 -1.312,-0.124" />
    <path
       id="path126"
       transform="translate(52.6875,41.6665)"
       d="M 0,0 H 0.001" />
    <path
       id="path128"
       transform="translate(54,46.127)"
       d="M 0,0 C -5.79,-0.278 -10.127,-0.369 -11.813,-0.46" />
    <path
       id="path130"
       transform="translate(54,50.2069)"
       d="M 0,0 C -2.639,-0.02 -5.041,0 -7.107,0.055" />
    <path
       id="path132"
       transform="translate(46.8213,50.2637)"
       d="M 0,0 C 0.024,-0.001 0.048,-0.001 0.072,-0.002" />
    <path
       id="path134"
       transform="translate(0.5688,28.0923)"
       d="M 0,0 C -0.19,0.015 -0.379,0.029 -0.569,0.044" />
    <path
       id="path136"
       transform="translate(0.5688,28.0923)"
       d="M 0,0 C 1.532,-0.118 3.084,-0.22 4.646,-0.307" />
    <path
       id="path138"
       transform="translate(5.2144,27.7856)"
       d="M 0,0 C 13.605,-0.753 27.94,-0.282 36.355,2.128" />
    <path
       id="path140"
       transform="translate(24.1367,24.0674)"
       d="M 0,0 C -7.953,-0.795 -16.355,-1.115 -24.137,-1.034" />
    <path
       id="path142"
       transform="translate(48.3701,28.8896)"
       d="M 0,0 C 0.006,0.003 0.013,0.005 0.02,0.007" />
    <path
       id="path144"
       transform="translate(48.3701,28.8896)"
       d="M 0,0 C -6.347,-2.329 -14.986,-3.897 -24.233,-4.822" />
    <path
       id="path146"
       transform="translate(12.9219,19.1626)"
       d="M 0,0 C -4.355,-0.624 -8.72,-1.131 -12.922,-1.453" />
    <path
       id="path148"
       transform="translate(52.562,27.416)"
       d="M 0,0 C 0.541,0.149 1.022,0.284 1.438,0.403" />
    <path
       id="path150"
       transform="translate(12.9219,19.1626)"
       d="M 0,0 C 16.485,2.36 32.828,6.382 39.64,8.253" />
    <path
       id="path152"
       transform="translate(51.8237,23.0669)"
       d="M 0,0 C -1.933,0.04 -3.819,0.104 -5.643,0.192" />
    <path
       id="path154"
       transform="translate(46.1812,23.2593)"
       d="M 0,0 C -0.02,0.001 -0.039,0.002 -0.059,0.003" />
    <path
       id="path156"
       transform="translate(51.8237,23.0669)"
       d="M 0,0 C 0.719,-0.015 1.445,-0.026 2.176,-0.033" />
    <path
       id="path158"
       transform="translate(31.1699,19.1099)"
       d="M 0,0 C -0.015,0.005 -0.03,0.01 -0.045,0.015" />
    <path
       id="path160"
       transform="translate(31.1699,19.1099)"
       d="m 0,0 c 2.691,-0.926 7.092,-1.298 9.268,-1.485 2.187,-0.187 5.062,-0.292 5.062,-0.292 2.714,0.019 5.567,0.153 8.5,0.377" />
    <path
       id="path162"
       transform="translate(32.5098,3.2456)"
       d="M 0,0 C 0.038,0.001 0.077,0.003 0.115,0.004" />
    <path
       id="path164"
       transform="translate(32.5098,3.2456)"
       d="M 0,0 C -6.38,-0.234 -16.75,-0.214 -28.033,0.791" />
    <path
       id="path166"
       transform="translate(0,4.4844)"
       d="M 0,0 C 1.503,-0.167 2.998,-0.316 4.477,-0.447" />
    <path
       id="path168"
       transform="translate(0,7.2324)"
       d="M 0,0 C 6.405,-1.022 11.472,-1.439 15.621,-1.55" />
    <path
       id="path170"
       transform="translate(24.375,5.875)"
       d="M 0,0 C -2.438,-0.163 -5.274,-0.286 -8.754,-0.193" />
    <path
       id="path172"
       transform="translate(19.7378,7.6245)"
       d="M 0,0 C -3.087,-0.078 -9.461,0.244 -17.107,1.5" />
    <path
       id="path174"
       transform="translate(19.7378,7.6245)"
       d="M 0,0 C 0.004,0.001 0.008,0.001 0.012,0.001" />
    <path
       id="path176"
       transform="translate(0,9.5854)"
       d="M 0,0 C 0.891,-0.167 1.77,-0.32 2.631,-0.461" />
    <path
       id="path178"
       transform="translate(8.0952,10.1802)"
       d="M 0,0 C 2.764,-0.666 4.97,-0.805 7.28,-0.805" />
    <path
       id="path180"
       transform="translate(8.0952,10.1802)"
       d="M 0,0 C -2.223,0.535 -4.806,1.41 -8.095,2.827" />
    <path
       id="path182"
       transform="translate(12.875,15.25)"
       d="m 0,0 c 11.75,-5.875 25.875,-8.375 25.875,-8.375 5.005,-1.05 10.177,-1.826 15.25,-2.39" />
    <path
       id="path184"
       transform="translate(54,7.2329)"
       d="m 0,0 c -4.748,0.758 -10.232,1.848 -16.625,3.392 0,0 -12.375,3.5 -17.25,5.875" />
    <path
       id="path186"
       transform="translate(37.9243,13.8213)"
       d="M 0,0 -0.549,0.179" />
    <path
       id="path188"
       transform="translate(54,9.5854)"
       d="M 0,0 C -1.795,0.335 -3.645,0.72 -5.524,1.164" />
    <path
       id="path190"
       transform="translate(37.9243,13.8213)"
       d="m 0,0 4.451,-1.446 c 2.048,-0.613 4.092,-1.153 6.1,-1.626" />
    <path
       id="path192"
       transform="translate(54,13.0068)"
       d="M 0,0 C -0.366,0.158 -0.741,0.322 -1.125,0.493" />
    <path
       id="path194"
       transform="translate(23.0625,6.4375)"
       d="m 0,0 c 12.938,-3 18.938,-4.188 18.938,-4.188 l 0.333,-0.125 c 0.012,-0.001 0.025,-0.002 0.038,-0.004" />
    <path
       id="path196"
       transform="translate(52.9995,1.1821)"
       d="M 0,0 C -4.395,0.29 -8.073,0.636 -10.628,0.939" />
    <path
       id="path198"
       transform="translate(52.9995,1.1821)"
       d="M 0,0 C 0.33,-0.021 0.663,-0.043 1,-0.064" />
    <path
       id="path200"
       transform="translate(36.1665,31)"
       d="M 0,0 C -5.767,-1.117 -19.995,-1.558 -36.167,0.356" />
    <path
       id="path202"
       transform="translate(0.5688,28.0923)"
       d="M 0,0 -0.365,-0.214 C -0.431,-0.233 -0.499,-0.253 -0.569,-0.273" />
    <path
       id="path204"
       transform="translate(0.5688,28.0923)"
       d="M 0,0 0.056,0.033" />
    <path
       id="path206"
       transform="translate(12.125,27.5625)"
       d="M 0,0 2.375,2.583" />
    <path
       id="path208"
       transform="translate(5.2144,27.7856)"
       d="m 0,0 -0.214,-0.119 c -1.09,-0.471 -2.802,-1.118 -5,-1.879" />
    <path
       id="path210"
       transform="translate(5.2144,27.7856)"
       d="M 0,0 0.161,0.089" />
    <path
       id="path212"
       transform="translate(46.5942,54)"
       d="M 0,0 C 2.289,-0.379 4.628,-0.693 7.016,-0.926" />
    <path
       id="path214"
       transform="translate(17.8101,50.8721)"
       d="M 0,0 -3.456,-3.685" />
    <path
       id="path216"
       transform="translate(17.8101,50.8721)"
       d="M 0,0 0.002,0.003" />
    <path
       id="path218"
       transform="translate(28.5415,51.875)"
       d="M 0,0 2.014,2.125" />
    <path
       id="path220"
       transform="translate(31.4922,0.9883)"
       d="M 0,0 0.07,0.074" />
    <path
       id="path222"
       transform="translate(31.4922,0.9883)"
       d="M 0,0 -0.937,-0.988" />
    <path
       id="path224"
       transform="translate(34.6665,47.0625)"
       d="M 0,0 0.013,0.014" />
    <path
       id="path226"
       transform="translate(37.7895,50.4082)"
       d="M 0,0 0.085,0.092" />
    <path
       id="path228"
       transform="translate(37.7895,50.4082)"
       d="M 0,0 -3.11,-3.331" />
    <path
       id="path230"
       transform="translate(6.228,46.4756)"
       d="M 0,0 0.022,0.024" />
    <path
       id="path232"
       transform="translate(6.228,46.4756)"
       d="M 0,0 -3.957,-4.372" />
    <path
       id="path234"
       transform="translate(17.5205,41.7705)"
       d="M 0,0 2.396,2.563" />
    <path
       id="path236"
       transform="translate(52,50.1665)"
       d="M 0,0 -3.875,-4.25" />
    <path
       id="path238"
       transform="translate(34.5,42.1665)"
       d="M 0,0 -2.604,-2.875" />
    <path
       id="path240"
       transform="translate(25.083,37.5415)"
       d="M 0,0 2.604,2.875" />
    <path
       id="path242"
       transform="translate(36.9375,34.3125)"
       d="M 0,0 2.5,2.729" />
    <path
       id="path244"
       transform="translate(52.562,27.416)"
       d="M 0,0 -2.604,-2.874" />
    <path
       id="path246"
       transform="translate(52.562,27.416)"
       d="M 0,0 0.001,0.001" />
    <path
       id="path248"
       transform="translate(24.1875,24.125)"
       d="M 0,0 -0.051,-0.058" />
    <path
       id="path250"
       transform="translate(24.1367,24.0674)"
       d="M 0,0 -3.054,-3.463" />
    <path
       id="path252"
       transform="translate(10.4375,23.125)"
       d="M 0,0 -4,-4.688" />
    <path
       id="path254"
       transform="translate(12.9219,19.1626)"
       d="M 0,0 -3.964,-4.434" />
    <path
       id="path256"
       transform="translate(12.9219,19.1626)"
       d="M 0,0 0.078,0.087" />
    <path
       id="path258"
       transform="translate(36.3955,20.5415)"
       d="M 0,0 3.229,3.646" />
    <path
       id="path260"
       transform="translate(52.875,31.4165)"
       d="M 0,0 -2.5,-2.667" />
    <path
       id="path262"
       transform="translate(41.4912,39.6182)"
       d="M 0,0 2.175,2.465" />
    <path
       id="path264"
       transform="translate(41.4912,39.6182)"
       d="M 0,0 -0.012,-0.014" />
    <path
       id="path266"
       transform="translate(0.333,36.1455)"
       d="M 0,0 2.403,2.714" />
    <path
       id="path268"
       transform="translate(2.75,38.875)"
       d="M 0,0 -0.014,-0.016" />
    <path
       id="path270"
       transform="translate(41.8081,33.2222)"
       d="M 0,0 -2.475,-2.764" />
    <path
       id="path272"
       transform="translate(41.8081,33.2222)"
       d="M 0,0 0.025,0.028" />
    <path
       id="path274"
       transform="translate(20.3853,39.0483)"
       d="M 0,0 -3.031,-3.361" />
    <path
       id="path276"
       transform="translate(20.3853,39.0483)"
       d="M 0,0 0.031,0.035" />
    <path
       id="path278"
       transform="translate(9.4878,34.8198)"
       d="M 0,0 -1.494,-1.614" />
    <path
       id="path280"
       transform="translate(7.9941,33.2055)"
       d="M 0,0 -0.036,-0.039" />
    <path
       id="path282"
       transform="translate(9.4878,34.8198)"
       d="M 0,0 0.012,0.013" />
    <path
       id="path284"
       transform="translate(28.25,32.75)"
       d="M 0,0 -2.229,-2.563" />
    <path
       id="path286"
       transform="translate(17.125,27.4375)"
       d="M 0,0 -3.75,-4.104" />
    <path
       id="path288"
       transform="translate(33.6875,28.375)"
       d="M 0,0 -2.854,-3.438" />
    <path
       id="path290"
       transform="translate(51.8237,23.0669)"
       d="M 0,0 -5.053,-5.713" />
    <path
       id="path292"
       transform="translate(51.8237,23.0669)"
       d="M 0,0 0.051,0.058" />
    <path
       id="path294"
       transform="translate(28.9482,18.5664)"
       d="M 0,0 0.052,0.059" />
    <path
       id="path296"
       transform="translate(28.9482,18.5664)"
       d="M 0,0 -2.678,-3.025" />
    <path
       id="path298"
       transform="translate(50.875,13.5)"
       d="M 0,0 -2.399,-2.751" />
    <path
       id="path300"
       transform="translate(48.458,10.729)"
       d="M 0,0 0.018,0.02" />
    <path
       id="path302"
       transform="translate(34.4375,11.4375)"
       d="M 0,0 -2.667,-2.958" />
    <path
       id="path304"
       transform="translate(18.25,16.25)"
       d="M 0,0 -0.019,-0.02" />
    <path
       id="path306"
       transform="translate(18.2314,16.2295)"
       d="M 0,0 -2.211,-2.438" />
    <path
       id="path308"
       transform="translate(42.3711,2.1206)"
       d="M 0,0 -0.968,-1.133" />
    <path
       id="path310"
       transform="translate(41.3955,0.979)"
       d="M 0,0 0.007,0.008" />
    <path
       id="path312"
       transform="translate(42.3711,2.1206)"
       d="M 0,0 0.004,0.004" />
    <path
       id="path314"
       transform="translate(24.5205,0.6665)"
       d="M 0,0 2.229,2.396" />
    <path
       id="path316"
       transform="translate(15.6206,5.6821)"
       d="M 0,0 -2.038,-2.266" />
    <path
       id="path318"
       transform="translate(15.6206,5.6821)"
       d="M 0,0 0.004,0.005" />
    <path
       id="path320"
       transform="translate(4.5,4.0625)"
       d="M 0,0 -0.023,-0.025" />
    <path
       id="path322"
       transform="translate(1.833,1.104)"
       d="M 0,0 2.644,2.933" />
    <path
       id="path324"
       transform="translate(0.8955,7.1665)"
       d="M 0,0 1.736,1.958" />
    <path
       id="path326"
       transform="translate(2.6875,9.1875)"
       d="M 0,0 -0.056,-0.063" />
    <path
       id="path328"
       transform="translate(8.0952,10.1802)"
       d="M 0,0 -0.012,-0.014" />
    <path
       id="path330"
       transform="translate(8.0952,10.1802)"
       d="M 0,0 1.509,1.671" />
    <path
       id="path332"
       transform="translate(9.604,11.8516)"
       d="M 0,0 0.021,0.023" />
    <path
       id="path334"
       transform="translate(18.625,8.125)"
       d="M 0,0 3.125,3.375" />
    <path
       id="path336"
       transform="translate(36.6875,3.375)"
       d="M 0,0 2.875,3.188" />
    <path
       id="path338"
       transform="translate(16.352)"
       d="M 0,0 0.398,0.438" />
    <g
       id="g344"
       transform="translate(13.2437,50.604)">
      <path
         id="path340"
         d="M 0,0 3.087,3.396" />
      <path
         id="path342"
         d="M 0,0 -0.022,-0.025" />
    </g>
  </g>
</svg>
