<?xml version="1.0" encoding="UTF-8" standalone="no"?>
<svg
   xmlns:dc="http://purl.org/dc/elements/1.1/"
   xmlns:cc="http://creativecommons.org/ns#"
   xmlns:rdf="http://www.w3.org/1999/02/22-rdf-syntax-ns#"
   xmlns:svg="http://www.w3.org/2000/svg"
   xmlns="http://www.w3.org/2000/svg"
   id="svg294"
   width="80.5"
   height="80.5"
   version="1.1">
  <defs
     id="defs298" />
  <metadata
     id="metadata2">citation: U.S. Geological Survey, 2006, FGDC Digital Cartographic Standard for Geologic Map Symbolization (PostScript Implementation): U.S. Geological Survey Techniques and Methods 11-A2 [pubs.usgs.gov/tm/2006/11A02/]. converted by CEC Geology LLC 2018 from the USGS lithologic gs converted to inkscape by the University of Otago.<rdf:RDF>
  <cc:Work
     rdf:about="">
    <dc:format>image/svg+xml</dc:format>
    <dc:type
       rdf:resource="http://purl.org/dc/dcmitype/StillImage" />
    <dc:title></dc:title>
  </cc:Work>
</rdf:RDF>
</metadata>
  <g
     id="g292"
     width="80.5"
     stroke-width=".3"
     stroke="#231f20"
     height="80.5"
     fill="none">
    <path
       id="path4"
       transform="translate(8.625 77.25)"
       d="m0 0h2.813" />
    <path
       id="path6"
       transform="translate(10 78.75)"
       d="m0 0v-3" />
    <path
       id="path8"
       transform="translate(8.625 63.875)"
       d="m0 0h2.813" />
    <path
       id="path10"
       transform="translate(10 65.375)"
       d="m0 0v-3" />
    <path
       id="path12"
       transform="translate(22.0625 63.875)"
       d="m0 0h2.813" />
    <path
       id="path14"
       transform="translate(23.4375 65.375)"
       d="m0 0v-3" />
    <path
       id="path16"
       transform="translate(35.4792 63.875)"
       d="m0 0h2.813" />
    <path
       id="path18"
       transform="translate(36.8542 65.375)"
       d="m0 0v-3" />
    <path
       id="path20"
       transform="translate(35.4792 77.1875)"
       d="m0 0h2.813" />
    <path
       id="path22"
       transform="translate(36.8542 78.6875)"
       d="m0 0v-3" />
    <path
       id="path24"
       transform="translate(22.0833 77.1875)"
       d="m0 0h2.813" />
    <path
       id="path26"
       transform="translate(23.4583 78.6875)"
       d="m0 0v-3" />
    <path
       id="path28"
       transform="translate(28.7812 70.4896)"
       d="m0 0h2.813" />
    <path
       id="path30"
       transform="translate(30.1562 71.9896)"
       d="m0 0v-3" />
    <path
       id="path32"
       transform="translate(1.9956 70.5625)"
       d="m0 0h2.813" />
    <path
       id="path34"
       transform="translate(3.3706 72.0625)"
       d="m0 0v-3" />
    <path
       id="path36"
       transform="translate(15.3996 70.5625)"
       d="m0 0h2.813" />
    <path
       id="path38"
       transform="translate(16.7746 72.0625)"
       d="m0 0v-3" />
    <path
       id="path40"
       transform="translate(8.625 50.4792)"
       d="m0 0h2.813" />
    <path
       id="path42"
       transform="translate(10 51.9792)"
       d="m0 0v-3" />
    <path
       id="path44"
       transform="translate(35.4792 50.4167)"
       d="m0 0h2.813" />
    <path
       id="path46"
       transform="translate(36.8542 51.9167)"
       d="m0 0v-3" />
    <path
       id="path48"
       transform="translate(22.0833 50.4167)"
       d="m0 0h2.813" />
    <path
       id="path50"
       transform="translate(23.4583 51.9167)"
       d="m0 0v-3" />
    <path
       id="path52"
       transform="translate(28.7812 43.7188)"
       d="m0 0h2.813" />
    <path
       id="path54"
       transform="translate(30.1562 45.2188)"
       d="m0 0v-3" />
    <path
       id="path56"
       transform="translate(1.9956 43.7917)"
       d="m0 0h2.813" />
    <path
       id="path58"
       transform="translate(3.3706 45.2917)"
       d="m0 0v-3" />
    <path
       id="path60"
       transform="translate(1.9956 57.1042)"
       d="m0 0h2.813" />
    <path
       id="path62"
       transform="translate(3.3706 58.6042)"
       d="m0 0v-3" />
    <path
       id="path64"
       transform="translate(15.3914 57.1042)"
       d="m0 0h2.813" />
    <path
       id="path66"
       transform="translate(16.7664 58.6042)"
       d="m0 0v-3" />
    <path
       id="path68"
       transform="translate(28.8289 57.1042)"
       d="m0 0h2.813" />
    <path
       id="path70"
       transform="translate(30.2039 58.6042)"
       d="m0 0v-3" />
    <path
       id="path72"
       transform="translate(15.3996 43.7917)"
       d="m0 0h2.813" />
    <path
       id="path74"
       transform="translate(16.7746 45.2917)"
       d="m0 0v-3" />
    <path
       id="path76"
       transform="translate(48.9337 77.25)"
       d="m0 0h2.813" />
    <path
       id="path78"
       transform="translate(50.3087 78.75)"
       d="m0 0v-3" />
    <path
       id="path80"
       transform="translate(48.9337 63.875)"
       d="m0 0h2.813" />
    <path
       id="path82"
       transform="translate(50.3087 65.375)"
       d="m0 0v-3" />
    <path
       id="path84"
       transform="translate(62.3712 63.875)"
       d="m0 0h2.813" />
    <path
       id="path86"
       transform="translate(63.7462 65.375)"
       d="m0 0v-3" />
    <path
       id="path88"
       transform="translate(75.7879 63.875)"
       d="m0 0h2.813" />
    <path
       id="path90"
       transform="translate(77.1629 65.375)"
       d="m0 0v-3" />
    <path
       id="path92"
       transform="translate(75.7879 77.1875)"
       d="m0 0h2.813" />
    <path
       id="path94"
       transform="translate(77.1629 78.6875)"
       d="m0 0v-3" />
    <path
       id="path96"
       transform="translate(62.3921 77.1875)"
       d="m0 0h2.813" />
    <path
       id="path98"
       transform="translate(63.7671 78.6875)"
       d="m0 0v-3" />
    <path
       id="path100"
       transform="translate(69.09 70.4896)"
       d="m0 0h2.813" />
    <path
       id="path102"
       transform="translate(70.465 71.9896)"
       d="m0 0v-3" />
    <path
       id="path104"
       transform="translate(42.3043 70.5625)"
       d="m0 0h2.813" />
    <path
       id="path106"
       transform="translate(43.6793 72.0625)"
       d="m0 0v-3" />
    <path
       id="path108"
       transform="translate(55.7083 70.5625)"
       d="m0 0h2.813" />
    <path
       id="path110"
       transform="translate(57.0833 72.0625)"
       d="m0 0v-3" />
    <path
       id="path112"
       transform="translate(48.9337 50.4792)"
       d="m0 0h2.813" />
    <path
       id="path114"
       transform="translate(50.3087 51.9792)"
       d="m0 0v-3" />
    <path
       id="path116"
       transform="translate(75.7879 50.4167)"
       d="m0 0h2.813" />
    <path
       id="path118"
       transform="translate(77.1629 51.9167)"
       d="m0 0v-3" />
    <path
       id="path120"
       transform="translate(62.3921 50.4167)"
       d="m0 0h2.813" />
    <path
       id="path122"
       transform="translate(63.7671 51.9167)"
       d="m0 0v-3" />
    <path
       id="path124"
       transform="translate(69.09 43.7188)"
       d="m0 0h2.813" />
    <path
       id="path126"
       transform="translate(70.465 45.2188)"
       d="m0 0v-3" />
    <path
       id="path128"
       transform="translate(42.3043 43.7917)"
       d="m0 0h2.813" />
    <path
       id="path130"
       transform="translate(43.6793 45.2917)"
       d="m0 0v-3" />
    <path
       id="path132"
       transform="translate(42.3043 57.1042)"
       d="m0 0h2.813" />
    <path
       id="path134"
       transform="translate(43.6793 58.6042)"
       d="m0 0v-3" />
    <path
       id="path136"
       transform="translate(55.7001 57.1042)"
       d="m0 0h2.813" />
    <path
       id="path138"
       transform="translate(57.0751 58.6042)"
       d="m0 0v-3" />
    <path
       id="path140"
       transform="translate(69.1376 57.1042)"
       d="m0 0h2.813" />
    <path
       id="path142"
       transform="translate(70.5126 58.6042)"
       d="m0 0v-3" />
    <path
       id="path144"
       transform="translate(55.7083 43.7917)"
       d="m0 0h2.813" />
    <path
       id="path146"
       transform="translate(57.0833 45.2917)"
       d="m0 0v-3" />
    <path
       id="path148"
       transform="translate(8.625 37)"
       d="m0 0h2.813" />
    <path
       id="path150"
       transform="translate(10 38.5)"
       d="m0 0v-3" />
    <path
       id="path152"
       transform="translate(8.625 23.625)"
       d="m0 0h2.813" />
    <path
       id="path154"
       transform="translate(10 25.125)"
       d="m0 0v-3" />
    <path
       id="path156"
       transform="translate(22.0625 23.625)"
       d="m0 0h2.813" />
    <path
       id="path158"
       transform="translate(23.4375 25.125)"
       d="m0 0v-3" />
    <path
       id="path160"
       transform="translate(35.4792 23.625)"
       d="m0 0h2.813" />
    <path
       id="path162"
       transform="translate(36.8542 25.125)"
       d="m0 0v-3" />
    <path
       id="path164"
       transform="translate(35.4792 36.9375)"
       d="m0 0h2.813" />
    <path
       id="path166"
       transform="translate(36.8542 38.4375)"
       d="m0 0v-3" />
    <path
       id="path168"
       transform="translate(22.0833 36.9375)"
       d="m0 0h2.813" />
    <path
       id="path170"
       transform="translate(23.4583 38.4375)"
       d="m0 0v-3" />
    <path
       id="path172"
       transform="translate(28.7812 30.2396)"
       d="m0 0h2.813" />
    <path
       id="path174"
       transform="translate(30.1562 31.7396)"
       d="m0 0v-3" />
    <path
       id="path176"
       transform="translate(1.9956 30.3125)"
       d="m0 0h2.813" />
    <path
       id="path178"
       transform="translate(3.3706 31.8125)"
       d="m0 0v-3" />
    <path
       id="path180"
       transform="translate(15.3996 30.3125)"
       d="m0 0h2.813" />
    <path
       id="path182"
       transform="translate(16.7746 31.8125)"
       d="m0 0v-3" />
    <path
       id="path184"
       transform="translate(8.625 10.2292)"
       d="m0 0h2.813" />
    <path
       id="path186"
       transform="translate(10 11.7292)"
       d="m0 0v-3" />
    <path
       id="path188"
       transform="translate(35.4792 10.1667)"
       d="m0 0h2.813" />
    <path
       id="path190"
       transform="translate(36.8542 11.6667)"
       d="m0 0v-3" />
    <path
       id="path192"
       transform="translate(22.0833 10.1667)"
       d="m0 0h2.813" />
    <path
       id="path194"
       transform="translate(23.4583 11.6667)"
       d="m0 0v-3" />
    <path
       id="path196"
       transform="translate(28.7812 3.4688)"
       d="m0 0h2.813" />
    <path
       id="path198"
       transform="translate(30.1562 4.9688)"
       d="m0 0v-3" />
    <path
       id="path200"
       transform="translate(1.9956 3.5417)"
       d="m0 0h2.813" />
    <path
       id="path202"
       transform="translate(3.3706 5.0417)"
       d="m0 0v-3" />
    <path
       id="path204"
       transform="translate(1.9956 16.8542)"
       d="m0 0h2.813" />
    <path
       id="path206"
       transform="translate(3.3706 18.3542)"
       d="m0 0v-3" />
    <path
       id="path208"
       transform="translate(15.3914 16.8542)"
       d="m0 0h2.813" />
    <path
       id="path210"
       transform="translate(16.7664 18.3542)"
       d="m0 0v-3" />
    <path
       id="path212"
       transform="translate(28.8289 16.8542)"
       d="m0 0h2.813" />
    <path
       id="path214"
       transform="translate(30.2039 18.3542)"
       d="m0 0v-3" />
    <path
       id="path216"
       transform="translate(15.3996 3.5417)"
       d="m0 0h2.813" />
    <path
       id="path218"
       transform="translate(16.7746 5.0417)"
       d="m0 0v-3" />
    <path
       id="path220"
       transform="translate(48.9337 37)"
       d="m0 0h2.813" />
    <path
       id="path222"
       transform="translate(50.3087 38.5)"
       d="m0 0v-3" />
    <path
       id="path224"
       transform="translate(48.9337 23.625)"
       d="m0 0h2.813" />
    <path
       id="path226"
       transform="translate(50.3087 25.125)"
       d="m0 0v-3" />
    <path
       id="path228"
       transform="translate(62.3712 23.625)"
       d="m0 0h2.813" />
    <path
       id="path230"
       transform="translate(63.7462 25.125)"
       d="m0 0v-3" />
    <path
       id="path232"
       transform="translate(75.7879 23.625)"
       d="m0 0h2.813" />
    <path
       id="path234"
       transform="translate(77.1629 25.125)"
       d="m0 0v-3" />
    <path
       id="path236"
       transform="translate(75.7879 36.9375)"
       d="m0 0h2.813" />
    <path
       id="path238"
       transform="translate(77.1629 38.4375)"
       d="m0 0v-3" />
    <path
       id="path240"
       transform="translate(62.3921 36.9375)"
       d="m0 0h2.813" />
    <path
       id="path242"
       transform="translate(63.7671 38.4375)"
       d="m0 0v-3" />
    <path
       id="path244"
       transform="translate(69.09 30.2396)"
       d="m0 0h2.813" />
    <path
       id="path246"
       transform="translate(70.465 31.7396)"
       d="m0 0v-3" />
    <path
       id="path248"
       transform="translate(42.3043 30.3125)"
       d="m0 0h2.813" />
    <path
       id="path250"
       transform="translate(43.6793 31.8125)"
       d="m0 0v-3" />
    <path
       id="path252"
       transform="translate(55.7083 30.3125)"
       d="m0 0h2.813" />
    <path
       id="path254"
       transform="translate(57.0833 31.8125)"
       d="m0 0v-3" />
    <path
       id="path256"
       transform="translate(48.9337 10.2292)"
       d="m0 0h2.813" />
    <path
       id="path258"
       transform="translate(50.3087 11.7292)"
       d="m0 0v-3" />
    <path
       id="path260"
       transform="translate(75.7879 10.1667)"
       d="m0 0h2.813" />
    <path
       id="path262"
       transform="translate(77.1629 11.6667)"
       d="m0 0v-3" />
    <path
       id="path264"
       transform="translate(62.3921 10.1667)"
       d="m0 0h2.813" />
    <path
       id="path266"
       transform="translate(63.7671 11.6667)"
       d="m0 0v-3" />
    <path
       id="path268"
       transform="translate(69.09 3.4688)"
       d="m0 0h2.813" />
    <path
       id="path270"
       transform="translate(70.465 4.9688)"
       d="m0 0v-3" />
    <path
       id="path272"
       transform="translate(42.3043 3.5417)"
       d="m0 0h2.813" />
    <path
       id="path274"
       transform="translate(43.6793 5.0417)"
       d="m0 0v-3" />
    <path
       id="path276"
       transform="translate(42.3043 16.8542)"
       d="m0 0h2.813" />
    <path
       id="path278"
       transform="translate(43.6793 18.3542)"
       d="m0 0v-3" />
    <path
       id="path280"
       transform="translate(55.7001 16.8542)"
       d="m0 0h2.813" />
    <path
       id="path282"
       transform="translate(57.0751 18.3542)"
       d="m0 0v-3" />
    <path
       id="path284"
       transform="translate(69.1376 16.8542)"
       d="m0 0h2.813" />
    <path
       id="path286"
       transform="translate(70.5126 18.3542)"
       d="m0 0v-3" />
    <path
       id="path288"
       transform="translate(55.7083 3.5417)"
       d="m0 0h2.813" />
    <path
       id="path290"
       transform="translate(57.0833 5.0417)"
       d="m0 0v-3" />
  </g>
</svg>
