<?xml version="1.0" encoding="UTF-8" standalone="no"?>
<svg
   xmlns:dc="http://purl.org/dc/elements/1.1/"
   xmlns:cc="http://creativecommons.org/ns#"
   xmlns:rdf="http://www.w3.org/1999/02/22-rdf-syntax-ns#"
   xmlns:svg="http://www.w3.org/2000/svg"
   xmlns="http://www.w3.org/2000/svg"
   id="svg740"
   version="1.1"
   width="54.3335"
   height="54.3335">
  <defs
     id="defs744" />
  <metadata
     id="metadata2">citation: U.S. Geological Survey, 2006, FGDC Digital Cartographic Standard for Geologic Map Symbolization (PostScript Implementation): U.S. Geological Survey Techniques and Methods 11-A2 [pubs.usgs.gov/tm/2006/11A02/]. converted by CEC Geology LLC 2018 from the USGS lithologic gs converted to inkscape by the University of Otago.<rdf:RDF>
  <cc:Work
     rdf:about="">
    <dc:format>image/svg+xml</dc:format>
    <dc:type
       rdf:resource="http://purl.org/dc/dcmitype/StillImage" />
    <dc:title></dc:title>
  </cc:Work>
</rdf:RDF>
</metadata>
  <g
     id="g738"
     width="54.333"
     transform="matrix(1 0 0 -1 0 54.3335)"
     stroke-width=".3"
     stroke="#231f20"
     height="54.3335"
     fill="none">
    <g
       id="g64"
       stroke-linecap="square">
      <path
         id="path4"
         transform="translate(40.873 54.1103)"
         d="m0 0c.211-.06.427-.117.647-.173 5.938-1.5 8.554-5.597 10.125-10.25" />
      <path
         id="path6"
         transform="translate(40.0317 54.312)"
         d="m0 0c.22-.069.609-.137.841-.202" />
      <path
         id="path8"
         transform="translate(52.1802 42.311)"
         d="m0 0c-.189.424-.368.882-.535 1.376" />
      <path
         id="path10"
         transform="translate(53.144 40.5468)"
         d="m0 0c-.344.511-.667 1.096-.964 1.764" />
      <path
         id="path12"
         transform="translate(53.144 40.5468)"
         d="m0 0c.207-.308.422-.589.643-.846.178-.207.356-.44.542-.616" />
      <path
         id="path14"
         transform="translate(51.083 36.3188)"
         d="m0 0c.537-.614 1.139-1.169 1.831-1.681.432-.319.891-.469 1.399-.757" />
      <path
         id="path16"
         transform="translate(32.1724 54.3335)"
         d="m0 0c.168-.127.435-.253.605-.379 2.366-1.738 5.007-3.33 7.556-4.203" />
      <path
         id="path18"
         transform="translate(46.729 45.0298)"
         d="m0 0c-.498.982-1.048 1.766-1.817 2.439" />
      <path
         id="path20"
         transform="translate(44.9116 47.4687)"
         d="m0 0c-.985.861-2.331 1.54-4.391 2.219-.063.02-.125.042-.188.063" />
      <path
         id="path22"
         transform="translate(49.3975 38.8008)"
         d="m0 0c.493-.925 1.042-1.746 1.685-2.482" />
      <path
         id="path24"
         transform="translate(47.3384 43.6875)"
         d="m0 0c-.202.486-.401.932-.609 1.342" />
      <path
         id="path26"
         transform="translate(49.3975 38.8008)"
         d="m0 0c-.406.762-.774 1.595-1.127 2.512-.342.889-.641 1.674-.932 2.375" />
      <path
         id="path28"
         transform="translate(4.0835 32.5781)"
         d="m0 0c-1.936.811-3.553 1.181-4.083 1.29" />
      <path
         id="path30"
         transform="translate(24.8311 6.4951)"
         d="m0 0c2.604-2.748 5.066-4.956 6.752-6.058.153-.1.269-.178.358-.239.085-.058.206-.133.31-.197" />
      <path
         id="path32"
         transform="translate(16.1201 17.4629)"
         d="m0 0c.441-.692.91-1.39 1.401-2.088" />
      <path
         id="path34"
         transform="translate(16.1201 17.4629)"
         d="m0 0c-1.489 2.334-2.664 4.605-3.287 6.6-.021.065-.042.131-.064.196" />
      <path
         id="path36"
         transform="translate(24.8311 6.4951)"
         d="m0 0c-2.048 2.161-4.184 4.656-6.098 7.21" />
      <path
         id="path38"
         transform="translate(17.521 15.375)"
         d="m0 0c.392-.557.797-1.115 1.212-1.67" />
      <path
         id="path40"
         transform="translate(9.8936 28.8281)"
         d="m0 0c-.941.94-1.993 1.719-3.054 2.359" />
      <path
         id="path42"
         transform="translate(12.7695 24.2593)"
         d="m0 0c-.611 1.835-1.648 3.34-2.876 4.569" />
      <path
         id="path44"
         transform="translate(6.8394 31.1875)"
         d="m0 0c-.937.565-1.878 1.023-2.756 1.391" />
      <path
         id="path46"
         transform="translate(18.1426 24.5884)"
         d="m0 0c-.068.165-.129.323-.185.474-2 5.5-5.25 10.125-10.75 11.25-.372.076-.726.155-1.064.235" />
      <path
         id="path48"
         transform="translate(40.1245 .0078)"
         d="m0 0c-.151.06-.345.134-.438.182" />
      <path
         id="path50"
         transform="translate(18.1426 24.5884)"
         d="m0 0c.737-1.794 2.22-4.372 4.156-7.2" />
      <path
         id="path52"
         transform="translate(39.687 .1899)"
         d="m0 0c-.224.116-.489.253-.729.373-.459.229-.925.491-1.397.781" />
      <path
         id="path54"
         transform="translate(28.3071 9.6567)"
         d="m0 0c2.318-2.634 4.803-5.079 7.227-6.915" />
      <path
         id="path56"
         transform="translate(26.583 11.686)"
         d="m0 0c-.69.841-1.359 1.689-1.999 2.534" />
      <path
         id="path58"
         transform="translate(26.583 11.686)"
         d="m0 0c.561-.684 1.138-1.363 1.724-2.029" />
      <path
         id="path60"
         transform="translate(22.2988 17.3882)"
         d="m0 0c.706-1.031 1.473-2.096 2.285-3.168" />
      <path
         id="path62"
         transform="translate(35.5342 2.7417)"
         d="m0 0c.682-.518 1.36-.986 2.027-1.398" />
    </g>
    <path
       id="path66"
       transform="translate(6.1431 36.5478)"
       stroke-linejoin="round"
       d="m0 0c-3.893.924-5.566 2.082-6.011 2.436-.087.07-.127.147-.127.147-.002.002-.004-.035-.005-.034" />
    <g
       id="g736"
       stroke-linecap="square">
      <path
         id="path68"
         transform="translate(3.5205 48.75)"
         d="m0 0 .028.022" />
      <g
         id="g76"
         transform="translate(10.1143 53.9848)">
        <path
           id="path70"
           d="m0 0 .48.334" />
        <path
           id="path72"
           d="m0 0-6.566-5.213" />
        <path
           id="path74"
           d="m0 0-.031.015" />
      </g>
      <path
         id="path78"
         transform="translate(14.6719 45.4927)"
         d="m0 0-.044-.041" />
      <path
         id="path80"
         transform="translate(14.6719 45.4927)"
         d="m0 0 4.411 4.091" />
      <path
         id="path82"
         transform="translate(19.083 49.5835)"
         d="m0 0-8.969 4.401" />
      <path
         id="path84"
         transform="translate(33.333 37.667)"
         d="m0 0 .084 4.25" />
      <path
         id="path86"
         transform="translate(25.8784 40.6411)"
         d="m0 0-2.378 3.776" />
      <path
         id="path88"
         transform="translate(15.3354 45.0571)"
         d="m0 0-.065.005" />
      <path
         id="path90"
         transform="translate(28.75 36.0835)"
         d="m0 0-2.872 4.558" />
      <path
         id="path92"
         transform="translate(28.75 36.0835)"
         d="m0 0 4.252 1.469" />
      <path
         id="path94"
         transform="translate(33.333 37.667)"
         d="m0 0-.331-.114" />
      <path
         id="path96"
         transform="translate(15.3354 45.0571)"
         d="m0 0 8.165-.64" />
      <path
         id="path98"
         transform="translate(25.8784 40.6411)"
         d="m0 0-4.542-3.076" />
      <path
         id="path100"
         transform="translate(21.3364 37.5649)"
         d="m0 0-.003-.002" />
      <path
         id="path102"
         transform="translate(25.8784 40.6411)"
         d="m0 0 .038.026" />
      <path
         id="path104"
         transform="translate(24.8018 47.2007)"
         d="m0 0 1.1 2.352" />
      <path
         id="path106"
         transform="translate(24.8018 47.2007)"
         d="m0 0-1.302-2.784" />
      <path
         id="path108"
         transform="translate(25.9019 49.5522)"
         d="m0 0 .015.031" />
      <path
         id="path110"
         transform="translate(24.8018 47.2007)"
         d="m0 0-3.652 1.521" />
      <path
         id="path112"
         transform="translate(24.8018 47.2007)"
         d="m0 0 .031-.013" />
      <path
         id="path114"
         transform="translate(19.083 49.5835)"
         d="m0 0 .422 4.75" />
      <path
         id="path116"
         transform="translate(19.083 49.5835)"
         d="m0 0 2.066-.861" />
      <path
         id="path118"
         transform="translate(36.4189 32.8403)"
         d="m0 0-3.086 4.827" />
      <path
         id="path120"
         transform="translate(36.4189 32.8403)"
         d="m0 0 .164-.257 3.334-2.416" />
      <path
         id="path122"
         transform="translate(28.6152 29.8276)"
         d="m0 0 .035 1.6" />
      <path
         id="path124"
         transform="translate(28.75 36.0835)"
         d="m0 0-.1-4.656" />
      <path
         id="path126"
         transform="translate(40.083 10.0835)"
         d="m0 0 .002.043" />
      <path
         id="path128"
         transform="translate(40.085 10.1269)"
         d="m0 0 .118 2.432" />
      <path
         id="path130"
         transform="translate(28.6152 29.8276)"
         d="m0 0-.032-1.494" />
      <path
         id="path132"
         transform="translate(29.4575 26.125)"
         d="m0 0-.874 2.208" />
      <path
         id="path134"
         transform="translate(37.7388 19.6606)"
         d="m0 0-2.406 4.089" />
      <path
         id="path136"
         transform="translate(37.7388 19.6606)"
         d="m0 0 2.594-4.411" />
      <path
         id="path138"
         transform="translate(40.333 15.25)"
         d="m0 0-.13-2.691" />
      <path
         id="path140"
         transform="translate(30.1665 24.3335)"
         d="m0 0-.709 1.792" />
      <path
         id="path142"
         transform="translate(35.333 23.75)"
         d="m0 0-5.166.583" />
      <path
         id="path144"
         transform="translate(28.583 31.417)"
         d="m0 0 .067.011" />
      <path
         id="path146"
         transform="translate(36.4189 32.8403)"
         d="m0 0-.169-.173-7.6-1.24" />
      <path
         id="path148"
         transform="translate(36.4189 32.8403)"
         d="m0 0 3.164 3.243" />
      <path
         id="path150"
         transform="translate(36.75 27.8335)"
         d="m0 0 2.667 1.084" />
      <path
         id="path152"
         transform="translate(36.75 27.8335)"
         d="m0 0-6.071.372" />
      <path
         id="path154"
         transform="translate(30.6787 28.2051)"
         d="m0 0-2.096.128" />
      <path
         id="path156"
         transform="translate(36.75 27.8335)"
         d="m0 0-1.417-4.083" />
      <path
         id="path158"
         transform="translate(32.583 16.667)"
         d="m0 0-5.937 1.083" />
      <path
         id="path160"
         transform="translate(37.7388 19.6606)"
         d="m0 0-5.156-2.994" />
      <path
         id="path162"
         transform="translate(37.7388 19.6606)"
         d="m0 0 .011.006 1.917 1.5" />
      <path
         id="path164"
         transform="translate(28.5 29.8335)"
         d="m0 0-5.833 3.417" />
      <path
         id="path166"
         transform="translate(26.5161 24.0112)"
         d="m0 0-2.016-.178" />
      <path
         id="path168"
         transform="translate(30.1665 24.3335)"
         d="m0 0-.396-7.146" />
      <path
         id="path170"
         transform="translate(30.1665 24.3335)"
         d="m0 0-3.65-.322" />
      <path
         id="path172"
         transform="translate(47.2256 13.8237)"
         d="m0 0 2.191-2.907" />
      <path
         id="path174"
         transform="translate(45.083 16.667)"
         d="m0 0 2.143-2.843" />
      <path
         id="path176"
         transform="translate(45.083 16.667)"
         d="m0 0-4.75-1.417" />
      <path
         id="path178"
         transform="translate(54.3311 11.9531)"
         d="m0 0-1.311-.766" />
      <path
         id="path180"
         transform="translate(49.4165 10.917)"
         d="m0 0 3.604.27" />
      <path
         id="path182"
         transform="translate(35.0903 13.8808)"
         d="m0 0-2.507 2.786" />
      <path
         id="path184"
         transform="translate(35.0903 13.8808)"
         d="m0 0 3.493-3.881" />
      <path
         id="path186"
         transform="translate(38.583 10)"
         d="m0 0-3.625-.875" />
      <path
         id="path188"
         transform="translate(49.458 19.875)"
         d="m0 0-4.375-3.208" />
      <path
         id="path190"
         transform="translate(45.1665 19.667)"
         d="m0 0-.084-3" />
      <path
         id="path192"
         transform="translate(54.3291 14.2251)"
         d="m0 0-5.038-3.121" />
      <path
         id="path194"
         transform="translate(11.75 53.167)"
         d="m0 0-4.686-4.858" />
      <path
         id="path196"
         transform="translate(7.0142 48.2578)"
         d="m0 0 .049.051" />
      <path
         id="path198"
         transform="translate(13.5 52.25)"
         d="m0 0-4.159-4.448" />
      <path
         id="path200"
         transform="translate(9.3413 47.8017)"
         d="m0 0-.028-.03" />
      <path
         id="path202"
         transform="translate(11.5532 47.06)"
         d="m0 0-.012-.015" />
      <path
         id="path204"
         transform="translate(11.5532 47.06)"
         d="m0 0 3.613 4.357" />
      <path
         id="path206"
         transform="translate(13.3857 46.2251)"
         d="m0 0 3.447 4.442" />
      <path
         id="path208"
         transform="translate(13.3848 46.2236)"
         d="m0 0 .001.001" />
      <path
         id="path210"
         transform="translate(19.25 51.8335)"
         d="m0 0-4.203 2.485" />
      <path
         id="path212"
         transform="translate(18.377 54.3403)"
         d="m0 0 1.04-.757" />
      <path
         id="path214"
         transform="translate(3.4365 54.3335)"
         d="m0 0 2.918-3.292" />
      <path
         id="path216"
         transform="translate(6.0659 54.3335)"
         d="m0 0 1.663-2.125" />
      <path
         id="path218"
         transform="translate(21.1494 48.7221)"
         d="m0 0 .638 5.612" />
      <path
         id="path220"
         transform="translate(21.1494 48.7221)"
         d="m0 0-.004-.035" />
      <path
         id="path222"
         transform="translate(14.75 2.792)"
         d="m0 0-3.042-1.917-1.17-.876" />
      <path
         id="path224"
         transform="translate(14.75 2.792)"
         d="m0 0 3.673-2.784" />
      <path
         id="path226"
         transform="translate(21.7749 .0058)"
         d="m0 0 .308 2.703h-2.333" />
      <path
         id="path228"
         transform="translate(19.75 2.7085)"
         d="m0 0-.257-2.701" />
      <path
         id="path230"
         transform="translate(15.1299 .0049)"
         d="m0 0-2.463 1.454" />
      <path
         id="path232"
         transform="translate(8.3823)"
         d="m0 0-1.132 1.625-.994 1.441" />
      <path
         id="path234"
         transform="translate(5.3955 4.3125)"
         d="m0 0 4.125 3.438" />
      <path
         id="path236"
         transform="translate(12.772 6.1904)"
         d="m0 0-1.689.81" />
      <path
         id="path238"
         transform="translate(9.5205 7.75)"
         d="m0 0 1.563-.749" />
      <path
         id="path240"
         transform="translate(6.2559 3.0659)"
         d="m0 0-.86 1.247" />
      <path
         id="path242"
         transform="translate(15.6455 4.8125)"
         d="m0 0-2.874 1.378" />
      <path
         id="path244"
         transform="translate(8.3755 54.3188)"
         d="m0 0 .791-1.073" />
      <path
         id="path246"
         transform="translate(23.833 53.0835)"
         d="m0 0-.667-5.083" />
      <path
         id="path248"
         transform="translate(17.1665 47.667)"
         d="m0 0 6.917-1.833" />
      <path
         id="path250"
         transform="translate(18.3955 42.5)"
         d="m0 0 6.104.25" />
      <path
         id="path252"
         transform="translate(25.1665 40.25)"
         d="m0 0-5.083-.188" />
      <path
         id="path254"
         transform="translate(20.083 40.0625)"
         d="m0 0h.001" />
      <path
         id="path256"
         transform="translate(23.9165 39.167)"
         d="m0 0 4.75-5.834" />
      <path
         id="path258"
         transform="translate(27.6665 30.3335)"
         d="m0 0-5.75 7.5" />
      <path
         id="path260"
         transform="translate(24.9165 42.25)"
         d="m0 0 2.417 5.25" />
      <path
         id="path262"
         transform="translate(26.583 39.6875)"
         d="m0 0 1.602 3.657" />
      <path
         id="path264"
         transform="translate(28.1855 43.3447)"
         d="m0 0 .981 2.239" />
      <path
         id="path266"
         transform="translate(27.5 38.167)"
         d="m0 0 5.833 1.833" />
      <path
         id="path268"
         transform="translate(27.333 41.25)"
         d="m0 0 5.667 1" />
      <path
         id="path270"
         transform="translate(28.1855 43.3447)"
         d="m0 0 2.981.322" />
      <path
         id="path272"
         transform="translate(28.1855 43.3447)"
         d="m0 0-.102-.011" />
      <path
         id="path274"
         transform="translate(31 31.917)"
         d="m0 0-.25 4.833" />
      <path
         id="path276"
         transform="translate(33.0024 37.5527)"
         d="m0 0-.002.031" />
      <path
         id="path278"
         transform="translate(33.0024 37.5527)"
         d="m0 0 .414-5.219" />
      <path
         id="path280"
         transform="translate(35.4165 34.5835)"
         d="m0 0 2.666 3.417" />
      <path
         id="path282"
         transform="translate(34.333 36.25)"
         d="m0 0 2 3.167" />
      <path
         id="path284"
         transform="translate(38.4165 31.3335)"
         d="m0 0 2.083 2.334" />
      <path
         id="path286"
         transform="translate(38.833 30.917)"
         d="m0 0h-10.083" />
      <path
         id="path288"
         transform="translate(30.6787 28.2051)"
         d="m0 0 1.071-3.955" />
      <path
         id="path290"
         transform="translate(30.6665 28.25)"
         d="m0 0 .012-.045" />
      <path
         id="path292"
         transform="translate(32.833 28)"
         d="m0 0 .834-4" />
      <path
         id="path294"
         transform="translate(35.6665 24.75)"
         d="m0 0-.75 3.167" />
      <path
         id="path296"
         transform="translate(37.083 20.917)"
         d="m0 0 1.584 1.5" />
      <path
         id="path298"
         transform="translate(36.0205 22.8125)"
         d="m0 0 2.563 2.021" />
      <path
         id="path300"
         transform="translate(35.9165 25.25)"
         d="m0 0 3.166 2" />
      <path
         id="path302"
         transform="translate(29.4575 26.125)"
         d="m0 0h.001" />
      <path
         id="path304"
         transform="translate(29.4575 26.125)"
         d="m0 0-5.312-.625" />
      <path
         id="path306"
         transform="translate(28.7705 27.75)"
         d="m0 0-5.063-.5" />
      <path
         id="path308"
         transform="translate(28.5 29.8335)"
         d="m0 0-5.292-.333" />
      <path
         id="path310"
         transform="translate(28.6152 29.8276)"
         d="m0 0 10.968-.578" />
      <path
         id="path312"
         transform="translate(28.6152 29.8276)"
         d="m0 0-.115.006" />
      <path
         id="path314"
         transform="translate(25.458 31.5)"
         d="m0 0-2.563-.25" />
      <path
         id="path316"
         transform="translate(26.5205 24.0625)"
         d="m0 0-.004-.051" />
      <path
         id="path318"
         transform="translate(26.5161 24.0112)"
         d="m0 0-.433-5.136" />
      <path
         id="path320"
         transform="translate(27.833 17.5625)"
         d="m0 0 .438 6.563" />
      <path
         id="path322"
         transform="translate(31.958 24.125)"
         d="m0 0-.438-7.25" />
      <path
         id="path324"
         transform="translate(33.708 23.8125)"
         d="m0 0-.375-6.625" />
      <path
         id="path326"
         transform="translate(35.333 18.5)"
         d="m0 0 .25 4.75" />
      <path
         id="path328"
         transform="translate(38.333 18.5625)"
         d="m0 0-4.563-3.125" />
      <path
         id="path330"
         transform="translate(39.1455 17.25)"
         d="m0 0-4.055-3.369" />
      <path
         id="path332"
         transform="translate(35.0903 13.8808)"
         d="m0 0-.007-.006" />
      <path
         id="path334"
         transform="translate(36.458 12.4375)"
         d="m0 0 3.688 3" />
      <path
         id="path336"
         transform="translate(37.833 10.9375)"
         d="m0 0 2.37 1.622" />
      <path
         id="path338"
         transform="translate(40.2026 12.5591)"
         d="m0 0 .005.003" />
      <path
         id="path340"
         transform="translate(42.083 10.375)"
         d="m0 0-.188 5.188" />
      <path
         id="path342"
         transform="translate(43.6455 16.1875)"
         d="m0 0 .563-5.688" />
      <path
         id="path344"
         transform="translate(46.208 10.625)"
         d="m0 0-.002.02" />
      <path
         id="path346"
         transform="translate(46.2061 10.645)"
         d="m0 0-.498 5.167" />
      <path
         id="path348"
         transform="translate(48.2705 12.5)"
         d="m0 0 6.063 4.129" />
      <path
         id="path350"
         transform="translate(47.2256 13.8237)"
         d="m0 0 7.102 4.639" />
      <path
         id="path352"
         transform="translate(47.2256 13.8237)"
         d="m0 0-.018-.011" />
      <path
         id="path354"
         transform="translate(1.4419 15.1045)"
         d="m0 0-.198-.122" />
      <path
         id="path356"
         transform="translate(1.2441 14.9829)"
         d="m0 0-1.244-.766" />
      <path
         id="path358"
         transform="translate(1.1709 17.4375)"
         d="m0 0-1.171-.797" />
      <path
         id="path360"
         transform="translate(1.1084 12.5625)"
         d="m0 0-1.108-.626" />
      <path
         id="path362"
         transform="translate(0 18.4546)"
         d="m0 0 .358.233" />
      <path
         id="path364"
         transform="translate(46.208 15.1875)"
         d="m0 0 6.375 4.5" />
      <path
         id="path366"
         transform="translate(47.8955 12.875)"
         d="m0 0 .125-2.063" />
      <path
         id="path368"
         transform="translate(39.208 20.75)"
         d="m0 0 3-4.813" />
      <path
         id="path370"
         transform="translate(41.8955 20.25)"
         d="m0 0 2.25-3.813" />
      <path
         id="path372"
         transform="translate(34.3955 14.5625)"
         d="m0 0-6.75 1.313" />
      <path
         id="path374"
         transform="translate(35.7705 13.0625)"
         d="m0 0-6.562.438" />
      <path
         id="path376"
         transform="translate(37.333 11.25)"
         d="m0 0-5.875-.063" />
      <path
         id="path378"
         transform="translate(35.0205 52.5)"
         d="m0 0-.551 1.833" />
      <path
         id="path380"
         transform="translate(37.1455 51.25)"
         d="m0 0-.895 3.083" />
      <path
         id="path382"
         transform="translate(38.708 50.4375)"
         d="m0 0-.879 3.896" />
      <path
         id="path384"
         transform="translate(40.333 49.751)"
         d="m0 0-.435 3.249" />
      <path
         id="path386"
         transform="translate(39.7192 54.3335)"
         d="m0 0 .179-1.333" />
      <path
         id="path388"
         transform="translate(40.333 49.751)"
         d="m0 0v-.001" />
      <path
         id="path390"
         transform="translate(43.2705 53.375)"
         d="m0 0-3.373-.374" />
      <path
         id="path392"
         transform="translate(39.8979 53.0005)"
         d="m0 0-.002-.001" />
      <path
         id="path394"
         transform="translate(40.1455 51.3125)"
         d="m0 0 5.563.75" />
      <path
         id="path396"
         transform="translate(40.333 50)"
         d="m0 0 7.375.438" />
      <path
         id="path398"
         transform="translate(44.083 50.1875)"
         d="m0 0-.875-1.563" />
      <path
         id="path400"
         transform="translate(46.3955 50.3125)"
         d="m0 0-1.484-2.844" />
      <path
         id="path402"
         transform="translate(44.9116 47.4687)"
         d="m0 0-.016-.031" />
      <path
         id="path404"
         transform="translate(46.083 46.1875)"
         d="m0 0 2.125 3.813" />
      <path
         id="path406"
         transform="translate(46.729 45.0298)"
         d="m0 0 2.541 3.595" />
      <path
         id="path408"
         transform="translate(46.729 45.0298)"
         d="m0 0-.021-.03" />
      <path
         id="path410"
         transform="translate(48.208 47.0625)"
         d="m0 0 2-.188" />
      <path
         id="path412"
         transform="translate(47.1455 45.5625)"
         d="m0 0 3.875-.25" />
      <path
         id="path414"
         transform="translate(47.3384 43.6875)"
         d="m0 0h4.307" />
      <path
         id="path416"
         transform="translate(47.3384 43.6875)"
         d="m0 0h-.068" />
      <path
         id="path418"
         transform="translate(52.208 42.3125)"
         d="m0 0-.028-.001" />
      <path
         id="path420"
         transform="translate(52.1802 42.311)"
         d="m0 0-.974-.059" />
      <path
         id="path422"
         transform="translate(48.083 42.0625)"
         d="m0 0 3.124.189" />
      <path
         id="path424"
         transform="translate(49.3975 38.8008)"
         d="m0 0 .123 3.324" />
      <path
         id="path426"
         transform="translate(49.3975 38.8008)"
         d="m0 0-.002-.051" />
      <path
         id="path428"
         transform="translate(51.208 42.3125)"
         d="m0 0-.001-.061" />
      <path
         id="path430"
         transform="translate(51.083 36.3125)"
         d="m0 0v.006" />
      <path
         id="path432"
         transform="translate(51.083 36.3188)"
         d="m0 0 .124 5.933" />
      <path
         id="path434"
         transform="translate(52.7554 36.122)"
         d="m0 0-.11-1.247" />
      <path
         id="path436"
         transform="translate(53.144 40.5468)"
         d="m0 0-.246-2.797" />
      <path
         id="path438"
         transform="translate(53.144 40.5468)"
         d="m0 0 .001.016" />
      <path
         id="path440"
         transform="translate(52.8984 37.75)"
         d="m0 0-.143-1.628" />
      <path
         id="path442"
         transform="translate(52.8955 37.75)"
         d="m0 0h.003" />
      <path
         id="path444"
         transform="translate(54.3291 37.6694)"
         d="m0 0-1.422.04" />
      <path
         id="path446"
         transform="translate(52.7554 36.122)"
         d="m0 0 1.572-.117" />
      <path
         id="path448"
         transform="translate(52.708 36.125)"
         d="m0 0 .047-.003" />
      <path
         id="path450"
         transform="translate(33.5205 4.375)"
         d="m0 0 .25-1.888.711-2.48" />
      <path
         id="path452"
         transform="translate(35.5342 2.7417)"
         d="m0 0-.014.071" />
      <path
         id="path454"
         transform="translate(35.5342 2.7417)"
         d="m0 0 .049-.255.691-2.487" />
      <path
         id="path456"
         transform="translate(37.5615 1.3437)"
         d="m0 0 .291-1.344" />
      <path
         id="path458"
         transform="translate(37.5615 1.3437)"
         d="m0 0-.005.026" />
      <path
         id="path460"
         transform="translate(39.687 .1899)"
         d="m0 0 .025-.19" />
      <path
         id="path462"
         transform="translate(39.6865 .1928)"
         d="m0 0 .001-.003" />
      <path
         id="path464"
         transform="translate(2.5034 37.5913)"
         d="m0 0-2.503.08" />
      <path
         id="path466"
         transform="translate(2.4409 35.8413)"
         d="m0 0-2.441.15" />
      <path
         id="path468"
         transform="translate(31.833 .3125)"
         d="m0 0 2.25.813" />
      <path
         id="path470"
         transform="translate(30.1455 1.5)"
         d="m0 0 3.562 1.313" />
      <path
         id="path472"
         transform="translate(33.2705 4.5625)"
         d="m0 0-4.437-1.938" />
      <path
         id="path474"
         transform="translate(29.3955 8.4375)"
         d="m0 0 2.937-4.25" />
      <path
         id="path476"
         transform="translate(28.3071 9.6567)"
         d="m0 0-3.037-3.594" />
      <path
         id="path478"
         transform="translate(28.3071 9.6567)"
         d="m0 0 .026.031" />
      <path
         id="path480"
         transform="translate(30.833 3.5)"
         d="m0 0-3.562 4.875" />
      <path
         id="path482"
         transform="translate(29.083 2.75)"
         d="m0 0-2.938 4.313" />
      <path
         id="path484"
         transform="translate(4.0835 32.5781)"
         d="m0 0-.001-.016" />
      <path
         id="path486"
         transform="translate(4.2705 37)"
         d="m0 0-.187-4.422" />
      <path
         id="path488"
         transform="translate(5.3955 32)"
         d="m0 0 .748 4.548" />
      <path
         id="path490"
         transform="translate(6.1431 36.5478)"
         d="m0 0 .002.015" />
      <path
         id="path492"
         transform="translate(5.958 35.0625)"
         d="m0 0 4.188.125" />
      <path
         id="path494"
         transform="translate(5.6455 33.375)"
         d="m0 0h7.125" />
      <path
         id="path496"
         transform="translate(14.3955 31.2475)"
         d="m0 0-7.556-.06" />
      <path
         id="path498"
         transform="translate(14.3955 31.2475)"
         d="m0 0 .313.003" />
      <path
         id="path500"
         transform="translate(6.8394 31.1875)"
         d="m0 0h-.006" />
      <path
         id="path502"
         transform="translate(9.8936 28.8281)"
         d="m0 0-.311 2.359" />
      <path
         id="path504"
         transform="translate(9.8936 28.8281)"
         d="m0 0 .002-.016" />
      <path
         id="path506"
         transform="translate(12.7695 24.2593)"
         d="m0 0 .001-.009" />
      <path
         id="path508"
         transform="translate(11.958 31.1875)"
         d="m0 0 .811-6.928" />
      <path
         id="path510"
         transform="translate(14.5483 28.3623)"
         d="m0 0 .433-8.184" />
      <path
         id="path512"
         transform="translate(15.0205 19.4375)"
         d="m0 0-.039.741" />
      <path
         id="path514"
         transform="translate(14.3955 31.2475)"
         d="m0 0 .153-2.885" />
      <path
         id="path516"
         transform="translate(14.3955 31.25)"
         d="m0 0v-.003" />
      <path
         id="path518"
         transform="translate(14.5483 28.3623)"
         d="m0 0 2.535-1.175" />
      <path
         id="path520"
         transform="translate(14.5205 28.375)"
         d="m0 0 .028-.013" />
      <path
         id="path522"
         transform="translate(14.708 25.9375)"
         d="m0 0 3.435-1.349" />
      <path
         id="path524"
         transform="translate(18.1426 24.5884)"
         d="m0 0 .065-.026" />
      <path
         id="path526"
         transform="translate(20.208 20.625)"
         d="m0 0-5.375 2.688" />
      <path
         id="path528"
         transform="translate(14.958 20.1875)"
         d="m0 0 .023-.009" />
      <path
         id="path530"
         transform="translate(22.2988 17.3882)"
         d="m0 0-4.04 1.541" />
      <path
         id="path532"
         transform="translate(14.9814 20.1787)"
         d="m0 0 3.277-1.249" />
      <path
         id="path534"
         transform="translate(22.2988 17.3882)"
         d="m0 0 .034-.013" />
      <path
         id="path536"
         transform="translate(18.2583 18.9292)"
         d="m0 0-2.138-1.466" />
      <path
         id="path538"
         transform="translate(18.2583 18.9292)"
         d="m0 0 .012.008" />
      <path
         id="path540"
         transform="translate(16.1201 17.4629)"
         d="m0 0-.037-.025" />
      <path
         id="path542"
         transform="translate(17.5205 15.375)"
         d="m0 0 .01.01" />
      <path
         id="path544"
         transform="translate(21.0205 17.8125)"
         d="m0 0-3.5-2.438" />
      <path
         id="path546"
         transform="translate(18.708 13.6875)"
         d="m0 0 .025.018" />
      <path
         id="path548"
         transform="translate(22.833 16.5625)"
         d="m0 0-4.1-2.857" />
      <path
         id="path550"
         transform="translate(20.083 14.625)"
         d="m0 0 .375-3.125" />
      <path
         id="path552"
         transform="translate(22.208 16.125)"
         d="m0 0 .5-7.25" />
      <path
         id="path554"
         transform="translate(24.583 14.25)"
         d="m0 0 .001-.03" />
      <path
         id="path556"
         transform="translate(24.833 6.4375)"
         d="m0 0-.002.058" />
      <path
         id="path558"
         transform="translate(24.8311 6.4951)"
         d="m0 0-.247 7.725" />
      <path
         id="path560"
         transform="translate(26.583 11.686)"
         d="m0 0 .313-3.686" />
      <path
         id="path562"
         transform="translate(26.583 11.6875)"
         d="m0 0v-.001" />
      <path
         id="path564"
         transform="translate(25.9019 49.5522)"
         d="m0 0c-.93 1.368-1.764 2.898-2.444 4.635-.019.05-.038.097-.058.146" />
      <path
         id="path566"
         transform="translate(25.9019 49.5522)"
         d="m0 0c6.206-9.126 16.698-11.005 14.306-18.615-2.75-8.75-2.25-10 3.25-11 4.624-.841 6.774.969 10.313-.661.183-.085.366-.213.558-.317" />
      <path
         id="path568"
         transform="translate(48.3813 53.8447)"
         d="m0 0c-.203.162-.54.325-.74.489" />
      <path
         id="path570"
         transform="translate(54.333 50.0132)"
         d="m0 0c-2.12.99-4.096 2.354-5.952 3.831" />
      <path
         id="path572"
         transform="translate(7.0635 48.3091)"
         d="m0 0c.664-.112 1.437-.274 2.278-.507" />
      <path
         id="path574"
         transform="translate(11.5532 47.06)"
         d="m0 0c-.769.305-1.514.548-2.212.742" />
      <path
         id="path576"
         transform="translate(21.3364 37.5649)"
         d="m0 0c.473-1.165.855-2.453 1.122-3.877l.254-1.437c1.02-6.206 2.952-20.674 13.558-23.688 1.257-.357 2.562-1.149 3.931-2.188" />
      <path
         id="path578"
         transform="translate(15.3354 45.0571)"
         d="m0 0c-.22.152-.441.297-.663.436" />
      <path
         id="path580"
         transform="translate(14.6719 45.4927)"
         d="m0 0c-.427.267-.857.51-1.286.732" />
      <path
         id="path582"
         transform="translate(40.2017 6.3745)"
         d="m0 0c.486-.368.98-.768 1.483-1.19" />
      <path
         id="path584"
         transform="translate(15.3354 45.0571)"
         d="m0 0c1.751-1.204 3.424-2.821 4.749-4.995" />
      <path
         id="path586"
         transform="translate(11.5532 47.06)"
         d="m0 0c.601-.239 1.215-.515 1.832-.835" />
      <path
         id="path588"
         transform="translate(20.084 40.0625)"
         d="m0 0c.464-.762.885-1.593 1.252-2.498" />
      <path
         id="path590"
         transform="translate(3.5483 48.7719)"
         d="m0 0c.382-.084.769-.155 1.16-.209 0 0 .924-.012 2.355-.254" />
      <path
         id="path592"
         transform="translate(41.6846 5.1841)"
         d="m0 0c1.723-1.447 3.551-3.162 5.514-4.809.112-.094.378-.246.567-.368" />
      <path
         id="path594"
         transform="translate(0 49.9931)"
         d="m0 0c1.14-.529 2.322-.949 3.548-1.221" />
      <path
         id="path596"
         transform="translate(0 18.9712)"
         d="m0 0c.496-.272 1.02-.612 1.583-1.034 0 0 2.312-3.187 7.438-5.875 5.125-2.687 6.441-3.25 6.441-3.25 2.967-1.236 5.69-3.206 7.926-8.812" />
      <path
         id="path598"
         transform="translate(14.75 2.792)"
         d="m0 0 2.396 5.083" />
      <path
         id="path600"
         transform="translate(1.2441 14.9829)"
         d="m0 0-.029-3.482" />
      <path
         id="path602"
         transform="translate(1.2441 14.9829)"
         d="m0 0 .026 3.142" />
      <path
         id="path604"
         transform="translate(1.208 10.6875)"
         d="m0 0 .007.813" />
      <path
         id="path606"
         transform="translate(1.208 10.6875)"
         d="m0 0 4.188-6.375" />
      <path
         id="path608"
         transform="translate(2.4834 1.0625)"
         d="m0 0 2.912 3.25" />
      <path
         id="path610"
         transform="translate(7.333 13)"
         d="m0 0-4.937-3.875" />
      <path
         id="path612"
         transform="translate(1.2705 16.25)"
         d="m0 0 1.563.25" />
      <path
         id="path614"
         transform="translate(1.2705 14.4375)"
         d="m0 0 3.063.688" />
      <path
         id="path616"
         transform="translate(1.2705 12.875)"
         d="m0 0 5.125.75" />
      <path
         id="path618"
         transform="translate(5.6455 11.75)"
         d="m0 0-4.431-.249" />
      <path
         id="path620"
         transform="translate(1.2148 11.5005)"
         d="m0 0-.007-.001" />
      <path
         id="path622"
         transform="translate(4.833 11)"
         d="m0 0 1.919-1.331" />
      <path
         id="path624"
         transform="translate(9.5205 7.75)"
         d="m0 0 1.875 3.063" />
      <path
         id="path626"
         transform="translate(6.7524 9.6689)"
         d="m0 0 2.768-1.919" />
      <path
         id="path628"
         transform="translate(6.458 12.25)"
         d="m0 0 3.938-2.938" />
      <path
         id="path630"
         transform="translate(12.7705 10.0625)"
         d="m0 0-1.687-3.062" />
      <path
         id="path632"
         transform="translate(11.0835 7.0005)"
         d="m0 0v-.001" />
      <path
         id="path634"
         transform="translate(12.772 6.1904)"
         d="m0 0 1.436 3.122" />
      <path
         id="path636"
         transform="translate(12.772 6.1904)"
         d="m0 0-.001-.003" />
      <path
         id="path638"
         transform="translate(14.458 5.4375)"
         d="m0 0 1.25 3.25" />
      <path
         id="path640"
         transform="translate(4.7705 5.3125)"
         d="m0 0 3.313 3.313" />
      <path
         id="path642"
         transform="translate(6.7524 9.6689)"
         d="m0 0-2.857-2.919" />
      <path
         id="path644"
         transform="translate(6.7524 9.6689)"
         d="m0 0 .018.019" />
      <path
         id="path646"
         transform="translate(5.5205 10.4375)"
         d="m0 0-2.375-2.438" />
      <path
         id="path648"
         transform="translate(11.7705 6.625)"
         d="m0 0-3.875-.313" />
      <path
         id="path650"
         transform="translate(13.833 5.5625)"
         d="m0 0s-7.438-.625-7.625-.625" />
      <path
         id="path652"
         transform="translate(6.2559 3.0659)"
         d="m0 0-.048-.003" />
      <path
         id="path654"
         transform="translate(6.2559 3.0659)"
         d="m0 0 8.89.622" />
      <path
         id="path656"
         transform="translate(12.083 1.1875)"
         d="m0 0h-4.5" />
      <path
         id="path658"
         transform="translate(15.958 1.9375)"
         d="m0 0 2.813 4.75" />
      <path
         id="path660"
         transform="translate(18.0205 5.3125)"
         d="m0 0 2.5-.313" />
      <path
         id="path662"
         transform="translate(16.458 2.625)"
         d="m0 0 3.292.083" />
      <path
         id="path664"
         transform="translate(17.583 .6875)"
         d="m0 0 .688 1.938" />
      <path
         id="path666"
         transform="translate(.6558 54.3335)"
         d="m0 0 4.073-4.604" />
      <path
         id="path668"
         transform="translate(0 51.8066)"
         d="m0 0 2.292-2.59" />
      <path
         id="path670"
         transform="translate(54.333 51.8047)"
         d="m0 0-2.301 2.529" />
      <path
         id="path672"
         transform="translate(54.333 .7475)"
         d="m0 0-.5.565-2.813 3.063" />
      <path
         id="path674"
         transform="translate(48.2705 4.6875)"
         d="m0 0 .039-.049" />
      <path
         id="path676"
         transform="translate(52.0942 .0063)"
         d="m0 0-.699.744-3.086 3.888" />
      <path
         id="path678"
         transform="translate(2.4834 1.0625)"
         d="m0 0 .942-1.063" />
      <path
         id="path680"
         transform="translate(3.958 2.625)"
         d="m0 0 .796-.958 1.305-1.667" />
      <path
         id="path682"
         transform="translate(0 .7285)"
         d="m0 0 .645-.729" />
      <path
         id="path684"
         transform="translate(46.2061 10.645)"
         d="m0 0 3.21.272" />
      <path
         id="path686"
         transform="translate(38.583 10)"
         d="m0 0 1.502.127" />
      <path
         id="path688"
         transform="translate(38.583 10)"
         d="m0 0-.5-2.125" />
      <path
         id="path690"
         transform="translate(46.2061 10.645)"
         d="m0 0-6.121-.518" />
      <path
         id="path692"
         transform="translate(41.6846 5.1841)"
         d="m0 0 6.625-.546" />
      <path
         id="path694"
         transform="translate(41.6455 5.1875)"
         d="m0 0 .039-.003" />
      <path
         id="path696"
         transform="translate(48.3096 4.6382)"
         d="m0 0 4.711-.388" />
      <path
         id="path698"
         transform="translate(46.708 4.6875)"
         d="m0 0 .25-4.063" />
      <path
         id="path700"
         transform="translate(44.7705 2.5)"
         d="m0 0-.125 2.375" />
      <path
         id="path702"
         transform="translate(38.333 8.75)"
         d="m0 0 14.688.188" />
      <path
         id="path704"
         transform="translate(40.2017 6.3745)"
         d="m0 0 12.756-.062" />
      <path
         id="path706"
         transform="translate(40.2017 6.3745)"
         d="m0 0-.056.001" />
      <path
         id="path708"
         transform="translate(1.1455 10.6875)"
         d="m0 0-1.145-.544" />
      <path
         id="path710"
         transform="translate(2.1455 9.1875)"
         d="m0 0-2.146-1.118" />
      <path
         id="path712"
         transform="translate(4.2705 6)"
         d="m0 0-1.5-4.563" />
      <path
         id="path714"
         transform="translate(.8955 2.4375)"
         d="m0 0 2.063 5.438" />
      <path
         id="path716"
         transform="translate(0 5.9233)"
         d="m0 0 1.02 2.639" />
      <path
         id="path718"
         transform="translate(2.3955 1.0625)"
         d="m0 0-2.396 2.036" />
      <path
         id="path720"
         transform="translate(53.0205 9.5)"
         d="m0 0 1.313.624" />
      <path
         id="path722"
         transform="translate(53.1455 7.4687)"
         d="m0 0 1.188.616" />
      <path
         id="path724"
         transform="translate(53.583 3.875)"
         d="m0 0 .746 2.053" />
      <path
         id="path726"
         transform="translate(53.0205 8.9375)"
         d="m0 0v.563" />
      <path
         id="path728"
         transform="translate(54.3286 3.0688)"
         d="m0 0-1.308 1.181" />
      <path
         id="path730"
         transform="translate(53.0205 9.5)"
         d="m0 0v1.688" />
      <path
         id="path732"
         transform="translate(53.0205 8.9375)"
         d="m0 0v-4.688" />
      <path
         id="path734"
         transform="translate(2.5146 37.6694)"
         d="m0 0-.182-4.419" />
    </g>
  </g>
</svg>
