<?xml version="1.0" encoding="UTF-8" standalone="no"?>
<svg
   xmlns:dc="http://purl.org/dc/elements/1.1/"
   xmlns:cc="http://creativecommons.org/ns#"
   xmlns:rdf="http://www.w3.org/1999/02/22-rdf-syntax-ns#"
   xmlns:svg="http://www.w3.org/2000/svg"
   xmlns="http://www.w3.org/2000/svg"
   height="52.584"
   width="53.584"
   id="svg386"
   version="1.1">
  <defs
     id="defs390" />
  <metadata
     id="metadata2">citation: U.S. Geological Survey, 2006, FGDC Digital Cartographic Standard for Geologic Map Symbolization (PostScript Implementation): U.S. Geological Survey Techniques and Methods 11-A2 [pubs.usgs.gov/tm/2006/11A02/]. converted by CEC Geology LLC 2018 from the USGS lithologic gs converted to inkscape by the University of Otago.<rdf:RDF>
  <cc:Work
     rdf:about="">
    <dc:format>image/svg+xml</dc:format>
    <dc:type
       rdf:resource="http://purl.org/dc/dcmitype/StillImage" />
    <dc:title></dc:title>
  </cc:Work>
</rdf:RDF>
</metadata>
  <g
     stroke-width=".3"
     stroke="#231f20"
     fill="none"
     id="g384"
     width="53.584"
     height="53.584"
     transform="matrix(1,0,0,-1,0,53.584)">
    <path
       id="path4"
       transform="translate(3.7695,51.5)"
       d="M 0,0 H -3.77" />
    <path
       id="path6"
       transform="translate(6.3496,51.5)"
       d="M 0,0 H 6.369" />
    <path
       id="path8"
       transform="translate(15.2666,51.5)"
       d="M 0,0 H 6.369" />
    <path
       id="path10"
       transform="translate(24.1826,51.5)"
       d="M 0,0 H 6.369" />
    <path
       id="path12"
       transform="translate(33.0996,51.5)"
       d="M 0,0 H 6.369" />
    <path
       id="path14"
       transform="translate(42.0166,51.5)"
       d="M 0,0 H 6.369" />
    <path
       id="path16"
       transform="translate(53.584,51.5)"
       d="M 0,0 H -2.651" />
    <path
       id="path18"
       transform="translate(0,39.6201)"
       d="M 0,0 H 1.699" />
    <path
       id="path20"
       transform="translate(4.2803,39.6201)"
       d="M 0,0 H 1.063" />
    <path
       id="path22"
       transform="translate(5.3438,39.6201)"
       d="M 0,0 H 5.305" />
    <path
       id="path24"
       transform="translate(13.1963,39.6201)"
       d="M 0,0 H 6.369" />
    <path
       id="path26"
       transform="translate(23.3828,39.6201)"
       d="M 0,0 H 5.1" />
    <path
       id="path28"
       transform="translate(23.3828,39.6201)"
       d="M 0,0 H -1.27" />
    <path
       id="path30"
       transform="translate(31.0293,39.6201)"
       d="M 0,0 H 6.369" />
    <path
       id="path32"
       transform="translate(41.1533,39.6201)"
       d="M 0,0 H 5.162" />
    <path
       id="path34"
       transform="translate(41.1533,39.6201)"
       d="M 0,0 H -1.207" />
    <path
       id="path36"
       transform="translate(48.8633,39.6201)"
       d="M 0,0 H 4.721" />
    <path
       id="path38"
       transform="translate(5.2354,36.6162)"
       d="M 0,0 H -5.235" />
    <path
       id="path40"
       transform="translate(14.1523,36.6162)"
       d="M 0,0 H -6.369" />
    <path
       id="path42"
       transform="translate(16.6992,36.6162)"
       d="M 0,0 H 6.369" />
    <path
       id="path44"
       transform="translate(31.9854,36.6162)"
       d="M 0,0 H -6.369" />
    <path
       id="path46"
       transform="translate(34.5322,36.6162)"
       d="M 0,0 H 6.369" />
    <path
       id="path48"
       transform="translate(49.8184,36.6162)"
       d="M 0,0 H -6.369" />
    <path
       id="path50"
       transform="translate(53.584,36.6162)"
       d="M 0,0 H -1.218" />
    <path
       id="path52"
       transform="translate(0,33.7329)"
       d="M 0,0 H 2.177" />
    <path
       id="path54"
       transform="translate(11.127,33.7329)"
       d="M 0,0 H -6.369" />
    <path
       id="path56"
       transform="translate(13.6738,33.7329)"
       d="M 0,0 H 1.155" />
    <path
       id="path58"
       transform="translate(14.8291,33.7329)"
       d="M 0,0 H 5.214" />
    <path
       id="path60"
       transform="translate(28.96,33.7329)"
       d="M 0,0 H -6.369" />
    <path
       id="path62"
       transform="translate(32.7881,33.7329)"
       d="M 0,0 H -1.28" />
    <path
       id="path64"
       transform="translate(32.7881,33.7329)"
       d="M 0,0 H 5.088" />
    <path
       id="path66"
       transform="translate(46.793,33.7329)"
       d="M 0,0 H -6.369" />
    <path
       id="path68"
       transform="translate(50.5586,33.7329)"
       d="M 0,0 H 3.025" />
    <path
       id="path70"
       transform="translate(49.3408,33.7329)"
       d="M 0,0 H 1.218" />
    <path
       id="path72"
       transform="translate(6.668,30.5361)"
       d="M 0,0 H -6.369" />
    <path
       id="path74"
       transform="translate(15.585,30.5361)"
       d="M 0,0 H -6.369" />
    <path
       id="path76"
       transform="translate(18.1328,30.5361)"
       d="M 0,0 H 6.369" />
    <path
       id="path78"
       transform="translate(33.418,30.5361)"
       d="M 0,0 H -6.369" />
    <path
       id="path80"
       transform="translate(35.9658,30.5361)"
       d="M 0,0 H 6.369" />
    <path
       id="path82"
       transform="translate(44.8818,30.5361)"
       d="M 0,0 H 6.369" />
    <path
       id="path84"
       transform="translate(3.4512,27.5659)"
       d="M 0,0 H -3.451" />
    <path
       id="path86"
       transform="translate(6.0313,27.5659)"
       d="M 0,0 H 6.369" />
    <path
       id="path88"
       transform="translate(15.9795,27.5659)"
       d="M 0,0 H 5.338" />
    <path
       id="path90"
       transform="translate(14.9482,27.5659)"
       d="M 0,0 H 1.031" />
    <path
       id="path92"
       transform="translate(23.8643,27.5659)"
       d="M 0,0 H 6.369" />
    <path
       id="path94"
       transform="translate(34,27.5659)"
       d="M 0,0 H -1.219" />
    <path
       id="path96"
       transform="translate(34,27.5659)"
       d="M 0,0 H 5.15" />
    <path
       id="path98"
       transform="translate(41.6982,27.5659)"
       d="M 0,0 H 6.368" />
    <path
       id="path100"
       transform="translate(51.9375,27.5659)"
       d="M 0,0 H 1.646" />
    <path
       id="path102"
       transform="translate(50.6143,27.5659)"
       d="M 0,0 H 1.323" />
    <path
       id="path104"
       transform="translate(7.9424,24.4307)"
       d="M 0,0 H -6.369" />
    <path
       id="path106"
       transform="translate(16.8584,24.4307)"
       d="M 0,0 H -6.369" />
    <path
       id="path108"
       transform="translate(25.7754,24.4307)"
       d="M 0,0 H -6.369" />
    <path
       id="path110"
       transform="translate(34.6914,24.4307)"
       d="M 0,0 H -6.368" />
    <path
       id="path112"
       transform="translate(43.6084,24.4307)"
       d="M 0,0 H -6.369" />
    <path
       id="path114"
       transform="translate(52.5254,24.4307)"
       d="M 0,0 H -6.369" />
    <path
       id="path116"
       transform="translate(6.0313,12.5508)"
       d="M 0,0 H -4.699" />
    <path
       id="path118"
       transform="translate(0,12.5508)"
       d="M 0,0 H 1.332" />
    <path
       id="path120"
       transform="translate(14.9482,12.5508)"
       d="M 0,0 H -6.369" />
    <path
       id="path122"
       transform="translate(17.4951,12.5508)"
       d="M 0,0 H 1.232" />
    <path
       id="path124"
       transform="translate(23.8643,12.5508)"
       d="M 0,0 H -5.137" />
    <path
       id="path126"
       transform="translate(26.4121,12.5508)"
       d="M 0,0 H 6.369" />
    <path
       id="path128"
       transform="translate(36.54,12.5508)"
       d="M 0,0 H 5.158" />
    <path
       id="path130"
       transform="translate(35.3291,12.5508)"
       d="M 0,0 H 1.211" />
    <path
       id="path132"
       transform="translate(44.2451,12.5508)"
       d="M 0,0 H 6.369" />
    <path
       id="path134"
       transform="translate(53.584,12.5508)"
       d="M 0,0 H -0.422" />
    <path
       id="path136"
       transform="translate(3.1328,9.7549)"
       d="M 0,0 H -3.133" />
    <path
       id="path138"
       transform="translate(5.7129,9.7549)"
       d="M 0,0 H 6.369" />
    <path
       id="path140"
       transform="translate(14.6299,9.7549)"
       d="M 0,0 H 6.369" />
    <path
       id="path142"
       transform="translate(29.915,9.7549)"
       d="M 0,0 H -6.369" />
    <path
       id="path144"
       transform="translate(38.832,9.7549)"
       d="M 0,0 H -6.369" />
    <path
       id="path146"
       transform="translate(41.3789,9.7549)"
       d="M 0,0 H 6.369" />
    <path
       id="path148"
       transform="translate(50.2959,9.7549)"
       d="M 0,0 H 3.288" />
    <path
       id="path150"
       transform="translate(8.2607,6.6201)"
       d="M 0,0 H -6.369" />
    <path
       id="path152"
       transform="translate(17.1768,6.6201)"
       d="M 0,0 H -6.369" />
    <path
       id="path154"
       transform="translate(26.0938,6.6201)"
       d="M 0,0 H -6.369" />
    <path
       id="path156"
       transform="translate(35.0107,6.6201)"
       d="M 0,0 H -6.369" />
    <path
       id="path158"
       transform="translate(43.9268,6.6201)"
       d="M 0,0 H -6.369" />
    <path
       id="path160"
       transform="translate(46.4746,6.6201)"
       d="M 0,0 H 6.369" />
    <path
       id="path162"
       transform="translate(0,3.6499)"
       d="M 0,0 H 4.725" />
    <path
       id="path164"
       transform="translate(7.3047,3.6499)"
       d="M 0,0 H 6.369" />
    <path
       id="path166"
       transform="translate(16.2217,3.6499)"
       d="M 0,0 H 6.369" />
    <path
       id="path168"
       transform="translate(25.1387,3.6499)"
       d="M 0,0 H 6.369" />
    <path
       id="path170"
       transform="translate(34.0547,3.6499)"
       d="M 0,0 H 6.369" />
    <path
       id="path172"
       transform="translate(42.9717,3.6499)"
       d="M 0,0 H 6.369" />
    <path
       id="path174"
       transform="translate(51.8887,3.6499)"
       d="M 0,0 H 1.695" />
    <path
       id="path176"
       transform="translate(8.5791,0.6797)"
       d="M 0,0 H -6.369" />
    <path
       id="path178"
       transform="translate(17.4951,0.6797)"
       d="M 0,0 H -6.368" />
    <path
       id="path180"
       transform="translate(26.4121,0.6797)"
       d="M 0,0 H -6.369" />
    <path
       id="path182"
       transform="translate(35.3291,0.6797)"
       d="M 0,0 H -6.369" />
    <path
       id="path184"
       transform="translate(44.2451,0.6797)"
       d="M 0,0 H -6.369" />
    <path
       id="path186"
       transform="translate(53.1621,0.6797)"
       d="M 0,0 H -6.369" />
    <path
       id="path188"
       transform="translate(7.6602,51.5591)"
       d="M 0,0 1.085,1.412" />
    <path
       id="path190"
       transform="translate(25.5977,51.5591)"
       d="M 0,0 1.085,1.412" />
    <path
       id="path192"
       transform="translate(43.6182,51.5591)"
       d="M 0,0 1.085,1.412" />
    <path
       id="path194"
       transform="translate(41.1387,39.6006)"
       d="M 0,0 0.015,0.02" />
    <path
       id="path196"
       transform="translate(41.1533,39.6201)"
       d="M 0,0 1.071,1.393" />
    <path
       id="path198"
       transform="translate(23.3828,39.6201)"
       d="M 0,0 1.07,1.393" />
    <path
       id="path200"
       transform="translate(23.3682,39.6006)"
       d="M 0,0 0.015,0.02" />
    <path
       id="path202"
       transform="translate(5.3438,39.6201)"
       d="M 0,0 1.07,1.393" />
    <path
       id="path204"
       transform="translate(5.3291,39.6006)"
       d="M 0,0 0.015,0.02" />
    <path
       id="path206"
       transform="translate(45.7686,38.0542)"
       d="M 0,0 -1.086,-1.412" />
    <path
       id="path208"
       transform="translate(28.0186,38.0542)"
       d="M 0,0 -1.086,-1.412" />
    <path
       id="path210"
       transform="translate(10.123,38.0542)"
       d="M 0,0 -1.086,-1.412" />
    <path
       id="path212"
       transform="translate(32.7881,33.7329)"
       d="M 0,0 1.064,1.384" />
    <path
       id="path214"
       transform="translate(32.7666,33.7046)"
       d="M 0,0 0.021,0.028" />
    <path
       id="path216"
       transform="translate(50.5586,33.7329)"
       d="M 0,0 -0.021,-0.028" />
    <path
       id="path218"
       transform="translate(50.5586,33.7329)"
       d="M 0,0 1.064,1.384" />
    <path
       id="path220"
       transform="translate(14.8291,33.7329)"
       d="M 0,0 1.064,1.384" />
    <path
       id="path222"
       transform="translate(14.8076,33.7046)"
       d="M 0,0 0.021,0.028" />
    <path
       id="path224"
       transform="translate(45.9951,30.5796)"
       d="M 0,0 1.086,1.412" />
    <path
       id="path226"
       transform="translate(28.2871,30.5796)"
       d="M 0,0 1.086,1.412" />
    <path
       id="path228"
       transform="translate(10.4746,30.5796)"
       d="M 0,0 1.086,1.412" />
    <path
       id="path230"
       transform="translate(15.9795,27.5659)"
       d="M 0,0 1.08,1.405" />
    <path
       id="path232"
       transform="translate(15.9746,27.5591)"
       d="M 0,0 0.005,0.007" />
    <path
       id="path234"
       transform="translate(34,27.5659)"
       d="M 0,0 1.081,1.405" />
    <path
       id="path236"
       transform="translate(34,27.5659)"
       d="M 0,0 -0.005,-0.007" />
    <path
       id="path238"
       transform="translate(51.9375,27.5659)"
       d="M 0,0 1.081,1.405" />
    <path
       id="path240"
       transform="translate(51.9375,27.5659)"
       d="M 0,0 -0.005,-0.007" />
    <path
       id="path242"
       transform="translate(38.5576,24.4546)"
       d="M 0,0 1.086,1.412" />
    <path
       id="path244"
       transform="translate(20.7451,24.4546)"
       d="M 0,0 1.086,1.412" />
    <path
       id="path246"
       transform="translate(2.8936,24.4546)"
       d="M 0,0 1.085,1.412" />
    <path
       id="path248"
       transform="translate(36.5391,12.5498)"
       d="M 0,0 0.001,0.001" />
    <path
       id="path250"
       transform="translate(36.54,12.5508)"
       d="M 0,0 1.085,1.411" />
    <path
       id="path252"
       transform="translate(18.7275,12.5508)"
       d="M 0,0 1.085,1.411" />
    <path
       id="path254"
       transform="translate(18.7275,12.5508)"
       d="M 0,0 -0.001,-0.001" />
    <path
       id="path256"
       transform="translate(2.416,13.9619)"
       d="M 0,0 -1.084,-1.411" />
    <path
       id="path258"
       transform="translate(1.3311,12.5498)"
       d="M 0,0 0.001,0.001" />
    <path
       id="path260"
       transform="translate(42.7266,9.8413)"
       d="M 0,0 1.086,1.412" />
    <path
       id="path262"
       transform="translate(24.8516,9.8413)"
       d="M 0,0 1.086,1.412" />
    <path
       id="path264"
       transform="translate(6.873,9.8413)"
       d="M 0,0 1.085,1.412" />
    <path
       id="path266"
       transform="translate(13.166,8.0718)"
       d="M 0,0 -1.085,-1.412" />
    <path
       id="path268"
       transform="translate(29.9561,6.6597)"
       d="M 0,0 1.085,1.412" />
    <path
       id="path270"
       transform="translate(44.2686,3.6655)"
       d="M 0,0 1.085,1.412" />
    <path
       id="path272"
       transform="translate(39.1709,0.686)"
       d="M 0,0 1.085,1.412" />
    <path
       id="path274"
       transform="translate(21.2959,0.686)"
       d="M 0,0 1.085,1.412" />
    <path
       id="path276"
       transform="translate(3.3584,0.686)"
       d="M 0,0 1.085,1.412" />
    <path
       id="path278"
       transform="translate(27.625,5.0776)"
       d="M 0,0 -1.086,-1.412" />
    <path
       id="path280"
       transform="translate(9.5625,5.0776)"
       d="M 0,0 -1.086,-1.412" />
    <path
       id="path282"
       transform="translate(49.208,8.0718)"
       d="M 0,0 -1.085,-1.412" />
    <path
       id="path284"
       transform="translate(5.2588,45.5757)"
       d="M 0,0 H -5.259" />
    <path
       id="path286"
       transform="translate(5.2588,45.5757)"
       d="M 0,0 H 3.862" />
    <path
       id="path288"
       transform="translate(45.8838,45.5757)"
       d="M 0,0 H 4.737" />
    <path
       id="path290"
       transform="translate(37.8711,45.5757)"
       d="M 0,0 H -6.612" />
    <path
       id="path292"
       transform="translate(53.584,45.5757)"
       d="M 0,0 H -2.963" />
    <path
       id="path294"
       transform="translate(45.8838,45.5757)"
       d="M 0,0 H -8.013" />
    <path
       id="path296"
       transform="translate(31.2588,45.5757)"
       d="M 0,0 H -7.138" />
    <path
       id="path298"
       transform="translate(9.1211,45.5757)"
       d="M 0,0 H 8.888" />
    <path
       id="path300"
       transform="translate(18.0088,45.5757)"
       d="M 0,0 H 6.112" />
    <path
       id="path302"
       transform="translate(53.584,42.2944)"
       d="M 0,0 H -53.584" />
    <path
       id="path304"
       transform="translate(45.8838,45.5757)"
       d="M 0,0 V -3.269" />
    <path
       id="path306"
       transform="translate(45.8838,45.5757)"
       d="M 0,0 V 0.031" />
    <path
       id="path308"
       transform="translate(31.2588,45.5757)"
       d="M 0,0 V -3.269" />
    <path
       id="path310"
       transform="translate(31.2588,45.6069)"
       d="M 0,0 V -0.031" />
    <path
       id="path312"
       transform="translate(18.0088,42.3066)"
       d="M 0,0 V 3.269" />
    <path
       id="path314"
       transform="translate(18.0088,45.5757)"
       d="M 0,0 V 0.031" />
    <path
       id="path316"
       transform="translate(5.2588,45.5757)"
       d="M 0,0 V 0.031" />
    <path
       id="path318"
       transform="translate(5.2588,45.5757)"
       d="M 0,0 V -3.269" />
    <path
       id="path320"
       transform="translate(9.1211,48.9541)"
       d="M 0,0 H 15" />
    <path
       id="path322"
       transform="translate(50.6211,48.9541)"
       d="M 0,0 H 2.963" />
    <path
       id="path324"
       transform="translate(37.8711,48.9541)"
       d="M 0,0 H -13.75" />
    <path
       id="path326"
       transform="translate(37.8711,48.9541)"
       d="M 0,0 H 12.75" />
    <path
       id="path328"
       transform="translate(9.1211,48.9541)"
       d="M 0,0 H -9.121" />
    <path
       id="path330"
       transform="translate(9.1211,45.5415)"
       d="M 0,0 V 0.034" />
    <path
       id="path332"
       transform="translate(9.1211,48.9541)"
       d="M 0,0 V -3.378" />
    <path
       id="path334"
       transform="translate(9.1211,48.9541)"
       d="M 0,0 V 0.013" />
    <path
       id="path336"
       transform="translate(24.1211,45.5415)"
       d="M 0,0 V 0.034" />
    <path
       id="path338"
       transform="translate(24.1211,45.5757)"
       d="M 0,0 V 3.378" />
    <path
       id="path340"
       transform="translate(24.1211,48.9541)"
       d="M 0,0 V 0.013" />
    <path
       id="path342"
       transform="translate(37.8711,45.5757)"
       d="M 0,0 V -0.034" />
    <path
       id="path344"
       transform="translate(37.8711,48.9541)"
       d="M 0,0 V -3.378" />
    <path
       id="path346"
       transform="translate(37.8711,48.9541)"
       d="M 0,0 V 0.013" />
    <path
       id="path348"
       transform="translate(50.6211,45.5757)"
       d="M 0,0 V 3.378" />
    <path
       id="path350"
       transform="translate(50.6211,45.5415)"
       d="M 0,0 V 0.034" />
    <path
       id="path352"
       transform="translate(50.6211,48.9541)"
       d="M 0,0 V 0.013" />
    <path
       id="path354"
       transform="translate(8.4355,14.8652)"
       d="M 0,0 H -8.436" />
    <path
       id="path356"
       transform="translate(50.1855,14.8652)"
       d="M 0,0 H 3.398" />
    <path
       id="path358"
       transform="translate(8.4355,14.8652)"
       d="M 0,0 H 13.25" />
    <path
       id="path360"
       transform="translate(35.3105,14.8652)"
       d="M 0,0 H 14.875" />
    <path
       id="path362"
       transform="translate(21.6855,14.8652)"
       d="M 0,0 H 13.625" />
    <path
       id="path364"
       transform="translate(53.584,21.7026)"
       d="M 0,0 H -53.584" />
    <path
       id="path366"
       transform="translate(53.584,18.4775)"
       d="M 0,0 H -53.584" />
    <path
       id="path368"
       transform="translate(43.752,18.4902)"
       d="M 0,0 V 3.163" />
    <path
       id="path370"
       transform="translate(29.6025,18.4902)"
       d="M 0,0 V 3.163" />
    <path
       id="path372"
       transform="translate(14.4775,18.4902)"
       d="M 0,0 V 3.163" />
    <path
       id="path374"
       transform="translate(2.0605,21.6528)"
       d="M 0,0 V -3.163" />
    <path
       id="path376"
       transform="translate(8.4355,14.8652)"
       d="M 0,0 V 3.563" />
    <path
       id="path378"
       transform="translate(21.6855,14.8652)"
       d="M 0,0 V 3.563" />
    <path
       id="path380"
       transform="translate(35.3105,14.8652)"
       d="M 0,0 V 3.563" />
    <path
       id="path382"
       transform="translate(50.1855,14.8652)"
       d="M 0,0 V 3.563" />
  </g>
</svg>
