<?xml version="1.0" encoding="UTF-8" standalone="no"?>
<svg
   xmlns:dc="http://purl.org/dc/elements/1.1/"
   xmlns:cc="http://creativecommons.org/ns#"
   xmlns:rdf="http://www.w3.org/1999/02/22-rdf-syntax-ns#"
   xmlns:svg="http://www.w3.org/2000/svg"
   xmlns="http://www.w3.org/2000/svg"
   id="svg96"
        width="43.3345"
     height="43.3345">

   version="1.1">
  <defs
     id="defs100" />
  <metadata
     id="metadata2">citation: U.S. Geological Survey, 2006, FGDC Digital Cartographic Standard for Geologic Map Symbolization (PostScript Implementation): U.S. Geological Survey Techniques and Methods 11-A2 [pubs.usgs.gov/tm/2006/11A02/]. converted by CEC Geology LLC 2018 from the USGS lithologic gs converted to inkscape by the University of Otago.<rdf:RDF>
  <cc:Work
     rdf:about="">
    <dc:format>image/svg+xml</dc:format>
    <dc:type
       rdf:resource="http://purl.org/dc/dcmitype/StillImage" />
    <dc:title></dc:title>
  </cc:Work>
</rdf:RDF>
</metadata>
  <g
     transform="matrix(1,0,0,-1,0,42.3128)"
	 stroke-width=".3"
     stroke="#231f20"
     fill="none"
     stroke-linecap="round"
	 stroke-linejoin="round"
     id="g94"
     width="43.3345"
     height="43.3345">
    <path
       id="path4"
       transform="translate(39.2124,40.7524)"
       d="M 0,0 1.063,-2.987 2.126,0" />
    <path
       id="path6"
       transform="translate(33.0146,40.7524)"
       d="M 0,0 1.063,-2.987 2.126,0" />
    <path
       id="path8"
       transform="translate(26.8164,40.7524)"
       d="M 0,0 1.063,-2.987 2.126,0" />
    <path
       id="path10"
       transform="translate(20.6187,40.7524)"
       d="M 0,0 1.063,-2.987 2.126,0" />
    <path
       id="path12"
       transform="translate(14.4204,40.7524)"
       d="M 0,0 1.063,-2.987 2.127,0" />
    <path
       id="path14"
       transform="translate(8.2227,40.7524)"
       d="M 0,0 1.063,-2.987 2.126,0" />
    <path
       id="path16"
       transform="translate(2.0249,40.7524)"
       d="M 0,0 1.063,-2.987 2.126,0" />
    <path
       id="path18"
       transform="translate(0,30.4907)"
       d="M 0,0 1.063,2.987" />
    <path
       id="path20"
       transform="translate(2.0249,26.2451)"
       d="M 0,0 1.063,-2.987 2.126,0" />
    <path
       id="path22"
       transform="translate(0,16.0264)"
       d="M 0,0 1.063,2.987" />
    <path
       id="path24"
       transform="translate(2.0249,11.7808)"
       d="M 0,0 1.063,-2.987 2.126,0" />
    <path
       id="path26"
       transform="translate(0,1.562)"
       d="M 0,0 1.063,2.987" />
    <path
       id="path28"
       transform="translate(42.2729,33.4761)"
       d="M 0,0 1.063,-2.987" />
    <path
       id="path30"
       transform="translate(36.1245,33.5566)"
       d="M 0,0 1.063,-2.987 2.126,0" />
    <path
       id="path32"
       transform="translate(29.9268,33.5566)"
       d="M 0,0 1.063,-2.987 2.126,0" />
    <path
       id="path34"
       transform="translate(23.7285,33.5566)"
       d="M 0,0 1.063,-2.987 2.126,0" />
    <path
       id="path36"
       transform="translate(17.5308,33.5566)"
       d="M 0,0 1.063,-2.987 2.126,0" />
    <path
       id="path38"
       transform="translate(11.3325,33.5566)"
       d="M 0,0 1.063,-2.987 2.126,0" />
    <path
       id="path40"
       transform="translate(5.1348,33.5566)"
       d="M 0,0 1.063,-2.987 2.126,0" />
    <path
       id="path42"
       transform="translate(39.2124,26.3174)"
       d="M 0,0 1.063,-2.987 2.126,0" />
    <path
       id="path44"
       transform="translate(33.0146,26.3174)"
       d="M 0,0 1.063,-2.987 2.126,0" />
    <path
       id="path46"
       transform="translate(26.8164,26.3174)"
       d="M 0,0 1.063,-2.987 2.126,0" />
    <path
       id="path48"
       transform="translate(20.6187,26.3174)"
       d="M 0,0 1.063,-2.987 2.126,0" />
    <path
       id="path50"
       transform="translate(14.4204,26.3174)"
       d="M 0,0 1.063,-2.987 2.126,0" />
    <path
       id="path52"
       transform="translate(8.2227,26.3174)"
       d="M 0,0 1.063,-2.987 2.126,0" />
    <path
       id="path54"
       transform="translate(42.2754,19.0156)"
       d="M 0,0 1.063,-2.987" />
    <path
       id="path56"
       transform="translate(36.1245,19.0781)"
       d="M 0,0 1.063,-2.987 2.126,0" />
    <path
       id="path58"
       transform="translate(29.9268,19.0781)"
       d="M 0,0 1.063,-2.987 2.126,0" />
    <path
       id="path60"
       transform="translate(23.7285,19.0781)"
       d="M 0,0 1.063,-2.987 2.126,0" />
    <path
       id="path62"
       transform="translate(17.5308,19.0781)"
       d="M 0,0 1.063,-2.987 2.126,0" />
    <path
       id="path64"
       transform="translate(11.3325,19.0781)"
       d="M 0,0 1.063,-2.987 2.126,0" />
    <path
       id="path66"
       transform="translate(5.1348,19.0781)"
       d="M 0,0 1.063,-2.987 2.126,0" />
    <path
       id="path68"
       transform="translate(39.2124,11.8384)"
       d="M 0,0 1.063,-2.987 2.126,0" />
    <path
       id="path70"
       transform="translate(33.0146,11.8384)"
       d="M 0,0 1.063,-2.987 2.126,0" />
    <path
       id="path72"
       transform="translate(26.8164,11.8384)"
       d="M 0,0 1.063,-2.987 2.126,0" />
    <path
       id="path74"
       transform="translate(20.6187,11.8384)"
       d="M 0,0 1.063,-2.987 2.126,0" />
    <path
       id="path76"
       transform="translate(14.4204,11.8384)"
       d="M 0,0 1.063,-2.987 2.127,0" />
    <path
       id="path78"
       transform="translate(8.2227,11.8384)"
       d="M 0,0 1.063,-2.987 2.126,0" />
    <path
       id="path80"
       transform="translate(42.2803,4.5474)"
       d="M 0,0 1.063,-2.987" />
    <path
       id="path82"
       transform="translate(36.1245,4.5991)"
       d="M 0,0 1.063,-2.987 2.126,0" />
    <path
       id="path84"
       transform="translate(29.9268,4.5991)"
       d="M 0,0 1.063,-2.987 2.126,0" />
    <path
       id="path86"
       transform="translate(23.7285,4.5991)"
       d="M 0,0 1.063,-2.987 2.126,0" />
    <path
       id="path88"
       transform="translate(17.5308,4.5991)"
       d="M 0,0 1.063,-2.987 2.126,0" />
    <path
       id="path90"
       transform="translate(11.3325,4.5991)"
       d="M 0,0 1.063,-2.987 2.126,0" />
    <path
       id="path92"
       transform="translate(5.1348,4.5991)"
       d="M 0,0 1.063,-2.987 2.126,0" />
  </g>
</svg>
