<?xml version="1.0" encoding="UTF-8" standalone="no"?>
<svg
   xmlns:dc="http://purl.org/dc/elements/1.1/"
   xmlns:cc="http://creativecommons.org/ns#"
   xmlns:rdf="http://www.w3.org/1999/02/22-rdf-syntax-ns#"
   xmlns:svg="http://www.w3.org/2000/svg"
   xmlns="http://www.w3.org/2000/svg"
   height="53.988571"
   width="54.125702"
   id="svg372"
   version="1.1">
  <defs
     id="defs376" />
  <metadata
     id="metadata2">citation: U.S. Geological Survey, 2006, FGDC Digital Cartographic Standard for Geologic Map Symbolization (PostScript Implementation): U.S. Geological Survey Techniques and Methods 11-A2 [pubs.usgs.gov/tm/2006/11A02/]. converted by CEC Geology LLC 2018 from the USGS lithologic gs converted to inkscape by the University of Otago.<rdf:RDF>
  <cc:Work
     rdf:about="">
    <dc:format>image/svg+xml</dc:format>
    <dc:type
       rdf:resource="http://purl.org/dc/dcmitype/StillImage" />
    <dc:title></dc:title>
  </cc:Work>
</rdf:RDF>
</metadata>
  <g

     stroke="#231f20"
     fill="none"
     id="g370"
     width="54.125"
     height="54.125">
    <g
       style="stroke-width:0.7;stroke-linecap:round"
       id="g266">
      <path
         id="path4"
         transform="translate(2.2714,40.0244)"
         d="M 0,0 0.01,0.01" />
      <path
         id="path6"
         transform="translate(6.4882,40.6231)"
         d="M 0,0 0.01,0.01" />
      <path
         id="path8"
         transform="translate(12.0981,40.9531)"
         d="M 0,0 0.01,0.01" />
      <path
         id="path10"
         transform="translate(16.8281,39.9629)"
         d="M 0,0 0.01,0.01" />
      <path
         id="path12"
         transform="translate(18.8081,36.1133)"
         d="M 0,0 0.01,0.01" />
      <path
         id="path14"
         transform="translate(14.958,34.6836)"
         d="M 0,0 0.01,0.01" />
      <path
         id="path16"
         transform="translate(10.8881,35.1231)"
         d="M 0,0 0.01,0.01" />
      <path
         id="path18"
         transform="translate(6.3779,35.7832)"
         d="M 0,0 0.01,0.01" />
      <path
         id="path20"
         transform="translate(5.0581,31.2734)"
         d="M 0,0 0.01,0.01" />
      <path
         id="path22"
         transform="translate(1.3178,31.6035)"
         d="M 0,0 0.01,0.01" />
      <path
         id="path24"
         transform="translate(17.625,49.125)"
         d="M 0,0 0.01,0.01" />
      <path
         id="path26"
         transform="translate(9.625,43.75)"
         d="M 0,0 0.01,0.01" />
      <path
         id="path28"
         transform="translate(4.25,44.25)"
         d="M 0,0 0.01,0.01" />
      <path
         id="path30"
         transform="translate(1.375,50.25)"
         d="M 0,0 0.01,0.01" />
      <path
         id="path32"
         transform="translate(8.0751,51.1377)"
         d="M 0,0 0.01,0.01" />
      <path
         id="path34"
         transform="translate(13.5,49.875)"
         d="M 0,0 0.01,0.01" />
      <path
         id="path36"
         transform="translate(26.1093,44.6387)"
         d="M 0,0 0.01,0.01" />
      <path
         id="path38"
         transform="translate(24.625,47.5)"
         d="M 0,0 0.01,0.01" />
      <path
         id="path40"
         transform="translate(21.875,50.75)"
         d="M 0,0 0.01,0.01" />
      <path
         id="path42"
         transform="translate(25.3422,51.2598)"
         d="M 0,0 0.01,0.01" />
      <path
         id="path44"
         transform="translate(34.25,53.5254)"
         d="M 0,0 0.01,0.01" />
      <path
         id="path46"
         transform="translate(46.375,48.25)"
         d="M 0,0 0.01,0.01" />
      <path
         id="path48"
         transform="translate(53.5,48.625)"
         d="M 0,0 0.01,0.01" />
      <path
         id="path50"
         transform="translate(50.125,50.375)"
         d="M 0,0 0.01,0.01" />
      <path
         id="path52"
         transform="translate(46.625,44.875)"
         d="M 0,0 0.01,0.01" />
      <path
         id="path54"
         transform="translate(45,51.625)"
         d="M 0,0 0.01,0.01" />
      <path
         id="path56"
         transform="translate(32.6376,44.4346)"
         d="M 0,0 0.01,0.01" />
      <path
         id="path58"
         transform="translate(48.375,28.875)"
         d="M 0,0 0.01,0.01" />
      <path
         id="path60"
         transform="translate(40.125,30.5)"
         d="M 0,0 0.01,0.01" />
      <path
         id="path62"
         transform="translate(25.5,33.5)"
         d="M 0,0 0.01,0.01" />
      <path
         id="path64"
         transform="translate(50.3793,44.3281)"
         d="M 0,0 0.01,0.01" />
      <path
         id="path66"
         transform="translate(33.75,49.25)"
         d="M 0,0 0.01,0.01" />
      <path
         id="path68"
         transform="translate(41.375,49.25)"
         d="M 0,0 0.01,0.01" />
      <path
         id="path70"
         transform="translate(37.875,51.75)"
         d="M 0,0 0.01,0.01" />
      <path
         id="path72"
         transform="translate(37.0239,43.6191)"
         d="M 0,0 0.01,0.01" />
      <path
         id="path74"
         transform="translate(1.4179,24.3076)"
         d="M 0,0 0.01,0.01" />
      <path
         id="path76"
         transform="translate(7.038,27.2031)"
         d="M 0,0 0.01,0.01" />
      <path
         id="path78"
         transform="translate(11.5478,29.8438)"
         d="M 0,0 0.01,0.01" />
      <path
         id="path80"
         transform="translate(14.518,27.2031)"
         d="M 0,0 0.01,0.01" />
      <path
         id="path82"
         transform="translate(18.2583,29.8438)"
         d="M 0,0 0.01,0.01" />
      <path
         id="path84"
         transform="translate(21.3383,33.4727)"
         d="M 0,0 0.01,0.01" />
      <path
         id="path86"
         transform="translate(22.9882,37.1035)"
         d="M 0,0 0.01,0.01" />
      <path
         id="path88"
         transform="translate(28.125,36.125)"
         d="M 0,0 0.01,0.01" />
      <path
         id="path90"
         transform="translate(26.9482,40.4033)"
         d="M 0,0 0.01,0.01" />
      <path
         id="path92"
         transform="translate(32.8881,40.5137)"
         d="M 0,0 0.01,0.01" />
      <path
         id="path94"
         transform="translate(32.998,37.1035)"
         d="M 0,0 0.01,0.01" />
      <path
         id="path96"
         transform="translate(36.9585,36.0039)"
         d="M 0,0 0.01,0.01" />
      <path
         id="path98"
         transform="translate(38.1684,40.9531)"
         d="M 0,0 0.01,0.01" />
      <path
         id="path100"
         transform="translate(43,42.375)"
         d="M 0,0 0.01,0.01" />
      <path
         id="path102"
         transform="translate(47.2983,40.8438)"
         d="M 0,0 0.01,0.01" />
      <path
         id="path104"
         transform="translate(53.5683,41.6133)"
         d="M 0,0 0.01,0.01" />
      <path
         id="path106"
         transform="translate(49.6084,36.7734)"
         d="M 0,0 0.01,0.01" />
      <path
         id="path108"
         transform="translate(46.0883,35.6738)"
         d="M 0,0 0.01,0.01" />
      <path
         id="path110"
         transform="translate(48.1782,32.5938)"
         d="M 0,0 0.01,0.01" />
      <path
         id="path112"
         transform="translate(52.9082,34.9033)"
         d="M 0,0 0.01,0.01" />
      <path
         id="path114"
         transform="translate(41.6884,33.583)"
         d="M 0,0 0.01,0.01" />
      <path
         id="path116"
         transform="translate(50.7085,27.2031)"
         d="M 0,0 0.01,0.01" />
      <path
         id="path118"
         transform="translate(44.6582,29.293)"
         d="M 0,0 0.01,0.01" />
      <path
         id="path120"
         transform="translate(38.7182,26.7637)"
         d="M 0,0 0.01,0.01" />
      <path
         id="path122"
         transform="translate(35.6381,29.5137)"
         d="M 0,0 0.01,0.01" />
      <path
         id="path124"
         transform="translate(30.6879,30.2832)"
         d="M 0,0 0.01,0.01" />
      <path
         id="path126"
         transform="translate(32.6679,26.6533)"
         d="M 0,0 0.01,0.01" />
      <path
         id="path128"
         transform="translate(41.7983,22.1426)"
         d="M 0,0 0.01,0.01" />
      <path
         id="path130"
         transform="translate(45.538,23.5732)"
         d="M 0,0 0.01,0.01" />
      <path
         id="path132"
         transform="translate(48.288,20.7129)"
         d="M 0,0 0.01,0.01" />
      <path
         id="path134"
         transform="translate(51.4785,22.8027)"
         d="M 0,0 0.01,0.01" />
      <path
         id="path136"
         transform="translate(51.1484,17.3027)"
         d="M 0,0 0.01,0.01" />
      <path
         id="path138"
         transform="translate(47.4082,13.6729)"
         d="M 0,0 0.01,0.01" />
      <path
         id="path140"
         transform="translate(42.788,14.7734)"
         d="M 0,0 0.01,0.01" />
      <path
         id="path142"
         transform="translate(38.7182,14.0029)"
         d="M 0,0 0.01,0.01" />
      <path
         id="path144"
         transform="translate(34.538,14.9932)"
         d="M 0,0 0.01,0.01" />
      <path
         id="path146"
         transform="translate(30.3584,17.3027)"
         d="M 0,0 0.01,0.01" />
      <path
         id="path148"
         transform="translate(33.9882,22.4727)"
         d="M 0,0 0.01,0.01" />
      <path
         id="path150"
         transform="translate(38.0581,20.1631)"
         d="M 0,0 0.01,0.01" />
      <path
         id="path152"
         transform="translate(52.3584,10.9229)"
         d="M 0,0 0.01,0.01" />
      <path
         id="path154"
         transform="translate(49.9384,8.3926)"
         d="M 0,0 0.01,0.01" />
      <path
         id="path156"
         transform="translate(45.538,8.3926)"
         d="M 0,0 0.01,0.01" />
      <path
         id="path158"
         transform="translate(41.1381,8.9434)"
         d="M 0,0 0.01,0.01" />
      <path
         id="path160"
         transform="translate(37.1782,6.6328)"
         d="M 0,0 0.01,0.01" />
      <path
         id="path162"
         transform="translate(41.7983,4.543)"
         d="M 0,0 0.01,0.01" />
      <path
         id="path164"
         transform="translate(44.3281,1.2422)"
         d="M 0,0 0.01,0.01" />
      <path
         id="path166"
         transform="translate(52.5781,1.793)"
         d="M 0,0 0.01,0.01" />
      <path
         id="path168"
         transform="translate(53.0185,6.1934)"
         d="M 0,0 0.01,0.01" />
      <path
         id="path170"
         transform="translate(40.5883,0.3633)"
         d="M 0,0 0.01,0.01" />
      <path
         id="path172"
         transform="translate(37.8383,2.8926)"
         d="M 0,0 0.01,0.01" />
      <path
         id="path174"
         transform="translate(31.5683,2.5625)"
         d="M 0,0 0.01,0.01" />
      <path
         id="path176"
         transform="translate(32.5581,8.1729)"
         d="M 0,0 0.01,0.01" />
      <path
         id="path178"
         transform="translate(31.1284,12.2432)"
         d="M 0,0 0.01,0.01" />
      <path
         id="path180"
         transform="translate(27.3881,14.5527)"
         d="M 0,0 0.01,0.01" />
      <path
         id="path182"
         transform="translate(26.0683,17.9629)"
         d="M 0,0 0.01,0.01" />
      <path
         id="path184"
         transform="translate(23.0981,14.333)"
         d="M 0,0 0.01,0.01" />
      <path
         id="path186"
         transform="translate(29.1479,21.9238)"
         d="M 0,0 0.01,0.01" />
      <path
         id="path188"
         transform="translate(27.3881,26.4336)"
         d="M 0,0 0.01,0.01" />
      <path
         id="path190"
         transform="translate(24.1982,23.6836)"
         d="M 0,0 0.01,0.01" />
      <path
         id="path192"
         transform="translate(23.3183,20.0527)"
         d="M 0,0 0.01,0.01" />
      <path
         id="path194"
         transform="translate(22.4379,26.7637)"
         d="M 0,0 0.01,0.01" />
      <path
         id="path196"
         transform="translate(19.4682,24.8926)"
         d="M 0,0 0.01,0.01" />
      <path
         id="path198"
         transform="translate(20.018,20.7129)"
         d="M 0,0 0.01,0.01" />
      <path
         id="path200"
         transform="translate(16.6079,22.6934)"
         d="M 0,0 0.01,0.01" />
      <path
         id="path202"
         transform="translate(13.1982,22.3633)"
         d="M 0,0 0.01,0.01" />
      <path
         id="path204"
         transform="translate(9.5678,23.4629)"
         d="M 0,0 0.01,0.01" />
      <path
         id="path206"
         transform="translate(9.788,18.6231)"
         d="M 0,0 0.01,0.01" />
      <path
         id="path208"
         transform="translate(16.7182,16.9727)"
         d="M 0,0 0.01,0.01" />
      <path
         id="path210"
         transform="translate(19.3584,13.7832)"
         d="M 0,0 0.01,0.01" />
      <path
         id="path212"
         transform="translate(12.643,15.0684)"
         d="M 0,0 0.01,0.01" />
      <path
         id="path214"
         transform="translate(8.353,15.2881)"
         d="M 0,0 0.01,0.01" />
      <path
         id="path216"
         transform="translate(5.2089,15.9619)"
         d="M 0,0 0.01,0.01" />
      <path
         id="path218"
         transform="translate(8.1054,10.8574)"
         d="M 0,0 0.01,0.01" />
      <path
         id="path220"
         transform="translate(2.4179,16.8633)"
         d="M 0,0 0.01,0.01" />
      <path
         id="path222"
         transform="translate(0.4379,19.6133)"
         d="M 0,0 0.01,0.01" />
      <path
         id="path224"
         transform="translate(1.7583,9.7129)"
         d="M 0,0 0.01,0.01" />
      <path
         id="path226"
         transform="translate(5.0581,8.0625)"
         d="M 0,0 0.01,0.01" />
      <path
         id="path228"
         transform="translate(15.2963,43.5166)"
         d="M 0,0 0.01,0.01" />
      <path
         id="path230"
         transform="translate(9.5,9.125)"
         d="M 0,0 0.01,0.01" />
      <path
         id="path232"
         transform="translate(13.5,8.25)"
         d="M 0,0 0.01,0.01" />
      <path
         id="path234"
         transform="translate(16.498,6.7432)"
         d="M 0,0 0.01,0.01" />
      <path
         id="path236"
         transform="translate(17.268,10.8125)"
         d="M 0,0 0.01,0.01" />
      <path
         id="path238"
         transform="translate(22.4379,10.3731)"
         d="M 0,0 0.01,0.01" />
      <path
         id="path240"
         transform="translate(20.499,44.8428)"
         d="M 0,0 0.01,0.01" />
      <path
         id="path242"
         transform="translate(23.5,7.125)"
         d="M 0,0 0.01,0.01" />
      <path
         id="path244"
         transform="translate(27.498,5.5332)"
         d="M 0,0 0.01,0.01" />
      <path
         id="path246"
         transform="translate(25.2983,2.5625)"
         d="M 0,0 0.01,0.01" />
      <path
         id="path248"
         transform="translate(21.0083,0.4727)"
         d="M 0,0 0.01,0.01" />
      <path
         id="path250"
         transform="translate(19.3584,3.6641)"
         d="M 0,0 0.01,0.01" />
      <path
         id="path252"
         transform="translate(16.8281,1.2422)"
         d="M 0,0 0.01,0.01" />
      <path
         id="path254"
         transform="translate(13.3081,4.2129)"
         d="M 0,0 0.01,0.01" />
      <path
         id="path256"
         transform="translate(13.0878,0.9141)"
         d="M 0,0 0.01,0.01" />
      <path
         id="path258"
         transform="translate(7.5878,0.2539)"
         d="M 0,0 0.01,0.01" />
      <path
         id="path260"
         transform="translate(4.9482,2.3438)"
         d="M 0,0 0.01,0.01" />
      <path
         id="path262"
         transform="translate(0.625,0.625)"
         d="M 0,0 0.01,0.01" />
      <path
         id="path264"
         transform="translate(1.7583,5.5332)"
         d="M 0,0 0.01,0.01" />
    </g>
    <path
       style="stroke-width:0.30000001"
       id="path268"
       transform="translate(20.8979,30.5313)"
       d="M 0,0 C 0.76,1.265 2.64,1.484 3.465,1.236 4.29,0.989 4.62,0.576 5.115,0.659 5.61,0.742 6.848,-0.496 5.693,-1.32 4.538,-2.146 2.805,-2.889 2.227,-2.559 1.65,-2.229 0.99,-1.898 0.578,-1.732 0.165,-1.568 -0.247,-0.413 0,0 Z" />
    <path
       style="stroke-width:0.30000001"
       id="path270"
       transform="translate(41.3584,38.7813)"
       d="M 0,0 C 0.99,0 1.815,-0.578 2.063,-1.238 2.31,-1.899 1.402,-3.878 -0.495,-2.641 -2.393,-1.402 -1.65,0.164 0,0 Z" />
    <path
       style="stroke-width:0.30000001"
       id="path272"
       transform="translate(45.8134,19.9707)"
       d="m 0,0 c 2.228,-1.402 2.063,-3.631 -0.413,-2.888 -2.475,0.743 -2.392,0.99 -3.465,2.64 C -4.95,1.402 -1.485,0.907 0,0 Z" />
    <path
       style="stroke-width:0.30000001"
       id="path274"
       transform="translate(28.9008,11.2256)"
       d="m 0,0 c 1.732,-0.907 1.402,-2.64 -0.578,-2.228 -1.98,0.413 -2.722,1.238 -3.135,2.145 -0.412,0.908 0.99,1.98 2.558,0.99 C -0.743,0.495 0,0 0,0 Z" />
    <path
       style="stroke-width:0.30000001"
       id="path276"
       transform="translate(6.2128,23.1875)"
       d="m 0,0 c 1.238,-0.247 1.898,-0.742 1.98,-1.732 0.083,-0.99 -0.577,-1.98 -2.887,-1.815 -2.31,0.165 -3.795,0.578 -2.475,2.145 0.825,0.083 1.155,0.248 1.485,0.908 0.33,0.66 1.32,0.66 1.897,0.494 z" />
    <path
       style="stroke-width:0.30000001"
       id="path278"
       transform="translate(2.8305,36.0586)"
       d="M 0,0 C 1.732,0.66 3.3,-1.402 1.237,-1.981 -0.825,-2.559 -1.815,-0.413 0,0 Z" />
    <path
       style="stroke-width:0.30000001"
       id="path280"
       transform="translate(49.6084,4.3789)"
       d="M 0,0 C 1.485,1.154 2.723,-0.332 1.732,-1.156 0.742,-1.98 -0.66,-3.137 -1.567,-2.477 -2.475,-1.816 -2.145,-0.66 -1.238,-0.496 -0.33,-0.332 0,0 0,0 Z" />
    <path
       style="stroke-width:0.30000001"
       id="path282"
       transform="translate(9.2656,5.6982)"
       d="M 0,0 C 2.063,-0.413 2.97,-1.403 1.567,-2.227 0.165,-3.052 0.165,-2.888 -1.402,-2.393 -2.97,-1.897 -4.373,-1.319 -3.382,-0.577 -2.393,0.165 -1.073,0.412 0,0 Z" />
    <path
       style="stroke-width:0.30000001"
       id="path284"
       transform="translate(4.6206,37.9658)"
       d="M 0,0 H 13.619" />
    <path
       style="stroke-width:0.30000001"
       id="path286"
       transform="translate(1.9545,52.2354)"
       d="M 0,0 H 11.339" />
    <path
       style="stroke-width:0.30000001"
       id="path288"
       transform="translate(25.4643,38.8633)"
       d="M 0,0 H 12.248" />
    <path
       style="stroke-width:0.30000001"
       id="path290"
       transform="translate(-0.0103,38.8633)"
       d="M 0,0 H 2.794" />
    <path
       style="stroke-width:0.30000001"
       id="path292"
       transform="translate(44.9755,38.8633)"
       d="M 0,0 H 9.139" />
    <path
       style="stroke-width:0.30000001"
       id="path294"
       transform="translate(40.7231,53.1641)"
       d="M 0,0 H 11.339" />
    <path
       style="stroke-width:0.30000001"
       id="path296"
       transform="translate(44.2011,32.1152)"
       d="M 0,0 H -15.9" />
    <path
       style="stroke-width:0.30000001"
       id="path298"
       transform="translate(17.0244,32.3975)"
       d="M 0,0 H -11.026" />
    <path
       style="stroke-width:0.30000001"
       id="path300"
       transform="translate(22.7431,47.084)"
       d="M 0,0 H -8.949" />
    <path
       style="stroke-width:0.30000001"
       id="path302"
       transform="translate(39.2534,46.541)"
       d="M 0,0 H -10.666" />
    <path
       style="stroke-width:0.30000001"
       id="path304"
       transform="translate(3.9604,25.4434)"
       d="M 0,0 H 10.337" />
    <path
       style="stroke-width:0.30000001"
       id="path306"
       transform="translate(27.2583,24.9268)"
       d="M 0,0 11.339,0.073" />
    <path
       style="stroke-width:0.30000001"
       id="path308"
       transform="translate(19.1982,52.9209)"
       d="M 0,0 H 12.756" />
    <path
       style="stroke-width:0.30000001"
       id="path310"
       transform="translate(46.8584,25.2227)"
       d="M 0,0 H 6.82" />
    <path
       style="stroke-width:0.30000001"
       id="path312"
       transform="translate(40.7236,18.4033)"
       d="M 0,0 H -8.165" />
    <path
       style="stroke-width:0.30000001"
       id="path314"
       transform="translate(24.6406,18.5371)"
       d="M 0,0 H -8.108" />
    <path
       style="stroke-width:0.30000001"
       id="path316"
       transform="translate(-0.0093,13.7705)"
       d="M 0,0 H 13.298" />
    <path
       style="stroke-width:0.30000001"
       id="path318"
       transform="translate(53.0214,13.7705)"
       d="M 0,0 H 1.094" />
    <path
       style="stroke-width:0.30000001"
       id="path320"
       transform="translate(38.7182,11.583)"
       d="M 0,0 H 7.92" />
    <path
       style="stroke-width:0.30000001"
       id="path322"
       transform="translate(40.4794,5.3145)"
       d="M 0,0 H -10.808" />
    <path
       style="stroke-width:0.30000001"
       id="path324"
       transform="translate(25.2211,5.3809)"
       d="M 0,0 H -12.137" />
    <path
       style="stroke-width:0.30000001"
       id="path326"
       transform="translate(20.9804,41.0908)"
       d="M 0,0 C 1.485,-0.083 1.32,-1.567 0.082,-1.649 -1.155,-1.732 -1.32,-0.165 0,0 Z" />
    <path
       style="stroke-width:0.30000001"
       id="path328"
       transform="translate(32.2832,35.8106)"
       d="M 0,0 C 1.65,0 1.402,-1.65 0.165,-1.65 -1.073,-1.65 -1.402,0 0,0 Z" />
    <path
       style="stroke-width:0.30000001"
       id="path330"
       transform="translate(16.9599,52.7754)"
       d="M 0,0 C 1.65,0 1.402,-1.65 0.165,-1.65 -1.072,-1.65 -1.402,0 0,0 Z" />
    <path
       style="stroke-width:0.30000001"
       id="path332"
       transform="translate(52.7431,31.8506)"
       d="M 0,0 C 0,-1.319 -1.402,-1.155 -1.485,0 -1.567,1.155 0,0.99 0,0 Z" />
    <path
       style="stroke-width:0.30000001"
       id="path334"
       transform="translate(42.5131,26.2402)"
       d="M 0,0 C 1.403,0 1.32,-1.402 0.165,-1.402 -0.99,-1.402 -1.732,-0.082 0,0 Z" />
    <path
       style="stroke-width:0.30000001"
       id="path336"
       transform="translate(50.1845,15.5557)"
       d="M 0,0 C 1.21,0 1.375,-1.43 0.275,-1.484 -0.825,-1.539 -1.43,-0.109 0,0 Z" />
    <path
       style="stroke-width:0.30000001"
       id="path338"
       transform="translate(36.6831,11.6934)"
       d="M 0,0 C 0,-1.266 -1.43,-1.045 -1.43,-0.055 -1.43,0.934 0,1.265 0,0 Z" />
    <path
       style="stroke-width:0.30000001"
       id="path340"
       transform="translate(28.268,19.9981)"
       d="M 0,0 C -0.055,-1.32 -1.54,-0.99 -1.595,-0.055 -1.65,0.88 -0.22,1.375 0,0 Z" />
    <path
       style="stroke-width:0.30000001"
       id="path342"
       transform="translate(3.018,45.9356)"
       d="M 0,0 C -0.055,-1.32 -1.54,-0.99 -1.595,-0.055 -1.65,0.88 -0.22,1.375 0,0 Z" />
    <path
       style="stroke-width:0.30000001"
       id="path344"
       transform="translate(46.1025,6.3867)"
       d="M 0,0 C 0.825,-0.605 0.33,-1.705 -0.825,-1.045 -1.98,-0.386 -1.32,0.77 0,0 Z" />
    <path
       style="stroke-width:0.30000001"
       id="path346"
       transform="translate(28.3232,1.959)"
       d="M 0,0 C 1.132,-0.418 0.77,-1.871 -0.44,-1.432 -1.65,-0.99 -1.045,0.385 0,0 Z" />
    <path
       style="stroke-width:0.30000001"
       id="path348"
       transform="translate(19.5781,9.8232)"
       d="M 0,0 C 1.375,-0.11 1.155,-1.485 0.165,-1.54 -0.825,-1.595 -1.43,0 0,0 Z" />
    <path
       style="stroke-width:0.30000001"
       id="path350"
       transform="translate(14.1879,20.0527)"
       d="M 0,0 C 1.375,-0.935 0.11,-1.925 -0.88,-1.32 -1.87,-0.715 -1.045,0.496 0,0 Z" />
    <path
       style="stroke-width:0.30000001"
       id="path352"
       transform="translate(5.9604,11.6836)"
       d="M 0,0 C 0.825,-0.826 -0.22,-1.596 -0.88,-0.99 -1.54,-0.386 -1.155,0.715 0,0 Z" />
    <path
       style="stroke-width:0.30000001"
       id="path354"
       transform="translate(3.0981,27.2871)"
       d="M 0,0 C 0.055,-1.265 -1.43,-1.154 -1.485,-0.22 -1.54,0.715 -0.11,1.155 0,0 Z" />
    <path
       style="stroke-width:0.30000001"
       id="path356"
       transform="translate(43.31,46)"
       d="M 0,0 C 0.055,-1.266 -1.43,-1.155 -1.485,-0.221 -1.54,0.715 -0.11,1.154 0,0 Z" />
    <path
       style="stroke-width:0.30000001"
       id="path358"
       transform="translate(30.875,50.6875)"
       d="m 0,0 c 1.017,-0.61 1.25,-2 0.5,-2.5 -0.75,-0.5 -2.875,-0.375 -3.375,0.125 -0.5,0.5 -1,1.5 0.25,2.125 1.25,0.625 2,0.625 2.625,0.25 z" />
    <path
       style="stroke-width:0.30000001"
       id="path360"
       transform="translate(5.5,49)"
       d="m 0,0 c 0.625,0.75 1.625,0.75 3.125,0.25 1.5,-0.5 1.625,-1 2.125,-1 0.5,0 1.375,-2 0.125,-2.25 C 4.125,-3.25 1,-3.5 0.625,-2.625 0.25,-1.75 0,0 0,0 Z" />
    <path
       style="stroke-width:0.30000001"
       id="path362"
       transform="translate(53.8579,46.7188)"
       d="M 0,0 H -6.16" />
    <path
       style="stroke-width:0.30000001"
       id="path364"
       transform="translate(38.1782,0.5664)"
       d="M 0,0 H -6.16" />
    <path
       style="stroke-width:0.30000001"
       id="path366"
       transform="translate(8.1562,42.3945)"
       d="M 0,0 H -6.804" />
    <path
       style="stroke-width:0.30000001"
       id="path368"
       transform="translate(30.6674,42.3945)"
       d="M 0,0 H -9.965" />
  </g>
</svg>
