<?xml version="1.0" encoding="UTF-8" standalone="no"?>
<svg
   xmlns:dc="http://purl.org/dc/elements/1.1/"
   xmlns:cc="http://creativecommons.org/ns#"
   xmlns:rdf="http://www.w3.org/1999/02/22-rdf-syntax-ns#"
   xmlns:svg="http://www.w3.org/2000/svg"
   xmlns="http://www.w3.org/2000/svg"
   height="54.125"
   width="54.125"
   id="svg338"
   version="1.1">
  <defs
     id="defs342" />
  <metadata
     id="metadata2">citation: U.S. Geological Survey, 2006, FGDC Digital Cartographic Standard for Geologic Map Symbolization (PostScript Implementation): U.S. Geological Survey Techniques and Methods 11-A2 [pubs.usgs.gov/tm/2006/11A02/]. converted by CEC Geology LLC 2018 from the USGS lithologic gs converted to inkscape by the University of Otago.<rdf:RDF>
  <cc:Work
     rdf:about="">
    <dc:format>image/svg+xml</dc:format>
    <dc:type
       rdf:resource="http://purl.org/dc/dcmitype/StillImage" />
    <dc:title></dc:title>
  </cc:Work>
</rdf:RDF>
</metadata>
  <g
     stroke-width=".3"
     stroke="#231f20"
     fill="none"

     id="g336"
     width="54.125"
     height="54.125">
    <path
       id="path4"
       transform="translate(30.7744,50.375)"
       d="M 0,0 H -2.425" />
    <path
       id="path6"
       transform="translate(42.0166,50.375)"
       d="M 0,0 H -11.242" />
    <path
       id="path8"
       transform="translate(42.0166,50.375)"
       d="M 0,0 H 3.133" />
    <path
       id="path10"
       transform="translate(17.3369,50.375)"
       d="M 0,0 H 11.013" />
    <path
       id="path12"
       transform="translate(54.125,50.375)"
       d="M 0,0 H -8.976" />
    <path
       id="path14"
       transform="translate(4.5869,50.375)"
       d="M 0,0 H 12.75" />
    <path
       id="path16"
       transform="translate(4.5869,50.375)"
       d="M 0,0 H -4.587" />
    <path
       id="path18"
       transform="translate(34.7813,46.1993)"
       d="M 0,0 H -26.813" />
    <path
       id="path20"
       transform="translate(54.125,46.1993)"
       d="M 0,0 H -19.344" />
    <path
       id="path22"
       transform="translate(7.9688,46.1993)"
       d="M 0,0 H -7.969" />
    <path
       id="path24"
       transform="translate(27.5322,42.0118)"
       d="M 0,0 H -14.813" />
    <path
       id="path26"
       transform="translate(27.5322,42.0118)"
       d="M 0,0 H 13.438" />
    <path
       id="path28"
       transform="translate(40.9697,42.0118)"
       d="M 0,0 H 12.813" />
    <path
       id="path30"
       transform="translate(53.7822,42.0118)"
       d="M 0,0 H 0.343" />
    <path
       id="path32"
       transform="translate(12.7197,42.0118)"
       d="M 0,0 H -12.72" />
    <path
       id="path34"
       transform="translate(12.6016,12.3995)"
       d="M 0,0 H 14.5" />
    <path
       id="path36"
       transform="translate(41.1016,12.3995)"
       d="M 0,0 H 12.581" />
    <path
       id="path38"
       transform="translate(53.6826,12.3995)"
       d="M 0,0 H 0.442" />
    <path
       id="path40"
       transform="translate(12.6016,12.3995)"
       d="M 0,0 H -12.602" />
    <path
       id="path42"
       transform="translate(27.1016,12.3995)"
       d="M 0,0 H 14" />
    <path
       id="path44"
       transform="translate(5.4629,8.6241)"
       d="M 0,0 H 4.825" />
    <path
       id="path46"
       transform="translate(10.2881,8.6241)"
       d="M 0,0 H 8.175" />
    <path
       id="path48"
       transform="translate(32.4629,8.6241)"
       d="M 0,0 H -7.675" />
    <path
       id="path50"
       transform="translate(18.4629,8.6241)"
       d="M 0,0 H 6.325" />
    <path
       id="path52"
       transform="translate(51.2275,8.6241)"
       d="M 0,0 H 2.898" />
    <path
       id="path54"
       transform="translate(5.4629,8.6241)"
       d="M 0,0 H -5.463" />
    <path
       id="path56"
       transform="translate(51.2275,8.6241)"
       d="M 0,0 H -4.166" />
    <path
       id="path58"
       transform="translate(47.0615,8.6241)"
       d="M 0,0 H -8.273" />
    <path
       id="path60"
       transform="translate(32.4629,8.6241)"
       d="M 0,0 H 6.325" />
    <path
       id="path62"
       transform="translate(6.6211,37.9932)"
       d="M 0,0 H -6.621" />
    <path
       id="path64"
       transform="translate(6.6211,37.9932)"
       d="M 0,0 H 12.688" />
    <path
       id="path66"
       transform="translate(47.2461,37.9932)"
       d="M 0,0 H 6.879" />
    <path
       id="path68"
       transform="translate(32.6211,37.9932)"
       d="M 0,0 H -13.313" />
    <path
       id="path70"
       transform="translate(47.2461,37.9932)"
       d="M 0,0 H -14.625" />
    <path
       id="path72"
       transform="translate(28.04,34.712)"
       d="M 0,0 H -15" />
    <path
       id="path74"
       transform="translate(28.04,34.712)"
       d="M 0,0 H 13.813" />
    <path
       id="path76"
       transform="translate(53.9121,34.712)"
       d="M 0,0 H 0.213" />
    <path
       id="path78"
       transform="translate(53.9121,34.712)"
       d="M 0,0 H -12.06" />
    <path
       id="path80"
       transform="translate(13.04,34.712)"
       d="M 0,0 H -13.04" />
    <path
       id="path82"
       transform="translate(51.7109,31.2872)"
       d="M 0,0 H 2.414" />
    <path
       id="path84"
       transform="translate(7.4844,31.2872)"
       d="M 0,0 H -7.484" />
    <path
       id="path86"
       transform="translate(34.6094,31.2872)"
       d="M 0,0 H 14.938" />
    <path
       id="path88"
       transform="translate(34.6094,31.2872)"
       d="M 0,0 H -13.688" />
    <path
       id="path90"
       transform="translate(51.7109,31.2872)"
       d="M 0,0 H -2.164" />
    <path
       id="path92"
       transform="translate(7.4844,31.2872)"
       d="M 0,0 H 13.438" />
    <path
       id="path94"
       transform="translate(27.4922,27.2374)"
       d="M 0,0 H -15" />
    <path
       id="path96"
       transform="translate(40.8672,27.2374)"
       d="M 0,0 H -13.375" />
    <path
       id="path98"
       transform="translate(12.4922,27.2374)"
       d="M 0,0 H -12.492" />
    <path
       id="path100"
       transform="translate(54.0547,27.2374)"
       d="M 0,0 H 0.07" />
    <path
       id="path102"
       transform="translate(54.0547,27.2374)"
       d="M 0,0 H -13.188" />
    <path
       id="path104"
       transform="translate(54.125,23.4366)"
       d="M 0,0 H -54.125" />
    <path
       id="path106"
       transform="translate(54.125,19.2374)"
       d="M 0,0 H -54.125" />
    <path
       id="path108"
       transform="translate(51.8203,16.0118)"
       d="M 0,0 H -51.82" />
    <path
       id="path110"
       transform="translate(51.8203,16.0118)"
       d="M 0,0 H 2.305" />
    <path
       id="path112"
       transform="translate(9.0146,0.837)"
       d="M 0,0 H -9.015" />
    <path
       id="path114"
       transform="translate(50.3896,0.837)"
       d="M 0,0 H 3.735" />
    <path
       id="path116"
       transform="translate(9.0146,0.837)"
       d="M 0,0 H 14.313" />
    <path
       id="path118"
       transform="translate(23.3271,0.837)"
       d="M 0,0 H 13.688" />
    <path
       id="path120"
       transform="translate(37.0146,0.837)"
       d="M 0,0 H 13.375" />
    <path
       id="path122"
       transform="translate(54.125,4.212)"
       d="M 0,0 H -54.125" />
    <path
       id="path124"
       transform="translate(5.4629,8.6241)"
       d="M 0,0 0.037,0.063" />
    <path
       id="path126"
       transform="translate(5.4629,8.6241)"
       d="M 0,0 -2.592,-4.387" />
    <path
       id="path128"
       transform="translate(15.8711,4.2374)"
       d="M 0,0 2.592,4.387" />
    <path
       id="path130"
       transform="translate(18.4629,8.6241)"
       d="M 0,0 0.037,0.063" />
    <path
       id="path132"
       transform="translate(32.4629,8.6241)"
       d="M 0,0 0.037,0.063" />
    <path
       id="path134"
       transform="translate(32.4629,8.6241)"
       d="M 0,0 -2.592,-4.387" />
    <path
       id="path136"
       transform="translate(47.0625,8.625)"
       d="M 0,0 -0.001,-0.001" />
    <path
       id="path138"
       transform="translate(47.0615,8.6241)"
       d="M 0,0 -2.628,-4.387" />
    <path
       id="path140"
       transform="translate(50.3896,0.837)"
       d="M 0,0 2.048,3.35" />
    <path
       id="path142"
       transform="translate(50.3896,0.837)"
       d="M 0,0 -0.015,-0.025" />
    <path
       id="path144"
       transform="translate(37.0146,0.837)"
       d="M 0,0 2.048,3.35" />
    <path
       id="path146"
       transform="translate(37.0146,0.837)"
       d="M 0,0 -0.015,-0.025" />
    <path
       id="path148"
       transform="translate(23.3271,0.837)"
       d="M 0,0 -0.015,-0.025" />
    <path
       id="path150"
       transform="translate(23.3271,0.837)"
       d="M 0,0 2.048,3.35" />
    <path
       id="path152"
       transform="translate(9.0146,0.837)"
       d="M 0,0 -0.015,-0.025" />
    <path
       id="path154"
       transform="translate(9.0146,0.837)"
       d="M 0,0 2.048,3.35" />
    <path
       id="path156"
       transform="translate(53.6826,12.3995)"
       d="M 0,0 0.014,0.02" />
    <path
       id="path158"
       transform="translate(51.2275,8.6241)"
       d="M 0,0 -0.04,-0.062" />
    <path
       id="path160"
       transform="translate(51.2275,8.6241)"
       d="M 0,0 2.455,3.775" />
    <path
       id="path162"
       transform="translate(47.3125,12.4375)"
       d="M 0,0 2.125,3.563" />
    <path
       id="path164"
       transform="translate(44.8125,19.3125)"
       d="M 0,0 2.563,4.063" />
    <path
       id="path166"
       transform="translate(51.8203,16.0118)"
       d="M 0,0 -0.008,-0.012" />
    <path
       id="path168"
       transform="translate(51.8203,16.0118)"
       d="M 0,0 2.043,3.2" />
    <path
       id="path170"
       transform="translate(54.0547,27.2374)"
       d="M 0,0 -2.242,-3.737" />
    <path
       id="path172"
       transform="translate(54.0625,27.25)"
       d="M 0,0 -0.008,-0.013" />
    <path
       id="path174"
       transform="translate(49.5469,31.2872)"
       d="M 0,0 0.016,0.025" />
    <path
       id="path176"
       transform="translate(49.5469,31.2872)"
       d="M 0,0 -2.422,-4.037" />
    <path
       id="path178"
       transform="translate(53.9121,34.712)"
       d="M 0,0 0.014,0.02" />
    <path
       id="path180"
       transform="translate(51.7109,31.2872)"
       d="M 0,0 2.201,3.425" />
    <path
       id="path182"
       transform="translate(51.7109,31.2872)"
       d="M 0,0 -0.023,-0.037" />
    <path
       id="path184"
       transform="translate(47.2461,37.9932)"
       d="M 0,0 -1.996,-3.243" />
    <path
       id="path186"
       transform="translate(47.2461,37.9932)"
       d="M 0,0 0.004,0.007" />
    <path
       id="path188"
       transform="translate(51.3594,38)"
       d="M 0,0 2.423,4.012" />
    <path
       id="path190"
       transform="translate(53.7822,42.0118)"
       d="M 0,0 0.03,0.051" />
    <path
       id="path192"
       transform="translate(46.1875,42.0625)"
       d="M 0,0 2.654,4.107" />
    <path
       id="path194"
       transform="translate(53.9043,50.3575)"
       d="M 0,0 -2.612,-4.107" />
    <path
       id="path196"
       transform="translate(45.1494,50.375)"
       d="M 0,0 2.284,3.75" />
    <path
       id="path198"
       transform="translate(45.1494,50.375)"
       d="M 0,0 -0.008,-0.013" />
    <path
       id="path200"
       transform="translate(41.1016,12.3995)"
       d="M 0,0 0.023,0.038" />
    <path
       id="path202"
       transform="translate(38.7881,8.6241)"
       d="M 0,0 2.314,3.775" />
    <path
       id="path204"
       transform="translate(38.75,8.5625)"
       d="M 0,0 0.038,0.062" />
    <path
       id="path206"
       transform="translate(27.1016,12.3995)"
       d="M 0,0 0.023,0.038" />
    <path
       id="path208"
       transform="translate(24.75,8.5625)"
       d="M 0,0 0.038,0.062" />
    <path
       id="path210"
       transform="translate(24.7881,8.6241)"
       d="M 0,0 2.313,3.775" />
    <path
       id="path212"
       transform="translate(12.6016,12.3995)"
       d="M 0,0 0.023,0.038" />
    <path
       id="path214"
       transform="translate(12.6016,12.3995)"
       d="M 0,0 -2.313,-3.775" />
    <path
       id="path216"
       transform="translate(10.25,8.5625)"
       d="M 0,0 0.038,0.062" />
    <path
       id="path218"
       transform="translate(32.4375,12.4375)"
       d="M 0,0 2.125,3.563" />
    <path
       id="path220"
       transform="translate(18.75,12.4375)"
       d="M 0,0 2.125,3.563" />
    <path
       id="path222"
       transform="translate(5.5,12.4375)"
       d="M 0,0 2.125,3.563" />
    <path
       id="path224"
       transform="translate(40,16.0625)"
       d="M 0,0 1.938,3.125" />
    <path
       id="path226"
       transform="translate(25.75,16.0625)"
       d="M 0,0 1.938,3.125" />
    <path
       id="path228"
       transform="translate(10.6875,16.0625)"
       d="M 0,0 1.938,3.125" />
    <path
       id="path230"
       transform="translate(30.5,19.3125)"
       d="M 0,0 2.563,4.063" />
    <path
       id="path232"
       transform="translate(16.875,19.3125)"
       d="M 0,0 2.563,4.063" />
    <path
       id="path234"
       transform="translate(3.875,19.3125)"
       d="M 0,0 2.563,4.063" />
    <path
       id="path236"
       transform="translate(40.8672,27.2374)"
       d="M 0,0 -2.242,-3.737" />
    <path
       id="path238"
       transform="translate(40.875,27.25)"
       d="M 0,0 -0.008,-0.013" />
    <path
       id="path240"
       transform="translate(27.5,27.25)"
       d="M 0,0 -0.008,-0.013" />
    <path
       id="path242"
       transform="translate(27.4922,27.2374)"
       d="M 0,0 -2.242,-3.737" />
    <path
       id="path244"
       transform="translate(12.4922,27.2374)"
       d="M 0,0 -2.242,-3.737" />
    <path
       id="path246"
       transform="translate(12.4922,27.2374)"
       d="M 0,0 0.008,0.013" />
    <path
       id="path248"
       transform="translate(34.6094,31.2872)"
       d="M 0,0 0.016,0.025" />
    <path
       id="path250"
       transform="translate(34.6094,31.2872)"
       d="M 0,0 -2.422,-4.037" />
    <path
       id="path252"
       transform="translate(18.5,27.25)"
       d="M 0,0 2.422,4.037" />
    <path
       id="path254"
       transform="translate(20.9375,31.3125)"
       d="M 0,0 -0.016,-0.025" />
    <path
       id="path256"
       transform="translate(7.4844,31.2872)"
       d="M 0,0 -2.422,-4.037" />
    <path
       id="path258"
       transform="translate(7.4844,31.2872)"
       d="M 0,0 0.016,0.025" />
    <path
       id="path260"
       transform="translate(41.875,34.75)"
       d="M 0,0 -0.023,-0.038" />
    <path
       id="path262"
       transform="translate(39.875,31.3125)"
       d="M 0,0 1.977,3.4" />
    <path
       id="path264"
       transform="translate(28.04,34.712)"
       d="M 0,0 -1.977,-3.4" />
    <path
       id="path266"
       transform="translate(28.04,34.712)"
       d="M 0,0 0.023,0.038" />
    <path
       id="path268"
       transform="translate(13.04,34.712)"
       d="M 0,0 -1.977,-3.4" />
    <path
       id="path270"
       transform="translate(13.04,34.712)"
       d="M 0,0 0.023,0.038" />
    <path
       id="path272"
       transform="translate(32.6211,37.9932)"
       d="M 0,0 0.004,0.007" />
    <path
       id="path274"
       transform="translate(32.6211,37.9932)"
       d="M 0,0 -1.996,-3.243" />
    <path
       id="path276"
       transform="translate(17.3125,34.75)"
       d="M 0,0 1.996,3.243" />
    <path
       id="path278"
       transform="translate(19.3125,38)"
       d="M 0,0 -0.004,-0.007" />
    <path
       id="path280"
       transform="translate(6.6211,37.9932)"
       d="M 0,0 -1.996,-3.243" />
    <path
       id="path282"
       transform="translate(6.6211,37.9932)"
       d="M 0,0 0.004,0.007" />
    <path
       id="path284"
       transform="translate(40.9697,42.0118)"
       d="M 0,0 0.03,0.051" />
    <path
       id="path286"
       transform="translate(38.5625,38)"
       d="M 0,0 2.407,4.012" />
    <path
       id="path288"
       transform="translate(27.5322,42.0118)"
       d="M 0,0 0.03,0.051" />
    <path
       id="path290"
       transform="translate(27.5322,42.0118)"
       d="M 0,0 -2.407,-4.012" />
    <path
       id="path292"
       transform="translate(12.7197,42.0118)"
       d="M 0,0 -2.407,-4.012" />
    <path
       id="path294"
       transform="translate(12.7197,42.0118)"
       d="M 0,0 0.03,0.051" />
    <path
       id="path296"
       transform="translate(34.7813,46.1993)"
       d="M 0,0 0.031,0.051" />
    <path
       id="path298"
       transform="translate(34.7813,46.1993)"
       d="M 0,0 -2.531,-4.137" />
    <path
       id="path300"
       transform="translate(18.625,42.0625)"
       d="M 0,0 2.5,4.125" />
    <path
       id="path302"
       transform="translate(7.9688,46.1993)"
       d="M 0,0 0.031,0.051" />
    <path
       id="path304"
       transform="translate(7.9688,46.1993)"
       d="M 0,0 -2.531,-4.137" />
    <path
       id="path306"
       transform="translate(42.0166,50.375)"
       d="M 0,0 -2.517,-4.125" />
    <path
       id="path308"
       transform="translate(42.0166,50.375)"
       d="M 0,0 0.025,0.041" />
    <path
       id="path310"
       transform="translate(25.8125,46.25)"
       d="M 0,0 2.537,4.125" />
    <path
       id="path312"
       transform="translate(28.375,50.4161)"
       d="M 0,0 -0.025,-0.041" />
    <path
       id="path314"
       transform="translate(13.459,50.3331)"
       d="M 0,0 -2.521,-4.083" />
    <path
       id="path316"
       transform="translate(30.7666,50.3624)"
       d="M 0,0 0.008,0.013" />
    <path
       id="path318"
       transform="translate(30.7744,50.375)"
       d="M 0,0 2.284,3.75" />
    <path
       id="path320"
       transform="translate(17.3369,50.375)"
       d="M 0,0 2.284,3.75" />
    <path
       id="path322"
       transform="translate(17.3291,50.3624)"
       d="M 0,0 0.008,0.013" />
    <path
       id="path324"
       transform="translate(4.5869,50.375)"
       d="M 0,0 -0.008,-0.013" />
    <path
       id="path326"
       transform="translate(6.8711,54.125)"
       d="M 0,0 -2.284,-3.75" />
    <path
       id="path328"
       transform="translate(47.875,0.75)"
       d="M 0,0 -0.452,-0.75" />
    <path
       id="path330"
       transform="translate(33.5,0.75)"
       d="M 0,0 -0.452,-0.75" />
    <path
       id="path332"
       transform="translate(20.0625,0.75)"
       d="M 0,0 -0.452,-0.75" />
    <path
       id="path334"
       transform="translate(7.3125,0.75)"
       d="M 0,0 -0.452,-0.75" />
  </g>
</svg>
