<?xml version="1.0" encoding="UTF-8" standalone="no"?>
<svg
   xmlns:dc="http://purl.org/dc/elements/1.1/"
   xmlns:cc="http://creativecommons.org/ns#"
   xmlns:rdf="http://www.w3.org/1999/02/22-rdf-syntax-ns#"
   xmlns:svg="http://www.w3.org/2000/svg"
   xmlns="http://www.w3.org/2000/svg"
   id="svg694"
   version="1.1"
   width="54.125"
   height="54.125">
  <defs
     id="defs698" />
  <metadata
     id="metadata2">citation: U.S. Geological Survey, 2006, FGDC Digital Cartographic Standard for Geologic Map Symbolization (PostScript Implementation): U.S. Geological Survey Techniques and Methods 11-A2 [pubs.usgs.gov/tm/2006/11A02/]. converted by CEC Geology LLC 2018 from the USGS lithologic gs converted to inkscape by the University of Otago.<rdf:RDF>
  <cc:Work
     rdf:about="">
    <dc:format>image/svg+xml</dc:format>
    <dc:type
       rdf:resource="http://purl.org/dc/dcmitype/StillImage" />
    <dc:title></dc:title>
  </cc:Work>
</rdf:RDF>
</metadata>

<g
stroke="#231f20"
fill="none">
  <path
     id="path4"
     stroke-width=".43"
     d="m40.230035 51.9014c0 .56.455 1.015 1.015 1.015.561 0 1.015-.455 1.015-1.015 0-.561-.454-1.016-1.015-1.016-.56 0-1.015.455-1.015 1.016z" />
  <path
     id="path6"
     stroke-width=".43"

     d="m6.731435 40.2578c0 .561.455 1.016 1.015 1.016.561 0 1.015-.455 1.015-1.016s-.454-1.014-1.015-1.014c-.56 0-1.015.453-1.015 1.014z" />
  <path
     id="path8"
     stroke-width=".43"

     d="m13.653835 51.209c0 .561.455 1.014 1.015 1.014s1.015-.453 1.015-1.014-.455-1.016-1.015-1.016-1.015.455-1.015 1.016z" />
  <path
     id="path10"
     stroke-width=".43"
  
     d="m22.138735 41.3145c0-.561-.455-1.016-1.015-1.016-.561 0-1.015.455-1.015 1.016 0 .559.454 1.014 1.015 1.014.56 0 1.015-.455 1.015-1.014z" />
  <path
     id="path12"
     stroke-width=".43"
 
     d="m35.858935 46.1504c0-.561-.454-1.015-1.015-1.015-.56 0-1.014.454-1.014 1.015s.454 1.016 1.014 1.016c.561 0 1.015-.455 1.015-1.016z" />
  <path
     id="path14"
     stroke-width=".43"

     d="m39.535635 40.5918c0 .56.454 1.015 1.015 1.015.56 0 1.014-.455 1.014-1.015 0-.561-.454-1.016-1.014-1.016-.561 0-1.015.455-1.015 1.016z" />
  <path
     id="path16"
     stroke-width=".43"

     d="m51.588935 35.1895c0 .561.454 1.015 1.015 1.015.56 0 1.015-.454 1.015-1.015s-.455-1.016-1.015-1.016c-.561 0-1.015.455-1.015 1.016z" />
  <path
     id="path18"
     stroke-width=".43"

     d="m28.101135 38.6484c0 .562.454 1.016 1.015 1.016.56 0 1.015-.454 1.015-1.016 0-.561-.455-1.014-1.015-1.014-.561 0-1.015.453-1.015 1.014z" />
  <path
     id="path20"
     stroke-width=".43"

     d="m31.280735 39.6084s2.927-2.548 2.609-3.503" />
  <path
     id="path22"
     stroke-width=".43"

     d="m40.440435 37.8066-1.114-3.342" />
  <path
     id="path24"
     stroke-width=".43"

     d="m44.576635 4.3008c.636-.318-1.432 1.91-1.273 3.182" />
  <path
     id="path26"
     stroke-width=".43"

     d="m45.861335 44.9316c-.796-.16 2.705-1.274 3.341-2.069" />
  <path
     id="path28"
     stroke-width=".43"
     d="m8.916535 47.2402c-.796-.159 2.705-1.273 3.341-2.068" />
  <path
     id="path30"
     stroke-width=".43"
     d="m21.116235 47.2695c-3.079 0-2.989-.619-4.614-1.114" />
  <path
     id="path32"
     stroke-width=".43"
     d="m.434635 16.5732 4.773.317" />
  <path
     id="path34"
     stroke-width=".43"
     d="m32.923835 14.0508c-.955 0-3.501-1.275-3.66-2.07" />
  <path
     id="path36"
     stroke-width=".43"
     d="m4.969235 53.0176c-.955 0-3.501-1.273-3.66-2.068" />
  <path
     id="path38"
     stroke-width=".43"
     d="m17.293435 39.9971c.167-.666-3.015 1.245-2.756 1.899" />
  <path
     id="path40"
     stroke-width=".43"
     d="m9.646035 16.4268c0 .561.454 1.016 1.015 1.016.56 0 1.015-.455 1.015-1.016s-.455-1.014-1.015-1.014c-.561 0-1.015.453-1.015 1.014z" />
  <path
     id="path42"
     stroke-width=".43"
     d="m14.811035 23.7734c0-.561-.454-1.015-1.015-1.015-.56 0-1.014.454-1.014 1.015s.454 1.016 1.014 1.016c.561 0 1.015-.455 1.015-1.016z" />
  <path
     id="path44"
     stroke-width=".43"
     d="m32.668435 22.4258c-.56 0-1.014.453-1.014 1.014s.454 1.015 1.014 1.015c.561 0 1.015-.454 1.015-1.015s-.454-1.014-1.015-1.014z" />
  <path
     id="path46"
     stroke-width=".43"
     d="m53.110835 16.4453c0-.56-.455-1.014-1.015-1.014s-1.015.454-1.015 1.014c0 .561.455 1.016 1.015 1.016s1.015-.455 1.015-1.016z" />
  <path
     id="path48"
     stroke-width=".43"
     d="m34.564435 20.5098s3.471-1.361 3.653-2.352" />
  <path
     id="path50"
     stroke-width=".43"
     d="m48.510735 35.2314c-.159-1.273 1.91-3.501 1.273-3.183" />
  <path
     id="path52"
     stroke-width=".43"
     d="m43.796935 26.9766c-.796-.158 2.704-1.272 3.341-2.068" />
  <path
     id="path54"
     stroke-width=".43"
     d="m22.652335 28.1699s-3.978 2.547-4.933 2.547" />
  <path
     id="path56"
     stroke-width=".43"
     d="m13.256335 38.1709c-1.652.009-2.965-1.265-3.442-1.899" />
  <path
     id="path58"
     stroke-width=".43"
     d="m5.608935 24.2715s2.882-1.511 3.041-2.465" />
  <path
     id="path60"
     stroke-width=".43"
     d="m21.456535 18.3496c-.167-.277 4.496-1.276 4.496-1.832" />
  <path
     id="path62"
     stroke-width=".43"
     d="m30.767135 31.6709c.16.796 3.023-1.433 3.979-1.433" />
  <path
     id="path64"
     stroke-width=".43"
     d="m1.968735 5.6934 1.909-2.865" />
  <path
     id="path66"
     stroke-width=".43"
     d="m45.656735 11.5469c-.561 0-1.015.455-1.015 1.016 0 .559.454 1.013 1.015 1.013s1.015-.454 1.015-1.013c0-.561-.454-1.016-1.015-1.016z" />
  <path
     id="path68"
     stroke-width=".43"
     d="m14.070835 10.3779c0-.561-.455-1.016-1.015-1.016s-1.015.455-1.015 1.016.455 1.014 1.015 1.014 1.015-.453 1.015-1.014z" />
  <path
     id="path70"
     stroke-width=".43"
     d="m28.243635 8.2305c0-.56-.455-1.014-1.015-1.014-.561 0-1.015.454-1.015 1.014 0 .561.454 1.016 1.015 1.016.56 0 1.015-.455 1.015-1.016z" />
  <path
     id="path72"
     stroke-width=".43"
     d="m42.305635 2.6914c0-.561-.454-1.016-1.015-1.016s-1.015.455-1.015 1.016.454 1.015 1.015 1.015 1.015-.454 1.015-1.015z" />
  <path
     id="path74"
     stroke-width=".43"
     d="m53.221235 1.5156c0-.561-.455-1.016-1.015-1.016s-1.015.455-1.015 1.016c0 .56.455 1.015 1.015 1.015s1.015-.455 1.015-1.015z" />
  <path
     id="path76"
     stroke-width=".43"
     d="m21.228535 5.1719c-.796-.158 2.705-1.271 3.341-2.067" />
  <path
     id="path78"
     stroke-width=".43"
     d="m23.740235 11.4395c-.874 0-.596.109-4.615-1.113" />
  <path
     id="path80"
     stroke-width=".43"
     d="m9.055235 10.9746c-.955-.16-2.864-.479-3.342-1.115" />
  <path
     id="path82"
     stroke-width=".43"
     d="m21.827135 35.4863c.478.637 2.864-1.273 3.819-1.113" />
  <path
     id="path84"
     stroke-width=".43"
     d="m34.874535 3.5693c.159.796 2.705 2.068 3.659 2.068" />
  <path
     id="path86"
     stroke-width=".43"
     d="m13.254435 3.1182 1.909-2.864" />
	 </g>
  <g
     id="g560"
     fill="none">
    <path
       id="path88"
       d="m35.729535 11.5273c0-.242-.197-.438-.439-.438-.244 0-.44.196-.44.438 0 .244.196.441.44.441.242 0 .439-.197.439-.441z" />
    <path
       id="path90"
       d="m26.114235 4.9219c0-.243-.196-.439-.439-.439-.244 0-.44.196-.44.439 0 .242.196.439.44.439.243 0 .439-.197.439-.439z" />
    <path
       id="path92"
       d="m10.753935 2.7627c0-.243-.197-.44-.439-.44-.244 0-.44.197-.44.44s.196.44.44.44c.242 0 .439-.197.439-.44z" />
    <path
       id="path94"
       d="m14.324235 6.1934c0-.244-.197-.441-.44-.441s-.44.197-.44.441c0 .242.197.439.44.439s.44-.197.44-.439z" />
    <path
       id="path96"
       d="m17.732935 12.1367c0-.242-.197-.439-.439-.439-.244 0-.441.197-.441.439 0 .243.197.44.441.44.242 0 .439-.197.439-.44z" />
    <path
       id="path98"
       d="m40.220735 12.5635c0-.242-.197-.438-.44-.438s-.439.196-.439.438c0 .243.196.44.439.44s.44-.197.44-.44z" />
    <path
       id="path100"
       d="m41.323235 7.0859c0-.242-.197-.439-.44-.439s-.44.197-.44.439c0 .243.197.44.44.44s.44-.197.44-.44z" />
    <path
       id="path102"
       d="m33.515635 9.5605c0-.243-.197-.439-.44-.439s-.44.196-.44.439c0 .242.197.439.44.439s.44-.197.44-.439z" />
    <path
       id="path104"
       d="m49.009335 6.623c0-.243-.197-.439-.44-.439s-.439.196-.439.439c0 .242.196.439.439.439s.44-.197.44-.439z" />
    <path
       id="path106"
       d="m53.592335 9.6113c0-.244-.197-.439-.44-.439s-.44.195-.44.439c0 .242.197.439.44.439s.44-.197.44-.439z" />
    <path
       id="path108"
       d="m51.503435 6.0488c0-.244-.197-.441-.439-.441-.244 0-.441.197-.441.441 0 .242.197.438.441.438.242 0 .439-.196.439-.438z" />
    <path
       id="path110"
       d="m19.135235 2.9473c0-.242-.196-.438-.439-.438s-.44.196-.44.438c0 .244.197.44.44.44s.439-.196.439-.44z" />
    <path
       id="path112"
       d="m37.420935 23.4258c0-.242-.197-.439-.439-.439-.243 0-.44.197-.44.439 0 .244.197.441.44.441.242 0 .439-.197.439-.441z" />
    <path
       id="path114"
       d="m29.182635 26.0439c0-.243-.197-.44-.439-.44-.243 0-.44.197-.44.44 0 .242.197.439.44.439.242 0 .439-.197.439-.439z" />
    <path
       id="path116"
       d="m23.550835 19.6953c0-.244-.197-.439-.439-.439-.243 0-.44.195-.44.439 0 .242.197.439.44.439.242 0 .439-.197.439-.439z" />
    <path
       id="path118"
       d="m16.256835 16.8535c0-.242-.197-.439-.439-.439-.244 0-.44.197-.44.439s.196.439.44.439c.242 0 .439-.197.439-.439z" />
    <path
       id="path120"
       d="m16.651435 25.9004c0-.243-.197-.439-.44-.439s-.44.196-.44.439c0 .242.197.44.44.44s.44-.198.44-.44z" />
    <path
       id="path122"
       d="m2.878435 35.5303c0 .243.197.44.439.44.243 0 .44-.197.44-.44s-.197-.441-.44-.441c-.242 0-.439.198-.439.441z" />
    <path
       id="path124"
       d="m10.645035 33.0332c0-.243-.196-.439-.439-.439s-.44.196-.44.439c0 .242.197.44.44.44s.439-.198.439-.44z" />
    <path
       id="path126"
       d="m10.402835 26.1094c0-.242-.197-.439-.44-.439s-.439.197-.439.439c0 .244.196.441.439.441s.44-.197.44-.441z" />
    <path
       id="path128"
       d="m3.736335 28.0312c0 .242.197.439.44.439s.44-.197.44-.439c0-.244-.197-.44-.44-.44s-.44.196-.44.44z" />
    <path
       id="path130"
       d="m17.465835 28.5713c0-.243-.197-.44-.44-.44s-.439.197-.439.44c0 .242.196.44.439.44s.44-.198.44-.44z" />
    <path
       id="path132"
       d="m39.919435 31.1367c0-.242-.197-.439-.44-.439s-.44.197-.44.439c0 .243.197.439.44.439s.44-.196.44-.439z" />
    <path
       id="path134"
       d="m37.648435 29.2256c0-.243-.197-.439-.439-.439-.243 0-.44.196-.44.439 0 .242.197.439.44.439.242 0 .439-.197.439-.439z" />
    <path
       id="path136"
       d="m28.399935 20.8096c0 .242.197.438.439.438.244 0 .44-.196.44-.438 0-.243-.196-.441-.44-.441-.242 0-.439.198-.439.441z" />
    <path
       id="path138"
       d="m36.037635 15.5586c0 .242.197.439.439.439.244 0 .44-.197.44-.439 0-.244-.196-.439-.44-.439-.242 0-.439.195-.439.439z" />
    <path
       id="path140"
       d="m46.938035 27.4014c0 .243.197.44.439.44.244 0 .44-.197.44-.44 0-.242-.196-.438-.44-.438-.242 0-.439.196-.439.438z" />
    <path
       id="path142"
       d="m41.751935 25.3691c0-.244-.196-.439-.439-.439-.244 0-.44.195-.44.439 0 .242.196.439.44.439.243 0 .439-.197.439-.439z" />
    <path
       id="path144"
       d="m44.841335 20.5254c0 .244.197.441.44.441s.439-.197.439-.441c0-.242-.196-.44-.439-.44s-.44.198-.44.44z" />
    <path
       id="path146"
       d="m49.813935 19.2773c0-.244-.197-.441-.439-.441-.243 0-.44.197-.44.441 0 .242.197.439.44.439.242 0 .439-.197.439-.439z" />
    <path
       id="path148"
       d="m51.153335 24.6289c0 .242.197.438.44.438s.44-.196.44-.438c0-.244-.197-.441-.44-.441s-.44.197-.44.441z" />
    <path
       id="path150"
       d="m18.121635 20.4629c0-.242-.197-.44-.439-.44-.243 0-.44.198-.44.44 0 .243.197.439.44.439.242 0 .439-.196.439-.439z" />
    <path
       id="path152"
       d="m7.686535 20.2969c0-.244-.197-.441-.439-.441-.244 0-.44.197-.44.441 0 .242.196.439.44.439.242 0 .439-.197.439-.439z" />
    <path
       id="path154"
       d="m3.357435 22.8496c0-.244-.197-.44-.44-.44s-.439.196-.439.44c0 .242.196.439.439.439s.44-.197.44-.439z" />
    <path
       id="path156"
       d="m1.247535 31.1758c0-.243-.197-.439-.439-.439-.244 0-.44.196-.44.439 0 .242.196.439.44.439.242 0 .439-.197.439-.439z" />
    <path
       id="path158"
       d="m3.825235 13.6953c0-.244-.197-.44-.44-.44s-.439.196-.439.44c0 .242.196.439.439.439s.44-.197.44-.439z" />
    <path
       id="path160"
       d="m33.924835 50.2529c-.243 0-.44.197-.44.439 0 .244.197.44.44.44s.439-.196.439-.44c0-.242-.196-.439-.439-.439z" />
    <path
       id="path162"
       d="m28.888235 46.9668c0 .242.196.439.44.439.243 0 .439-.197.439-.439 0-.243-.196-.439-.439-.439-.244 0-.44.196-.44.439z" />
    <path
       id="path164"
       d="m24.624535 38.4473c0 .243.196.439.44.439.243 0 .439-.196.439-.439 0-.242-.196-.439-.439-.439-.244 0-.44.197-.44.439z" />
    <path
       id="path166"
       d="m19.192435 50.5137c-.243 0-.44.197-.44.439 0 .244.197.44.44.44s.439-.196.439-.44c0-.242-.196-.439-.439-.439z" />
    <path
       id="path168"
       d="m10.748035 43.332c0 .242.197.439.44.439s.44-.197.44-.439c0-.244-.197-.44-.44-.44s-.44.196-.44.44z" />
    <path
       id="path170"
       d="m14.020035 44.2988c0 .243.196.439.439.439s.44-.196.44-.439c0-.242-.197-.439-.44-.439s-.439.197-.439.439z" />
    <path
       id="path172"
       d="m1.869635 46.3145c0 .244.197.439.44.439s.44-.195.44-.439c0-.242-.197-.439-.44-.439s-.44.197-.44.439z" />
    <path
       id="path174"
       d="m7.299335 45.291c-.243 0-.44.197-.44.439 0 .244.197.44.44.44s.44-.196.44-.44c0-.242-.197-.439-.44-.439z" />
    <path
       id="path176"
       d="m23.403335 52.7686c-.243 0-.439.196-.439.438 0 .245.196.441.439.441s.44-.196.44-.441c0-.242-.197-.438-.44-.438z" />
    <path
       id="path178"
       d="m40.333035 47.4395c0 .242.196.439.439.439s.44-.197.44-.439-.197-.439-.44-.439-.439.197-.439.439z" />
    <path
       id="path180"
       d="m38.044935 44.5176c0 .242.197.439.439.439.244 0 .44-.197.44-.439 0-.243-.196-.439-.44-.439-.242 0-.439.196-.439.439z" />
    <path
       id="path182"
       d="m34.324235 39.627c0 .243.197.441.44.441s.439-.198.439-.441c0-.242-.196-.439-.439-.439s-.44.197-.44.439z" />
    <path
       id="path184"
       d="m34.324235 33.6582c0 .244.197.441.44.441s.439-.197.439-.441c0-.242-.196-.439-.439-.439s-.44.197-.44.439z" />
    <path
       id="path186"
       d="m26.078635 31.2148c0 .242.197.439.44.439s.439-.197.439-.439c0-.243-.196-.439-.439-.439s-.44.196-.44.439z" />
    <path
       id="path188"
       d="m21.593235 31.3867c0-.242-.197-.439-.439-.439-.244 0-.441.197-.441.439s.197.441.441.441c.242 0 .439-.199.439-.441z" />
    <path
       id="path190"
       d="m1.929235 1.0781c0-.243-.197-.439-.439-.439-.243 0-.44.196-.44.439 0 .242.197.441.44.441.242 0 .439-.199.439-.441z" />
    <path
       id="path192"
       d="m17.410635 34c0-.242-.197-.439-.44-.439s-.439.197-.439.439c0 .244.196.44.439.44s.44-.196.44-.44z" />
    <path
       id="path194"
       d="m47.829135 46.1328c0 .242.196.439.44.439.243 0 .439-.197.439-.439 0-.243-.196-.439-.439-.439-.244 0-.44.196-.44.439z" />
    <path
       id="path196"
       d="m50.073235 47.5957c0 .242.197.439.439.439.243 0 .44-.197.44-.439 0-.243-.197-.439-.44-.439-.242 0-.439.196-.439.439z" />
    <path
       id="path198"
       d="m44.092835 38.5703c0 .243.197.439.44.439s.44-.196.44-.439c0-.242-.197-.439-.44-.439s-.44.197-.44.439z" />
    <path
       id="path200"
       d="m47.228535 30.874c0 .243.197.44.44.44s.44-.197.44-.44c0-.242-.197-.439-.44-.439s-.44.197-.44.439z" />
    <path
       id="path202"
       d="m52.115235 41.9629c0 .242.197.44.439.44.244 0 .44-.198.44-.44 0-.243-.196-.44-.44-.44-.242 0-.439.197-.439.44z" />
    <path
       id="path204"
       d="m18.690435 38.207c0 .242.197.439.44.439s.44-.197.44-.439-.197-.439-.44-.439-.44.197-.44.439z" />
    <path
       id="path206"
       d="m3.977535 38.9961c.243 0 .44-.197.44-.441 0-.243-.197-.44-.44-.44s-.44.197-.44.44c0 .244.197.441.44.441z" />
    <g
       id="g552"
       stroke="#231f20">
      <path
         id="path208"
         stroke-width=".7"
         stroke-linecap="round"
         d="m1.166535 14.3164.01-.01" />
      <path
         id="path210"
         stroke-width=".7"
         stroke-linecap="round"
         d="m6.216835 13.3789.01-.01" />
      <path
         id="path212"
         stroke-width=".7"
         stroke-linecap="round"
         d="m13.370635 15.7246.01-.01" />
      <path
         id="path214"
         stroke-width=".7"
         stroke-linecap="round"
         d="m18.201235 15.1914.01-.01" />
      <path
         id="path216"
         stroke-width=".7"
         stroke-linecap="round"
         d="m18.536635 17.8887.01-.01" />
      <path
         id="path218"
         stroke-width=".7"
         stroke-linecap="round"
         d="m14.686535 19.3184.01-.01" />
      <path
         id="path220"
         stroke-width=".7"
         stroke-linecap="round"
         d="m11.569835 19.0918.01-.01" />
      <path
         id="path222"
         stroke-width=".7"
         stroke-linecap="round"
         d="m6.681135 17.8975.01-.01" />
      <path
         id="path224"
         stroke-width=".7"
         stroke-linecap="round"
         d="m4.786635 22.7285.01-.01" />
      <path
         id="path226"
         stroke-width=".7"
         stroke-linecap="round"
         d="m1.046435 22.3984.01-.01" />
      <path
         id="path228"
         stroke-width=".7"
         stroke-linecap="round"
         d="m17.353535 4.875.01-.01" />
      <path
         id="path230"
         stroke-width=".7"
         stroke-linecap="round"
         d="m9.409735 12.8945.01-.01" />
      <path
         id="path232"
         stroke-width=".7"
         stroke-linecap="round"
         d="m2.758335 11.1328.01-.01" />
      <path
         id="path234"
         stroke-width=".7"
         stroke-linecap="round"
         d="m1.103535 3.75.01-.01" />
      <path
         id="path236"
         stroke-width=".7"
         stroke-linecap="round"
         d="m7.603535 2.25.01-.01" />
      <path
         id="path238"
         stroke-width=".7"
         stroke-linecap="round"
         d="m13.228535 4.125.01-.01" />
      <path
         id="path240"
         stroke-width=".7"
         stroke-linecap="round"
         d="m25.033235 10.0742.01-.01" />
      <path
         id="path242"
         stroke-width=".7"
         stroke-linecap="round"
         d="m24.353535 6.5.01-.01" />
      <path
         id="path244"
         stroke-width=".7"
         stroke-linecap="round"
         d="m21.603535 3.25.01-.01" />
      <path
         id="path246"
         stroke-width=".7"
         stroke-linecap="round"
         d="m25.728535 2.125.01-.01" />
      <path
         id="path248"
         stroke-width=".7"
         stroke-linecap="round"
         d="m33.978535.4766.01-.01" />
      <path
         id="path250"
         stroke-width=".7"
         stroke-linecap="round"
         d="m46.103535 5.75.01-.01" />
      <path
         id="path252"
         stroke-width=".7"
         stroke-linecap="round"
         d="m53.228535 5.375.01-.01" />
      <path
         id="path254"
         stroke-width=".7"
         stroke-linecap="round"
         d="m49.853535 3.625.01-.01" />
      <path
         id="path256"
         stroke-width=".7"
         stroke-linecap="round"
         d="m46.739235 9.7676.01-.01" />
      <path
         id="path258"
         stroke-width=".7"
         stroke-linecap="round"
         d="m44.728535 2.375.01-.01" />
      <path
         id="path260"
         stroke-width=".7"
         stroke-linecap="round"
         d="m29.854035 9.0977.01-.01" />
      <path
         id="path262"
         stroke-width=".7"
         stroke-linecap="round"
         d="m49.068335 23.7852.01-.01" />
      <path
         id="path264"
         stroke-width=".7"
         stroke-linecap="round"
         d="m39.853535 23.5.01-.01" />
      <path
         id="path266"
         stroke-width=".7"
         stroke-linecap="round"
         d="m25.228535 20.5.01-.01" />
      <path
         id="path268"
         stroke-width=".7"
         stroke-linecap="round"
         d="m50.103535 8.5.01-.01" />
      <path
         id="path270"
         stroke-width=".7"
         stroke-linecap="round"
         d="m33.478535 4.75.01-.01" />
      <path
         id="path272"
         stroke-width=".7"
         stroke-linecap="round"
         d="m39.141635 4.1973.01-.01" />
      <path
         id="path274"
         stroke-width=".7"
         stroke-linecap="round"
         d="m37.603535 2.25.01-.01" />
      <path
         id="path276"
         stroke-width=".7"
         stroke-linecap="round"
         d="m36.583535 8.915.01-.01" />
      <path
         id="path278"
         stroke-width=".7"
         stroke-linecap="round"
         d="m1.413635 28.7227.01-.01" />
      <path
         id="path280"
         stroke-width=".7"
         stroke-linecap="round"
         d="m6.766635 26.7969.01-.01" />
      <path
         id="path282"
         stroke-width=".7"
         stroke-linecap="round"
         d="m11.276435 24.1582.01-.01" />
      <path
         id="path284"
         stroke-width=".7"
         stroke-linecap="round"
         d="m14.246635 26.7969.01-.01" />
      <path
         id="path286"
         stroke-width=".7"
         stroke-linecap="round"
         d="m17.986835 24.1582.01-.01" />
      <path
         id="path288"
         stroke-width=".7"
         stroke-linecap="round"
         d="m21.066935 20.5273.01-.01" />
      <path
         id="path290"
         stroke-width=".7"
         stroke-linecap="round"
         d="m21.580135 16.1309.01-.01" />
      <path
         id="path292"
         stroke-width=".7"
         stroke-linecap="round"
         d="m27.853535 17.875.01-.01" />
      <path
         id="path294"
         stroke-width=".7"
         stroke-linecap="round"
         d="m27.587935 13.4297.01-.01" />
      <path
         id="path296"
         stroke-width=".7"
         stroke-linecap="round"
         d="m32.717835 11.9844.01-.01" />
      <path
         id="path298"
         stroke-width=".7"
         stroke-linecap="round"
         d="m32.726535 16.8984.01-.01" />
      <path
         id="path300"
         stroke-width=".7"
         stroke-linecap="round"
         d="m36.687035 17.998.01-.01" />
      <path
         id="path302"
         stroke-width=".7"
         stroke-linecap="round"
         d="m37.322335 13.0078.01-.01" />
      <path
         id="path304"
         stroke-width=".7"
         stroke-linecap="round"
         d="m42.728535 11.625.01-.01" />
      <path
         id="path306"
         stroke-width=".7"
         stroke-linecap="round"
         d="m48.360335 13.1309.01-.01" />
      <path
         id="path308"
         stroke-width=".7"
         stroke-linecap="round"
         d="m53.296935 12.3887.01-.01" />
      <path
         id="path310"
         stroke-width=".7"
         stroke-linecap="round"
         d="m49.336935 17.2285.01-.01" />
      <path
         id="path312"
         stroke-width=".7"
         stroke-linecap="round"
         d="m45.816935 18.3281.01-.01" />
      <path
         id="path314"
         stroke-width=".7"
         stroke-linecap="round"
         d="m47.906735 21.4082.01-.01" />
      <path
         id="path316"
         stroke-width=".7"
         stroke-linecap="round"
         d="m52.636735 19.0977.01-.01" />
      <path
         id="path318"
         stroke-width=".7"
         stroke-linecap="round"
         d="m41.417035 20.418.01-.01" />
      <path
         id="path320"
         stroke-width=".7"
         stroke-linecap="round"
         d="m50.437035 26.7969.01-.01" />
      <path
         id="path322"
         stroke-width=".7"
         stroke-linecap="round"
         d="m44.386735 24.709.01-.01" />
      <path
         id="path324"
         stroke-width=".7"
         stroke-linecap="round"
         d="m38.446835 27.2383.01-.01" />
      <path
         id="path326"
         stroke-width=".7"
         stroke-linecap="round"
         d="m34.991735 25.2305.01-.01" />
      <path
         id="path328"
         stroke-width=".7"
         stroke-linecap="round"
         d="m30.416535 23.7168.01-.01" />
      <path
         id="path330"
         stroke-width=".7"
         stroke-linecap="round"
         d="m32.396535 27.3477.01-.01" />
      <path
         id="path332"
         stroke-width=".7"
         stroke-linecap="round"
         d="m42.017135 31.1523.01-.01" />
      <path
         id="path334"
         stroke-width=".7"
         stroke-linecap="round"
         d="m45.266635 30.4277.01-.01" />
      <path
         id="path336"
         stroke-width=".7"
         stroke-linecap="round"
         d="m46.475135 32.6777.01-.01" />
      <path
         id="path338"
         stroke-width=".7"
         stroke-linecap="round"
         d="m51.207035 31.1973.01-.01" />
      <path
         id="path340"
         stroke-width=".7"
         stroke-linecap="round"
         d="m50.876935 36.6973.01-.01" />
      <path
         id="path342"
         stroke-width=".7"
         stroke-linecap="round"
         d="m47.483935 40.1855.01-.01" />
      <path
         id="path344"
         stroke-width=".7"
         stroke-linecap="round"
         d="m44.314935 40.9785.01-.01" />
      <path
         id="path346"
         stroke-width=".7"
         stroke-linecap="round"
         d="m37.834035 38.7041.01-.01" />
      <path
         id="path348"
         stroke-width=".7"
         stroke-linecap="round"
         d="m35.908735 37.0293.01-.01" />
      <path
         id="path350"
         stroke-width=".7"
         stroke-linecap="round"
         d="m29.714335 36.0283.01-.01" />
      <path
         id="path352"
         stroke-width=".7"
         stroke-linecap="round"
         d="m35.617235 31.4844.01-.01" />
      <path
         id="path354"
         stroke-width=".7"
         stroke-linecap="round"
         d="m37.786635 33.8379.01-.01" />
      <path
         id="path356"
         stroke-width=".7"
         stroke-linecap="round"
         d="m51.762235 44.543.01-.01" />
      <path
         id="path358"
         stroke-width=".7"
         stroke-linecap="round"
         d="m48.830635 37.6504.01-.01" />
      <path
         id="path360"
         stroke-width=".7"
         stroke-linecap="round"
         d="m43.519035 44.7871.01-.01" />
      <path
         id="path362"
         stroke-width=".7"
         stroke-linecap="round"
         d="m40.866735 45.0586.01-.01" />
      <path
         id="path364"
         stroke-width=".7"
         stroke-linecap="round"
         d="m36.906735 47.3672.01-.01" />
      <path
         id="path366"
         stroke-width=".7"
         stroke-linecap="round"
         d="m44.056635 52.7578.01-.01" />
      <path
         id="path368"
         stroke-width=".7"
         stroke-linecap="round"
         d="m52.306635 52.209.01-.01" />
      <path
         id="path370"
         stroke-width=".7"
         stroke-linecap="round"
         d="m52.747135 47.8086.01-.01" />
      <path
         id="path372"
         stroke-width=".7"
         stroke-linecap="round"
         d="m37.566935 51.1074.01-.01" />
      <path
         id="path374"
         stroke-width=".7"
         stroke-linecap="round"
         d="m31.296935 51.4375.01-.01" />
      <path
         id="path376"
         stroke-width=".7"
         stroke-linecap="round"
         d="m32.286635 45.8281.01-.01" />
      <path
         id="path378"
         stroke-width=".7"
         stroke-linecap="round"
         d="m30.856935 41.7578.01-.01" />
      <path
         id="path380"
         stroke-width=".7"
         stroke-linecap="round"
         d="m25.796935 36.0371.01-.01" />
      <path
         id="path382"
         stroke-width=".7"
         stroke-linecap="round"
         d="m30.089335 30.1465.01-.01" />
      <path
         id="path384"
         stroke-width=".7"
         stroke-linecap="round"
         d="m27.116735 27.5684.01-.01" />
      <path
         id="path386"
         stroke-width=".7"
         stroke-linecap="round"
         d="m23.926735 30.3184.01-.01" />
      <path
         id="path388"
         stroke-width=".7"
         stroke-linecap="round"
         d="m22.894035 33.0254.01-.01" />
      <path
         id="path390"
         stroke-width=".7"
         stroke-linecap="round"
         d="m22.166535 27.2383.01-.01" />
      <path
         id="path392"
         stroke-width=".7"
         stroke-linecap="round"
         d="m19.358435 27.5049.01-.01" />
      <path
         id="path394"
         stroke-width=".7"
         stroke-linecap="round"
         d="m19.746635 33.2871.01-.01" />
      <path
         id="path396"
         stroke-width=".7"
         stroke-linecap="round"
         d="m16.336435 31.3086.01-.01" />
      <path
         id="path398"
         stroke-width=".7"
         stroke-linecap="round"
         d="m12.926735 31.6387.01-.01" />
      <path
         id="path400"
         stroke-width=".7"
         stroke-linecap="round"
         d="m9.296435 30.5371.01-.01" />
      <path
         id="path402"
         stroke-width=".7"
         stroke-linecap="round"
         d="m6.908235 35.8047.01-.01" />
      <path
         id="path404"
         stroke-width=".7"
         stroke-linecap="round"
         d="m16.446835 37.0273.01-.01" />
      <path
         id="path406"
         stroke-width=".7"
         stroke-linecap="round"
         d="m14.246635 39.5586.01-.01" />
      <path
         id="path408"
         stroke-width=".7"
         stroke-linecap="round"
         d="m9.956535 39.3379.01-.01" />
      <path
         id="path410"
         stroke-width=".7"
         stroke-linecap="round"
         d="m6.908235 38.0215.01-.01" />
      <path
         id="path412"
         stroke-width=".7"
         stroke-linecap="round"
         d="m4.896535 40.7676.01-.01" />
      <path
         id="path414"
         stroke-width=".7"
         stroke-linecap="round"
         d="m1.166535 37.3398.01-.01" />
      <path
         id="path416"
         stroke-width=".7"
         stroke-linecap="round"
         d="m52.692435 27.7539.01-.01" />
      <path
         id="path418"
         stroke-width=".7"
         stroke-linecap="round"
         d="m1.526435 40.6914.01-.01" />
      <path
         id="path420"
         stroke-width=".7"
         stroke-linecap="round"
         d="m4.786635 45.9375.01-.01" />
      <path
         id="path422"
         stroke-width=".7"
         stroke-linecap="round"
         d="m16.449235 9.623.01-.01" />
      <path
         id="path424"
         stroke-width=".7"
         stroke-linecap="round"
         d="m8.613835 44.1045.01-.01" />
      <path
         id="path426"
         stroke-width=".7"
         stroke-linecap="round"
         d="m13.105035 47.1172.01-.01" />
      <path
         id="path428"
         stroke-width=".7"
         stroke-linecap="round"
         d="m14.696835 47.8564.01-.01" />
      <path
         id="path430"
         stroke-width=".7"
         stroke-linecap="round"
         d="m16.996635 43.1875.01-.01" />
      <path
         id="path432"
         stroke-width=".7"
         stroke-linecap="round"
         d="m22.166535 43.6289.01-.01" />
      <path
         id="path434"
         stroke-width=".7"
         stroke-linecap="round"
         d="m20.374535 8.9902.01-.01" />
      <path
         id="path436"
         stroke-width=".7"
         stroke-linecap="round"
         d="m23.228535 46.875.01-.01" />
      <path
         id="path438"
         stroke-width=".7"
         stroke-linecap="round"
         d="m27.226535 48.4668.01-.01" />
      <path
         id="path440"
         stroke-width=".7"
         stroke-linecap="round"
         d="m25.026835 51.4375.01-.01" />
      <path
         id="path442"
         stroke-width=".7"
         stroke-linecap="round"
         d="m20.736835 53.5273.01-.01" />
      <path
         id="path444"
         stroke-width=".7"
         stroke-linecap="round"
         d="m22.143135 51.1699.01-.01" />
      <path
         id="path446"
         stroke-width=".7"
         stroke-linecap="round"
         d="m16.556635 52.7578.01-.01" />
      <path
         id="path448"
         stroke-width=".7"
         stroke-linecap="round"
         d="m13.036635 49.7871.01-.01" />
      <path
         id="path450"
         stroke-width=".7"
         stroke-linecap="round"
         d="m12.816435 53.0879.01-.01" />
      <path
         id="path452"
         stroke-width=".7"
         stroke-linecap="round"
         d="m7.352035 53.543.01-.01" />
      <path
         id="path454"
         stroke-width=".7"
         stroke-linecap="round"
         d="m4.041535 50.7949.01-.01" />
      <path
         id="path456"
         stroke-width=".7"
         stroke-linecap="round"
         d="m.353535 53.375.01-.01" />
      <path
         id="path458"
         stroke-width=".7"
         stroke-linecap="round"
         d="m1.486835 48.4668.01-.01" />
      <path
         id="path460"
         stroke-width=".3"
         d="m20.626435 23.4707c.76-1.266 2.64-1.486 3.465-1.238s1.155.66 1.65.578 1.733 1.154.578 1.98c-1.155.825-2.888 1.567-3.465 1.237-.578-.33-1.238-.661-1.65-.825-.413-.166-.825-1.32-.578-1.732z" />
      <path
         id="path462"
         stroke-width=".3"
         d="m41.086935 15.2207c.99 0 1.815.576 2.063 1.236.247.66-.661 2.641-2.558 1.403-1.898-1.237-1.155-2.805.495-2.639z" />
      <path
         id="path464"
         stroke-width=".3"
         d="m45.542035 34.0293c2.227 1.404 2.063 3.631-.413 2.889-2.475-.743-2.392-.991-3.465-2.641-1.072-1.648 2.393-1.154 3.878-.248z" />
      <path
         id="path466"
         stroke-width=".3"
         d="m28.629435 42.7754c1.732.908 1.402 2.641-.578 2.229-1.98-.415-2.722-1.239-3.135-2.147-.412-.906.99-1.978 2.558-.99.412.412 1.155.908 1.155.908z" />
      <path
         id="path468"
         stroke-width=".3"
         d="m5.941435 30.8125c1.238.248 1.897.742 1.98 1.732.083.991-.577 1.981-2.887 1.815-2.31-.164-3.795-.576-2.475-2.145.825-.082 1.154-.248 1.484-.906.331-.66 1.321-.66 1.898-.496z" />
      <path
         id="path470"
         stroke-width=".3"
         d="m2.559135 17.9434c1.732-.66 3.3 1.402 1.237 1.979-2.062.578-3.052-1.567-1.237-1.979z" />
      <path
         id="path472"
         stroke-width=".3"
         d="m49.336935 49.623c1.485-1.156 2.723.33 1.732 1.154-.99.826-2.392 1.981-3.299 1.321-.908-.661-.578-1.815.329-1.981.908-.164 1.238-.494 1.238-.494z" />
      <path
         id="path474"
         stroke-width=".3"
         d="m8.994135 48.3027c2.063.412 2.97 1.402 1.567 2.227-1.402.826-1.402.662-2.969.166-1.568-.495-2.97-1.073-1.98-1.815.989-.742 2.309-.99 3.382-.578z" />
      <path
         id="path476"
         stroke-width=".3"
         d="m6.113335 15.709 7.257-2.686" />
      <path
         id="path478"
         stroke-width=".3"
         d="m3.511735.2187 8.244 1.143" />
      <path
         id="path480"
         stroke-width=".3"
         d="m24.399935 14.5684 8.299.918" />
      <path
         id="path482"
         stroke-width=".3"
         d="m45.707035 15.1387 6.111-.801" />
      <path
         id="path484"
         stroke-width=".3"
         d="m42.582035.3652 7.06 1.076" />
      <path
         id="path486"
         stroke-width=".3"
         d="m44.988335 22.6123-8.337-.686" />
      <path
         id="path488"
         stroke-width=".3"
         d="m17.106935 21.959-6.963-.527" />
      <path
         id="path490"
         stroke-width=".3"
         d="m20.058635 7.0039-6.37 1.254" />
      <path
         id="path492"
         stroke-width=".3"
         d="m39.112835 6.9062-6.511.555" />
      <path
         id="path494"
         stroke-width=".3"
         d="m6.766635 28.5586 7.408.451" />
      <path
         id="path496"
         stroke-width=".3"
         d="m27.056135 29.1172 7.738-1.047" />
      <path
         id="path498"
         stroke-width=".3"
         d="m22.315435 1.1191 8.401-.873" />
      <path
         id="path500"
         stroke-width=".3"
         d="m46.586935 28.7773 6.717 1.662" />
      <path
         id="path502"
         stroke-width=".3"
         d="m38.446835 35.5977-6.216-.543" />
      <path
         id="path504"
         stroke-width=".3"
         d="m23.686035 37.1504-6.579-1.332" />
      <path
         id="path506"
         stroke-width=".3"
         d="m3.635735 43.0527 8.222-1.289" />
      <path
         id="path508"
         stroke-width=".3"
         d="m38.446835 42.418 7.971.779" />
      <path
         id="path510"
         stroke-width=".3"
         d="m38.669435 49.3301-8.328-.662" />
      <path
         id="path512"
         stroke-width=".3"
         d="m24.739735 48.3379-7.26 1.076" />
      <path
         id="path514"
         stroke-width=".3"
         d="m20.901435 12.5c1.485.084 1.32 1.568.083 1.65-1.238.082-1.403-1.484-.083-1.65z" />
      <path
         id="path516"
         stroke-width=".3"
         d="m32.011735 18.1914c1.65 0 1.402 1.648.165 1.648-1.238 0-1.567-1.648-.165-1.648z" />
      <path
         id="path518"
         stroke-width=".3"
         d="m16.688535 1.2266c1.65 0 1.402 1.648.165 1.648s-1.567-1.648-.165-1.648z" />
      <path
         id="path520"
         stroke-width=".3"
         d="m52.471735 22.1504c0 1.32-1.402 1.154-1.485 0-.082-1.154 1.485-.99 1.485 0z" />
      <path
         id="path522"
         stroke-width=".3"
         d="m42.241735 27.7598c1.403 0 1.32 1.402.165 1.402s-1.897-1.32-.165-1.402z" />
      <path
         id="path524"
         stroke-width=".3"
         d="m51.647035 38.7324c1.21 0 1.375 1.43.275 1.484-1.1.057-1.705-1.375-.275-1.484z" />
      <path
         id="path526"
         stroke-width=".3"
         d="m36.411635 42.3086c0 1.264-1.43 1.045-1.43.055 0-.991 1.43-1.321 1.43-.055z" />
      <path
         id="path528"
         stroke-width=".3"
         d="m28.712935 33.8379c-.055 1.318-1.54.988-1.595.055-.055-.936 1.375-1.43 1.595-.055z" />
      <path
         id="path530"
         stroke-width=".3"
         d="m2.746635 8.0664c-.055 1.318-1.54.988-1.595.055-.055-.936 1.375-1.43 1.595-.055z" />
      <path
         id="path532"
         stroke-width=".3"
         d="m45.429235 47.7832c.825.604.33 1.705-.825 1.045s-.495-1.816.825-1.045z" />
      <path
         id="path534"
         stroke-width=".3"
         d="m28.051735 52.043c1.132.416.77 1.869-.44 1.43-1.21-.44-.605-1.815.44-1.43z" />
      <path
         id="path536"
         stroke-width=".3"
         d="m19.306635 44.1777c1.375.109 1.155 1.484.165 1.539-.99.057-1.595-1.539-.165-1.539z" />
      <path
         id="path538"
         stroke-width=".3"
         d="m13.916535 33.9473c1.375.936.11 1.926-.88 1.32-.99-.605-.165-1.814.88-1.32z" />
      <path
         id="path540"
         stroke-width=".3"
         d="m1.864235 43.1348c.825.826-.22 1.596-.88.99-.66-.603-.275-1.705.88-.99z" />
      <path
         id="path542"
         stroke-width=".3"
         d="m3.702135 26.2891c.055 1.266-1.43 1.156-1.485.221-.055-.936 1.375-1.375 1.485-.221z" />
      <path
         id="path544"
         stroke-width=".3"
         d="m41.095735 9.168c.055 1.266-1.43 1.154-1.485.221-.055-.936 1.375-1.375 1.485-.221z" />
      <path
         id="path546"
         stroke-width=".3"
         d="m30.603535 3.3125c1.017.611 1.25 2 .5 2.5s-2.875.375-3.375-.125-1-1.5.25-2.125 2-.625 2.625-.25z" />
      <path
         id="path548"
         stroke-width=".3"
         d="m5.228535 5c.625-.75 1.625-.75 3.125-.25s1.625 1 2.125 1 1.375 2 .125 2.25-4.375.5-4.75-.375-.625-2.625-.625-2.625z" />
      <path
         id="path550"
         stroke-width=".43"
         d="m34.375035 53.7822 1.909-2.864" />
    </g>
    <path
       id="path554"
       d="m20.253435 0c-.243 0-.44.197-.44.439 0 .244.197.44.44.44s.439-.196.439-.44c0-.242-.196-.439-.439-.439z" />
    <path
       id="path556"
       d="m31.296435 33.0498c-.243 0-.44.197-.44.439 0 .244.197.44.44.44s.439-.196.439-.44c0-.242-.196-.439-.439-.439z" />
    <path
       id="path558"
       d="m36.671435.1875c-.243 0-.44.197-.44.439 0 .244.197.44.44.44s.439-.196.439-.44c0-.242-.196-.439-.439-.439z" />
  </g>
  <g
     id="g690"
     fill="#231f20">
    <path
       id="path562"
       d="m35.729535 11.5273c0-.242-.197-.438-.439-.438-.244 0-.44.196-.44.438 0 .244.196.441.44.441.242 0 .439-.197.439-.441" />
    <path
       id="path564"
       d="m26.114235 4.9219c0-.243-.196-.439-.439-.439-.244 0-.44.196-.44.439 0 .242.196.439.44.439.243 0 .439-.197.439-.439" />
    <path
       id="path566"
       d="m10.753935 2.7627c0-.243-.197-.44-.439-.44-.244 0-.44.197-.44.44s.196.44.44.44c.242 0 .439-.197.439-.44" />
    <path
       id="path568"
       d="m14.324235 6.1934c0-.244-.197-.441-.44-.441s-.44.197-.44.441c0 .242.197.439.44.439s.44-.197.44-.439" />
    <path
       id="path570"
       d="m17.732935 12.1367c0-.242-.197-.439-.439-.439-.244 0-.441.197-.441.439 0 .243.197.44.441.44.242 0 .439-.197.439-.44" />
    <path
       id="path572"
       d="m40.220735 12.5635c0-.242-.197-.438-.44-.438s-.439.196-.439.438c0 .243.196.44.439.44s.44-.197.44-.44" />
    <path
       id="path574"
       d="m41.323235 7.0859c0-.242-.197-.439-.44-.439s-.44.197-.44.439c0 .243.197.44.44.44s.44-.197.44-.44" />
    <path
       id="path576"
       d="m33.515635 9.5605c0-.243-.197-.439-.44-.439s-.44.196-.44.439c0 .242.197.439.44.439s.44-.197.44-.439" />
    <path
       id="path578"
       d="m49.009335 6.623c0-.243-.197-.439-.44-.439s-.439.196-.439.439c0 .242.196.439.439.439s.44-.197.44-.439" />
    <path
       id="path580"
       d="m53.592335 9.6113c0-.244-.197-.439-.44-.439s-.44.195-.44.439c0 .242.197.439.44.439s.44-.197.44-.439" />
    <path
       id="path582"
       d="m51.503435 6.0488c0-.244-.197-.441-.439-.441-.244 0-.441.197-.441.441 0 .242.197.438.441.438.242 0 .439-.196.439-.438" />
    <path
       id="path584"
       d="m19.135235 2.9473c0-.242-.196-.438-.439-.438s-.44.196-.44.438c0 .244.197.44.44.44s.439-.196.439-.44" />
    <path
       id="path586"
       d="m37.420935 23.4258c0-.242-.197-.439-.439-.439-.243 0-.44.197-.44.439 0 .244.197.441.44.441.242 0 .439-.197.439-.441" />
    <path
       id="path588"
       d="m29.182635 26.0439c0-.243-.197-.44-.439-.44-.243 0-.44.197-.44.44 0 .242.197.439.44.439.242 0 .439-.197.439-.439" />
    <path
       id="path590"
       d="m23.550835 19.6953c0-.244-.197-.439-.439-.439-.243 0-.44.195-.44.439 0 .242.197.439.44.439.242 0 .439-.197.439-.439" />
    <path
       id="path592"
       d="m16.256835 16.8535c0-.242-.197-.439-.439-.439-.244 0-.44.197-.44.439s.196.439.44.439c.242 0 .439-.197.439-.439" />
    <path
       id="path594"
       d="m16.651435 25.9004c0-.243-.197-.439-.44-.439s-.44.196-.44.439c0 .242.197.44.44.44s.44-.198.44-.44" />
    <path
       id="path596"
       d="m2.878435 35.5303c0 .243.197.44.439.44.243 0 .44-.197.44-.44s-.197-.441-.44-.441c-.242 0-.439.198-.439.441" />
    <path
       id="path598"
       d="m10.645035 33.0332c0-.243-.196-.439-.439-.439s-.44.196-.44.439c0 .242.197.44.44.44s.439-.198.439-.44" />
    <path
       id="path600"
       d="m10.402835 26.1094c0-.242-.197-.439-.44-.439s-.439.197-.439.439c0 .244.196.441.439.441s.44-.197.44-.441" />
    <path
       id="path602"
       d="m3.736335 28.0312c0 .242.197.439.44.439s.44-.197.44-.439c0-.244-.197-.44-.44-.44s-.44.196-.44.44" />
    <path
       id="path604"
       d="m17.465835 28.5713c0-.243-.197-.44-.44-.44s-.439.197-.439.44c0 .242.196.44.439.44s.44-.198.44-.44" />
    <path
       id="path606"
       d="m39.919435 31.1367c0-.242-.197-.439-.44-.439s-.44.197-.44.439c0 .243.197.439.44.439s.44-.196.44-.439" />
    <path
       id="path608"
       d="m37.648435 29.2256c0-.243-.197-.439-.439-.439-.243 0-.44.196-.44.439 0 .242.197.439.44.439.242 0 .439-.197.439-.439" />
    <path
       id="path610"
       d="m28.399935 20.8096c0 .242.197.438.439.438.244 0 .44-.196.44-.438 0-.243-.196-.441-.44-.441-.242 0-.439.198-.439.441" />
    <path
       id="path612"
       d="m36.037635 15.5586c0 .242.197.439.439.439.244 0 .44-.197.44-.439 0-.244-.196-.439-.44-.439-.242 0-.439.195-.439.439" />
    <path
       id="path614"
       d="m46.938035 27.4014c0 .243.197.44.439.44.244 0 .44-.197.44-.44 0-.242-.196-.438-.44-.438-.242 0-.439.196-.439.438" />
    <path
       id="path616"
       d="m41.751935 25.3691c0-.244-.196-.439-.439-.439-.244 0-.44.195-.44.439 0 .242.196.439.44.439.243 0 .439-.197.439-.439" />
    <path
       id="path618"
       d="m44.841335 20.5254c0 .244.197.441.44.441s.439-.197.439-.441c0-.242-.196-.44-.439-.44s-.44.198-.44.44" />
    <path
       id="path620"
       d="m49.813935 19.2773c0-.244-.197-.441-.439-.441-.243 0-.44.197-.44.441 0 .242.197.439.44.439.242 0 .439-.197.439-.439" />
    <path
       id="path622"
       d="m51.153335 24.6289c0 .242.197.438.44.438s.44-.196.44-.438c0-.244-.197-.441-.44-.441s-.44.197-.44.441" />
    <path
       id="path624"
       d="m18.121635 20.4629c0-.242-.197-.44-.439-.44-.243 0-.44.198-.44.44 0 .243.197.439.44.439.242 0 .439-.196.439-.439" />
    <path
       id="path626"
       d="m7.686535 20.2969c0-.244-.197-.441-.439-.441-.244 0-.44.197-.44.441 0 .242.196.439.44.439.242 0 .439-.197.439-.439" />
    <path
       id="path628"
       d="m3.357435 22.8496c0-.244-.197-.44-.44-.44s-.439.196-.439.44c0 .242.196.439.439.439s.44-.197.44-.439" />
    <path
       id="path630"
       d="m1.247535 31.1758c0-.243-.197-.439-.439-.439-.244 0-.44.196-.44.439 0 .242.196.439.44.439.242 0 .439-.197.439-.439" />
    <path
       id="path632"
       d="m3.825235 13.6953c0-.244-.197-.44-.44-.44s-.439.196-.439.44c0 .242.196.439.439.439s.44-.197.44-.439" />
    <path
       id="path634"
       d="m33.924835 50.2529c-.243 0-.44.197-.44.439 0 .244.197.44.44.44s.439-.196.439-.44c0-.242-.196-.439-.439-.439" />
    <path
       id="path636"
       d="m28.888235 46.9668c0 .242.196.439.44.439.243 0 .439-.197.439-.439 0-.243-.196-.439-.439-.439-.244 0-.44.196-.44.439" />
    <path
       id="path638"
       d="m24.624535 38.4473c0 .243.196.439.44.439.243 0 .439-.196.439-.439 0-.242-.196-.439-.439-.439-.244 0-.44.197-.44.439" />
    <path
       id="path640"
       d="m19.192435 50.5137c-.243 0-.44.197-.44.439 0 .244.197.44.44.44s.439-.196.439-.44c0-.242-.196-.439-.439-.439" />
    <path
       id="path642"
       d="m10.748035 43.332c0 .242.197.439.44.439s.44-.197.44-.439c0-.244-.197-.44-.44-.44s-.44.196-.44.44" />
    <path
       id="path644"
       d="m14.020035 44.2988c0 .243.196.439.439.439s.44-.196.44-.439c0-.242-.197-.439-.44-.439s-.439.197-.439.439" />
    <path
       id="path646"
       d="m1.869635 46.3145c0 .244.197.439.44.439s.44-.195.44-.439c0-.242-.197-.439-.44-.439s-.44.197-.44.439" />
    <path
       id="path648"
       d="m7.299335 45.291c-.243 0-.44.197-.44.439 0 .244.197.44.44.44s.44-.196.44-.44c0-.242-.197-.439-.44-.439" />
    <path
       id="path650"
       d="m23.403335 52.7686c-.243 0-.439.196-.439.438 0 .245.196.441.439.441s.44-.196.44-.441c0-.242-.197-.438-.44-.438" />
    <path
       id="path652"
       d="m40.333035 47.4395c0 .242.196.439.439.439s.44-.197.44-.439-.197-.439-.44-.439-.439.197-.439.439" />
    <path
       id="path654"
       d="m38.044935 44.5176c0 .242.197.439.439.439.244 0 .44-.197.44-.439 0-.243-.196-.439-.44-.439-.242 0-.439.196-.439.439" />
    <path
       id="path656"
       d="m34.324235 39.627c0 .243.197.441.44.441s.439-.198.439-.441c0-.242-.196-.439-.439-.439s-.44.197-.44.439" />
    <path
       id="path658"
       d="m34.324235 33.6582c0 .244.197.441.44.441s.439-.197.439-.441c0-.242-.196-.439-.439-.439s-.44.197-.44.439" />
    <path
       id="path660"
       d="m26.078635 31.2148c0 .242.197.439.44.439s.439-.197.439-.439c0-.243-.196-.439-.439-.439s-.44.196-.44.439" />
    <path
       id="path662"
       d="m21.593235 31.3867c0-.242-.197-.439-.439-.439-.244 0-.441.197-.441.439s.197.441.441.441c.242 0 .439-.199.439-.441" />
    <path
       id="path664"
       d="m1.929235 1.0781c0-.243-.197-.439-.439-.439-.243 0-.44.196-.44.439 0 .242.197.441.44.441.242 0 .439-.199.439-.441" />
    <path
       id="path666"
       d="m17.410635 34c0-.242-.197-.439-.44-.439s-.439.197-.439.439c0 .244.196.44.439.44s.44-.196.44-.44" />
    <path
       id="path668"
       d="m47.829135 46.1328c0 .242.196.439.44.439.243 0 .439-.197.439-.439 0-.243-.196-.439-.439-.439-.244 0-.44.196-.44.439" />
    <path
       id="path670"
       d="m50.073235 47.5957c0 .242.197.439.439.439.243 0 .44-.197.44-.439 0-.243-.197-.439-.44-.439-.242 0-.439.196-.439.439" />
    <path
       id="path672"
       d="m44.092835 38.5703c0 .243.197.439.44.439s.44-.196.44-.439c0-.242-.197-.439-.44-.439s-.44.197-.44.439" />
    <path
       id="path674"
       d="m47.228535 30.874c0 .243.197.44.44.44s.44-.197.44-.44c0-.242-.197-.439-.44-.439s-.44.197-.44.439" />
    <path
       id="path676"
       d="m52.115235 41.9629c0 .242.197.44.439.44.244 0 .44-.198.44-.44 0-.243-.196-.44-.44-.44-.242 0-.439.197-.439.44" />
    <path
       id="path678"
       d="m18.690435 38.207c0 .242.197.439.44.439s.44-.197.44-.439-.197-.439-.44-.439-.44.197-.44.439" />
    <path
       id="path680"
       d="m3.977535 38.9961c.243 0 .44-.197.44-.441 0-.243-.197-.44-.44-.44s-.44.197-.44.44c0 .244.197.441.44.441" />
    <path
       id="path682"
       d="m20.253435 0c-.243 0-.44.197-.44.439 0 .244.197.44.44.44s.439-.196.439-.44c0-.242-.196-.439-.439-.439" />
    <path
       id="path684"
       d="m31.296435 33.0498c-.243 0-.44.197-.44.439 0 .244.197.44.44.44s.439-.196.439-.44c0-.242-.196-.439-.439-.439" />
    <path
       id="path686"
       d="m36.671435.1875c-.243 0-.44.197-.44.439 0 .244.197.44.44.44s.439-.196.439-.44c0-.242-.196-.439-.439-.439" />
    <path
       id="path688"
       d="m32.051735 1.248c-.243 0-.44.197-.44.439 0 .244.197.44.44.44s.439-.196.439-.44c0-.242-.196-.439-.439-.439" />
  </g>
  <path
     id="path692"
     fill="none"
     d="m32.051735 1.248c-.243 0-.44.197-.44.439 0 .244.197.44.44.44s.439-.196.439-.44c0-.242-.196-.439-.439-.439z" />
</svg>
