<?xml version="1.0" encoding="UTF-8" standalone="no"?>
<svg
   xmlns:dc="http://purl.org/dc/elements/1.1/"
   xmlns:cc="http://creativecommons.org/ns#"
   xmlns:rdf="http://www.w3.org/1999/02/22-rdf-syntax-ns#"
   xmlns:svg="http://www.w3.org/2000/svg"
   xmlns="http://www.w3.org/2000/svg"
   height="54.125"
   width="54.125"
   id="svg254"
   version="1.1">
  <defs
     id="defs258" />
  <metadata
     id="metadata2">citation: U.S. Geological Survey, 2006, FGDC Digital Cartographic Standard for Geologic Map Symbolization (PostScript Implementation): U.S. Geological Survey Techniques and Methods 11-A2 [pubs.usgs.gov/tm/2006/11A02/]. converted by CEC Geology LLC 2018 from the USGS lithologic gs converted to inkscape by the University of Otago.<rdf:RDF>
  <cc:Work
     rdf:about="">
    <dc:format>image/svg+xml</dc:format>
    <dc:type
       rdf:resource="http://purl.org/dc/dcmitype/StillImage" />
    <dc:title></dc:title>
  </cc:Work>
</rdf:RDF>
</metadata>
  <g
     stroke-width=".3"
     stroke="#231f20"
     fill="none"
     id="g252"
     width="54.125"
     height="54.125">
    <path
       id="path4"
       transform="translate(0,48.1997)"
       d="M 0,0 H 4.122" />
    <path
       id="path6"
       transform="translate(13.0723,48.1997)"
       d="M 0,0 H -6.369" />
    <path
       id="path8"
       transform="translate(21.9883,48.1997)"
       d="M 0,0 H -6.369" />
    <path
       id="path10"
       transform="translate(30.9053,48.1997)"
       d="M 0,0 H -6.369" />
    <path
       id="path12"
       transform="translate(33.4531,48.1997)"
       d="M 0,0 H 6.369" />
    <path
       id="path14"
       transform="translate(48.7383,48.1997)"
       d="M 0,0 H -6.369" />
    <path
       id="path16"
       transform="translate(51.2861,48.1997)"
       d="M 0,0 H 2.839" />
    <path
       id="path18"
       transform="translate(1.4561,39.9692)"
       d="M 0,0 H 6.369" />
    <path
       id="path20"
       transform="translate(10.373,39.9692)"
       d="M 0,0 H 6.368" />
    <path
       id="path22"
       transform="translate(19.2891,39.9692)"
       d="M 0,0 H 6.369" />
    <path
       id="path24"
       transform="translate(34.5752,39.9692)"
       d="M 0,0 H -6.369" />
    <path
       id="path26"
       transform="translate(43.4912,39.9692)"
       d="M 0,0 H -6.369" />
    <path
       id="path28"
       transform="translate(46.0391,39.9692)"
       d="M 0,0 H 6.369" />
    <path
       id="path30"
       transform="translate(8.1006,25.249)"
       d="M 0,0 H -6.369" />
    <path
       id="path32"
       transform="translate(17.0498,25.249)"
       d="M 0,0 H -6.369" />
    <path
       id="path34"
       transform="translate(25.9658,25.249)"
       d="M 0,0 H -6.368" />
    <path
       id="path36"
       transform="translate(34.8828,25.249)"
       d="M 0,0 H -6.369" />
    <path
       id="path38"
       transform="translate(43.7998,25.249)"
       d="M 0,0 H -6.369" />
    <path
       id="path40"
       transform="translate(52.7158,25.249)"
       d="M 0,0 H -6.369" />
    <path
       id="path42"
       transform="translate(3.4756,17.6064)"
       d="M 0,0 H -3.476" />
    <path
       id="path44"
       transform="translate(12.4248,17.6064)"
       d="M 0,0 H -6.369" />
    <path
       id="path46"
       transform="translate(21.3408,17.6064)"
       d="M 0,0 H -6.368" />
    <path
       id="path48"
       transform="translate(30.2578,17.6064)"
       d="M 0,0 H -6.369" />
    <path
       id="path50"
       transform="translate(39.1748,17.6064)"
       d="M 0,0 H -6.369" />
    <path
       id="path52"
       transform="translate(48.0908,17.6064)"
       d="M 0,0 H -6.369" />
    <path
       id="path54"
       transform="translate(50.6387,17.6064)"
       d="M 0,0 H 3.486" />
    <path
       id="path56"
       transform="translate(0,10.4643)"
       d="M 0,0 H 1.517" />
    <path
       id="path58"
       transform="translate(10.4668,10.4643)"
       d="M 0,0 H -6.369" />
    <path
       id="path60"
       transform="translate(19.3828,10.4643)"
       d="M 0,0 H -6.369" />
    <path
       id="path62"
       transform="translate(28.2998,10.4643)"
       d="M 0,0 H -6.369" />
    <path
       id="path64"
       transform="translate(37.2158,10.4643)"
       d="M 0,0 H -6.369" />
    <path
       id="path66"
       transform="translate(46.1328,10.4643)"
       d="M 0,0 H -6.369" />
    <path
       id="path68"
       transform="translate(48.6807,10.4643)"
       d="M 0,0 H 5.444" />
    <path
       id="path70"
       transform="translate(1.5225,2.4687)"
       d="M 0,0 H 6.369" />
    <path
       id="path72"
       transform="translate(16.8418,2.4687)"
       d="M 0,0 H -6.369" />
    <path
       id="path74"
       transform="translate(19.3887,2.4687)"
       d="M 0,0 H 6.369" />
    <path
       id="path76"
       transform="translate(28.3057,2.4687)"
       d="M 0,0 H 6.369" />
    <path
       id="path78"
       transform="translate(37.2217,2.4687)"
       d="M 0,0 H 6.369" />
    <path
       id="path80"
       transform="translate(46.1387,2.4687)"
       d="M 0,0 H 6.369" />
    <path
       id="path82"
       transform="translate(0,32.9575)"
       d="M 0,0 H 3.101" />
    <path
       id="path84"
       transform="translate(5.6807,32.9575)"
       d="M 0,0 H 6.369" />
    <path
       id="path86"
       transform="translate(14.5977,32.9575)"
       d="M 0,0 H 6.368" />
    <path
       id="path88"
       transform="translate(23.5137,32.9575)"
       d="M 0,0 H 6.369" />
    <path
       id="path90"
       transform="translate(32.4307,32.9575)"
       d="M 0,0 H 6.369" />
    <path
       id="path92"
       transform="translate(41.3467,32.9575)"
       d="M 0,0 H 6.369" />
    <path
       id="path94"
       transform="translate(50.2637,32.9575)"
       d="M 0,0 H 3.861" />
    <path
       id="path96"
       transform="translate(32.1758,50.375)"
       d="M 0,0 H -13.5" />
    <path
       id="path98"
       transform="translate(5.9258,50.375)"
       d="M 0,0 H 12.75" />
    <path
       id="path100"
       transform="translate(32.1758,50.375)"
       d="M 0,0 H 14.375" />
    <path
       id="path102"
       transform="translate(5.9258,50.375)"
       d="M 0,0 H -5.926" />
    <path
       id="path104"
       transform="translate(54.125,50.375)"
       d="M 0,0 H -7.574" />
    <path
       id="path106"
       transform="translate(54.125,46.1997)"
       d="M 0,0 H -54.125" />
    <path
       id="path108"
       transform="translate(0,42.0122)"
       d="M 0,0 H 54.125" />
    <path
       id="path110"
       transform="translate(48.6338,12.3994)"
       d="M 0,0 H 5.491" />
    <path
       id="path112"
       transform="translate(33.7588,12.3994)"
       d="M 0,0 H 14.875" />
    <path
       id="path114"
       transform="translate(6.8838,12.3994)"
       d="M 0,0 H -6.884" />
    <path
       id="path116"
       transform="translate(33.7588,12.3994)"
       d="M 0,0 H -13.625" />
    <path
       id="path118"
       transform="translate(6.8838,12.3994)"
       d="M 0,0 H 13.25" />
    <path
       id="path120"
       transform="translate(0,8.6245)"
       d="M 0,0 H 54.125" />
    <path
       id="path122"
       transform="translate(31.9258,37.9936)"
       d="M 0,0 H 14.625" />
    <path
       id="path124"
       transform="translate(5.9258,37.9936)"
       d="M 0,0 H -5.926" />
    <path
       id="path126"
       transform="translate(31.9258,37.9936)"
       d="M 0,0 H -13.25" />
    <path
       id="path128"
       transform="translate(18.6758,37.9936)"
       d="M 0,0 H -12.75" />
    <path
       id="path130"
       transform="translate(46.5508,37.9936)"
       d="M 0,0 H 7.574" />
    <path
       id="path132"
       transform="translate(0,34.7124)"
       d="M 0,0 H 54.125" />
    <path
       id="path134"
       transform="translate(48.6631,31.2871)"
       d="M 0,0 H 5.462" />
    <path
       id="path136"
       transform="translate(48.6631,31.2871)"
       d="M 0,0 H -14.875" />
    <path
       id="path138"
       transform="translate(20.1631,31.2871)"
       d="M 0,0 H -13.5" />
    <path
       id="path140"
       transform="translate(6.6631,31.2871)"
       d="M 0,0 H -6.663" />
    <path
       id="path142"
       transform="translate(33.7881,31.2871)"
       d="M 0,0 H -13.625" />
    <path
       id="path144"
       transform="translate(0,27.2373)"
       d="M 0,0 H 54.125" />
    <path
       id="path146"
       transform="translate(0,23.437)"
       d="M 0,0 H 54.125" />
    <path
       id="path148"
       transform="translate(0,19.2373)"
       d="M 0,0 H 54.125" />
    <path
       id="path150"
       transform="translate(0,16.0122)"
       d="M 0,0 H 54.125" />
    <path
       id="path152"
       transform="translate(0,0.8374)"
       d="M 0,0 H 5.926" />
    <path
       id="path154"
       transform="translate(18.6758,0.8374)"
       d="M 0,0 H -12.75" />
    <path
       id="path156"
       transform="translate(46.5508,0.8374)"
       d="M 0,0 H -14.375" />
    <path
       id="path158"
       transform="translate(18.6758,0.8374)"
       d="M 0,0 H 13.5" />
    <path
       id="path160"
       transform="translate(46.5508,0.8374)"
       d="M 0,0 H 7.574" />
    <path
       id="path162"
       transform="translate(5.9258,50.375)"
       d="M 0,0 V 3.75" />
    <path
       id="path164"
       transform="translate(18.6758,54.125)"
       d="M 0,0 V -3.75" />
    <path
       id="path166"
       transform="translate(32.1758,50.375)"
       d="M 0,0 V 3.75" />
    <path
       id="path168"
       transform="translate(46.5508,54.125)"
       d="M 0,0 V -3.75" />
    <path
       id="path170"
       transform="translate(5.9258,0.8496)"
       d="M 0,0 V -0.012" />
    <path
       id="path172"
       transform="translate(5.9258)"
       d="M 0,0 V 0.837" />
    <path
       id="path174"
       transform="translate(18.6758,0.8374)"
       d="M 0,0 V -0.837" />
    <path
       id="path176"
       transform="translate(18.6758,0.8374)"
       d="M 0,0 V 0.012" />
    <path
       id="path178"
       transform="translate(32.1758)"
       d="M 0,0 V 0.837" />
    <path
       id="path180"
       transform="translate(32.1758,0.8496)"
       d="M 0,0 V -0.012" />
    <path
       id="path182"
       transform="translate(46.5508,0.8374)"
       d="M 0,0 V -0.837" />
    <path
       id="path184"
       transform="translate(46.5508,0.8374)"
       d="M 0,0 V 0.012" />
    <path
       id="path186"
       transform="translate(7.0381,46.0747)"
       d="M 0,0 V -4.05" />
    <path
       id="path188"
       transform="translate(20.2881,46.0747)"
       d="M 0,0 V -4.05" />
    <path
       id="path190"
       transform="translate(33.8506,46.0747)"
       d="M 0,0 V -4.05" />
    <path
       id="path192"
       transform="translate(48.7881,46.0747)"
       d="M 0,0 V -4.05" />
    <path
       id="path194"
       transform="translate(46.5508,38.0249)"
       d="M 0,0 V -0.031" />
    <path
       id="path196"
       transform="translate(46.5508,34.7246)"
       d="M 0,0 V 3.269" />
    <path
       id="path198"
       transform="translate(31.9258,37.9936)"
       d="M 0,0 V 0.031" />
    <path
       id="path200"
       transform="translate(31.9258,37.9936)"
       d="M 0,0 V -3.269" />
    <path
       id="path202"
       transform="translate(18.6758,38.0249)"
       d="M 0,0 V -0.031" />
    <path
       id="path204"
       transform="translate(18.6758,37.9936)"
       d="M 0,0 V -3.269" />
    <path
       id="path206"
       transform="translate(5.9258,38.0249)"
       d="M 0,0 V -0.031" />
    <path
       id="path208"
       transform="translate(5.9258,37.9936)"
       d="M 0,0 V -3.269" />
    <path
       id="path210"
       transform="translate(6.6631,31.2871)"
       d="M 0,0 V -4.038" />
    <path
       id="path212"
       transform="translate(6.6631,31.2998)"
       d="M 0,0 V -0.013" />
    <path
       id="path214"
       transform="translate(20.1631,31.2998)"
       d="M 0,0 V -0.013" />
    <path
       id="path216"
       transform="translate(20.1631,31.2871)"
       d="M 0,0 V -4.038" />
    <path
       id="path218"
       transform="translate(33.7881,31.2871)"
       d="M 0,0 V -4.038" />
    <path
       id="path220"
       transform="translate(33.7881,31.2998)"
       d="M 0,0 V -0.013" />
    <path
       id="path222"
       transform="translate(48.6631,31.2871)"
       d="M 0,0 V -4.038" />
    <path
       id="path224"
       transform="translate(48.6631,31.2871)"
       d="M 0,0 V 0.013" />
    <path
       id="path226"
       transform="translate(5.5254,23.3872)"
       d="M 0,0 V -4.138" />
    <path
       id="path228"
       transform="translate(18.5254,23.3872)"
       d="M 0,0 V -4.138" />
    <path
       id="path230"
       transform="translate(32.1504,23.3872)"
       d="M 0,0 V -4.138" />
    <path
       id="path232"
       transform="translate(46.4004,19.2495)"
       d="M 0,0 V 4.138" />
    <path
       id="path234"
       transform="translate(6.8838,12.3994)"
       d="M 0,0 V 3.563" />
    <path
       id="path236"
       transform="translate(20.1338,15.9624)"
       d="M 0,0 V -3.563" />
    <path
       id="path238"
       transform="translate(33.7588,12.3994)"
       d="M 0,0 V 3.563" />
    <path
       id="path240"
       transform="translate(48.6338,12.3994)"
       d="M 0,0 V 3.563" />
    <path
       id="path242"
       transform="translate(0,4.2119)"
       d="M 0,0 H 54.125" />
    <path
       id="path244"
       transform="translate(4.5713,8.5874)"
       d="M 0,0 V -4.35" />
    <path
       id="path246"
       transform="translate(17.5713,8.5874)"
       d="M 0,0 V -4.35" />
    <path
       id="path248"
       transform="translate(31.5713,8.5874)"
       d="M 0,0 V -4.35" />
    <path
       id="path250"
       transform="translate(46.1338,8.5874)"
       d="M 0,0 V -4.35" />
  </g>
</svg>
