<?xml version="1.0" encoding="UTF-8" standalone="no"?>
<svg
   xmlns:dc="http://purl.org/dc/elements/1.1/"
   xmlns:cc="http://creativecommons.org/ns#"
   xmlns:rdf="http://www.w3.org/1999/02/22-rdf-syntax-ns#"
   xmlns:svg="http://www.w3.org/2000/svg"
   xmlns="http://www.w3.org/2000/svg"
   height="53.9775"
   width="53.9775"
   id="svg78"
   version="1.1">
  <defs
     id="defs82" />
  <metadata
     id="metadata2">citation: U.S. Geological Survey, 2006, FGDC Digital Cartographic Standard for Geologic Map Symbolization (PostScript Implementation): U.S. Geological Survey Techniques and Methods 11-A2 [pubs.usgs.gov/tm/2006/11A02/]. converted by CEC Geology LLC 2018 from the USGS lithologic gs converted to inkscape by the University of Otago.<rdf:RDF>
  <cc:Work
     rdf:about="">
    <dc:format>image/svg+xml</dc:format>
    <dc:type
       rdf:resource="http://purl.org/dc/dcmitype/StillImage" />
    <dc:title></dc:title>
  </cc:Work>
</rdf:RDF>
</metadata>
  <g
     style="fill:#231f20"
     id="g76"
     width="53.9775"
     height="53.9775">
    <path
       id="path4"
       transform="translate(4.75,51.75)"
       d="m 0,0 c -2.625,0.125 -3.5,-1.25 0,-1.25 3.5,0 3.125,1.375 0,1.25" />
    <path
       id="path6"
       transform="translate(11.5,50.375)"
       d="M 0,0 C 0.5,-0.375 1.25,-1 3.125,-0.375 5.526,0.425 4.375,1.375 1.875,1.5 -0.5,1.375 -0.5,0.375 0,0" />
    <path
       id="path8"
       transform="translate(22.5,51.75)"
       d="M 0,0 C -4,-0.25 -2.25,-1.75 0.375,-1.625 3,-1.5 2.875,-0.125 0,0" />
    <path
       id="path10"
       transform="translate(31.125,52)"
       d="M 0,0 C -2.625,-0.125 -3,-1.5 0.25,-1.375 3.5,-1.25 3.875,0.125 0,0" />
    <path
       id="path12"
       transform="translate(40.75,50.125)"
       d="M 0,0 C 2.375,0.125 2.75,1.25 0,1.875 -5,2 -2.375,-0.125 0,0" />
    <path
       id="path14"
       transform="translate(48.125,52)"
       d="M 0,0 C -2.75,-0.25 -2.125,-1.625 0.375,-1.5 2.875,-1.375 2.375,0 0,0" />
    <path
       id="path16"
       transform="translate(0,45.8042)"
       d="M 0,0 C 0.298,-0.05 0.633,-0.072 1,-0.054 3.625,0.071 3,1.696 0.25,1.696 0.163,1.696 0.08,1.694 0,1.691" />
    <path
       id="path18"
       transform="translate(10.375,47.25)"
       d="m 0,0 c -0.375,1 -0.875,1 -2.75,0.375 -2.375,-0.5 -0.5,-1.625 1.25,-1.5 C 0.25,-1 0.375,-1 0,0" />
    <path
       id="path20"
       transform="translate(17.375,47.5)"
       d="M 0,0 C -3.625,0 -2.25,-1.625 0.25,-1.625 2.75,-1.625 2.875,-0.375 0,0" />
    <path
       id="path22"
       transform="translate(27.625,47.375)"
       d="M 0,0 C -4,1.125 -3,-1.375 -0.625,-1.375 1.75,-1.375 2,-0.875 0,0" />
    <path
       id="path24"
       transform="translate(35.875,47.625)"
       d="M 0,0 C -4.125,-0.25 -1,-1.875 1.625,-1.375 4.25,-0.875 2.25,-0.25 0,0" />
    <path
       id="path26"
       transform="translate(44.125,46.5)"
       d="M 0,0 C 3.125,0.125 2.625,1.375 -0.125,1.375 -2.625,1.5 -3.125,-0.125 0,0" />
    <path
       id="path28"
       transform="translate(6,9.375)"
       d="m 0,0 c 1.75,0.125 1.875,0.125 1.5,1.125 -0.375,1 -0.875,1 -2.75,0.375 C -3.625,1 -1.75,-0.125 0,0" />
    <path
       id="path30"
       transform="translate(14.75,9.125)"
       d="M 0,0 C 2.5,0 2.625,1.25 -0.25,1.625 -3.875,1.625 -2.5,0 0,0" />
    <path
       id="path32"
       transform="translate(24.125,9.25)"
       d="M 0,0 C 2.375,0 2.625,0.5 0.625,1.375 -3.375,2.5 -2.375,0 0,0" />
    <path
       id="path34"
       transform="translate(34.625,9.5)"
       d="M 0,0 C 2.625,0.5 0.625,1.125 -1.625,1.375 -5.75,1.125 -2.625,-0.5 0,0" />
    <path
       id="path36"
       transform="translate(41.25,9.75)"
       d="M 0,0 C 3.125,0.125 2.625,1.375 -0.125,1.375 -2.625,1.5 -3.125,-0.125 0,0" />
    <path
       id="path38"
       transform="translate(51.125,9.375)"
       d="M 0,0 C 2.875,-0.125 2.125,1.5 -0.5,1.625 -3.125,1.75 -4.125,0 0,0" />
    <path
       id="path40"
       transform="translate(45.625,41.125)"
       d="M 0,0 C -1.875,-0.375 -2.125,-1.625 0.875,-1.625 4,-1.625 3.5,-1 2.625,-0.375 1.75,0.25 1.875,0.375 0,0" />
    <path
       id="path42"
       transform="translate(34.5,39.5)"
       d="M 0,0 C -1.875,0 -3,-2 0.25,-1.875 4.125,-2.125 1.875,0 0,0" />
    <path
       id="path44"
       transform="translate(9.3301,2.2603)"
       d="m 0,0 c 3.875,-0.25 1.625,1.875 -0.25,1.875 -1.875,0 -3,-2 0.25,-1.875" />
    <path
       id="path46"
       transform="translate(16.875,40.5)"
       d="M 0,0 C 1.5,-0.25 1.75,-0.25 2.625,0.5 3.5,1.25 3,1.625 1,1.625 -1.25,1.625 -1.5,0.25 0,0" />
    <path
       id="path48"
       transform="translate(44.75,4.75)"
       d="M 0,0 C 1.5,-0.25 1.75,-0.25 2.625,0.5 3.5,1.25 3,1.625 1,1.625 -1.25,1.625 -1.5,0.25 0,0" />
    <path
       id="path50"
       transform="translate(4.375,41.375)"
       d="M 0,0 C 2.375,0.375 2,1.5 -0.25,1.75 -3,2 -2.375,-0.375 0,0" />
    <path
       id="path52"
       transform="translate(8.083,35.375)"
       d="m 0,0 c -2.875,0 -2.875,-1.625 0.25,-1.625 3.125,0 2,1.75 -0.25,1.625" />
    <path
       id="path54"
       transform="translate(33.917,28.4585)"
       d="M 0,0 C 3.125,0 2,1.75 -0.25,1.625 -3.125,1.625 -3.125,0 0,0" />
    <path
       id="path56"
       transform="translate(28.125,33.875)"
       d="M 0,0 C 1.539,0.535 -0.125,1.5 -2,1.75 -7.25,1 -2.875,-1 0,0" />
    <path
       id="path58"
       transform="translate(48,28.4165)"
       d="m 0,0 c 2.25,0.75 0.75,1.5 -1.5,1.5 0,0 -1.25,0 -1.875,-0.25 C -5,-0.375 -2.25,-0.75 0,0" />
    <path
       id="path60"
       transform="translate(20.667,26.75)"
       d="M 0,0 C 3,-0.125 2.875,1.5 0,1.625 -3.125,1.625 -3,0.125 0,0" />
    <path
       id="path62"
       transform="translate(46.625,18.5)"
       d="M 0,0 C -3.125,-0.125 -2,-1.75 0.375,-1.75 2.75,-1.75 3.125,0.125 0,0" />
    <path
       id="path64"
       transform="translate(36,20)"
       d="M 0,0 C 2.75,0 2.75,1.75 -0.125,1.75 -3.25,1.875 -2.75,0 0,0" />
    <path
       id="path66"
       transform="translate(22.125,17.625)"
       d="M 0,0 C 2.5,0 2.25,1.75 -0.5,1.75 -3.875,1.375 -2.5,0 0,0" />
    <path
       id="path68"
       transform="translate(8.125,22.75)"
       d="M 0,0 C 2.625,0 3,1.75 -0.25,1.75 -3.25,1.625 -2.625,0 0,0" />
    <path
       id="path70"
       transform="translate(29.25,2)"
       d="M 0,0 C 2.625,0 3,1.75 -0.25,1.75 -3.25,1.625 -2.625,0 0,0" />
    <path
       id="path72"
       transform="translate(3.875,15.25)"
       d="M 0,0 C 2.5,0.125 2.5,1.5 -0.375,1.375 -3.75,1.125 -2.5,-0.125 0,0" />
    <path
       id="path74"
       transform="translate(53.9775,47.4951)"
       d="M 0,0 C -2.193,-0.091 -1.765,-1.393 0,-1.691" />
  </g>
</svg>
