<?xml version="1.0" encoding="UTF-8" standalone="no"?>
<svg
   xmlns:dc="http://purl.org/dc/elements/1.1/"
   xmlns:cc="http://creativecommons.org/ns#"
   xmlns:rdf="http://www.w3.org/1999/02/22-rdf-syntax-ns#"
   xmlns:svg="http://www.w3.org/2000/svg"
   xmlns="http://www.w3.org/2000/svg"
   id="svg438"
   version="1.1"
   width="54.125"
   height="54.125">
  <defs
     id="defs442" />
  <metadata
     id="metadata2">citation: U.S. Geological Survey, 2006, FGDC Digital Cartographic Standard for Geologic Map Symbolization (PostScript Implementation): U.S. Geological Survey Techniques and Methods 11-A2 [pubs.usgs.gov/tm/2006/11A02/]. converted by CEC Geology LLC 2018 from the USGS lithologic gs converted to inkscape by the University of Otago.<rdf:RDF>
  <cc:Work
     rdf:about="">
    <dc:format>image/svg+xml</dc:format>
    <dc:type
       rdf:resource="http://purl.org/dc/dcmitype/StillImage" />
    <dc:title></dc:title>
  </cc:Work>
</rdf:RDF>
</metadata>
  <g
     id="g436"
     width="54.125"
     transform="matrix(1 0 0 -1 0 54.125)"
     stroke="#231f20"
     height="54.125"
     fill="none">
    <g
       id="g378"
       stroke-width=".7"
       stroke-linecap="round">
      <path
         id="path4"
         transform="translate(50.2852 41.4321)"
         d="m0 0 .01.01" />
      <path
         id="path6"
         transform="translate(45.9951 41.102)"
         d="m0 0 .01.01" />
      <path
         id="path8"
         transform="translate(51.3848 37.5273)"
         d="m0 0 .01.01" />
      <path
         id="path10"
         transform="translate(47.3145 37.1973)"
         d="m0 0 .01.01" />
      <path
         id="path12"
         transform="translate(48.8545 34.227)"
         d="m0 0 .01.01" />
      <path
         id="path14"
         transform="translate(52.4844 33.7871)"
         d="m0 0 .01.01" />
      <path
         id="path16"
         transform="translate(39.4473 42.3901)"
         d="m0 0 .01.01" />
      <path
         id="path18"
         transform="translate(43.9473 38.2236)"
         d="m0 0 .01.01" />
      <path
         id="path20"
         transform="translate(34.2813 41.5571)"
         d="m0 0 .01.01" />
      <path
         id="path22"
         transform="translate(35.4473 38.0571)"
         d="m0 0 .01.01" />
      <path
         id="path24"
         transform="translate(28.5049 39.5073)"
         d="m0 0 .01.01" />
      <path
         id="path26"
         transform="translate(32.5742 36.5371)"
         d="m0 0 .01.01" />
      <path
         id="path28"
         transform="translate(30.1543 30.5972)"
         d="m0 0 .01.01" />
      <path
         id="path30"
         transform="translate(10.958 33.3335)"
         d="m0 0 .01.01" />
      <path
         id="path32"
         transform="translate(26.958 36)"
         d="m0 0 .01.01" />
      <path
         id="path34"
         transform="translate(24.1045 40.0571)"
         d="m0 0 .01.01" />
      <path
         id="path36"
         transform="translate(21.6846 35.7671)"
         d="m0 0 .01.01" />
      <path
         id="path38"
         transform="translate(20.4746 39.1772)"
         d="m0 0 .01.01" />
      <path
         id="path40"
         transform="translate(15.791 36.167)"
         d="m0 0 .01.01" />
      <path
         id="path42"
         transform="translate(15.7442 40.2773)"
         d="m0 0 .01.01" />
      <path
         id="path44"
         transform="translate(11.7813 37.5571)"
         d="m0 0 .01.01" />
      <path
         id="path46"
         transform="translate(8.4844 40.937)"
         d="m0 0 .01.01" />
      <path
         id="path48"
         transform="translate(12.666 42)"
         d="m0 0 .01.01" />
      <path
         id="path50"
         transform="translate(1.5 42.3335)"
         d="m0 0 .01.01" />
      <path
         id="path52"
         transform="translate(1.4444 35.9873)"
         d="m0 0 .01.01" />
      <path
         id="path54"
         transform="translate(5.2813 37.5571)"
         d="m0 0 .01.01" />
      <path
         id="path56"
         transform="translate(9.0342 36.207)"
         d="m0 0 .01.01" />
      <path
         id="path58"
         transform="translate(7.6045 32.5771)"
         d="m0 0 .01.01" />
      <path
         id="path60"
         transform="translate(3.3145 32.5771)"
         d="m0 0 .01.01" />
      <path
         id="path62"
         transform="translate(13 45.667)"
         d="m0 0 .01.01" />
      <path
         id="path64"
         transform="translate(1.0049 29.4971)"
         d="m0 0 .01.01" />
      <path
         id="path66"
         transform="translate(1.2246 26.6372)"
         d="m0 0 .01.01" />
      <path
         id="path68"
         transform="translate(6.3945 26.417)"
         d="m0 0 .01.01" />
      <path
         id="path70"
         transform="translate(5.4043 29.3872)"
         d="m0 0 .01.01" />
      <path
         id="path72"
         transform="translate(9.3643 28.9473)"
         d="m0 0 .01.01" />
      <path
         id="path74"
         transform="translate(12.6641 31.0371)"
         d="m0 0 .01.01" />
      <path
         id="path76"
         transform="translate(12.9942 27.5171)"
         d="m0 0 .01.01" />
      <path
         id="path78"
         transform="translate(16.1846 30.1572)"
         d="m0 0 .01.01" />
      <path
         id="path80"
         transform="translate(16.9541 26.3071)"
         d="m0 0 .01.01" />
      <path
         id="path82"
         transform="translate(19.7813 30.8901)"
         d="m0 0 .01.01" />
      <path
         id="path84"
         transform="translate(19.9248 25.4272)"
         d="m0 0 .01.01" />
      <path
         id="path86"
         transform="translate(23.2246 28.5068)"
         d="m0 0 .01.01" />
      <path
         id="path88"
         transform="translate(25.458 32)"
         d="m0 0 .01.01" />
      <path
         id="path90"
         transform="translate(27.0742 29.167)"
         d="m0 0 .01.01" />
      <path
         id="path92"
         transform="translate(24.3242 25.4272)"
         d="m0 0 .01.01" />
      <path
         id="path94"
         transform="translate(28.7246 25.4272)"
         d="m0 0 .01.01" />
      <path
         id="path96"
         transform="translate(32.2451 27.5171)"
         d="m0 0 .01.01" />
      <path
         id="path98"
         transform="translate(34.4444 25.207)"
         d="m0 0 .01.01" />
      <path
         id="path100"
         transform="translate(16.2949 22.897)"
         d="m0 0 .01.01" />
      <path
         id="path102"
         transform="translate(14.4248 19.9272)"
         d="m0 0 .01.01" />
      <path
         id="path104"
         transform="translate(12.2246 22.897)"
         d="m0 0 .01.01" />
      <path
         id="path106"
         transform="translate(35.958 14.8335)"
         d="m0 0 .01.01" />
      <path
         id="path108"
         transform="translate(8.5947 21.1372)"
         d="m0 0 .01.01" />
      <path
         id="path110"
         transform="translate(6.7246 23.7768)"
         d="m0 0 .01.01" />
      <path
         id="path112"
         transform="translate(6.6143 18.3872)"
         d="m0 0 .01.01" />
      <path
         id="path114"
         transform="translate(4.3047 21.1372)"
         d="m0 0 .01.01" />
      <path
         id="path116"
         transform="translate(1.1143 23.0068)"
         d="m0 0 .01.01" />
      <path
         id="path118"
         transform="translate(18.6143 42.8901)"
         d="m0 0 .01.01" />
      <path
         id="path120"
         transform="translate(2.2813 19.0571)"
         d="m0 0 .01.01" />
      <path
         id="path122"
         transform="translate(53.1143 40.2236)"
         d="m0 0 .01.01" />
      <path
         id="path124"
         transform="translate(4.9473 14.5571)"
         d="m0 0 .01.01" />
      <path
         id="path126"
         transform="translate(5.4473 45.7236)"
         d="m0 0 .01.01" />
      <path
         id="path128"
         transform="translate(3.4248 9.3667)"
         d="m0 0 .01.01" />
      <path
         id="path130"
         transform="translate(6.3945 12.1167)"
         d="m0 0 .01.01" />
      <path
         id="path132"
         transform="translate(8.375 9.5869)"
         d="m0 0 .01.01" />
      <path
         id="path134"
         transform="translate(10.5742 13.437)"
         d="m0 0 .01.01" />
      <path
         id="path136"
         transform="translate(14.9746 14.977)"
         d="m0 0 .01.01" />
      <path
         id="path138"
         transform="translate(12.1143 9.147)"
         d="m0 0 .01.01" />
      <path
         id="path140"
         transform="translate(15.085 11.5669)"
         d="m0 0 .01.01" />
      <path
         id="path142"
         transform="translate(18.6045 11.457)"
         d="m0 0 .01.01" />
      <path
         id="path144"
         transform="translate(19.5947 14.977)"
         d="m0 0 .01.01" />
      <path
         id="path146"
         transform="translate(23.5547 14.4272)"
         d="m0 0 .01.01" />
      <path
         id="path148"
         transform="translate(22.125 11.7871)"
         d="m0 0 .01.01" />
      <path
         id="path150"
         transform="translate(29.125 12.667)"
         d="m0 0 .01.01" />
      <path
         id="path152"
         transform="translate(.9473 15.7236)"
         d="m0 0 .01.01" />
      <path
         id="path154"
         transform="translate(1.1143 11.5571)"
         d="m0 0 .01.01" />
      <path
         id="path156"
         transform="translate(34.2813 12.3901)"
         d="m0 0 .01.01" />
      <path
         id="path158"
         transform="translate(25.7813 43.2236)"
         d="m0 0 .01.01" />
      <path
         id="path160"
         transform="translate(38.9473 13.3901)"
         d="m0 0 .01.01" />
      <path
         id="path162"
         transform="translate(22.4473 44.7236)"
         d="m0 0 .01.01" />
      <path
         id="path164"
         transform="translate(43.4649 15.1968)"
         d="m0 0 .01.01" />
      <path
         id="path166"
         transform="translate(44.8945 12.3369)"
         d="m0 0 .01.01" />
      <path
         id="path168"
         transform="translate(47.9746 14.4272)"
         d="m0 0 .01.01" />
      <path
         id="path170"
         transform="translate(51.6045 16.4072)"
         d="m0 0 .01.01" />
      <path
         id="path172"
         transform="translate(52.375 13.5469)"
         d="m0 0 .01.01" />
      <path
         id="path174"
         transform="translate(50.333 9.3335)"
         d="m0 0 .01.01" />
      <path
         id="path176"
         transform="translate(48.9649 11.1269)"
         d="m0 0 .01.01" />
      <path
         id="path178"
         transform="translate(45.8848 8.3769)"
         d="m0 0 .01.01" />
      <path
         id="path180"
         transform="translate(29.9473 43.0571)"
         d="m0 0 .01.01" />
      <path
         id="path182"
         transform="translate(10.2813 48.7236)"
         d="m0 0 .01.01" />
      <path
         id="path184"
         transform="translate(9.1143 44.8901)"
         d="m0 0 .01.01" />
      <path
         id="path186"
         transform="translate(51.7149 6.1767)"
         d="m0 0 .01.01" />
      <path
         id="path188"
         transform="translate(52.7813 3.3901)"
         d="m0 0 .01.01" />
      <path
         id="path190"
         transform="translate(50.4473 1.3901)"
         d="m0 0 .01.01" />
      <path
         id="path192"
         transform="translate(48.5244 3.4267)"
         d="m0 0 .01.01" />
      <path
         id="path194"
         transform="translate(45.5547 1.227)"
         d="m0 0 .01.01" />
      <path
         id="path196"
         transform="translate(45.5547 4.9668)"
         d="m0 0 .01.01" />
      <path
         id="path198"
         transform="translate(42.0352 7.3867)"
         d="m0 0 .01.01" />
      <path
         id="path200"
         transform="translate(19.7813 53.0571)"
         d="m0 0 .01.01" />
      <path
         id="path202"
         transform="translate(40.7149 1.5571)"
         d="m0 0 .01.01" />
      <path
         id="path204"
         transform="translate(16.1143 46.7236)"
         d="m0 0 .01.01" />
      <path
         id="path206"
         transform="translate(39.3945 8.9267)"
         d="m0 0 .01.01" />
      <path
         id="path208"
         transform="translate(39.1143 4.8901)"
         d="m0 0 .01.01" />
      <path
         id="path210"
         transform="translate(19.9473 47.8901)"
         d="m0 0 .01.01" />
      <path
         id="path212"
         transform="translate(22.7813 50.8901)"
         d="m0 0 .01.01" />
      <path
         id="path214"
         transform="translate(17.4473 51.2236)"
         d="m0 0 .01.01" />
      <path
         id="path216"
         transform="translate(13.7813 50.2236)"
         d="m0 0 .01.01" />
      <path
         id="path218"
         transform="translate(10.2813 52.3901)"
         d="m0 0 .01.01" />
      <path
         id="path220"
         transform="translate(6.7813 48.2236)"
         d="m0 0 .01.01" />
      <path
         id="path222"
         transform="translate(2.1143 47.7236)"
         d="m0 0 .01.01" />
      <path
         id="path224"
         transform="translate(2.1143 52.3901)"
         d="m0 0 .01.01" />
      <path
         id="path226"
         transform="translate(5.4473 53.3901)"
         d="m0 0 .01.01" />
      <path
         id="path228"
         transform="translate(29.791 50)"
         d="m0 0 .01.01" />
      <path
         id="path230"
         transform="translate(32.2813 48.2236)"
         d="m0 0 .01.01" />
      <path
         id="path232"
         transform="translate(32.1143 52.0571)"
         d="m0 0 .01.01" />
      <path
         id="path234"
         transform="translate(25.6143 53.3901)"
         d="m0 0 .01.01" />
      <path
         id="path236"
         transform="translate(36.2813 50.3901)"
         d="m0 0 .01.01" />
      <path
         id="path238"
         transform="translate(37.7813 45.7236)"
         d="m0 0 .01.01" />
      <path
         id="path240"
         transform="translate(40.7813 49.2236)"
         d="m0 0 .01.01" />
      <path
         id="path242"
         transform="translate(42.1143 44.8901)"
         d="m0 0 .01.01" />
      <path
         id="path244"
         transform="translate(45.1143 47.7236)"
         d="m0 0 .01.01" />
      <path
         id="path246"
         transform="translate(43.1143 52.7236)"
         d="m0 0 .01.01" />
      <path
         id="path248"
         transform="translate(38.2813 53.2236)"
         d="m0 0 .01.01" />
      <path
         id="path250"
         transform="translate(45.791 50.8335)"
         d="m0 0 .01.01" />
      <path
         id="path252"
         transform="translate(47.2813 44.3901)"
         d="m0 0 .01.01" />
      <path
         id="path254"
         transform="translate(49.7813 48.0571)"
         d="m0 0 .01.01" />
      <path
         id="path256"
         transform="translate(52.1143 44.2236)"
         d="m0 0 .01.01" />
      <path
         id="path258"
         transform="translate(52.7813 51.5571)"
         d="m0 0 .01.01" />
      <path
         id="path260"
         transform="translate(46.625 53)"
         d="m0 0 .01.01" />
      <path
         id="path262"
         transform="translate(37.2813 2.7236)"
         d="m0 0 .01.01" />
      <path
         id="path264"
         transform="translate(35.4346 7.4971)"
         d="m0 0 .01.01" />
      <path
         id="path266"
         transform="translate(32.5742 9.3667)"
         d="m0 0 .01.01" />
      <path
         id="path268"
         transform="translate(32.7949 5.5171)"
         d="m0 0 .01.01" />
      <path
         id="path270"
         transform="translate(34.335 1.227)"
         d="m0 0 .01.01" />
      <path
         id="path272"
         transform="translate(29.6045 6.9468)"
         d="m0 0 .01.01" />
      <path
         id="path274"
         transform="translate(28.0645 10.0268)"
         d="m0 0 .01.01" />
      <path
         id="path276"
         transform="translate(24.875 7.937)"
         d="m0 0 .01.01" />
      <path
         id="path278"
         transform="translate(26.6348 4.5268)"
         d="m0 0 .01.01" />
      <path
         id="path280"
         transform="translate(22.125 5.7368)"
         d="m0 0 .01.01" />
      <path
         id="path282"
         transform="translate(18.8242 8.1567)"
         d="m0 0 .01.01" />
      <path
         id="path284"
         transform="translate(15.1944 7.6069)"
         d="m0 0 .01.01" />
      <path
         id="path286"
         transform="translate(19.1543 1.9971)"
         d="m0 0 .01.01" />
      <path
         id="path288"
         transform="translate(23.6651 1.0068)"
         d="m0 0 .01.01" />
      <path
         id="path290"
         transform="translate(29.6045 1.9971)"
         d="m0 0 .01.01" />
      <path
         id="path292"
         transform="translate(14.2041 1.1167)"
         d="m0 0 .01.01" />
      <path
         id="path294"
         transform="translate(12.9942 4.7471)"
         d="m0 0 .01.01" />
      <path
         id="path296"
         transform="translate(9.2549 5.7368)"
         d="m0 0 .01.01" />
      <path
         id="path298"
         transform="translate(9.3643 1.1167)"
         d="m0 0 .01.01" />
      <path
         id="path300"
         transform="translate(6.6143 3.647)"
         d="m0 0 .01.01" />
      <path
         id="path302"
         transform="translate(2.2149 5.2969)"
         d="m0 0 .01.01" />
      <path
         id="path304"
         transform="translate(2.7647 1.667)"
         d="m0 0 .01.01" />
      <path
         id="path306"
         transform="translate(39.1143 34.7236)"
         d="m0 0 .01.01" />
      <path
         id="path308"
         transform="translate(40.4473 37.5571)"
         d="m0 0 .01.01" />
      <path
         id="path310"
         transform="translate(44.4551 34.8872)"
         d="m0 0 .01.01" />
      <path
         id="path312"
         transform="translate(51.1651 31.147)"
         d="m0 0 .01.01" />
      <path
         id="path314"
         transform="translate(46.4346 31.5869)"
         d="m0 0 .01.01" />
      <path
         id="path316"
         transform="translate(38.0752 32.0268)"
         d="m0 0 .01.01" />
      <path
         id="path318"
         transform="translate(34.1143 30.8169)"
         d="m0 0 .01.01" />
      <path
         id="path320"
         transform="translate(32.6846 33.3472)"
         d="m0 0 .01.01" />
      <path
         id="path322"
         transform="translate(36.7549 28.2871)"
         d="m0 0 .01.01" />
      <path
         id="path324"
         transform="translate(39.3945 25.7568)"
         d="m0 0 .01.01" />
      <path
         id="path326"
         transform="translate(42.8047 27.4072)"
         d="m0 0 .01.01" />
      <path
         id="path328"
         transform="translate(42.8047 23.9971)"
         d="m0 0 .01.01" />
      <path
         id="path330"
         transform="translate(46.2149 24.5469)"
         d="m0 0 .01.01" />
      <path
         id="path332"
         transform="translate(46.9844 27.7368)"
         d="m0 0 .01.01" />
      <path
         id="path334"
         transform="translate(49.5147 25.8672)"
         d="m0 0 .01.01" />
      <path
         id="path336"
         transform="translate(52.375 27.957)"
         d="m0 0 .01.01" />
      <path
         id="path338"
         transform="translate(51.8252 24.2168)"
         d="m0 0 .01.01" />
      <path
         id="path340"
         transform="translate(52.375 20.477)"
         d="m0 0 .01.01" />
      <path
         id="path342"
         transform="translate(48.125 19)"
         d="m0 0 .01.01" />
      <path
         id="path344"
         transform="translate(25.4473 48.2236)"
         d="m0 0 .01.01" />
      <path
         id="path346"
         transform="translate(48.2813 22.0571)"
         d="m0 0 .01.01" />
      <path
         id="path348"
         transform="translate(34.1143 44.7236)"
         d="m0 0 .01.01" />
      <path
         id="path350"
         transform="translate(41.375 20.477)"
         d="m0 0 .01.01" />
      <path
         id="path352"
         transform="translate(38.2949 21.5771)"
         d="m0 0 .01.01" />
      <path
         id="path354"
         transform="translate(38.9551 18.0571)"
         d="m0 0 .01.01" />
      <path
         id="path356"
         transform="translate(35.3242 17.2871)"
         d="m0 0 .01.01" />
      <path
         id="path358"
         transform="translate(34.6651 20.477)"
         d="m0 0 .01.01" />
      <path
         id="path360"
         transform="translate(30.9248 20.477)"
         d="m0 0 .01.01" />
      <path
         id="path362"
         transform="translate(31.4473 15.2236)"
         d="m0 0 .01.01" />
      <path
         id="path364"
         transform="translate(27.1846 21.2471)"
         d="m0 0 .01.01" />
      <path
         id="path366"
         transform="translate(28.0645 17.0669)"
         d="m0 0 .01.01" />
      <path
         id="path368"
         transform="translate(24.9844 18.167)"
         d="m0 0 .01.01" />
      <path
         id="path370"
         transform="translate(22.7842 20.917)"
         d="m0 0 .01.01" />
      <path
         id="path372"
         transform="translate(20.585 17.727)"
         d="m0 0 .01.01" />
      <path
         id="path374"
         transform="translate(17.0645 18.4971)"
         d="m0 0 .01.01" />
      <path
         id="path376"
         transform="translate(19.1543 21.687)"
         d="m0 0 .01.01" />
    </g>
    <path
       id="path380"
       transform="translate(15.1944 3.3169)"
       stroke-width=".3"
       d="m0 0h17.38" />
    <path
       id="path382"
       transform="translate(10.5371 7.5)"
       stroke-width=".3"
       d="m0 0h-10.546" />
    <path
       id="path384"
       transform="translate(42.4883 10.9975)"
       stroke-width=".3"
       d="m0 0h-19.14" />
    <path
       id="path386"
       transform="translate(41.375 17.1953)"
       stroke-width=".3"
       d="m0 0h12.54" />
    <path
       id="path388"
       transform="translate(23.5547 16.7554)"
       stroke-width=".3"
       d="m0 0h-14.74" />
    <path
       id="path390"
       transform="translate(23.335 23.7768)"
       stroke-width=".3"
       d="m0 0h17.38" />
    <path
       id="path392"
       transform="translate(19.1953 46.5991)"
       stroke-width=".3"
       d="m0 0h17.381" />
    <path
       id="path394"
       transform="translate(-.0244 50.0478)"
       stroke-width=".3"
       d="m0 0h6.947" />
    <path
       id="path396"
       transform="translate(14.9746 25.3169)"
       stroke-width=".3"
       d="m0 0h-14.52" />
    <path
       id="path398"
       transform="translate(39.6143 29.937)"
       stroke-width=".3"
       d="m0 0h14.301" />
    <path
       id="path400"
       transform="translate(30.6768 33.8227)"
       stroke-width=".3"
       d="m0 0h-15.181" />
    <path
       id="path402"
       transform="translate(14.2529 39.6514)"
       stroke-width=".3"
       d="m0 0h-14.08" />
    <path
       id="path404"
       transform="translate(32.293 39.8711)"
       stroke-width=".3"
       d="m0 0h15.84" />
    <path
       id="path406"
       transform="translate(54.1162 7.5)"
       stroke-width=".3"
       d="m0 0h-6.53" />
    <path
       id="path408"
       transform="translate(47.9893 50.0478)"
       stroke-width=".3"
       d="m0 0h6.143" />
    <path
       id="path410"
       transform="translate(50.3535 49.917)"
       stroke-width=".3"
       d="m0 0 1.669 2.469" />
    <path
       id="path412"
       transform="translate(35.8535 39.8721)"
       stroke-width=".3"
       d="m0 0 1.669 2.468" />
    <path
       id="path414"
       transform="translate(2.833 39.6636)"
       stroke-width=".3"
       d="m0 0 1.669 2.469" />
    <path
       id="path416"
       transform="translate(18.5205 33.8774)"
       stroke-width=".3"
       d="m0 0 1.669 2.469" />
    <path
       id="path418"
       transform="translate(42.666 30.0234)"
       stroke-width=".3"
       d="m0 0 1.669 2.469" />
    <path
       id="path420"
       transform="translate(26.4785 23.8081)"
       stroke-width=".3"
       d="m0 0 1.669 2.469" />
    <path
       id="path422"
       transform="translate(3.3535 25.2632)"
       stroke-width=".3"
       d="m0 0 1.669 2.469" />
    <path
       id="path424"
       transform="translate(45 17.1001)"
       stroke-width=".3"
       d="m0 0 1.668 2.469" />
    <path
       id="path426"
       transform="translate(12.0205 16.8848)"
       stroke-width=".3"
       d="m0 0 1.669 2.469" />
    <path
       id="path428"
       transform="translate(26.833 11.1128)"
       stroke-width=".3"
       d="m0 0 1.669 2.469" />
    <path
       id="path430"
       transform="translate(51.1172 7.3476)"
       stroke-width=".3"
       d="m0 0 1.668 2.469" />
    <path
       id="path432"
       transform="translate(18.333 3.3628)"
       stroke-width=".3"
       d="m0 0 1.669 2.469" />
    <path
       id="path434"
       transform="translate(22.125 46.4888)"
       stroke-width=".3"
       d="m0 0 1.668 2.469" />
  </g>
</svg>
