<?xml version="1.0" encoding="UTF-8" standalone="no"?>
<svg
   xmlns:dc="http://purl.org/dc/elements/1.1/"
   xmlns:cc="http://creativecommons.org/ns#"
   xmlns:rdf="http://www.w3.org/1999/02/22-rdf-syntax-ns#"
   xmlns:svg="http://www.w3.org/2000/svg"
   xmlns="http://www.w3.org/2000/svg"
   height="46.75"
   width="46.75"
   id="svg622"
   version="1.1">
  <defs
     id="defs626" />
  <metadata
     id="metadata2">citation: U.S. Geological Survey, 2006, FGDC Digital Cartographic Standard for Geologic Map Symbolization (PostScript Implementation): U.S. Geological Survey Techniques and Methods 11-A2 [pubs.usgs.gov/tm/2006/11A02/]. converted by CEC Geology LLC 2018 from the USGS lithologic gs converted to inkscape by the University of Otago.<rdf:RDF>
  <cc:Work
     rdf:about="">
    <dc:format>image/svg+xml</dc:format>
    <dc:type
       rdf:resource="http://purl.org/dc/dcmitype/StillImage" />
    <dc:title></dc:title>
  </cc:Work>
</rdf:RDF>
</metadata>
  <g
     stroke-width=".3"
     stroke="#231f20"
     fill="none"
     id="g620"
     width="46.75"
     height="46.75">
    <path
       style="stroke-width:0.30000001"
       id="path4"
       transform="translate(5.3818,45.4473)"
       d="M 0,0 H -5.382" />
    <path
       style="stroke-width:0.30000001"
       id="path6"
       transform="translate(12.9482,45.4473)"
       d="M 0,0 H 7.818" />
    <path
       style="stroke-width:0.30000001"
       id="path8"
       transform="translate(28.4404,45.4473)"
       d="M 0,0 H 7.818" />
    <path
       style="stroke-width:0.30000001"
       id="path10"
       transform="translate(0,33.8071)"
       d="M 0,0 H 3.768" />
    <path
       style="stroke-width:0.30000001"
       id="path12"
       transform="translate(19.1523,33.8071)"
       d="M 0,0 H -7.817" />
    <path
       style="stroke-width:0.30000001"
       id="path14"
       transform="translate(26.8271,33.8071)"
       d="M 0,0 H 7.817" />
    <path
       style="stroke-width:0.30000001"
       id="path16"
       transform="translate(0,22.167)"
       d="M 0,0 H 1.724" />
    <path
       style="stroke-width:0.30000001"
       id="path18"
       transform="translate(9.3984,22.167)"
       d="M 0,0 H 7.817" />
    <path
       style="stroke-width:0.30000001"
       id="path20"
       transform="translate(24.8906,22.167)"
       d="M 0,0 H 7.817" />
    <path
       style="stroke-width:0.30000001"
       id="path22"
       transform="translate(5.0586,10.5269)"
       d="M 0,0 H -5.059" />
    <path
       style="stroke-width:0.30000001"
       id="path24"
       transform="translate(20.6582,10.5269)"
       d="M 0,0 H -7.817" />
    <path
       style="stroke-width:0.30000001"
       id="path26"
       transform="translate(36.2588,10.5269)"
       d="M 0,0 H -7.818" />
    <path
       style="stroke-width:0.30000001"
       id="path28"
       transform="translate(44.1836,45.4473)"
       d="M 0,0 H 2.566" />
    <path
       style="stroke-width:0.30000001"
       id="path30"
       transform="translate(42.5703,33.8071)"
       d="M 0,0 H 4.18" />
    <path
       style="stroke-width:0.30000001"
       id="path32"
       transform="translate(40.5264,22.167)"
       d="M 0,0 H 6.224" />
    <path
       style="stroke-width:0.30000001"
       id="path34"
       transform="translate(43.8613,10.5269)"
       d="M 0,0 H 2.889" />
    <path
       style="stroke-width:0.30000001"
       id="path36"
       transform="translate(43.9131,39.644)"
       d="M 0,0 H -7.896" />
    <path
       style="stroke-width:0.30000001"
       id="path38"
       transform="translate(20.3672,39.644)"
       d="M 0,0 H 7.897" />
    <path
       style="stroke-width:0.30000001"
       id="path40"
       transform="translate(4.6104,39.644)"
       d="M 0,0 H 7.896" />
    <path
       style="stroke-width:0.30000001"
       id="path42"
       transform="translate(34.1143,28.0039)"
       d="M 0,0 H 7.896" />
    <path
       style="stroke-width:0.30000001"
       id="path44"
       transform="translate(26.3623,28.0039)"
       d="M 0,0 H -7.898" />
    <path
       style="stroke-width:0.30000001"
       id="path46"
       transform="translate(10.4961,28.0039)"
       d="M 0,0 H -7.896" />
    <path
       style="stroke-width:0.30000001"
       id="path48"
       transform="translate(34.1143,16.3638)"
       d="M 0,0 H 7.896" />
    <path
       style="stroke-width:0.30000001"
       id="path50"
       transform="translate(26.3623,16.3638)"
       d="M 0,0 H -7.898" />
    <path
       style="stroke-width:0.30000001"
       id="path52"
       transform="translate(10.7129,16.3638)"
       d="M 0,0 H -7.896" />
    <path
       style="stroke-width:0.30000001"
       id="path54"
       transform="translate(43.6406,4.8438)"
       d="M 0,0 H -7.896" />
    <path
       style="stroke-width:0.30000001"
       id="path56"
       transform="translate(28.209,4.8438)"
       d="M 0,0 H -7.896" />
    <path
       style="stroke-width:0.30000001"
       id="path58"
       transform="translate(12.4521,4.8438)"
       d="M 0,0 H -7.896" />
    <g
       style="stroke-width:0.69999999;stroke-linecap:round"
       id="g618">
      <path
         id="path60"
         transform="translate(24.5908,45.4233)"
         d="M 0,0 0.01,0.01" />
      <path
         id="path62"
         transform="translate(26.5527,45.4233)"
         d="M 0,0 0.01,0.01" />
      <path
         id="path64"
         transform="translate(22.5361,45.4233)"
         d="M 0,0 0.01,0.01" />
      <path
         id="path66"
         transform="translate(9.2041,45.4233)"
         d="M 0,0 0.01,0.01" />
      <path
         id="path68"
         transform="translate(11.167,45.4233)"
         d="M 0,0 0.01,0.01" />
      <path
         id="path70"
         transform="translate(7.1504,45.4233)"
         d="M 0,0 0.01,0.01" />
      <path
         id="path72"
         transform="translate(40.2979,45.4233)"
         d="M 0,0 0.01,0.01" />
      <path
         id="path74"
         transform="translate(42.2607,45.4233)"
         d="M 0,0 0.01,0.01" />
      <path
         id="path76"
         transform="translate(38.2441,45.4233)"
         d="M 0,0 0.01,0.01" />
      <path
         id="path78"
         transform="translate(23.0078,33.8472)"
         d="M 0,0 0.01,0.01" />
      <path
         id="path80"
         transform="translate(24.9697,33.8472)"
         d="M 0,0 0.01,0.01" />
      <path
         id="path82"
         transform="translate(20.9531,33.8472)"
         d="M 0,0 0.01,0.01" />
      <path
         id="path84"
         transform="translate(7.6211,33.8472)"
         d="M 0,0 0.01,0.01" />
      <path
         id="path86"
         transform="translate(9.584,33.8472)"
         d="M 0,0 0.01,0.01" />
      <path
         id="path88"
         transform="translate(5.5674,33.8472)"
         d="M 0,0 0.01,0.01" />
      <path
         id="path90"
         transform="translate(38.7148,33.8472)"
         d="M 0,0 0.01,0.01" />
      <path
         id="path92"
         transform="translate(40.6777,33.8472)"
         d="M 0,0 0.01,0.01" />
      <path
         id="path94"
         transform="translate(36.6611,33.8472)"
         d="M 0,0 0.01,0.01" />
      <path
         id="path96"
         transform="translate(20.9639,22.147)"
         d="M 0,0 0.01,0.01" />
      <path
         id="path98"
         transform="translate(22.9258,22.147)"
         d="M 0,0 0.01,0.01" />
      <path
         id="path100"
         transform="translate(18.9092,22.147)"
         d="M 0,0 0.01,0.01" />
      <path
         id="path102"
         transform="translate(5.5771,22.147)"
         d="M 0,0 0.01,0.01" />
      <path
         id="path104"
         transform="translate(7.54,22.147)"
         d="M 0,0 0.01,0.01" />
      <path
         id="path106"
         transform="translate(3.5234,22.147)"
         d="M 0,0 0.01,0.01" />
      <path
         id="path108"
         transform="translate(36.6709,22.147)"
         d="M 0,0 0.01,0.01" />
      <path
         id="path110"
         transform="translate(38.6328,22.147)"
         d="M 0,0 0.01,0.01" />
      <path
         id="path112"
         transform="translate(34.6172,22.147)"
         d="M 0,0 0.01,0.01" />
      <path
         id="path114"
         transform="translate(24.46,10.5068)"
         d="M 0,0 0.01,0.01" />
      <path
         id="path116"
         transform="translate(26.4219,10.5068)"
         d="M 0,0 0.01,0.01" />
      <path
         id="path118"
         transform="translate(22.4063,10.5068)"
         d="M 0,0 0.01,0.01" />
      <path
         id="path120"
         transform="translate(9.0742,10.5068)"
         d="M 0,0 0.01,0.01" />
      <path
         id="path122"
         transform="translate(11.0361,10.5068)"
         d="M 0,0 0.01,0.01" />
      <path
         id="path124"
         transform="translate(7.0195,10.5068)"
         d="M 0,0 0.01,0.01" />
      <path
         id="path126"
         transform="translate(40.167,10.5068)"
         d="M 0,0 0.01,0.01" />
      <path
         id="path128"
         transform="translate(42.1299,10.5068)"
         d="M 0,0 0.01,0.01" />
      <path
         id="path130"
         transform="translate(38.1133,10.5068)"
         d="M 0,0 0.01,0.01" />
      <path
         id="path132"
         transform="translate(16.3467,39.624)"
         d="M 0,0 0.01,0.01" />
      <path
         id="path134"
         transform="translate(18.3291,39.624)"
         d="M 0,0 0.01,0.01" />
      <path
         id="path136"
         transform="translate(14.2725,39.624)"
         d="M 0,0 0.01,0.01" />
      <path
         id="path138"
         transform="translate(0.8057,39.624)"
         d="M 0,0 0.01,0.01" />
      <path
         id="path140"
         transform="translate(2.7871,39.624)"
         d="M 0,0 0.01,0.01" />
      <path
         id="path142"
         transform="translate(32.2129,39.624)"
         d="M 0,0 0.01,0.01" />
      <path
         id="path144"
         transform="translate(34.1943,39.624)"
         d="M 0,0 0.01,0.01" />
      <path
         id="path146"
         transform="translate(30.1377,39.624)"
         d="M 0,0 0.01,0.01" />
      <path
         id="path148"
         transform="translate(45.6045,39.624)"
         d="M 0,0 0.01,0.01" />
      <path
         id="path150"
         transform="translate(14.3896,28.0439)"
         d="M 0,0 0.01,0.01" />
      <path
         id="path152"
         transform="translate(16.3721,28.0439)"
         d="M 0,0 0.01,0.01" />
      <path
         id="path154"
         transform="translate(12.3154,28.0439)"
         d="M 0,0 0.01,0.01" />
      <path
         id="path156"
         transform="translate(30.2559,28.0439)"
         d="M 0,0 0.01,0.01" />
      <path
         id="path158"
         transform="translate(32.2383,28.0439)"
         d="M 0,0 0.01,0.01" />
      <path
         id="path160"
         transform="translate(28.1816,28.0439)"
         d="M 0,0 0.01,0.01" />
      <path
         id="path162"
         transform="translate(45.7217,28.0439)"
         d="M 0,0 0.01,0.01" />
      <path
         id="path164"
         transform="translate(43.6475,28.0439)"
         d="M 0,0 0.01,0.01" />
      <path
         id="path166"
         transform="translate(14.4443,16.3438)"
         d="M 0,0 0.01,0.01" />
      <path
         id="path168"
         transform="translate(16.4268,16.3438)"
         d="M 0,0 0.01,0.01" />
      <path
         id="path170"
         transform="translate(12.3701,16.3438)"
         d="M 0,0 0.01,0.01" />
      <path
         id="path172"
         transform="translate(0.8848,16.3438)"
         d="M 0,0 0.01,0.01" />
      <path
         id="path174"
         transform="translate(30.3105,16.3438)"
         d="M 0,0 0.01,0.01" />
      <path
         id="path176"
         transform="translate(32.292,16.3438)"
         d="M 0,0 0.01,0.01" />
      <path
         id="path178"
         transform="translate(28.2354,16.3438)"
         d="M 0,0 0.01,0.01" />
      <path
         id="path180"
         transform="translate(45.7764,16.3438)"
         d="M 0,0 0.01,0.01" />
      <path
         id="path182"
         transform="translate(43.7012,16.3438)"
         d="M 0,0 0.01,0.01" />
      <path
         id="path184"
         transform="translate(16.2373,4.8237)"
         d="M 0,0 0.01,0.01" />
      <path
         id="path186"
         transform="translate(18.2197,4.8237)"
         d="M 0,0 0.01,0.01" />
      <path
         id="path188"
         transform="translate(14.1631,4.8237)"
         d="M 0,0 0.01,0.01" />
      <path
         id="path190"
         transform="translate(0.6963,4.8237)"
         d="M 0,0 0.01,0.01" />
      <path
         id="path192"
         transform="translate(2.6777,4.8237)"
         d="M 0,0 0.01,0.01" />
      <path
         id="path194"
         transform="translate(32.1035,4.8237)"
         d="M 0,0 0.01,0.01" />
      <path
         id="path196"
         transform="translate(34.0859,4.8237)"
         d="M 0,0 0.01,0.01" />
      <path
         id="path198"
         transform="translate(30.0283,4.8237)"
         d="M 0,0 0.01,0.01" />
      <path
         id="path200"
         transform="translate(45.4951,4.8237)"
         d="M 0,0 0.01,0.01" />
      <path
         id="path202"
         transform="translate(1.1211,42.4985)"
         d="M 0,0 0.01,0.01" />
      <path
         id="path204"
         transform="translate(4.7129,42.4985)"
         d="M 0,0 0.01,0.01" />
      <path
         id="path206"
         transform="translate(2.917,42.4985)"
         d="M 0,0 0.01,0.01" />
      <path
         id="path208"
         transform="translate(8.3086,42.4985)"
         d="M 0,0 0.01,0.01" />
      <path
         id="path210"
         transform="translate(6.5137,42.4985)"
         d="M 0,0 0.01,0.01" />
      <path
         id="path212"
         transform="translate(11.8994,42.4985)"
         d="M 0,0 0.01,0.01" />
      <path
         id="path214"
         transform="translate(10.1045,42.4985)"
         d="M 0,0 0.01,0.01" />
      <path
         id="path216"
         transform="translate(15.4912,42.4985)"
         d="M 0,0 0.01,0.01" />
      <path
         id="path218"
         transform="translate(13.6953,42.4985)"
         d="M 0,0 0.01,0.01" />
      <path
         id="path220"
         transform="translate(19.082,42.4985)"
         d="M 0,0 0.01,0.01" />
      <path
         id="path222"
         transform="translate(17.2861,42.4985)"
         d="M 0,0 0.01,0.01" />
      <path
         id="path224"
         transform="translate(22.6787,42.4985)"
         d="M 0,0 0.01,0.01" />
      <path
         id="path226"
         transform="translate(20.8828,42.4985)"
         d="M 0,0 0.01,0.01" />
      <path
         id="path228"
         transform="translate(26.2695,42.4985)"
         d="M 0,0 0.01,0.01" />
      <path
         id="path230"
         transform="translate(24.4736,42.4985)"
         d="M 0,0 0.01,0.01" />
      <path
         id="path232"
         transform="translate(29.8555,42.4985)"
         d="M 0,0 0.01,0.01" />
      <path
         id="path234"
         transform="translate(28.0596,42.4985)"
         d="M 0,0 0.01,0.01" />
      <path
         id="path236"
         transform="translate(33.4463,42.4985)"
         d="M 0,0 0.01,0.01" />
      <path
         id="path238"
         transform="translate(31.6504,42.4985)"
         d="M 0,0 0.01,0.01" />
      <path
         id="path240"
         transform="translate(37.042,42.4985)"
         d="M 0,0 0.01,0.01" />
      <path
         id="path242"
         transform="translate(35.2471,42.4985)"
         d="M 0,0 0.01,0.01" />
      <path
         id="path244"
         transform="translate(40.6338,42.4985)"
         d="M 0,0 0.01,0.01" />
      <path
         id="path246"
         transform="translate(38.8379,42.4985)"
         d="M 0,0 0.01,0.01" />
      <path
         id="path248"
         transform="translate(44.2246,42.4985)"
         d="M 0,0 0.01,0.01" />
      <path
         id="path250"
         transform="translate(42.4287,42.4985)"
         d="M 0,0 0.01,0.01" />
      <path
         id="path252"
         transform="translate(46.0205,42.4985)"
         d="M 0,0 0.01,0.01" />
      <path
         id="path254"
         transform="translate(1.1211,36.624)"
         d="M 0,0 0.01,0.01" />
      <path
         id="path256"
         transform="translate(4.7129,36.624)"
         d="M 0,0 0.01,0.01" />
      <path
         id="path258"
         transform="translate(2.917,36.624)"
         d="M 0,0 0.01,0.01" />
      <path
         id="path260"
         transform="translate(8.3086,36.624)"
         d="M 0,0 0.01,0.01" />
      <path
         id="path262"
         transform="translate(6.5137,36.624)"
         d="M 0,0 0.01,0.01" />
      <path
         id="path264"
         transform="translate(11.8994,36.624)"
         d="M 0,0 0.01,0.01" />
      <path
         id="path266"
         transform="translate(10.1045,36.624)"
         d="M 0,0 0.01,0.01" />
      <path
         id="path268"
         transform="translate(15.4912,36.624)"
         d="M 0,0 0.01,0.01" />
      <path
         id="path270"
         transform="translate(13.6953,36.624)"
         d="M 0,0 0.01,0.01" />
      <path
         id="path272"
         transform="translate(19.082,36.624)"
         d="M 0,0 0.01,0.01" />
      <path
         id="path274"
         transform="translate(17.2861,36.624)"
         d="M 0,0 0.01,0.01" />
      <path
         id="path276"
         transform="translate(22.6787,36.624)"
         d="M 0,0 0.01,0.01" />
      <path
         id="path278"
         transform="translate(20.8828,36.624)"
         d="M 0,0 0.01,0.01" />
      <path
         id="path280"
         transform="translate(26.2695,36.624)"
         d="M 0,0 0.01,0.01" />
      <path
         id="path282"
         transform="translate(24.4736,36.624)"
         d="M 0,0 0.01,0.01" />
      <path
         id="path284"
         transform="translate(29.8555,36.624)"
         d="M 0,0 0.01,0.01" />
      <path
         id="path286"
         transform="translate(28.0596,36.624)"
         d="M 0,0 0.01,0.01" />
      <path
         id="path288"
         transform="translate(33.4463,36.624)"
         d="M 0,0 0.01,0.01" />
      <path
         id="path290"
         transform="translate(31.6504,36.624)"
         d="M 0,0 0.01,0.01" />
      <path
         id="path292"
         transform="translate(37.042,36.624)"
         d="M 0,0 0.01,0.01" />
      <path
         id="path294"
         transform="translate(35.2471,36.624)"
         d="M 0,0 0.01,0.01" />
      <path
         id="path296"
         transform="translate(40.6338,36.624)"
         d="M 0,0 0.01,0.01" />
      <path
         id="path298"
         transform="translate(38.8379,36.624)"
         d="M 0,0 0.01,0.01" />
      <path
         id="path300"
         transform="translate(44.2246,36.624)"
         d="M 0,0 0.01,0.01" />
      <path
         id="path302"
         transform="translate(42.4287,36.624)"
         d="M 0,0 0.01,0.01" />
      <path
         id="path304"
         transform="translate(46.0205,36.624)"
         d="M 0,0 0.01,0.01" />
      <path
         id="path306"
         transform="translate(1.1211,30.9292)"
         d="M 0,0 0.01,0.01" />
      <path
         id="path308"
         transform="translate(4.7129,30.9292)"
         d="M 0,0 0.01,0.01" />
      <path
         id="path310"
         transform="translate(2.917,30.9292)"
         d="M 0,0 0.01,0.01" />
      <path
         id="path312"
         transform="translate(8.3086,30.9292)"
         d="M 0,0 0.01,0.01" />
      <path
         id="path314"
         transform="translate(6.5137,30.9292)"
         d="M 0,0 0.01,0.01" />
      <path
         id="path316"
         transform="translate(11.8994,30.9292)"
         d="M 0,0 0.01,0.01" />
      <path
         id="path318"
         transform="translate(10.1045,30.9292)"
         d="M 0,0 0.01,0.01" />
      <path
         id="path320"
         transform="translate(15.4912,30.9292)"
         d="M 0,0 0.01,0.01" />
      <path
         id="path322"
         transform="translate(13.6953,30.9292)"
         d="M 0,0 0.01,0.01" />
      <path
         id="path324"
         transform="translate(19.082,30.9292)"
         d="M 0,0 0.01,0.01" />
      <path
         id="path326"
         transform="translate(17.2861,30.9292)"
         d="M 0,0 0.01,0.01" />
      <path
         id="path328"
         transform="translate(22.6787,30.9292)"
         d="M 0,0 0.01,0.01" />
      <path
         id="path330"
         transform="translate(20.8828,30.9292)"
         d="M 0,0 0.01,0.01" />
      <path
         id="path332"
         transform="translate(26.2695,30.9292)"
         d="M 0,0 0.01,0.01" />
      <path
         id="path334"
         transform="translate(24.4736,30.9292)"
         d="M 0,0 0.01,0.01" />
      <path
         id="path336"
         transform="translate(29.8555,30.9292)"
         d="M 0,0 0.01,0.01" />
      <path
         id="path338"
         transform="translate(28.0596,30.9292)"
         d="M 0,0 0.01,0.01" />
      <path
         id="path340"
         transform="translate(33.4463,30.9292)"
         d="M 0,0 0.01,0.01" />
      <path
         id="path342"
         transform="translate(31.6504,30.9292)"
         d="M 0,0 0.01,0.01" />
      <path
         id="path344"
         transform="translate(37.042,30.9292)"
         d="M 0,0 0.01,0.01" />
      <path
         id="path346"
         transform="translate(35.2471,30.9292)"
         d="M 0,0 0.01,0.01" />
      <path
         id="path348"
         transform="translate(40.6338,30.9292)"
         d="M 0,0 0.01,0.01" />
      <path
         id="path350"
         transform="translate(38.8379,30.9292)"
         d="M 0,0 0.01,0.01" />
      <path
         id="path352"
         transform="translate(44.2246,30.9292)"
         d="M 0,0 0.01,0.01" />
      <path
         id="path354"
         transform="translate(42.4287,30.9292)"
         d="M 0,0 0.01,0.01" />
      <path
         id="path356"
         transform="translate(46.0205,30.9292)"
         d="M 0,0 0.01,0.01" />
      <path
         id="path358"
         transform="translate(1.1211,25.0439)"
         d="M 0,0 0.01,0.01" />
      <path
         id="path360"
         transform="translate(4.7129,25.0439)"
         d="M 0,0 0.01,0.01" />
      <path
         id="path362"
         transform="translate(2.917,25.0439)"
         d="M 0,0 0.01,0.01" />
      <path
         id="path364"
         transform="translate(8.3086,25.0439)"
         d="M 0,0 0.01,0.01" />
      <path
         id="path366"
         transform="translate(6.5137,25.0439)"
         d="M 0,0 0.01,0.01" />
      <path
         id="path368"
         transform="translate(11.8994,25.0439)"
         d="M 0,0 0.01,0.01" />
      <path
         id="path370"
         transform="translate(10.1045,25.0439)"
         d="M 0,0 0.01,0.01" />
      <path
         id="path372"
         transform="translate(15.4912,25.0439)"
         d="M 0,0 0.01,0.01" />
      <path
         id="path374"
         transform="translate(13.6953,25.0439)"
         d="M 0,0 0.01,0.01" />
      <path
         id="path376"
         transform="translate(19.082,25.0439)"
         d="M 0,0 0.01,0.01" />
      <path
         id="path378"
         transform="translate(17.2861,25.0439)"
         d="M 0,0 0.01,0.01" />
      <path
         id="path380"
         transform="translate(22.6787,25.0439)"
         d="M 0,0 0.01,0.01" />
      <path
         id="path382"
         transform="translate(20.8828,25.0439)"
         d="M 0,0 0.01,0.01" />
      <path
         id="path384"
         transform="translate(26.2695,25.0439)"
         d="M 0,0 0.01,0.01" />
      <path
         id="path386"
         transform="translate(24.4736,25.0439)"
         d="M 0,0 0.01,0.01" />
      <path
         id="path388"
         transform="translate(29.8555,25.0439)"
         d="M 0,0 0.01,0.01" />
      <path
         id="path390"
         transform="translate(28.0596,25.0439)"
         d="M 0,0 0.01,0.01" />
      <path
         id="path392"
         transform="translate(33.4463,25.0439)"
         d="M 0,0 0.01,0.01" />
      <path
         id="path394"
         transform="translate(31.6504,25.0439)"
         d="M 0,0 0.01,0.01" />
      <path
         id="path396"
         transform="translate(37.042,25.0439)"
         d="M 0,0 0.01,0.01" />
      <path
         id="path398"
         transform="translate(35.2471,25.0439)"
         d="M 0,0 0.01,0.01" />
      <path
         id="path400"
         transform="translate(40.6338,25.0439)"
         d="M 0,0 0.01,0.01" />
      <path
         id="path402"
         transform="translate(38.8379,25.0439)"
         d="M 0,0 0.01,0.01" />
      <path
         id="path404"
         transform="translate(44.2246,25.0439)"
         d="M 0,0 0.01,0.01" />
      <path
         id="path406"
         transform="translate(42.4287,25.0439)"
         d="M 0,0 0.01,0.01" />
      <path
         id="path408"
         transform="translate(46.0205,25.0439)"
         d="M 0,0 0.01,0.01" />
      <path
         id="path410"
         transform="translate(1.1211,19.2236)"
         d="M 0,0 0.01,0.01" />
      <path
         id="path412"
         transform="translate(4.7129,19.2236)"
         d="M 0,0 0.01,0.01" />
      <path
         id="path414"
         transform="translate(2.917,19.2236)"
         d="M 0,0 0.01,0.01" />
      <path
         id="path416"
         transform="translate(8.3086,19.2236)"
         d="M 0,0 0.01,0.01" />
      <path
         id="path418"
         transform="translate(6.5137,19.2236)"
         d="M 0,0 0.01,0.01" />
      <path
         id="path420"
         transform="translate(11.8994,19.2236)"
         d="M 0,0 0.01,0.01" />
      <path
         id="path422"
         transform="translate(10.1045,19.2236)"
         d="M 0,0 0.01,0.01" />
      <path
         id="path424"
         transform="translate(15.4912,19.2236)"
         d="M 0,0 0.01,0.01" />
      <path
         id="path426"
         transform="translate(13.6953,19.2236)"
         d="M 0,0 0.01,0.01" />
      <path
         id="path428"
         transform="translate(19.082,19.2236)"
         d="M 0,0 0.01,0.01" />
      <path
         id="path430"
         transform="translate(17.2861,19.2236)"
         d="M 0,0 0.01,0.01" />
      <path
         id="path432"
         transform="translate(22.6787,19.2236)"
         d="M 0,0 0.01,0.01" />
      <path
         id="path434"
         transform="translate(20.8828,19.2236)"
         d="M 0,0 0.01,0.01" />
      <path
         id="path436"
         transform="translate(26.2695,19.2236)"
         d="M 0,0 0.01,0.01" />
      <path
         id="path438"
         transform="translate(24.4736,19.2236)"
         d="M 0,0 0.01,0.01" />
      <path
         id="path440"
         transform="translate(29.8555,19.2236)"
         d="M 0,0 0.01,0.01" />
      <path
         id="path442"
         transform="translate(28.0596,19.2236)"
         d="M 0,0 0.01,0.01" />
      <path
         id="path444"
         transform="translate(33.4463,19.2236)"
         d="M 0,0 0.01,0.01" />
      <path
         id="path446"
         transform="translate(31.6504,19.2236)"
         d="M 0,0 0.01,0.01" />
      <path
         id="path448"
         transform="translate(37.042,19.2236)"
         d="M 0,0 0.01,0.01" />
      <path
         id="path450"
         transform="translate(35.2471,19.2236)"
         d="M 0,0 0.01,0.01" />
      <path
         id="path452"
         transform="translate(40.6338,19.2236)"
         d="M 0,0 0.01,0.01" />
      <path
         id="path454"
         transform="translate(38.8379,19.2236)"
         d="M 0,0 0.01,0.01" />
      <path
         id="path456"
         transform="translate(44.2246,19.2236)"
         d="M 0,0 0.01,0.01" />
      <path
         id="path458"
         transform="translate(42.4287,19.2236)"
         d="M 0,0 0.01,0.01" />
      <path
         id="path460"
         transform="translate(46.0205,19.2236)"
         d="M 0,0 0.01,0.01" />
      <path
         id="path462"
         transform="translate(1.1211,13.4639)"
         d="M 0,0 0.01,0.01" />
      <path
         id="path464"
         transform="translate(4.7129,13.4639)"
         d="M 0,0 0.01,0.01" />
      <path
         id="path466"
         transform="translate(2.917,13.4639)"
         d="M 0,0 0.01,0.01" />
      <path
         id="path468"
         transform="translate(8.3086,13.4639)"
         d="M 0,0 0.01,0.01" />
      <path
         id="path470"
         transform="translate(6.5137,13.4639)"
         d="M 0,0 0.01,0.01" />
      <path
         id="path472"
         transform="translate(11.8994,13.4639)"
         d="M 0,0 0.01,0.01" />
      <path
         id="path474"
         transform="translate(10.1045,13.4639)"
         d="M 0,0 0.01,0.01" />
      <path
         id="path476"
         transform="translate(15.4912,13.4639)"
         d="M 0,0 0.01,0.01" />
      <path
         id="path478"
         transform="translate(13.6953,13.4639)"
         d="M 0,0 0.01,0.01" />
      <path
         id="path480"
         transform="translate(19.082,13.4639)"
         d="M 0,0 0.01,0.01" />
      <path
         id="path482"
         transform="translate(17.2861,13.4639)"
         d="M 0,0 0.01,0.01" />
      <path
         id="path484"
         transform="translate(22.6787,13.4639)"
         d="M 0,0 0.01,0.01" />
      <path
         id="path486"
         transform="translate(20.8828,13.4639)"
         d="M 0,0 0.01,0.01" />
      <path
         id="path488"
         transform="translate(26.2695,13.4639)"
         d="M 0,0 0.01,0.01" />
      <path
         id="path490"
         transform="translate(24.4736,13.4639)"
         d="M 0,0 0.01,0.01" />
      <path
         id="path492"
         transform="translate(29.8555,13.4639)"
         d="M 0,0 0.01,0.01" />
      <path
         id="path494"
         transform="translate(28.0596,13.4639)"
         d="M 0,0 0.01,0.01" />
      <path
         id="path496"
         transform="translate(33.4463,13.4639)"
         d="M 0,0 0.01,0.01" />
      <path
         id="path498"
         transform="translate(31.6504,13.4639)"
         d="M 0,0 0.01,0.01" />
      <path
         id="path500"
         transform="translate(37.042,13.4639)"
         d="M 0,0 0.01,0.01" />
      <path
         id="path502"
         transform="translate(35.2471,13.4639)"
         d="M 0,0 0.01,0.01" />
      <path
         id="path504"
         transform="translate(40.6338,13.4639)"
         d="M 0,0 0.01,0.01" />
      <path
         id="path506"
         transform="translate(38.8379,13.4639)"
         d="M 0,0 0.01,0.01" />
      <path
         id="path508"
         transform="translate(44.2246,13.4639)"
         d="M 0,0 0.01,0.01" />
      <path
         id="path510"
         transform="translate(42.4287,13.4639)"
         d="M 0,0 0.01,0.01" />
      <path
         id="path512"
         transform="translate(46.0205,13.4639)"
         d="M 0,0 0.01,0.01" />
      <path
         id="path514"
         transform="translate(1.1211,7.5835)"
         d="M 0,0 0.01,0.01" />
      <path
         id="path516"
         transform="translate(4.7129,7.5835)"
         d="M 0,0 0.01,0.01" />
      <path
         id="path518"
         transform="translate(2.917,7.5835)"
         d="M 0,0 0.01,0.01" />
      <path
         id="path520"
         transform="translate(8.3086,7.5835)"
         d="M 0,0 0.01,0.01" />
      <path
         id="path522"
         transform="translate(6.5137,7.5835)"
         d="M 0,0 0.01,0.01" />
      <path
         id="path524"
         transform="translate(11.8994,7.5835)"
         d="M 0,0 0.01,0.01" />
      <path
         id="path526"
         transform="translate(10.1045,7.5835)"
         d="M 0,0 0.01,0.01" />
      <path
         id="path528"
         transform="translate(15.4912,7.5835)"
         d="M 0,0 0.01,0.01" />
      <path
         id="path530"
         transform="translate(13.6953,7.5835)"
         d="M 0,0 0.01,0.01" />
      <path
         id="path532"
         transform="translate(19.082,7.5835)"
         d="M 0,0 0.01,0.01" />
      <path
         id="path534"
         transform="translate(17.2861,7.5835)"
         d="M 0,0 0.01,0.01" />
      <path
         id="path536"
         transform="translate(22.6787,7.5835)"
         d="M 0,0 0.01,0.01" />
      <path
         id="path538"
         transform="translate(20.8828,7.5835)"
         d="M 0,0 0.01,0.01" />
      <path
         id="path540"
         transform="translate(26.2695,7.5835)"
         d="M 0,0 0.01,0.01" />
      <path
         id="path542"
         transform="translate(24.4736,7.5835)"
         d="M 0,0 0.01,0.01" />
      <path
         id="path544"
         transform="translate(29.8555,7.5835)"
         d="M 0,0 0.01,0.01" />
      <path
         id="path546"
         transform="translate(28.0596,7.5835)"
         d="M 0,0 0.01,0.01" />
      <path
         id="path548"
         transform="translate(33.4463,7.5835)"
         d="M 0,0 0.01,0.01" />
      <path
         id="path550"
         transform="translate(31.6504,7.5835)"
         d="M 0,0 0.01,0.01" />
      <path
         id="path552"
         transform="translate(37.042,7.5835)"
         d="M 0,0 0.01,0.01" />
      <path
         id="path554"
         transform="translate(35.2471,7.5835)"
         d="M 0,0 0.01,0.01" />
      <path
         id="path556"
         transform="translate(40.6338,7.5835)"
         d="M 0,0 0.01,0.01" />
      <path
         id="path558"
         transform="translate(38.8379,7.5835)"
         d="M 0,0 0.01,0.01" />
      <path
         id="path560"
         transform="translate(44.2246,7.5835)"
         d="M 0,0 0.01,0.01" />
      <path
         id="path562"
         transform="translate(42.4287,7.5835)"
         d="M 0,0 0.01,0.01" />
      <path
         id="path564"
         transform="translate(46.0205,7.5835)"
         d="M 0,0 0.01,0.01" />
      <path
         id="path566"
         transform="translate(1.1211,1.8237)"
         d="M 0,0 0.01,0.01" />
      <path
         id="path568"
         transform="translate(4.7129,1.8237)"
         d="M 0,0 0.01,0.01" />
      <path
         id="path570"
         transform="translate(2.917,1.8237)"
         d="M 0,0 0.01,0.01" />
      <path
         id="path572"
         transform="translate(8.3086,1.8237)"
         d="M 0,0 0.01,0.01" />
      <path
         id="path574"
         transform="translate(6.5137,1.8237)"
         d="M 0,0 0.01,0.01" />
      <path
         id="path576"
         transform="translate(11.8994,1.8237)"
         d="M 0,0 0.01,0.01" />
      <path
         id="path578"
         transform="translate(10.1045,1.8237)"
         d="M 0,0 0.01,0.01" />
      <path
         id="path580"
         transform="translate(15.4912,1.8237)"
         d="M 0,0 0.01,0.01" />
      <path
         id="path582"
         transform="translate(13.6953,1.8237)"
         d="M 0,0 0.01,0.01" />
      <path
         id="path584"
         transform="translate(19.082,1.8237)"
         d="M 0,0 0.01,0.01" />
      <path
         id="path586"
         transform="translate(17.2861,1.8237)"
         d="M 0,0 0.01,0.01" />
      <path
         id="path588"
         transform="translate(22.6787,1.8237)"
         d="M 0,0 0.01,0.01" />
      <path
         id="path590"
         transform="translate(20.8828,1.8237)"
         d="M 0,0 0.01,0.01" />
      <path
         id="path592"
         transform="translate(26.2695,1.8237)"
         d="M 0,0 0.01,0.01" />
      <path
         id="path594"
         transform="translate(24.4736,1.8237)"
         d="M 0,0 0.01,0.01" />
      <path
         id="path596"
         transform="translate(29.8555,1.8237)"
         d="M 0,0 0.01,0.01" />
      <path
         id="path598"
         transform="translate(28.0596,1.8237)"
         d="M 0,0 0.01,0.01" />
      <path
         id="path600"
         transform="translate(33.4463,1.8237)"
         d="M 0,0 0.01,0.01" />
      <path
         id="path602"
         transform="translate(31.6504,1.8237)"
         d="M 0,0 0.01,0.01" />
      <path
         id="path604"
         transform="translate(37.042,1.8237)"
         d="M 0,0 0.01,0.01" />
      <path
         id="path606"
         transform="translate(35.2471,1.8237)"
         d="M 0,0 0.01,0.01" />
      <path
         id="path608"
         transform="translate(40.6338,1.8237)"
         d="M 0,0 0.01,0.01" />
      <path
         id="path610"
         transform="translate(38.8379,1.8237)"
         d="M 0,0 0.01,0.01" />
      <path
         id="path612"
         transform="translate(44.2246,1.8237)"
         d="M 0,0 0.01,0.01" />
      <path
         id="path614"
         transform="translate(42.4287,1.8237)"
         d="M 0,0 0.01,0.01" />
      <path
         id="path616"
         transform="translate(46.0205,1.8237)"
         d="M 0,0 0.01,0.01" />
    </g>
  </g>
</svg>
