<?xml version="1.0" encoding="UTF-8" standalone="no"?>
<svg
   xmlns:dc="http://purl.org/dc/elements/1.1/"
   xmlns:cc="http://creativecommons.org/ns#"
   xmlns:rdf="http://www.w3.org/1999/02/22-rdf-syntax-ns#"
   xmlns:svg="http://www.w3.org/2000/svg"
   xmlns="http://www.w3.org/2000/svg"
   height="53.9775"
   width="53.9775"
   id="svg122"
   version="1.1">
  <defs
     id="defs126" />
  <metadata
     id="metadata2">citation: U.S. Geological Survey, 2006, FGDC Digital Cartographic Standard for Geologic Map Symbolization (PostScript Implementation): U.S. Geological Survey Techniques and Methods 11-A2 [pubs.usgs.gov/tm/2006/11A02/]. converted by CEC Geology LLC 2018 from the USGS lithologic gs converted to inkscape by the University of Otago.<rdf:RDF>
  <cc:Work
     rdf:about="">
    <dc:format>image/svg+xml</dc:format>
    <dc:type
       rdf:resource="http://purl.org/dc/dcmitype/StillImage" />
    <dc:title></dc:title>
  </cc:Work>
</rdf:RDF>
</metadata>
  <g
     stroke-width=".3"
     stroke="#231f20"
     fill="none"
     id="g120"
     width="53.9775"
     height="53.9775">
    <path
       id="path4"
       transform="translate(10.7275,43.125)"
       d="M 0,0 1.063,1" />
    <path
       id="path6"
       transform="translate(11.79,42.125)"
       d="M 0,0 -1.063,1" />
    <path
       id="path8"
       transform="translate(4.54,43.125)"
       d="M 0,0 H 6.188" />
    <path
       id="path10"
       transform="translate(18.832,29.396)"
       d="M 0,0 -1.063,-1" />
    <path
       id="path12"
       transform="translate(17.7695,28.396)"
       d="M 0,0 1.063,-1" />
    <path
       id="path14"
       transform="translate(11.582,28.396)"
       d="M 0,0 H 6.188" />
    <path
       id="path16"
       transform="translate(27.0195,11.875)"
       d="M 0,0 1.063,1" />
    <path
       id="path18"
       transform="translate(27.0195,11.875)"
       d="M 0,0 1.063,-1" />
    <path
       id="path20"
       transform="translate(20.832,11.875)"
       d="M 0,0 H 6.188" />
    <g
       id="g28"
       transform="translate(26.7275,1.521)">
      <path
         id="path22"
         d="M 0,0 1.063,-1" />
      <path
         id="path24"
         d="M 0,0 1.063,1" />
      <path
         id="path26"
         d="M 0,0 H -6.188" />
    </g>
    <path
       id="path30"
       transform="translate(51.499,13.0415)"
       d="M 0,0 -1.063,-1" />
    <path
       id="path32"
       transform="translate(50.4365,12.0415)"
       d="M 0,0 1.063,-1" />
    <path
       id="path34"
       transform="translate(50.4365,12.0415)"
       d="M 0,0 H -6.188" />
    <path
       id="path36"
       transform="translate(44.6445,2.5415)"
       d="M 0,0 1.063,-1" />
    <path
       id="path38"
       transform="translate(45.707,3.5415)"
       d="M 0,0 -1.063,-1" />
    <path
       id="path40"
       transform="translate(44.6445,2.5415)"
       d="M 0,0 H -6.188" />
    <path
       id="path42"
       transform="translate(8.9775,16.5625)"
       d="M 0,0 1.063,-1" />
    <path
       id="path44"
       transform="translate(8.9775,16.5625)"
       d="M 0,0 1.063,1" />
    <path
       id="path46"
       transform="translate(8.9775,16.5625)"
       d="M 0,0 H -6.188" />
    <path
       id="path48"
       transform="translate(28.915,38.354)"
       d="M 0,0 -1.063,-1" />
    <path
       id="path50"
       transform="translate(27.8525,37.354)"
       d="M 0,0 1.063,-1" />
    <path
       id="path52"
       transform="translate(21.665,37.354)"
       d="M 0,0 H 6.187" />
    <path
       id="path54"
       transform="translate(46.957,41.854)"
       d="M 0,0 -1.063,1" />
    <path
       id="path56"
       transform="translate(45.8945,42.854)"
       d="M 0,0 1.063,1" />
    <path
       id="path58"
       transform="translate(39.707,42.854)"
       d="M 0,0 H 6.188" />
    <path
       id="path60"
       transform="translate(42.7695,31.6875)"
       d="M 0,0 1.063,-1" />
    <path
       id="path62"
       transform="translate(42.7695,31.6875)"
       d="M 0,0 1.063,1" />
    <path
       id="path64"
       transform="translate(42.7695,31.6875)"
       d="M 0,0 H -6.188" />
    <path
       id="path66"
       transform="translate(2.4775,26.667)"
       d="M 0,0 -1.063,-1" />
    <path
       id="path68"
       transform="translate(1.415,25.667)"
       d="M 0,0 1.063,-1" />
    <path
       id="path70"
       transform="translate(0,25.667)"
       d="M 0,0 H 1.415" />
    <path
       id="path72"
       transform="translate(34.8525,21.0415)"
       d="M 0,0 1.063,-1" />
    <path
       id="path74"
       transform="translate(35.915,22.0415)"
       d="M 0,0 -1.063,-1" />
    <path
       id="path76"
       transform="translate(34.8525,21.0415)"
       d="M 0,0 H -6.188" />
    <path
       id="path78"
       transform="translate(50.8027,49.5)"
       d="M 0,0 0.978,-1" />
    <path
       id="path80"
       transform="translate(51.7803,50.5)"
       d="M 0,0 -0.978,-1" />
    <path
       id="path82"
       transform="translate(50.8027,49.5)"
       d="M 0,0 H -5.692" />
    <path
       id="path84"
       transform="translate(40.0791,49.4165)"
       d="M 0,0 H -5.692" />
    <path
       id="path86"
       transform="translate(29.3555,49.3335)"
       d="M 0,0 H -5.692" />
    <path
       id="path88"
       transform="translate(18.6318,49.25)"
       d="M 0,0 H -5.693" />
    <path
       id="path90"
       transform="translate(41.0566,50.4165)"
       d="M 0,0 -0.977,-1" />
    <path
       id="path92"
       transform="translate(40.0791,49.4165)"
       d="M 0,0 0.977,-1" />
    <path
       id="path94"
       transform="translate(30.333,50.3335)"
       d="M 0,0 -0.978,-1" />
    <path
       id="path96"
       transform="translate(29.3555,49.3335)"
       d="M 0,0 0.978,-1" />
    <path
       id="path98"
       transform="translate(19.6094,50.25)"
       d="M 0,0 -0.978,-1" />
    <path
       id="path100"
       transform="translate(18.6318,49.25)"
       d="M 0,0 0.978,-1" />
    <path
       id="path102"
       transform="translate(7.9082,49.1665)"
       d="M 0,0 0.977,-1" />
    <path
       id="path104"
       transform="translate(8.8848,50.1665)"
       d="M 0,0 -0.977,-1" />
    <path
       id="path106"
       transform="translate(7.9082,49.1665)"
       d="M 0,0 H -5.693" />
    <path
       id="path108"
       transform="translate(0,47.0625)"
       d="M 0,0 H 53.977" />
    <path
       id="path110"
       transform="translate(0,51.3125)"
       d="M 0,0 H 53.977" />
    <path
       id="path112"
       transform="translate(13.2275,6.521)"
       d="M 0,0 1.063,1" />
    <path
       id="path114"
       transform="translate(13.2275,6.521)"
       d="M 0,0 1.063,-1" />
    <path
       id="path116"
       transform="translate(13.2275,6.521)"
       d="M 0,0 H -6.188" />
    <path
       id="path118"
       transform="translate(49.2051,25.667)"
       d="M 0,0 H 4.772" />
  </g>
</svg>
