<?xml version="1.0" encoding="UTF-8" standalone="no"?>
<svg
   xmlns:dc="http://purl.org/dc/elements/1.1/"
   xmlns:cc="http://creativecommons.org/ns#"
   xmlns:rdf="http://www.w3.org/1999/02/22-rdf-syntax-ns#"
   xmlns:svg="http://www.w3.org/2000/svg"
   xmlns="http://www.w3.org/2000/svg"
   height="53.9775"
   width="53.9775"
   id="svg544"
   version="1.1">
  <defs
     id="defs548" />
  <metadata
     id="metadata2">citation: U.S. Geological Survey, 2006, FGDC Digital Cartographic Standard for Geologic Map Symbolization (PostScript Implementation): U.S. Geological Survey Techniques and Methods 11-A2 [pubs.usgs.gov/tm/2006/11A02/]. converted by CEC Geology LLC 2018 from the USGS lithologic gs converted to inkscape by the University of Otago.<rdf:RDF>
  <cc:Work
     rdf:about="">
    <dc:format>image/svg+xml</dc:format>
    <dc:type
       rdf:resource="http://purl.org/dc/dcmitype/StillImage" />
    <dc:title></dc:title>
  </cc:Work>
</rdf:RDF>
</metadata>
  <g
     transform="matrix(1,0,0,-1,0,53.9775)"
     id="g542"
     width="53.9775"
     height="53.9775">
    <g
       stroke-width="0.3"
	   fill="none"
	   stroke="param(outline) #231f20"
       id="g480">
      <path
         id="path4"
         transform="translate(30.0967,30.125)"
         d="M 0,0 3.754,3.75" />
      <path
         id="path6"
         transform="translate(8.3242,8.375)"
         d="M 0,0 21.772,21.75" />
      <path
         id="path8"
         transform="translate(37.3545,37.375)"
         d="M 0,0 -3.504,-3.5" />
      <path
         id="path10"
         transform="translate(52.7871,52.7915)"
         d="M 0,0 1.187,1.186" />
      <path
         id="path12"
         transform="translate(0,0.0596)"
         d="M 0,0 8.324,8.315" />
      <path
         id="path14"
         transform="translate(44.9668,44.979)"
         d="M 0,0 7.82,7.813" />
      <path
         id="path16"
         transform="translate(37.3545,37.375)"
         d="M 0,0 7.612,7.604" />
      <path
         id="path18"
         transform="translate(49.1895,52.7915)"
         d="M 0,0 1.188,1.186" />
      <path
         id="path20"
         transform="translate(37.3858,41)"
         d="M 0,0 -3.629,-3.625" />
      <path
         id="path22"
         transform="translate(4.7275,8.375)"
         d="M 0,0 -4.727,-4.723" />
      <path
         id="path24"
         transform="translate(37.3858,41)"
         d="M 0,0 11.804,11.792" />
      <path
         id="path26"
         transform="translate(4.7275,8.375)"
         d="M 0,0 21.773,21.75" />
      <path
         id="path28"
         transform="translate(33.7568,37.375)"
         d="M 0,0 -7.257,-7.25" />
      <path
         id="path30"
         transform="translate(33.7881,41)"
         d="M 0,0 8.009,8" />
      <path
         id="path32"
         transform="translate(33.7881,41)"
         d="M 0,0 -7.508,-7.5" />
      <path
         id="path34"
         transform="translate(41.7969,49)"
         d="M 0,0 4.982,4.978" />
      <path
         id="path36"
         transform="translate(8.1367,15.375)"
         d="M 0,0 -8.137,-8.128" />
      <path
         id="path38"
         transform="translate(8.1367,15.375)"
         d="M 0,0 18.144,18.125" />
      <path
         id="path40"
         transform="translate(0,10.8398)"
         d="M 0,0 11.297,11.285" />
      <path
         id="path42"
         transform="translate(11.2969,22.125)"
         d="M 0,0 4.004,4" />
      <path
         id="path44"
         transform="translate(38.1992,49)"
         d="M 0,0 4.982,4.978" />
      <path
         id="path46"
         transform="translate(22.6826,33.5)"
         d="M 0,0 11.638,11.625" />
      <path
         id="path48"
         transform="translate(34.3203,45.125)"
         d="M 0,0 3.879,3.875" />
      <path
         id="path50"
         transform="translate(22.6826,33.5)"
         d="M 0,0 -7.382,-7.375" />
      <path
         id="path52"
         transform="translate(15.207,29.625)"
         d="M 0,0 -3.504,-3.5" />
      <path
         id="path54"
         transform="translate(30.7227,45.125)"
         d="M 0,0 -15.516,-15.5" />
      <path
         id="path56"
         transform="translate(11.7031,26.125)"
         d="M 0,0 -4.004,-4" />
      <path
         id="path58"
         transform="translate(0,14.4341)"
         d="M 0,0 4.028,4.024" />
      <path
         id="path60"
         transform="translate(39.585,53.9775)"
         d="M 0,0 -4.983,-4.978" />
      <path
         id="path62"
         transform="translate(30.7227,45.125)"
         d="M 0,0 3.879,3.875" />
      <path
         id="path64"
         transform="translate(4.0283,18.458)"
         d="M 0,0 3.671,3.667" />
      <path
         id="path66"
         transform="translate(11.6094,29.625)"
         d="M 0,0 -11.179,-11.167" />
      <path
         id="path68"
         transform="translate(0,18.0278)"
         d="M 0,0 0.431,0.43" />
      <path
         id="path70"
         transform="translate(11.6094,29.625)"
         d="M 0,0 7.633,7.625" />
      <path
         id="path72"
         transform="translate(27.125,45.125)"
         d="M 0,0 8.862,8.853" />
      <path
         id="path74"
         transform="translate(19.2422,37.25)"
         d="M 0,0 7.883,7.875" />
      <path
         id="path76"
         transform="translate(15.6445,37.25)"
         d="M 0,0 12.012,12" />
      <path
         id="path78"
         transform="translate(15.6445,37.25)"
         d="M 0,0 -15.645,-15.628" />
      <path
         id="path80"
         transform="translate(27.6563,49.25)"
         d="M 0,0 4.732,4.728" />
      <path
         id="path82"
         transform="translate(19.5957,44.7915)"
         d="M 0,0 9.195,9.186" />
      <path
         id="path84"
         transform="translate(19.5957,44.7915)"
         d="M 0,0 -19.596,-19.576" />
      <path
         id="path86"
         transform="translate(4.5693,33.375)"
         d="M 0,0 -4.569,-4.564" />
      <path
         id="path88"
         transform="translate(4.5693,33.375)"
         d="M 0,0 11.429,11.417" />
      <path
         id="path90"
         transform="translate(15.9981,44.7915)"
         d="M 0,0 8.175,8.167" />
      <path
         id="path92"
         transform="translate(24.1729,52.958)"
         d="M 0,0 1.021,1.02" />
      <path
         id="path94"
         transform="translate(20.5752,52.958)"
         d="M 0,0 1.021,1.02" />
      <path
         id="path96"
         transform="translate(0,32.4043)"
         d="M 0,0 7.729,7.721" />
      <path
         id="path98"
         transform="translate(7.7285,40.125)"
         d="M 0,0 12.847,12.833" />
      <path
         id="path100"
         transform="translate(12.8477,48.833)"
         d="M 0,0 4.13,4.125" />
      <path
         id="path102"
         transform="translate(0,35.998)"
         d="M 0,0 4.131,4.127" />
      <path
         id="path104"
         transform="translate(16.9775,52.958)"
         d="M 0,0 1.021,1.02" />
      <path
         id="path106"
         transform="translate(12.8477,48.833)"
         d="M 0,0 -8.717,-8.708" />
      <path
         id="path108"
         transform="translate(4.5381,44.125)"
         d="M 0,0 9.863,9.853" />
      <path
         id="path110"
         transform="translate(0,39.5923)"
         d="M 0,0 4.538,4.533" />
      <path
         id="path112"
         transform="translate(0.9404,44.125)"
         d="M 0,0 9.863,9.853" />
      <path
         id="path114"
         transform="translate(0,43.1855)"
         d="M 0,0 0.94,0.939" />
      <path
         id="path116"
         transform="translate(7.2061,53.9775)"
         d="M 0,0 -7.206,-7.198" />
      <path
         id="path118"
         transform="translate(0,50.373)"
         d="M 0,0 3.608,3.605" />
      <path
         id="path120"
         transform="translate(25.6885,22.125)"
         d="M 0,0 -3.379,-3.375" />
      <path
         id="path122"
         transform="translate(15.1768,11.625)"
         d="M 0,0 -11.637,-11.625" />
      <path
         id="path124"
         transform="translate(15.1768,11.625)"
         d="M 0,0 7.133,7.125" />
      <path
         id="path126"
         transform="translate(40.9541,37.375)"
         d="M 0,0 -11.512,-11.5" />
      <path
         id="path128"
         transform="translate(29.4424,25.875)"
         d="M 0,0 -3.754,-3.75" />
      <path
         id="path130"
         transform="translate(40.9541,37.375)"
         d="M 0,0 13.023,13.01" />
      <path
         id="path132"
         transform="translate(18.7764,11.625)"
         d="M 0,0 3.754,3.75" />
      <path
         id="path134"
         transform="translate(53.9775,46.7895)"
         d="M 0,0 -2.667,-2.665" />
      <path
         id="path136"
         transform="translate(33.041,25.875)"
         d="M 0,0 15.141,15.125" />
      <path
         id="path138"
         transform="translate(25.9082,18.75)"
         d="M 0,0 -3.378,-3.375" />
      <path
         id="path140"
         transform="translate(48.1817,41)"
         d="M 0,0 3.129,3.125" />
      <path
         id="path142"
         transform="translate(18.7764,11.625)"
         d="M 0,0 -11.638,-11.625" />
      <path
         id="path144"
         transform="translate(33.041,25.875)"
         d="M 0,0 -7.133,-7.125" />
      <path
         id="path146"
         transform="translate(22.376,11.625)"
         d="M 0,0 7.132,7.125" />
      <path
         id="path148"
         transform="translate(36.6406,25.875)"
         d="M 0,0 7.758,7.75" />
      <path
         id="path150"
         transform="translate(22.376,11.625)"
         d="M 0,0 -8.759,-8.75" />
      <path
         id="path152"
         transform="translate(53.9775,43.1938)"
         d="M 0,0 -2.196,-2.194" />
      <path
         id="path154"
         transform="translate(36.6406,25.875)"
         d="M 0,0 -7.133,-7.125" />
      <path
         id="path156"
         transform="translate(44.3984,33.625)"
         d="M 0,0 7.383,7.375" />
      <path
         id="path158"
         transform="translate(10.7383)"
         d="M 0,0 2.879,2.875" />
      <path
         id="path160"
         transform="translate(23.0977,8.75)"
         d="M 0,0 -5.882,-5.875" />
      <path
         id="path162"
         transform="translate(44.4942,30.125)"
         d="M 0,0 -21.396,-21.375" />
      <path
         id="path164"
         transform="translate(14.3379)"
         d="M 0,0 2.878,2.875" />
      <path
         id="path166"
         transform="translate(44.4942,30.125)"
         d="M 0,0 3.504,3.5" />
      <path
         id="path168"
         transform="translate(47.9981,33.625)"
         d="M 0,0 5.979,5.973" />
      <path
         id="path170"
         transform="translate(48.0938,30.125)"
         d="M 0,0 5.884,5.877" />
      <path
         id="path172"
         transform="translate(48.0938,30.125)"
         d="M 0,0 -7.508,-7.5" />
      <path
         id="path174"
         transform="translate(17.9375)"
         d="M 0,0 2.878,2.875" />
      <path
         id="path176"
         transform="translate(40.5859,22.625)"
         d="M 0,0 -13.89,-13.875" />
      <path
         id="path178"
         transform="translate(26.6963,8.75)"
         d="M 0,0 -5.881,-5.875" />
      <path
         id="path180"
         transform="translate(44.1856,22.625)"
         d="M 0,0 3.504,3.5" />
      <path
         id="path182"
         transform="translate(53.9775,32.4072)"
         d="M 0,0 -6.288,-6.282" />
      <path
         id="path184"
         transform="translate(30.2959,8.75)"
         d="M 0,0 -8.759,-8.75" />
      <path
         id="path186"
         transform="translate(44.1856,22.625)"
         d="M 0,0 -13.89,-13.875" />
      <path
         id="path188"
         transform="translate(51.2891,26.125)"
         d="M 0,0 2.688,2.686" />
      <path
         id="path190"
         transform="translate(37.0244,11.875)"
         d="M 0,0 6.882,6.875" />
      <path
         id="path192"
         transform="translate(51.2891,26.125)"
         d="M 0,0 -7.383,-7.375" />
      <path
         id="path194"
         transform="translate(37.0244,11.875)"
         d="M 0,0 -11.888,-11.875" />
      <path
         id="path196"
         transform="translate(53.9775,25.2148)"
         d="M 0,0 -9.725,-9.715" />
      <path
         id="path198"
         transform="translate(28.7363)"
         d="M 0,0 6.257,6.25" />
      <path
         id="path200"
         transform="translate(44.2529,15.5)"
         d="M 0,0 -9.26,-9.25" />
      <path
         id="path202"
         transform="translate(53.9775,21.6191)"
         d="M 0,0 -15.385,-15.369" />
      <path
         id="path204"
         transform="translate(32.3359)"
         d="M 0,0 6.257,6.25" />
      <path
         id="path206"
         transform="translate(47.8223,11.875)"
         d="M 0,0 -5.631,-5.625" />
      <path
         id="path208"
         transform="translate(35.9356)"
         d="M 0,0 6.256,6.25" />
      <path
         id="path210"
         transform="translate(53.9775,18.0234)"
         d="M 0,0 -6.155,-6.148" />
      <path
         id="path212"
         transform="translate(51.4219,11.875)"
         d="M 0,0 2.556,2.553" />
      <path
         id="path214"
         transform="translate(39.5352)"
         d="M 0,0 3.003,3" />
      <path
         id="path216"
         transform="translate(51.4219,11.875)"
         d="M 0,0 -8.884,-8.875" />
      <path
         id="path218"
         transform="translate(53.9775,10.8315)"
         d="M 0,0 -7.84,-7.831" />
      <path
         id="path220"
         transform="translate(46.1377,3)"
         d="M 0,0 -3.004,-3" />
      <path
         id="path222"
         transform="translate(53.9775,7.2363)"
         d="M 0,0 -7.244,-7.236" />
      <path
         id="path224"
         transform="translate(53.9775,3.6411)"
         d="M 0,0 -3.644,-3.641" />
      <path
         id="path226"
         transform="translate(7.7285,40.125)"
         d="M 0,0 H -3.598" />
      <path
         id="path228"
         transform="translate(11.2285,40.125)"
         d="M 0,0 H -3.5" />
      <path
         id="path230"
         transform="translate(4.1309,40.125)"
         d="M 0,0 H -0.652" />
      <path
         id="path232"
         transform="translate(22.6826,33.5)"
         d="M 0,0 H -3.579" />
      <path
         id="path234"
         transform="translate(26.2803,33.5)"
         d="M 0,0 H -3.598" />
      <path
         id="path236"
         transform="translate(26.2803,33.5)"
         d="M 0,0 H 0.573" />
      <path
         id="path238"
         transform="translate(29.4424,25.875)"
         d="M 0,0 H 3.599" />
      <path
         id="path240"
         transform="translate(36.6406,25.875)"
         d="M 0,0 H 0.213" />
      <path
         id="path242"
         transform="translate(33.041,25.875)"
         d="M 0,0 H 3.6" />
      <path
         id="path244"
         transform="translate(29.1035,25.875)"
         d="M 0,0 H 0.339" />
      <path
         id="path246"
         transform="translate(11.6094,29.625)"
         d="M 0,0 H 3.598" />
      <path
         id="path248"
         transform="translate(15.207,29.625)"
         d="M 0,0 H 0.646" />
      <path
         id="path250"
         transform="translate(11.6094,29.625)"
         d="M 0,0 H -3.506" />
      <path
         id="path252"
         transform="translate(0,18.458)"
         d="M 0,0 H 0.431" />
      <path
         id="path254"
         transform="translate(4.0283,18.458)"
         d="M 0,0 H 0.616" />
      <path
         id="path256"
         transform="translate(0.4307,18.458)"
         d="M 0,0 H 3.598" />
      <path
         id="path258"
         transform="translate(15.6445,37.25)"
         d="M 0,0 H -2.041" />
      <path
         id="path260"
         transform="translate(21.9785,37.25)"
         d="M 0,0 H -2.736" />
      <path
         id="path262"
         transform="translate(19.2422,37.25)"
         d="M 0,0 H -3.598" />
      <path
         id="path264"
         transform="translate(33.7881,41)"
         d="M 0,0 H -1.685" />
      <path
         id="path266"
         transform="translate(39.4785,41)"
         d="M 0,0 H -2.093" />
      <path
         id="path268"
         transform="translate(37.3858,41)"
         d="M 0,0 H -3.598" />
      <path
         id="path270"
         transform="translate(19.5957,44.7915)"
         d="M 0,0 H -3.598" />
      <path
         id="path272"
         transform="translate(15.9981,44.7915)"
         d="M 0,0 H -3.354" />
      <path
         id="path274"
         transform="translate(20.0195,44.7915)"
         d="M 0,0 H -0.424" />
      <path
         id="path276"
         transform="translate(48.1817,41)"
         d="M 0,0 H 3.6" />
      <path
         id="path278"
         transform="translate(45.2285,41)"
         d="M 0,0 H 2.953" />
      <path
         id="path280"
         transform="translate(51.7813,41)"
         d="M 0,0 H 0.322" />
      <path
         id="path282"
         transform="translate(32.9785,37.375)"
         d="M 0,0 H 0.778" />
      <path
         id="path284"
         transform="translate(40.9541,37.375)"
         d="M 0,0 H -3.6" />
      <path
         id="path286"
         transform="translate(37.3545,37.375)"
         d="M 0,0 H -3.598" />
      <path
         id="path288"
         transform="translate(42.1035,37.375)"
         d="M 0,0 H -1.149" />
      <path
         id="path290"
         transform="translate(4.5693,33.375)"
         d="M 0,0 H -2.966" />
      <path
         id="path292"
         transform="translate(6.6035,33.375)"
         d="M 0,0 H -2.034" />
      <path
         id="path294"
         transform="translate(33.8506,33.875)"
         d="M 0,0 H -1.872" />
      <path
         id="path296"
         transform="translate(33.8506,33.875)"
         d="M 0,0 H 2.128" />
      <path
         id="path298"
         transform="translate(47.1865,44.979)"
         d="M 0,0 H -2.22" />
      <path
         id="path300"
         transform="translate(44.9668,44.979)"
         d="M 0,0 H -1.78" />
      <path
         id="path302"
         transform="translate(52.9365,52.7915)"
         d="M 0,0 H -0.149" />
      <path
         id="path304"
         transform="translate(48.9365,52.7915)"
         d="M 0,0 H 0.253" />
      <path
         id="path306"
         transform="translate(52.7871,52.7915)"
         d="M 0,0 H -3.598" />
      <path
         id="path308"
         transform="translate(47.9981,33.625)"
         d="M 0,0 H 2.855" />
      <path
         id="path310"
         transform="translate(44.3984,33.625)"
         d="M 0,0 H -2.045" />
      <path
         id="path312"
         transform="translate(44.3984,33.625)"
         d="M 0,0 H 3.6" />
      <path
         id="path314"
         transform="translate(30.0967,30.125)"
         d="M 0,0 H 2.257" />
      <path
         id="path316"
         transform="translate(26.5,30.125)"
         d="M 0,0 H -2.021" />
      <path
         id="path318"
         transform="translate(30.0967,30.125)"
         d="M 0,0 H -3.597" />
      <path
         id="path320"
         transform="translate(48.0938,30.125)"
         d="M 0,0 H 1.76" />
      <path
         id="path322"
         transform="translate(44.4942,30.125)"
         d="M 0,0 H -1.516" />
      <path
         id="path324"
         transform="translate(44.4942,30.125)"
         d="M 0,0 H 3.6" />
      <path
         id="path326"
         transform="translate(47.6895,26.125)"
         d="M 0,0 H 3.6" />
      <path
         id="path328"
         transform="translate(47.6895,26.125)"
         d="M 0,0 H -0.211" />
      <path
         id="path330"
         transform="translate(51.2891,26.125)"
         d="M 0,0 H 2.064" />
      <path
         id="path332"
         transform="translate(10.4785,26.125)"
         d="M 0,0 H 1.225" />
      <path
         id="path334"
         transform="translate(15.3008,26.125)"
         d="M 0,0 H -3.598" />
      <path
         id="path336"
         transform="translate(15.3008,26.125)"
         d="M 0,0 H 1.553" />
      <path
         id="path338"
         transform="translate(12.8477,48.833)"
         d="M 0,0 H -2.828" />
      <path
         id="path340"
         transform="translate(16.3945,48.833)"
         d="M 0,0 H -3.547" />
      <path
         id="path342"
         transform="translate(11.7285,22.125)"
         d="M 0,0 H -0.432" />
      <path
         id="path344"
         transform="translate(11.2969,22.125)"
         d="M 0,0 H -3.598" />
      <path
         id="path346"
         transform="translate(7.6992,22.125)"
         d="M 0,0 H -3.346" />
      <path
         id="path348"
         transform="translate(24.2285,22.125)"
         d="M 0,0 H 1.46" />
      <path
         id="path350"
         transform="translate(25.6885,22.125)"
         d="M 0,0 H 2.04" />
      <path
         id="path352"
         transform="translate(40.5859,22.625)"
         d="M 0,0 H 3.6" />
      <path
         id="path354"
         transform="translate(44.1856,22.625)"
         d="M 0,0 H 1.793" />
      <path
         id="path356"
         transform="translate(38.9785,22.625)"
         d="M 0,0 H 1.607" />
      <path
         id="path358"
         transform="translate(43.9063,18.75)"
         d="M 0,0 H 0.947" />
      <path
         id="path360"
         transform="translate(41.7285,18.75)"
         d="M 0,0 H 2.178" />
      <path
         id="path362"
         transform="translate(29.5078,18.75)"
         d="M 0,0 H -3.6" />
      <path
         id="path364"
         transform="translate(22.3096,18.75)"
         d="M 0,0 H -0.081" />
      <path
         id="path366"
         transform="translate(22.3096,18.75)"
         d="M 0,0 H 3.599" />
      <path
         id="path368"
         transform="translate(29.5078,18.75)"
         d="M 0,0 H 1.096" />
      <path
         id="path370"
         transform="translate(0,44.125)"
         d="M 0,0 H 0.94" />
      <path
         id="path372"
         transform="translate(0.9404,44.125)"
         d="M 0,0 H 3.598" />
      <path
         id="path374"
         transform="translate(5.6865,44.125)"
         d="M 0,0 H -1.148" />
      <path
         id="path376"
         transform="translate(8.1367,15.375)"
         d="M 0,0 H -0.408" />
      <path
         id="path378"
         transform="translate(10.8535,15.375)"
         d="M 0,0 H -2.717" />
      <path
         id="path380"
         transform="translate(22.5303,15.375)"
         d="M 0,0 H -3.552" />
      <path
         id="path382"
         transform="translate(22.5303,15.375)"
         d="M 0,0 H 3.073" />
      <path
         id="path384"
         transform="translate(44.2529,15.5)"
         d="M 0,0 H 0.351" />
      <path
         id="path386"
         transform="translate(41.2285,15.5)"
         d="M 0,0 H 3.024" />
      <path
         id="path388"
         transform="translate(27.6563,49.25)"
         d="M 0,0 H 2.447" />
      <path
         id="path390"
         transform="translate(26.7285,49.25)"
         d="M 0,0 H 0.928" />
      <path
         id="path392"
         transform="translate(12.1035,11.625)"
         d="M 0,0 H 2.125" />
      <path
         id="path394"
         transform="translate(22.376,11.625)"
         d="M 0,0 H 0.602" />
      <path
         id="path396"
         transform="translate(22.376,11.625)"
         d="M 0,0 H -0.398" />
      <path
         id="path398"
         transform="translate(14.2285,11.625)"
         d="M 0,0 H 0.948" />
      <path
         id="path400"
         transform="translate(18.7764,11.625)"
         d="M 0,0 H 3.202" />
      <path
         id="path402"
         transform="translate(15.1768,11.625)"
         d="M 0,0 H 3.6" />
      <path
         id="path404"
         transform="translate(41.7969,49)"
         d="M 0,0 H -3.598" />
      <path
         id="path406"
         transform="translate(34.6016,49)"
         d="M 0,0 H 3.598" />
      <path
         id="path408"
         transform="translate(34.6016,49)"
         d="M 0,0 H -1.457" />
      <path
         id="path410"
         transform="translate(44.0195,49)"
         d="M 0,0 H -2.223" />
      <path
         id="path412"
         transform="translate(16.9775,52.958)"
         d="M 0,0 H -1.124" />
      <path
         id="path414"
         transform="translate(24.1729,52.958)"
         d="M 0,0 H -3.598" />
      <path
         id="path416"
         transform="translate(26.7285,52.958)"
         d="M 0,0 H -2.556" />
      <path
         id="path418"
         transform="translate(16.9775,52.958)"
         d="M 0,0 H 3.598" />
      <path
         id="path420"
         transform="translate(34.4785,11.875)"
         d="M 0,0 H 2.546" />
      <path
         id="path422"
         transform="translate(37.0244,11.875)"
         d="M 0,0 H 1.829" />
      <path
         id="path424"
         transform="translate(51.4219,11.875)"
         d="M 0,0 H -3.6" />
      <path
         id="path426"
         transform="translate(47.3535,11.875)"
         d="M 0,0 H 0.469" />
      <path
         id="path428"
         transform="translate(51.8535,11.875)"
         d="M 0,0 H -0.432" />
      <path
         id="path430"
         transform="translate(42.1914,6.25)"
         d="M 0,0 H -3.599" />
      <path
         id="path432"
         transform="translate(42.1914,6.25)"
         d="M 0,0 H 0.912" />
      <path
         id="path434"
         transform="translate(34.9932,6.25)"
         d="M 0,0 H 3.6" />
      <path
         id="path436"
         transform="translate(34.9932,6.25)"
         d="M 0,0 H -0.515" />
      <path
         id="path438"
         transform="translate(27.125,45.125)"
         d="M 0,0 H -1.105" />
      <path
         id="path440"
         transform="translate(27.125,45.125)"
         d="M 0,0 H 3.598" />
      <path
         id="path442"
         transform="translate(34.3203,45.125)"
         d="M 0,0 H -3.598" />
      <path
         id="path444"
         transform="translate(34.3203,45.125)"
         d="M 0,0 H 0.324" />
      <path
         id="path446"
         transform="translate(26.6963,8.75)"
         d="M 0,0 H 3.6" />
      <path
         id="path448"
         transform="translate(30.2959,8.75)"
         d="M 0,0 H 0.808" />
      <path
         id="path450"
         transform="translate(23.0977,8.75)"
         d="M 0,0 H -1.869" />
      <path
         id="path452"
         transform="translate(26.6963,8.75)"
         d="M 0,0 H -3.599" />
      <path
         id="path454"
         transform="translate(4.7275,8.375)"
         d="M 0,0 H -2.249" />
      <path
         id="path456"
         transform="translate(8.3242,8.375)"
         d="M 0,0 H -3.597" />
      <path
         id="path458"
         transform="translate(10.9785,8.375)"
         d="M 0,0 H -2.654" />
      <path
         id="path460"
         transform="translate(13.6172,2.875)"
         d="M 0,0 H -0.014" />
      <path
         id="path462"
         transform="translate(13.6172,2.875)"
         d="M 0,0 H 3.599" />
      <path
         id="path464"
         transform="translate(20.8154,2.875)"
         d="M 0,0 H 0.913" />
      <path
         id="path466"
         transform="translate(20.8154,2.875)"
         d="M 0,0 H -3.6" />
      <path
         id="path468"
         transform="translate(42.5381,3)"
         d="M 0,0 H -0.31" />
      <path
         id="path470"
         transform="translate(48.6035,3)"
         d="M 0,0 H -2.466" />
      <path
         id="path472"
         transform="translate(46.1377,3)"
         d="M 0,0 H -3.6" />
      <path
         id="path474"
         transform="translate(53.9775,18.458)"
         d="M 0,0 H -3.105" />
      <path
         id="path476"
         transform="translate(51.3106,44.125)"
         d="M 0,0 H 2.667" />
      <path
         id="path478"
         transform="translate(51.3106,44.125)"
         d="M 0,0 H -0.021" />
    </g>
    <path
       style="fill:#231f20"
       id="path482"
       transform="translate(9.916,33.375)"
       d="M 0,0 2.25,1 2,2 1.25,2.125 0.375,3 1,3.875 -0.75,5.375 -5,4.5 l 1.125,-2 c 0,0 0,-0.125 1.125,0.375 1.125,0.5 1.125,-1.5 1.125,-1.5 l 1,0.125 z" />
    <path
       style="fill:#231f20"
       id="path484"
       transform="translate(24.7285,39.125)"
       d="m 0,0 c 2.75,-1 1.125,-2.375 1.125,-2.375 l 0.5,-0.5 c 0.625,0 1.25,-2 1.25,-2 L 4.5,-4 l -0.25,0.625 1.5,1.5 -0.625,0.5 L 5.75,-0.75 2,0.75 Z" />
    <path
       style="fill:#231f20"
       id="path486"
       transform="translate(22.3115,30.5811)"
       d="M 0,0 C 0.256,0.009 0.417,0.044 0.417,0.044 0.27,0.044 0.132,0.027 0,0" />
    <path
       style="fill:#231f20"
       id="path488"
       transform="translate(22.3115,30.5811)"
       d="m 0,0 c -0.588,-0.023 -1.675,0.086 -2.458,1.044 -1.125,-0.875 -2.125,-1.125 -3.375,-1 l 4.125,-1.375 c 0,0 0.6,1.097 1.708,1.331" />
    <path
       style="fill:#231f20"
       id="path490"
       transform="translate(43.8535,37.2256)"
       d="m 0,0 5.625,-1.125 c -0.375,0.75 -0.5,0.875 -0.25,1.5 C 5.625,1 6.125,1 6.125,1 6.125,1 5.625,2 4.75,1.875 3.875,1.75 3.5,1.75 3.125,2.625 2.75,3.5 2,2.75 2.125,2 2.25,1.25 1.5,0.75 0,0" />
    <path
       style="fill:#231f20"
       id="path492"
       transform="translate(36.4785,29.625)"
       d="m 0,0 1.375,1.5 c 0,0 1.25,-0.125 1.875,-0.375 C 3.875,0.875 4.75,0.875 4,1.25 3.25,1.625 3.375,2.625 3.375,2.625 2.25,2.375 1.125,3 1.25,4 0.625,3 0.125,2.75 0.125,2.75 L -2.5,2 Z" />
    <path
       style="fill:#231f20"
       id="path494"
       transform="translate(40.9785,25.375)"
       d="m 0,0 c 1.875,-1.5 4.75,-1.625 4.75,-1.625 l 1.875,0.125 -1.75,0.625 v 0.625 l -1.5,1.625 C 2.25,-0.375 0,0 0,0" />
    <path
       style="fill:#231f20"
       id="path496"
       transform="translate(35.9785,21.875)"
       d="m 0,0 -1.25,2 c 0,0 -1.125,-0.875 -1.875,0.125 C -3.875,3.125 -5,3.25 -5,3.25 l -0.25,-1.375 -1.625,-0.5 c 0,0 0.625,-0.625 1.375,-0.625 0.75,0 0.875,-1.125 0.875,-1.125 0,0 2.5,1.875 4.625,0.375" />
    <path
       style="fill:#231f20"
       id="path498"
       transform="translate(18.9785,21.5)"
       d="m 0,0 c 0,0 2,-1 2.625,1.625 1.375,1 1.125,1.5 0.5,1.75 C 2.5,3.625 2,4.25 2,4.25 2,4.25 2.375,3.5 1.375,3.5 0.375,3.5 -0.625,3.375 0,2.625 0.625,1.875 0.125,1.125 -0.125,1 -0.375,0.875 0,0 0,0" />
    <path
       style="fill:#231f20"
       id="path500"
       transform="translate(3.8525,25.375)"
       d="m 0,0 c 0,0 1.25,-0.5 1.5,-1.125 0.25,-0.625 -0.125,0.25 1.125,0.5 1.25,0.25 1.875,1 1.875,1 L 3.5,1.5 2,2.125 Z" />
    <path
       style="fill:#231f20"
       id="path502"
       transform="translate(11.999,18.208)"
       d="m 0,0 c 0,0 0.75,-0.875 1,-1.5 0.625,0.375 2.125,-0.75 2.125,-0.75 -0.5,1.875 0.625,1.375 0.625,1.375 0,0 0,2.625 -0.5,1.625 C 2.75,-0.25 0,0 0,0" />
    <path
       style="fill:#231f20"
       id="path504"
       transform="translate(1.7285,13.75)"
       d="m 0,0 c 0,0 3.25,-1 4,-2 0.875,0.625 2.25,1 2.25,1 0,0 -0.125,0.375 -0.875,0.625 -0.75,0.25 -1.375,0.625 -0.75,2 -1.5,-0.125 -2.25,0.75 -2.25,0.75 l -1,0.125 c 0,0 0.75,-1 -1.375,-2.5" />
    <path
       style="fill:#231f20"
       id="path506"
       transform="translate(2.8535,4.125)"
       d="m 0,0 1.125,-1.75 c 0,0 2.625,0.875 4.5,0.125 0.625,0.75 1,1 1,1 0,0 -1,-0.125 -1.375,0.625 -0.875,-0.5 -3,0 -3.5,0.875 z" />
    <path
       style="fill:#231f20"
       id="path508"
       transform="translate(12.9785,7.125)"
       d="m 0,0 c 1.125,-0.875 2.5,-3 3,-2.25 0.5,0.75 2.125,1.5 2.5,1.5 0.375,0 -0.625,1.125 -0.5,1.5 0.125,0.375 -1.75,0 -2.125,0.625 C 2.5,2 2.5,0.125 0,0" />
    <path
       style="fill:#231f20"
       id="path510"
       transform="translate(26.1035,5.125)"
       d="m 0,0 c 0,0 1.5,-1.5 1.5,-1.875 0,-0.375 4.875,0.75 4.875,0.75 l -2.75,2.75 C 3.625,1.625 2.5,-0.125 0,0" />
    <path
       style="fill:#231f20"
       id="path512"
       transform="translate(25.9785,13.375)"
       d="m 0,0 c 2.25,-0.625 3.625,-2.375 4,-2.875 0.375,-0.5 0.625,1.625 1.875,2.25 -1.25,0.5 -1.375,0.75 -1.375,1.75 0,1 -1,-1.25 -2,0 C 2.125,0.25 -1.091,0.303 0,0" />
    <path
       style="fill:#231f20"
       id="path514"
       transform="translate(34.457,16.625)"
       d="M 0,0 C -0.453,0.125 -0.854,0.125 -0.854,0.125 -0.552,0.063 -0.268,0.023 0,0" />
    <path
       style="fill:#231f20"
       id="path516"
       transform="translate(34.457,16.625)"
       d="m 0,0 c 0.735,-0.203 1.61,-0.733 1.146,-2.125 l 3.125,0.75 1.5,2.625 -1.875,0.5 C 3.896,1.75 2.95,-0.246 0,0" />
    <path
       style="fill:#231f20"
       id="path518"
       transform="translate(39.8535,10.5)"
       d="m 0,0 1.125,-1 c 0,0 1.375,0.75 1.75,-0.5 L 5,-0.875 c 0,0 -0.75,0.625 0,2.125 L 3.5,0.875 1.125,1 Z" />
    <path
       style="fill:#231f20"
       id="path520"
       transform="translate(46.7285,17.75)"
       d="m 0,0 1.75,-1.875 1.625,1 2.75,0.5 L 3,0.5 C 3,0.5 2.25,2.75 2.25,1.75 2.25,0.75 0,0 0,0" />
    <path
       style="fill:#231f20"
       id="path522"
       transform="translate(47.3535,6.5)"
       d="M 0,0 C 0,0 2.25,-1.875 3.5,-2.75 3.75,-2 5.25,-0.625 4.75,-0.625 4.25,-0.625 4,0.25 4.375,1.25 3.875,0.25 0,0 0,0" />
    <path
       style="fill:#231f20"
       id="path524"
       transform="translate(41.8115,43.833)"
       d="m 0,0 -0.667,1.5 c 0,0 -0.333,-1.167 -1.166,-0.333 -0.834,0.833 -1.834,2 -1.834,2 L -4.5,2.333 -5.5,1.167 -4.167,0 Z" />
    <path
       style="fill:#231f20"
       id="path526"
       transform="translate(50.3115,47.125)"
       d="m 0,0 -1,0.833 c 0,0 1,1 0,1.667 C -2,3.167 -2.667,4 -2.667,4 l -1,-0.667 -1.667,0.5 L -5.5,1.667 -4.5,1.333 -5,0.167 -2,-1 Z" />
    <path
       style="fill:#231f20"
       id="path528"
       transform="translate(35.1563,53.9775)"
       d="m 0,0 -0.512,-1.228 2.333,-0.5 1.833,1.667 C 3.452,-0.061 3.272,-0.039 3.112,0 Z" />
    <path
       style="fill:#231f20"
       id="path530"
       transform="translate(22.332,48.3125)"
       d="m 0,0 2.5,1.333 -2.166,2 L -1.833,1 l -1.333,0.667 -1,-2.334 c 0,0 0.5,-1.166 1.833,-0.666 1.333,0.5 2.167,-0.834 2.167,-0.834 z" />
    <path
       style="fill:#231f20"
       id="path532"
       transform="translate(9.2695,47.6665)"
       d="M 0,0 -2,3.5 -5.833,3 -4,0.167 c 0,0 0,0.666 1,0.833 1,0.167 3,-1 3,-1" />
    <path
       style="fill:#231f20"
       id="path534"
       transform="translate(16.9775,42.75)"
       d="m 0,0 -1.5,-1.25 2,-0.25 2,-1.25 2,1.25 -2,0.25 z" />
    <path
       style="fill:#231f20"
       id="path536"
       transform="translate(0,30.4292)"
       d="M 0,0 1.29,0.821 0,1.394 Z" />
    <path
       style="fill:#231f20"
       id="path538"
       transform="translate(53.9775,31.8232)"
       d="m 0,0 -0.96,0.427 -1.75,-0.5 1.25,-2.25 1.46,0.929 z" />
    <path
       style="fill:#231f20"
       id="path540"
       transform="translate(35.165)"
       d="m 0,0 0.313,0.75 1.5,0.667 c 0,0 0.123,-1.102 1.206,-1.417 z" />
  </g>
</svg>
