<?xml version="1.0" encoding="UTF-8" standalone="no"?>
<svg
   xmlns:dc="http://purl.org/dc/elements/1.1/"
   xmlns:cc="http://creativecommons.org/ns#"
   xmlns:rdf="http://www.w3.org/1999/02/22-rdf-syntax-ns#"
   xmlns:svg="http://www.w3.org/2000/svg"
   xmlns="http://www.w3.org/2000/svg"
   id="svg116"
     width="53.6667"
     height="53.6667"
	 version="1.1">
  <defs
     id="defs120" />
  <metadata
     id="metadata2">citation: U.S. Geological Survey, 2006, FGDC Digital Cartographic Standard for Geologic Map Symbolization (PostScript Implementation): U.S. Geological Survey Techniques and Methods 11-A2 [pubs.usgs.gov/tm/2006/11A02/]. converted by CEC Geology LLC 2018 from the USGS lithologic gs converted to inkscape by the University of Otago.<rdf:RDF>
  <cc:Work
     rdf:about="">
    <dc:format>image/svg+xml</dc:format>
    <dc:type
       rdf:resource="http://purl.org/dc/dcmitype/StillImage" />
    <dc:title></dc:title>
  </cc:Work>
</rdf:RDF>
</metadata>
  <g
     id="g114"
     width="53.6667"
     stroke-width=".3"
     stroke="#231f20"
     height="53.6667"
     fill="none">
    <path
       id="path4"
       transform="translate(2.5 50.0944)"
       d="m0 0c.875-.5 1.625-.375 2.5.375s1.125.75 2.25.5 1.25-.125 2.375.625 1.25 1.25 1.75 1" />
    <path
       id="path6"
       transform="translate(18 52.0417)"
       d="m0 0c-1.25-.875-1.5-.5-1.125-1.625s.375-.875-.375-1.5-1.25-.75-1-1.75-.125-1.125-.625-1.625" />
    <path
       id="path8"
       transform="translate(1.875 45.0566)"
       d="m0 0c.625.375 1.625.75 2.375.125s2.188-1.765 2.563-.64 1.687.485 2.562-.015" />
    <path
       id="path10"
       transform="translate(21.125 51.4167)"
       d="m0 0c-.125-1.25.125-2 1-2.125s.875.25 1-.625.125-1.125 1.125-1.125 1.5 0 1.625-.875.625-1.375 1.625-1.375" />
    <path
       id="path12"
       transform="translate(12.5836 37.5261)"
       d="m0 0c.145-1.248.549-1.927 1.431-1.862.881.065.801.431 1.11-.397s.363-1.072 1.34-.859c.977.214 1.465.321 1.774-.507" />
    <path
       id="path14"
       transform="translate(18.375 45.6667)"
       d="m0 0c0-1.375.25-1.75.75-2.25s.875-.625.25-1.375-.5-.75.375-1.625.5-1.5-.375-2.625-1-1.25-.75-1.75" />
    <path
       id="path16"
       transform="translate(11.8125 42.2292)"
       d="m0 0c-.813-.25-1.375-.438-1.25-1.063s.125-1.187-.875-1.375c-1-.187-.938-.25-.938-1.187 0-.938-.062-1.25-.625-1.625-.562-.375-.437-.5-.5-.75" />
    <path
       id="path18"
       transform="translate(1.8125 40.1667)"
       d="m0 0c.25-.75.313-.875.563-1.313.25-.437.187-.812-.125-1.125-.313-.312-.751-.562-.25-1.375.5-.812.562-1.437.187-1.875-.375-.437-.563-.812-.187-1.437" />
    <path
       id="path20"
       transform="translate(10.1875 31.1042)"
       d="m0 0c.5.188.688.563 1.438-.063.75-.625.625-.312 1.562-.187.938.125.875.125 1.438-.313.562-.437 1.5-.687 2.875.626" />
    <path
       id="path22"
       transform="translate(11.375 27.5417)"
       d="m0 0c1.25-.188 1.938-.125 2.063-.875s0-.813.687-1c.688-.188 1.125-.438.625-1.5-.5-1.063-.5-1.063-.375-1.375" />
    <path
       id="path24"
       transform="translate(4.75 25.7292)"
       d="m0 0c.688-.375.688.063 1.188-.75s.562-.625 1.187-.938c.625-.312.438-.625.5-1.375.063-.75.125-1.187 1.063-1.187.937 0 1.437-.563 1.625-1.063" />
    <path
       id="path26"
       transform="translate(17.5 26.2292)"
       d="m0 0c.375.438.688.563 1.125 1.188.438.625.938.75 1.875.5.938-.25.875-.125 1.375.5s1.063.812 1.438.75" />
    <path
       id="path28"
       transform="translate(7.4375 31.6042)"
       d="m0 0c-.75 0-1.5-.063-1.625-.625-.125-.563-.625-1.063-1.375-.875-.75.187-1.188.25-1.5-.125-.313-.375-.875-.5-1.188-.438" />
    <path
       id="path30"
       transform="translate(23.25 44.2917)"
       d="m0 0c.5-.813.438-.75.813-1s.375-.75.312-1.125c-.062-.375-.312-.625.438-1s1.062-1.063.437-1.625c-.625-.563-.812-.813-.812-1.188" />
    <path
       id="path32"
       transform="translate(27.875 37.6042)"
       d="m0 0c.313.563.563 1 .938 1.125s.687.25.875.938c.187.687-.188 1.125.5 1.062.687-.062.625-.187.875.563s.812 1.312 1.5.937" />
    <path
       id="path34"
       transform="translate(30.5 34.4167)"
       d="m0 0c-.375 0-.563.063-1.063-.313-.5-.375-1.125-.312-1.625.125-.5.438-.562.626-1 .188-.437-.438-.812-.875-1.625-.125-.812.75-1.375.688-1.687.5" />
    <path
       id="path36"
       transform="translate(24.25 31.5417)"
       d="m0 0c1-.5 1.188-.5 1.313-1.125s.187-.813 1.187-1c1-.188 1.75-.938 1.625-1.688s-.187-1.187.938-1.25c1.125-.062 1.437.063 1.562-.5" />
    <path
       id="path38"
       transform="translate(22.5625 24.6667)"
       d="m0 0c-1.063.25-1.938.375-2.063-.5s-.562-1.5-1.25-1.75c-.687-.25-.75-.125-.937-.875-.188-.75-.875-1.563-1.688-1.688" />
    <path
       id="path40"
       transform="translate(1.625 23.1667)"
       d="m0 0c.063-.688-.125-.875.625-1.375s.813-1.063.5-1.875c-.312-.813-.437-.813.125-1.438.563-.625.438-1.187 0-1.937" />
    <path
       id="path42"
       transform="translate(1.3125 10.2292)"
       d="m0 0c.188.625.188.938.813.938s1.187.375 1.312 1.062c.125.688.563 1.5 1.563 1.188 1-.313 1.937-.375 2.562.687" />
    <path
       id="path44"
       transform="translate(9.625 17.0417)"
       d="m0 0c.813-.188 1.313-.75 2.125-.375.813.375 1 .563 1.5 0s1.938-1.125 2.5-.625c.563.5 1.25.562 1.625.437" />
    <path
       id="path46"
       transform="translate(14.5625 13.4167)"
       d="m0 0c.813 0 .75.25 1.063-.25.312-.5.375-.688 1.125-.688s.812.25 1.25-.437c.437-.688.687-1 1.562-1s1-.063 1.25-.5c.25-.438.563-.5 1.063-.438" />
    <path
       id="path48"
       transform="translate(26.8125 19.4167)"
       d="m0 0c-.625.313-.875.5-1.313.375-.437-.125-1.062-.187-1.562.25-.5.438-.75.5-1.438-.125-.687-.625-.812-.688-1.562-.625-.75.062-.875-.063-.938-.5" />
    <path
       id="path50"
       transform="translate(24.0625 13.1667)"
       d="m0 0c.438.438.813.875.625 1.563-.187.687.25 1.875 1 1.875s1.25.25 1.938 1c.687.75 1.125.875 1.687.812" />
    <path
       id="path52"
       transform="translate(10.5394 6.3457)"
       d="m0 0c-.317.959-.44 1.59-1.017 1.595-.576.005-1.426.433-1.63 1.16s-.614 1.117-1.08 1.378" />
    <path
       id="path54"
       transform="translate(27.5 9.3542)"
       d="m0 0c.625-.25 1-.438 1.688.125.687.563 1 .625 1.562.438.563-.188 1.375.125 1.563.875.187.75.812 1.187 1.125 1.25" />
    <path
       id="path56"
       transform="translate(32.375 22.7292)"
       d="m0 0c.563-.938.688-.938 1.375-1 .688-.063.875-.063 1.188-.688.312-.625.687-.812 1.812-.562s1.375-.125 1.5-.563" />
    <path
       id="path58"
       transform="translate(34.875 17.7292)"
       d="m0 0c.688-.375.875-.625.563-1.188-.313-.562-.063-1.437.312-1.875.375-.437.563-.75.313-1.437-.25-.688.25-1.688.75-2" />
    <path
       id="path60"
       transform="translate(44 22.3542)"
       d="m0 0c-.5-.438-.625-.563-.438-1.438.188-.875.375-1.375-.437-1.625-.813-.25-1.875-.5-2.188-1.062-.312-.563-.875-.688-1.375-.625" />
    <path
       id="path62"
       transform="translate(31.8125 32.4792)"
       d="m0 0c.375-.188.313.125.688-.75s.25-.375.937-.688c.688-.312 1-1.375.5-2.062-.5-.688-.625-1.313-.125-1.75.5-.438.5-.813.438-1.25" />
    <path
       id="path64"
       transform="translate(38.5 23.8542)"
       d="m0 0c.375.438.188.75.75.813.563.062 1 .125 1.375.5s.438.625 1.063.437c.625-.187.5-.25 1.187.063.688.312.688.25 1.25.062.563-.187.563-.187 1.375 0 .813.188 1.063.188 1.375.063" />
    <path
       id="path66"
       transform="translate(46.25 16.9792)"
       d="m0 0c-.563-.375-.438-.313-.75-.938-.313-.625-.313-.687-.875-.875-.563-.187-.938-.312-.875-1 .062-.687.25-1.375-.875-1.75s-1.375-.5-1.563-1c-.187-.5-.562-.875-.687-1.25" />
    <path
       id="path68"
       transform="translate(49.3636 19.6744)"
       d="m0 0c.787-.495 1.027-.427.79-1.207-.236-.78.146-1.452.902-1.371s1.99-.159 2.218-.744" />
    <path
       id="path70"
       transform="translate(46.3631 13.3912)"
       d="m0 0c.652.128.477.105 1.135-.167.659-.273.407-.394 1.124-.08.717.315 1.556.377 2.068-.493.512-.871 1.368-1.296 1.795-1.152" />
    <path
       id="path72"
       transform="translate(53.1572 25.7245)"
       d="m0 0c-.328-.289-.416-.284-1.081-.286-.664-.003-1.844-.46-1.858-1.389s.212-1.563-.863-1.761c-1.076-.199-1.522-.259-1.732-.777" />
    <path
       id="path74"
       transform="translate(42.875 29.7917)"
       d="m0 0c-1.063.438-1.313.688-1.563.188-.25-.501-1.312-1.438-1.687-.938s-.375.75-.938.687c-.562-.062-.937.438-1.187.938" />
    <path
       id="path76"
       transform="translate(52.9389 29.8097)"
       d="m0 0c-.846.547-.703.427-1.464.005-.762-.421-2.33-.248-2.326.729.003.976.165 1.656-.491 1.554-.657-.102-.601-.23-1.264.244" />
    <path
       id="path78"
       transform="translate(36.4375 43.6042)"
       d="m0 0c-.375-.5-.625-.813-.25-1.313s.5-1.437-.25-2.187-1.188-.75-1-1.438c.187-.687.312-1.562-.25-2" />
    <path
       id="path80"
       transform="translate(38.4375 38.4792)"
       d="m0 0c.313-1 .25-1.188.625-1.5.375-.313.438-.75.375-1.313-.062-.562.438-1.187 1.25-1.062.813.125.75.5 1.188.125.437-.375.312-.375 1-.438.687-.062.75-.187.937-.562" />
    <path
       id="path82"
       transform="translate(47.6875 40.5417)"
       d="m0 0c-1-.188-1.25.125-1.5-.25s-.625-.313-.938-.5c-.312-.188-.312.062-.562-.688s-1.438-1.312-1.875-.875c-.438.438-.875.875-1.25.688" />
    <path
       id="path84"
       transform="translate(52.8662 38.7793)"
       d="m0 0c-.785-.296-.827-.341-1.075-.793s-.329-.632-1.396-.496c-1.067.135-1.537-.281-1.722-1.217s-.525-1.303-1.136-1.503" />
    <path
       id="path86"
       transform="translate(49.0625 46.5417)"
       d="m0 0c1-.625.938-.375 1.188-1.188.25-.812.312-1.437 1-1.937.687-.5.812-.625.875-1.375" />
    <path
       id="path88"
       transform="translate(46.625 45.2292)"
       d="m0 0c-.375-.813-1.625-1.438-2.188-1-.562.437-1 1-1.812.375-.813-.625-1.313-.625-2.063-.438-.75.188-.937.25-1.187.063" />
    <path
       id="path90"
       transform="translate(43.5625 51.9792)"
       d="m0 0c.75-.688 1.75-2.125 1-2.438-.75-.312-1.063-.187-1.125-.812-.063-.625-.438-1.188-1.063-1.688s-.75-.625-.812-.937" />
    <path
       id="path92"
       transform="translate(47.25 52.6684)"
       d="m0 0c1.125-1.188.688-.75 1.5-.875.813-.125 1 .375 1.313-.563.312-.937-.188-1.437.812-1.687s1.5-.438 1.688-1" />
    <path
       id="path94"
       transform="translate(39.5625 49.9167)"
       d="m0 0c-.938.313-2.313 1-2.75.125-.438-.875-1.063-1.875-1.813-1.938-.75-.062-1.187.125-1.625-.437-.437-.563-1.125-.813-1.75-1" />
    <path
       id="path96"
       transform="translate(26 51.3542)"
       d="m0 0c.75.75.563 1.375 1.75.813 1.188-.563 1.125-.5 2-.188.875.313.938.75 1.75.063.813-.688.813-.438 1.125-.5.313-.063.75-.251.875-.813" />
    <path
       id="path98"
       transform="translate(46.1117 8.6991)"
       d="m0 0c.946-.839 1.556-1.161 1.252-1.858s-.443-.681.031-1.213.704-.98-.294-1.598c-.998-.618-.998-.618-1.064-.948" />
    <path
       id="path100"
       transform="translate(.9375 7.2292)"
       d="m0 0c1-.5 1.188-.5 1.313-1.125s.187-.813 1.187-1c1-.188 1.75-.938 1.625-1.688s-.187-1.187.938-1.25c1.125-.062 1.437.063 1.562-.5" />
    <path
       id="path102"
       transform="translate(43.0625 7.4167)"
       d="m0 0c-.625.313-.875.5-1.313.375-.437-.125-1.062-.187-1.562.25-.5.438-.75.5-1.438-.125-.687-.625-.812-.688-1.562-.625-.75.062-.875-.063-.938-.5" />
    <path
       id="path104"
       transform="translate(15.3926 1.659)"
       d="m0 0c.117.607.183 1.18-.358 1.644-.54.465-.843 1.694-.222 2.114.621.42.895.907 1.044 1.914.15 1.006.442 1.355.943 1.618" />
    <path
       id="path106"
       transform="translate(33.8125 1.2917)"
       d="m0 0c.625-.25 1-.438 1.688.125.687.563 1 .625 1.562.438.563-.188 1.375.125 1.563.875.187.75.812 1.187 1.125 1.25" />
    <path
       id="path108"
       transform="translate(52.875 5.9792)"
       d="m0 0c-.5-.438-.625-.563-.438-1.438.188-.875.375-1.375-.437-1.625-.813-.25-1.875-.5-2.188-1.062-.312-.563-.875-.688-1.375-.625" />
    <path
       id="path110"
       transform="translate(26.125 7.3181)"
       d="m0 0c.375-.188.313.125.688-.75s.25-.375.937-.688c.688-.312 1-1.375.5-2.062-.5-.688-.625-1.313-.125-1.75.5-.438.5-.813.438-1.25" />
    <path
       id="path112"
       transform="translate(24.3125 3.2292)"
       d="m0 0c-1.063.438-1.313.688-1.563.188-.25-.501-1.312-1.438-1.687-.938s-.375.75-.938.687c-.562-.062-.937.438-1.187.938" />
  </g>
</svg>
