<?xml version="1.0" encoding="UTF-8" standalone="no"?>
<svg
   xmlns:dc="http://purl.org/dc/elements/1.1/"
   xmlns:cc="http://creativecommons.org/ns#"
   xmlns:rdf="http://www.w3.org/1999/02/22-rdf-syntax-ns#"
   xmlns:svg="http://www.w3.org/2000/svg"
   xmlns="http://www.w3.org/2000/svg"
   height="53.125"
   width="54.125"
   id="svg768"
   version="1.1">
  <defs
     id="defs772" />
  <metadata
     id="metadata2">citation: U.S. Geological Survey, 2006, FGDC Digital Cartographic Standard for Geologic Map Symbolization (PostScript Implementation): U.S. Geological Survey Techniques and Methods 11-A2 [pubs.usgs.gov/tm/2006/11A02/]. converted by CEC Geology LLC 2018 from the USGS lithologic gs converted to inkscape by the University of Otago.<rdf:RDF>
  <cc:Work
     rdf:about="">
    <dc:format>image/svg+xml</dc:format>
    <dc:type
       rdf:resource="http://purl.org/dc/dcmitype/StillImage" />
    <dc:title></dc:title>
  </cc:Work>
</rdf:RDF>
</metadata>
  <g
     stroke-width=".3"
     stroke="#231f20"
     fill="none"
     id="g766"
     width="54.125"
     height="54.125">
    <path
       style="stroke-width:0.30000001"
       id="path4"
       transform="translate(0.958,49.896)"
       d="M 0,0 C 1.25,0.25 3,1.333 6.167,0.916" />
    <path
       style="stroke-width:0.30000001"
       id="path6"
       transform="translate(9.125,50.396)"
       d="M 0,0 C 1.833,-0.667 4.098,-1.362 6.833,-0.25" />
    <path
       style="stroke-width:0.30000001"
       id="path8"
       transform="translate(17.708,50.8125)"
       d="M 0,0 C 3.584,0.667 6,-0.916 7.5,-1.083" />
    <path
       style="stroke-width:0.30000001"
       id="path10"
       transform="translate(27.292,49.729)"
       d="M 0,0 C 1.5,0 2.583,0.75 3.833,1.083 5.083,1.417 6.583,1.583 8.25,1" />
    <path
       style="stroke-width:0.30000001"
       id="path12"
       transform="translate(37.208,50.0625)"
       d="M 0,0 C 1.167,-0.25 5.167,-0.333 7.334,0.75" />
    <path
       style="stroke-width:0.30000001"
       id="path14"
       transform="translate(46.375,50.8125)"
       d="M 0,0 C 2,0.084 1.75,0 3.559,-0.5 4.917,-1.416 6.75,-0.916 7.167,-1" />
    <path
       style="stroke-width:0.30000001"
       id="path16"
       transform="translate(2.958,45.979)"
       d="M 0,0 C -0.811,-0.405 -1.878,-0.648 -2.958,-0.778" />
    <path
       style="stroke-width:0.30000001"
       id="path18"
       transform="translate(11.958,44.979)"
       d="M 0,0 C -0.416,0.083 -2.25,-0.417 -3.607,0.5 -5.416,1 -5.166,1.083 -7.166,1" />
    <path
       style="stroke-width:0.30000001"
       id="path20"
       transform="translate(38.208,40.0625)"
       d="M 0,0 C 1.25,0.25 3,1.334 6.167,0.917" />
    <path
       style="stroke-width:0.30000001"
       id="path22"
       transform="translate(46.375,40.5625)"
       d="M 0,0 C 1.833,-0.666 4.098,-1.362 6.833,-0.25" />
    <path
       style="stroke-width:0.30000001"
       id="path24"
       transform="translate(21.375,11.3125)"
       d="M 0,0 C -3.167,0.417 -4.917,-0.667 -6.167,-0.917" />
    <path
       style="stroke-width:0.30000001"
       id="path26"
       transform="translate(30.208,10.646)"
       d="M 0,0 C -2.735,-1.112 -5,-0.417 -6.833,0.25" />
    <path
       style="stroke-width:0.30000001"
       id="path28"
       transform="translate(39.458,10.229)"
       d="M 0,0 C -1.5,0.167 -3.916,1.75 -7.5,1.083" />
    <path
       style="stroke-width:0.30000001"
       id="path30"
       transform="translate(41.542,10.229)"
       d="M 0,0 C 1.5,0 2.583,0.75 3.833,1.083 5.083,1.417 6.583,1.583 8.25,1" />
    <path
       style="stroke-width:0.30000001"
       id="path32"
       transform="translate(5.125,11.479)"
       d="M 0,0 C -1.369,-0.684 -3.47,-0.903 -5.125,-0.908" />
    <path
       style="stroke-width:0.30000001"
       id="path34"
       transform="translate(14.125,10.479)"
       d="M 0,0 C -0.417,0.083 -2.25,-0.417 -3.607,0.5 -5.417,1 -5.167,1.083 -7.167,1" />
    <path
       style="stroke-width:0.30000001"
       id="path36"
       transform="translate(0,0.6338)"
       d="M 0,0 C 0.34,0.088 0.686,0.201 1.042,0.346" />
    <path
       style="stroke-width:0.30000001"
       id="path38"
       transform="translate(10.292,0.5625)"
       d="M 0,0 C -1.5,0.167 -3.917,1.75 -7.5,1.083" />
    <path
       style="stroke-width:0.30000001"
       id="path40"
       transform="translate(20.625,1.5625)"
       d="M 0,0 C -1.667,0.583 -3.167,0.417 -4.417,0.083 -5.667,-0.25 -6.75,-1 -8.25,-1" />
    <path
       style="stroke-width:0.30000001"
       id="path42"
       transform="translate(29.625,1.6455)"
       d="M 0,0 C -2.167,-1.083 -6.167,-1 -7.333,-0.75" />
    <path
       style="stroke-width:0.30000001"
       id="path44"
       transform="translate(38.625,0.6455)"
       d="M 0,0 C -0.417,0.084 -2.25,-0.416 -3.607,0.5 -5.417,1 -5.167,1.084 -7.167,1" />
    <path
       style="stroke-width:0.30000001"
       id="path46"
       transform="translate(46.375,1.8125)"
       d="M 0,0 C -3.167,0.417 -4.917,-0.667 -6.167,-0.917" />
    <path
       style="stroke-width:0.30000001"
       id="path48"
       transform="translate(4.917,35.9375)"
       d="M 0,0 C -2.239,0.294 -3.771,-0.161 -4.917,-0.541" />
    <path
       style="stroke-width:0.30000001"
       id="path50"
       transform="translate(13.75,35.271)"
       d="M 0,0 C -2.736,-1.112 -5,-0.417 -6.833,0.25" />
    <path
       style="stroke-width:0.30000001"
       id="path52"
       transform="translate(23,34.854)"
       d="M 0,0 C -1.5,0.167 -3.917,1.75 -7.5,1.083" />
    <path
       style="stroke-width:0.30000001"
       id="path54"
       transform="translate(33.333,35.854)"
       d="M 0,0 C -1.666,0.583 -3.166,0.417 -4.416,0.083 -5.666,-0.25 -6.75,-1 -8.25,-1" />
    <path
       style="stroke-width:0.30000001"
       id="path56"
       transform="translate(42.333,35.9375)"
       d="M 0,0 C -2.166,-1.083 -6.166,-1 -7.333,-0.75" />
    <path
       style="stroke-width:0.30000001"
       id="path58"
       transform="translate(44.167,35.9375)"
       d="M 0,0 C 2,0.083 1.75,0 3.559,-0.5 4.916,-1.417 6.75,-0.917 7.166,-1" />
    <path
       style="stroke-width:0.30000001"
       id="path60"
       transform="translate(7.167,21.3125)"
       d="M 0,0 C -3.167,0.417 -4.917,-0.667 -6.167,-0.917" />
    <path
       style="stroke-width:0.30000001"
       id="path62"
       transform="translate(9.167,20.896)"
       d="M 0,0 C 1.833,-0.667 4.097,-1.362 6.833,-0.25" />
    <path
       style="stroke-width:0.30000001"
       id="path64"
       transform="translate(17.75,21.3125)"
       d="M 0,0 C 3.583,0.667 6,-0.917 7.5,-1.083" />
    <path
       style="stroke-width:0.30000001"
       id="path66"
       transform="translate(27.333,20.229)"
       d="M 0,0 C 1.5,0 2.584,0.75 3.834,1.083 5.084,1.417 6.584,1.583 8.25,1" />
    <path
       style="stroke-width:0.30000001"
       id="path68"
       transform="translate(37.25,20.5625)"
       d="M 0,0 C 1.167,-0.25 5.167,-0.333 7.333,0.75" />
    <path
       style="stroke-width:0.30000001"
       id="path70"
       transform="translate(46.417,21.3125)"
       d="M 0,0 C 2,0.083 1.75,0 3.559,-0.5 4.916,-1.417 6.75,-0.917 7.166,-1" />
    <path
       style="stroke-width:0.30000001"
       id="path72"
       transform="translate(7.292,6.4375)"
       d="M 0,0 C -3.167,0.417 -4.917,-0.667 -6.167,-0.917" />
    <path
       style="stroke-width:0.30000001"
       id="path74"
       transform="translate(9.292,6.021)"
       d="M 0,0 C 1.833,-0.667 4.097,-1.362 6.833,-0.25" />
    <path
       style="stroke-width:0.30000001"
       id="path76"
       transform="translate(17.875,6.4375)"
       d="M 0,0 C 3.583,0.667 6,-0.917 7.5,-1.083" />
    <path
       style="stroke-width:0.30000001"
       id="path78"
       transform="translate(27.458,5.354)"
       d="M 0,0 C 1.5,0 2.584,0.75 3.834,1.083 5.084,1.417 6.584,1.583 8.25,1" />
    <path
       style="stroke-width:0.30000001"
       id="path80"
       transform="translate(37.375,5.6875)"
       d="M 0,0 C 1.167,-0.25 5.167,-0.333 7.333,0.75" />
    <path
       style="stroke-width:0.30000001"
       id="path82"
       transform="translate(53.708,5.4375)"
       d="M 0,0 C -0.416,0.083 -2.25,-0.417 -3.607,0.5 -5.416,1 -5.166,1.083 -7.166,1" />
    <path
       style="stroke-width:0.30000001"
       id="path84"
       transform="translate(19.042,45.9375)"
       d="M 0,0 C -3.167,0.417 -4.917,-0.666 -6.167,-0.916" />
    <path
       style="stroke-width:0.30000001"
       id="path86"
       transform="translate(27.875,45.271)"
       d="M 0,0 C -2.736,-1.112 -5,-0.417 -6.833,0.25" />
    <path
       style="stroke-width:0.30000001"
       id="path88"
       transform="translate(29.625,45.9375)"
       d="M 0,0 C 3.583,0.667 6,-0.916 7.5,-1.083" />
    <path
       style="stroke-width:0.30000001"
       id="path90"
       transform="translate(39.208,44.854)"
       d="M 0,0 C 1.5,0 2.584,0.75 3.834,1.083 5.084,1.417 6.584,1.583 8.25,1" />
    <path
       style="stroke-width:0.30000001"
       id="path92"
       transform="translate(7.875,39.9375)"
       d="M 0,0 C -1.5,0.167 -3.917,1.75 -7.5,1.084" />
    <path
       style="stroke-width:0.30000001"
       id="path94"
       transform="translate(9.958,39.9375)"
       d="M 0,0 C 1.5,0 2.584,0.75 3.834,1.084 5.084,1.417 6.584,1.584 8.25,1" />
    <path
       style="stroke-width:0.30000001"
       id="path96"
       transform="translate(19.875,40.271)"
       d="M 0,0 C 1.167,-0.25 5.167,-0.334 7.333,0.75" />
    <path
       style="stroke-width:0.30000001"
       id="path98"
       transform="translate(29.042,41.021)"
       d="M 0,0 C 2,0.083 1.75,0 3.559,-0.5 4.916,-1.417 6.75,-0.917 7.166,-1" />
    <path
       style="stroke-width:0.30000001"
       id="path100"
       transform="translate(6.958,31.1875)"
       d="M 0,0 C -3.166,0.417 -4.916,-0.667 -6.166,-0.917" />
    <path
       style="stroke-width:0.30000001"
       id="path102"
       transform="translate(15.792,30.521)"
       d="M 0,0 C -2.736,-1.112 -5,-0.417 -6.834,0.25" />
    <path
       style="stroke-width:0.30000001"
       id="path104"
       transform="translate(17.542,31.1875)"
       d="M 0,0 C 3.583,0.667 6,-0.917 7.5,-1.083" />
    <path
       style="stroke-width:0.30000001"
       id="path106"
       transform="translate(27.125,30.104)"
       d="M 0,0 C 1.5,0 2.583,0.75 3.833,1.083 5.083,1.417 6.583,1.583 8.25,1" />
    <path
       style="stroke-width:0.30000001"
       id="path108"
       transform="translate(37.042,30.4375)"
       d="M 0,0 C 1.166,-0.25 5.166,-0.333 7.333,0.75" />
    <path
       style="stroke-width:0.30000001"
       id="path110"
       transform="translate(46.208,31.1875)"
       d="M 0,0 C 2,0.083 1.75,0 3.56,-0.5 4.917,-1.417 6.75,-0.917 7.167,-1" />
    <path
       style="stroke-width:0.30000001"
       id="path112"
       transform="translate(20.708,26.3125)"
       d="M 0,0 C -3.166,0.417 -4.916,-0.667 -6.166,-0.917" />
    <path
       style="stroke-width:0.30000001"
       id="path114"
       transform="translate(29.542,25.646)"
       d="M 0,0 C -2.736,-1.112 -5,-0.417 -6.834,0.25" />
    <path
       style="stroke-width:0.30000001"
       id="path116"
       transform="translate(38.792,25.229)"
       d="M 0,0 C -1.5,0.167 -3.917,1.75 -7.5,1.083" />
    <path
       style="stroke-width:0.30000001"
       id="path118"
       transform="translate(40.875,25.229)"
       d="M 0,0 C 1.5,0 2.583,0.75 3.833,1.083 5.083,1.417 6.583,1.583 8.25,1" />
    <path
       style="stroke-width:0.30000001"
       id="path120"
       transform="translate(15.792,15.271)"
       d="M 0,0 C 1.25,0.25 3,1.333 6.166,0.917" />
    <path
       style="stroke-width:0.30000001"
       id="path122"
       transform="translate(23.958,15.771)"
       d="M 0,0 C 1.834,-0.667 4.098,-1.362 6.834,-0.25" />
    <path
       style="stroke-width:0.30000001"
       id="path124"
       transform="translate(32.542,16.1875)"
       d="M 0,0 C 3.583,0.667 6,-0.917 7.5,-1.083" />
    <path
       style="stroke-width:0.30000001"
       id="path126"
       transform="translate(42.125,15.104)"
       d="M 0,0 C 1.5,0 2.583,0.75 3.833,1.083 5.083,1.417 6.583,1.583 8.25,1" />
    <path
       style="stroke-width:0.30000001"
       id="path128"
       transform="translate(5.5,16.3125)"
       d="M 0,0 C -1.475,-0.737 -3.799,-0.934 -5.5,-0.906" />
    <path
       style="stroke-width:0.30000001"
       id="path130"
       transform="translate(7.333,16.3125)"
       d="M 0,0 C 2,0.083 1.75,0 3.56,-0.5 4.917,-1.417 6.75,-0.917 7.167,-1" />
    <path
       style="stroke-width:0.30000001"
       id="path132"
       transform="translate(4.125,26.1875)"
       d="M 0,0 C -1.105,-0.552 -2.686,-0.801 -4.125,-0.88" />
    <path
       style="stroke-width:0.30000001"
       id="path134"
       transform="translate(13.125,25.1875)"
       d="M 0,0 C -0.417,0.083 -2.25,-0.417 -3.607,0.5 -5.417,1 -5.167,1.083 -7.167,1" />
    <path
       style="stroke-width:0.30000001"
       id="path136"
       transform="translate(49.75,45.229)"
       d="M 0,0 C 0.73,-0.156 2.569,-0.248 4.375,-0.028" />
    <path
       style="stroke-width:0.30000001"
       id="path138"
       transform="translate(51.917,10.729)"
       d="M 0,0 C 0.43,-0.092 1.243,-0.162 2.208,-0.158" />
    <path
       style="stroke-width:0.30000001"
       id="path140"
       transform="translate(48.333,1.2295)"
       d="M 0,0 C 1.596,-0.58 3.518,-1.182 5.792,-0.596" />
    <path
       style="stroke-width:0.30000001"
       id="path142"
       transform="translate(52.875,35.021)"
       d="M 0,0 C 0.366,0.073 0.775,0.218 1.25,0.376" />
    <path
       style="stroke-width:0.30000001"
       id="path144"
       transform="translate(52.292,15.5625)"
       d="M 0,0 C 0.372,-0.08 1.034,-0.143 1.833,-0.156" />
    <path
       style="stroke-width:0.30000001"
       id="path146"
       transform="translate(50.917,25.4375)"
       d="M 0,0 C 0.571,-0.123 1.824,-0.205 3.208,-0.13" />
    <g
       style="stroke-width:0.69999999;stroke-linecap:round"
       id="g764">
      <path
         id="path148"
         transform="translate(0.458,52.25)"
         d="M 0,0 0.01,0.01" />
      <path
         id="path150"
         transform="translate(2.458,52.5684)"
         d="M 0,0 0.01,0.01" />
      <path
         id="path152"
         transform="translate(4.2763,53.1875)"
         d="M 0,0 0.01,0.01" />
      <path
         id="path154"
         transform="translate(6.2021,53.3125)"
         d="M 0,0 0.01,0.01" />
      <path
         id="path156"
         transform="translate(8.1513,53.1875)"
         d="M 0,0 0.01,0.01" />
      <path
         id="path158"
         transform="translate(10.0888,52.7441)"
         d="M 0,0 0.01,0.01" />
      <path
         id="path160"
         transform="translate(11.9355,52.375)"
         d="M 0,0 0.01,0.01" />
      <path
         id="path162"
         transform="translate(13.9638,52.25)"
         d="M 0,0 0.01,0.01" />
      <path
         id="path164"
         transform="translate(16.0205,52.5684)"
         d="M 0,0 0.01,0.01" />
      <path
         id="path166"
         transform="translate(17.8388,53.1875)"
         d="M 0,0 0.01,0.01" />
      <path
         id="path168"
         transform="translate(19.7646,53.3125)"
         d="M 0,0 0.01,0.01" />
      <path
         id="path170"
         transform="translate(21.7138,53.1875)"
         d="M 0,0 0.01,0.01" />
      <path
         id="path172"
         transform="translate(23.6513,52.7441)"
         d="M 0,0 0.01,0.01" />
      <path
         id="path174"
         transform="translate(25.3847,52.375)"
         d="M 0,0 0.01,0.01" />
      <path
         id="path176"
         transform="translate(27.3896,52.3066)"
         d="M 0,0 0.01,0.01" />
      <path
         id="path178"
         transform="translate(29.4472,52.625)"
         d="M 0,0 0.01,0.01" />
      <path
         id="path180"
         transform="translate(31.2646,53.2441)"
         d="M 0,0 0.01,0.01" />
      <path
         id="path182"
         transform="translate(33.1914,53.3691)"
         d="M 0,0 0.01,0.01" />
      <path
         id="path184"
         transform="translate(35.1396,53.2441)"
         d="M 0,0 0.01,0.01" />
      <path
         id="path186"
         transform="translate(37.0771,52.8008)"
         d="M 0,0 0.01,0.01" />
      <path
         id="path188"
         transform="translate(38.9804,52.4316)"
         d="M 0,0 0.01,0.01" />
      <path
         id="path190"
         transform="translate(40.958,52.3066)"
         d="M 0,0 0.01,0.01" />
      <path
         id="path192"
         transform="translate(43.0146,52.625)"
         d="M 0,0 0.01,0.01" />
      <path
         id="path194"
         transform="translate(44.833,53.2441)"
         d="M 0,0 0.01,0.01" />
      <path
         id="path196"
         transform="translate(46.7597,53.3691)"
         d="M 0,0 0.01,0.01" />
      <path
         id="path198"
         transform="translate(48.708,53.2441)"
         d="M 0,0 0.01,0.01" />
      <path
         id="path200"
         transform="translate(50.6455,52.8008)"
         d="M 0,0 0.01,0.01" />
      <path
         id="path202"
         transform="translate(52.3789,52.4316)"
         d="M 0,0 0.01,0.01" />
      <path
         id="path204"
         transform="translate(0.8242,47.6782)"
         d="M 0,0 0.01,0.01" />
      <path
         id="path206"
         transform="translate(2.6426,48.2974)"
         d="M 0,0 0.01,0.01" />
      <path
         id="path208"
         transform="translate(4.5683,48.4224)"
         d="M 0,0 0.01,0.01" />
      <path
         id="path210"
         transform="translate(6.5176,48.2974)"
         d="M 0,0 0.01,0.01" />
      <path
         id="path212"
         transform="translate(8.4551,47.854)"
         d="M 0,0 0.01,0.01" />
      <path
         id="path214"
         transform="translate(10.3008,47.4849)"
         d="M 0,0 0.01,0.01" />
      <path
         id="path216"
         transform="translate(12.3301,47.3599)"
         d="M 0,0 0.01,0.01" />
      <path
         id="path218"
         transform="translate(14.3867,47.6782)"
         d="M 0,0 0.01,0.01" />
      <path
         id="path220"
         transform="translate(16.2051,48.2974)"
         d="M 0,0 0.01,0.01" />
      <path
         id="path222"
         transform="translate(18.1308,48.4224)"
         d="M 0,0 0.01,0.01" />
      <path
         id="path224"
         transform="translate(20.0801,48.2974)"
         d="M 0,0 0.01,0.01" />
      <path
         id="path226"
         transform="translate(22.0176,47.854)"
         d="M 0,0 0.01,0.01" />
      <path
         id="path228"
         transform="translate(23.75,47.4849)"
         d="M 0,0 0.01,0.01" />
      <path
         id="path230"
         transform="translate(25.7558,47.4165)"
         d="M 0,0 0.01,0.01" />
      <path
         id="path232"
         transform="translate(27.8125,47.7349)"
         d="M 0,0 0.01,0.01" />
      <path
         id="path234"
         transform="translate(29.6308,48.354)"
         d="M 0,0 0.01,0.01" />
      <path
         id="path236"
         transform="translate(31.5566,48.479)"
         d="M 0,0 0.01,0.01" />
      <path
         id="path238"
         transform="translate(33.5058,48.354)"
         d="M 0,0 0.01,0.01" />
      <path
         id="path240"
         transform="translate(35.4433,47.9106)"
         d="M 0,0 0.01,0.01" />
      <path
         id="path242"
         transform="translate(37.3457,47.5415)"
         d="M 0,0 0.01,0.01" />
      <path
         id="path244"
         transform="translate(39.3242,47.4165)"
         d="M 0,0 0.01,0.01" />
      <path
         id="path246"
         transform="translate(41.3808,47.7349)"
         d="M 0,0 0.01,0.01" />
      <path
         id="path248"
         transform="translate(43.1992,48.354)"
         d="M 0,0 0.01,0.01" />
      <path
         id="path250"
         transform="translate(45.125,48.479)"
         d="M 0,0 0.01,0.01" />
      <path
         id="path252"
         transform="translate(47.0742,48.354)"
         d="M 0,0 0.01,0.01" />
      <path
         id="path254"
         transform="translate(49.0117,47.9106)"
         d="M 0,0 0.01,0.01" />
      <path
         id="path256"
         transform="translate(50.7441,47.5415)"
         d="M 0,0 0.01,0.01" />
      <path
         id="path258"
         transform="translate(52.7324,47.4731)"
         d="M 0,0 0.01,0.01" />
      <path
         id="path260"
         transform="translate(0.4756,43.2974)"
         d="M 0,0 0.01,0.01" />
      <path
         id="path262"
         transform="translate(2.4013,43.4224)"
         d="M 0,0 0.01,0.01" />
      <path
         id="path264"
         transform="translate(4.3506,43.2974)"
         d="M 0,0 0.01,0.01" />
      <path
         id="path266"
         transform="translate(6.2881,42.854)"
         d="M 0,0 0.01,0.01" />
      <path
         id="path268"
         transform="translate(8.1347,42.4849)"
         d="M 0,0 0.01,0.01" />
      <path
         id="path270"
         transform="translate(10.1631,42.3599)"
         d="M 0,0 0.01,0.01" />
      <path
         id="path272"
         transform="translate(12.2197,42.6782)"
         d="M 0,0 0.01,0.01" />
      <path
         id="path274"
         transform="translate(14.0381,43.2974)"
         d="M 0,0 0.01,0.01" />
      <path
         id="path276"
         transform="translate(15.9638,43.4224)"
         d="M 0,0 0.01,0.01" />
      <path
         id="path278"
         transform="translate(17.9131,43.2974)"
         d="M 0,0 0.01,0.01" />
      <path
         id="path280"
         transform="translate(19.8506,42.854)"
         d="M 0,0 0.01,0.01" />
      <path
         id="path282"
         transform="translate(21.583,42.4849)"
         d="M 0,0 0.01,0.01" />
      <path
         id="path284"
         transform="translate(23.5888,42.4165)"
         d="M 0,0 0.01,0.01" />
      <path
         id="path286"
         transform="translate(25.6455,42.7349)"
         d="M 0,0 0.01,0.01" />
      <path
         id="path288"
         transform="translate(27.4638,43.354)"
         d="M 0,0 0.01,0.01" />
      <path
         id="path290"
         transform="translate(29.3896,43.479)"
         d="M 0,0 0.01,0.01" />
      <path
         id="path292"
         transform="translate(31.3388,43.354)"
         d="M 0,0 0.01,0.01" />
      <path
         id="path294"
         transform="translate(33.2763,42.9106)"
         d="M 0,0 0.01,0.01" />
      <path
         id="path296"
         transform="translate(35.1797,42.5415)"
         d="M 0,0 0.01,0.01" />
      <path
         id="path298"
         transform="translate(37.1572,42.4165)"
         d="M 0,0 0.01,0.01" />
      <path
         id="path300"
         transform="translate(39.2138,42.7349)"
         d="M 0,0 0.01,0.01" />
      <path
         id="path302"
         transform="translate(41.0322,43.354)"
         d="M 0,0 0.01,0.01" />
      <path
         id="path304"
         transform="translate(42.958,43.479)"
         d="M 0,0 0.01,0.01" />
      <path
         id="path306"
         transform="translate(44.9072,43.354)"
         d="M 0,0 0.01,0.01" />
      <path
         id="path308"
         transform="translate(46.8447,42.9106)"
         d="M 0,0 0.01,0.01" />
      <path
         id="path310"
         transform="translate(48.5771,42.5415)"
         d="M 0,0 0.01,0.01" />
      <path
         id="path312"
         transform="translate(50.5664,42.4731)"
         d="M 0,0 0.01,0.01" />
      <path
         id="path314"
         transform="translate(52.623,42.7915)"
         d="M 0,0 0.01,0.01" />
      <path
         id="path316"
         transform="translate(0.6426,38.4639)"
         d="M 0,0 0.01,0.01" />
      <path
         id="path318"
         transform="translate(2.5683,38.5889)"
         d="M 0,0 0.01,0.01" />
      <path
         id="path320"
         transform="translate(4.5176,38.4639)"
         d="M 0,0 0.01,0.01" />
      <path
         id="path322"
         transform="translate(6.4551,38.021)"
         d="M 0,0 0.01,0.01" />
      <path
         id="path324"
         transform="translate(8.3008,37.6514)"
         d="M 0,0 0.01,0.01" />
      <path
         id="path326"
         transform="translate(10.3301,37.5264)"
         d="M 0,0 0.01,0.01" />
      <path
         id="path328"
         transform="translate(12.3867,37.8447)"
         d="M 0,0 0.01,0.01" />
      <path
         id="path330"
         transform="translate(14.2051,38.4639)"
         d="M 0,0 0.01,0.01" />
      <path
         id="path332"
         transform="translate(16.1308,38.5889)"
         d="M 0,0 0.01,0.01" />
      <path
         id="path334"
         transform="translate(18.0801,38.4639)"
         d="M 0,0 0.01,0.01" />
      <path
         id="path336"
         transform="translate(20.0176,38.021)"
         d="M 0,0 0.01,0.01" />
      <path
         id="path338"
         transform="translate(21.75,37.6514)"
         d="M 0,0 0.01,0.01" />
      <path
         id="path340"
         transform="translate(23.7558,37.5835)"
         d="M 0,0 0.01,0.01" />
      <path
         id="path342"
         transform="translate(25.8125,37.9014)"
         d="M 0,0 0.01,0.01" />
      <path
         id="path344"
         transform="translate(27.6308,38.521)"
         d="M 0,0 0.01,0.01" />
      <path
         id="path346"
         transform="translate(29.5566,38.646)"
         d="M 0,0 0.01,0.01" />
      <path
         id="path348"
         transform="translate(31.5058,38.521)"
         d="M 0,0 0.01,0.01" />
      <path
         id="path350"
         transform="translate(33.4433,38.0776)"
         d="M 0,0 0.01,0.01" />
      <path
         id="path352"
         transform="translate(35.3457,37.7085)"
         d="M 0,0 0.01,0.01" />
      <path
         id="path354"
         transform="translate(37.3242,37.5835)"
         d="M 0,0 0.01,0.01" />
      <path
         id="path356"
         transform="translate(39.3808,37.9014)"
         d="M 0,0 0.01,0.01" />
      <path
         id="path358"
         transform="translate(41.1992,38.521)"
         d="M 0,0 0.01,0.01" />
      <path
         id="path360"
         transform="translate(43.125,38.646)"
         d="M 0,0 0.01,0.01" />
      <path
         id="path362"
         transform="translate(45.0742,38.521)"
         d="M 0,0 0.01,0.01" />
      <path
         id="path364"
         transform="translate(47.0117,38.0776)"
         d="M 0,0 0.01,0.01" />
      <path
         id="path366"
         transform="translate(48.7441,37.7085)"
         d="M 0,0 0.01,0.01" />
      <path
         id="path368"
         transform="translate(50.7324,37.6401)"
         d="M 0,0 0.01,0.01" />
      <path
         id="path370"
         transform="translate(52.789,37.9585)"
         d="M 0,0 0.01,0.01" />
      <path
         id="path372"
         transform="translate(1.1572,32.6782)"
         d="M 0,0 0.01,0.01" />
      <path
         id="path374"
         transform="translate(2.9756,33.2974)"
         d="M 0,0 0.01,0.01" />
      <path
         id="path376"
         transform="translate(4.9013,33.4224)"
         d="M 0,0 0.01,0.01" />
      <path
         id="path378"
         transform="translate(6.8506,33.2974)"
         d="M 0,0 0.01,0.01" />
      <path
         id="path380"
         transform="translate(8.7881,32.854)"
         d="M 0,0 0.01,0.01" />
      <path
         id="path382"
         transform="translate(10.6347,32.4849)"
         d="M 0,0 0.01,0.01" />
      <path
         id="path384"
         transform="translate(12.6631,32.3599)"
         d="M 0,0 0.01,0.01" />
      <path
         id="path386"
         transform="translate(14.7197,32.6782)"
         d="M 0,0 0.01,0.01" />
      <path
         id="path388"
         transform="translate(16.5381,33.2974)"
         d="M 0,0 0.01,0.01" />
      <path
         id="path390"
         transform="translate(18.4638,33.4224)"
         d="M 0,0 0.01,0.01" />
      <path
         id="path392"
         transform="translate(20.4131,33.2974)"
         d="M 0,0 0.01,0.01" />
      <path
         id="path394"
         transform="translate(22.3506,32.854)"
         d="M 0,0 0.01,0.01" />
      <path
         id="path396"
         transform="translate(24.083,32.4849)"
         d="M 0,0 0.01,0.01" />
      <path
         id="path398"
         transform="translate(26.0888,32.4165)"
         d="M 0,0 0.01,0.01" />
      <path
         id="path400"
         transform="translate(28.1455,32.7349)"
         d="M 0,0 0.01,0.01" />
      <path
         id="path402"
         transform="translate(29.9638,33.354)"
         d="M 0,0 0.01,0.01" />
      <path
         id="path404"
         transform="translate(31.8896,33.479)"
         d="M 0,0 0.01,0.01" />
      <path
         id="path406"
         transform="translate(33.8388,33.354)"
         d="M 0,0 0.01,0.01" />
      <path
         id="path408"
         transform="translate(35.7763,32.9106)"
         d="M 0,0 0.01,0.01" />
      <path
         id="path410"
         transform="translate(37.6797,32.5415)"
         d="M 0,0 0.01,0.01" />
      <path
         id="path412"
         transform="translate(39.6572,32.4165)"
         d="M 0,0 0.01,0.01" />
      <path
         id="path414"
         transform="translate(41.7138,32.7349)"
         d="M 0,0 0.01,0.01" />
      <path
         id="path416"
         transform="translate(43.5322,33.354)"
         d="M 0,0 0.01,0.01" />
      <path
         id="path418"
         transform="translate(45.458,33.479)"
         d="M 0,0 0.01,0.01" />
      <path
         id="path420"
         transform="translate(47.4072,33.354)"
         d="M 0,0 0.01,0.01" />
      <path
         id="path422"
         transform="translate(49.3447,32.9106)"
         d="M 0,0 0.01,0.01" />
      <path
         id="path424"
         transform="translate(51.0771,32.5415)"
         d="M 0,0 0.01,0.01" />
      <path
         id="path426"
         transform="translate(53.0664,32.4731)"
         d="M 0,0 0.01,0.01" />
      <path
         id="path428"
         transform="translate(0.9912,28.0117)"
         d="M 0,0 0.01,0.01" />
      <path
         id="path430"
         transform="translate(2.8095,28.6309)"
         d="M 0,0 0.01,0.01" />
      <path
         id="path432"
         transform="translate(4.7353,28.7559)"
         d="M 0,0 0.01,0.01" />
      <path
         id="path434"
         transform="translate(6.6845,28.6309)"
         d="M 0,0 0.01,0.01" />
      <path
         id="path436"
         transform="translate(8.622,28.1875)"
         d="M 0,0 0.01,0.01" />
      <path
         id="path438"
         transform="translate(10.4677,27.8184)"
         d="M 0,0 0.01,0.01" />
      <path
         id="path440"
         transform="translate(12.497,27.6934)"
         d="M 0,0 0.01,0.01" />
      <path
         id="path442"
         transform="translate(14.5537,28.0117)"
         d="M 0,0 0.01,0.01" />
      <path
         id="path444"
         transform="translate(16.372,28.6309)"
         d="M 0,0 0.01,0.01" />
      <path
         id="path446"
         transform="translate(18.2978,28.7559)"
         d="M 0,0 0.01,0.01" />
      <path
         id="path448"
         transform="translate(20.247,28.6309)"
         d="M 0,0 0.01,0.01" />
      <path
         id="path450"
         transform="translate(22.1845,28.1875)"
         d="M 0,0 0.01,0.01" />
      <path
         id="path452"
         transform="translate(23.917,27.8184)"
         d="M 0,0 0.01,0.01" />
      <path
         id="path454"
         transform="translate(25.9228,27.75)"
         d="M 0,0 0.01,0.01" />
      <path
         id="path456"
         transform="translate(27.9795,28.0684)"
         d="M 0,0 0.01,0.01" />
      <path
         id="path458"
         transform="translate(29.7978,28.6875)"
         d="M 0,0 0.01,0.01" />
      <path
         id="path460"
         transform="translate(31.7236,28.8125)"
         d="M 0,0 0.01,0.01" />
      <path
         id="path462"
         transform="translate(33.6728,28.6875)"
         d="M 0,0 0.01,0.01" />
      <path
         id="path464"
         transform="translate(35.6103,28.2441)"
         d="M 0,0 0.01,0.01" />
      <path
         id="path466"
         transform="translate(37.5127,27.875)"
         d="M 0,0 0.01,0.01" />
      <path
         id="path468"
         transform="translate(39.4912,27.75)"
         d="M 0,0 0.01,0.01" />
      <path
         id="path470"
         transform="translate(41.5478,28.0684)"
         d="M 0,0 0.01,0.01" />
      <path
         id="path472"
         transform="translate(43.3662,28.6875)"
         d="M 0,0 0.01,0.01" />
      <path
         id="path474"
         transform="translate(45.292,28.8125)"
         d="M 0,0 0.01,0.01" />
      <path
         id="path476"
         transform="translate(47.2412,28.6875)"
         d="M 0,0 0.01,0.01" />
      <path
         id="path478"
         transform="translate(49.1787,28.2441)"
         d="M 0,0 0.01,0.01" />
      <path
         id="path480"
         transform="translate(50.9111,27.875)"
         d="M 0,0 0.01,0.01" />
      <path
         id="path482"
         transform="translate(52.8994,27.8066)"
         d="M 0,0 0.01,0.01" />
      <path
         id="path484"
         transform="translate(0.4746,22.6934)"
         d="M 0,0 0.01,0.01" />
      <path
         id="path486"
         transform="translate(2.3242,23.0117)"
         d="M 0,0 0.01,0.01" />
      <path
         id="path488"
         transform="translate(4.1426,23.6309)"
         d="M 0,0 0.01,0.01" />
      <path
         id="path490"
         transform="translate(6.0683,23.7559)"
         d="M 0,0 0.01,0.01" />
      <path
         id="path492"
         transform="translate(8.0176,23.6309)"
         d="M 0,0 0.01,0.01" />
      <path
         id="path494"
         transform="translate(9.9551,23.1875)"
         d="M 0,0 0.01,0.01" />
      <path
         id="path496"
         transform="translate(11.8008,22.8184)"
         d="M 0,0 0.01,0.01" />
      <path
         id="path498"
         transform="translate(13.8301,22.6934)"
         d="M 0,0 0.01,0.01" />
      <path
         id="path500"
         transform="translate(15.8867,23.0117)"
         d="M 0,0 0.01,0.01" />
      <path
         id="path502"
         transform="translate(17.7051,23.6309)"
         d="M 0,0 0.01,0.01" />
      <path
         id="path504"
         transform="translate(19.6308,23.7559)"
         d="M 0,0 0.01,0.01" />
      <path
         id="path506"
         transform="translate(21.5801,23.6309)"
         d="M 0,0 0.01,0.01" />
      <path
         id="path508"
         transform="translate(23.5176,23.1875)"
         d="M 0,0 0.01,0.01" />
      <path
         id="path510"
         transform="translate(25.25,22.8184)"
         d="M 0,0 0.01,0.01" />
      <path
         id="path512"
         transform="translate(27.2558,22.75)"
         d="M 0,0 0.01,0.01" />
      <path
         id="path514"
         transform="translate(29.3125,23.0684)"
         d="M 0,0 0.01,0.01" />
      <path
         id="path516"
         transform="translate(31.1308,23.6875)"
         d="M 0,0 0.01,0.01" />
      <path
         id="path518"
         transform="translate(33.0566,23.8125)"
         d="M 0,0 0.01,0.01" />
      <path
         id="path520"
         transform="translate(35.0058,23.6875)"
         d="M 0,0 0.01,0.01" />
      <path
         id="path522"
         transform="translate(36.9433,23.2441)"
         d="M 0,0 0.01,0.01" />
      <path
         id="path524"
         transform="translate(38.8457,22.875)"
         d="M 0,0 0.01,0.01" />
      <path
         id="path526"
         transform="translate(40.8242,22.75)"
         d="M 0,0 0.01,0.01" />
      <path
         id="path528"
         transform="translate(42.8808,23.0684)"
         d="M 0,0 0.01,0.01" />
      <path
         id="path530"
         transform="translate(44.6992,23.6875)"
         d="M 0,0 0.01,0.01" />
      <path
         id="path532"
         transform="translate(46.625,23.8125)"
         d="M 0,0 0.01,0.01" />
      <path
         id="path534"
         transform="translate(48.5742,23.6875)"
         d="M 0,0 0.01,0.01" />
      <path
         id="path536"
         transform="translate(50.5117,23.2441)"
         d="M 0,0 0.01,0.01" />
      <path
         id="path538"
         transform="translate(52.2441,22.875)"
         d="M 0,0 0.01,0.01" />
      <path
         id="path540"
         transform="translate(1.3242,17.6934)"
         d="M 0,0 0.01,0.01" />
      <path
         id="path542"
         transform="translate(3.3242,18.0117)"
         d="M 0,0 0.01,0.01" />
      <path
         id="path544"
         transform="translate(5.1426,18.6309)"
         d="M 0,0 0.01,0.01" />
      <path
         id="path546"
         transform="translate(7.0683,18.7559)"
         d="M 0,0 0.01,0.01" />
      <path
         id="path548"
         transform="translate(9.0176,18.6309)"
         d="M 0,0 0.01,0.01" />
      <path
         id="path550"
         transform="translate(10.9551,18.1875)"
         d="M 0,0 0.01,0.01" />
      <path
         id="path552"
         transform="translate(12.8008,17.8184)"
         d="M 0,0 0.01,0.01" />
      <path
         id="path554"
         transform="translate(14.8301,17.6934)"
         d="M 0,0 0.01,0.01" />
      <path
         id="path556"
         transform="translate(16.8867,18.0117)"
         d="M 0,0 0.01,0.01" />
      <path
         id="path558"
         transform="translate(18.7051,18.6309)"
         d="M 0,0 0.01,0.01" />
      <path
         id="path560"
         transform="translate(20.6308,18.7559)"
         d="M 0,0 0.01,0.01" />
      <path
         id="path562"
         transform="translate(22.5801,18.6309)"
         d="M 0,0 0.01,0.01" />
      <path
         id="path564"
         transform="translate(24.5176,18.1875)"
         d="M 0,0 0.01,0.01" />
      <path
         id="path566"
         transform="translate(26.25,17.8184)"
         d="M 0,0 0.01,0.01" />
      <path
         id="path568"
         transform="translate(28.2558,17.75)"
         d="M 0,0 0.01,0.01" />
      <path
         id="path570"
         transform="translate(30.3125,18.0684)"
         d="M 0,0 0.01,0.01" />
      <path
         id="path572"
         transform="translate(32.1308,18.6875)"
         d="M 0,0 0.01,0.01" />
      <path
         id="path574"
         transform="translate(34.0566,18.8125)"
         d="M 0,0 0.01,0.01" />
      <path
         id="path576"
         transform="translate(36.0058,18.6875)"
         d="M 0,0 0.01,0.01" />
      <path
         id="path578"
         transform="translate(37.9433,18.2441)"
         d="M 0,0 0.01,0.01" />
      <path
         id="path580"
         transform="translate(39.8457,17.875)"
         d="M 0,0 0.01,0.01" />
      <path
         id="path582"
         transform="translate(41.8242,17.75)"
         d="M 0,0 0.01,0.01" />
      <path
         id="path584"
         transform="translate(43.8808,18.0684)"
         d="M 0,0 0.01,0.01" />
      <path
         id="path586"
         transform="translate(45.6992,18.6875)"
         d="M 0,0 0.01,0.01" />
      <path
         id="path588"
         transform="translate(47.625,18.8125)"
         d="M 0,0 0.01,0.01" />
      <path
         id="path590"
         transform="translate(49.5742,18.6875)"
         d="M 0,0 0.01,0.01" />
      <path
         id="path592"
         transform="translate(51.5117,18.2441)"
         d="M 0,0 0.01,0.01" />
      <path
         id="path594"
         transform="translate(53.2441,17.875)"
         d="M 0,0 0.01,0.01" />
      <path
         id="path596"
         transform="translate(1.1572,12.8599)"
         d="M 0,0 0.01,0.01" />
      <path
         id="path598"
         transform="translate(3.1572,13.1782)"
         d="M 0,0 0.01,0.01" />
      <path
         id="path600"
         transform="translate(4.9756,13.7974)"
         d="M 0,0 0.01,0.01" />
      <path
         id="path602"
         transform="translate(6.9013,13.9224)"
         d="M 0,0 0.01,0.01" />
      <path
         id="path604"
         transform="translate(8.8506,13.7974)"
         d="M 0,0 0.01,0.01" />
      <path
         id="path606"
         transform="translate(10.7881,13.354)"
         d="M 0,0 0.01,0.01" />
      <path
         id="path608"
         transform="translate(12.6347,12.9849)"
         d="M 0,0 0.01,0.01" />
      <path
         id="path610"
         transform="translate(14.6631,12.8599)"
         d="M 0,0 0.01,0.01" />
      <path
         id="path612"
         transform="translate(16.7197,13.1782)"
         d="M 0,0 0.01,0.01" />
      <path
         id="path614"
         transform="translate(18.5381,13.7974)"
         d="M 0,0 0.01,0.01" />
      <path
         id="path616"
         transform="translate(20.4638,13.9224)"
         d="M 0,0 0.01,0.01" />
      <path
         id="path618"
         transform="translate(22.4131,13.7974)"
         d="M 0,0 0.01,0.01" />
      <path
         id="path620"
         transform="translate(24.3506,13.354)"
         d="M 0,0 0.01,0.01" />
      <path
         id="path622"
         transform="translate(26.083,12.9849)"
         d="M 0,0 0.01,0.01" />
      <path
         id="path624"
         transform="translate(28.0888,12.9165)"
         d="M 0,0 0.01,0.01" />
      <path
         id="path626"
         transform="translate(30.1455,13.2349)"
         d="M 0,0 0.01,0.01" />
      <path
         id="path628"
         transform="translate(31.9638,13.854)"
         d="M 0,0 0.01,0.01" />
      <path
         id="path630"
         transform="translate(33.8896,13.979)"
         d="M 0,0 0.01,0.01" />
      <path
         id="path632"
         transform="translate(35.8388,13.854)"
         d="M 0,0 0.01,0.01" />
      <path
         id="path634"
         transform="translate(37.7763,13.4106)"
         d="M 0,0 0.01,0.01" />
      <path
         id="path636"
         transform="translate(39.6797,13.0415)"
         d="M 0,0 0.01,0.01" />
      <path
         id="path638"
         transform="translate(41.6572,12.9165)"
         d="M 0,0 0.01,0.01" />
      <path
         id="path640"
         transform="translate(43.7138,13.2349)"
         d="M 0,0 0.01,0.01" />
      <path
         id="path642"
         transform="translate(45.5322,13.854)"
         d="M 0,0 0.01,0.01" />
      <path
         id="path644"
         transform="translate(47.458,13.979)"
         d="M 0,0 0.01,0.01" />
      <path
         id="path646"
         transform="translate(49.4072,13.854)"
         d="M 0,0 0.01,0.01" />
      <path
         id="path648"
         transform="translate(51.3447,13.4106)"
         d="M 0,0 0.01,0.01" />
      <path
         id="path650"
         transform="translate(53.0771,13.0415)"
         d="M 0,0 0.01,0.01" />
      <path
         id="path652"
         transform="translate(1.875,8.1367)"
         d="M 0,0 0.01,0.01" />
      <path
         id="path654"
         transform="translate(3.6933,8.7559)"
         d="M 0,0 0.01,0.01" />
      <path
         id="path656"
         transform="translate(5.6191,8.8809)"
         d="M 0,0 0.01,0.01" />
      <path
         id="path658"
         transform="translate(7.5683,8.7559)"
         d="M 0,0 0.01,0.01" />
      <path
         id="path660"
         transform="translate(9.5058,8.3125)"
         d="M 0,0 0.01,0.01" />
      <path
         id="path662"
         transform="translate(11.3515,7.9434)"
         d="M 0,0 0.01,0.01" />
      <path
         id="path664"
         transform="translate(13.3808,7.8184)"
         d="M 0,0 0.01,0.01" />
      <path
         id="path666"
         transform="translate(15.4375,8.1367)"
         d="M 0,0 0.01,0.01" />
      <path
         id="path668"
         transform="translate(17.2558,8.7559)"
         d="M 0,0 0.01,0.01" />
      <path
         id="path670"
         transform="translate(19.1816,8.8809)"
         d="M 0,0 0.01,0.01" />
      <path
         id="path672"
         transform="translate(21.1308,8.7559)"
         d="M 0,0 0.01,0.01" />
      <path
         id="path674"
         transform="translate(23.0683,8.3125)"
         d="M 0,0 0.01,0.01" />
      <path
         id="path676"
         transform="translate(24.8008,7.9434)"
         d="M 0,0 0.01,0.01" />
      <path
         id="path678"
         transform="translate(26.8066,7.875)"
         d="M 0,0 0.01,0.01" />
      <path
         id="path680"
         transform="translate(28.8633,8.1934)"
         d="M 0,0 0.01,0.01" />
      <path
         id="path682"
         transform="translate(30.6816,8.8125)"
         d="M 0,0 0.01,0.01" />
      <path
         id="path684"
         transform="translate(32.6074,8.9375)"
         d="M 0,0 0.01,0.01" />
      <path
         id="path686"
         transform="translate(34.5566,8.8125)"
         d="M 0,0 0.01,0.01" />
      <path
         id="path688"
         transform="translate(36.4941,8.3691)"
         d="M 0,0 0.01,0.01" />
      <path
         id="path690"
         transform="translate(38.3974,8)"
         d="M 0,0 0.01,0.01" />
      <path
         id="path692"
         transform="translate(40.375,7.875)"
         d="M 0,0 0.01,0.01" />
      <path
         id="path694"
         transform="translate(42.4316,8.1934)"
         d="M 0,0 0.01,0.01" />
      <path
         id="path696"
         transform="translate(44.25,8.8125)"
         d="M 0,0 0.01,0.01" />
      <path
         id="path698"
         transform="translate(46.1758,8.9375)"
         d="M 0,0 0.01,0.01" />
      <path
         id="path700"
         transform="translate(48.125,8.8125)"
         d="M 0,0 0.01,0.01" />
      <path
         id="path702"
         transform="translate(50.0625,8.3691)"
         d="M 0,0 0.01,0.01" />
      <path
         id="path704"
         transform="translate(51.7949,8)"
         d="M 0,0 0.01,0.01" />
      <path
         id="path706"
         transform="translate(53.7832,7.9316)"
         d="M 0,0 0.01,0.01" />
      <path
         id="path708"
         transform="translate(0.6045,3.2461)"
         d="M 0,0 0.01,0.01" />
      <path
         id="path710"
         transform="translate(2.4228,3.8662)"
         d="M 0,0 0.01,0.01" />
      <path
         id="path712"
         transform="translate(4.3486,3.9912)"
         d="M 0,0 0.01,0.01" />
      <path
         id="path714"
         transform="translate(6.2978,3.8662)"
         d="M 0,0 0.01,0.01" />
      <path
         id="path716"
         transform="translate(8.2353,3.4229)"
         d="M 0,0 0.01,0.01" />
      <path
         id="path718"
         transform="translate(10.081,3.0537)"
         d="M 0,0 0.01,0.01" />
      <path
         id="path720"
         transform="translate(12.1103,2.9287)"
         d="M 0,0 0.01,0.01" />
      <path
         id="path722"
         transform="translate(14.167,3.2461)"
         d="M 0,0 0.01,0.01" />
      <path
         id="path724"
         transform="translate(15.9853,3.8662)"
         d="M 0,0 0.01,0.01" />
      <path
         id="path726"
         transform="translate(17.9111,3.9912)"
         d="M 0,0 0.01,0.01" />
      <path
         id="path728"
         transform="translate(19.8603,3.8662)"
         d="M 0,0 0.01,0.01" />
      <path
         id="path730"
         transform="translate(21.7978,3.4229)"
         d="M 0,0 0.01,0.01" />
      <path
         id="path732"
         transform="translate(23.5302,3.0537)"
         d="M 0,0 0.01,0.01" />
      <path
         id="path734"
         transform="translate(25.5361,2.9854)"
         d="M 0,0 0.01,0.01" />
      <path
         id="path736"
         transform="translate(27.5927,3.3037)"
         d="M 0,0 0.01,0.01" />
      <path
         id="path738"
         transform="translate(29.4111,3.9229)"
         d="M 0,0 0.01,0.01" />
      <path
         id="path740"
         transform="translate(31.3369,4.0479)"
         d="M 0,0 0.01,0.01" />
      <path
         id="path742"
         transform="translate(33.2861,3.9229)"
         d="M 0,0 0.01,0.01" />
      <path
         id="path744"
         transform="translate(35.2236,3.4795)"
         d="M 0,0 0.01,0.01" />
      <path
         id="path746"
         transform="translate(37.126,3.1104)"
         d="M 0,0 0.01,0.01" />
      <path
         id="path748"
         transform="translate(39.1045,2.9854)"
         d="M 0,0 0.01,0.01" />
      <path
         id="path750"
         transform="translate(41.1611,3.3037)"
         d="M 0,0 0.01,0.01" />
      <path
         id="path752"
         transform="translate(42.9795,3.9229)"
         d="M 0,0 0.01,0.01" />
      <path
         id="path754"
         transform="translate(44.9052,4.0479)"
         d="M 0,0 0.01,0.01" />
      <path
         id="path756"
         transform="translate(46.8545,3.9229)"
         d="M 0,0 0.01,0.01" />
      <path
         id="path758"
         transform="translate(48.792,3.4795)"
         d="M 0,0 0.01,0.01" />
      <path
         id="path760"
         transform="translate(50.5244,3.1104)"
         d="M 0,0 0.01,0.01" />
      <path
         id="path762"
         transform="translate(52.5127,3.042)"
         d="M 0,0 0.01,0.01" />
    </g>
  </g>
</svg>
