<?xml version="1.0" encoding="UTF-8" standalone="no"?>
<svg
   xmlns:dc="http://purl.org/dc/elements/1.1/"
   xmlns:cc="http://creativecommons.org/ns#"
   xmlns:rdf="http://www.w3.org/1999/02/22-rdf-syntax-ns#"
   xmlns:svg="http://www.w3.org/2000/svg"
   xmlns="http://www.w3.org/2000/svg"
   height="54.125"
   width="54.125"
   id="svg742"
   version="1.1">
  <defs
     id="defs746" />
  <metadata
     id="metadata2">citation: U.S. Geological Survey, 2006, FGDC Digital Cartographic Standard for Geologic Map Symbolization (PostScript Implementation): U.S. Geological Survey Techniques and Methods 11-A2 [pubs.usgs.gov/tm/2006/11A02/]. converted by CEC Geology LLC 2018 from the USGS lithologic gs converted to inkscape by the University of Otago.<rdf:RDF>
  <cc:Work
     rdf:about="">
    <dc:format>image/svg+xml</dc:format>
    <dc:type
       rdf:resource="http://purl.org/dc/dcmitype/StillImage" />
    <dc:title></dc:title>
  </cc:Work>
</rdf:RDF>
</metadata>
  <g
     stroke="#231f20"
     fill="none"

     transform="matrix(1,0,0,-1,0,54.125)"
     id="g740"
     width="54.125"
     height="54.125">
    <path
       style="stroke-width:.3"
       id="path4"
       transform="translate(30.7739,50.375)"
       d="M 0,0 H -2.425" />
    <path
       style="stroke-width:.3"
       id="path6"
       transform="translate(17.3364,50.375)"
       d="M 0,0 H 11.013" />
    <path
       style="stroke-width:.3"
       id="path8"
       transform="translate(4.5864,50.375)"
       d="M 0,0 H 12.75" />
    <path
       style="stroke-width:.3"
       id="path10"
       transform="translate(42.0161,50.375)"
       d="M 0,0 H 3.133" />
    <path
       style="stroke-width:.3"
       id="path12"
       transform="translate(42.0161,50.375)"
       d="M 0,0 H -11.242" />
    <path
       style="stroke-width:.3"
       id="path14"
       transform="translate(54.125,50.375)"
       d="M 0,0 H -8.976" />
    <path
       style="stroke-width:.3"
       id="path16"
       transform="translate(4.5864,50.375)"
       d="M 0,0 H -4.586" />
    <path
       style="stroke-width:.3"
       id="path18"
       transform="translate(7.9697,46.2002)"
       d="M 0,0 H -7.97" />
    <path
       style="stroke-width:.3"
       id="path20"
       transform="translate(34.7822,46.2002)"
       d="M 0,0 H -26.813" />
    <path
       style="stroke-width:.3"
       id="path22"
       transform="translate(54.125,46.2002)"
       d="M 0,0 H -19.343" />
    <path
       style="stroke-width:.3"
       id="path24"
       transform="translate(27.5327,42.0127)"
       d="M 0,0 H -14.813" />
    <path
       style="stroke-width:.3"
       id="path26"
       transform="translate(53.7822,42.0127)"
       d="M 0,0 H 0.343" />
    <path
       style="stroke-width:.3"
       id="path28"
       transform="translate(40.9702,42.0127)"
       d="M 0,0 H 12.812" />
    <path
       style="stroke-width:.3"
       id="path30"
       transform="translate(27.5327,42.0127)"
       d="M 0,0 H 13.438" />
    <path
       style="stroke-width:.3"
       id="path32"
       transform="translate(12.7202,42.0127)"
       d="M 0,0 H -12.72" />
    <path
       style="stroke-width:.3"
       id="path34"
       transform="translate(54.1875,12.3999)"
       d="M 0,0 H -0.063" />
    <path
       style="stroke-width:.3"
       id="path36"
       transform="translate(12.602,12.3999)"
       d="M 0,0 H 14.5" />
    <path
       style="stroke-width:.3"
       id="path38"
       transform="translate(12.602,12.3999)"
       d="M 0,0 H -12.602" />
    <path
       style="stroke-width:.3"
       id="path40"
       transform="translate(53.6821,12.3999)"
       d="M 0,0 H 0.443" />
    <path
       style="stroke-width:.3"
       id="path42"
       transform="translate(27.102,12.3999)"
       d="M 0,0 H 14" />
    <path
       style="stroke-width:.3"
       id="path44"
       transform="translate(41.102,12.3999)"
       d="M 0,0 H 12.58" />
    <path
       style="stroke-width:.3"
       id="path46"
       transform="translate(32.4629,8.625)"
       d="M 0,0 H -7.674" />
    <path
       style="stroke-width:.3"
       id="path48"
       transform="translate(18.4629,8.625)"
       d="M 0,0 H 6.326" />
    <path
       style="stroke-width:.3"
       id="path50"
       transform="translate(5.4629,8.625)"
       d="M 0,0 H -5.463" />
    <path
       style="stroke-width:.3"
       id="path52"
       transform="translate(51.228,8.625)"
       d="M 0,0 H 2.897" />
    <path
       style="stroke-width:.3"
       id="path54"
       transform="translate(47.0625,8.625)"
       d="M 0,0 H -8.274" />
    <path
       style="stroke-width:.3"
       id="path56"
       transform="translate(5.4629,8.625)"
       d="M 0,0 H 4.826" />
    <path
       style="stroke-width:.3"
       id="path58"
       transform="translate(10.2886,8.625)"
       d="M 0,0 H 8.174" />
    <path
       style="stroke-width:.3"
       id="path60"
       transform="translate(32.4629,8.625)"
       d="M 0,0 H 6.326" />
    <path
       style="stroke-width:.3"
       id="path62"
       transform="translate(51.228,8.625)"
       d="M 0,0 H -4.165" />
    <path
       style="stroke-width:.3"
       id="path64"
       transform="translate(32.6211,37.9937)"
       d="M 0,0 H -13.313" />
    <path
       style="stroke-width:.3"
       id="path66"
       transform="translate(6.6211,37.9937)"
       d="M 0,0 H -6.621" />
    <path
       style="stroke-width:.3"
       id="path68"
       transform="translate(47.2461,37.9937)"
       d="M 0,0 H 6.879" />
    <path
       style="stroke-width:.3"
       id="path70"
       transform="translate(6.6211,37.9937)"
       d="M 0,0 H 12.688" />
    <path
       style="stroke-width:.3"
       id="path72"
       transform="translate(47.2461,37.9937)"
       d="M 0,0 H -14.625" />
    <path
       style="stroke-width:.3"
       id="path74"
       transform="translate(53.9111,34.7124)"
       d="M 0,0 H -12.058" />
    <path
       style="stroke-width:.3"
       id="path76"
       transform="translate(53.9111,34.7124)"
       d="M 0,0 H 0.214" />
    <path
       style="stroke-width:.3"
       id="path78"
       transform="translate(28.0405,34.7124)"
       d="M 0,0 H -15" />
    <path
       style="stroke-width:.3"
       id="path80"
       transform="translate(28.0405,34.7124)"
       d="M 0,0 H 13.813" />
    <path
       style="stroke-width:.3"
       id="path82"
       transform="translate(13.0405,34.7124)"
       d="M 0,0 H -13.04" />
    <path
       style="stroke-width:.3"
       id="path84"
       transform="translate(34.6099,31.2876)"
       d="M 0,0 H -13.688" />
    <path
       style="stroke-width:.3"
       id="path86"
       transform="translate(51.7114,31.2876)"
       d="M 0,0 H 2.414" />
    <path
       style="stroke-width:.3"
       id="path88"
       transform="translate(7.4849,31.2876)"
       d="M 0,0 H -7.485" />
    <path
       style="stroke-width:.3"
       id="path90"
       transform="translate(34.6099,31.2876)"
       d="M 0,0 H 14.938" />
    <path
       style="stroke-width:.3"
       id="path92"
       transform="translate(51.7114,31.2876)"
       d="M 0,0 H -2.164" />
    <path
       style="stroke-width:.3"
       id="path94"
       transform="translate(7.4849,31.2876)"
       d="M 0,0 H 13.438" />
    <path
       style="stroke-width:.3"
       id="path96"
       transform="translate(54.0547,27.2373)"
       d="M 0,0 H -13.188" />
    <path
       style="stroke-width:.3"
       id="path98"
       transform="translate(54.0547,27.2373)"
       d="M 0,0 H 0.07" />
    <path
       style="stroke-width:.3"
       id="path100"
       transform="translate(27.4922,27.2373)"
       d="M 0,0 H -15" />
    <path
       style="stroke-width:.3"
       id="path102"
       transform="translate(12.4922,27.2373)"
       d="M 0,0 H -12.492" />
    <path
       style="stroke-width:.3"
       id="path104"
       transform="translate(40.8672,27.2373)"
       d="M 0,0 H -13.375" />
    <path
       style="stroke-width:.3"
       id="path106"
       transform="translate(54.125,23.4375)"
       d="M 0,0 H -54.125" />
    <path
       style="stroke-width:.3"
       id="path108"
       transform="translate(54.125,19.2373)"
       d="M 0,0 H -54.125" />
    <path
       style="stroke-width:.3"
       id="path110"
       transform="translate(51.8208,16.0127)"
       d="M 0,0 H 2.304" />
    <path
       style="stroke-width:.3"
       id="path112"
       transform="translate(51.8208,16.0127)"
       d="M 0,0 H -51.821" />
    <path
       style="stroke-width:.3"
       id="path114"
       transform="translate(50.3901,0.8374)"
       d="M 0,0 H 3.735" />
    <path
       style="stroke-width:.3"
       id="path116"
       transform="translate(9.0151,0.8374)"
       d="M 0,0 H -9.015" />
    <path
       style="stroke-width:.3"
       id="path118"
       transform="translate(23.3276,0.8374)"
       d="M 0,0 H 13.688" />
    <path
       style="stroke-width:.3"
       id="path120"
       transform="translate(9.0151,0.8374)"
       d="M 0,0 H 14.313" />
    <path
       style="stroke-width:.3"
       id="path122"
       transform="translate(37.0151,0.8374)"
       d="M 0,0 H 13.375" />
    <path
       style="stroke-width:.3"
       id="path124"
       transform="translate(54.125,4.2124)"
       d="M 0,0 H -54.125" />
    <path
       style="stroke-width:.3"
       id="path126"
       transform="translate(5.4629,8.625)"
       d="M 0,0 -2.592,-4.387" />
    <path
       style="stroke-width:.3"
       id="path128"
       transform="translate(5.4629,8.625)"
       d="M 0,0 0.037,0.063" />
    <path
       style="stroke-width:.3"
       id="path130"
       transform="translate(15.8706,4.2378)"
       d="M 0,0 2.592,4.387" />
    <path
       style="stroke-width:.3"
       id="path132"
       transform="translate(18.4629,8.625)"
       d="M 0,0 0.037,0.063" />
    <path
       style="stroke-width:.3"
       id="path134"
       transform="translate(32.4629,8.625)"
       d="M 0,0 -2.592,-4.387" />
    <path
       style="stroke-width:.3"
       id="path136"
       transform="translate(32.4629,8.625)"
       d="M 0,0 0.037,0.063" />
    <path
       style="stroke-width:.3"
       id="path138"
       transform="translate(47.0625,8.625)"
       d="M 0,0 -2.629,-4.387" />
    <path
       style="stroke-width:.3"
       id="path140"
       transform="translate(50.3901,0.8374)"
       d="M 0,0 2.047,3.35" />
    <path
       style="stroke-width:.3"
       id="path142"
       transform="translate(50.3901,0.8374)"
       d="M 0,0 -0.015,-0.025" />
    <path
       style="stroke-width:.3"
       id="path144"
       transform="translate(37.0151,0.8374)"
       d="M 0,0 2.047,3.35" />
    <path
       style="stroke-width:.3"
       id="path146"
       transform="translate(37.0151,0.8374)"
       d="M 0,0 -0.015,-0.025" />
    <path
       style="stroke-width:.3"
       id="path148"
       transform="translate(23.3276,0.8374)"
       d="M 0,0 2.047,3.35" />
    <path
       style="stroke-width:.3"
       id="path150"
       transform="translate(23.3276,0.8374)"
       d="M 0,0 -0.015,-0.025" />
    <path
       style="stroke-width:.3"
       id="path152"
       transform="translate(9.0151,0.8374)"
       d="M 0,0 -0.015,-0.025" />
    <path
       style="stroke-width:.3"
       id="path154"
       transform="translate(9.0151,0.8374)"
       d="M 0,0 2.047,3.35" />
    <path
       style="stroke-width:.3"
       id="path156"
       transform="translate(51.228,8.625)"
       d="M 0,0 -0.04,-0.063" />
    <path
       style="stroke-width:.3"
       id="path158"
       transform="translate(53.6821,12.3999)"
       d="M 0,0 0.014,0.021" />
    <path
       style="stroke-width:.3"
       id="path160"
       transform="translate(51.228,8.625)"
       d="M 0,0 2.454,3.775" />
    <path
       style="stroke-width:.3"
       id="path162"
       transform="translate(47.3125,12.4375)"
       d="M 0,0 2.125,3.563" />
    <path
       style="stroke-width:.3"
       id="path164"
       transform="translate(44.8125,19.3125)"
       d="M 0,0 2.563,4.063" />
    <path
       style="stroke-width:.3"
       id="path166"
       transform="translate(51.8208,16.0127)"
       d="M 0,0 -0.008,-0.013" />
    <path
       style="stroke-width:.3"
       id="path168"
       transform="translate(51.8208,16.0127)"
       d="M 0,0 2.042,3.2" />
    <path
       style="stroke-width:.3"
       id="path170"
       transform="translate(54.0547,27.2373)"
       d="M 0,0 -2.242,-3.737" />
    <path
       style="stroke-width:.3"
       id="path172"
       transform="translate(54.0625,27.25)"
       d="M 0,0 -0.008,-0.013" />
    <path
       style="stroke-width:.3"
       id="path174"
       transform="translate(49.5474,31.2876)"
       d="M 0,0 -2.422,-4.038" />
    <path
       style="stroke-width:.3"
       id="path176"
       transform="translate(49.5474,31.2876)"
       d="M 0,0 0.015,0.025" />
    <path
       style="stroke-width:.3"
       id="path178"
       transform="translate(53.9111,34.7124)"
       d="M 0,0 0.014,0.021" />
    <path
       style="stroke-width:.3"
       id="path180"
       transform="translate(51.7114,31.2876)"
       d="M 0,0 2.2,3.425" />
    <path
       style="stroke-width:.3"
       id="path182"
       transform="translate(51.7114,31.2876)"
       d="M 0,0 -0.024,-0.038" />
    <path
       style="stroke-width:.3"
       id="path184"
       transform="translate(47.2461,37.9937)"
       d="M 0,0 0.004,0.006" />
    <path
       style="stroke-width:.3"
       id="path186"
       transform="translate(47.2461,37.9937)"
       d="M 0,0 -1.996,-3.244" />
    <path
       style="stroke-width:.3"
       id="path188"
       transform="translate(51.3589,38)"
       d="M 0,0 2.423,4.013" />
    <path
       style="stroke-width:.3"
       id="path190"
       transform="translate(53.7822,42.0127)"
       d="M 0,0 0.03,0.05" />
    <path
       style="stroke-width:.3"
       id="path192"
       transform="translate(46.1875,42.0625)"
       d="M 0,0 2.654,4.108" />
    <path
       style="stroke-width:.3"
       id="path194"
       transform="translate(53.9038,50.3584)"
       d="M 0,0 -2.612,-4.108" />
    <path
       style="stroke-width:.3"
       id="path196"
       transform="translate(45.1489,50.375)"
       d="M 0,0 -0.007,-0.012" />
    <path
       style="stroke-width:.3"
       id="path198"
       transform="translate(45.1489,50.375)"
       d="M 0,0 2.284,3.75" />
    <path
       style="stroke-width:.3"
       id="path200"
       transform="translate(38.75,8.5625)"
       d="M 0,0 0.039,0.063" />
    <path
       style="stroke-width:.3"
       id="path202"
       transform="translate(38.7886,8.625)"
       d="M 0,0 2.313,3.775" />
    <path
       style="stroke-width:.3"
       id="path204"
       transform="translate(41.102,12.3999)"
       d="M 0,0 0.023,0.038" />
    <path
       style="stroke-width:.3"
       id="path206"
       transform="translate(27.102,12.3999)"
       d="M 0,0 0.023,0.038" />
    <path
       style="stroke-width:.3"
       id="path208"
       transform="translate(24.75,8.5625)"
       d="M 0,0 0.039,0.063" />
    <path
       style="stroke-width:.3"
       id="path210"
       transform="translate(24.7886,8.625)"
       d="M 0,0 2.313,3.775" />
    <path
       style="stroke-width:.3"
       id="path212"
       transform="translate(12.602,12.3999)"
       d="M 0,0 -2.313,-3.775" />
    <path
       style="stroke-width:.3"
       id="path214"
       transform="translate(12.602,12.3999)"
       d="M 0,0 0.023,0.038" />
    <path
       style="stroke-width:.3"
       id="path216"
       transform="translate(10.25,8.5625)"
       d="M 0,0 0.039,0.063" />
    <path
       style="stroke-width:.3"
       id="path218"
       transform="translate(32.4375,12.4375)"
       d="M 0,0 2.125,3.563" />
    <path
       style="stroke-width:.3"
       id="path220"
       transform="translate(18.75,12.4375)"
       d="M 0,0 2.125,3.563" />
    <path
       style="stroke-width:.3"
       id="path222"
       transform="translate(5.5,12.4375)"
       d="M 0,0 2.125,3.563" />
    <path
       style="stroke-width:.3"
       id="path224"
       transform="translate(40,16.0625)"
       d="M 0,0 1.938,3.125" />
    <path
       style="stroke-width:.3"
       id="path226"
       transform="translate(25.75,16.0625)"
       d="M 0,0 1.938,3.125" />
    <path
       style="stroke-width:.3"
       id="path228"
       transform="translate(10.6875,16.0625)"
       d="M 0,0 1.938,3.125" />
    <path
       style="stroke-width:.3"
       id="path230"
       transform="translate(30.5,19.3125)"
       d="M 0,0 2.563,4.063" />
    <path
       style="stroke-width:.3"
       id="path232"
       transform="translate(16.875,19.3125)"
       d="M 0,0 2.563,4.063" />
    <path
       style="stroke-width:.3"
       id="path234"
       transform="translate(3.875,19.3125)"
       d="M 0,0 2.563,4.063" />
    <path
       style="stroke-width:.3"
       id="path236"
       transform="translate(40.875,27.25)"
       d="M 0,0 -0.008,-0.013" />
    <path
       style="stroke-width:.3"
       id="path238"
       transform="translate(40.8672,27.2373)"
       d="M 0,0 -2.242,-3.737" />
    <path
       style="stroke-width:.3"
       id="path240"
       transform="translate(27.5,27.25)"
       d="M 0,0 -0.008,-0.013" />
    <path
       style="stroke-width:.3"
       id="path242"
       transform="translate(27.4922,27.2373)"
       d="M 0,0 -2.242,-3.737" />
    <path
       style="stroke-width:.3"
       id="path244"
       transform="translate(12.4922,27.2373)"
       d="M 0,0 -2.242,-3.737" />
    <path
       style="stroke-width:.3"
       id="path246"
       transform="translate(12.4922,27.2373)"
       d="M 0,0 0.008,0.013" />
    <path
       style="stroke-width:.3"
       id="path248"
       transform="translate(34.6099,31.2876)"
       d="M 0,0 0.015,0.025" />
    <path
       style="stroke-width:.3"
       id="path250"
       transform="translate(34.6099,31.2876)"
       d="M 0,0 -2.422,-4.038" />
    <path
       style="stroke-width:.3"
       id="path252"
       transform="translate(18.5,27.25)"
       d="M 0,0 2.422,4.038" />
    <path
       style="stroke-width:.3"
       id="path254"
       transform="translate(20.9375,31.3125)"
       d="M 0,0 -0.015,-0.025" />
    <path
       style="stroke-width:.3"
       id="path256"
       transform="translate(7.4849,31.2876)"
       d="M 0,0 0.015,0.025" />
    <path
       style="stroke-width:.3"
       id="path258"
       transform="translate(7.4849,31.2876)"
       d="M 0,0 -2.422,-4.038" />
    <path
       style="stroke-width:.3"
       id="path260"
       transform="translate(41.875,34.75)"
       d="M 0,0 -0.022,-0.038" />
    <path
       style="stroke-width:.3"
       id="path262"
       transform="translate(39.875,31.3125)"
       d="M 0,0 1.978,3.4" />
    <path
       style="stroke-width:.3"
       id="path264"
       transform="translate(28.0405,34.7124)"
       d="M 0,0 -1.978,-3.4" />
    <path
       style="stroke-width:.3"
       id="path266"
       transform="translate(28.0405,34.7124)"
       d="M 0,0 0.022,0.038" />
    <path
       style="stroke-width:.3"
       id="path268"
       transform="translate(13.0405,34.7124)"
       d="M 0,0 0.022,0.038" />
    <path
       style="stroke-width:.3"
       id="path270"
       transform="translate(13.0405,34.7124)"
       d="M 0,0 -1.978,-3.4" />
    <path
       style="stroke-width:.3"
       id="path272"
       transform="translate(32.6211,37.9937)"
       d="M 0,0 -1.996,-3.244" />
    <path
       style="stroke-width:.3"
       id="path274"
       transform="translate(32.6211,37.9937)"
       d="M 0,0 0.004,0.006" />
    <path
       style="stroke-width:.3"
       id="path276"
       transform="translate(19.3125,38)"
       d="M 0,0 -0.004,-0.006" />
    <path
       style="stroke-width:.3"
       id="path278"
       transform="translate(17.3125,34.75)"
       d="M 0,0 1.996,3.244" />
    <path
       style="stroke-width:.3"
       id="path280"
       transform="translate(6.6211,37.9937)"
       d="M 0,0 -1.996,-3.244" />
    <path
       style="stroke-width:.3"
       id="path282"
       transform="translate(6.6211,37.9937)"
       d="M 0,0 0.004,0.006" />
    <path
       style="stroke-width:.3"
       id="path284"
       transform="translate(40.9702,42.0127)"
       d="M 0,0 0.03,0.05" />
    <path
       style="stroke-width:.3"
       id="path286"
       transform="translate(38.5625,38)"
       d="M 0,0 2.408,4.013" />
    <path
       style="stroke-width:.3"
       id="path288"
       transform="translate(27.5327,42.0127)"
       d="M 0,0 0.03,0.05" />
    <path
       style="stroke-width:.3"
       id="path290"
       transform="translate(27.5327,42.0127)"
       d="M 0,0 -2.408,-4.013" />
    <path
       style="stroke-width:.3"
       id="path292"
       transform="translate(12.7202,42.0127)"
       d="M 0,0 -2.408,-4.013" />
    <path
       style="stroke-width:.3"
       id="path294"
       transform="translate(12.7202,42.0127)"
       d="M 0,0 0.03,0.05" />
    <path
       style="stroke-width:.3"
       id="path296"
       transform="translate(34.7822,46.2002)"
       d="M 0,0 0.03,0.05" />
    <path
       style="stroke-width:.3"
       id="path298"
       transform="translate(34.7822,46.2002)"
       d="M 0,0 -2.532,-4.138" />
    <path
       style="stroke-width:.3"
       id="path300"
       transform="translate(18.625,42.0625)"
       d="M 0,0 2.5,4.125" />
    <path
       style="stroke-width:.3"
       id="path302"
       transform="translate(7.9697,46.2002)"
       d="M 0,0 0.03,0.05" />
    <path
       style="stroke-width:.3"
       id="path304"
       transform="translate(7.9697,46.2002)"
       d="M 0,0 -2.532,-4.138" />
    <path
       style="stroke-width:.3"
       id="path306"
       transform="translate(42.0161,50.375)"
       d="M 0,0 0.025,0.042" />
    <path
       style="stroke-width:.3"
       id="path308"
       transform="translate(42.0161,50.375)"
       d="M 0,0 -2.516,-4.125" />
    <path
       style="stroke-width:.3"
       id="path310"
       transform="translate(25.8125,46.25)"
       d="M 0,0 2.537,4.125" />
    <path
       style="stroke-width:.3"
       id="path312"
       transform="translate(28.375,50.417)"
       d="M 0,0 -0.026,-0.042" />
    <path
       style="stroke-width:.3"
       id="path314"
       transform="translate(13.458,50.3335)"
       d="M 0,0 -2.521,-4.083" />
    <path
       style="stroke-width:.3"
       id="path316"
       transform="translate(30.7666,50.3628)"
       d="M 0,0 0.007,0.012" />
    <path
       style="stroke-width:.3"
       id="path318"
       transform="translate(30.7739,50.375)"
       d="M 0,0 2.284,3.75" />
    <path
       style="stroke-width:.3"
       id="path320"
       transform="translate(17.3291,50.3628)"
       d="M 0,0 0.007,0.012" />
    <path
       style="stroke-width:.3"
       id="path322"
       transform="translate(17.3364,50.375)"
       d="M 0,0 2.284,3.75" />
    <path
       style="stroke-width:.3"
       id="path324"
       transform="translate(4.5864,50.375)"
       d="M 0,0 -0.007,-0.012" />
    <path
       style="stroke-width:.3"
       id="path326"
       transform="translate(6.8706,54.125)"
       d="M 0,0 -2.284,-3.75" />
    <path
       style="stroke-width:.3"
       id="path328"
       transform="translate(47.875,0.75)"
       d="M 0,0 -0.452,-0.75" />
    <path
       style="stroke-width:.3"
       id="path330"
       transform="translate(33.5,0.75)"
       d="M 0,0 -0.452,-0.75" />
    <path
       style="stroke-width:.3"
       id="path332"
       transform="translate(20.0625,0.75)"
       d="M 0,0 -0.452,-0.75" />
    <path
       style="stroke-width:.3"
       id="path334"
       transform="translate(7.3125,0.75)"
       d="M 0,0 -0.452,-0.75" />
    <g
       style="stroke-width:0.69999999;stroke-linecap:round"
       id="g738">
      <path
         id="path336"
         transform="translate(33.6084,20.417)"
         d="M 0,0 0.01,0.01" />
      <path
         id="path338"
         transform="translate(37.0415,22.167)"
         d="M 0,0 0.01,0.01" />
      <path
         id="path340"
         transform="translate(39.958,20.3335)"
         d="M 0,0 0.01,0.01" />
      <path
         id="path342"
         transform="translate(43.375,22.0835)"
         d="M 0,0 0.01,0.01" />
      <path
         id="path344"
         transform="translate(19.625,20.417)"
         d="M 0,0 0.01,0.01" />
      <path
         id="path346"
         transform="translate(23.0581,22.167)"
         d="M 0,0 0.01,0.01" />
      <path
         id="path348"
         transform="translate(25.9746,20.3335)"
         d="M 0,0 0.01,0.01" />
      <path
         id="path350"
         transform="translate(29.3916,22.0835)"
         d="M 0,0 0.01,0.01" />
      <path
         id="path352"
         transform="translate(6.2915,20.417)"
         d="M 0,0 0.01,0.01" />
      <path
         id="path354"
         transform="translate(9.7246,22.167)"
         d="M 0,0 0.01,0.01" />
      <path
         id="path356"
         transform="translate(12.6416,20.3335)"
         d="M 0,0 0.01,0.01" />
      <path
         id="path358"
         transform="translate(16.0581,22.0835)"
         d="M 0,0 0.01,0.01" />
      <path
         id="path360"
         transform="translate(47.2915,20.417)"
         d="M 0,0 0.01,0.01" />
      <path
         id="path362"
         transform="translate(50.7246,22.167)"
         d="M 0,0 0.01,0.01" />
      <path
         id="path364"
         transform="translate(53.6416,20.3335)"
         d="M 0,0 0.01,0.01" />
      <path
         id="path366"
         transform="translate(41.2915,9.667)"
         d="M 0,0 0.01,0.01" />
      <path
         id="path368"
         transform="translate(44.7246,11.417)"
         d="M 0,0 0.01,0.01" />
      <path
         id="path370"
         transform="translate(47.6416,9.5835)"
         d="M 0,0 0.01,0.01" />
      <path
         id="path372"
         transform="translate(51.0581,11.3335)"
         d="M 0,0 0.01,0.01" />
      <path
         id="path374"
         transform="translate(27.7915,9.667)"
         d="M 0,0 0.01,0.01" />
      <path
         id="path376"
         transform="translate(31.2246,11.417)"
         d="M 0,0 0.01,0.01" />
      <path
         id="path378"
         transform="translate(34.1416,9.5835)"
         d="M 0,0 0.01,0.01" />
      <path
         id="path380"
         transform="translate(37.5581,11.3335)"
         d="M 0,0 0.01,0.01" />
      <path
         id="path382"
         transform="translate(13.958,9.667)"
         d="M 0,0 0.01,0.01" />
      <path
         id="path384"
         transform="translate(17.3916,11.417)"
         d="M 0,0 0.01,0.01" />
      <path
         id="path386"
         transform="translate(20.3081,9.5835)"
         d="M 0,0 0.01,0.01" />
      <path
         id="path388"
         transform="translate(23.7246,11.3335)"
         d="M 0,0 0.01,0.01" />
      <path
         id="path390"
         transform="translate(0.458,9.667)"
         d="M 0,0 0.01,0.01" />
      <path
         id="path392"
         transform="translate(3.8916,11.417)"
         d="M 0,0 0.01,0.01" />
      <path
         id="path394"
         transform="translate(6.8081,9.5835)"
         d="M 0,0 0.01,0.01" />
      <path
         id="path396"
         transform="translate(10.2246,11.3335)"
         d="M 0,0 0.01,0.01" />
      <path
         id="path398"
         transform="translate(5.458,5.3335)"
         d="M 0,0 0.01,0.01" />
      <path
         id="path400"
         transform="translate(8.8916,7.0835)"
         d="M 0,0 0.01,0.01" />
      <path
         id="path402"
         transform="translate(11.8081,5.25)"
         d="M 0,0 0.01,0.01" />
      <path
         id="path404"
         transform="translate(15.2246,7)"
         d="M 0,0 0.01,0.01" />
      <path
         id="path406"
         transform="translate(19.2915,5.3335)"
         d="M 0,0 0.01,0.01" />
      <path
         id="path408"
         transform="translate(22.7246,7.0835)"
         d="M 0,0 0.01,0.01" />
      <path
         id="path410"
         transform="translate(25.6416,5.25)"
         d="M 0,0 0.01,0.01" />
      <path
         id="path412"
         transform="translate(29.0581,7)"
         d="M 0,0 0.01,0.01" />
      <path
         id="path414"
         transform="translate(33.2583,5.3335)"
         d="M 0,0 0.01,0.01" />
      <path
         id="path416"
         transform="translate(36.6914,7.0835)"
         d="M 0,0 0.01,0.01" />
      <path
         id="path418"
         transform="translate(39.6079,5.25)"
         d="M 0,0 0.01,0.01" />
      <path
         id="path420"
         transform="translate(43.0249,7)"
         d="M 0,0 0.01,0.01" />
      <path
         id="path422"
         transform="translate(41.125,3.167)"
         d="M 0,0 0.01,0.01" />
      <path
         id="path424"
         transform="translate(45.458,2.1333)"
         d="M 0,0 0.01,0.01" />
      <path
         id="path426"
         transform="translate(49.2915,3.3335)"
         d="M 0,0 0.01,0.01" />
      <path
         id="path428"
         transform="translate(13.625,3.167)"
         d="M 0,0 0.01,0.01" />
      <path
         id="path430"
         transform="translate(17.958,2.1333)"
         d="M 0,0 0.01,0.01" />
      <path
         id="path432"
         transform="translate(21.7915,3.3335)"
         d="M 0,0 0.01,0.01" />
      <path
         id="path434"
         transform="translate(22.125,14.5337)"
         d="M 0,0 0.01,0.01" />
      <path
         id="path436"
         transform="translate(26.458,13.5)"
         d="M 0,0 0.01,0.01" />
      <path
         id="path438"
         transform="translate(30.2915,14.7002)"
         d="M 0,0 0.01,0.01" />
      <path
         id="path440"
         transform="translate(0.958,13.5)"
         d="M 0,0 0.01,0.01" />
      <path
         id="path442"
         transform="translate(4.7915,14.7002)"
         d="M 0,0 0.01,0.01" />
      <path
         id="path444"
         transform="translate(50.2915,14.5337)"
         d="M 0,0 0.01,0.01" />
      <path
         id="path446"
         transform="translate(42.7915,18.0337)"
         d="M 0,0 0.01,0.01" />
      <path
         id="path448"
         transform="translate(47.125,17)"
         d="M 0,0 0.01,0.01" />
      <path
         id="path450"
         transform="translate(50.958,18.2002)"
         d="M 0,0 0.01,0.01" />
      <path
         id="path452"
         transform="translate(15.2915,18.0337)"
         d="M 0,0 0.01,0.01" />
      <path
         id="path454"
         transform="translate(19.625,17)"
         d="M 0,0 0.01,0.01" />
      <path
         id="path456"
         transform="translate(23.458,18.2002)"
         d="M 0,0 0.01,0.01" />
      <path
         id="path458"
         transform="translate(30.2915,33.3667)"
         d="M 0,0 0.01,0.01" />
      <path
         id="path460"
         transform="translate(34.625,32.3335)"
         d="M 0,0 0.01,0.01" />
      <path
         id="path462"
         transform="translate(38.458,33.5337)"
         d="M 0,0 0.01,0.01" />
      <path
         id="path464"
         transform="translate(26.958,2.3003)"
         d="M 0,0 0.01,0.01" />
      <path
         id="path466"
         transform="translate(31.2915,3.3335)"
         d="M 0,0 0.01,0.01" />
      <path
         id="path468"
         transform="translate(35.125,2.1333)"
         d="M 0,0 0.01,0.01" />
      <path
         id="path470"
         transform="translate(3.458,3.3335)"
         d="M 0,0 0.01,0.01" />
      <path
         id="path472"
         transform="translate(7.2915,2.1333)"
         d="M 0,0 0.01,0.01" />
      <path
         id="path474"
         transform="translate(53.2915,2.3003)"
         d="M 0,0 0.01,0.01" />
      <path
         id="path476"
         transform="translate(36.7915,13.9668)"
         d="M 0,0 0.01,0.01" />
      <path
         id="path478"
         transform="translate(41.125,15)"
         d="M 0,0 0.01,0.01" />
      <path
         id="path480"
         transform="translate(44.958,13.8003)"
         d="M 0,0 0.01,0.01" />
      <path
         id="path482"
         transform="translate(8.958,13.8003)"
         d="M 0,0 0.01,0.01" />
      <path
         id="path484"
         transform="translate(13.2915,14.8335)"
         d="M 0,0 0.01,0.01" />
      <path
         id="path486"
         transform="translate(17.125,13.6333)"
         d="M 0,0 0.01,0.01" />
      <path
         id="path488"
         transform="translate(29.458,17.1333)"
         d="M 0,0 0.01,0.01" />
      <path
         id="path490"
         transform="translate(33.7915,18.167)"
         d="M 0,0 0.01,0.01" />
      <path
         id="path492"
         transform="translate(37.625,16.9668)"
         d="M 0,0 0.01,0.01" />
      <path
         id="path494"
         transform="translate(0.958,17.1333)"
         d="M 0,0 0.01,0.01" />
      <path
         id="path496"
         transform="translate(5.2915,18.167)"
         d="M 0,0 0.01,0.01" />
      <path
         id="path498"
         transform="translate(9.125,16.9668)"
         d="M 0,0 0.01,0.01" />
      <path
         id="path500"
         transform="translate(2.125,20.9668)"
         d="M 0,0 0.01,0.01" />
      <path
         id="path502"
         transform="translate(15.2915,32.8003)"
         d="M 0,0 0.01,0.01" />
      <path
         id="path504"
         transform="translate(19.625,33.8335)"
         d="M 0,0 0.01,0.01" />
      <path
         id="path506"
         transform="translate(23.458,32.6333)"
         d="M 0,0 0.01,0.01" />
      <path
         id="path508"
         transform="translate(42.7915,32.6333)"
         d="M 0,0 0.01,0.01" />
      <path
         id="path510"
         transform="translate(47.125,33.667)"
         d="M 0,0 0.01,0.01" />
      <path
         id="path512"
         transform="translate(50.958,32.4668)"
         d="M 0,0 0.01,0.01" />
      <path
         id="path514"
         transform="translate(34.625,35.8003)"
         d="M 0,0 0.01,0.01" />
      <path
         id="path516"
         transform="translate(38.958,36.8335)"
         d="M 0,0 0.01,0.01" />
      <path
         id="path518"
         transform="translate(42.7915,35.6333)"
         d="M 0,0 0.01,0.01" />
      <path
         id="path520"
         transform="translate(7.625,35.8003)"
         d="M 0,0 0.01,0.01" />
      <path
         id="path522"
         transform="translate(11.958,36.8335)"
         d="M 0,0 0.01,0.01" />
      <path
         id="path524"
         transform="translate(15.7915,35.6333)"
         d="M 0,0 0.01,0.01" />
      <path
         id="path526"
         transform="translate(0.958,33.3667)"
         d="M 0,0 0.01,0.01" />
      <path
         id="path528"
         transform="translate(5.2915,32.3335)"
         d="M 0,0 0.01,0.01" />
      <path
         id="path530"
         transform="translate(9.125,33.5337)"
         d="M 0,0 0.01,0.01" />
      <path
         id="path532"
         transform="translate(3.2915,36.7002)"
         d="M 0,0 0.01,0.01" />
      <path
         id="path534"
         transform="translate(48.458,36.5337)"
         d="M 0,0 0.01,0.01" />
      <path
         id="path536"
         transform="translate(52.7915,35.5)"
         d="M 0,0 0.01,0.01" />
      <path
         id="path538"
         transform="translate(20.7915,36.5337)"
         d="M 0,0 0.01,0.01" />
      <path
         id="path540"
         transform="translate(25.125,35.5)"
         d="M 0,0 0.01,0.01" />
      <path
         id="path542"
         transform="translate(28.958,36.7002)"
         d="M 0,0 0.01,0.01" />
      <path
         id="path544"
         transform="translate(46.7915,5.3335)"
         d="M 0,0 0.01,0.01" />
      <path
         id="path546"
         transform="translate(50.2246,7.0835)"
         d="M 0,0 0.01,0.01" />
      <path
         id="path548"
         transform="translate(53.1416,5.25)"
         d="M 0,0 0.01,0.01" />
      <path
         id="path550"
         transform="translate(41.125,24.3335)"
         d="M 0,0 0.01,0.01" />
      <path
         id="path552"
         transform="translate(44.5581,26.0835)"
         d="M 0,0 0.01,0.01" />
      <path
         id="path554"
         transform="translate(47.4746,24.25)"
         d="M 0,0 0.01,0.01" />
      <path
         id="path556"
         transform="translate(50.8916,26)"
         d="M 0,0 0.01,0.01" />
      <path
         id="path558"
         transform="translate(27.625,24.3335)"
         d="M 0,0 0.01,0.01" />
      <path
         id="path560"
         transform="translate(31.0581,26.0835)"
         d="M 0,0 0.01,0.01" />
      <path
         id="path562"
         transform="translate(33.9746,24.25)"
         d="M 0,0 0.01,0.01" />
      <path
         id="path564"
         transform="translate(37.3916,26)"
         d="M 0,0 0.01,0.01" />
      <path
         id="path566"
         transform="translate(14.125,24.3335)"
         d="M 0,0 0.01,0.01" />
      <path
         id="path568"
         transform="translate(17.5581,26.0835)"
         d="M 0,0 0.01,0.01" />
      <path
         id="path570"
         transform="translate(20.4746,24.25)"
         d="M 0,0 0.01,0.01" />
      <path
         id="path572"
         transform="translate(23.8916,26)"
         d="M 0,0 0.01,0.01" />
      <path
         id="path574"
         transform="translate(3.0581,26.0835)"
         d="M 0,0 0.01,0.01" />
      <path
         id="path576"
         transform="translate(5.9746,24.25)"
         d="M 0,0 0.01,0.01" />
      <path
         id="path578"
         transform="translate(9.3916,26)"
         d="M 0,0 0.01,0.01" />
      <path
         id="path580"
         transform="translate(7.625,28.3335)"
         d="M 0,0 0.01,0.01" />
      <path
         id="path582"
         transform="translate(11.0581,30.0835)"
         d="M 0,0 0.01,0.01" />
      <path
         id="path584"
         transform="translate(13.9746,28.25)"
         d="M 0,0 0.01,0.01" />
      <path
         id="path586"
         transform="translate(17.3916,30)"
         d="M 0,0 0.01,0.01" />
      <path
         id="path588"
         transform="translate(21.2915,28.3335)"
         d="M 0,0 0.01,0.01" />
      <path
         id="path590"
         transform="translate(24.7246,30.0835)"
         d="M 0,0 0.01,0.01" />
      <path
         id="path592"
         transform="translate(27.6416,28.25)"
         d="M 0,0 0.01,0.01" />
      <path
         id="path594"
         transform="translate(31.0581,30)"
         d="M 0,0 0.01,0.01" />
      <path
         id="path596"
         transform="translate(35.2915,28.3335)"
         d="M 0,0 0.01,0.01" />
      <path
         id="path598"
         transform="translate(38.7246,30.0835)"
         d="M 0,0 0.01,0.01" />
      <path
         id="path600"
         transform="translate(41.6416,28.25)"
         d="M 0,0 0.01,0.01" />
      <path
         id="path602"
         transform="translate(45.0581,30)"
         d="M 0,0 0.01,0.01" />
      <path
         id="path604"
         transform="translate(49.125,28.3335)"
         d="M 0,0 0.01,0.01" />
      <path
         id="path606"
         transform="translate(52.5581,30.0835)"
         d="M 0,0 0.01,0.01" />
      <path
         id="path608"
         transform="translate(0.8081,28.25)"
         d="M 0,0 0.01,0.01" />
      <path
         id="path610"
         transform="translate(4.2246,30)"
         d="M 0,0 0.01,0.01" />
      <path
         id="path612"
         transform="translate(13.625,39.167)"
         d="M 0,0 0.01,0.01" />
      <path
         id="path614"
         transform="translate(17.0581,40.917)"
         d="M 0,0 0.01,0.01" />
      <path
         id="path616"
         transform="translate(19.9746,39.0835)"
         d="M 0,0 0.01,0.01" />
      <path
         id="path618"
         transform="translate(23.3916,40.8335)"
         d="M 0,0 0.01,0.01" />
      <path
         id="path620"
         transform="translate(2.5581,40.917)"
         d="M 0,0 0.01,0.01" />
      <path
         id="path622"
         transform="translate(5.4746,39.0835)"
         d="M 0,0 0.01,0.01" />
      <path
         id="path624"
         transform="translate(8.8916,40.8335)"
         d="M 0,0 0.01,0.01" />
      <path
         id="path626"
         transform="translate(27.7915,39.167)"
         d="M 0,0 0.01,0.01" />
      <path
         id="path628"
         transform="translate(31.2246,40.917)"
         d="M 0,0 0.01,0.01" />
      <path
         id="path630"
         transform="translate(34.1416,39.0835)"
         d="M 0,0 0.01,0.01" />
      <path
         id="path632"
         transform="translate(37.5581,40.8335)"
         d="M 0,0 0.01,0.01" />
      <path
         id="path634"
         transform="translate(40.958,39.167)"
         d="M 0,0 0.01,0.01" />
      <path
         id="path636"
         transform="translate(44.3916,40.917)"
         d="M 0,0 0.01,0.01" />
      <path
         id="path638"
         transform="translate(47.3081,39.0835)"
         d="M 0,0 0.01,0.01" />
      <path
         id="path640"
         transform="translate(50.7246,40.8335)"
         d="M 0,0 0.01,0.01" />
      <path
         id="path642"
         transform="translate(35.625,43.167)"
         d="M 0,0 0.01,0.01" />
      <path
         id="path644"
         transform="translate(39.0581,44.917)"
         d="M 0,0 0.01,0.01" />
      <path
         id="path646"
         transform="translate(41.9746,43.0835)"
         d="M 0,0 0.01,0.01" />
      <path
         id="path648"
         transform="translate(45.3916,44.8335)"
         d="M 0,0 0.01,0.01" />
      <path
         id="path650"
         transform="translate(21.458,43.167)"
         d="M 0,0 0.01,0.01" />
      <path
         id="path652"
         transform="translate(24.8916,44.917)"
         d="M 0,0 0.01,0.01" />
      <path
         id="path654"
         transform="translate(27.8081,43.0835)"
         d="M 0,0 0.01,0.01" />
      <path
         id="path656"
         transform="translate(31.2246,44.8335)"
         d="M 0,0 0.01,0.01" />
      <path
         id="path658"
         transform="translate(7.625,43.167)"
         d="M 0,0 0.01,0.01" />
      <path
         id="path660"
         transform="translate(11.0581,44.917)"
         d="M 0,0 0.01,0.01" />
      <path
         id="path662"
         transform="translate(13.9746,43.0835)"
         d="M 0,0 0.01,0.01" />
      <path
         id="path664"
         transform="translate(17.3916,44.8335)"
         d="M 0,0 0.01,0.01" />
      <path
         id="path666"
         transform="translate(0.8081,43.0835)"
         d="M 0,0 0.01,0.01" />
      <path
         id="path668"
         transform="translate(4.2246,44.8335)"
         d="M 0,0 0.01,0.01" />
      <path
         id="path670"
         transform="translate(49.625,43.167)"
         d="M 0,0 0.01,0.01" />
      <path
         id="path672"
         transform="translate(53.0581,44.917)"
         d="M 0,0 0.01,0.01" />
      <path
         id="path674"
         transform="translate(41.625,47.5)"
         d="M 0,0 0.01,0.01" />
      <path
         id="path676"
         transform="translate(45.0581,49.25)"
         d="M 0,0 0.01,0.01" />
      <path
         id="path678"
         transform="translate(47.9746,47.417)"
         d="M 0,0 0.01,0.01" />
      <path
         id="path680"
         transform="translate(51.3916,49.167)"
         d="M 0,0 0.01,0.01" />
      <path
         id="path682"
         transform="translate(28.458,47.5)"
         d="M 0,0 0.01,0.01" />
      <path
         id="path684"
         transform="translate(31.8916,49.25)"
         d="M 0,0 0.01,0.01" />
      <path
         id="path686"
         transform="translate(34.8081,47.417)"
         d="M 0,0 0.01,0.01" />
      <path
         id="path688"
         transform="translate(38.2246,49.167)"
         d="M 0,0 0.01,0.01" />
      <path
         id="path690"
         transform="translate(14.458,47.5)"
         d="M 0,0 0.01,0.01" />
      <path
         id="path692"
         transform="translate(17.8916,49.25)"
         d="M 0,0 0.01,0.01" />
      <path
         id="path694"
         transform="translate(20.8081,47.417)"
         d="M 0,0 0.01,0.01" />
      <path
         id="path696"
         transform="translate(24.2246,49.167)"
         d="M 0,0 0.01,0.01" />
      <path
         id="path698"
         transform="translate(0.5415,47.5)"
         d="M 0,0 0.01,0.01" />
      <path
         id="path700"
         transform="translate(3.9746,49.25)"
         d="M 0,0 0.01,0.01" />
      <path
         id="path702"
         transform="translate(6.8916,47.417)"
         d="M 0,0 0.01,0.01" />
      <path
         id="path704"
         transform="translate(10.3081,49.167)"
         d="M 0,0 0.01,0.01" />
      <path
         id="path706"
         transform="translate(7.2915,51.8335)"
         d="M 0,0 0.01,0.01" />
      <path
         id="path708"
         transform="translate(10.7246,53.5835)"
         d="M 0,0 0.01,0.01" />
      <path
         id="path710"
         transform="translate(13.6416,51.75)"
         d="M 0,0 0.01,0.01" />
      <path
         id="path712"
         transform="translate(17.0581,53.5)"
         d="M 0,0 0.01,0.01" />
      <path
         id="path714"
         transform="translate(3.1411,53.5)"
         d="M 0,0 0.01,0.01" />
      <path
         id="path716"
         transform="translate(19.958,51.8335)"
         d="M 0,0 0.01,0.01" />
      <path
         id="path718"
         transform="translate(23.3916,53.5835)"
         d="M 0,0 0.01,0.01" />
      <path
         id="path720"
         transform="translate(26.3081,51.75)"
         d="M 0,0 0.01,0.01" />
      <path
         id="path722"
         transform="translate(29.7246,53.5)"
         d="M 0,0 0.01,0.01" />
      <path
         id="path724"
         transform="translate(33.625,51.8335)"
         d="M 0,0 0.01,0.01" />
      <path
         id="path726"
         transform="translate(37.0581,53.5835)"
         d="M 0,0 0.01,0.01" />
      <path
         id="path728"
         transform="translate(39.9746,51.75)"
         d="M 0,0 0.01,0.01" />
      <path
         id="path730"
         transform="translate(43.3916,53.5)"
         d="M 0,0 0.01,0.01" />
      <path
         id="path732"
         transform="translate(47.5249,51.8335)"
         d="M 0,0 0.01,0.01" />
      <path
         id="path734"
         transform="translate(50.958,53.5835)"
         d="M 0,0 0.01,0.01" />
      <path
         id="path736"
         transform="translate(53.875,51.75)"
         d="M 0,0 0.01,0.01" />
    </g>
  </g>
</svg>
