<?xml version="1.0" encoding="UTF-8" standalone="no"?>
<svg
   xmlns:dc="http://purl.org/dc/elements/1.1/"
   xmlns:cc="http://creativecommons.org/ns#"
   xmlns:rdf="http://www.w3.org/1999/02/22-rdf-syntax-ns#"
   xmlns:svg="http://www.w3.org/2000/svg"
   xmlns="http://www.w3.org/2000/svg"
   id="svg78"
   version="1.1"
   width="46px"
   height="46px">
  <defs
     id="defs82" />
  <metadata
     id="metadata2">citation: U.S. Geological Survey, 2006, FGDC Digital Cartographic Standard for Geologic Map Symbolization (PostScript Implementation): U.S. Geological Survey Techniques and Methods 11-A2 [pubs.usgs.gov/tm/2006/11A02/]. converted by CEC Geology LLC 2018 from the USGS lithologic gs converted to inkscape by the University of Otago.<rdf:RDF>
  <cc:Work
     rdf:about="">
    <dc:format>image/svg+xml</dc:format>
    <dc:type
       rdf:resource="http://purl.org/dc/dcmitype/StillImage" />
    <dc:title></dc:title>
  </cc:Work>
</rdf:RDF>
</metadata>
  <g
     id="g76"
     width="46"
     transform="matrix(-1 0 0 1 46 0)"
     stroke-width=".3"
     stroke="#231f20"
     height="46"
     fill="none">
    <path
       id="path4"
       transform="translate(5.2892 41.8877)"
       d="m0 0h2.083l-2.333-3.167h2.333" />
    <path
       id="path6"
       transform="translate(20.5392 41.8877)"
       d="m0 0h2.083l-2.333-3.167h2.333" />
    <path
       id="path8"
       transform="translate(35.8517 41.8877)"
       d="m0 0h2.083l-2.333-3.167h2.333" />
    <path
       id="path10"
       transform="translate(43.6017 41.8877)"
       d="m0 0h2.083l-2.333-3.167h2.333" />
    <path
       id="path12"
       transform="translate(28.1642 41.8877)"
       d="m0 0h2.083l-2.333-3.167h2.333" />
    <path
       id="path14"
       transform="translate(12.9767 41.8877)"
       d="m0 0h2.083l-2.333-3.167h2.333" />
    <path
       id="path16"
       transform="translate(1.3207 34.1793)"
       d="m0 0h2.083l-2.333-3.167h2.333" />
    <path
       id="path18"
       transform="translate(16.5707 34.1793)"
       d="m0 0h2.083l-2.333-3.167h2.333" />
    <path
       id="path20"
       transform="translate(31.8832 34.1793)"
       d="m0 0h2.083l-2.333-3.167h2.333" />
    <path
       id="path22"
       transform="translate(39.6332 34.1793)"
       d="m0 0h2.083l-2.333-3.167h2.333" />
    <path
       id="path24"
       transform="translate(24.1957 34.1793)"
       d="m0 0h2.083l-2.333-3.167h2.333" />
    <path
       id="path26"
       transform="translate(9.0082 34.1793)"
       d="m0 0h2.083l-2.333-3.167h2.333" />
    <path
       id="path28"
       transform="translate(5.2892 26.4918)"
       d="m0 0h2.083l-2.333-3.167h2.333" />
    <path
       id="path30"
       transform="translate(20.5392 26.4918)"
       d="m0 0h2.083l-2.333-3.167h2.333" />
    <path
       id="path32"
       transform="translate(35.8517 26.4918)"
       d="m0 0h2.083l-2.333-3.167h2.333" />
    <path
       id="path34"
       transform="translate(43.6017 26.4918)"
       d="m0 0h2.083l-2.333-3.167h2.333" />
    <path
       id="path36"
       transform="translate(28.1642 26.4918)"
       d="m0 0h2.083l-2.333-3.167h2.333" />
    <path
       id="path38"
       transform="translate(12.9767 26.4918)"
       d="m0 0h2.083l-2.333-3.167h2.333" />
    <path
       id="path40"
       transform="translate(1.3207 18.7835)"
       d="m0 0h2.083l-2.333-3.167h2.333" />
    <path
       id="path42"
       transform="translate(16.5707 18.7835)"
       d="m0 0h2.083l-2.333-3.167h2.333" />
    <path
       id="path44"
       transform="translate(31.8832 18.7835)"
       d="m0 0h2.083l-2.333-3.167h2.333" />
    <path
       id="path46"
       transform="translate(39.6332 18.7835)"
       d="m0 0h2.083l-2.333-3.167h2.333" />
    <path
       id="path48"
       transform="translate(24.1957 18.7835)"
       d="m0 0h2.083l-2.333-3.167h2.333" />
    <path
       id="path50"
       transform="translate(9.0082 18.7835)"
       d="m0 0h2.083l-2.333-3.167h2.333" />
    <path
       id="path52"
       transform="translate(5.2892 11.221)"
       d="m0 0h2.083l-2.333-3.167h2.333" />
    <path
       id="path54"
       transform="translate(20.5392 11.221)"
       d="m0 0h2.083l-2.333-3.167h2.333" />
    <path
       id="path56"
       transform="translate(35.8517 11.221)"
       d="m0 0h2.083l-2.333-3.167h2.333" />
    <path
       id="path58"
       transform="translate(43.6017 11.221)"
       d="m0 0h2.083l-2.333-3.167h2.333" />
    <path
       id="path60"
       transform="translate(28.1642 11.221)"
       d="m0 0h2.083l-2.333-3.167h2.333" />
    <path
       id="path62"
       transform="translate(12.9767 11.221)"
       d="m0 0h2.083l-2.333-3.167h2.333" />
    <path
       id="path64"
       transform="translate(1.3207 3.5127)"
       d="m0 0h2.083l-2.333-3.167h2.333" />
    <path
       id="path66"
       transform="translate(16.5707 3.5127)"
       d="m0 0h2.083l-2.333-3.167h2.333" />
    <path
       id="path68"
       transform="translate(31.8832 3.5127)"
       d="m0 0h2.083l-2.333-3.167h2.333" />
    <path
       id="path70"
       transform="translate(39.6332 3.5127)"
       d="m0 0h2.083l-2.333-3.167h2.333" />
    <path
       id="path72"
       transform="translate(24.1957 3.5127)"
       d="m0 0h2.083l-2.333-3.167h2.333" />
    <path
       id="path74"
       transform="translate(9.0082 3.5127)"
       d="m0 0h2.083l-2.333-3.167h2.333" />
  </g>
</svg>
