<?xml version="1.0" encoding="UTF-8" standalone="no"?>
<svg
   xmlns:dc="http://purl.org/dc/elements/1.1/"
   xmlns:cc="http://creativecommons.org/ns#"
   xmlns:rdf="http://www.w3.org/1999/02/22-rdf-syntax-ns#"
   xmlns:svg="http://www.w3.org/2000/svg"
   xmlns="http://www.w3.org/2000/svg"
   id="svg116"
        width="53.5"
     height="53.5"
   version="1.1">
  <defs
     id="defs120" />
  <metadata
     id="metadata2">citation: U.S. Geological Survey, 2006, FGDC Digital Cartographic Standard for Geologic Map Symbolization (PostScript Implementation): U.S. Geological Survey Techniques and Methods 11-A2 [pubs.usgs.gov/tm/2006/11A02/]. converted by CEC Geology LLC 2018 from the USGS lithologic gs converted to inkscape by the University of Otago.<rdf:RDF>
  <cc:Work
     rdf:about="">
    <dc:format>image/svg+xml</dc:format>
    <dc:type
       rdf:resource="http://purl.org/dc/dcmitype/StillImage" />
    <dc:title></dc:title>
  </cc:Work>
</rdf:RDF>
</metadata>
  <g
     stroke-width=".3"
     stroke="param(outline) #231f20"
     fill="none"
     transform="matrix(1,0,0,-1,0,53.5)"
     id="g114"
     width="53.5"
     height="53.5">
    <path
       id="path4"
       transform="translate(0,48.0498)"
       d="M 0,0 C 1.883,0.894 1.671,1.444 1.875,3.075 2.026,4.288 3.097,4.903 4.529,5.45" />
    <path
       id="path6"
       transform="translate(0,41.1216)"
       d="m 0,0 c 1.671,1.755 1.25,2.481 1.25,3.628 0,1.25 0.25,1.75 1.875,2.125 1.625,0.375 1.75,3.125 2.25,4.375 0.332,0.83 1.876,1.495 3.352,2.25" />
    <path
       id="path8"
       transform="translate(3.5,46)"
       d="M 0,0 C 1.125,0.5 1.5,2 2.25,3.875 3,5.75 4.125,5.625 5.625,6.125 6.847,6.532 6.908,6.608 7.158,7.5" />
    <path
       id="path10"
       transform="translate(1.375,41.75)"
       d="M 0,0 C -0.09,-1.436 -0.502,-1.97 -1.375,-2.573" />
    <path
       id="path12"
       transform="translate(0,21.8418)"
       d="M 0,0 C 0.892,0.511 1.665,0.257 2.75,0.158 4.125,0.033 4.375,0.408 5,1.033 c 0.625,0.625 0.75,0.75 1.75,1.375 1,0.625 0.875,1 -0.125,1.75 -1,0.75 -1.375,1.375 -3.875,2 -2.5,0.625 -0.5,1.625 0.75,1.875 1.25,0.25 2.375,0.5 3.5,1.5 1.125,1 4,1.75 5.25,2.625 1.25,0.875 0.25,2.25 -1.125,2.125 -1.375,-0.125 -0.875,1.125 -2.625,1.5 -1.75,0.375 -4.25,-2.5 -6.5,-2.875 -2.25,-0.375 -1,3.25 -0.25,4.5 0.75,1.25 0.625,1.25 0.5,2.5 -0.125,1.25 1.25,3 2.375,3.875 1.125,0.875 1,1 1.25,2.375 0.25,1.375 2.375,2.75 3.75,3.125 0.925,0.253 1.794,1.184 2.567,2.375" />
    <path
       id="path14"
       transform="translate(0,24.3589)"
       d="m 0,0 c 0.2,0.042 0.422,0.016 0.875,0.016 1,0 1.125,-0.125 1.75,0.625 0.625,0.75 0,1 -0.875,1.125 C 1.229,1.841 0.619,2.403 0,3.083" />
    <path
       id="path16"
       transform="translate(0,31.1167)"
       d="m 0,0 c 1.3,0.844 3.117,1.332 4,1.508 1.25,0.25 1.875,0.875 2.75,1.875 0.875,1 -1.375,0.25 -3,-0.625 C 2.662,2.172 1.349,2.035 0,2.159" />
    <path
       id="path18"
       transform="translate(1.125,30)"
       d="M 0,0 C 0.5,0.875 1.75,1 2.75,1.125 3.75,1.25 4.875,2 5.5,2.75 6.125,3.5 7.375,3.875 8.5,4.25 9.625,4.625 9.375,5.125 8.25,5.375 7.125,5.625 7.5,5.25 7.5,6.125 7.5,7 6.375,6.75 5,5.875" />
    <path
       id="path20"
       transform="translate(1.875,27.375)"
       d="m 0,0 c 1.625,-0.375 3.625,-0.625 3.375,-1.75 -0.25,-1.125 -0.125,-1 -1,-1.625 C 1.5,-4 1.125,-4.125 0.125,-4 c -0.773,0.097 -1.248,0.267 -2,-0.122" />
    <path
       id="path22"
       transform="translate(0,19.832)"
       d="m 0,0 c 1.424,0.697 3.356,0.724 4.375,0.418 1.25,-0.375 3.125,1.5 3.75,2.5 0.625,1 0.625,1.5 2,1.875 1.375,0.375 -0.75,2.5 -3,3.125 -2.25,0.625 -0.125,1.625 1,1.875 1.125,0.25 1.5,0.5 2.5,1 1,0.5 1.75,0.875 2.875,0.875 1.125,0 1.125,0.25 1.75,1.25 0.625,1 0.625,2 0,2.625 -0.625,0.625 -0.875,0.875 -0.875,1.875 0,1 -1,1.125 -1.75,1.125 -0.75,0 -1.375,-0.125 -2.375,0.375 -1,0.5 -1.875,0.5 -4.75,-0.625 -2.875,-1.125 -2.75,-0.125 -2.375,0.5 0.375,0.625 0.375,1.125 0.125,2.125 -0.25,1 2,3.25 3.375,4.75 1.375,1.5 2.75,3.875 4.375,4 1.342,0.103 2.429,1.742 4.458,4" />
    <path
       id="path24"
       transform="translate(6.75,19.625)"
       d="M 0,0 C -1.25,-1.125 -2.125,-1.75 -3.625,-1.5 -4.697,-1.321 -5.769,-1.526 -6.75,-2.068" />
    <path
       id="path26"
       transform="translate(0,15.8101)"
       d="m 0,0 c 1.665,0.79 3.083,0.315 4.5,0.315 1.625,0 3.375,2.125 3.875,3.5 0.5,1.375 2.875,2.875 4.375,4.125 1.5,1.25 -0.375,2.25 -1.5,3.25 -1.125,1 0.25,1.5 1.25,2.375 1,0.875 2.625,1 4.75,1.25 2.125,0.25 2,1.75 1.625,2.5 -0.375,0.75 -0.5,1 -0.25,2.25 0.25,1.25 0,1.125 -1.375,2 -1.375,0.875 -0.875,1.375 -1.375,2.25 -0.5,0.875 -2.25,0.5 -3,0.5 -0.75,0 -1.5,0.25 -2.125,0.75 -0.625,0.5 -2,0.25 -3.5,-0.375 -1.5,-0.625 -1.75,0.125 -1.625,0.875 0.125,0.75 0.75,1.25 2,1.875 1.25,0.625 0.75,1.125 1.125,2 0.375,0.875 2.375,2.5 3.25,2.75 0.875,0.25 1.5,0.75 2.5,1.875 1,1.125 1.375,1.625 2.75,2.125 0.881,0.32 1.506,0.744 2.301,1.5" />
    <path
       id="path28"
       transform="translate(12.125,20.875)"
       d="M 0,0 C -0.75,-0.875 -0.25,-0.875 -1.125,-1.75 -2,-2.625 -2.625,-2.75 -3.25,-4 -3.875,-5.25 -5,-6.25 -7.375,-6.5 -9.4,-6.713 -10.88,-6.563 -12.125,-7.29" />
    <path
       id="path30"
       transform="translate(0,11.0229)"
       d="m 0,0 c 2.131,1.04 1.884,1.243 3.625,1.352 2,0.125 3.25,0.375 4.375,1.375 1.125,1 0.25,0.25 2,0.875 1.75,0.625 1.75,1 2.125,2.25 0,0 -0.042,0.875 0.042,1.292 0.083,0.416 0.333,0.916 0.916,1.5 0.584,0.583 0.334,1.166 0.5,2.166 0.167,1 0.584,1.417 1.084,1.917 0.5,0.5 0.708,0.25 0.708,0.25 0.875,0.5 0.5,0.5 0.875,1.375 0.375,0.875 0.625,1 1.375,1.625 0.75,0.625 3.5,1.25 5.125,1.75 1.625,0.5 1.125,2 0.625,3.25 -0.5,1.25 0,1.125 0.75,2.625 0.75,1.5 -1,3 -2.125,3.75 -1.125,0.75 -1.75,1.5 -2.5,2.625 -0.75,1.125 -2.375,1.5 -4.375,1.75 -2,0.25 -2.375,1.5 -2.375,2.625 0,1.125 1.875,2.5 3.125,3 1.25,0.5 1.25,0.375 1.875,1.375 0.625,1 0.875,1 2.5,1.375 1.252,0.289 2.43,1.024 3.534,2.375" />
    <path
       id="path32"
       transform="translate(21.625,40.5)"
       d="m 0,0 c -0.625,0.625 -1.625,2 -2.125,2.875 -0.5,0.875 -2.125,0.5 -3.125,0.875 -1,0.375 -0.625,1.75 0,2.375 0.625,0.625 0.875,0.375 1.125,1.125 0.25,0.75 1.375,1 2.5,1.375 1.125,0.375 1,0.5 1.75,1.125 0.75,0.625 1.375,1 2.625,1.5 1.01,0.404 1.612,0.482 2.268,1.75" />
    <path
       id="path34"
       transform="translate(12.1924)"
       d="m 0,0 c 0.376,0.58 0.73,1.221 1.058,1.875 0,0 0.125,0.438 0.437,1.375 0.313,0.938 1,2.75 1.625,3.688 0.625,0.937 4.688,1.812 5.563,2.187 0.875,0.375 2.125,2.563 3,4 0.875,1.438 0.062,2.25 -0.375,2.938 -0.438,0.687 -0.938,1.375 -0.688,2.437 0.25,1.063 3.063,2.125 3.938,2.188 0.875,0.062 2.437,1 3.562,1.437 1.125,0.438 5.063,0.188 6.125,0.125 1.063,-0.062 1.563,-0.187 2.313,0.063 0.75,0.25 1.875,0.187 3.437,0.312 1.563,0.125 3.188,1.375 3.938,2 0.75,0.625 0.125,1 -0.375,1.188 -0.5,0.187 -2.125,-0.313 -3.063,-0.5 -0.937,-0.188 -2.562,-0.063 -3.375,0.625 -0.812,0.687 -1.437,0.5 -2.875,0.562 -1.437,0.063 -1.5,1.563 -1.5,2.25 0,0.688 -0.125,1.25 -0.75,1.875 -0.625,0.625 -0.5,1.688 -0.562,2.75 -0.063,1.063 1.25,1.625 2.187,2.125 0.938,0.5 0.438,0.25 0.438,0.25 1.25,0.875 0.375,0.875 -0.375,1.125 -0.75,0.25 -1.25,0.25 -1.875,1.125 -0.625,0.875 -3.125,1.75 -4.75,2.5 -1.625,0.75 -1.5,2.25 -2,3.25 -0.5,1 -1.25,1.125 -1,2 0.25,0.875 3.625,2.625 5.125,3.625 1.07,0.714 1.759,2.255 2.156,4.125" />
    <path
       id="path36"
       transform="translate(36.625,27.875)"
       d="M 0,0 C -1.125,0.75 -0.375,5 -0.25,6 -0.125,7 0.875,7 2.125,7.5 3.375,8 3,8.375 2.625,9.125 2.25,9.875 2,9.75 1.25,9.875 0.5,10 -0.125,9.875 -1.625,10.75 -3.125,11.625 -3,12.125 -5.125,12.375 -7.25,12.625 -7.5,14 -7.5,15 c 0,1 0.125,0.625 -0.625,1.625 -0.75,1 -0.5,1 0.125,1.5 0.625,0.5 0.875,0.875 3,2.125 1.745,1.026 2.646,2.979 3.052,5.375" />
    <path
       id="path38"
       transform="translate(38.125,32.375)"
       d="M 0,0 C 0.25,0.875 2.25,2.125 4.25,3.125 6.25,4.125 4.125,5 3.5,5.875 2.875,6.75 0.875,7 -0.125,7 c -1,0 -2.25,0.25 -2.5,1.125 -0.25,0.875 -1.25,1 -2.375,1.125 -1.125,0.125 -2,1.125 -1.625,2 0.375,0.875 0.375,0.625 0,1.375 -0.375,0.75 1,1.875 3.75,3.25 2.306,1.153 2.151,2.657 1.967,5.25" />
    <path
       id="path40"
       transform="translate(29.0923)"
       d="m 0,0 c 0.13,0.415 0.189,0.95 0.283,1.75 0,0 0,0.375 -0.063,1.063 -0.062,0.687 0.188,0.75 -0.437,2.562 -0.625,1.813 -0.618,3.222 -0.313,4.5 0.313,1.313 2.136,2.658 2.375,3.375 0.625,1.875 -0.625,2.063 -1.187,3 -0.563,0.938 0.125,1.375 1.687,2 1.563,0.625 2.5,0.375 4.5,0.188 2,-0.188 3.563,0.437 4.375,0.875 0.813,0.437 1.313,0.312 2.688,0.312 1.375,0 2.625,0.313 3.937,0.875 1.313,0.563 1.5,1.063 1.875,1.563 0.375,0.5 0.938,1.062 1.875,1.625 0.938,0.562 1.375,1.5 1.75,2.375 0.375,0.875 -0.625,1.875 -1.562,2.375 -0.938,0.5 -3,0.437 -3.875,0.187 -0.875,-0.25 -0.875,-0.062 -1.813,0.313 -0.937,0.375 -2.25,0.25 -3.25,-0.25 -1,-0.5 -1.312,0.187 -1.437,0.437 -0.125,0.25 -0.313,0.313 -1.125,0.188 -0.813,-0.125 -0.188,1.125 0.062,1.437 0.25,0.313 0.125,0.5 0.188,0.875 0.24,1.443 2.5,1.5 3.875,2.25 1.375,0.75 0.875,2.375 0.875,3.5 0,1.125 -1,2.375 -2.625,2.75 -1.625,0.375 -1.5,-0.125 -2,0.25 -0.5,0.375 -1.125,1 -1.75,1 -0.625,0 -1.25,0.375 -2.125,1.125 -0.875,0.75 -1.75,1.25 -1.875,2.125 -0.125,0.875 1.875,2 3.875,3.125 1.71,0.962 1.135,3.478 0.933,5.75" />
    <path
       id="path42"
       transform="translate(50.375,29.75)"
       d="M 0,0 C -0.313,0.313 -0.625,0.813 -1.25,0.563 -1.875,0.313 -2.438,0.688 -3.063,1.063 -3.688,1.438 -4.25,1 -5.438,0.938 -6.625,0.875 -6.625,1.688 -6.313,2.25 -6,2.813 -4.75,3.813 -3.625,5 -2.5,6.188 -3.75,7.75 -3.75,7.75 c -0.375,0.375 -0.375,1.375 -0.875,2.375 -0.5,1 -0.875,1.125 -2.375,1.375 -1.5,0.25 -1.625,0.375 -3.5,0.875 -1.875,0.5 -1.875,2 -2,3.125 -0.125,1.125 1,1.125 2.5,2.125 1.307,0.872 1.57,2.693 1.12,6.125" />
    <path
       id="path44"
       transform="translate(47.375,33.5)"
       d="M 0,0 C 0.563,0.625 0.813,1.625 0.688,2.188 0.563,2.75 1.063,3.313 1.063,3.313 1.813,4.063 1.5,6.625 1,7.75 0.5,8.875 -1.625,9.125 -3.625,9.5 c -2,0.375 -1.875,1.25 -2,2.25 -0.125,1 1.875,2.25 3.125,3.625 1.026,1.128 0.284,2.762 -0.568,4.625" />
    <path
       id="path46"
       transform="translate(50.9375,30.5625)"
       d="m 0,0 c -0.188,0.5 0.875,0.5 1.375,1.125 0.5,0.625 -1.438,0.5 -2.625,0.625 -1.188,0.125 -1.063,1.938 -0.875,2.875 0.187,0.938 0.937,1.313 0.937,1.313 0.625,0.875 1.501,1.25 0.875,2.25 -0.625,1 -0.125,0.875 -0.25,1.75 -0.125,0.875 -0.5,1.25 -1.375,2.25 -0.875,1 -1.75,1.25 -4.25,1.625 -2.5,0.375 -0.625,1.75 1.375,3.875 1.72,1.826 0.76,2.729 -0.258,5.25" />
    <path
       id="path48"
       transform="translate(13.5,18.75)"
       d="M 0,0 C -0.167,-0.667 -0.25,-1 0,-2.333 0.25,-3.667 -0.167,-4.25 -0.833,-5.083 -1.5,-5.917 -3,-5.75 -3,-5.75 -4.625,-5.875 -4.25,-6.25 -5.875,-7 -7.5,-7.75 -7.75,-7.625 -9.75,-8.125 c -1.559,-0.39 -2.434,-1.311 -3.75,-2.467" />
    <path
       id="path50"
       transform="translate(5.1533,9.4033)"
       d="M 0,0 C -0.688,-0.625 0.5,-1.75 0.625,-2.625 0.75,-3.5 -0.028,-4.153 -0.028,-4.153 -1.874,-5.896 -3.467,-5.79 -5.153,-6.798" />
    <path
       id="path52"
       transform="translate(3.0283,5.7783)"
       d="M 0,0 C 0.875,0.563 0.875,1.563 0.563,2 0.25,2.438 -0.528,2.097 -0.528,2.097 -1.852,1.474 -2.303,0.997 -3.028,0.634" />
    <path
       id="path54"
       transform="translate(0,1.7017)"
       d="m 0,0 c 0.303,0.35 0.715,0.498 2,0.673 2.75,0.375 3.25,0.5 4.875,2.375 1.625,1.875 1.875,2.875 1,3.875 0,0 -1.292,0.375 -0.542,1.042 0.75,0.666 1.917,0.916 2.75,1.416 0.834,0.5 2.084,0.75 3.167,0.834 1.083,0.083 3.583,0.916 2.917,2.25 -0.667,1.333 -0.917,2.416 -1,3.083 -0.084,0.667 -0.167,0.833 -0.417,1.75 -0.25,0.917 0.667,3.333 1.583,4.5 0.917,1.167 3.334,2.833 5.084,3.25 1.75,0.417 3.416,0.583 4,1.333 0.583,0.75 0.666,1.334 0.333,2.417 -0.333,1.083 -0.333,2.5 -0.333,2.5 -0.153,1.178 1.363,1.349 1.708,2.5 0.375,1.25 -0.125,1.5 -1.875,2.5 -1.75,1 -2,1.375 -2.25,3.125 -0.25,1.75 -0.125,0.75 -0.875,1.5 -0.75,0.75 -1.75,1.375 -2.125,3 -0.375,1.625 1.375,2 2.25,2.875 0.875,0.875 3.375,2.125 5.125,3.25 1.091,0.701 1.502,1.063 1.717,1.75" />
    <path
       id="path56"
       transform="translate(4.5293)"
       d="m 0,0 c 0.93,0.355 2.013,0.682 3.096,1.125 l 0.625,0.542 c 0.416,0.166 0.75,0.666 1.416,1.5 C 5.804,4 5.554,4.833 5.721,6.417 5.887,8 6.471,8.25 8.137,9.667 c 1.667,1.416 3.917,1.083 4.834,1.25 0.916,0.166 1.333,0.5 1.833,1.25 0.5,0.75 -0.5,1.833 -1.583,2.583 -1.084,0.75 -1.417,3.583 -1.334,4.667 0.084,1.083 2.417,3.916 3.667,4.916 1.25,1 4.75,1.5 6.333,2 1.584,0.5 2.167,2 1.417,3.167 -0.75,1.167 -0.583,1.75 -0.5,2.667 0.083,0.916 1.292,1.958 1.292,1.958 0.875,0.875 0.875,1.625 0.375,2.75 -0.5,1.125 -2,1.75 -3.5,2.875 -1.5,1.125 -1.25,1.5 -1.375,2.625 -0.125,1.125 -0.125,1 -1.5,2.25 -1.375,1.25 -0.375,1.75 0.375,2.625 0.75,0.875 1.875,1.375 4.125,2.375 1.977,0.879 2.796,1.662 3.475,3.875" />
    <path
       id="path58"
       transform="translate(8.727)"
       d="m 0,0 c 0.747,0.382 1.477,0.788 2.023,1.25 0,0 1.187,0.688 1.187,2 0,1.313 0.813,4.375 2.375,5.063 1.563,0.687 4.875,1.062 5.688,2.25 0.812,1.187 1.625,2.875 0.187,4.375 -1.437,1.5 -3.437,3.812 -1.437,6.312 2,2.5 5,3.5 6.312,3.5 1.313,0 4.313,0.25 5.125,1.5 0.813,1.25 0.813,2.438 0.063,3.125 l -1,1.125 c -0.875,1.375 0.5,3.25 1.125,4.5 0.625,1.25 0.75,1.75 0.375,2.875 -0.375,1.125 -1.75,1.625 -2.875,1.875 -1.125,0.25 -1.5,1.625 -1.625,2.75 -0.125,1.125 -1.25,1.75 -2.25,2.625 -1,0.875 0.125,1.75 1.5,2.25 1.375,0.5 2,1.125 4,2.25 1.581,0.889 2.38,2.325 2.707,3.875" />
    <path
       id="path60"
       transform="translate(30.0625,20.625)"
       d="m 0,0 c -0.875,-0.563 -3,-0.625 -4.625,-1.125 -1.625,-0.5 -1,-2.25 0.062,-4.125 1.063,-1.875 -1.25,-4.938 -2.062,-6.125 -0.813,-1.188 -3.438,-2.438 -4.438,-2.75 -1,-0.313 -1.187,-1.438 -1.312,-3.063 -0.125,-1.625 -0.813,-1.937 -0.813,-1.937 -0.522,-0.522 -0.99,-1.024 -1.417,-1.5" />
    <path
       id="path62"
       transform="translate(38.125,32.5625)"
       d="m 0,0 c 0,0 0,-0.188 -0.125,-0.813 -0.125,-0.625 -0.25,-1.375 -0.5,-2.562 -0.25,-1.188 0.5,-1.25 1,-1.188 0.5,0.063 0.688,-0.062 1.25,-0.562 0.563,-0.5 0.938,-0.688 1.875,-0.313 0.938,0.375 1.813,0.25 2.813,-0.062 1,-0.313 1.812,-0.063 2.812,0.375 1,0.437 2.875,0.125 3.625,-0.5 0.75,-0.625 0.188,-1.313 -0.687,-2 C 11.188,-8.313 9.938,-9.375 9.188,-10.188 8.438,-11 6.25,-11.375 4.875,-11.563 3.5,-11.75 1.563,-12.063 0.813,-12.438 c -0.75,-0.375 -3.251,0 -5.001,0 -1.75,0 -2.875,-0.125 -3.875,-0.812 -1,-0.688 -1.437,-0.313 -2.937,-0.438 -1.5,-0.125 -1.25,-1.5 -0.563,-2.5 0.688,-1 1.313,-2.5 0.813,-4.062 -0.5,-1.563 -3.125,-4 -3.813,-5.125 -0.687,-1.125 -0.312,-2.25 -0.687,-3.375 -0.375,-1.125 -1.75,-2.188 -1.75,-2.188 -0.628,-0.673 -1.128,-1.201 -1.574,-1.625" />
    <path
       id="path64"
       transform="translate(25.25,6.8125)"
       d="M 0,0 C -0.188,-0.875 0.125,-1.688 0.25,-3.313 0.375,-4.938 -0.5,-5.438 -0.5,-5.438 -0.815,-5.954 -1.138,-6.41 -1.466,-6.813" />
    <path
       id="path66"
       transform="translate(27.8125,17.5625)"
       d="M 0,0 C -0.938,-0.625 1.313,-2.25 1.5,-3.75 1.688,-5.25 0.063,-6.438 0.063,-6.438 -0.438,-7.375 -0.813,-8.125 -1,-9.75 c -0.188,-1.625 0.437,-2.875 0.687,-3.938 0.25,-1.062 -0.375,-2.75 -0.375,-2.75 -0.167,-0.455 -0.326,-0.823 -0.482,-1.125" />
    <path
       id="path68"
       transform="translate(30.875,1)"
       d="M 0,0 C -0.091,-0.363 -0.182,-0.695 -0.275,-1" />
    <path
       id="path70"
       transform="translate(32.2075)"
       d="m 0,0 c 0.087,0.411 0.141,0.831 0.167,1.25 0.125,2 0,0.75 0,1.625 0,0.875 0.188,2.25 1.063,3.813 0.875,1.562 0.562,1.812 0.187,3 -0.375,1.187 -0.25,1.625 0.188,2 0.437,0.375 0.375,0.875 0.562,1.875 0.188,1 2,1 3.688,1.062 1.687,0.063 2.625,-0.25 3.562,0.188 0.938,0.437 1.25,0.562 1.813,0.562 0.562,0 3.312,0.25 4.375,0.563 1.062,0.312 2.625,1.437 3.187,2.125 0.563,0.687 1.612,1.174 1.612,1.174 0.258,0.234 0.56,0.429 0.888,0.589" />
    <path
       id="path72"
       transform="translate(33.5317)"
       d="m 0,0 c 0.159,0.749 0.271,1.552 0.343,2.375 0,0 -0.096,1.028 0.216,1.966 0.313,0.937 0.784,1.722 0.784,1.722 0.688,1.312 0.375,2.187 -0.062,3.062 -0.438,0.875 -0.125,1.313 0.25,1.75 0.375,0.438 0.187,0.938 0.125,1.625 0,0 1.312,1.313 3.125,1.125 1.812,-0.187 2.75,-0.25 3.375,0.063 0.625,0.312 1.5,0.625 3,0.625 1.5,0 3,0.125 4.125,0.812 1.125,0.688 1.125,1.125 2.375,1.25 1.25,0.125 1.174,0.362 1.174,0.362 0.361,0.325 0.742,0.596 1.138,0.814" />
    <path
       id="path74"
       transform="translate(34.6768)"
       d="m 0,0 c 0.088,0.523 0.153,1.065 0.198,1.625 0,0 0.154,1.153 0.404,1.528 0.25,0.375 1.409,1.722 1.409,1.722 1,1.125 -0.125,2.625 -0.438,3.75 -0.312,1.125 -0.125,1.563 0.188,2.063 0.312,0.5 -0.25,0.625 0.437,1.437 0.688,0.813 1.813,0.625 2.688,0.313 0.875,-0.313 1.625,-0.313 2.187,0.187 0.563,0.5 2,0.563 3.938,0.313 1.937,-0.25 2.687,0.437 3.312,1.187 0.625,0.75 2.188,1.438 2.938,1.313 0.75,-0.125 0.799,-0.076 0.799,-0.076 0.261,0.179 0.515,0.324 0.763,0.441" />
    <path
       id="path76"
       transform="translate(37.2173)"
       d="m 0,0 c -0.036,0.499 -0.072,1.04 -0.092,1.625 0,0 -0.159,1.216 0.153,1.716 0.313,0.5 0.784,1.597 0.784,1.597 0.313,1.375 -0.187,2.937 -0.562,3.875 -0.375,0.937 -0.125,1.375 0.5,1.937 0,0 1.75,0.125 3.062,0.188 C 5.158,11 4.72,11 5.22,11.625 5.72,12.25 6.845,12 8.095,11.563 c 1.25,-0.438 1.625,-0.25 2.688,0.125 1.062,0.375 1.625,0.687 3.187,0.812 1.563,0.125 1.675,0.612 1.675,0.612 0.206,0.187 0.418,0.341 0.638,0.468" />
    <path
       id="path78"
       transform="translate(39.5,7.4375)"
       d="m 0,0 c 0.5,-1.063 0.188,-2.813 -0.25,-3.875 -0.438,-1.063 -0.5,-2.438 -0.5,-2.438 0,-0.362 0.024,-0.74 0.058,-1.125" />
    <path
       id="path80"
       transform="translate(44.3066)"
       d="m 0,0 c -0.186,0.407 -0.377,0.824 -0.557,1.25 -1,2.375 -0.312,1.5 -0.312,2.438 0,0.937 -0.313,2.687 -0.438,3.437 -0.125,0.75 0.063,1.438 1.563,0.938 0,0 1.937,0.5 2.875,0.687 C 4.068,8.938 5.318,8.188 6.318,7.375 7.318,6.563 7.93,7.112 7.93,7.112 8.405,7.475 8.817,7.825 9.193,8.156" />
    <path
       id="path82"
       transform="translate(48.8101)"
       d="M 0,0 C -0.199,0.38 -0.428,0.794 -0.685,1.25" />
    <path
       id="path84"
       transform="translate(47.3125,3.1875)"
       d="m 0,0 c -0.25,0.75 0.813,0.688 1.5,0.813 0.688,0.125 1.25,-0.5 2.25,-1.501 1,-1 1.299,-0.763 1.299,-0.763 0.387,0.364 0.765,0.64 1.139,0.863" />
    <path
       id="path86"
       transform="translate(45.8667)"
       d="m 0,0 c -0.166,0.412 -0.334,0.866 -0.492,1.375 0,0 -0.5,1.375 -0.25,1.813 0.25,0.437 0.625,1.562 0.438,2.125 -0.188,0.562 0.437,0.937 1.562,1 C 2.383,6.375 3.071,6.313 3.821,6 4.571,5.688 3.37,5.487 5.745,5.862 6.65,6.004 7.191,6.184 7.633,6.406" />
    <path
       id="path88"
       transform="translate(11.6665,46)"
       d="m 0,0 c -0.833,-0.833 -2,-1.667 -1.75,-2.75 0.25,-1.083 0.333,-1.417 1.333,-1.417 1,0 0.417,0.167 1.334,-0.166 C 1.833,-4.667 1.833,-4.5 2.583,-4.417 3.333,-4.333 6,-5.25 6.75,-6.25 c 0.75,-1 0.583,-1.25 1.833,-2 1.25,-0.75 1.834,-1.417 1.5,-2.083 C 9.75,-11 9.417,-11.667 9.75,-12.5 c 0.333,-0.833 0.917,-3 -0.083,-3.25 -1,-0.25 -3.75,-0.917 -4.75,-1.333 -1,-0.417 -2.5,-0.917 -2.167,-2.167 0.333,-1.25 0.667,-1.667 0.333,-2.083" />
    <path
       id="path90"
       transform="translate(32.125,38.0625)"
       d="m 0,0 c 1.063,-0.875 1.813,-1.188 1.313,-1.813 -0.5,-0.625 -2.251,-1.687 -2.063,-2.875 0.187,-1.187 0.5,-2 0.625,-2.687 0.125,-0.688 -0.063,-0.688 0.375,-1.25 0.438,-0.563 0.5,-0.563 0.438,-1.188 -0.063,-0.625 0.062,-1.937 1.75,-2.5 1.687,-0.562 2.25,-0.75 1.875,-1.312 C 3.938,-14.188 3.563,-13.688 2,-13.75 0.438,-13.813 -1.313,-14 -2.313,-14.438 c -1,-0.437 -2.312,-0.562 -3.562,-0.812 -1.25,-0.25 -2.313,-0.375 -3.438,-0.875 -1.125,-0.5 -2.312,-1.125 -2.437,-1.938 -0.125,-0.812 -0.313,-1.375 0.375,-2.437 0.687,-1.063 0.5,-1.25 0.5,-1.625 0,0 1.375,-0.813 1.125,-2.188 -0.25,-1.375 -0.5,-2.375 -1.375,-3.25" />
    <path
       id="path92"
       transform="translate(47.9375,26.5625)"
       d="M 0,0 C 1.5,0.125 0.375,-1.375 -1.5,-3.063 -3.375,-4.75 -6.125,-5 -7.25,-5 c -1.125,0 -3.75,-0.438 -6.313,-0.25 -2.562,0.187 -1,0.312 -2.25,-0.125" />
    <path
       id="path94"
       transform="translate(10.6582)"
       d="m 0,0 c 0.057,0.203 0.124,0.449 0.217,0.75 0,0 1,0.875 1.5,1.375 0.5,0.5 0.5,1.625 1,3.5 0.5,1.875 1.125,2 2.125,2.5" />
    <path
       id="path96"
       transform="translate(53.5,41.1221)"
       d="M 0,0 C -0.153,-0.161 -0.323,-0.331 -0.513,-0.51 L -1.25,-0.685 -2.125,0.003 c -0.813,1.125 0,2.125 -0.25,3.5 -0.25,1.375 -2.25,0.875 -3.75,1.25 -1.5,0.375 0.625,2.25 1.75,3.5 0.947,1.052 0.743,2.104 -0.315,4.125" />
    <path
       id="path98"
       transform="translate(44.8125,16.9375)"
       d="m 0,0 c 0.813,0.188 2.438,0.25 3.563,0.563 1.125,0.312 2.375,1.5 3.062,2.312 0.688,0.813 1.299,1.424 1.299,1.424 0.269,0.269 0.521,0.463 0.764,0.6" />
    <path
       id="path100"
       transform="translate(53.5,31.1118)"
       d="m 0,0 c -0.547,-0.353 -1.004,-0.768 -1.263,-1.25 0,0 -1,0.125 0,-1 0.408,-0.46 0.838,-0.982 1.263,-1.448" />
    <path
       id="path102"
       transform="translate(53.5,39.1728)"
       d="m 0,0 c -0.346,-0.24 -0.763,-0.49 -1.263,-0.811 0,0 -1.05,-0.987 -0.737,-1.737 0.312,-0.75 0.413,-0.857 -0.313,-1.437 -0.625,-0.5 -0.75,-1 -0.312,-1.25 0.437,-0.25 0.612,-0.326 0.612,-0.326 0.644,-0.161 1.302,-0.284 1.952,-0.346 0.021,-0.002 0.04,-0.004 0.061,-0.005" />
    <path
       id="path104"
       transform="translate(52.4868,23.7368)"
       d="M 0,0 C 0.557,0.418 0.765,0.564 1.013,0.612" />
    <path
       id="path106"
       transform="translate(30.8125,1.1875)"
       d="M 0,0 C 0,0 0.063,2.188 -0.188,3.313 -0.438,4.438 -0.875,5.688 -0.813,8 c 0.063,2.313 0.938,1.938 1.563,2.688 0.625,0.75 0.625,1.75 0.438,3.062 -0.188,1.313 0.187,1.063 1.062,1.5 0.875,0.438 1.063,0.375 2.5,0.25 1.438,-0.125 2.125,-0.125 2.938,0.438 0.812,0.562 0.937,0.312 2.062,0.25 1.125,-0.063 3.125,0 3.938,0.5 0.812,0.5 2,0.75 2.812,0.75 0.813,0 2.188,0.375 2.813,1.5 0.625,1.125 1.562,1.687 2,1.937 0.437,0.25 0.611,0.674 0.611,0.674 0.29,0.232 0.539,0.396 0.764,0.511" />
    <path
       id="path108"
       transform="translate(41.4946)"
       d="m 0,0 c -0.066,0.506 -0.148,1.047 -0.245,1.625 v 1.438 c 0.063,0.375 -0.125,1.562 0.063,2.687 0.187,1.125 -1.188,2.375 -1.688,3.188 -0.5,0.812 1.688,0.5 2.25,0.687 0.563,0.188 1.375,0.438 2,0.313 0.625,-0.125 1.188,-0.375 2.125,0.25 0.938,0.625 3.5,-0.438 4.813,-0.313 1.312,0.125 1.549,0.612 1.549,0.612 0.444,0.197 0.818,0.372 1.138,0.529" />
    <path
       id="path110"
       transform="translate(53.5,1.7031)"
       d="M 0,0 C -0.29,-0.325 -0.474,-0.829 -1.196,-1.703" />
    <path
       id="path112"
       transform="translate(52.3037,53.5)"
       d="m 0,0 c -0.16,-0.194 -0.347,-0.406 -0.567,-0.638 0,0 -0.987,-0.425 -0.737,-1.05 0.25,-0.625 0.869,-1.433 0.313,-2.312 -1.938,-3.063 0.549,-2.138 0.549,-2.138 0.675,0.256 1.211,0.477 1.638,0.68" />
  </g>
</svg>
