<?xml version="1.0" encoding="UTF-8" standalone="no"?>
<svg
   xmlns:dc="http://purl.org/dc/elements/1.1/"
   xmlns:cc="http://creativecommons.org/ns#"
   xmlns:rdf="http://www.w3.org/1999/02/22-rdf-syntax-ns#"
   xmlns:svg="http://www.w3.org/2000/svg"
   xmlns="http://www.w3.org/2000/svg"
   id="svg92"
   width="54"
   height="54"
   version="1.1">
  <defs
     id="defs96" />
  <metadata
     id="metadata2">citation: U.S. Geological Survey, 2006, FGDC Digital Cartographic Standard for Geologic Map Symbolization (PostScript Implementation): U.S. Geological Survey Techniques and Methods 11-A2 [pubs.usgs.gov/tm/2006/11A02/]. converted by CEC Geology LLC 2018 from the USGS lithologic gs converted to inkscape by the University of Otago.<rdf:RDF>
  <cc:Work
     rdf:about="">
    <dc:format>image/svg+xml</dc:format>
    <dc:type
       rdf:resource="http://purl.org/dc/dcmitype/StillImage" />
    <dc:title></dc:title>
  </cc:Work>
</rdf:RDF>
</metadata>
  <g
     id="g90"
     width="54"
     stroke-width=".3"
     stroke="#231f20"
     height="54"
     fill="none">
    <path
       id="path4"
       transform="translate(28.7214 51.7069)"
       d="m0 0-1.055.67-2.888-4.519 1.055-.67z" />
    <path
       id="path6"
       transform="translate(31.5018 36.4951)"
       d="m0 0 .581 1.107-4.742 2.506-.581-1.107z" />
    <path
       id="path8"
       transform="translate(43.5602 27.7672)"
       d="m0 0 1.235-.194.849 5.295-1.235.195z" />
    <path
       id="path10"
       transform="translate(30.1852 3.1839)"
       d="m0 0 1.235-.194.849 5.295-1.235.195z" />
    <path
       id="path12"
       transform="translate(13.7479 21.6997)"
       d="m0 0 1.25.01-.027 5.363-1.249-.01z" />
    <path
       id="path14"
       transform="translate(29.7046 21.656)"
       d="m0 0 1.073-.642 2.766 4.595-1.072.641z" />
    <path
       id="path16"
       transform="translate(36.2839 17.2279)"
       d="m0 0 .274-1.219 5.236 1.162-.274 1.22z" />
    <path
       id="path18"
       transform="translate(43.5783 8.0195)"
       d="m0 0 1.214-.298 1.295 5.204-1.214.298z" />
    <path
       id="path20"
       transform="translate(41.9568 21.0364)"
       d="m0 0 .834.931-3.986 3.589-.833-.931z" />
    <path
       id="path22"
       transform="translate(21.7956 10.3964)"
       d="m0 0 1.215-.294 1.275 5.21-1.214.293z" />
    <path
       id="path24"
       transform="translate(22.2214 43.7069)"
       d="m0 0-.93.835-3.596-3.979.93-.835z" />
    <path
       id="path26"
       transform="translate(52.4078 4.7443)"
       d="m0 0-.584 1.105-4.749-2.492.584-1.105z" />
    <path
       id="path28"
       transform="translate(10.824 13.1929)"
       d="m0 0-.595 1.099-4.724-2.538.595-1.1z" />
    <path
       id="path30"
       transform="translate(19.6589 47.3319)"
       d="m0 0 .872.896-4.022 4.125-.872-.896z" />
    <path
       id="path32"
       transform="translate(48.2214 49.9569)"
       d="m0 0-1.055.67-2.888-4.519 1.055-.67z" />
    <path
       id="path34"
       transform="translate(50.4671 34.7511)"
       d="m0 0 .857.91-3.895 3.687-.857-.91z" />
    <path
       id="path36"
       transform="translate(42.2839 39.9569)"
       d="m0 0-.811.951-4.09-3.469.811-.951z" />
    <path
       id="path38"
       transform="translate(38.7274 46.7419)"
       d="m0 0 .977.779-3.47 4.599-.977-.779z" />
    <path
       id="path40"
       transform="translate(12.2561 31.4511)"
       d="m0 0-.84.926-3.983-3.592.84-.926z" />
    <path
       id="path42"
       transform="translate(12.8341 43.6354)"
       d="m0 0 1.25.013-.04 5.363-1.25-.013z" />
    <path
       id="path44"
       transform="translate(27.7711 28.2774)"
       d="m0 0 1.216.289-1.226 5.221-1.217-.289z" />
    <path
       id="path46"
       transform="translate(10.0003 1.8608)"
       d="m0 0 1.216.289-1.226 5.222-1.217-.29z" />
    <path
       id="path48"
       transform="translate(51.8817 42.0444)"
       d="m0 0 1.21.315-1.338 5.194-1.21-.315z" />
    <path
       id="path50"
       transform="translate(35.3522 43.4027)"
       d="m0 0 .107 1.245-5.343.474-.106-1.246z" />
    <path
       id="path52"
       transform="translate(39.7305 31.1351)"
       d="m0 0-.178 1.237-5.311-.751.179-1.237z" />
    <path
       id="path54"
       transform="translate(20.5028 31.2115)"
       d="m0 0 .783.974-4.169 3.373-.784-.974z" />
    <path
       id="path56"
       transform="translate(52.1704 9.4748)"
       d="m0 0 1.014.73-3.121 4.361-1.015-.73z" />
    <path
       id="path58"
       transform="translate(1.9078 30.3551)"
       d="m0 0 1.25.031-.119 5.362-1.25-.031z" />
    <path
       id="path60"
       transform="translate(1.4078 14.6051)"
       d="m0 0 1.25.031-.119 5.362-1.25-.031z" />
    <path
       id="path62"
       transform="translate(9.2675 19.5596)"
       d="m0 0 .669 1.056-4.523 2.883-.669-1.056z" />
    <path
       id="path64"
       transform="translate(5.1425 3.8513)"
       d="m0 0 .669 1.056-4.523 2.883-.669-1.056z" />
    <path
       id="path66"
       transform="translate(26.25 1.3125)"
       d="m0 0 .669 1.056-4.523 2.883-.669-1.056z" />
    <path
       id="path68"
       transform="translate(17.3718 10.8482)"
       d="m0 0 .951.812-3.472 4.088-.95-.812z" />
    <path
       id="path70"
       transform="translate(31.1635 12.3274)"
       d="m0 0 .951.812-3.472 4.088-.95-.812z" />
    <path
       id="path72"
       transform="translate(25.0602 21.3937)"
       d="m0 0-.113 1.245-5.343-.471.114-1.245z" />
    <path
       id="path74"
       transform="translate(10.1967 36.7793)"
       d="m0 0 .911.856-3.662 3.919-.911-.857z" />
    <path
       id="path76"
       transform="translate(41.1076 1.0608)"
       d="m0 0 .522 1.136-4.866 2.254-.523-1.136z" />
    <path
       id="path78"
       transform="translate(52.9714 22.5194)"
       d="m0 0-.93.835-3.596-3.979.93-.835z" />
    <path
       id="path80"
       transform="translate(19.9923 4.936)"
       d="m0 0-.93.835-3.596-3.979.93-.835z" />
    <path
       id="path82"
       transform="translate(40.5131 11.5194)"
       d="m0 0-.93.836-3.596-3.98.93-.835z" />
    <path
       id="path84"
       transform="translate(52.235 26.5189)"
       d="m0 0 .911.856-3.662 3.918-.911-.856z" />
    <path
       id="path86"
       transform="translate(6.6949 45.08)"
       d="m0 0-.716 1.025-4.405-3.059.715-1.025z" />
    <path
       id="path88"
       transform="translate(9.0621 49.6299)"
       d="m0 0 .382 1.19-5.435 1.908-.383-1.19z" />
  </g>
</svg>
