<?xml version="1.0" encoding="UTF-8" standalone="no"?>
<svg
   xmlns:dc="http://purl.org/dc/elements/1.1/"
   xmlns:cc="http://creativecommons.org/ns#"
   xmlns:rdf="http://www.w3.org/1999/02/22-rdf-syntax-ns#"
   xmlns:svg="http://www.w3.org/2000/svg"
   xmlns="http://www.w3.org/2000/svg"
   id="svg404"
   version="1.1"
   height="68.9824px"
   width="68.9824px"
   >
  <defs
     id="defs408" />
  <metadata
     id="metadata2">citation: U.S. Geological Survey, 2006, FGDC Digital Cartographic Standard for Geologic Map Symbolization (PostScript Implementation): U.S. Geological Survey Techniques and Methods 11-A2 [pubs.usgs.gov/tm/2006/11A02/]. converted by CEC Geology LLC 2018 from the USGS lithologic gs converted to inkscape by the University of Otago.<rdf:RDF>
  <cc:Work
     rdf:about="">
    <dc:format>image/svg+xml</dc:format>
    <dc:type
       rdf:resource="http://purl.org/dc/dcmitype/StillImage" />
    <dc:title></dc:title>
  </cc:Work>
</rdf:RDF>
</metadata>
  <g
     id="g402"
     width="68.9824"
     stroke-width=".3"
     stroke="#231f20"
     height="68.9824"
     fill="none">
    <path
       id="path4"
       transform="translate(15.0757 42.5)"
       d="m0 0h-4.688" />
    <path
       id="path6"
       transform="translate(5.7632 42.5)"
       d="m0 0h4.625" />
    <path
       id="path8"
       transform="translate(10.3882 40.8125)"
       d="m0 0v1.688" />
    <path
       id="path10"
       transform="translate(10.3882 42.5)"
       d="m0 0v1.5" />
    <path
       id="path12"
       transform="translate(23.0132 42.5)"
       d="m0 0h4.625" />
    <path
       id="path14"
       transform="translate(32.3257 42.5)"
       d="m0 0h-4.688" />
    <path
       id="path16"
       transform="translate(27.6382 42.5)"
       d="m0 0v1.5" />
    <path
       id="path18"
       transform="translate(27.6382 40.8125)"
       d="m0 0v1.688" />
    <path
       id="path20"
       transform="translate(0 48.25)"
       d="m0 0h1.743" />
    <path
       id="path22"
       transform="translate(6.4302 48.25)"
       d="m0 0h-4.688" />
    <path
       id="path24"
       transform="translate(1.7427 48.25)"
       d="m0 0v1.5" />
    <path
       id="path26"
       transform="translate(1.7427 46.5625)"
       d="m0 0v1.688" />
    <path
       id="path28"
       transform="translate(23.6802 48.25)"
       d="m0 0h-4.688" />
    <path
       id="path30"
       transform="translate(14.3677 48.25)"
       d="m0 0h4.625" />
    <path
       id="path32"
       transform="translate(18.9927 48.25)"
       d="m0 0v1.5" />
    <path
       id="path34"
       transform="translate(18.9927 48.25)"
       d="m0 0v-1.688" />
    <path
       id="path36"
       transform="translate(15.0757 53.9785)"
       d="m0 0h-4.688" />
    <path
       id="path38"
       transform="translate(5.7632 53.9785)"
       d="m0 0h4.625" />
    <path
       id="path40"
       transform="translate(10.3882 53.9785)"
       d="m0 0v1.5" />
    <path
       id="path42"
       transform="translate(10.3882 52.291)"
       d="m0 0v1.688" />
    <path
       id="path44"
       transform="translate(23.0132 53.9785)"
       d="m0 0h4.625" />
    <path
       id="path46"
       transform="translate(32.3257 53.9785)"
       d="m0 0h-4.688" />
    <path
       id="path48"
       transform="translate(27.6382 53.9785)"
       d="m0 0v1.5" />
    <path
       id="path50"
       transform="translate(27.6382 53.9785)"
       d="m0 0v-1.688" />
    <path
       id="path52"
       transform="translate(0 59.7285)"
       d="m0 0h1.743" />
    <path
       id="path54"
       transform="translate(6.4302 59.7285)"
       d="m0 0h-4.688" />
    <path
       id="path56"
       transform="translate(1.7427 61.2285)"
       d="m0 0v-1.5" />
    <path
       id="path58"
       transform="translate(1.7427 58.041)"
       d="m0 0v1.688" />
    <path
       id="path60"
       transform="translate(23.6802 59.7285)"
       d="m0 0h-4.688" />
    <path
       id="path62"
       transform="translate(14.3677 59.7285)"
       d="m0 0h4.625" />
    <path
       id="path64"
       transform="translate(18.9927 59.7285)"
       d="m0 0v1.5" />
    <path
       id="path66"
       transform="translate(18.9927 58.041)"
       d="m0 0v1.688" />
    <path
       id="path68"
       transform="translate(6.4302 36.708)"
       d="m0 0h-4.688" />
    <path
       id="path70"
       transform="translate(1.7427 36.708)"
       d="m0 0h-1.743" />
    <path
       id="path72"
       transform="translate(1.7427 36.708)"
       d="m0 0v1.5" />
    <path
       id="path74"
       transform="translate(1.7427 36.708)"
       d="m0 0v-1.688" />
    <path
       id="path76"
       transform="translate(14.3677 36.708)"
       d="m0 0h4.625" />
    <path
       id="path78"
       transform="translate(23.6802 36.708)"
       d="m0 0h-4.688" />
    <path
       id="path80"
       transform="translate(18.9927 35.0205)"
       d="m0 0v1.688" />
    <path
       id="path82"
       transform="translate(18.9927 36.708)"
       d="m0 0v1.5" />
    <path
       id="path84"
       transform="translate(10.3882 65.458)"
       d="m0 0h4.688" />
    <path
       id="path86"
       transform="translate(5.7632 65.458)"
       d="m0 0h4.625" />
    <path
       id="path88"
       transform="translate(10.3882 63.7705)"
       d="m0 0v1.688" />
    <path
       id="path90"
       transform="translate(10.3882 65.458)"
       d="m0 0v1.5" />
    <path
       id="path92"
       transform="translate(27.6382 65.458)"
       d="m0 0h4.688" />
    <path
       id="path94"
       transform="translate(23.0132 65.458)"
       d="m0 0h4.625" />
    <path
       id="path96"
       transform="translate(27.6382 63.7705)"
       d="m0 0v1.688" />
    <path
       id="path98"
       transform="translate(27.6382 65.458)"
       d="m0 0v1.5" />
    <path
       id="path100"
       transform="translate(5.7632 7.958)"
       d="m0 0h4.625" />
    <path
       id="path102"
       transform="translate(15.0757 7.958)"
       d="m0 0h-4.688" />
    <path
       id="path104"
       transform="translate(10.3882 7.958)"
       d="m0 0v1.5" />
    <path
       id="path106"
       transform="translate(10.3882 6.2705)"
       d="m0 0v1.688" />
    <path
       id="path108"
       transform="translate(32.3257 7.958)"
       d="m0 0h-4.688" />
    <path
       id="path110"
       transform="translate(23.0132 7.958)"
       d="m0 0h4.625" />
    <path
       id="path112"
       transform="translate(27.6382 7.958)"
       d="m0 0v-1.688" />
    <path
       id="path114"
       transform="translate(27.6382 9.458)"
       d="m0 0v-1.5" />
    <path
       id="path116"
       transform="translate(1.7427 13.708)"
       d="m0 0h-1.743" />
    <path
       id="path118"
       transform="translate(6.4302 13.708)"
       d="m0 0h-4.688" />
    <path
       id="path120"
       transform="translate(1.7427 13.708)"
       d="m0 0v-1.688" />
    <path
       id="path122"
       transform="translate(1.7427 13.708)"
       d="m0 0v1.5" />
    <path
       id="path124"
       transform="translate(14.3677 13.708)"
       d="m0 0h4.625" />
    <path
       id="path126"
       transform="translate(23.6802 13.708)"
       d="m0 0h-4.688" />
    <path
       id="path128"
       transform="translate(18.9927 13.708)"
       d="m0 0v-1.688" />
    <path
       id="path130"
       transform="translate(18.9927 13.708)"
       d="m0 0v1.5" />
    <path
       id="path132"
       transform="translate(15.0757 19.4375)"
       d="m0 0h-4.688" />
    <path
       id="path134"
       transform="translate(5.7632 19.4375)"
       d="m0 0h4.625" />
    <path
       id="path136"
       transform="translate(10.3882 17.75)"
       d="m0 0v1.688" />
    <path
       id="path138"
       transform="translate(10.3882 19.4375)"
       d="m0 0v1.5" />
    <path
       id="path140"
       transform="translate(32.3257 19.4375)"
       d="m0 0h-4.688" />
    <path
       id="path142"
       transform="translate(23.0132 19.4375)"
       d="m0 0h4.625" />
    <path
       id="path144"
       transform="translate(27.6382 19.4375)"
       d="m0 0v-1.688" />
    <path
       id="path146"
       transform="translate(27.6382 19.4375)"
       d="m0 0v1.5" />
    <path
       id="path148"
       transform="translate(0 25.1875)"
       d="m0 0h1.743" />
    <path
       id="path150"
       transform="translate(6.4302 25.1875)"
       d="m0 0h-4.688" />
    <path
       id="path152"
       transform="translate(1.7427 23.5)"
       d="m0 0v1.688" />
    <path
       id="path154"
       transform="translate(1.7427 26.6875)"
       d="m0 0v-1.5" />
    <path
       id="path156"
       transform="translate(14.3677 25.1875)"
       d="m0 0h4.625" />
    <path
       id="path158"
       transform="translate(23.6802 25.1875)"
       d="m0 0h-4.688" />
    <path
       id="path160"
       transform="translate(18.9927 23.5)"
       d="m0 0v1.688" />
    <path
       id="path162"
       transform="translate(18.9927 25.1875)"
       d="m0 0v1.5" />
    <path
       id="path164"
       transform="translate(1.7427 2.166)"
       d="m0 0h-1.743" />
    <path
       id="path166"
       transform="translate(6.4302 2.166)"
       d="m0 0h-4.688" />
    <path
       id="path168"
       transform="translate(1.7427 .4785)"
       d="m0 0v1.688" />
    <path
       id="path170"
       transform="translate(1.7427 3.666)"
       d="m0 0v-1.5" />
    <path
       id="path172"
       transform="translate(23.6802 2.166)"
       d="m0 0h-4.688" />
    <path
       id="path174"
       transform="translate(18.9927 2.166)"
       d="m0 0h-4.625" />
    <path
       id="path176"
       transform="translate(18.9927 3.666)"
       d="m0 0v-1.5" />
    <path
       id="path178"
       transform="translate(18.9927 2.166)"
       d="m0 0v-1.688" />
    <path
       id="path180"
       transform="translate(5.7632 30.916)"
       d="m0 0h4.625" />
    <path
       id="path182"
       transform="translate(15.0757 30.916)"
       d="m0 0h-4.688" />
    <path
       id="path184"
       transform="translate(10.3882 30.916)"
       d="m0 0v1.5" />
    <path
       id="path186"
       transform="translate(10.3882 29.2285)"
       d="m0 0v1.688" />
    <path
       id="path188"
       transform="translate(23.0132 30.916)"
       d="m0 0h4.625" />
    <path
       id="path190"
       transform="translate(32.3257 30.916)"
       d="m0 0h-4.688" />
    <path
       id="path192"
       transform="translate(27.6382 30.916)"
       d="m0 0v1.5" />
    <path
       id="path194"
       transform="translate(27.6382 30.916)"
       d="m0 0v-1.688" />
    <path
       id="path196"
       transform="translate(40.2471 42.5)"
       d="m0 0h4.625" />
    <path
       id="path198"
       transform="translate(49.5596 42.5)"
       d="m0 0h-4.688" />
    <path
       id="path200"
       transform="translate(44.8721 42.5)"
       d="m0 0v1.5" />
    <path
       id="path202"
       transform="translate(44.8721 40.8125)"
       d="m0 0v1.688" />
    <path
       id="path204"
       transform="translate(62.1221 42.5)"
       d="m0 0h4.688" />
    <path
       id="path206"
       transform="translate(57.4971 42.5)"
       d="m0 0h4.625" />
    <path
       id="path208"
       transform="translate(62.1221 42.5)"
       d="m0 0v1.5" />
    <path
       id="path210"
       transform="translate(62.1221 42.5)"
       d="m0 0v-1.688" />
    <path
       id="path212"
       transform="translate(40.9136 48.25)"
       d="m0 0h-4.688" />
    <path
       id="path214"
       transform="translate(31.6011 48.25)"
       d="m0 0h4.625" />
    <path
       id="path216"
       transform="translate(36.2261 48.25)"
       d="m0 0v-1.688" />
    <path
       id="path218"
       transform="translate(36.2261 48.25)"
       d="m0 0v1.5" />
    <path
       id="path220"
       transform="translate(58.1636 48.25)"
       d="m0 0h-4.688" />
    <path
       id="path222"
       transform="translate(48.8511 48.25)"
       d="m0 0h4.625" />
    <path
       id="path224"
       transform="translate(53.4761 48.25)"
       d="m0 0v-1.688" />
    <path
       id="path226"
       transform="translate(53.4761 48.25)"
       d="m0 0v1.5" />
    <path
       id="path228"
       transform="translate(68.9824 48.25)"
       d="m0 0h-2.881" />
    <path
       id="path230"
       transform="translate(40.2471 53.9785)"
       d="m0 0h4.625" />
    <path
       id="path232"
       transform="translate(49.5596 53.9785)"
       d="m0 0h-4.688" />
    <path
       id="path234"
       transform="translate(44.8721 53.9785)"
       d="m0 0v1.5" />
    <path
       id="path236"
       transform="translate(44.8721 53.9785)"
       d="m0 0v-1.688" />
    <path
       id="path238"
       transform="translate(57.4971 53.9785)"
       d="m0 0h4.625" />
    <path
       id="path240"
       transform="translate(62.1221 53.9785)"
       d="m0 0h4.688" />
    <path
       id="path242"
       transform="translate(62.1221 53.9785)"
       d="m0 0v-1.688" />
    <path
       id="path244"
       transform="translate(62.1221 53.9785)"
       d="m0 0v1.5" />
    <path
       id="path246"
       transform="translate(40.9136 59.7285)"
       d="m0 0h-4.688" />
    <path
       id="path248"
       transform="translate(31.6011 59.7285)"
       d="m0 0h4.625" />
    <path
       id="path250"
       transform="translate(36.2261 58.041)"
       d="m0 0v1.688" />
    <path
       id="path252"
       transform="translate(36.2261 59.7285)"
       d="m0 0v1.5" />
    <path
       id="path254"
       transform="translate(48.8511 59.7285)"
       d="m0 0h4.625" />
    <path
       id="path256"
       transform="translate(58.1636 59.7285)"
       d="m0 0h-4.688" />
    <path
       id="path258"
       transform="translate(53.4761 58.041)"
       d="m0 0v1.688" />
    <path
       id="path260"
       transform="translate(53.4761 59.7285)"
       d="m0 0v1.5" />
    <path
       id="path262"
       transform="translate(66.1011 59.7285)"
       d="m0 0h2.881" />
    <path
       id="path264"
       transform="translate(40.9136 36.708)"
       d="m0 0h-4.688" />
    <path
       id="path266"
       transform="translate(31.6011 36.708)"
       d="m0 0h4.625" />
    <path
       id="path268"
       transform="translate(36.2261 36.708)"
       d="m0 0v-1.688" />
    <path
       id="path270"
       transform="translate(36.2261 36.708)"
       d="m0 0v1.5" />
    <path
       id="path272"
       transform="translate(48.8511 36.708)"
       d="m0 0h4.625" />
    <path
       id="path274"
       transform="translate(58.1636 36.708)"
       d="m0 0h-4.688" />
    <path
       id="path276"
       transform="translate(53.4761 36.708)"
       d="m0 0v-1.688" />
    <path
       id="path278"
       transform="translate(53.4761 36.708)"
       d="m0 0v1.5" />
    <path
       id="path280"
       transform="translate(66.1011 36.708)"
       d="m0 0h2.881" />
    <path
       id="path282"
       transform="translate(44.8721 65.458)"
       d="m0 0h4.688" />
    <path
       id="path284"
       transform="translate(40.2471 65.458)"
       d="m0 0h4.625" />
    <path
       id="path286"
       transform="translate(44.8721 65.458)"
       d="m0 0v1.5" />
    <path
       id="path288"
       transform="translate(44.8721 63.7705)"
       d="m0 0v1.688" />
    <path
       id="path290"
       transform="translate(57.4971 65.458)"
       d="m0 0h4.625" />
    <path
       id="path292"
       transform="translate(62.1221 65.458)"
       d="m0 0h4.688" />
    <path
       id="path294"
       transform="translate(62.1221 65.458)"
       d="m0 0v1.5" />
    <path
       id="path296"
       transform="translate(62.1221 63.7705)"
       d="m0 0v1.688" />
    <path
       id="path298"
       transform="translate(49.5596 7.958)"
       d="m0 0h-4.688" />
    <path
       id="path300"
       transform="translate(40.2471 7.958)"
       d="m0 0h4.625" />
    <path
       id="path302"
       transform="translate(44.8721 9.458)"
       d="m0 0v-1.5" />
    <path
       id="path304"
       transform="translate(44.8721 7.958)"
       d="m0 0v-1.688" />
    <path
       id="path306"
       transform="translate(62.1221 7.958)"
       d="m0 0h4.688" />
    <path
       id="path308"
       transform="translate(57.4971 7.958)"
       d="m0 0h4.625" />
    <path
       id="path310"
       transform="translate(62.1221 7.958)"
       d="m0 0v-1.688" />
    <path
       id="path312"
       transform="translate(62.1221 7.958)"
       d="m0 0v1.5" />
    <path
       id="path314"
       transform="translate(31.6011 13.708)"
       d="m0 0h4.625" />
    <path
       id="path316"
       transform="translate(40.9136 13.708)"
       d="m0 0h-4.688" />
    <path
       id="path318"
       transform="translate(36.2261 13.708)"
       d="m0 0v-1.688" />
    <path
       id="path320"
       transform="translate(36.2261 13.708)"
       d="m0 0v1.5" />
    <path
       id="path322"
       transform="translate(53.4761 13.708)"
       d="m0 0h4.688" />
    <path
       id="path324"
       transform="translate(48.8511 13.708)"
       d="m0 0h4.625" />
    <path
       id="path326"
       transform="translate(53.4761 13.708)"
       d="m0 0v-1.688" />
    <path
       id="path328"
       transform="translate(53.4761 13.708)"
       d="m0 0v1.5" />
    <path
       id="path330"
       transform="translate(66.1011 13.708)"
       d="m0 0h2.881" />
    <path
       id="path332"
       transform="translate(49.5596 19.4375)"
       d="m0 0h-4.688" />
    <path
       id="path334"
       transform="translate(40.2471 19.4375)"
       d="m0 0h4.625" />
    <path
       id="path336"
       transform="translate(44.8721 19.4375)"
       d="m0 0v-1.688" />
    <path
       id="path338"
       transform="translate(44.8721 19.4375)"
       d="m0 0v1.5" />
    <g
       id="g348"
       transform="translate(62.1221 19.4375)">
      <path
         id="path340"
         d="m0 0h4.688" />
      <path
         id="path342"
         d="m0 0h-4.625" />
      <path
         id="path344"
         d="m0 0v1.5" />
      <path
         id="path346"
         d="m0 0v-1.688" />
    </g>
    <path
       id="path350"
       transform="translate(40.9136 25.1875)"
       d="m0 0h-4.688" />
    <path
       id="path352"
       transform="translate(31.6011 25.1875)"
       d="m0 0h4.625" />
    <path
       id="path354"
       transform="translate(36.2261 26.6875)"
       d="m0 0v-1.5" />
    <path
       id="path356"
       transform="translate(36.2261 25.1875)"
       d="m0 0v-1.688" />
    <path
       id="path358"
       transform="translate(53.4761 25.1875)"
       d="m0 0h4.688" />
    <path
       id="path360"
       transform="translate(48.8511 25.1875)"
       d="m0 0h4.625" />
    <path
       id="path362"
       transform="translate(53.4761 25.1875)"
       d="m0 0v1.5" />
    <path
       id="path364"
       transform="translate(53.4761 25.1875)"
       d="m0 0v-1.688" />
    <path
       id="path366"
       transform="translate(66.1011 25.1875)"
       d="m0 0h2.881" />
    <path
       id="path368"
       transform="translate(40.9136 2.166)"
       d="m0 0h-4.688" />
    <path
       id="path370"
       transform="translate(36.2261 2.166)"
       d="m0 0h-4.625" />
    <path
       id="path372"
       transform="translate(36.2261 3.666)"
       d="m0 0v-1.5" />
    <path
       id="path374"
       transform="translate(36.2261 2.166)"
       d="m0 0v-1.688" />
    <path
       id="path376"
       transform="translate(58.1636 2.166)"
       d="m0 0h-4.688" />
    <path
       id="path378"
       transform="translate(53.4761 2.166)"
       d="m0 0h-4.625" />
    <path
       id="path380"
       transform="translate(53.4761 3.666)"
       d="m0 0v-1.5" />
    <path
       id="path382"
       transform="translate(53.4761 2.166)"
       d="m0 0v-1.688" />
    <path
       id="path384"
       transform="translate(66.1011 2.166)"
       d="m0 0h2.881" />
    <path
       id="path386"
       transform="translate(40.2471 30.916)"
       d="m0 0h4.625" />
    <path
       id="path388"
       transform="translate(49.5596 30.916)"
       d="m0 0h-4.688" />
    <path
       id="path390"
       transform="translate(44.8721 30.916)"
       d="m0 0v1.5" />
    <path
       id="path392"
       transform="translate(44.8721 30.916)"
       d="m0 0v-1.688" />
    <path
       id="path394"
       transform="translate(57.4971 30.916)"
       d="m0 0h4.625" />
    <path
       id="path396"
       transform="translate(66.8096 30.916)"
       d="m0 0h-4.688" />
    <path
       id="path398"
       transform="translate(62.1221 30.916)"
       d="m0 0v-1.688" />
    <path
       id="path400"
       transform="translate(62.1221 32.416)"
       d="m0 0v-1.5" />
  </g>
</svg>
