<?xml version="1.0" encoding="UTF-8" standalone="no"?>
<svg
   xmlns:dc="http://purl.org/dc/elements/1.1/"
   xmlns:cc="http://creativecommons.org/ns#"
   xmlns:rdf="http://www.w3.org/1999/02/22-rdf-syntax-ns#"
   xmlns:svg="http://www.w3.org/2000/svg"
   xmlns="http://www.w3.org/2000/svg"
   id="svg214"
   height="53.75"
	width="53.75"
   version="1.1">
  <defs
     id="defs218" />
  <metadata
     id="metadata2">citation: U.S. Geological Survey, 2006, FGDC Digital Cartographic Standard for Geologic Map Symbolization (PostScript Implementation): U.S. Geological Survey Techniques and Methods 11-A2 [pubs.usgs.gov/tm/2006/11A02/]. converted by CEC Geology LLC 2018 from the USGS lithologic gs converted to inkscape by the University of Otago.<rdf:RDF>
  <cc:Work
     rdf:about="">
    <dc:format>image/svg+xml</dc:format>
    <dc:type
       rdf:resource="http://purl.org/dc/dcmitype/StillImage" />
    <dc:title></dc:title>
  </cc:Work>
</rdf:RDF>
</metadata>
  <g
     id="g212"
     width="53.75"
     transform="matrix(1 0 0 -1 0 53.750)"
     stroke-width=".3"
     stroke="#231f20"
     height="53.75"
     fill="none">
    <path
       id="path4"
       transform="translate(53.75 49.5054)"
       d="m0 0c-.745-.417-1.304-1.008-1.375-2.005-.125-1.75 0-3.625-1.125-4.5s-2.125-.25-2.25-1.625-.375-5.125-2.875-5.5-3-.25-3.875-1-1.125-1.125-2-1.125-1.25-1.375-.125-2.375 1.625-1.125 1.625-2.25 1-1.25 2.125-1.625 5-.625 1.625-2-4.25-1.875-5.125-3.375-.625-2.75-1.875-3.25-1.625.125-2.125-.875-.5-1.375-1.375-1.375-1.75-1.125.25-1.375 2.25-.25 2.875-1.25.375-1.125 1.75-.75 1.75 1.625 2.875.125 2.375-2.5 3.125-4.25 1.125-2.25-.25-3.625-2.625-2.25-3.375-2.625c-.708-.354-.734-1.477-2.222-2.875" />
    <path
       id="path6"
       transform="translate(53.75 38.688)"
       d="m0 0c-.041-.021-.083-.042-.125-.063-1.75-.875-1.5-1.875-1.875-2.75s-.5-3-2.5-3.5-3.5-.5-1.625-1.5 3.875-4.25 3.125-5.625-1.5-1.375-1.75-2.125.125-2.125-1.5-1.625-2.125.5-2.625-1-1.375-2.875 0-3.625 4-1.75 4-3 .125-1.625 1.25-2.25 1.5-2.125 1.625-2.875.25-3.375-1.125-4.375-2.938-1.188-3.813-2.188-.669-.503-1.812-2.187" />
    <path
       id="path8"
       transform="translate(53.75 46.3354)"
       d="m0 0c-.213-.497-.371-1.066-.5-1.71-.375-1.875-.512-4.144-1.375-4-.75.125-1.25.5-1.625-.875s-1.25-4.5-3-4.875-3.125.375-4-.375-2.25-1.875-1.25-3 1.25-1 1.25-1.875 0-1 1.375-1 3.125-.25 3.375-1.375.125-2.375-1.25-2.75-3-.125-3.875-1.125-1.25-1.75-1.5-3.125-.75-2.25-1.75-2.125-.875-.25-1.625-.875-.875-1 0-1.25 1.375-.125 1.375-.875-.375-.5 1.125-.625 2.5.875 4.25-1.25 2.375-1.375 3-3.75 1.25-2.875 0-4-3.875-2.5-4.625-3-.5.125-.5-1.25c0-.626-.323-.98-.7-1.25" />
    <path
       id="path10"
       transform="translate(53.75 40.2036)"
       d="m0 0c-.185-.3-.426-.507-.75-.579-1.125-.25-1.875-1.25-2.25-2.25s-1.5-3.5-2.625-3.75-3.5-.5-4-1-.25-.875.125-1.5 0-1.25 1.25-1.375 4.25-.75 4-2.75-1.75-4.5-3.5-4.125-2.5-.375-2.625-1.625-.25-2.375-1.125-3.25-3-1.625-.75-1.875 2.5-.25 3.75-1.25 1.625-.375 2-1.625-.125-.625 1.125-1.75 2.375-1.5 2.125-3.375 0-2.875-1.375-3.5-2.5-1.125-3.25-1.75-1.75-.5-1.375-1.75c.167-.557-.212-.829-.706-1.125" />
    <path
       id="path12"
       transform="translate(45 53.75)"
       d="m0 0c-1.169-1.722-.991-2.29-2-4.813 0 0-1.125-.937-.688-3.125.438-2.187 1.063-3.25-.437-4s-2.125-1.375-3.063-1.562c-.937-.188-1.745-.289-1.745-.289-.065-.008-.13-.016-.192-.024-1-.125-.875-.625-.875-1.562 0-.938-.5-1.063-1.813-1.563-1.312-.5-2.187-.5-3-.312-.812.187-.875-.375-1.125-1s-.562-1.063-2.062-1.5c-1.5-.438.875-1.938 1.937-2.313 1.063-.375 1.875-1.125 2.25-2.062.375-.938.563-.688 1.5-.688.938 0 1.188-.375 1.313-.812.125-.438.375-.75 1.25-1.063.875-.312 1.062-.687.875-1.25-.188-.562-.313-.562-.75-.812-.438-.25-1.063-.563-1.438-1.25-.375-.688-.375-.563-1.25-1-.875-.438-1.375-1.188-1.875-2.563s-2.25-1.75-3.75-1.937c-1.5-.188-1.25-.313-1.625-1-.375-.688-.437-.563-1.25-1-.812-.438-.812-.313-.375-1.125.438-.813 1.188-.813 3.125-1 1.938-.188 1.375-.625 2.063-1.438.687-.812.75-.687 1.875-1.062s1.937-2.5 3-4.188c1.062-1.687-.125-2.562-1.563-4.375-1.437-1.812-1.625-2.379-1.625-2.379-.164-.233-.308-.458-.434-.683" />
    <path
       id="path14"
       transform="translate(41.9253 53.75)"
       d="m0 0c-.45-.324-.977-.529-1.113-.938 0 0 .25-.625.125-1.75s-.312-1.375-.812-2.375-.688-1.375-.25-2.75c.437-1.375.312-2.437-1.438-2.937s-4.375-.813-4.812-1.813c-.438-1-.75-2.25-2-2.312-1.25-.063-2.938.375-3.688-.75s-1.062-1.563-1.687-1.625c-.625-.063-1.938-.188-2.125-.938 0 0 0-1 .937-2 .938-1 .938-.875.938-1.5s-.313-1 1-1.5c1.312-.5 2.5-.437 2.875-1.75.375-1.312.375-1.187 1.562-1.5 1.188-.312 1.813-1.25 1.063-2.125s-2.938-1.437-2.938-2.375c0-.937-.625-2.062-2.187-2.312-1.563-.25-3.375-.313-3.313-.938.063-.625-.437-1.375-1.312-1.875 0 0-.188-.062-.875-.25-.688-.187-1.188-.5-1.188-.5-.875-.25-.75-.937-.187-1.5.562-.562.625-.687 1-1.312s.375-.75 2.687-1.313c2.313-.562 2.938-2.937 3.188-4.25.25-1.312 1.375-1.562 2.937-2.125 1.563-.562.5-2.625-.437-3.625-.938-1-1.438-1.879-1.438-1.879-.298-.317-.496-.623-.634-.933" />
    <path
       id="path16"
       transform="translate(43.7935 53.75)"
       d="m0 0c-.614-.368-1.405-.773-1.544-1.813 0 0 .25-1-.25-1.812-.5-.813-1.437-2-.875-3.75.563-1.75.438-3.188-.812-3.813s-2.563-1.187-3.5-1.312c-.938-.125-1.688-.063-1.875-.813-.188-.75-1.063-1.687-1.938-2.125-.875-.437-.812-.375-2-.625 0 0-1.25.063-1.812-.937-.563-1-.438-.938-1.625-1.313-1.188-.375-2.063-.437-1.375-1.5.687-1.062.75-1.312.875-1.812s.25-.75 1.375-1.125 1.875-.188 2.5-1.375c.625-1.188.562-1.313 1.375-1.563.812-.25 2.187-.625 2.062-1.562-.125-.938.375-1.75-1.125-2.563-1.5-.812-2.375-1.437-2.625-2.25-.25-.812-.5-2.062-2-2.312s-3 0-3.437-.813c-.438-.812-.188-1-1.125-1.375-.938-.375-1.375-.625-1.375-.625-1.313-.187-.875-.625-.5-1.625s1.312-1 2.75-1.187c1.437-.188 3.437-2 4-2.75.562-.75 1.062-2.188 3.062-3.625 2-1.438.188-3.5-.687-4.438-.875-.937-1.625-2.254-1.625-2.254-.15-.225-.266-.453-.359-.683" />
    <path
       id="path18"
       transform="translate(0 49.5054)"
       d="m0 0c.562.314 1.23.53 1.875.745 1.5.5 1.75.5 2.875 1.875s1.625 0 5.5 1.5c0 0 .131-.026.392.125" />
    <path
       id="path20"
       transform="translate(0 38.688)"
       d="m0 0c1.631.825 1.762 1.089 2.25 2.187 0 0 .125.5.375 2.625s.625 3.5 2 3.625 3.25.625 3.125 1.625-.75 1.125 1.375 1 3.125.75 4.75 1.875c.857.594 1.68 1.327 2.394 2.125" />
    <path
       id="path22"
       transform="translate(0 46.3354)"
       d="m0 0c.407.949 1.015 1.629 2 2.04 1.5.625 2 1 2.625 1.75s1 1 2.5 1.5 3.25.625 4.625 1.25c.376.17.771.482 1.171.875" />
    <path
       id="path24"
       transform="translate(0 40.2036)"
       d="m0 0c.458.741.572 2.05.75 3.296.25 1.75.5 1.875 1.125 2.75s2.5 1.75 3.75 2.375.75 1.125 1.25 1.75 2.5.625 4 .75c1.186.099 2.839 1.447 3.913 2.625" />
    <path
       id="path26"
       transform="translate(10.6421)"
       d="m0 0c.311.179.805.607 1.483 1.625 1.25 1.875 2.125 2.875 2.625 3.5 0 0 1.875 3.5-1.25 3.25s-5.625 1.25-6.375 2.125-1.875.875-2.125 2.25-.25 1.375-1.125 1.875-5.125 3.125.125 5.25 4.125 2.5 4.375 3.375.625 1.625 2.625 1.75 3.375.375 2.375 1.75-.875 2.125-.875 2.125-.375 1-2.375 1.5-3.625 1.375-3.375 2.625.125 1.375-1 2.25-1.875 2.75-1.375 4 3.75 3.25 5.625 3.875 2.375.5 2.5 1.375 2.875 1.5 4.625 1.875 3.875.375 3.875 1.5 1.25 2 3 2.625 2.5.625 2.5 1.75c0 .508-.025 1.015.05 1.5" />
    <path
       id="path28"
       transform="translate(31.251 53.75)"
       d="m0 0c-.445-.799-.668-1.609-.814-2.875-.187-1.625-2.187-2.563-3.5-3.188-1.312-.625-1.687-.75-1.625-1.937.063-1.188-2.687-2.063-5.437-2.375-2.75-.313-2.813-1-3.063-1.938-.25-.937-2.875-1.375-5.437-2.187-2.563-.813-1.188-2-.313-2.438.875-.437.563-1.062.625-2.187.063-1.125 2.25-1.438 5.313-1.938 3.062-.5 1.375-2.812.812-3.875-.562-1.062.313-1.75 1-2.875.688-1.125-1.25-3.375-3.187-3.875-1.938-.5-2.688-.625-3.188-1.812-.5-1.188-1.25-1.438-2.562-1.938-1.313-.5-1.688-.625-1-1.25.687-.625.437-.562.437-1.437s-.312-1.188 1-1.5c1.313-.313 2.25-.5 2.813-1.438.562-.937 1.062-1.312 3.812-1.375 2.75-.062 2.063-1.875 2.25-3.625.188-1.75.688-1.875.125-2.937-.562-1.063-1.437-2.5-1.437-2.5-.414-.768-.966-1.535-1.606-2.25" />
    <path
       id="path30"
       transform="translate(12.9214)"
       d="m0 0c1.064 1.043 2.17 2.66 3.079 3.75 0 0 1 .938 1 2.5 0 1.563.062 2.75-2.063 3.063-2.125.312-3.875 1.25-4.875 1.812-1 .563-1.875 1.25-2.625 1.563-.75.312-1.062.312-1.125 1.5-.062 1.187-.687 1.375-1.437 1.562-.75.188-3 1.75-.688 2.875 2.313 1.125 4.625 2.438 4.813 2.75.187.313-.5 1.625 2.187 2.125 2.688.5 5.563 1.438 4.313 3-1.25 1.563-1.25 1.813-.875 2.625.375.813-1.563 1.75-3.875 2.625-2.313.875-2.563 1.25-2.313 2.25s-.062 1.625-1.437 2.313c-1.375.687-2.688 3 .687 4.437 3.375 1.438 5.188 2 5.563 2.813.375.812 1.875 1.5 3.687 1.812 1.813.313 5.375 1.063 5.375 2.063s.313 1.562 1.688 1.75c1.375.187 3.062.75 3.312 2.125.175.962.167 1.71.489 2.437" />
    <path
       id="path32"
       transform="translate(14.7881)"
       d="m0 0c.285.313.528.613.712.875 0 0 1 1.563 1.75 2.75.75 1.188 1.5 1.813 1 3.563s-.063 2.812-1.875 3.062c-1.813.25-3.188-.437-3.875.75-.688 1.188-2.063 1.813-3.188 2.125-1.125.313-1.812.125-1.75 1.25.063 1.125.813 1.563-.687 2-1.5.438-2 1.375-.5 2.125s2.687 1.688 3.375 1.75c.687.063.937.313 1.312 1 .375.688.75 1.25 2.063 1.438 1.312.187 2.937 1 3.562 1.687.625.688.938 1.438.125 2.438-.812 1-1.375 1.312-.875 1.937s1.625 2.688-1.062 3.125c-2.688.438-5.063 1.188-4.75 2.375.312 1.188.187 1.313-.938 2-1.125.688-2.875 2.313-.687 3.125 2.187.813 3.812 1.625 4.375 1.688.562.062 1.687.75 2.062 1.5s-.062 1.5 2.563 1.75 6.187.875 6.437 2.125.063 1.75 1.938 2.25 2.312.75 2.75 1.875c.362.931.254 2.076.702 3.187" />
    <path
       id="path34"
       transform="translate(40.0283 53.75)"
       d="m0 0c-.087-.083-.18-.165-.278-.25-.875-.75-.125-.5-.25-2.25s-.25-2-.875-2.875c0 0-2.125-1.375-1.063-2.438 1.063-1.062 1.375-1.5-.125-2.062-1.5-.563-5.375-1.375-5.687-1.813-.313-.437-.375-.25-.188-.937.188-.688-.25-1.188-1.437-1.25-1.188-.063-2.75-.25-3.375-1.125s-1.25-1.375-2.5-1.438c-1.25-.062-2.75-.25-2.313-1.187.438-.938 2.125-1.625 1.875-2.438-.25-.812.313-1.125.938-2.125s.937-2.687 2.25-2.875c1.312-.187 1.625.438 1.937-.875.313-1.312.563-1.437 1.438-1.5.875-.062 1.125-.5 0-.937-1.125-.438-1.938-.25-2-1.5-.063-1.25-.375-2.063-1.688-2.313-1.312-.25-3.812-.062-3.812-.937s-.313-1.813-1.688-2.188l-3.187-1.25c-1.375-.437-.375-1.375.687-1.625 1.063-.25.813-.937 1.563-2.5.75-1.562 2.562-1.625 3.875-1.625 1.312 0 2.062-2.687 2.312-3.937s1.813-1.188 2.75-2.438c.938-1.25-1.687-3.441-1.687-3.441-.616-.479-.857-1.033-.949-1.621" />
    <path
       id="path36"
       transform="translate(3 51.875)"
       d="m0 0-2 1.125" />
    <path
       id="path38"
       transform="translate(7.0049 43.2061)"
       d="m0 0-.067 2.294" />
    <path
       id="path40"
       transform="translate(10.5625 45.6875)"
       d="m0 0-.938 2.125" />
    <path
       id="path42"
       transform="translate(5.25 41.3125)"
       d="m0 0-2.25-.063" />
    <path
       id="path44"
       transform="translate(14.6665 48.458)"
       d="m0 0-1.917.667" />
    <path
       id="path46"
       transform="translate(18 52.125)"
       d="m0 0-2.167-.75" />
    <path
       id="path48"
       transform="translate(18.25 47.7915)"
       d="m0 0-1 1.916" />
    <path
       id="path50"
       transform="translate(23.333 51.375)"
       d="m0 0-2 .833" />
    <path
       id="path52"
       transform="translate(1.5 34.875)"
       d="m0 0 .833 2" />
    <path
       id="path54"
       transform="translate(3.6665 33.208)"
       d="m0 0 1.833-1.416" />
    <path
       id="path56"
       transform="translate(4.083 29.875)"
       d="m0 0-2.166-.417" />
    <path
       id="path58"
       transform="translate(6.9165 27.708)"
       d="m0 0 .833 2.083" />
    <path
       id="path60"
       transform="translate(1.458 12.5)"
       d="m0 0 .834 2.083" />
    <path
       id="path62"
       transform="translate(11.6665 26.125)"
       d="m0 0-2.167 1.167" />
    <path
       id="path64"
       transform="translate(7.1665 23.125)"
       d="m0 0-1 2.167" />
    <path
       id="path66"
       transform="translate(5.1665 22.458)"
       d="m0 0-2.75-.333" />
    <path
       id="path68"
       transform="translate(3.333 24.5415)"
       d="m0 0-1.916 2" />
    <path
       id="path70"
       transform="translate(11.1665 15.625)"
       d="m0 0 2.167.583" />
    <path
       id="path72"
       transform="translate(15.4165 12.708)"
       d="m0 0 .333 2.167" />
    <path
       id="path74"
       transform="translate(20.083 11.625)"
       d="m0 0-2.25 1" />
    <path
       id="path76"
       transform="translate(14.75 20.0415)"
       d="m0 0 .833-2.5" />
    <path
       id="path78"
       transform="translate(20.4165 20.125)"
       d="m0 0-2.583.833" />
    <path
       id="path80"
       transform="translate(20.75 25.708)"
       d="m0 0v-2.5" />
    <path
       id="path82"
       transform="translate(25.9165 23.125)"
       d="m0 0-2.5.917" />
    <path
       id="path84"
       transform="translate(27.1665 27.5415)"
       d="m0 0-.083-2.5" />
    <path
       id="path86"
       transform="translate(24.6665 28.208)"
       d="m0 0-2-1.417" />
    <path
       id="path88"
       transform="translate(23.083 28.958)"
       d="m0 0-1.833 1.417" />
    <path
       id="path90"
       transform="translate(19.6665 33.125)"
       d="m0 0 1.167 2" />
    <path
       id="path92"
       transform="translate(13.9165 35.375)"
       d="m0 0 1.5-1.167" />
    <path
       id="path94"
       transform="translate(14 37.375)"
       d="m0 0 .917 2" />
    <path
       id="path96"
       transform="translate(19 36.7915)"
       d="m0 0-2-.667" />
    <path
       id="path98"
       transform="translate(18.5 41.708)"
       d="m0 0 1.25-1.833" />
    <path
       id="path100"
       transform="translate(52.4331 .792)"
       d="m0 0-1.25 1.833" />
    <path
       id="path102"
       transform="translate(23.833 39.0415)"
       d="m0 0 1.917.833" />
    <path
       id="path104"
       transform="translate(22.75 41.208)"
       d="m0 0 .583 2" />
    <path
       id="path106"
       transform="translate(28.25 42.125)"
       d="m0 0-1.5 1.5" />
    <path
       id="path108"
       transform="translate(28.083 45.875)"
       d="m0 0 2.75.75" />
    <path
       id="path110"
       transform="translate(33.333 46.208)"
       d="m0 0-.25-2.416" />
    <path
       id="path112"
       transform="translate(37.1665 49.125)"
       d="m0 0-2.334-1.25" />
    <path
       id="path114"
       transform="translate(32.6665 49.458)"
       d="m0 0-.334 2.417" />
    <path
       id="path116"
       transform="translate(35.333 52.0415)"
       d="m0 0 2.417.833" />
    <path
       id="path118"
       transform="translate(48.6665 51.875)"
       d="m0 0 2.75.5" />
    <path
       id="path120"
       transform="translate(47 49.2915)"
       d="m0 0-1.833 1.333" />
    <path
       id="path122"
       transform="translate(47.833 46.708)"
       d="m0 0 1-1.916" />
    <path
       id="path124"
       transform="translate(51.1665 49.458)"
       d="m0 0-.167-2.333" />
    <path
       id="path126"
       transform="translate(44.25 42.125)"
       d="m0 0 .417 2.417" />
    <path
       id="path128"
       transform="translate(46.1665 40.875)"
       d="m0 0 1.916 1" />
    <path
       id="path130"
       transform="translate(46.25 37.2915)"
       d="m0 0-1 2.166" />
    <path
       id="path132"
       transform="translate(41.25 39.875)"
       d="m0 0 2.167-.333" />
    <path
       id="path134"
       transform="translate(41.9165 35.708)"
       d="m0 0-1.167 2" />
    <path
       id="path136"
       transform="translate(37.333 35.958)"
       d="m0 0 1 2.667" />
    <path
       id="path138"
       transform="translate(30.75 33.625)"
       d="m0 0 2 1.333" />
    <path
       id="path140"
       transform="translate(38.083 33.125)"
       d="m0 0-2.416.25" />
    <path
       id="path142"
       transform="translate(33.583 30.0415)"
       d="m0 0 .167 2.083" />
    <path
       id="path144"
       transform="translate(37 28.5415)"
       d="m0 0 1.75 1.75" />
    <path
       id="path146"
       transform="translate(40.75 26.458)"
       d="m0 0-1.25 1.833" />
    <path
       id="path148"
       transform="translate(44.833 26.2915)"
       d="m0 0-2.333-.167" />
    <path
       id="path150"
       transform="translate(37.4165 22.7915)"
       d="m0 0 1.666 1.917" />
    <path
       id="path152"
       transform="translate(34.583 21.7915)"
       d="m0 0 1.25-2" />
    <path
       id="path154"
       transform="translate(31.4165 17.875)"
       d="m0 0 2.833.417" />
    <path
       id="path156"
       transform="translate(30.5 16.0415)"
       d="m0 0 .667-2.25" />
    <path
       id="path158"
       transform="translate(26.9165 15.5415)"
       d="m0 0 1.667 1.5" />
    <path
       id="path160"
       transform="translate(35.75 12.875)"
       d="m0 0-2.833-.333" />
    <path
       id="path162"
       transform="translate(39 9.708)"
       d="m0 0 .5-2.083" />
    <path
       id="path164"
       transform="translate(40.1665 11.458)"
       d="m0 0 2.583-.167" />
    <path
       id="path166"
       transform="translate(46.333 20.458)"
       d="m0 0 .167-2.75" />
    <path
       id="path168"
       transform="translate(48.6665 16.875)"
       d="m0 0 2.333 1.083" />
    <path
       id="path170"
       transform="translate(51.0625 20.7705)"
       d="m0 0 2.25-.917" />
    <path
       id="path172"
       transform="translate(52.4165 12.208)"
       d="m0 0-1.334 2.083" />
    <path
       id="path174"
       transform="translate(52.333 25.7915)"
       d="m0 0s-.083-2.167-.083-2.5" />
    <path
       id="path176"
       transform="translate(52.833 28.625)"
       d="m0 0-1.833 1" />
    <path
       id="path178"
       transform="translate(51.25 31.875)"
       d="m0 0 1.667 2" />
    <path
       id="path180"
       transform="translate(35.75 7.2915)"
       d="m0 0 .75 3.083" />
    <path
       id="path182"
       transform="translate(42 8.375)"
       d="m0 0 2.083-.75" />
    <path
       id="path184"
       transform="translate(42.5 4.958)"
       d="m0 0-2.75-.166" />
    <path
       id="path186"
       transform="translate(39.1665 .958)"
       d="m0 0-1.167 2.167" />
    <path
       id="path188"
       transform="translate(36 2.875)"
       d="m0 0-2.25-1.417" />
    <path
       id="path190"
       transform="translate(21.083 9.0415)"
       d="m0 0 2.583.833" />
    <path
       id="path192"
       transform="translate(20.833 7.0415)"
       d="m0 0 1.917-1.834" />
    <path
       id="path194"
       transform="translate(28.333 4.708)"
       d="m0 0h-2.75" />
    <path
       id="path196"
       transform="translate(25.083 .7915)"
       d="m0 0-.583 2.416" />
    <path
       id="path198"
       transform="translate(21.4165 2.458)"
       d="m0 0-3-1.25" />
    <path
       id="path200"
       transform="translate(2.9165 9.5415)"
       d="m0 0 2.75 1.167" />
    <path
       id="path202"
       transform="translate(2.4165 4.7915)"
       d="m0 0-1.834 2.25" />
    <path
       id="path204"
       transform="translate(7.25 6.2915)"
       d="m0 0-3 .666" />
    <path
       id="path206"
       transform="translate(13.75 7.125)"
       d="m0 0-2.083-1.417" />
    <path
       id="path208"
       transform="translate(8.354 1.5415)"
       d="m0 0-.167 2.75" />
    <path
       id="path210"
       transform="translate(3.9375 2.4375)"
       d="m0 0-2.833-1.417" />
  </g>
</svg>
