<?xml version="1.0" encoding="UTF-8" standalone="no"?>
<svg
   xmlns:dc="http://purl.org/dc/elements/1.1/"
   xmlns:cc="http://creativecommons.org/ns#"
   xmlns:rdf="http://www.w3.org/1999/02/22-rdf-syntax-ns#"
   xmlns:svg="http://www.w3.org/2000/svg"
   xmlns="http://www.w3.org/2000/svg"
   id="svg160"
        width="53.5"
     height="53.5"
   version="1.1">
  <defs
     id="defs164" />
  <metadata
     id="metadata2">citation: U.S. Geological Survey, 2006, FGDC Digital Cartographic Standard for Geologic Map Symbolization (PostScript Implementation): U.S. Geological Survey Techniques and Methods 11-A2 [pubs.usgs.gov/tm/2006/11A02/]. converted by CEC Geology LLC 2018 from the USGS lithologic gs converted to inkscape by the University of Otago.<rdf:RDF>
  <cc:Work
     rdf:about="">
    <dc:format>image/svg+xml</dc:format>
    <dc:type
       rdf:resource="http://purl.org/dc/dcmitype/StillImage" />
    <dc:title></dc:title>
  </cc:Work>
</rdf:RDF>
</metadata>
  <g
     id="g158"
     width="53.5"
     transform="matrix(0 1 -1 0 53.500 0)"
     stroke-width=".3"
     stroke="#231f20"
     height="53.5"
     fill="none">
    <path
       id="path4"
       transform="translate(0 46.0806)"
       d="m0 0c1.854 1.76 4.471 4.689 5.583 5.94l.757.969" />
    <path
       id="path6"
       transform="translate(4.0835 48.271)"
       d="m0 0c-1-1.167-2.417-3.167-3.167-3.917-.231-.231-.555-.581-.916-.985" />
    <path
       id="path8"
       transform="translate(8.6665 51.6875)"
       d="m0 0c-1.75-2-4.167-4.333-4.833-6-.538-1.344-2.266-3.762-3.834-5.57" />
    <path
       id="path10"
       transform="translate(9 43.021)"
       d="m0 0c-2.167-2-3.667-4.25-4.667-5.583-.864-1.154-2.293-2.494-4.333-3.967" />
    <path
       id="path12"
       transform="translate(12.8335 39.1875)"
       d="m0 0c-1-1.083-6.833-8.167-8.417-10-1.164-1.348-2.867-2.829-4.416-4.116" />
    <path
       id="path14"
       transform="translate(8.25 31.1875)"
       d="m0 0c-1.417-1.333-4-4.167-5-5.583-.731-1.037-2.085-2.827-3.25-4.205" />
    <path
       id="path16"
       transform="translate(6.75 27.521)"
       d="m0 0c-1.583-1.917-4.083-5-4.833-6.5-.534-1.067-.911-1.763-1.917-2.911" />
    <path
       id="path18"
       transform="translate(15.0835 34.271)"
       d="m0 0c-2.083-2.917-5.5-5.917-7.333-8.583-1.834-2.667-3.25-4.917-5-7.417-1.278-1.826-1.979-2.981-2.75-3.896" />
    <path
       id="path20"
       transform="translate(12.8335 25.1875)"
       d="m0 0c-1.75-2.417-6.833-7.25-8.5-8.833-1.267-1.203-2.869-3.221-4.333-4.707" />
    <path
       id="path22"
       transform="translate(8.3335 18.521)"
       d="m0 0c-.917-.667-3.25-3.333-5.833-6.083-.926-.986-1.752-1.849-2.5-2.603" />
    <path
       id="path24"
       transform="translate(15.8335 26.521)"
       d="m0 0c-1.667-1.833-4.75-5.667-6.167-8.083-1.416-2.417-4.833-7.25-6.5-8.834-.956-.909-1.974-1.443-3.166-2.26" />
    <path
       id="path26"
       transform="translate(25.1665 32.354)"
       d="m0 0c-2.083-2.25-8.583-11.25-11.25-13.333-2.667-2.084-6.75-7.084-8.417-9.25-1.529-1.988-3.291-4.329-5.5-6.697" />
    <path
       id="path28"
       transform="translate(3.25 51.771)"
       d="m0 0c-.667-.917-1.833-1.333-2.333-2.25-.265-.486-.599-.828-.917-1.12" />
    <path
       id="path30"
       transform="translate(45.875 38.521)"
       d="m0 0c.75.813 2.438 2.813 3.688 3.938s2.941 2.729 2.941 2.729c.289.233.629.541.996.889" />
    <path
       id="path32"
       transform="translate(34.0625 22.2085)"
       d="m0 0c1.75 1.563 4.563 5.063 6.938 8 2.375 2.938 5.437 6.313 7.312 7.75 1.875 1.438 2.608 2.313 2.608 2.313.748.977 1.769 2.186 2.58 3.093" />
    <path
       id="path34"
       transform="translate(36.8335 17.271)"
       d="m0 0c.75.563 3.479 3.5 4.417 5.083.812 1.371 4.75 9.292 6.187 11.23 1.438 1.937 4.983 5.354 4.983 5.354.337.336.705.744 1.08 1.175" />
    <path
       id="path36"
       transform="translate(52.5039 32.771)"
       d="m0 0c.348.236.678.468.996.697" />
    <path
       id="path38"
       transform="translate(45.6328 21.3882)"
       d="m0 0c1.25 1.375 3.563 3.625 4.438 4.938.875 1.312 1.92 2.708 1.92 2.708.411.615.937 1.199 1.509 1.771" />
    <path
       id="path40"
       transform="translate(44.7578 18.2007)"
       d="m0 0c.813 1.188 2.813 3 4.25 4.5 1.438 1.5 1.983 1.833 1.983 1.833.9.86 1.739 1.68 2.509 2.528" />
    <path
       id="path42"
       transform="translate(35.1665 .521)"
       d="m0 0 1.208 1.5c.563.75 1.938 2.813 3.5 5.25 1.563 2.438 2.875 5.5 4.438 7.375 1.562 1.875 4.062 4.313 5.312 6.25 1.25 1.938 2.296 2.875 2.296 2.875.484.396 1.022.835 1.579 1.297" />
    <path
       id="path44"
       transform="translate(48.875 17.4585)"
       d="m0 0c1.625 1.625 3.462 2.646 3.462 2.646.335.334.737.786 1.163 1.29" />
    <path
       id="path46"
       transform="translate(51.9204 16.4375)"
       d="m0 0c.671.671 1.172 1.203 1.58 1.668" />
    <path
       id="path48"
       transform="translate(42.1875 2.0835)"
       d="m0 0c2 2.5 5.75 6.375 6.688 7.313.937.937 3.712 4.041 3.712 4.041.336.291.629.597.913.933" />
    <path
       id="path50"
       transform="translate(45.1548)"
       d="m0 0c.172.194.342.384.512.563 0 0 1.208 1.583 2.333 3.458s2.171 2.833 2.171 2.833c.908.641 1.991 1.629 3.329 2.977" />
    <path
       id="path52"
       transform="translate(47.7642)"
       d="m0 0c.215.239.424.469.652.729 0 0 .584.917 1.084 2.104.5 1.188 1.004 1.938 1.004 1.938 1.134 1.205 2.111 1.963 2.996 2.57" />
    <path
       id="path54"
       transform="translate(50.5459)"
       d="m0 0c.269.254.536.503.788.729l1.586 1.709c.205.211.383.42.58.631" />
    <path
       id="path56"
       transform="translate(36.9375 27.5835)"
       d="m0 0c.625 1.063 3.438 5.313 4.625 7.188 1.188 1.875 7.188 9.25 8.25 10.375 1.063 1.125 2.941 2.541 2.941 2.541.195.234.465.453.747.71" />
    <path
       id="path58"
       transform="translate(9.9165 30.354)"
       d="m0 0c.667.75 2.667 3.083 4.417 5s4.416 6.417 5.666 8.417 5.584 7.333 7 8.833" />
    <path
       id="path60"
       transform="translate(10.1665 25.854)"
       d="m0 0c1.5 1.917 4.333 5.5 5.667 6.917 1.333 1.416 4.583 5.166 6.833 8 2.25 2.833 8.5 8.5 10.75 11" />
    <path
       id="path62"
       transform="translate(23.6665 35.1875)"
       d="m0 0c1.667 2.25 11.417 12.333 14.167 15.5" />
    <path
       id="path64"
       transform="translate(22.75 38.521)"
       d="m0 0c-2.5-3.167-8.417-9.833-10.25-12s-5-5.25-6.333-6.333" />
    <path
       id="path66"
       transform="translate(36.5 46.771)"
       d="m0 0c-.583-.667-1.833-2.083-3.167-3.25-1.333-1.167-3.916-3.917-5.583-5.75s-5-5.5-6.75-7.75-6.583-7.75-9.083-10.417" />
    <path
       id="path68"
       transform="translate(33.6665 41.1875)"
       d="m0 0c-1.25-1.583-3.917-4.417-5.417-6.583-1.5-2.167-5.25-7.167-6.666-9.167-1.417-2-2.584-3.25-3.25-3.917" />
    <path
       id="path70"
       transform="translate(25.8335 29.021)"
       d="m0 0c2.333 2.333 7.667 7.75 9.917 9.583 2.25 1.834 4.833 4.834 6.083 6.5" />
    <path
       id="path72"
       transform="translate(52.7803)"
       d="m0 0c.233.146.473.301.72.466" />
    <path
       id="path74"
       transform="translate(49.4624 50.6831)"
       d="m0 0c-.36-.369-.799-.84-1.087-1.225-.563-.75-2.063-3.062-3.25-4.437" />
    <path
       id="path76"
       transform="translate(16.5625 16.4585)"
       d="m0 0c-1.125-.875-4.625-4.563-5.375-5.563s-2.063-3.75-3.25-5.062c-1.188-1.313-3.063-2.938-3.563-3.438l-1.041-1.166c-.382-.523-.669-.915-.902-1.229" />
    <path
       id="path78"
       transform="translate(29.75 22.0835)"
       d="m0 0c-2.5-2.625-8.938-9.375-11.313-11.938-2.375-2.562-5.625-5.937-6.937-7.687 0 0 0-.438-1.333-1.604-.312-.273-.549-.565-.739-.854" />
    <path
       id="path80"
       transform="translate(18.5054)"
       d="m0 0c.3.4.602.806.911 1.229 0 0 .959 1.667 2.584 4.229 1.625 2.563 7 8.563 8.687 10" />
    <path
       id="path82"
       transform="translate(23.0034)"
       d="m0 0c.533 1.103 1.276 2.467 1.997 3.188" />
    <path
       id="path84"
       transform="translate(12.3057)"
       d="m0 0c.158.219.328.454.528.729 0 0 1.229 2.167 2.854 3.854 1.625 1.688 4.687 4.813 6.125 6.563 1.437 1.75 8.687 9.5 10.375 12.125 1.687 2.625 4.437 6.25 5.437 8.062" />
    <path
       id="path86"
       transform="translate(39.1875 23.146)"
       d="m0 0c-.938-1.375-4-4.938-6.938-8.125-2.937-3.188-7.187-8.438-8.125-9.875-.937-1.438-3.041-4.5-3.041-4.5-.195-.195-.383-.415-.571-.646" />
    <path
       id="path88"
       transform="translate(51.75 32.0835)"
       d="m0 0c-.938-.875-2.813-3.438-4.75-5.813-1.938-2.375-2.875-4.75-3.688-6.5-.812-1.75-3.812-6.25-5.125-7.875-1.312-1.625-3.437-4.187-5.062-6.812s-3.292-4.438-3.292-4.438c-.199-.225-.375-.435-.547-.645" />
    <path
       id="path90"
       transform="translate(38.2466)"
       d="m0 0c.45.479.899.968 1.337 1.479 0 0 3.541 3.854 5.166 6.292 1.625 2.437 5.938 9.062 7.75 11.062" />
    <path
       id="path92"
       transform="translate(42.2407)"
       d="m0 0c.266.315.521.593.759.813 0 0 1.375 1.583 3.438 4.27 2.062 2.688 5.733 5.355 5.733 5.355.419.319.868.738 1.329 1.206" />
    <path
       id="path94"
       transform="translate(27.25 29.021)"
       d="m0 0c-.938-1-3.625-4-5.188-5.75-1.562-1.75-3.937-3.813-5.687-5.063s-7-6.562-8.188-8" />
    <path
       id="path96"
       transform="translate(33.875 32.2085)"
       d="m0 0c-1.438-1.125-8.813-11.813-10.563-13.938s-3.812-4.25-5.937-5.75-5.25-4.437-6.625-5.812-3.063-5.125-4.063-6.188" />
    <path
       id="path98"
       transform="translate(37.875 38.2085)"
       d="m0 0c-1.063-1.313-5-5-6.313-6.063-1.312-1.062-4.437-4.625-6-6.937-1.562-2.313-5.25-6.5-6.562-7.375" />
    <path
       id="path100"
       transform="translate(27.25 21.0835)"
       d="m0 0c1.125 1.188 10.188 13.375 11.625 15.25" />
    <path
       id="path102"
       transform="translate(40.125 35.5835)"
       d="m0 0c1.938 2.875 6.875 8.875 8.563 10.625 1.687 1.75 2.562 2.688 4.312 4.313" />
    <path
       id="path104"
       transform="translate(48.6875 36.9585)"
       d="m0 0c-1.375-1.5-4.25-4.563-5.375-7.125-1.125-2.563-2.25-4.125-3-5.063" />
    <path
       id="path106"
       transform="translate(15.4204)"
       d="m0 0c.571.593 1.158 1.202 1.746 1.813 0 0 .834 1.083 1.834 2.583s2.062 2.875 3.562 4.562c1.5 1.688 6.75 7.188 9.625 9.438s7.188 7.312 8.5 8.937" />
    <path
       id="path108"
       transform="translate(27 5.9585)"
       d="m0 0c2.813 3.375 5.063 5.313 8.563 8.375.136.119.273.245.412.377" />
    <path
       id="path110"
       transform="translate(41.875 20.021)"
       d="m0 0c-1.625-2.938-5.313-6.813-7.313-9-2-2.188-2.5-2.375-3.625-4.375s-1.25-2.688-1.875-3.563-1.895-2.187-1.895-2.187c-.391-.319-.725-.613-1.034-.896" />
    <path
       id="path112"
       transform="translate(43.4375 22.896)"
       d="m0 0c1.313 2.75 4.688 7.438 6.313 8.875 1.625 1.438 2 2.188 3.125 4.125" />
    <path
       id="path114"
       transform="translate(44 17.2085)"
       d="m0 0c-1.875-2.813-5.625-8.188-6.688-10.063-1.062-1.875-2.437-3.25-3.25-4.312-.812-1.063-1.229-1.688-1.229-1.688-.265-.325-.578-.717-.917-1.145" />
    <path
       id="path116"
       transform="translate(46.625 15.146)"
       d="m0 0c-1.375-1.563-3.063-6.25-4.688-8.125s-1.375-1.75-2.562-3" />
    <path
       id="path118"
       transform="translate(29.75 7.396)"
       d="m0 0c-1.875-3.125-3.375-4.75-4.75-6.5" />
    <path
       id="path120"
       transform="translate(11 4.521)"
       d="m0 0c1.625 1.875 2.875 3.25 5.375 5.5" />
    <path
       id="path122"
       transform="translate(21.1875 18.2085)"
       d="m0 0c-1.25-1.438-5.375-4.563-7.063-6.313" />
    <path
       id="path124"
       transform="translate(7.7085 9.0225)"
       d="m0 0c-1.667-2.417-3.833-5.334-6-7.25-.604-.534-1.171-.946-1.708-1.305" />
    <path
       id="path126"
       transform="translate(40.75 48.314)"
       d="m0 0c1.626 1.7 3.055 3.659 4.404 5.186" />
    <path
       id="path128"
       transform="translate(32.4165 37.064)"
       d="m0 0c2.667 3.417 6.25 7.917 8.75 10.084 2.309 2 3.991 3.453 6.597 6.352" />
    <path
       id="path130"
       transform="translate(50.5439 53.5)"
       d="m0 0c-2.309-2.179-5.126-5.263-6.544-7.352-1.583-2.334-2.916-5.75-3.833-6.834" />
    <path
       id="path132"
       transform="translate(50.0415 51.3555)"
       d="m0 0c.741.938 1.662 1.471 2.736 2.145" />
    <path
       id="path134"
       transform="translate(2.4302 53.5)"
       d="m0 0c-.735-.99-.922-1.178-1.68-1.936" />
    <path
       id="path136"
       transform="translate(9.4346 53.5)"
       d="m0 0c-.27-.41-.445-.814-.542-1.138" />
    <path
       id="path138"
       transform="translate(18.5044 53.5)"
       d="m0 0c-2.54-3.385-4.773-5.955-6.338-7.52-1.75-1.75-3.5-4.75-3.5-4.75-1.833-2.832-3.916-5.582-5.416-7.25-.975-1.083-2.194-2.097-3.25-3.154" />
    <path
       id="path140"
       transform="translate(23.0029 53.5)"
       d="m0 0c-.452-.937-.753-1.686-.753-1.686-.75-.834-2.416-2.75-3.666-4.666-1.25-1.918-2.584-3.668-4.584-5.5-2-1.834-6.25-5.5-7.25-6.418-1.913-1.753-3.333-3.332-4.583-5.332-.639-1.022-1.366-1.934-2.167-2.815" />
    <path
       id="path142"
       transform="translate(5.6665 45.4805)"
       d="m0 0c1.75 2.333 3.417 4.167 4.5 5.333.92.992 1.245 1.449 2.138 2.687" />
    <path
       id="path144"
       transform="translate(7.9165 37.814)"
       d="m0 0c1.75 1.584 6.583 7.25 8.75 10.167 1.829 2.461 2.826 4.263 3.845 5.519" />
    <path
       id="path146"
       transform="translate(17.25 36.6475)"
       d="m0 0c1.75 2 6.917 9.166 8.5 11.5 1.425 2.1 1.982 3.462 3.535 5.352" />
    <path
       id="path148"
       transform="translate(17.5835 28.8975)"
       d="m0 0c1.167 1.333 3.167 4.5 5 7.25s8.5 10.333 10.083 11.916c1.306 1.306 3.461 3.184 5.579 5.436" />
    <path
       id="path150"
       transform="translate(35.5835 43.8975)"
       d="m0 0c1.844 2.213 4.602 7.165 6.656 9.602" />
    <path
       id="path152"
       transform="translate(15.4189 53.5)"
       d="m0 0c-1.533-1.589-2.948-3.048-3.919-4.02-1.333-1.332-4.75-5-6.25-7s-2.833-3.916-3.666-4.916" />
    <path
       id="path154"
       transform="translate(11.1665 34.564)"
       d="m0 0c1.917 2.084 3.833 4.917 5.417 7.084 1.583 2.166 5.166 7.416 6.583 8.833 1.115 1.114 1.824 1.974 2.965 3.019" />
    <path
       id="path156"
       transform="translate(31.915 53.5)"
       d="m0 0c-2.002-2.529-5.037-6.487-6.248-7.77" />
  </g>
</svg>
