<?xml version="1.0" encoding="UTF-8" standalone="no"?>
<svg
   xmlns:dc="http://purl.org/dc/elements/1.1/"
   xmlns:cc="http://creativecommons.org/ns#"
   xmlns:rdf="http://www.w3.org/1999/02/22-rdf-syntax-ns#"
   xmlns:svg="http://www.w3.org/2000/svg"
   xmlns="http://www.w3.org/2000/svg"
   id="svg566"
   version="1.1"
   width="54.125"
   height="54.125">
  <defs
     id="defs570" />
  <metadata
     id="metadata2">citation: U.S. Geological Survey, 2006, FGDC Digital Cartographic Standard for Geologic Map Symbolization (PostScript Implementation): U.S. Geological Survey Techniques and Methods 11-A2 [pubs.usgs.gov/tm/2006/11A02/]. converted by CEC Geology LLC 2018 from the USGS lithologic gs converted to inkscape by the University of Otago.<rdf:RDF>
  <cc:Work
     rdf:about="">
    <dc:format>image/svg+xml</dc:format>
    <dc:type
       rdf:resource="http://purl.org/dc/dcmitype/StillImage" />
    <dc:title></dc:title>
  </cc:Work>
</rdf:RDF>
</metadata>
  <g
     id="g564"
     width="54.125"
     transform="matrix(1 0 0 -1 0 54.125)"
     stroke="#231f20"
     height="54.125"
     fill="none">
    <path
       id="path4"
       transform="translate(5.666 52.5245)"
       stroke-width=".3"
       d="m0 0h9.084" />
    <path
       id="path6"
       transform="translate(6.8125 52.7129)"
       stroke-width=".3"
       d="m0 0v1.223" />
    <path
       id="path8"
       transform="translate(23.791 52.5245)"
       stroke-width=".3"
       d="m0 0h9.084" />
    <path
       id="path10"
       transform="translate(24.9375 52.7129)"
       stroke-width=".3"
       d="m0 0v1.223" />
    <path
       id="path12"
       transform="translate(41.916 52.5245)"
       stroke-width=".3"
       d="m0 0h9.084" />
    <path
       id="path14"
       transform="translate(43.0625 52.7129)"
       stroke-width=".3"
       d="m0 0v1.223" />
    <path
       id="path16"
       transform="translate(6.875 49.417)"
       stroke-width=".3"
       d="m0 0h-6.875" />
    <path
       id="path18"
       transform="translate(24.75 49.417)"
       stroke-width=".3"
       d="m0 0h-9.084" />
    <path
       id="path20"
       transform="translate(16.8125 49.605)"
       stroke-width=".3"
       d="m0 0v1.224" />
    <path
       id="path22"
       transform="translate(42.875 49.417)"
       stroke-width=".3"
       d="m0 0h-9.084" />
    <path
       id="path24"
       transform="translate(34.9375 49.605)"
       stroke-width=".3"
       d="m0 0v1.224" />
    <path
       id="path26"
       transform="translate(17 46.417)"
       stroke-width=".3"
       d="m0 0h-9.084" />
    <path
       id="path28"
       transform="translate(9.0625 47.8287)"
       stroke-width=".3"
       d="m0 0v-1.224" />
    <path
       id="path30"
       transform="translate(35 46.417)"
       stroke-width=".3"
       d="m0 0h-9.084" />
    <path
       id="path32"
       transform="translate(27.0625 47.8287)"
       stroke-width=".3"
       d="m0 0v-1.224" />
    <path
       id="path34"
       transform="translate(43.791 46.417)"
       stroke-width=".3"
       d="m0 0h9.084" />
    <path
       id="path36"
       transform="translate(44.9375 47.8287)"
       stroke-width=".3"
       d="m0 0v-1.224" />
    <path
       id="path38"
       transform="translate(0 43.542)"
       stroke-width=".3"
       d="m0 0h6.875" />
    <path
       id="path40"
       transform="translate(15.666 43.542)"
       stroke-width=".3"
       d="m0 0h9.084" />
    <path
       id="path42"
       transform="translate(16.8125 43.73)"
       stroke-width=".3"
       d="m0 0v1.224" />
    <path
       id="path44"
       transform="translate(33.666 43.542)"
       stroke-width=".3"
       d="m0 0h9.084" />
    <path
       id="path46"
       transform="translate(34.8125 43.73)"
       stroke-width=".3"
       d="m0 0v1.224" />
    <path
       id="path48"
       transform="translate(41.666 40.542)"
       stroke-width=".3"
       d="m0 0h9.084" />
    <path
       id="path50"
       transform="translate(42.8125 40.73)"
       stroke-width=".3"
       d="m0 0v1.224" />
    <path
       id="path52"
       transform="translate(23.666 40.542)"
       stroke-width=".3"
       d="m0 0h9.084" />
    <path
       id="path54"
       transform="translate(24.8125 40.73)"
       stroke-width=".3"
       d="m0 0v1.224" />
    <path
       id="path56"
       transform="translate(14.625 40.542)"
       stroke-width=".3"
       d="m0 0h-9.084" />
    <path
       id="path58"
       transform="translate(6.6875 40.73)"
       stroke-width=".3"
       d="m0 0v1.224" />
    <path
       id="path60"
       transform="translate(5.125 37.417)"
       stroke-width=".3"
       d="m0 0h-5.125" />
    <path
       id="path62"
       transform="translate(23.125 37.417)"
       stroke-width=".3"
       d="m0 0h-9.084" />
    <path
       id="path64"
       transform="translate(15.1875 38.8287)"
       stroke-width=".3"
       d="m0 0v-1.224" />
    <path
       id="path66"
       transform="translate(31.916 37.417)"
       stroke-width=".3"
       d="m0 0h9.084" />
    <path
       id="path68"
       transform="translate(33.0625 37.605)"
       stroke-width=".3"
       d="m0 0v1.224" />
    <path
       id="path70"
       transform="translate(50.75 34.542)"
       stroke-width=".3"
       d="m0 0h-9.084" />
    <path
       id="path72"
       transform="translate(42.8125 34.73)"
       stroke-width=".3"
       d="m0 0v1.224" />
    <path
       id="path74"
       transform="translate(23.791 34.542)"
       stroke-width=".3"
       d="m0 0h9.084" />
    <path
       id="path76"
       transform="translate(24.9375 34.73)"
       stroke-width=".3"
       d="m0 0v1.224" />
    <path
       id="path78"
       transform="translate(15 34.542)"
       stroke-width=".3"
       d="m0 0h-9.084" />
    <path
       id="path80"
       transform="translate(7.0625 34.73)"
       stroke-width=".3"
       d="m0 0v1.224" />
    <path
       id="path82"
       transform="translate(0 31.417)"
       stroke-width=".3"
       d="m0 0h5" />
    <path
       id="path84"
       transform="translate(13.791 31.417)"
       stroke-width=".3"
       d="m0 0h9.084" />
    <path
       id="path86"
       transform="translate(14.9375 31.605)"
       stroke-width=".3"
       d="m0 0v1.224" />
    <path
       id="path88"
       transform="translate(31.791 31.417)"
       stroke-width=".3"
       d="m0 0h9.084" />
    <path
       id="path90"
       transform="translate(32.9375 32.8287)"
       stroke-width=".3"
       d="m0 0v-1.224" />
    <path
       id="path92"
       transform="translate(39.791 28.417)"
       stroke-width=".3"
       d="m0 0h9.084" />
    <path
       id="path94"
       transform="translate(40.9375 29.8287)"
       stroke-width=".3"
       d="m0 0v-1.224" />
    <path
       id="path96"
       transform="translate(30.875 28.417)"
       stroke-width=".3"
       d="m0 0h-9.084" />
    <path
       id="path98"
       transform="translate(22.9375 28.605)"
       stroke-width=".3"
       d="m0 0v1.224" />
    <path
       id="path100"
       transform="translate(12.625 28.417)"
       stroke-width=".3"
       d="m0 0h-9.084" />
    <path
       id="path102"
       transform="translate(4.6875 28.605)"
       stroke-width=".3"
       d="m0 0v1.224" />
    <path
       id="path104"
       transform="translate(3 25.292)"
       stroke-width=".3"
       d="m0 0h-3" />
    <path
       id="path106"
       transform="translate(20.875 25.292)"
       stroke-width=".3"
       d="m0 0h-9.084" />
    <path
       id="path108"
       transform="translate(12.9375 26.7037)"
       stroke-width=".3"
       d="m0 0v-1.224" />
    <path
       id="path110"
       transform="translate(29.916 25.292)"
       stroke-width=".3"
       d="m0 0h9.084" />
    <path
       id="path112"
       transform="translate(31.0625 26.7037)"
       stroke-width=".3"
       d="m0 0v-1.224" />
    <path
       id="path114"
       transform="translate(46.75 22.417)"
       stroke-width=".3"
       d="m0 0h-9.084" />
    <path
       id="path116"
       transform="translate(38.8125 23.8287)"
       stroke-width=".3"
       d="m0 0v-1.224" />
    <path
       id="path118"
       transform="translate(28.75 22.417)"
       stroke-width=".3"
       d="m0 0h-9.084" />
    <path
       id="path120"
       transform="translate(20.8125 22.605)"
       stroke-width=".3"
       d="m0 0v1.224" />
    <path
       id="path122"
       transform="translate(10.875 22.417)"
       stroke-width=".3"
       d="m0 0h-9.084" />
    <path
       id="path124"
       transform="translate(2.9375 22.605)"
       stroke-width=".3"
       d="m0 0v1.224" />
    <path
       id="path126"
       transform="translate(0 19.292)"
       stroke-width=".3"
       d="m0 0h2.625" />
    <path
       id="path128"
       transform="translate(20.625 19.292)"
       stroke-width=".3"
       d="m0 0h-9.084" />
    <path
       id="path130"
       transform="translate(12.6875 19.48)"
       stroke-width=".3"
       d="m0 0v1.224" />
    <path
       id="path132"
       transform="translate(29.541 19.292)"
       stroke-width=".3"
       d="m0 0h9.084" />
    <path
       id="path134"
       transform="translate(30.6875 20.7037)"
       stroke-width=".3"
       d="m0 0v-1.224" />
    <path
       id="path136"
       transform="translate(39.791 16.292)"
       stroke-width=".3"
       d="m0 0h9.084" />
    <path
       id="path138"
       transform="translate(40.9375 17.7037)"
       stroke-width=".3"
       d="m0 0v-1.224" />
    <path
       id="path140"
       transform="translate(21.791 16.292)"
       stroke-width=".3"
       d="m0 0h9.084" />
    <path
       id="path142"
       transform="translate(22.9375 17.7037)"
       stroke-width=".3"
       d="m0 0v-1.224" />
    <path
       id="path144"
       transform="translate(12.875 16.292)"
       stroke-width=".3"
       d="m0 0h-9.084" />
    <path
       id="path146"
       transform="translate(4.9375 16.48)"
       stroke-width=".3"
       d="m0 0v1.224" />
    <path
       id="path148"
       transform="translate(5.125 13.292)"
       stroke-width=".3"
       d="m0 0h-5.125" />
    <path
       id="path150"
       transform="translate(13.916 13.292)"
       stroke-width=".3"
       d="m0 0h9.084" />
    <path
       id="path152"
       transform="translate(15.0625 13.48)"
       stroke-width=".3"
       d="m0 0v1.224" />
    <path
       id="path154"
       transform="translate(31.791 13.292)"
       stroke-width=".3"
       d="m0 0h9.084" />
    <path
       id="path156"
       transform="translate(32.9375 14.7037)"
       stroke-width=".3"
       d="m0 0v-1.224" />
    <path
       id="path158"
       transform="translate(41.666 10.417)"
       stroke-width=".3"
       d="m0 0h9.084" />
    <path
       id="path160"
       transform="translate(42.8125 11.8287)"
       stroke-width=".3"
       d="m0 0v-1.224" />
    <path
       id="path162"
       transform="translate(33 10.417)"
       stroke-width=".3"
       d="m0 0h-9.084" />
    <path
       id="path164"
       transform="translate(25.0625 10.605)"
       stroke-width=".3"
       d="m0 0v1.224" />
    <path
       id="path166"
       transform="translate(15 10.417)"
       stroke-width=".3"
       d="m0 0h-9.084" />
    <path
       id="path168"
       transform="translate(7.0625 10.605)"
       stroke-width=".3"
       d="m0 0v1.224" />
    <path
       id="path170"
       transform="translate(6.5 7.167)"
       stroke-width=".3"
       d="m0 0h-6.5" />
    <path
       id="path172"
       transform="translate(15.541 7.167)"
       stroke-width=".3"
       d="m0 0h9.084" />
    <path
       id="path174"
       transform="translate(16.6875 8.5787)"
       stroke-width=".3"
       d="m0 0v-1.224" />
    <path
       id="path176"
       transform="translate(33.666 7.167)"
       stroke-width=".3"
       d="m0 0h9.084" />
    <path
       id="path178"
       transform="translate(34.8125 8.5787)"
       stroke-width=".3"
       d="m0 0v-1.224" />
    <path
       id="path180"
       transform="translate(50.75 4.292)"
       stroke-width=".3"
       d="m0 0h-9.084" />
    <path
       id="path182"
       transform="translate(42.8125 5.7037)"
       stroke-width=".3"
       d="m0 0v-1.224" />
    <path
       id="path184"
       transform="translate(33 4.292)"
       stroke-width=".3"
       d="m0 0h-9.084" />
    <path
       id="path186"
       transform="translate(25.0625 5.7037)"
       stroke-width=".3"
       d="m0 0v-1.224" />
    <path
       id="path188"
       transform="translate(14.875 4.292)"
       stroke-width=".3"
       d="m0 0h-9.084" />
    <path
       id="path190"
       transform="translate(6.9375 5.7037)"
       stroke-width=".3"
       d="m0 0v-1.224" />
    <path
       id="path192"
       transform="translate(0 1.167)"
       stroke-width=".3"
       d="m0 0h5.125" />
    <path
       id="path194"
       transform="translate(22.875 1.167)"
       stroke-width=".3"
       d="m0 0h-9.084" />
    <path
       id="path196"
       transform="translate(14.9375 2.5787)"
       stroke-width=".3"
       d="m0 0v-1.224" />
    <path
       id="path198"
       transform="translate(40.75 1.167)"
       stroke-width=".3"
       d="m0 0h-9.084" />
    <path
       id="path200"
       transform="translate(32.8125 1.355)"
       stroke-width=".3"
       d="m0 0v1.224" />
    <path
       id="path202"
       transform="translate(51.958 49.417)"
       stroke-width=".3"
       d="m0 0h2.167" />
    <path
       id="path204"
       transform="translate(53.1035 49.605)"
       stroke-width=".3"
       d="m0 0v1.224" />
    <path
       id="path206"
       transform="translate(54.125 43.542)"
       stroke-width=".3"
       d="m0 0h-2.167" />
    <path
       id="path208"
       transform="translate(53.1035 44.9537)"
       stroke-width=".3"
       d="m0 0v-1.224" />
    <path
       id="path210"
       transform="translate(50.208 37.417)"
       stroke-width=".3"
       d="m0 0h3.917" />
    <path
       id="path212"
       transform="translate(51.3535 38.8287)"
       stroke-width=".3"
       d="m0 0v-1.224" />
    <path
       id="path214"
       transform="translate(54.125 31.417)"
       stroke-width=".3"
       d="m0 0h-4.042" />
    <path
       id="path216"
       transform="translate(51.2285 31.605)"
       stroke-width=".3"
       d="m0 0v1.224" />
    <path
       id="path218"
       transform="translate(54.125 25.292)"
       stroke-width=".3"
       d="m0 0h-6.042" />
    <path
       id="path220"
       transform="translate(49.2285 26.7037)"
       stroke-width=".3"
       d="m0 0v-1.224" />
    <path
       id="path222"
       transform="translate(54.125 19.292)"
       stroke-width=".3"
       d="m0 0h-6.417" />
    <path
       id="path224"
       transform="translate(48.8535 20.7037)"
       stroke-width=".3"
       d="m0 0v-1.224" />
    <path
       id="path226"
       transform="translate(50.208 13.292)"
       stroke-width=".3"
       d="m0 0h3.917" />
    <path
       id="path228"
       transform="translate(51.3535 14.7037)"
       stroke-width=".3"
       d="m0 0v-1.224" />
    <path
       id="path230"
       transform="translate(54.125 7.167)"
       stroke-width=".3"
       d="m0 0h-2.542" />
    <path
       id="path232"
       transform="translate(52.7285 8.5787)"
       stroke-width=".3"
       d="m0 0v-1.224" />
    <path
       id="path234"
       transform="translate(50.208 1.167)"
       stroke-width=".3"
       d="m0 0h3.917" />
    <path
       id="path236"
       transform="translate(51.3535 2.5787)"
       stroke-width=".3"
       d="m0 0v-1.224" />
    <g
       id="g562"
       stroke-width=".7"
       stroke-linecap="round">
      <path
         id="path238"
         transform="translate(11.2979 49.4019)"
         d="m0 0 .01.01" />
      <path
         id="path240"
         transform="translate(13.5781 49.4019)"
         d="m0 0 .01.01" />
      <path
         id="path242"
         transform="translate(8.9111 49.4019)"
         d="m0 0 .01.01" />
      <path
         id="path244"
         transform="translate(29.3018 49.4019)"
         d="m0 0 .01.01" />
      <path
         id="path246"
         transform="translate(31.5811 49.4019)"
         d="m0 0 .01.01" />
      <path
         id="path248"
         transform="translate(26.915 49.4019)"
         d="m0 0 .01.01" />
      <path
         id="path250"
         transform="translate(47.3848 49.4019)"
         d="m0 0 .01.01" />
      <path
         id="path252"
         transform="translate(49.665 49.4019)"
         d="m0 0 .01.01" />
      <path
         id="path254"
         transform="translate(44.9981 49.4019)"
         d="m0 0 .01.01" />
      <path
         id="path256"
         transform="translate(39.4678 46.4019)"
         d="m0 0 .01.01" />
      <path
         id="path258"
         transform="translate(41.7481 46.4019)"
         d="m0 0 .01.01" />
      <path
         id="path260"
         transform="translate(37.0811 46.4019)"
         d="m0 0 .01.01" />
      <path
         id="path262"
         transform="translate(21.4678 46.4019)"
         d="m0 0 .01.01" />
      <path
         id="path264"
         transform="translate(23.7481 46.4019)"
         d="m0 0 .01.01" />
      <path
         id="path266"
         transform="translate(19.0811 46.4019)"
         d="m0 0 .01.01" />
      <path
         id="path268"
         transform="translate(3.5078 46.4019)"
         d="m0 0 .01.01" />
      <path
         id="path270"
         transform="translate(5.7881 46.4019)"
         d="m0 0 .01.01" />
      <path
         id="path272"
         transform="translate(1.1211 46.4019)"
         d="m0 0 .01.01" />
      <path
         id="path274"
         transform="translate(19.1348 52.4454)"
         d="m0 0 .01.01" />
      <path
         id="path276"
         transform="translate(21.415 52.4454)"
         d="m0 0 .01.01" />
      <path
         id="path278"
         transform="translate(16.7481 52.4454)"
         d="m0 0 .01.01" />
      <path
         id="path280"
         transform="translate(1.2578 52.4454)"
         d="m0 0 .01.01" />
      <path
         id="path282"
         transform="translate(3.5381 52.4454)"
         d="m0 0 .01.01" />
      <path
         id="path284"
         transform="translate(37.3848 52.4454)"
         d="m0 0 .01.01" />
      <path
         id="path286"
         transform="translate(39.665 52.4454)"
         d="m0 0 .01.01" />
      <path
         id="path288"
         transform="translate(34.9981 52.4454)"
         d="m0 0 .01.01" />
      <path
         id="path290"
         transform="translate(52.7881 52.4454)"
         d="m0 0 .01.01" />
      <path
         id="path292"
         transform="translate(29.1611 43.502)"
         d="m0 0 .01.01" />
      <path
         id="path294"
         transform="translate(31.4414 43.502)"
         d="m0 0 .01.01" />
      <path
         id="path296"
         transform="translate(26.7754 43.502)"
         d="m0 0 .01.01" />
      <path
         id="path298"
         transform="translate(11.2852 43.502)"
         d="m0 0 .01.01" />
      <path
         id="path300"
         transform="translate(13.5645 43.502)"
         d="m0 0 .01.01" />
      <path
         id="path302"
         transform="translate(8.8984 43.502)"
         d="m0 0 .01.01" />
      <path
         id="path304"
         transform="translate(47.4111 43.502)"
         d="m0 0 .01.01" />
      <path
         id="path306"
         transform="translate(49.6914 43.502)"
         d="m0 0 .01.01" />
      <path
         id="path308"
         transform="translate(45.0244 43.502)"
         d="m0 0 .01.01" />
      <path
         id="path310"
         transform="translate(19.0098 40.5059)"
         d="m0 0 .01.01" />
      <path
         id="path312"
         transform="translate(21.29 40.5059)"
         d="m0 0 .01.01" />
      <path
         id="path314"
         transform="translate(16.6231 40.5059)"
         d="m0 0 .01.01" />
      <path
         id="path316"
         transform="translate(1.1328 40.5059)"
         d="m0 0 .01.01" />
      <path
         id="path318"
         transform="translate(3.4131 40.5059)"
         d="m0 0 .01.01" />
      <path
         id="path320"
         transform="translate(37.2598 40.5059)"
         d="m0 0 .01.01" />
      <path
         id="path322"
         transform="translate(39.54 40.5059)"
         d="m0 0 .01.01" />
      <path
         id="path324"
         transform="translate(34.8731 40.5059)"
         d="m0 0 .01.01" />
      <path
         id="path326"
         transform="translate(52.6631 40.5059)"
         d="m0 0 .01.01" />
      <path
         id="path328"
         transform="translate(27.4473 37.3809)"
         d="m0 0 .01.01" />
      <path
         id="path330"
         transform="translate(29.7275 37.3809)"
         d="m0 0 .01.01" />
      <path
         id="path332"
         transform="translate(25.0606 37.3809)"
         d="m0 0 .01.01" />
      <path
         id="path334"
         transform="translate(9.5703 37.3809)"
         d="m0 0 .01.01" />
      <path
         id="path336"
         transform="translate(11.8506 37.3809)"
         d="m0 0 .01.01" />
      <path
         id="path338"
         transform="translate(7.1836 37.3809)"
         d="m0 0 .01.01" />
      <path
         id="path340"
         transform="translate(45.6973 37.3809)"
         d="m0 0 .01.01" />
      <path
         id="path342"
         transform="translate(47.9775 37.3809)"
         d="m0 0 .01.01" />
      <path
         id="path344"
         transform="translate(43.3106 37.3809)"
         d="m0 0 .01.01" />
      <path
         id="path346"
         transform="translate(18.8848 34.5059)"
         d="m0 0 .01.01" />
      <path
         id="path348"
         transform="translate(21.165 34.5059)"
         d="m0 0 .01.01" />
      <path
         id="path350"
         transform="translate(16.4981 34.5059)"
         d="m0 0 .01.01" />
      <path
         id="path352"
         transform="translate(1.0078 34.5059)"
         d="m0 0 .01.01" />
      <path
         id="path354"
         transform="translate(3.2881 34.5059)"
         d="m0 0 .01.01" />
      <path
         id="path356"
         transform="translate(37.1348 34.5059)"
         d="m0 0 .01.01" />
      <path
         id="path358"
         transform="translate(39.415 34.5059)"
         d="m0 0 .01.01" />
      <path
         id="path360"
         transform="translate(34.7481 34.5059)"
         d="m0 0 .01.01" />
      <path
         id="path362"
         transform="translate(52.5381 34.5059)"
         d="m0 0 .01.01" />
      <path
         id="path364"
         transform="translate(27.3223 31.4434)"
         d="m0 0 .01.01" />
      <path
         id="path366"
         transform="translate(29.6025 31.4434)"
         d="m0 0 .01.01" />
      <path
         id="path368"
         transform="translate(24.9356 31.4434)"
         d="m0 0 .01.01" />
      <path
         id="path370"
         transform="translate(9.4453 31.4434)"
         d="m0 0 .01.01" />
      <path
         id="path372"
         transform="translate(11.7256 31.4434)"
         d="m0 0 .01.01" />
      <path
         id="path374"
         transform="translate(7.0586 31.4434)"
         d="m0 0 .01.01" />
      <path
         id="path376"
         transform="translate(45.5723 31.4434)"
         d="m0 0 .01.01" />
      <path
         id="path378"
         transform="translate(47.8525 31.4434)"
         d="m0 0 .01.01" />
      <path
         id="path380"
         transform="translate(43.1856 31.4434)"
         d="m0 0 .01.01" />
      <path
         id="path382"
         transform="translate(17.0723 28.4434)"
         d="m0 0 .01.01" />
      <path
         id="path384"
         transform="translate(19.3525 28.4434)"
         d="m0 0 .01.01" />
      <path
         id="path386"
         transform="translate(14.6856 28.4434)"
         d="m0 0 .01.01" />
      <path
         id="path388"
         transform="translate(1.4756 28.4434)"
         d="m0 0 .01.01" />
      <path
         id="path390"
         transform="translate(35.3223 28.4434)"
         d="m0 0 .01.01" />
      <path
         id="path392"
         transform="translate(37.6025 28.4434)"
         d="m0 0 .01.01" />
      <path
         id="path394"
         transform="translate(32.9356 28.4434)"
         d="m0 0 .01.01" />
      <path
         id="path396"
         transform="translate(53.1123 28.4434)"
         d="m0 0 .01.01" />
      <path
         id="path398"
         transform="translate(50.7256 28.4434)"
         d="m0 0 .01.01" />
      <path
         id="path400"
         transform="translate(25.2598 25.3184)"
         d="m0 0 .01.01" />
      <path
         id="path402"
         transform="translate(27.54 25.3184)"
         d="m0 0 .01.01" />
      <path
         id="path404"
         transform="translate(22.8731 25.3184)"
         d="m0 0 .01.01" />
      <path
         id="path406"
         transform="translate(7.3828 25.3184)"
         d="m0 0 .01.01" />
      <path
         id="path408"
         transform="translate(9.6631 25.3184)"
         d="m0 0 .01.01" />
      <path
         id="path410"
         transform="translate(4.9961 25.3184)"
         d="m0 0 .01.01" />
      <path
         id="path412"
         transform="translate(43.5098 25.3184)"
         d="m0 0 .01.01" />
      <path
         id="path414"
         transform="translate(45.79 25.3184)"
         d="m0 0 .01.01" />
      <path
         id="path416"
         transform="translate(41.1231 25.3184)"
         d="m0 0 .01.01" />
      <path
         id="path418"
         transform="translate(14.9473 22.3809)"
         d="m0 0 .01.01" />
      <path
         id="path420"
         transform="translate(17.2275 22.3809)"
         d="m0 0 .01.01" />
      <path
         id="path422"
         transform="translate(12.5606 22.3809)"
         d="m0 0 .01.01" />
      <path
         id="path424"
         transform="translate(33.1973 22.3809)"
         d="m0 0 .01.01" />
      <path
         id="path426"
         transform="translate(35.4775 22.3809)"
         d="m0 0 .01.01" />
      <path
         id="path428"
         transform="translate(30.8106 22.3809)"
         d="m0 0 .01.01" />
      <path
         id="path430"
         transform="translate(50.9873 22.3809)"
         d="m0 0 .01.01" />
      <path
         id="path432"
         transform="translate(53.2676 22.3809)"
         d="m0 0 .01.01" />
      <path
         id="path434"
         transform="translate(48.6006 22.3809)"
         d="m0 0 .01.01" />
      <path
         id="path436"
         transform="translate(24.9473 19.2559)"
         d="m0 0 .01.01" />
      <path
         id="path438"
         transform="translate(27.2275 19.2559)"
         d="m0 0 .01.01" />
      <path
         id="path440"
         transform="translate(22.5606 19.2559)"
         d="m0 0 .01.01" />
      <path
         id="path442"
         transform="translate(7.0703 19.2559)"
         d="m0 0 .01.01" />
      <path
         id="path444"
         transform="translate(9.3506 19.2559)"
         d="m0 0 .01.01" />
      <path
         id="path446"
         transform="translate(4.6836 19.2559)"
         d="m0 0 .01.01" />
      <path
         id="path448"
         transform="translate(43.1973 19.2559)"
         d="m0 0 .01.01" />
      <path
         id="path450"
         transform="translate(45.4775 19.2559)"
         d="m0 0 .01.01" />
      <path
         id="path452"
         transform="translate(40.8106 19.2559)"
         d="m0 0 .01.01" />
      <path
         id="path454"
         transform="translate(17.1348 16.2559)"
         d="m0 0 .01.01" />
      <path
         id="path456"
         transform="translate(19.415 16.2559)"
         d="m0 0 .01.01" />
      <path
         id="path458"
         transform="translate(14.7481 16.2559)"
         d="m0 0 .01.01" />
      <path
         id="path460"
         transform="translate(1.5381 16.2559)"
         d="m0 0 .01.01" />
      <path
         id="path462"
         transform="translate(35.3848 16.2559)"
         d="m0 0 .01.01" />
      <path
         id="path464"
         transform="translate(37.665 16.2559)"
         d="m0 0 .01.01" />
      <path
         id="path466"
         transform="translate(32.9981 16.2559)"
         d="m0 0 .01.01" />
      <path
         id="path468"
         transform="translate(53.1748 16.2559)"
         d="m0 0 .01.01" />
      <path
         id="path470"
         transform="translate(50.7881 16.2559)"
         d="m0 0 .01.01" />
      <path
         id="path472"
         transform="translate(27.3223 13.2559)"
         d="m0 0 .01.01" />
      <path
         id="path474"
         transform="translate(29.6025 13.2559)"
         d="m0 0 .01.01" />
      <path
         id="path476"
         transform="translate(24.9356 13.2559)"
         d="m0 0 .01.01" />
      <path
         id="path478"
         transform="translate(9.4453 13.2559)"
         d="m0 0 .01.01" />
      <path
         id="path480"
         transform="translate(11.7256 13.2559)"
         d="m0 0 .01.01" />
      <path
         id="path482"
         transform="translate(7.0586 13.2559)"
         d="m0 0 .01.01" />
      <path
         id="path484"
         transform="translate(45.5723 13.2559)"
         d="m0 0 .01.01" />
      <path
         id="path486"
         transform="translate(47.8525 13.2559)"
         d="m0 0 .01.01" />
      <path
         id="path488"
         transform="translate(43.1856 13.2559)"
         d="m0 0 .01.01" />
      <path
         id="path490"
         transform="translate(19.1348 10.4434)"
         d="m0 0 .01.01" />
      <path
         id="path492"
         transform="translate(21.415 10.4434)"
         d="m0 0 .01.01" />
      <path
         id="path494"
         transform="translate(16.7481 10.4434)"
         d="m0 0 .01.01" />
      <path
         id="path496"
         transform="translate(1.2578 10.4434)"
         d="m0 0 .01.01" />
      <path
         id="path498"
         transform="translate(3.5381 10.4434)"
         d="m0 0 .01.01" />
      <path
         id="path500"
         transform="translate(37.3848 10.4434)"
         d="m0 0 .01.01" />
      <path
         id="path502"
         transform="translate(39.665 10.4434)"
         d="m0 0 .01.01" />
      <path
         id="path504"
         transform="translate(34.9981 10.4434)"
         d="m0 0 .01.01" />
      <path
         id="path506"
         transform="translate(52.7881 10.4434)"
         d="m0 0 .01.01" />
      <path
         id="path508"
         transform="translate(29.0098 7.1309)"
         d="m0 0 .01.01" />
      <path
         id="path510"
         transform="translate(31.29 7.1309)"
         d="m0 0 .01.01" />
      <path
         id="path512"
         transform="translate(26.6231 7.1309)"
         d="m0 0 .01.01" />
      <path
         id="path514"
         transform="translate(11.1328 7.1309)"
         d="m0 0 .01.01" />
      <path
         id="path516"
         transform="translate(13.4131 7.1309)"
         d="m0 0 .01.01" />
      <path
         id="path518"
         transform="translate(8.7461 7.1309)"
         d="m0 0 .01.01" />
      <path
         id="path520"
         transform="translate(47.2598 7.1309)"
         d="m0 0 .01.01" />
      <path
         id="path522"
         transform="translate(49.54 7.1309)"
         d="m0 0 .01.01" />
      <path
         id="path524"
         transform="translate(44.8731 7.1309)"
         d="m0 0 .01.01" />
      <path
         id="path526"
         transform="translate(19.1973 4.2559)"
         d="m0 0 .01.01" />
      <path
         id="path528"
         transform="translate(21.4775 4.2559)"
         d="m0 0 .01.01" />
      <path
         id="path530"
         transform="translate(16.8106 4.2559)"
         d="m0 0 .01.01" />
      <path
         id="path532"
         transform="translate(1.3203 4.2559)"
         d="m0 0 .01.01" />
      <path
         id="path534"
         transform="translate(3.6006 4.2559)"
         d="m0 0 .01.01" />
      <path
         id="path536"
         transform="translate(37.4473 4.2559)"
         d="m0 0 .01.01" />
      <path
         id="path538"
         transform="translate(39.7275 4.2559)"
         d="m0 0 .01.01" />
      <path
         id="path540"
         transform="translate(35.0606 4.2559)"
         d="m0 0 .01.01" />
      <path
         id="path542"
         transform="translate(52.8506 4.2559)"
         d="m0 0 .01.01" />
      <path
         id="path544"
         transform="translate(27.3848 1.1309)"
         d="m0 0 .01.01" />
      <path
         id="path546"
         transform="translate(29.665 1.1309)"
         d="m0 0 .01.01" />
      <path
         id="path548"
         transform="translate(24.9981 1.1309)"
         d="m0 0 .01.01" />
      <path
         id="path550"
         transform="translate(9.5078 1.1309)"
         d="m0 0 .01.01" />
      <path
         id="path552"
         transform="translate(11.7881 1.1309)"
         d="m0 0 .01.01" />
      <path
         id="path554"
         transform="translate(7.1211 1.1309)"
         d="m0 0 .01.01" />
      <path
         id="path556"
         transform="translate(45.6348 1.1309)"
         d="m0 0 .01.01" />
      <path
         id="path558"
         transform="translate(47.915 1.1309)"
         d="m0 0 .01.01" />
      <path
         id="path560"
         transform="translate(43.2481 1.1309)"
         d="m0 0 .01.01" />
    </g>
  </g>
</svg>
