<?xml version="1.0" encoding="UTF-8" standalone="no"?>
<svg
   xmlns:dc="http://purl.org/dc/elements/1.1/"
   xmlns:cc="http://creativecommons.org/ns#"
   xmlns:rdf="http://www.w3.org/1999/02/22-rdf-syntax-ns#"
   xmlns:svg="http://www.w3.org/2000/svg"
   xmlns="http://www.w3.org/2000/svg"
   id="svg438"
   version="1.1"
   height="85.875"
   width="85.875"
   >
  <defs
     id="defs442" />
  <metadata
     id="metadata2">citation: U.S. Geological Survey, 2006, FGDC Digital Cartographic Standard for Geologic Map Symbolization (PostScript Implementation): U.S. Geological Survey Techniques and Methods 11-A2 [pubs.usgs.gov/tm/2006/11A02/]. converted by CEC Geology LLC 2018 from the USGS lithologic gs converted to inkscape by the University of Otago.<rdf:RDF>
  <cc:Work
     rdf:about="">
    <dc:format>image/svg+xml</dc:format>
    <dc:type
       rdf:resource="http://purl.org/dc/dcmitype/StillImage" />
    <dc:title></dc:title>
  </cc:Work>
</rdf:RDF>
</metadata>
  <g
     transform="matrix(-1,0,0,1,86.153357,0)"
     id="g436"
     width="85.875"
     height="85.875"
	 stroke-width=".3"
     stroke="#231f20"
     fill="none">
    <path
       id="path4"
       transform="translate(9.375,77.9085)"
       d="M 0,0 2.25,-2.625" />
    <path
       id="path6"
       transform="translate(9.5,81.6585)"
       d="M 0,0 3.375,-0.125" />
    <path
       id="path8"
       transform="translate(20.375,78.471)"
       d="M 0,0 2.688,-2.045" />
    <path
       id="path10"
       transform="translate(16.875,79.5335)"
       d="M 0,0 -2.125,-2.75" />
    <path
       id="path12"
       transform="translate(18.5,82.2835)"
       d="M 0,0 -2.75,1.75" />
    <path
       id="path14"
       transform="translate(23.75,85.0335)"
       d="M 0,0 -2.25,-1.5" />
    <path
       id="path16"
       transform="translate(25.375,81.6585)"
       d="M 0,0 0.125,-3.125" />
    <path
       id="path18"
       transform="translate(28.75,84.2254)"
       d="M 0,0 2.5,-1.25" />
    <path
       id="path20"
       transform="translate(35.125,82.5915)"
       d="M 0,0 2,2.375" />
    <path
       id="path22"
       transform="translate(39.875,81.6585)"
       d="M 0,0 2.75,-2.25" />
    <path
       id="path24"
       transform="translate(35.75,78.0335)"
       d="M 0,0 0.625,-3" />
    <path
       id="path26"
       transform="translate(31.5,78.0335)"
       d="M 0,0 -2.5,-2.625" />
    <path
       id="path28"
       transform="translate(42.5,75.0335)"
       d="M 0,0 -2.125,-2.625" />
    <path
       id="path30"
       transform="translate(39,68.6585)"
       d="M 0,0 3.375,-1.125" />
    <path
       id="path32"
       transform="translate(34.7009,70.3173)"
       d="M 0,0 -3.303,2.474" />
    <path
       id="path34"
       transform="translate(31.25,67.9085)"
       d="M 0,0 -2.875,-1.375" />
    <path
       id="path36"
       transform="translate(35.25,66.7835)"
       d="M 0,0 -1,-3.375" />
    <path
       id="path38"
       transform="translate(40,63.6585)"
       d="M 0,0 1.75,-2.75" />
    <path
       id="path40"
       transform="translate(42,56.2835)"
       d="M 0,0 -2.75,-1.625" />
    <path
       id="path42"
       transform="translate(37.5,59.0335)"
       d="M 0,0 -3.5,0.5" />
    <path
       id="path44"
       transform="translate(38.875,50.0335)"
       d="M 0,0 3.625,-0.25" />
    <path
       id="path46"
       transform="translate(37.3996,48.0423)"
       d="M 0,0 1.25,-3" />
    <path
       id="path48"
       transform="translate(6.25,81.2746)"
       d="M 0,0 -2.375,-2.5" />
    <path
       id="path50"
       transform="translate(3.75,76.0335)"
       d="M 0,0 4,-1.125" />
    <path
       id="path52"
       transform="translate(2.75,72.2835)"
       d="M 0,0 1.125,-3.625" />
    <path
       id="path54"
       transform="translate(4.5,65.6585)"
       d="M 0,0 -3,-2.375" />
    <path
       id="path56"
       transform="translate(4.5088,60)"
       d="M 0,0 -0.375,-3.625" />
    <path
       id="path58"
       transform="translate(1.75,53.1585)"
       d="M 0,0 2.875,-2" />
    <path
       id="path60"
       transform="translate(2.125,47.4085)"
       d="M 0,0 -1.625,-3" />
    <path
       id="path62"
       transform="translate(0.375,84.7835)"
       d="M 0,0 3.25,-0.75" />
    <path
       id="path64"
       transform="translate(8.5,43.7835)"
       d="M 0,0 -1.125,3.5" />
    <path
       id="path66"
       transform="translate(12.0833,43.3668)"
       d="M 0,0 3.125,2.125" />
    <path
       id="path68"
       transform="translate(8.625,51.0335)"
       d="M 0,0 3.375,0.625" />
    <path
       id="path70"
       transform="translate(6.75,62.1585)"
       d="M 0,0 3.625,-0.125" />
    <path
       id="path72"
       transform="translate(10.875,71.5335)"
       d="M 0,0 -4.125,-0.25" />
    <path
       id="path74"
       transform="translate(11.375,68.4085)"
       d="M 0,0 -2,-3" />
    <path
       id="path76"
       transform="translate(14.375,64.7835)"
       d="M 0,0 2.5,-2" />
    <path
       id="path78"
       transform="translate(14.375,72.4085)"
       d="M 0,0 1.125,-3.75" />
    <path
       id="path80"
       transform="translate(26.0991,50.9085)"
       d="M 0,0 3.764,-1.076" />
    <path
       id="path82"
       transform="translate(18.4559,74.1212)"
       d="M 0,0 3.294,-1.338" />
    <path
       id="path84"
       transform="translate(25.625,72.7835)"
       d="M 0,0 1.583,-3.27" />
    <path
       id="path86"
       transform="translate(21.5,68.7835)"
       d="M 0,0 -2.625,-2.75" />
    <path
       id="path88"
       transform="translate(22,63.7835)"
       d="M 0,0 3.375,0.5" />
    <path
       id="path90"
       transform="translate(28.125,62.9085)"
       d="M 0,0 3.25,-2" />
    <path
       id="path92"
       transform="translate(30,57.4085)"
       d="M 0,0 -2.125,-2.875" />
    <path
       id="path94"
       transform="translate(35,51.1585)"
       d="M 0,0 -1.5,3.25" />
    <path
       id="path96"
       transform="translate(31.5669,44.1162)"
       d="M 0,0 2.75,3.125" />
    <path
       id="path98"
       transform="translate(26.375,44.9085)"
       d="M 0,0 -1.75,3" />
    <path
       id="path100"
       transform="translate(20.2083,45.0246)"
       d="M 0,0 1.125,3.125" />
    <path
       id="path102"
       transform="translate(20,54.2412)"
       d="M 0,0 3.25,-1.375" />
    <path
       id="path104"
       transform="translate(23.8676,56.0678)"
       d="M 0,0 1.301,3.517" />
    <path
       id="path106"
       transform="translate(19.875,60.7835)"
       d="M 0,0 -3.125,-2.125" />
    <path
       id="path108"
       transform="translate(15.1666,53.6168)"
       d="M 0,0 2.375,-3.125" />
    <path
       id="path110"
       transform="translate(52.4129,77.9085)"
       d="M 0,0 2.25,-2.625" />
    <path
       id="path112"
       transform="translate(52.5379,81.6585)"
       d="M 0,0 3.375,-0.125" />
    <path
       id="path114"
       transform="translate(63.4129,78.471)"
       d="M 0,0 2.688,-2.045" />
    <path
       id="path116"
       transform="translate(59.9129,79.5335)"
       d="M 0,0 -2.125,-2.75" />
    <path
       id="path118"
       transform="translate(61.5379,82.2835)"
       d="M 0,0 -2.75,1.75" />
    <path
       id="path120"
       transform="translate(66.7879,85.0335)"
       d="M 0,0 -2.25,-1.5" />
    <path
       id="path122"
       transform="translate(68.4129,81.6585)"
       d="M 0,0 0.125,-3.125" />
    <path
       id="path124"
       transform="translate(71.7879,84.2254)"
       d="M 0,0 2.5,-1.25" />
    <path
       id="path126"
       transform="translate(78.1629,82.5915)"
       d="M 0,0 2,2.375" />
    <path
       id="path128"
       transform="translate(82.9129,81.6585)"
       d="M 0,0 2.75,-2.25" />
    <path
       id="path130"
       transform="translate(78.7879,78.0335)"
       d="M 0,0 0.625,-3" />
    <path
       id="path132"
       transform="translate(74.5379,78.0335)"
       d="M 0,0 -2.5,-2.625" />
    <path
       id="path134"
       transform="translate(85.5379,75.0335)"
       d="M 0,0 -2.125,-2.625" />
    <path
       id="path136"
       transform="translate(82.0379,68.6585)"
       d="M 0,0 3.375,-1.125" />
    <path
       id="path138"
       transform="translate(78.1629,71.4085)"
       d="M 0,0 -4.125,0.125" />
    <path
       id="path140"
       transform="translate(74.2879,67.9085)"
       d="M 0,0 -2.875,-1.375" />
    <path
       id="path142"
       transform="translate(78.2879,66.7835)"
       d="M 0,0 -1,-3.375" />
    <path
       id="path144"
       transform="translate(83.0379,63.6585)"
       d="M 0,0 1.75,-2.75" />
    <path
       id="path146"
       transform="translate(85.0379,56.2835)"
       d="M 0,0 -2.75,-1.625" />
    <path
       id="path148"
       transform="translate(80.5379,59.0335)"
       d="M 0,0 -3.5,0.5" />
    <path
       id="path150"
       transform="translate(81.9129,50.0335)"
       d="M 0,0 3.625,-0.25" />
    <path
       id="path152"
       transform="translate(80.4375,48.0423)"
       d="M 0,0 1.25,-3" />
    <path
       id="path154"
       transform="translate(49.2879,82.4085)"
       d="M 0,0 -2.375,-2.5" />
    <path
       id="path156"
       transform="translate(46.7879,76.0335)"
       d="M 0,0 4,-1.125" />
    <path
       id="path158"
       transform="translate(45.7879,72.2835)"
       d="M 0,0 1.125,-3.625" />
    <path
       id="path160"
       transform="translate(47.5379,65.6585)"
       d="M 0,0 -3,-2.375" />
    <path
       id="path162"
       transform="translate(46.9798,58.5827)"
       d="M 0,0 1.69,-3.229" />
    <path
       id="path164"
       transform="translate(44.7879,53.1585)"
       d="M 0,0 2.875,-2" />
    <path
       id="path166"
       transform="translate(46.8636,47.4085)"
       d="M 0,0 -1.625,-3" />
    <path
       id="path168"
       transform="translate(43.4129,84.7835)"
       d="M 0,0 3.25,-0.75" />
    <path
       id="path170"
       transform="translate(52.3882,42.3662)"
       d="M 0,0 -1.125,3.5" />
    <path
       id="path172"
       transform="translate(56.2879,45.6585)"
       d="M 0,0 3.125,2.125" />
    <path
       id="path174"
       transform="translate(51.6629,51.0335)"
       d="M 0,0 3.375,0.625" />
    <path
       id="path176"
       transform="translate(54.529,58.2835)"
       d="M 0,0 -1,-3.625" />
    <path
       id="path178"
       transform="translate(49.9527,61.2849)"
       d="M 0,0 3.342,1.409" />
    <path
       id="path180"
       transform="translate(53.9129,71.5335)"
       d="M 0,0 -4.125,-0.25" />
    <path
       id="path182"
       transform="translate(54.4129,68.4085)"
       d="M 0,0 -2,-3" />
    <path
       id="path184"
       transform="translate(57.4129,64.7835)"
       d="M 0,0 2.5,-2" />
    <path
       id="path186"
       transform="translate(57.4129,72.4085)"
       d="M 0,0 1.125,-3.75" />
    <path
       id="path188"
       transform="translate(61.3327,72.6189)"
       d="M 0,0 3.443,0.885" />
    <path
       id="path190"
       transform="translate(69.3623,72.5418)"
       d="M 0,0 -1.843,-3.132" />
    <path
       id="path192"
       transform="translate(64.5379,68.7835)"
       d="M 0,0 -2.625,-2.75" />
    <path
       id="path194"
       transform="translate(65.0379,63.7835)"
       d="M 0,0 3.375,0.5" />
    <path
       id="path196"
       transform="translate(71.1629,62.9085)"
       d="M 0,0 3.25,-2" />
    <path
       id="path198"
       transform="translate(74.2253,57.1377)"
       d="M 0,0 -2.125,-2.875" />
    <path
       id="path200"
       transform="translate(78.0379,51.1585)"
       d="M 0,0 -1.5,3.25" />
    <path
       id="path202"
       transform="translate(74.8882,44.3996)"
       d="M 0,0 2.75,3.125" />
    <path
       id="path204"
       transform="translate(73.4129,50.5335)"
       d="M 0,0 H -4" />
    <path
       id="path206"
       transform="translate(69.4129,44.9085)"
       d="M 0,0 -1.75,3" />
    <path
       id="path208"
       transform="translate(63.375,44.6585)"
       d="M 0,0 1.125,3.125" />
    <path
       id="path210"
       transform="translate(64.375,53.6585)"
       d="M 0,0 3.25,-1.375" />
    <path
       id="path212"
       transform="translate(8.9337,57.9918)"
       d="M 0,0 3.25,-1.375" />
    <path
       id="path214"
       transform="translate(68.4866,56.2081)"
       d="M 0,0 -1.7,3.343" />
    <path
       id="path216"
       transform="translate(62.9129,60.7835)"
       d="M 0,0 -3.125,-2.125" />
    <path
       id="path218"
       transform="translate(58.0379,54.7835)"
       d="M 0,0 2.375,-3.125" />
    <path
       id="path220"
       transform="translate(9.4084,34.904)"
       d="M 0,0 2.25,-2.625" />
    <path
       id="path222"
       transform="translate(9.5334,38.654)"
       d="M 0,0 3.375,-0.125" />
    <path
       id="path224"
       transform="translate(20.4084,35.4665)"
       d="M 0,0 2.688,-2.045" />
    <path
       id="path226"
       transform="translate(16.9084,36.529)"
       d="M 0,0 -2.125,-2.75" />
    <path
       id="path228"
       transform="translate(18.5334,40.1294)"
       d="M 0,0 -2.75,1.75" />
    <path
       id="path230"
       transform="translate(23.7834,42.029)"
       d="M 0,0 -2.25,-1.5" />
    <path
       id="path232"
       transform="translate(26.5423,38.654)"
       d="M 0,0 -1.637,-2.665" />
    <path
       id="path234"
       transform="translate(28.7834,41.221)"
       d="M 0,0 2.5,-1.25" />
    <path
       id="path236"
       transform="translate(35.1584,39.5871)"
       d="M 0,0 2,2.375" />
    <path
       id="path238"
       transform="translate(39.9084,38.654)"
       d="M 0,0 2.75,-2.25" />
    <path
       id="path240"
       transform="translate(35.7834,35.029)"
       d="M 0,0 0.625,-3" />
    <path
       id="path242"
       transform="translate(31.5334,35.029)"
       d="M 0,0 -2.5,-2.625" />
    <path
       id="path244"
       transform="translate(42.5334,32.029)"
       d="M 0,0 -2.125,-2.625" />
    <path
       id="path246"
       transform="translate(39.0334,25.654)"
       d="M 0,0 3.375,-1.125" />
    <path
       id="path248"
       transform="translate(35.0805,29.0238)"
       d="M 0,0 -3.957,-1.171" />
    <path
       id="path250"
       transform="translate(31.2834,24.904)"
       d="M 0,0 -2.875,-1.375" />
    <path
       id="path252"
       transform="translate(35.2834,23.779)"
       d="M 0,0 -1,-3.375" />
    <path
       id="path254"
       transform="translate(40.0334,20.654)"
       d="M 0,0 1.75,-2.75" />
    <path
       id="path256"
       transform="translate(42.0334,13.279)"
       d="M 0,0 -2.75,-1.625" />
    <path
       id="path258"
       transform="translate(37.5334,16.029)"
       d="M 0,0 -3.5,0.5" />
    <path
       id="path260"
       transform="translate(38.9084,7.029)"
       d="M 0,0 3.625,-0.25" />
    <path
       id="path262"
       transform="translate(38.2872,3.5171)"
       d="M 0,0 1.25,-3" />
    <path
       id="path264"
       transform="translate(6.2834,39.404)"
       d="M 0,0 -2.375,-2.5" />
    <path
       id="path266"
       transform="translate(3.7834,33.029)"
       d="M 0,0 4,-1.125" />
    <path
       id="path268"
       transform="translate(2.7834,29.279)"
       d="M 0,0 1.125,-3.625" />
    <path
       id="path270"
       transform="translate(4.5334,22.654)"
       d="M 0,0 -3,-2.375" />
    <path
       id="path272"
       transform="translate(4.5423,16.9956)"
       d="M 0,0 -0.375,-3.625" />
    <path
       id="path274"
       transform="translate(1.7834,10.154)"
       d="M 0,0 2.875,-2" />
    <path
       id="path276"
       transform="translate(2.1584,4.404)"
       d="M 0,0 -1.625,-3" />
    <path
       id="path278"
       transform="translate(0.4084,41.779)"
       d="M 0,0 3.25,-0.75" />
    <path
       id="path280"
       transform="translate(8.6168,0.1749)"
       d="M 0,0 -1.125,3.5" />
    <path
       id="path282"
       transform="translate(13.6376,1.9666)"
       d="M 0,0 3.125,2.125" />
    <path
       id="path284"
       transform="translate(8.6584,8.029)"
       d="M 0,0 3.375,0.625" />
    <path
       id="path286"
       transform="translate(12.6584,15.279)"
       d="M 0,0 -2.657,-2.661" />
    <path
       id="path288"
       transform="translate(6.7834,18.0202)"
       d="M 0,0 3.625,-0.125" />
    <path
       id="path290"
       transform="translate(10.9084,28.529)"
       d="M 0,0 -4.125,-0.25" />
    <path
       id="path292"
       transform="translate(11.4084,25.404)"
       d="M 0,0 -2,-3" />
    <path
       id="path294"
       transform="translate(14.4084,21.779)"
       d="M 0,0 2.5,-2" />
    <path
       id="path296"
       transform="translate(14.4084,29.404)"
       d="M 0,0 1.125,-3.75" />
    <path
       id="path298"
       transform="translate(18.2834,30.404)"
       d="M 0,0 3.138,-1.671" />
    <path
       id="path300"
       transform="translate(26.3671,29.5438)"
       d="M 0,0 -1.863,-3.12" />
    <path
       id="path302"
       transform="translate(19.8465,26.7132)"
       d="M 0,0 -0.938,-3.684" />
    <path
       id="path304"
       transform="translate(22.0334,20.779)"
       d="M 0,0 3.375,0.5" />
    <path
       id="path306"
       transform="translate(28.1584,19.904)"
       d="M 0,0 3.25,-2" />
    <path
       id="path308"
       transform="translate(30.0334,13.5537)"
       d="M 0,0 -2.125,-2.875" />
    <path
       id="path310"
       transform="translate(35.0334,8.154)"
       d="M 0,0 -1.5,3.25" />
    <path
       id="path312"
       transform="translate(31.5543,1.3415)"
       d="M 0,0 2.75,3.125" />
    <path
       id="path314"
       transform="translate(30.4084,6.6787)"
       d="M 0,0 H -4" />
    <path
       id="path316"
       transform="translate(26.5126,0.9665)"
       d="M 0,0 -1.75,3" />
    <path
       id="path318"
       transform="translate(19.7752,2.2954)"
       d="M 0,0 1.125,3.125" />
    <path
       id="path320"
       transform="translate(20.3876,11.4249)"
       d="M 0,0 3.25,-1.375" />
    <path
       id="path322"
       transform="translate(24.0293,13.6082)"
       d="M 0,0 1.27,3.528" />
    <path
       id="path324"
       transform="translate(19.9084,17.779)"
       d="M 0,0 -3.125,-2.125" />
    <path
       id="path326"
       transform="translate(15.0334,11.779)"
       d="M 0,0 2.375,-3.125" />
    <path
       id="path328"
       transform="translate(52.4671,34.9375)"
       d="M 0,0 2.25,-2.625" />
    <path
       id="path330"
       transform="translate(52.5921,38.6875)"
       d="M 0,0 3.375,-0.125" />
    <path
       id="path332"
       transform="translate(63.4671,35.5)"
       d="M 0,0 2.688,-2.045" />
    <path
       id="path334"
       transform="translate(59.9671,36.5625)"
       d="M 0,0 -2.125,-2.75" />
    <path
       id="path336"
       transform="translate(61.5921,40.4464)"
       d="M 0,0 -2.75,1.75" />
    <path
       id="path338"
       transform="translate(66.8421,42.0625)"
       d="M 0,0 -2.25,-1.5" />
    <path
       id="path340"
       transform="translate(70.103,38.3008)"
       d="M 0,0 -1.511,-2.738" />
    <path
       id="path342"
       transform="translate(71.8421,41.2544)"
       d="M 0,0 2.5,-1.25" />
    <path
       id="path344"
       transform="translate(78.2171,39.6206)"
       d="M 0,0 2,2.375" />
    <path
       id="path346"
       transform="translate(82.9671,38.6875)"
       d="M 0,0 2.75,-2.25" />
    <path
       id="path348"
       transform="translate(78.8421,35.0625)"
       d="M 0,0 0.625,-3" />
    <path
       id="path350"
       transform="translate(74.5921,35.0625)"
       d="M 0,0 -2.5,-2.625" />
    <path
       id="path352"
       transform="translate(85.5921,32.0625)"
       d="M 0,0 -2.125,-2.625" />
    <path
       id="path354"
       transform="translate(82.0921,25.6875)"
       d="M 0,0 3.375,-1.125" />
    <path
       id="path356"
       transform="translate(78.2171,28.4375)"
       d="M 0,0 -4.125,0.125" />
    <path
       id="path358"
       transform="translate(74.3421,24.9375)"
       d="M 0,0 -2.875,-1.375" />
    <path
       id="path360"
       transform="translate(78.3421,23.8125)"
       d="M 0,0 -1,-3.375" />
    <path
       id="path362"
       transform="translate(83.0921,20.6875)"
       d="M 0,0 1.75,-2.75" />
    <path
       id="path364"
       transform="translate(85.0921,13.3125)"
       d="M 0,0 -2.75,-1.625" />
    <path
       id="path366"
       transform="translate(80.5921,16.0625)"
       d="M 0,0 -3.5,0.5" />
    <path
       id="path368"
       transform="translate(81.9671,7.0625)"
       d="M 0,0 3.625,-0.25" />
    <path
       id="path370"
       transform="translate(81.5542,3.7172)"
       d="M 0,0 1.25,-3" />
    <path
       id="path372"
       transform="translate(49.3421,39.4375)"
       d="M 0,0 -2.375,-2.5" />
    <path
       id="path374"
       transform="translate(46.8421,33.0625)"
       d="M 0,0 4,-1.125" />
    <path
       id="path376"
       transform="translate(45.8421,29.3125)"
       d="M 0,0 1.125,-3.625" />
    <path
       id="path378"
       transform="translate(47.5921,22.6875)"
       d="M 0,0 -3,-2.375" />
    <path
       id="path380"
       transform="translate(47.601,17.029)"
       d="M 0,0 -0.375,-3.625" />
    <path
       id="path382"
       transform="translate(44.8421,10.1875)"
       d="M 0,0 2.875,-2" />
    <path
       id="path384"
       transform="translate(45.2171,4.4375)"
       d="M 0,0 -1.625,-3" />
    <path
       id="path386"
       transform="translate(43.4671,41.8125)"
       d="M 0,0 3.25,-0.75" />
    <path
       id="path388"
       transform="translate(51.7171,0.2917)"
       d="M 0,0 -1.125,3.5" />
    <path
       id="path390"
       transform="translate(56.5296,1.1042)"
       d="M 0,0 3.125,2.125" />
    <path
       id="path392"
       transform="translate(51.7171,8.0625)"
       d="M 0,0 3.375,0.625" />
    <path
       id="path394"
       transform="translate(54.8667,15.3125)"
       d="M 0,0 -2.746,-2.569" />
    <path
       id="path396"
       transform="translate(49.8421,19.1875)"
       d="M 0,0 3.625,-0.125" />
    <path
       id="path398"
       transform="translate(53.9671,28.5625)"
       d="M 0,0 -4.125,-0.25" />
    <path
       id="path400"
       transform="translate(54.4671,25.4375)"
       d="M 0,0 -2,-3" />
    <path
       id="path402"
       transform="translate(57.4671,21.8125)"
       d="M 0,0 2.5,-2" />
    <path
       id="path404"
       transform="translate(57.4671,29.4375)"
       d="M 0,0 1.125,-3.75" />
    <path
       id="path406"
       transform="translate(61.3421,30.4375)"
       d="M 0,0 3.5,-0.625" />
    <path
       id="path408"
       transform="translate(68.3686,30.4195)"
       d="M 0,0 1.043,-3.481" />
    <path
       id="path410"
       transform="translate(64.5921,25.8125)"
       d="M 0,0 -2.625,-2.75" />
    <path
       id="path412"
       transform="translate(65.0921,20.8125)"
       d="M 0,0 3.375,0.5" />
    <path
       id="path414"
       transform="translate(71.2171,19.9375)"
       d="M 0,0 3.25,-2" />
    <path
       id="path416"
       transform="translate(73.0921,14.4375)"
       d="M 0,0 -2.125,-2.875" />
    <path
       id="path418"
       transform="translate(78.0921,8.1875)"
       d="M 0,0 -1.5,3.25" />
    <path
       id="path420"
       transform="translate(74.5504,1.8542)"
       d="M 0,0 2.75,3.125" />
    <path
       id="path422"
       transform="translate(73.2362,6.6555)"
       d="M 0,0 -3.538,1.867" />
    <path
       id="path424"
       transform="translate(69.5505,0.3333)"
       d="M 0,0 -1.75,3" />
    <path
       id="path426"
       transform="translate(63.3421,3.9375)"
       d="M 0,0 1.125,3.125" />
    <path
       id="path428"
       transform="translate(63.0921,12.6875)"
       d="M 0,0 3.25,-1.375" />
    <path
       id="path430"
       transform="translate(65.8932,14.607)"
       d="M 0,0 3.347,1.691" />
    <path
       id="path432"
       transform="translate(62.9671,17.8125)"
       d="M 0,0 -3.125,-2.125" />
    <path
       id="path434"
       transform="translate(58.1755,10.6042)"
       d="M 0,0 2.375,-3.125" />
  </g>
</svg>
