<?xml version="1.0" encoding="UTF-8" standalone="no"?>
<svg
   xmlns:dc="http://purl.org/dc/elements/1.1/"
   xmlns:cc="http://creativecommons.org/ns#"
   xmlns:rdf="http://www.w3.org/1999/02/22-rdf-syntax-ns#"
   xmlns:svg="http://www.w3.org/2000/svg"
   xmlns="http://www.w3.org/2000/svg"
   id="svg150"
   version="1.1"
   height="46px"
   width="46px"
   >
  <defs
     id="defs154" />
  <metadata
     id="metadata2">citation: U.S. Geological Survey, 2006, FGDC Digital Cartographic Standard for Geologic Map Symbolization (PostScript Implementation): U.S. Geological Survey Techniques and Methods 11-A2 [pubs.usgs.gov/tm/2006/11A02/]. converted by CEC Geology LLC 2018 from the USGS lithologic gs converted to inkscape by the University of Otago.<rdf:RDF>
  <cc:Work
     rdf:about="">
    <dc:format>image/svg+xml</dc:format>
    <dc:type
       rdf:resource="http://purl.org/dc/dcmitype/StillImage" />
    <dc:title></dc:title>
  </cc:Work>
</rdf:RDF>
</metadata>
  <g
     id="g148"
     width="46"
     stroke-width=".3"
     stroke="#231f20"
     height="46"
     fill="none">
    <path
       id="path4"
       transform="translate(7.3832 41.4041)"
       d="m0 0-1.188-1.908v-1.342" />
    <path
       id="path6"
       transform="translate(6.1957 39.4956)"
       d="m0 0-1.188 1.908" />
    <path
       id="path8"
       transform="translate(15.0707 41.4041)"
       d="m0 0-1.188-1.908v-1.342" />
    <path
       id="path10"
       transform="translate(13.8832 39.4956)"
       d="m0 0-1.188 1.908" />
    <path
       id="path12"
       transform="translate(22.6332 41.4041)"
       d="m0 0-1.188-1.908v-1.342" />
    <path
       id="path14"
       transform="translate(21.4457 39.4956)"
       d="m0 0-1.188 1.908" />
    <path
       id="path16"
       transform="translate(30.2582 41.4041)"
       d="m0 0-1.188-1.908v-1.342" />
    <path
       id="path18"
       transform="translate(29.0707 39.4956)"
       d="m0 0-1.188 1.908" />
    <path
       id="path20"
       transform="translate(37.9457 41.4041)"
       d="m0 0-1.188-1.908v-1.342" />
    <path
       id="path22"
       transform="translate(36.7582 39.4956)"
       d="m0 0-1.188 1.908" />
    <path
       id="path24"
       transform="translate(45.6957 41.4041)"
       d="m0 0-1.188-1.908v-1.342" />
    <path
       id="path26"
       transform="translate(44.5082 39.4956)"
       d="m0 0-1.188 1.908" />
    <path
       id="path28"
       transform="translate(41.7582 31)"
       d="m0 0-1.188 1.909v1.341" />
    <path
       id="path30"
       transform="translate(40.5707 32.9085)"
       d="m0 0-1.188-1.909" />
    <path
       id="path32"
       transform="translate(34.0082 31)"
       d="m0 0-1.188 1.909v1.341" />
    <path
       id="path34"
       transform="translate(32.8207 32.9085)"
       d="m0 0-1.188-1.909" />
    <path
       id="path36"
       transform="translate(26.3207 31)"
       d="m0 0-1.188 1.909v1.341" />
    <path
       id="path38"
       transform="translate(25.1332 32.9085)"
       d="m0 0-1.188-1.909" />
    <path
       id="path40"
       transform="translate(18.6957 31)"
       d="m0 0-1.188 1.909v1.341" />
    <path
       id="path42"
       transform="translate(17.5082 32.9085)"
       d="m0 0-1.188-1.909" />
    <path
       id="path44"
       transform="translate(11.1332 31)"
       d="m0 0-1.188 1.909v1.341" />
    <path
       id="path46"
       transform="translate(9.9457 32.9085)"
       d="m0 0-1.188-1.909" />
    <path
       id="path48"
       transform="translate(3.4457 31)"
       d="m0 0-1.188 1.909v1.341" />
    <path
       id="path50"
       transform="translate(2.2582 32.9085)"
       d="m0 0-1.188-1.909" />
    <path
       id="path52"
       transform="translate(7.3832 25.9457)"
       d="m0 0-1.188-1.908v-1.342" />
    <path
       id="path54"
       transform="translate(6.1957 24.0373)"
       d="m0 0-1.188 1.908" />
    <path
       id="path56"
       transform="translate(15.0707 25.9457)"
       d="m0 0-1.188-1.908v-1.342" />
    <path
       id="path58"
       transform="translate(13.8832 24.0373)"
       d="m0 0-1.188 1.908" />
    <path
       id="path60"
       transform="translate(22.6332 25.9457)"
       d="m0 0-1.188-1.908v-1.342" />
    <path
       id="path62"
       transform="translate(21.4457 24.0373)"
       d="m0 0-1.188 1.908" />
    <path
       id="path64"
       transform="translate(30.2582 25.9457)"
       d="m0 0-1.188-1.908v-1.342" />
    <path
       id="path66"
       transform="translate(29.0707 24.0373)"
       d="m0 0-1.188 1.908" />
    <path
       id="path68"
       transform="translate(37.9457 25.9457)"
       d="m0 0-1.188-1.908v-1.342" />
    <path
       id="path70"
       transform="translate(36.7582 24.0373)"
       d="m0 0-1.188 1.908" />
    <path
       id="path72"
       transform="translate(45.6957 25.9457)"
       d="m0 0-1.188-1.908v-1.342" />
    <path
       id="path74"
       transform="translate(44.5082 24.0373)"
       d="m0 0-1.188 1.908" />
    <path
       id="path76"
       transform="translate(41.7582 15.5625)"
       d="m0 0-1.188 1.909v1.341" />
    <path
       id="path78"
       transform="translate(40.5707 17.471)"
       d="m0 0-1.188-1.909" />
    <path
       id="path80"
       transform="translate(34.0082 15.5625)"
       d="m0 0-1.188 1.909v1.341" />
    <path
       id="path82"
       transform="translate(32.8207 17.471)"
       d="m0 0-1.188-1.909" />
    <path
       id="path84"
       transform="translate(26.3207 15.5625)"
       d="m0 0-1.188 1.909v1.341" />
    <path
       id="path86"
       transform="translate(25.1332 17.471)"
       d="m0 0-1.188-1.909" />
    <path
       id="path88"
       transform="translate(18.6957 15.5625)"
       d="m0 0-1.188 1.909v1.341" />
    <path
       id="path90"
       transform="translate(17.5082 17.471)"
       d="m0 0-1.188-1.909" />
    <path
       id="path92"
       transform="translate(11.1332 15.5625)"
       d="m0 0-1.188 1.909v1.341" />
    <path
       id="path94"
       transform="translate(9.9457 17.471)"
       d="m0 0-1.188-1.909" />
    <path
       id="path96"
       transform="translate(3.4457 15.5625)"
       d="m0 0-1.188 1.909v1.341" />
    <path
       id="path98"
       transform="translate(2.2582 17.471)"
       d="m0 0-1.188-1.909" />
    <path
       id="path100"
       transform="translate(7.3832 10.6124)"
       d="m0 0-1.188-1.908v-1.342" />
    <path
       id="path102"
       transform="translate(6.1957 8.7039)"
       d="m0 0-1.188 1.908" />
    <path
       id="path104"
       transform="translate(15.0707 10.6124)"
       d="m0 0-1.188-1.908v-1.342" />
    <path
       id="path106"
       transform="translate(13.8832 8.7039)"
       d="m0 0-1.188 1.908" />
    <path
       id="path108"
       transform="translate(22.6332 10.6124)"
       d="m0 0-1.188-1.908v-1.342" />
    <path
       id="path110"
       transform="translate(21.4457 8.7039)"
       d="m0 0-1.188 1.908" />
    <path
       id="path112"
       transform="translate(30.2582 10.6124)"
       d="m0 0-1.188-1.908v-1.342" />
    <path
       id="path114"
       transform="translate(29.0707 8.7039)"
       d="m0 0-1.188 1.908" />
    <path
       id="path116"
       transform="translate(37.9457 10.6124)"
       d="m0 0-1.188-1.908v-1.342" />
    <path
       id="path118"
       transform="translate(36.7582 8.7039)"
       d="m0 0-1.188 1.908" />
    <path
       id="path120"
       transform="translate(45.6957 10.6124)"
       d="m0 0-1.188-1.908v-1.342" />
    <path
       id="path122"
       transform="translate(44.5082 8.7039)"
       d="m0 0-1.188 1.908" />
    <path
       id="path124"
       transform="translate(41.7582 .2627)"
       d="m0 0-1.188 1.908v1.342" />
    <path
       id="path126"
       transform="translate(40.5707 2.1711)"
       d="m0 0-1.188-1.908" />
    <path
       id="path128"
       transform="translate(34.0082 .2627)"
       d="m0 0-1.188 1.908v1.342" />
    <path
       id="path130"
       transform="translate(32.8207 2.1711)"
       d="m0 0-1.188-1.908" />
    <path
       id="path132"
       transform="translate(26.3207 .2627)"
       d="m0 0-1.188 1.908v1.342" />
    <path
       id="path134"
       transform="translate(25.1332 2.1711)"
       d="m0 0-1.188-1.908" />
    <path
       id="path136"
       transform="translate(18.6957 .2627)"
       d="m0 0-1.188 1.908v1.342" />
    <path
       id="path138"
       transform="translate(17.5082 2.1711)"
       d="m0 0-1.188-1.908" />
    <path
       id="path140"
       transform="translate(11.1332 .2627)"
       d="m0 0-1.188 1.908v1.342" />
    <path
       id="path142"
       transform="translate(9.9457 2.1711)"
       d="m0 0-1.188-1.908" />
    <path
       id="path144"
       transform="translate(3.4457 .2627)"
       d="m0 0-1.188 1.908v1.342" />
    <path
       id="path146"
       transform="translate(2.2582 2.1711)"
       d="m0 0-1.188-1.908" />
  </g>
</svg>
