<?xml version="1.0" encoding="UTF-8" standalone="no"?>
<svg
   xmlns:dc="http://purl.org/dc/elements/1.1/"
   xmlns:cc="http://creativecommons.org/ns#"
   xmlns:rdf="http://www.w3.org/1999/02/22-rdf-syntax-ns#"
   xmlns:svg="http://www.w3.org/2000/svg"
   xmlns="http://www.w3.org/2000/svg"
   id="svg656"
   width="80.5587"
   height="80.5587"
   version="1.1">
  <defs
     id="defs660" />
  <metadata
     id="metadata2">citation: U.S. Geological Survey, 2006, FGDC Digital Cartographic Standard for Geologic Map Symbolization (PostScript Implementation): U.S. Geological Survey Techniques and Methods 11-A2 [pubs.usgs.gov/tm/2006/11A02/]. converted by CEC Geology LLC 2018 from the USGS lithologic gs converted to inkscape by the University of Otago.<rdf:RDF>
  <cc:Work
     rdf:about="">
    <dc:format>image/svg+xml</dc:format>
    <dc:type
       rdf:resource="http://purl.org/dc/dcmitype/StillImage" />
    <dc:title></dc:title>
  </cc:Work>
</rdf:RDF>
</metadata>
  <g
     id="g654"
     width="80.5587"
     stroke-width=".3"
     stroke="#231f20"
     height="80.5587"
     fill="none">
    <path
       id="path4"
       transform="translate(16.8532 77.734)"
       d="m0 0-1.289-1.658" />
    <path
       id="path6"
       transform="translate(11.3667 73.276)"
       d="m0 0 .217 1.95" />
    <path
       id="path8"
       transform="translate(7.5833 69.0416)"
       d="m0 0-1.313-1.458" />
    <path
       id="path10"
       transform="translate(2.4583 66.7708)"
       d="m0 0-1.313-1.458" />
    <path
       id="path12"
       transform="translate(19.7291 74.1667)"
       d="m0 0 2.042.375" />
    <path
       id="path14"
       transform="translate(11.4583 70.8958)"
       d="m0 0h-1.875" />
    <path
       id="path16"
       transform="translate(7.6458 78.9166)"
       d="m0 0-.938-1.833" />
    <path
       id="path18"
       transform="translate(7.6458 73.1458)"
       d="m0 0-1.375 1.25" />
    <path
       id="path20"
       transform="translate(16.8958 67.3333)"
       d="m0 0-1.5 1.188" />
    <path
       id="path22"
       transform="translate(12.3184 67.6732)"
       d="m0 0-.83-1.778" />
    <path
       id="path24"
       transform="translate(6.2518 9.3904)"
       d="m0 0 1.277-1.49" />
    <path
       id="path26"
       transform="translate(20.874 65.1316)"
       d="m0 0-1.666-.861" />
    <path
       id="path28"
       transform="translate(14.4583 35.7708)"
       d="m0 0-1.666-.861" />
    <path
       id="path30"
       transform="translate(27.7083 65.5208)"
       d="m0 0-1.878.366" />
    <path
       id="path32"
       transform="translate(25.0574 69.7105)"
       d="m0 0-1.727-.823" />
    <path
       id="path34"
       transform="translate(29.4234 63.8508)"
       d="m0 0 .078-1.96" />
    <path
       id="path36"
       transform="translate(39.4234 60.1008)"
       d="m0 0 .078-1.96" />
    <path
       id="path38"
       transform="translate(20.9969 70.361)"
       d="m0 0-.83-1.778" />
    <path
       id="path40"
       transform="translate(7.4982 64.6152)"
       d="m0 0-1.767.628" />
    <path
       id="path42"
       transform="translate(26.9583 72.2708)"
       d="m0 0-.994 1.59" />
    <path
       id="path44"
       transform="translate(10.4583 58.7708)"
       d="m0 0-1.016 1.621" />
    <path
       id="path46"
       transform="translate(17.0018 60.8904)"
       d="m0 0-1.234-1.525" />
    <path
       id="path48"
       transform="translate(33.7359 62.6657)"
       d="m0 0-1.234-1.525" />
    <path
       id="path50"
       transform="translate(14.9736 56.7423)"
       d="m0 0-1.872-.098" />
    <path
       id="path52"
       transform="translate(18.2518 52.6404)"
       d="m0 0-1.56 1.107" />
    <path
       id="path54"
       transform="translate(10.929 54.6968)"
       d="m0 0-.205-1.951" />
    <path
       id="path56"
       transform="translate(8.8174 48.0461)"
       d="m0 0-1.234-1.525" />
    <path
       id="path58"
       transform="translate(7.0986 50.6798)"
       d="m0 0-1.872-.099" />
    <path
       id="path60"
       transform="translate(13.7686 45.6637)"
       d="m0 0-1.56 1.107" />
    <path
       id="path62"
       transform="translate(15.686 62.3778)"
       d="m0 0-1.781.7" />
    <path
       id="path64"
       transform="translate(5.7083 61.0208)"
       d="m0 0-1.872-.393" />
    <path
       id="path66"
       transform="translate(48.7083 66.7708)"
       d="m0 0 1.938-.813" />
    <path
       id="path68"
       transform="translate(1.9583 76.6458)"
       d="m0 0 2.063-.438" />
    <path
       id="path70"
       transform="translate(34.7518 58.3279)"
       d="m0 0 1.25-1.688" />
    <path
       id="path72"
       transform="translate(15.3522 50.8904)"
       d="m0 0-1.313-1.458" />
    <path
       id="path74"
       transform="translate(26.3333 48.9166)"
       d="m0 0-1.313-1.458" />
    <path
       id="path76"
       transform="translate(2.2083 53.2708)"
       d="m0 0-1.313-1.458" />
    <path
       id="path78"
       transform="translate(30.2101 53.7654)"
       d="m0 0 2.042.375" />
    <path
       id="path80"
       transform="translate(30.2083 50.7708)"
       d="m0 0h-1.875" />
    <path
       id="path82"
       transform="translate(26.5018 59.6404)"
       d="m0 0-.938-1.833" />
    <path
       id="path84"
       transform="translate(26.3958 53.0208)"
       d="m0 0-1.375 1.25" />
    <path
       id="path86"
       transform="translate(23.0018 60.1404)"
       d="m0 0-1.375 1.25" />
    <path
       id="path88"
       transform="translate(35.6458 47.2083)"
       d="m0 0-1.5 1.188" />
    <path
       id="path90"
       transform="translate(31.8987 49.3259)"
       d="m0 0-.83-1.778" />
    <path
       id="path92"
       transform="translate(41.5821 53.6681)"
       d="m0 0-.83-1.778" />
    <path
       id="path94"
       transform="translate(26.2482 44.4902)"
       d="m0 0-1.767.628" />
    <path
       id="path96"
       transform="translate(28.4583 38.0208)"
       d="m0 0-1.016 1.621" />
    <path
       id="path98"
       transform="translate(37.7518 40.8904)"
       d="m0 0-1.234-1.525" />
    <path
       id="path100"
       transform="translate(33.7236 36.6173)"
       d="m0 0-1.872-.098" />
    <path
       id="path102"
       transform="translate(37.0186 33.1637)"
       d="m0 0-1.56 1.107" />
    <path
       id="path104"
       transform="translate(27.0018 29.1404)"
       d="m0 0-1.234-1.525" />
    <path
       id="path106"
       transform="translate(14.2359 26.1657)"
       d="m0 0-1.234-1.525" />
    <path
       id="path108"
       transform="translate(34.5279 43.3449)"
       d="m0 0-1.872-.393" />
    <path
       id="path110"
       transform="translate(20.7083 56.5208)"
       d="m0 0 2.063-.438" />
    <path
       id="path112"
       transform="translate(47.6785 31.9385)"
       d="m0 0 .057-2.099" />
    <path
       id="path114"
       transform="translate(30.2676 29.0843)"
       d="m0 0-.266-1.944" />
    <path
       id="path116"
       transform="translate(51.1221 28.0491)"
       d="m0 0 2.042.375" />
    <path
       id="path118"
       transform="translate(41.8768 26.3904)"
       d="m0 0h-1.875" />
    <path
       id="path120"
       transform="translate(57.5833 22.5208)"
       d="m0 0h-1.875" />
    <path
       id="path122"
       transform="translate(39.4393 31.7237)"
       d="m0 0-.938-1.833" />
    <path
       id="path124"
       transform="translate(52.2518 21.8904)"
       d="m0 0-1.5 1.188" />
    <path
       id="path126"
       transform="translate(37.6849 4.1404)"
       d="m0 0-.415 1.868" />
    <path
       id="path128"
       transform="translate(44.0018 23.3904)"
       d="m0 0-.83-1.778" />
    <path
       id="path130"
       transform="translate(77.3579 33.9874)"
       d="m0 0 1.385-1.389" />
    <path
       id="path132"
       transform="translate(39.5352 15.7073)"
       d="m0 0 .47-1.905" />
    <path
       id="path134"
       transform="translate(19.7819 15.7953)"
       d="m0 0 .47-1.905" />
    <path
       id="path136"
       transform="translate(60.5821 26.918)"
       d="m0 0-.83-1.778" />
    <path
       id="path138"
       transform="translate(39.0622 17.9143)"
       d="m0 0-1.767.628" />
    <path
       id="path140"
       transform="translate(8.7871 27.1977)"
       d="m0 0 .449 1.82" />
    <path
       id="path142"
       transform="translate(35.8897 15.2444)"
       d="m0 0-1.803-.514" />
    <path
       id="path144"
       transform="translate(45.2518 13.8904)"
       d="m0 0 1.013 1.623" />
    <path
       id="path146"
       transform="translate(44.0384 10.4903)"
       d="m0 0-1.872-.098" />
    <path
       id="path148"
       transform="translate(51.7083 6.5208)"
       d="m0 0-1.56 1.107" />
    <path
       id="path150"
       transform="translate(7.7083 42.7708)"
       d="m0 0-1.56 1.107" />
    <path
       id="path152"
       transform="translate(46.0018 8.6404)"
       d="m0 0-1.234-1.525" />
    <path
       id="path154"
       transform="translate(53.6924 3.7961)"
       d="m0 0-1.234-1.525" />
    <path
       id="path156"
       transform="translate(39.9262 1.991)"
       d="m0 0-1.234-1.525" />
    <path
       id="path158"
       transform="translate(29.6875 10.0416)"
       d="m0 0-1.587-.998" />
    <path
       id="path160"
       transform="translate(46.9426 1.0693)"
       d="m0 0-1.56 1.107" />
    <path
       id="path162"
       transform="translate(40.8121 7.7833)"
       d="m0 0-1.56 1.107" />
    <path
       id="path164"
       transform="translate(65.6079 19.8831)"
       d="m0 0-1.24-1.457" />
    <path
       id="path166"
       transform="translate(50.2518 14.3904)"
       d="m0 0-1.872-.393" />
    <path
       id="path168"
       transform="translate(42.3304 35.2158)"
       d="m0 0 1.938-.813" />
    <path
       id="path170"
       transform="translate(32.4393 30.8279)"
       d="m0 0 2.063-.438" />
    <path
       id="path172"
       transform="translate(54.0804 9.5699)"
       d="m0 0 1.25-1.688" />
    <path
       id="path174"
       transform="translate(40.5018 48.3904)"
       d="m0 0 1.25-1.688" />
    <path
       id="path176"
       transform="translate(66.7054 8.2991)"
       d="m0 0-1.313-1.458" />
    <path
       id="path178"
       transform="translate(59.5018 1.8904)"
       d="m0 0-1.313-1.458" />
    <path
       id="path180"
       transform="translate(70.0018 7.8904)"
       d="m0 0 1.893.851" />
    <path
       id="path182"
       transform="translate(63.0179 4.7158)"
       d="m0 0h-1.875" />
    <path
       id="path184"
       transform="translate(59.5018 12.1404)"
       d="m0 0-.938-1.833" />
    <path
       id="path186"
       transform="translate(60.9583 7.0208)"
       d="m0 0-1.375 1.25" />
    <path
       id="path188"
       transform="translate(68.4554 .2158)"
       d="m0 0-1.5 1.188" />
    <path
       id="path190"
       transform="translate(64.7083 3.2708)"
       d="m0 0-.83-1.778" />
    <path
       id="path192"
       transform="translate(73.5018 7.6404)"
       d="m0 0 .471-1.905" />
    <path
       id="path194"
       transform="translate(77.6275 6.9564)"
       d="m0 0-1.238-1.409" />
    <path
       id="path196"
       transform="translate(50.1265 4.9308)"
       d="m0 0-.473-1.814" />
    <path
       id="path198"
       transform="translate(35.1414 .9628)"
       d="m0 0-1.5 1.125" />
    <path
       id="path200"
       transform="translate(79.2196 9.1043)"
       d="m0 0-1.56 1.107" />
    <path
       id="path202"
       transform="translate(73.0977 3.6318)"
       d="m0 0-1.762-.747" />
    <path
       id="path204"
       transform="translate(46.1893 20.0779)"
       d="m0 0 2.063-.438" />
    <path
       id="path206"
       transform="translate(60.4248 18.2374)"
       d="m0 0 .806 1.789" />
    <path
       id="path208"
       transform="translate(63.7083 73.5208)"
       d="m0 0-1.023 1.572" />
    <path
       id="path210"
       transform="translate(51.9014 16.3904)"
       d="m0 0 .177 1.905" />
    <path
       id="path212"
       transform="translate(46.4583 52.0208)"
       d="m0 0 .177 1.905" />
    <path
       id="path214"
       transform="translate(53.9583 64.2708)"
       d="m0 0 .177 1.905" />
    <path
       id="path216"
       transform="translate(60.5759 59.1338)"
       d="m0 0 1.25-1.688" />
    <path
       id="path218"
       transform="translate(60.5134 54.9047)"
       d="m0 0-1.313-1.458" />
    <path
       id="path220"
       transform="translate(52.9509 49.4672)"
       d="m0 0-1.312-1.458" />
    <path
       id="path222"
       transform="translate(47.0018 47.1404)"
       d="m0 0-1.313-1.458" />
    <path
       id="path224"
       transform="translate(64.1592 55.6963)"
       d="m0 0 2.042.375" />
    <path
       id="path226"
       transform="translate(56.8259 51.3213)"
       d="m0 0h-1.875" />
    <path
       id="path228"
       transform="translate(53.0134 59.3422)"
       d="m0 0-.938-1.833" />
    <path
       id="path230"
       transform="translate(53.0134 53.5713)"
       d="m0 0-1.375 1.25" />
    <path
       id="path232"
       transform="translate(62.2634 47.7588)"
       d="m0 0-1.5 1.188" />
    <path
       id="path234"
       transform="translate(57.686 48.0987)"
       d="m0 0-.83-1.778" />
    <path
       id="path236"
       transform="translate(69.4062 53.974)"
       d="m0 0-.83-1.778" />
    <path
       id="path238"
       transform="translate(52.8658 45.0407)"
       d="m0 0-1.767.628" />
    <path
       id="path240"
       transform="translate(57.2896 77.5955)"
       d="m0 0-1.348 1.303" />
    <path
       id="path242"
       transform="translate(56.7965 39.8631)"
       d="m0 0-1.016 1.621" />
    <path
       id="path244"
       transform="translate(64.7359 44.4156)"
       d="m0 0-1.234-1.525" />
    <path
       id="path246"
       transform="translate(60.3412 37.1678)"
       d="m0 0-1.872-.098" />
    <path
       id="path248"
       transform="translate(64.0024 33.3854)"
       d="m0 0-1.022 1.617" />
    <path
       id="path250"
       transform="translate(56.9424 36.0461)"
       d="m0 0-1.234-1.525" />
    <path
       id="path252"
       transform="translate(55.7518 26.3904)"
       d="m0 0-1.234-1.525" />
    <path
       id="path254"
       transform="translate(52.2518 32.8569)"
       d="m0 0-.477 1.813" />
    <path
       id="path256"
       transform="translate(61.4583 30.2708)"
       d="m0 0-1.56 1.107" />
    <path
       id="path258"
       transform="translate(22.2518 31.3904)"
       d="m0 0-1.56 1.107" />
    <path
       id="path260"
       transform="translate(61.1454 43.8954)"
       d="m0 0-1.872-.393" />
    <path
       id="path262"
       transform="translate(69.0829 41.0829)"
       d="m0 0-1.872-.393" />
    <path
       id="path264"
       transform="translate(54.8884 61.6963)"
       d="m0 0 1.937-.813" />
    <path
       id="path266"
       transform="translate(47.3259 57.0713)"
       d="m0 0 2.063-.438" />
    <path
       id="path268"
       transform="translate(61.7083 70.0208)"
       d="m0 0 2.063-.438" />
    <path
       id="path270"
       transform="translate(80.1182 40.1963)"
       d="m0 0-1.77-1.131" />
    <path
       id="path272"
       transform="translate(54.2083 75.5208)"
       d="m0 0-1.313-1.458" />
    <path
       id="path274"
       transform="translate(73.0342 29.0922)"
       d="m0 0-1.313-1.458" />
    <path
       id="path276"
       transform="translate(76.7634 30.7797)"
       d="m0 0h-1.875" />
    <path
       id="path278"
       transform="translate(71.7634 39.2172)"
       d="m0 0-.938-1.833" />
    <path
       id="path280"
       transform="translate(71.7634 33.4463)"
       d="m0 0-1.375 1.25" />
    <path
       id="path282"
       transform="translate(68.8768 21.3904)"
       d="m0 0-1.375 1.25" />
    <path
       id="path284"
       transform="translate(78.0625 27.567)"
       d="m0 0 1.33 1.375" />
    <path
       id="path286"
       transform="translate(73.6412 24.2931)"
       d="m0 0-.83-1.778" />
    <path
       id="path288"
       transform="translate(70.225 24.143)"
       d="m0 0-1.767.628" />
    <path
       id="path290"
       transform="translate(76.4423 17.4673)"
       d="m0 0-1.016 1.621" />
    <path
       id="path292"
       transform="translate(40.2518 21.3904)"
       d="m0 0-1.016 1.621" />
    <path
       id="path294"
       transform="translate(72.5059 19.8937)"
       d="m0 0-1.918-.411" />
    <path
       id="path296"
       transform="translate(65.2729 29.044)"
       d="m0 0-1.234-1.525" />
    <path
       id="path298"
       transform="translate(79.2787 16.0428)"
       d="m0 0-.949-1.617" />
    <path
       id="path300"
       transform="translate(67.1242 13.2389)"
       d="m0 0-1.872-.099" />
    <path
       id="path302"
       transform="translate(72.7083 15.6458)"
       d="m0 0-1.56 1.107" />
    <path
       id="path304"
       transform="translate(56.5018 13.1404)"
       d="m0 0-1.56 1.107" />
    <path
       id="path306"
       transform="translate(71.0018 12.8904)"
       d="m0 0-1.234-1.525" />
    <path
       id="path308"
       transform="translate(79.1532 20.6977)"
       d="m0 0-1.609 1.034" />
    <path
       id="path310"
       transform="translate(73.6384 41.5713)"
       d="m0 0 1.937-.813" />
    <path
       id="path312"
       transform="translate(66.0759 36.9463)"
       d="m0 0 2.063-.438" />
    <path
       id="path314"
       transform="translate(77.8442 53.3551)"
       d="m0 0 1.366-1.409" />
    <path
       id="path316"
       transform="translate(65.3759 60.3741)"
       d="m0 0 1.361 1.344" />
    <path
       id="path318"
       transform="translate(2.5759 39.6338)"
       d="m0 0 1.25-1.688" />
    <path
       id="path320"
       transform="translate(2.5134 35.4047)"
       d="m0 0-1.313-1.458" />
    <path
       id="path322"
       transform="translate(6.1592 36.1963)"
       d="m0 0 2.042.375" />
    <path
       id="path324"
       transform="translate(4.7518 26.8071)"
       d="m0 0-1.5 1.188" />
    <path
       id="path326"
       transform="translate(8.5594 34.0276)"
       d="m0 0-.83-1.778" />
    <path
       id="path328"
       transform="translate(38.0018 44.1404)"
       d="m0 0-.455 1.819" />
    <path
       id="path330"
       transform="translate(44.5018 38.8904)"
       d="m0 0-1.016 1.621" />
    <path
       id="path332"
       transform="translate(2.9583 46.5208)"
       d="m0 0-1.016 1.621" />
    <path
       id="path334"
       transform="translate(48.5942 43.5457)"
       d="m0 0 .879-1.754" />
    <path
       id="path336"
       transform="translate(48.8403 35.8866)"
       d="m0 0-1.589-.996" />
    <path
       id="path338"
       transform="translate(67.7968 48.267)"
       d="m0 0-1.589-.996" />
    <path
       id="path340"
       transform="translate(54.5015 37.7388)"
       d="m0 0-1.902.209" />
    <path
       id="path342"
       transform="translate(28.1049 21.1275)"
       d="m0 0-1.71-.857" />
    <path
       id="path344"
       transform="translate(1.301 61.4944)"
       d="m0 0 .879-1.754" />
    <path
       id="path346"
       transform="translate(7.2083 55.6875)"
       d="m0 0-1.902.209" />
    <path
       id="path348"
       transform="translate(4.7518 21.8904)"
       d="m0 0-1.234-1.525" />
    <path
       id="path350"
       transform="translate(2.3412 17.6678)"
       d="m0 0-1.872-.098" />
    <path
       id="path352"
       transform="translate(3.791 12.4204)"
       d="m0 0-1.56 1.107" />
    <path
       id="path354"
       transform="translate(3.2083 9.7708)"
       d="m0 0-1.234-1.525" />
    <path
       id="path356"
       transform="translate(3.7036 1.8853)"
       d="m0 0-1.234-1.525" />
    <path
       id="path358"
       transform="translate(1.9848 4.5191)"
       d="m0 0-1.872-.099" />
    <path
       id="path360"
       transform="translate(10.0252 .9204)"
       d="m0 0-1.56 1.107" />
    <path
       id="path362"
       transform="translate(3.1454 24.3954)"
       d="m0 0-1.872-.393" />
    <path
       id="path364"
       transform="translate(18.2083 34.2708)"
       d="m0 0-.83-1.778" />
    <path
       id="path366"
       transform="translate(13.2083 31.2708)"
       d="m0 0-1.767.628" />
    <path
       id="path368"
       transform="translate(62.5186 15.0126)"
       d="m0 0-1.767.628" />
    <path
       id="path370"
       transform="translate(32.5018 39.8904)"
       d="m0 0-1.767.628" />
    <path
       id="path372"
       transform="translate(19.1685 24.8071)"
       d="m0 0-1.016 1.621" />
    <path
       id="path374"
       transform="translate(23.4466 27.785)"
       d="m0 0-1.872-.393" />
    <path
       id="path376"
       transform="translate(18.887 49.0977)"
       d="m0 0-.135-1.957" />
    <path
       id="path378"
       transform="translate(12.5018 41.8904)"
       d="m0 0-1.874-.05" />
    <path
       id="path380"
       transform="translate(18.2393 38.1236)"
       d="m0 0-1.531 1.147" />
    <path
       id="path382"
       transform="translate(21.4697 44.716)"
       d="m0 0-1.606-1.04" />
    <path
       id="path384"
       transform="translate(25.2518 33.6404)"
       d="m0 0-1.606-1.04" />
    <path
       id="path386"
       transform="translate(35.4052 27.9982)"
       d="m0 0-.989-1.694" />
    <path
       id="path388"
       transform="translate(24.5018 41.8904)"
       d="m0 0-.989-1.694" />
    <path
       id="path390"
       transform="translate(29.7518 23.3904)"
       d="m0 0-1.702.786" />
    <path
       id="path392"
       transform="translate(33.652 19.6404)"
       d="m0 0-.864 1.707" />
    <path
       id="path394"
       transform="translate(58.8187 74.1738)"
       d="m0 0-.938-1.833" />
    <path
       id="path396"
       transform="translate(58.7083 65.7708)"
       d="m0 0-1.375 1.25" />
    <path
       id="path398"
       transform="translate(49.6458 70.2083)"
       d="m0 0 2.063-.437" />
    <path
       id="path400"
       transform="translate(21.3259 19.5088)"
       d="m0 0 1.25-1.688" />
    <path
       id="path402"
       transform="translate(38.3541 12.3125)"
       d="m0 0-1.313-1.458" />
    <path
       id="path404"
       transform="translate(33.5624 6.3958)"
       d="m0 0-1.313-1.458" />
    <path
       id="path406"
       transform="translate(24.9092 16.0713)"
       d="m0 0 2.042.375" />
    <path
       id="path408"
       transform="translate(7.5115 12.1934)"
       d="m0 0 1.343 1.582" />
    <path
       id="path410"
       transform="translate(17.5759 11.6963)"
       d="m0 0h-1.875" />
    <path
       id="path412"
       transform="translate(12.5018 20.8904)"
       d="m0 0-.938-1.833" />
    <path
       id="path414"
       transform="translate(13.7634 13.9463)"
       d="m0 0-1.375 1.25" />
    <path
       id="path416"
       transform="translate(25.9583 6.0208)"
       d="m0 0-1.5 1.188" />
    <path
       id="path418"
       transform="translate(19.2663 10.2514)"
       d="m0 0-.83-1.778" />
    <path
       id="path420"
       transform="translate(31.0386 14.0485)"
       d="m0 0-.83-1.778" />
    <path
       id="path422"
       transform="translate(12.1372 7.0557)"
       d="m0 0-1.419-1.225" />
    <path
       id="path424"
       transform="translate(17.5465 .2381)"
       d="m0 0-1.016 1.621" />
    <path
       id="path426"
       transform="translate(25.2083 1.8541)"
       d="m0 0-1.234-1.525" />
    <path
       id="path428"
       transform="translate(21.9163 4.9163)"
       d="m0 0-1.873-.393" />
    <path
       id="path430"
       transform="translate(15.6384 22.0713)"
       d="m0 0 1.938-.813" />
    <path
       id="path432"
       transform="translate(8.0133 18.1963)"
       d="m0 0 2.063-.438" />
    <path
       id="path434"
       transform="translate(79.0208 79.1458)"
       d="m0 0 1.25-1.688" />
    <path
       id="path436"
       transform="translate(80.2916 73.7083)"
       d="m0 0-1.313-1.458" />
    <path
       id="path438"
       transform="translate(71.9583 69.0416)"
       d="m0 0-1.313-1.458" />
    <path
       id="path440"
       transform="translate(75.8333 70.8958)"
       d="m0 0h-1.875" />
    <path
       id="path442"
       transform="translate(71.4539 79.4836)"
       d="m0 0-.938-1.833" />
    <path
       id="path444"
       transform="translate(72.0208 73.1458)"
       d="m0 0-1.375 1.25" />
    <path
       id="path446"
       transform="translate(80.1458 68.3958)"
       d="m0 0-1.5 1.188" />
    <path
       id="path448"
       transform="translate(76.6934 67.6732)"
       d="m0 0-.83-1.778" />
    <path
       id="path450"
       transform="translate(71.8732 64.6152)"
       d="m0 0-1.767.628" />
    <path
       id="path452"
       transform="translate(75.804 59.4376)"
       d="m0 0-1.016 1.621" />
    <path
       id="path454"
       transform="translate(79.3486 56.7423)"
       d="m0 0-1.872-.098" />
    <path
       id="path456"
       transform="translate(74.9678 54.4519)"
       d="m0 0-1.234-1.525" />
    <path
       id="path458"
       transform="translate(73.9859 46.9157)"
       d="m0 0-1.234-1.525" />
    <path
       id="path460"
       transform="translate(71.4736 50.6798)"
       d="m0 0-1.872-.099" />
    <path
       id="path462"
       transform="translate(75.5304 48.5149)"
       d="m0 0-1.56 1.107" />
    <path
       id="path464"
       transform="translate(79.4237 63.0949)"
       d="m0 0-1.872-.392" />
    <path
       id="path466"
       transform="translate(74.5833 78.7285)"
       d="m0 0 1.938-.813" />
    <path
       id="path468"
       transform="translate(66.3333 76.6458)"
       d="m0 0 2.063-.438" />
    <path
       id="path470"
       transform="translate(78.7779 44.0116)"
       d="m0 0-1.872-.393" />
    <path
       id="path472"
       transform="translate(41.9487 78.9648)"
       d="m0 0 1.25-1.688" />
    <path
       id="path474"
       transform="translate(42.2518 74.1404)"
       d="m0 0-1.313-1.458" />
    <path
       id="path476"
       transform="translate(34.3237 69.2981)"
       d="m0 0-1.313-1.458" />
    <path
       id="path478"
       transform="translate(45.5321 75.5273)"
       d="m0 0 2.042.375" />
    <path
       id="path480"
       transform="translate(38.1987 71.1523)"
       d="m0 0h-1.875" />
    <path
       id="path482"
       transform="translate(30.8237 79.5689)"
       d="m0 0 .612-1.966" />
    <path
       id="path484"
       transform="translate(34.3862 73.4023)"
       d="m0 0-1.375 1.25" />
    <path
       id="path486"
       transform="translate(46.5018 64.8904)"
       d="m0 0-1.5 1.188" />
    <path
       id="path488"
       transform="translate(39.8891 69.7073)"
       d="m0 0-.83-1.778" />
    <path
       id="path490"
       transform="translate(47.5018 72.6404)"
       d="m0 0-.83-1.778" />
    <path
       id="path492"
       transform="translate(34.2387 64.8716)"
       d="m0 0-1.767.628" />
    <path
       id="path494"
       transform="translate(45.2083 60.7708)"
       d="m0 0-1.234-1.525" />
    <path
       id="path496"
       transform="translate(38.1051 53.5588)"
       d="m0 0-1.726.733" />
    <path
       id="path498"
       transform="translate(44.6242 49.605)"
       d="m0 0-1.872-.098" />
    <path
       id="path500"
       transform="translate(42.5183 63.7264)"
       d="m0 0-1.872-.392" />
    <path
       id="path502"
       transform="translate(26.5416 77.1875)"
       d="m0 0 1.938-.813" />
    <path
       id="path504"
       transform="translate(71.8486 61.4298)"
       d="m0 0-1.872-.099" />
    <path
       id="path506"
       transform="translate(66.8407 65.8453)"
       d="m0 0-1.56 1.107" />
    <path
       id="path508"
       transform="translate(37.738 64.5405)"
       d="m0 0 .283-1.999-1.915.639" />
    <path
       id="path510"
       transform="translate(23.631 65.4743)"
       d="m0 0 1.015-1.745-2.015-.13" />
    <path
       id="path512"
       transform="translate(57.6064 57.8493)"
       d="m0 0 1.015-1.745-2.015-.13" />
    <path
       id="path514"
       transform="translate(15.5894 5.8285)"
       d="m0 0 1.015-1.745-2.015-.13" />
    <path
       id="path516"
       transform="translate(69.0685 45.2868)"
       d="m0 0 1.015-1.745-2.015-.13" />
    <path
       id="path518"
       transform="translate(44.5685 18.7868)"
       d="m0 0 1.015-1.745-2.015-.13" />
    <path
       id="path520"
       transform="translate(21.3183 76.9335)"
       d="m0 0-.628 1.918 1.997-.293" />
    <path
       id="path522"
       transform="translate(29.5182 71.5435)"
       d="m0 0 1.753-1.002-1.679-1.122" />
    <path
       id="path524"
       transform="translate(54.9257 71.207)"
       d="m0 0 1.753-1.002-1.679-1.122" />
    <path
       id="path526"
       transform="translate(17.0947 43.9837)"
       d="m0 0 .239-2.005-1.901.681" />
    <path
       id="path528"
       transform="translate(70.9451 57.9793)"
       d="m0 0 .239-2.004-1.901.68" />
    <path
       id="path530"
       transform="translate(42.5947 6.497)"
       d="m0 0 .239-2.005-1.901.681" />
    <path
       id="path532"
       transform="translate(62.7632 40.8949)"
       d="m0 0 .239-2.005-1.901.681" />
    <path
       id="path534"
       transform="translate(63.5947 52.0462)"
       d="m0 0 .239-2.005-1.901.681" />
    <path
       id="path536"
       transform="translate(48.7632 51.6449)"
       d="m0 0 .239-2.005-1.901.681" />
    <path
       id="path538"
       transform="translate(3.7586 41.1548)"
       d="m0 0-1.843.824 1.56 1.282" />
    <path
       id="path540"
       transform="translate(17.0008 72.1259)"
       d="m0 0-1.167-1.647-.954 1.78" />
    <path
       id="path542"
       transform="translate(31.4336 56.8133)"
       d="m0 0-1.975.416 1.253 1.582" />
    <path
       id="path544"
       transform="translate(36.2238 49.6053)"
       d="m0 0 1.109 1.686 1.015-1.745" />
    <path
       id="path546"
       transform="translate(29.9637 35.122)"
       d="m0 0 .057-2.018-1.831.849" />
    <path
       id="path548"
       transform="translate(50.5262 79.3095)"
       d="m0 0 .057-2.018-1.831.849" />
    <path
       id="path550"
       transform="translate(69.2762 5.0595)"
       d="m0 0 .057-2.018-1.831.849" />
    <path
       id="path552"
       transform="translate(16.4874 56.3282)"
       d="m0 0 1.658 1.151.291-1.998" />
    <path
       id="path554"
       transform="translate(9.1391 51.3892)"
       d="m0 0 1.694-1.098-1.738-1.027" />
    <path
       id="path556"
       transform="translate(29.5766 18.3267)"
       d="m0 0 1.694-1.098-1.738-1.027" />
    <path
       id="path558"
       transform="translate(24.5517 50.7185)"
       d="m0 0-1.593-1.239-.399 1.978" />
    <path
       id="path560"
       transform="translate(76.8333 64.5417)"
       d="m0 0-1.593-1.239-.399 1.979" />
    <path
       id="path562"
       transform="translate(51.0517 39.2601)"
       d="m0 0-1.593-1.239-.399 1.979" />
    <path
       id="path564"
       transform="translate(44.5018 70.3904)"
       d="m0 0-1.593-1.239-.399 1.979" />
    <path
       id="path566"
       transform="translate(2.6181 32.6829)"
       d="m0 0-.097-2.016-1.762.986" />
    <path
       id="path568"
       transform="translate(49.3491 26.1566)"
       d="m0 0-.097-2.016-1.762.986" />
    <path
       id="path570"
       transform="translate(9.0208 22.5626)"
       d="m0 0-1.958.49 1.311 1.534" />
    <path
       id="path572"
       transform="translate(57.7518 3.3904)"
       d="m0 0-1.958.49 1.311 1.534" />
    <path
       id="path574"
       transform="translate(17.4342 16.1198)"
       d="m0 0-1.726 1.047 1.707 1.078" />
    <path
       id="path576"
       transform="translate(75.9777 11.5936)"
       d="m0 0-1.726 1.047 1.707 1.078" />
    <path
       id="path578"
       transform="translate(57.3092 29.4948)"
       d="m0 0-1.726 1.047 1.707 1.078" />
    <path
       id="path580"
       transform="translate(21.8333 23.9724)"
       d="m0 0 1.987.355-.568-1.937" />
    <path
       id="path582"
       transform="translate(79.2626 47.5276)"
       d="m0 0-1.177 1.64 1.992.322" />
    <path
       id="path584"
       transform="translate(4.2744 18.4221)"
       d="m0 0 .996-1.755-2.015-.109" />
    <path
       id="path586"
       transform="translate(78.5398 24.098)"
       d="m0 0-1.998-.286.636 1.916" />
    <path
       id="path588"
       transform="translate(38.0633 37.0141)"
       d="m0 0 1.524 1.323.505-1.955" />
    <path
       id="path590"
       transform="translate(65.992 16.4231)"
       d="m0 0 1.524 1.323.505-1.954" />
    <path
       id="path592"
       transform="translate(55.1214 43.2186)"
       d="m0 0 1.524 1.323.505-1.955" />
    <path
       id="path594"
       transform="translate(42.5833 56.2917)"
       d="m0 0 1.524 1.323.505-1.955" />
    <path
       id="path596"
       transform="translate(35.288 76.4478)"
       d="m0 0 1.524 1.323.505-1.955" />
    <path
       id="path598"
       transform="translate(21.2132 36.2912)"
       d="m0 0 .535 1.946 1.504-1.347" />
    <path
       id="path600"
       transform="translate(61.2947 62.5466)"
       d="m0 0 .535 1.946 1.504-1.347" />
    <path
       id="path602"
       transform="translate(33.2132 8.2911)"
       d="m0 0 .535 1.946 1.504-1.347" />
    <path
       id="path604"
       transform="translate(41.7555 42.8282)"
       d="m0 0 1.39 1.464.69-1.898" />
    <path
       id="path606"
       transform="translate(9.4659 39.3209)"
       d="m0 0 1.93-.592-1.39-1.463" />
    <path
       id="path608"
       transform="translate(61.4034 78.8834)"
       d="m0 0 1.93-.592-1.39-1.463" />
    <path
       id="path610"
       transform="translate(76.7202 74.0106)"
       d="m0 0-1.878-.74.175 2.011" />
    <path
       id="path612"
       transform="translate(48.4034 11.3834)"
       d="m0 0 1.93-.592-1.39-1.463" />
    <path
       id="path614"
       transform="translate(23.3409 11.5709)"
       d="m0 0 1.93-.592-1.39-1.463" />
    <path
       id="path616"
       transform="translate(75.7784 2.7792)"
       d="m0 0 1.93-.592-1.39-1.463" />
    <path
       id="path618"
       transform="translate(3.3069 71.6549)"
       d="m0 0 .776-1.863-2.014.136" />
    <path
       id="path620"
       transform="translate(8.5649 64.0165)"
       d="m0 0 2.018.025-.877-1.818" />
    <path
       id="path622"
       transform="translate(1.5649 58.0165)"
       d="m0 0 2.018.025-.877-1.818" />
    <path
       id="path624"
       transform="translate(17.0836 30.8771)"
       d="m0 0 .687-1.898-2.005.231" />
    <path
       id="path626"
       transform="translate(68.3961 31.9396)"
       d="m0 0 .687-1.898-2.005.231" />
    <path
       id="path628"
       transform="translate(63.6461 25.1688)"
       d="m0 0 .687-1.898-2.005.231" />
    <path
       id="path630"
       transform="translate(36.6601 22.5992)"
       d="m0 0-2.014.13 1.014 1.745" />
    <path
       id="path632"
       transform="translate(29.9374 2.7917)"
       d="m0 0-2.014.13 1.014 1.745" />
    <path
       id="path634"
       transform="translate(57.3476 17.1617)"
       d="m0 0-2.014.13 1.014 1.745" />
    <path
       id="path636"
       transform="translate(6.5687 4.1738)"
       d="m0 0-2.014.13 1.014 1.745" />
    <path
       id="path638"
       transform="translate(30.9706 43.388)"
       d="m0 0-2.012-.159.755 1.872" />
    <path
       id="path640"
       transform="translate(68.9671 69.7917)"
       d="m0 0-2.012-.159.755 1.872" />
    <path
       id="path642"
       transform="translate(50.0018 61.1404)"
       d="m0 0-2.012-.159.755 1.872" />
    <path
       id="path644"
       transform="translate(12.7831 9.5755)"
       d="m0 0-2.012-.159.755 1.872" />
    <path
       id="path646"
       transform="translate(77.0833 36.5417)"
       d="m0 0-2.012-.159.755 1.872" />
    <path
       id="path648"
       transform="translate(65.2506 10.0082)"
       d="m0 0-2.012-.159.755 1.872" />
    <path
       id="path650"
       transform="translate(42.7894 31.1128)"
       d="m0 0 1.962-.472-1.298-1.546" />
    <path
       id="path652"
       transform="translate(11.2324 78.0852)"
       d="m0 0 .805 1.851 1.298-1.546" />
  </g>
</svg>
