<?xml version="1.0" encoding="UTF-8" standalone="no"?>
<svg
   xmlns:dc="http://purl.org/dc/elements/1.1/"
   xmlns:cc="http://creativecommons.org/ns#"
   xmlns:rdf="http://www.w3.org/1999/02/22-rdf-syntax-ns#"
   xmlns:svg="http://www.w3.org/2000/svg"
   xmlns="http://www.w3.org/2000/svg"
   height="54.125"
   width="54.125"
   id="svg434"
   version="1.1">
  <defs
     id="defs438" />
  <metadata
     id="metadata2">citation: U.S. Geological Survey, 2006, FGDC Digital Cartographic Standard for Geologic Map Symbolization (PostScript Implementation): U.S. Geological Survey Techniques and Methods 11-A2 [pubs.usgs.gov/tm/2006/11A02/]. converted by CEC Geology LLC 2018 from the USGS lithologic gs converted to inkscape by the University of Otago.<rdf:RDF>
  <cc:Work
     rdf:about="">
    <dc:format>image/svg+xml</dc:format>
    <dc:type
       rdf:resource="http://purl.org/dc/dcmitype/StillImage" />
    <dc:title></dc:title>
  </cc:Work>
</rdf:RDF>
</metadata>
  <g
     stroke-width=".3"
     stroke="#231f20"
     fill="none"

     id="g432"
     width="54.125"
     height="54.125">
    <path
       id="path4"
       transform="translate(27.4746,50.375)"
       d="M 0,0 H -8.8" />
    <path
       id="path6"
       transform="translate(12.5996,50.375)"
       d="M 0,0 H 6.075" />
    <path
       id="path8"
       transform="translate(53.9248,50.375)"
       d="M 0,0 H 0.2" />
    <path
       id="path10"
       transform="translate(0,50.375)"
       d="M 0,0 H 5.925" />
    <path
       id="path12"
       transform="translate(12.5996,50.375)"
       d="M 0,0 H -6.675" />
    <path
       id="path14"
       transform="translate(53.9248,50.375)"
       d="M 0,0 H -7.375" />
    <path
       id="path16"
       transform="translate(32.1748,50.375)"
       d="M 0,0 H 8.925" />
    <path
       id="path18"
       transform="translate(46.5498,50.375)"
       d="M 0,0 H -5.45" />
    <path
       id="path20"
       transform="translate(32.1748,50.375)"
       d="M 0,0 H -4.7" />
    <path
       id="path22"
       transform="translate(54.125,46.2002)"
       d="M 0,0 H -54.125" />
    <path
       id="path24"
       transform="translate(0,42.0127)"
       d="M 0,0 H 11.912" />
    <path
       id="path26"
       transform="translate(53.4121,42.0127)"
       d="M 0,0 H 0.713" />
    <path
       id="path28"
       transform="translate(26.7871,42.0127)"
       d="M 0,0 H -14.875" />
    <path
       id="path30"
       transform="translate(26.7871,42.0127)"
       d="M 0,0 H 13.375" />
    <path
       id="path32"
       transform="translate(40.1621,42.0127)"
       d="M 0,0 H 13.25" />
    <path
       id="path34"
       transform="translate(33.7578,12.4004)"
       d="M 0,0 H 14.875" />
    <path
       id="path36"
       transform="translate(20.1328,12.4004)"
       d="M 0,0 H 13.625" />
    <path
       id="path38"
       transform="translate(6.8828,12.4004)"
       d="M 0,0 H -6.883" />
    <path
       id="path40"
       transform="translate(6.8828,12.4004)"
       d="M 0,0 H 13.25" />
    <path
       id="path42"
       transform="translate(48.6328,12.4004)"
       d="M 0,0 H 5.492" />
    <path
       id="path44"
       transform="translate(26.4082,8.625)"
       d="M 0,0 H 13.875" />
    <path
       id="path46"
       transform="translate(40.2832,8.625)"
       d="M 0,0 H 13.45" />
    <path
       id="path48"
       transform="translate(26.4082,8.625)"
       d="M 0,0 H -14.55" />
    <path
       id="path50"
       transform="translate(11.8584,8.625)"
       d="M 0,0 H -11.858" />
    <path
       id="path52"
       transform="translate(53.7334,8.625)"
       d="M 0,0 H 0.392" />
    <path
       id="path54"
       transform="translate(46.5498,37.9941)"
       d="M 0,0 H 7.575" />
    <path
       id="path56"
       transform="translate(46.5498,37.9941)"
       d="M 0,0 H -14.625" />
    <path
       id="path58"
       transform="translate(18.6748,37.9941)"
       d="M 0,0 H 13.25" />
    <path
       id="path60"
       transform="translate(5.9248,37.9941)"
       d="M 0,0 H -5.925" />
    <path
       id="path62"
       transform="translate(18.6748,37.9941)"
       d="M 0,0 H -12.75" />
    <path
       id="path64"
       transform="translate(12.4746,34.7129)"
       d="M 0,0 H -12.475" />
    <path
       id="path66"
       transform="translate(53.9746,34.7129)"
       d="M 0,0 H 0.15" />
    <path
       id="path68"
       transform="translate(27.4746,34.7129)"
       d="M 0,0 H -15" />
    <path
       id="path70"
       transform="translate(41.2246,34.7129)"
       d="M 0,0 H 12.75" />
    <path
       id="path72"
       transform="translate(41.2246,34.7129)"
       d="M 0,0 H -13.75" />
    <path
       id="path74"
       transform="translate(54.125,31.2871)"
       d="M 0,0 H -5.463" />
    <path
       id="path76"
       transform="translate(20.1621,31.2871)"
       d="M 0,0 H -13.5" />
    <path
       id="path78"
       transform="translate(33.7871,31.2871)"
       d="M 0,0 H -13.625" />
    <path
       id="path80"
       transform="translate(48.6621,31.2871)"
       d="M 0,0 H -14.875" />
    <path
       id="path82"
       transform="translate(6.6621,31.2871)"
       d="M 0,0 H -6.662" />
    <path
       id="path84"
       transform="translate(0,27.2373)"
       d="M 0,0 H 54.125" />
    <path
       id="path86"
       transform="translate(0,23.4375)"
       d="M 0,0 H 54.125" />
    <path
       id="path88"
       transform="translate(0,19.2373)"
       d="M 0,0 H 54.125" />
    <path
       id="path90"
       transform="translate(0,16.0127)"
       d="M 0,0 H 54.125" />
    <path
       id="path92"
       transform="translate(0,0.8379)"
       d="M 0,0 H 5.925" />
    <path
       id="path94"
       transform="translate(5.9248,0.8379)"
       d="M 0,0 H 4.371" />
    <path
       id="path96"
       transform="translate(54.125,0.8379)"
       d="M 0,0 H -2.392" />
    <path
       id="path98"
       transform="translate(38.3584,0.8379)"
       d="M 0,0 H 8.191" />
    <path
       id="path100"
       transform="translate(18.6748,0.8379)"
       d="M 0,0 H -8.379" />
    <path
       id="path102"
       transform="translate(46.5498,0.8379)"
       d="M 0,0 H 5.184" />
    <path
       id="path104"
       transform="translate(38.3584,0.8379)"
       d="M 0,0 H -6.184" />
    <path
       id="path106"
       transform="translate(24.7334,0.8379)"
       d="M 0,0 H 7.441" />
    <path
       id="path108"
       transform="translate(18.6748,0.8379)"
       d="M 0,0 H 6.059" />
    <path
       id="path110"
       transform="translate(5.9248,54.125)"
       d="M 0,0 V -3.75" />
    <path
       id="path112"
       transform="translate(18.6748,54.125)"
       d="M 0,0 V -3.75" />
    <path
       id="path114"
       transform="translate(32.1748,50.375)"
       d="M 0,0 V 3.75" />
    <path
       id="path116"
       transform="translate(46.5498,54.125)"
       d="M 0,0 V -3.75" />
    <path
       id="path118"
       transform="translate(5.9248,0.8506)"
       d="M 0,0 V -0.013" />
    <path
       id="path120"
       transform="translate(5.9248)"
       d="M 0,0 V 0.838" />
    <path
       id="path122"
       transform="translate(18.6748,0.8379)"
       d="M 0,0 V 0.013" />
    <path
       id="path124"
       transform="translate(18.6748,0.8379)"
       d="M 0,0 V -0.838" />
    <path
       id="path126"
       transform="translate(32.1748,0.8506)"
       d="M 0,0 V -0.013" />
    <path
       id="path128"
       transform="translate(32.1748)"
       d="M 0,0 V 0.838" />
    <path
       id="path130"
       transform="translate(46.5498,0.8506)"
       d="M 0,0 V -0.013" />
    <path
       id="path132"
       transform="translate(46.5498)"
       d="M 0,0 V 0.838" />
    <path
       id="path134"
       transform="translate(12.5996,50.375)"
       d="M 0,0 V -4.162" />
    <path
       id="path136"
       transform="translate(12.5996,50.375)"
       d="M 0,0 V 0.063" />
    <path
       id="path138"
       transform="translate(27.4746,50.4375)"
       d="M 0,0 V -0.063" />
    <path
       id="path140"
       transform="translate(27.4746,50.375)"
       d="M 0,0 V -4.162" />
    <path
       id="path142"
       transform="translate(41.0996,46.2129)"
       d="M 0,0 V 4.162" />
    <path
       id="path144"
       transform="translate(41.0996,50.4375)"
       d="M 0,0 V -0.063" />
    <path
       id="path146"
       transform="translate(53.9248,50.375)"
       d="M 0,0 V 0.063" />
    <path
       id="path148"
       transform="translate(53.9248,50.375)"
       d="M 0,0 V -4.162" />
    <path
       id="path150"
       transform="translate(7.0371,42.0254)"
       d="M 0,0 V 4.05" />
    <path
       id="path152"
       transform="translate(20.2871,42.0254)"
       d="M 0,0 V 4.05" />
    <path
       id="path154"
       transform="translate(33.8496,42.0254)"
       d="M 0,0 V 4.05" />
    <path
       id="path156"
       transform="translate(48.7871,42.0254)"
       d="M 0,0 V 4.05" />
    <path
       id="path158"
       transform="translate(40.1621,42.0127)"
       d="M 0,0 V 0.013" />
    <path
       id="path160"
       transform="translate(40.1621,38.0254)"
       d="M 0,0 V 3.987" />
    <path
       id="path162"
       transform="translate(26.7871,42.0127)"
       d="M 0,0 V 0.013" />
    <path
       id="path164"
       transform="translate(26.7871,42.0127)"
       d="M 0,0 V -3.987" />
    <path
       id="path166"
       transform="translate(11.9121,38.0254)"
       d="M 0,0 V 3.987" />
    <path
       id="path168"
       transform="translate(11.9121,42.0127)"
       d="M 0,0 V 0.013" />
    <path
       id="path170"
       transform="translate(53.4121,42.0127)"
       d="M 0,0 V 0.013" />
    <path
       id="path172"
       transform="translate(53.4121,38.0254)"
       d="M 0,0 V 3.987" />
    <path
       id="path174"
       transform="translate(46.5498,37.9941)"
       d="M 0,0 V -3.27" />
    <path
       id="path176"
       transform="translate(46.5498,37.9941)"
       d="M 0,0 V 0.031" />
    <path
       id="path178"
       transform="translate(31.9248,37.9941)"
       d="M 0,0 V 0.031" />
    <path
       id="path180"
       transform="translate(31.9248,37.9941)"
       d="M 0,0 V -3.27" />
    <path
       id="path182"
       transform="translate(18.6748,37.9941)"
       d="M 0,0 V -3.27" />
    <path
       id="path184"
       transform="translate(18.6748,37.9941)"
       d="M 0,0 V 0.031" />
    <path
       id="path186"
       transform="translate(5.9248,37.9941)"
       d="M 0,0 V -3.27" />
    <path
       id="path188"
       transform="translate(5.9248,37.9941)"
       d="M 0,0 V 0.031" />
    <path
       id="path190"
       transform="translate(12.4746,34.7129)"
       d="M 0,0 V -3.413" />
    <path
       id="path192"
       transform="translate(12.4746,34.7129)"
       d="M 0,0 V 0.012" />
    <path
       id="path194"
       transform="translate(27.4746,34.7129)"
       d="M 0,0 V -3.413" />
    <path
       id="path196"
       transform="translate(27.4746,34.7246)"
       d="M 0,0 V -0.012" />
    <path
       id="path198"
       transform="translate(41.2246,34.7129)"
       d="M 0,0 V 0.012" />
    <path
       id="path200"
       transform="translate(41.2246,34.7129)"
       d="M 0,0 V -3.413" />
    <path
       id="path202"
       transform="translate(53.9746,34.7129)"
       d="M 0,0 V 0.012" />
    <path
       id="path204"
       transform="translate(53.9746,34.7129)"
       d="M 0,0 V -3.413" />
    <path
       id="path206"
       transform="translate(6.6621,31.2871)"
       d="M 0,0 V -4.037" />
    <path
       id="path208"
       transform="translate(6.6621,31.2998)"
       d="M 0,0 V -0.013" />
    <path
       id="path210"
       transform="translate(20.1621,31.2871)"
       d="M 0,0 V -4.037" />
    <path
       id="path212"
       transform="translate(20.1621,31.2998)"
       d="M 0,0 V -0.013" />
    <path
       id="path214"
       transform="translate(33.7871,31.2998)"
       d="M 0,0 V -0.013" />
    <path
       id="path216"
       transform="translate(33.7871,31.2871)"
       d="M 0,0 V -4.037" />
    <path
       id="path218"
       transform="translate(48.6621,31.2998)"
       d="M 0,0 V -0.013" />
    <path
       id="path220"
       transform="translate(48.6621,31.2871)"
       d="M 0,0 V -4.037" />
    <path
       id="path222"
       transform="translate(40.0371,27.1875)"
       d="M 0,0 V -3.737" />
    <path
       id="path224"
       transform="translate(26.7129,27.1875)"
       d="M 0,0 V -3.737" />
    <path
       id="path226"
       transform="translate(11.7129,27.1875)"
       d="M 0,0 V -3.737" />
    <path
       id="path228"
       transform="translate(53.2666,23.4502)"
       d="M 0,0 V 3.737" />
    <path
       id="path230"
       transform="translate(5.5254,23.3877)"
       d="M 0,0 V -4.138" />
    <path
       id="path232"
       transform="translate(18.5254,23.3877)"
       d="M 0,0 V -4.138" />
    <path
       id="path234"
       transform="translate(32.1504,23.3877)"
       d="M 0,0 V -4.138" />
    <path
       id="path236"
       transform="translate(46.4004,23.3877)"
       d="M 0,0 V -4.138" />
    <path
       id="path238"
       transform="translate(42.2002,19.1875)"
       d="M 0,0 V -3.162" />
    <path
       id="path240"
       transform="translate(28.0498,19.1875)"
       d="M 0,0 V -3.162" />
    <path
       id="path242"
       transform="translate(12.9248,19.1875)"
       d="M 0,0 V -3.162" />
    <path
       id="path244"
       transform="translate(0.5078,19.1875)"
       d="M 0,0 V -3.162" />
    <path
       id="path246"
       transform="translate(6.8828,12.4004)"
       d="M 0,0 V 3.563" />
    <path
       id="path248"
       transform="translate(20.1328,12.4004)"
       d="M 0,0 V 3.563" />
    <path
       id="path250"
       transform="translate(33.7578,12.4004)"
       d="M 0,0 V 3.563" />
    <path
       id="path252"
       transform="translate(48.6328,12.4004)"
       d="M 0,0 V 3.563" />
    <path
       id="path254"
       transform="translate(40.2832,8.625)"
       d="M 0,0 V 3.725" />
    <path
       id="path256"
       transform="translate(40.2832,8.625)"
       d="M 0,0 V -0.037" />
    <path
       id="path258"
       transform="translate(26.4082,8.625)"
       d="M 0,0 V 3.725" />
    <path
       id="path260"
       transform="translate(26.4082,8.625)"
       d="M 0,0 V -0.037" />
    <path
       id="path262"
       transform="translate(11.8584,8.625)"
       d="M 0,0 V -0.037" />
    <path
       id="path264"
       transform="translate(11.8584,12.3496)"
       d="M 0,0 V -3.725" />
    <path
       id="path266"
       transform="translate(53.7334,8.625)"
       d="M 0,0 V -0.037" />
    <path
       id="path268"
       transform="translate(53.7334,8.625)"
       d="M 0,0 V 3.725" />
    <path
       id="path270"
       transform="translate(54.125,4.2129)"
       d="M 0,0 H -2.392" />
    <path
       id="path272"
       transform="translate(38.3584,4.2129)"
       d="M 0,0 H -13.625" />
    <path
       id="path274"
       transform="translate(38.3584,4.2129)"
       d="M 0,0 H 13.375" />
    <path
       id="path276"
       transform="translate(24.7334,4.2129)"
       d="M 0,0 H -14.438" />
    <path
       id="path278"
       transform="translate(0,4.2129)"
       d="M 0,0 H 10.296" />
    <path
       id="path280"
       transform="translate(10.2959,4.2129)"
       d="M 0,0 V -3.375" />
    <path
       id="path282"
       transform="translate(10.2959,0.7754)"
       d="M 0,0 V 0.063" />
    <path
       id="path284"
       transform="translate(10.2959,4.2373)"
       d="M 0,0 V -0.024" />
    <path
       id="path286"
       transform="translate(24.7334,4.2129)"
       d="M 0,0 V 0.024" />
    <path
       id="path288"
       transform="translate(24.7334,4.2129)"
       d="M 0,0 V -3.375" />
    <path
       id="path290"
       transform="translate(24.7334,0.7754)"
       d="M 0,0 V 0.063" />
    <path
       id="path292"
       transform="translate(38.3584,4.2129)"
       d="M 0,0 V 0.024" />
    <path
       id="path294"
       transform="translate(38.3584,0.8379)"
       d="M 0,0 V 3.375" />
    <path
       id="path296"
       transform="translate(38.3584,0.8379)"
       d="M 0,0 V -0.063" />
    <path
       id="path298"
       transform="translate(51.7334,4.2373)"
       d="M 0,0 V -0.024" />
    <path
       id="path300"
       transform="translate(51.7334,4.2129)"
       d="M 0,0 V -3.375" />
    <path
       id="path302"
       transform="translate(51.7334,0.7754)"
       d="M 0,0 V 0.063" />
    <path
       id="path304"
       transform="translate(4.5703,8.5879)"
       d="M 0,0 V -4.351" />
    <path
       id="path306"
       transform="translate(17.5703,8.5879)"
       d="M 0,0 V -4.351" />
    <path
       id="path308"
       transform="translate(31.5703,8.5879)"
       d="M 0,0 V -4.351" />
    <path
       id="path310"
       transform="translate(46.1328,8.5879)"
       d="M 0,0 V -4.351" />
    <path
       id="path312"
       transform="translate(0,51.5566)"
       d="M 0,0 C 0.361,0.136 0.618,0.484 0.618,0.894 0.618,1.303 0.361,1.651 0,1.788" />
    <path
       id="path314"
       transform="translate(13.2929,52.4502)"
       d="m 0,0 c 0,0.527 -0.427,0.955 -0.954,0.955 -0.527,0 -0.955,-0.428 -0.955,-0.955 0,-0.527 0.428,-0.954 0.955,-0.954 C -0.427,-0.954 0,-0.527 0,0 Z" />
    <path
       id="path316"
       transform="translate(26.4179,52.4502)"
       d="m 0,0 c 0,0.527 -0.427,0.955 -0.954,0.955 -0.527,0 -0.955,-0.428 -0.955,-0.955 0,-0.527 0.428,-0.954 0.955,-0.954 C -0.427,-0.954 0,-0.527 0,0 Z" />
    <path
       id="path318"
       transform="translate(38.7588,52.4502)"
       d="m 0,0 c 0,-0.527 0.428,-0.954 0.955,-0.954 0.527,0 0.954,0.427 0.954,0.954 0,0.527 -0.427,0.955 -0.954,0.955 C 0.428,0.955 0,0.527 0,0 Z" />
    <path
       id="path320"
       transform="translate(5.1338,48.2754)"
       d="m 0,0 c 0,-0.527 0.428,-0.955 0.955,-0.955 0.527,0 0.954,0.428 0.954,0.955 0,0.527 -0.427,0.954 -0.954,0.954 C 0.428,0.954 0,0.527 0,0 Z" />
    <path
       id="path322"
       transform="translate(19.5088,48.2754)"
       d="m 0,0 c 0,-0.527 0.428,-0.955 0.955,-0.955 0.527,0 0.954,0.428 0.954,0.955 0,0.527 -0.427,0.954 -0.954,0.954 C 0.428,0.954 0,0.527 0,0 Z" />
    <path
       id="path324"
       transform="translate(33.2588,48.2754)"
       d="m 0,0 c 0,-0.527 0.428,-0.955 0.955,-0.955 0.527,0 0.954,0.428 0.954,0.955 0,0.527 -0.427,0.954 -0.954,0.954 C 0.428,0.954 0,0.527 0,0 Z" />
    <path
       id="path326"
       transform="translate(48.7929,48.2754)"
       d="m 0,0 c 0,0.527 -0.427,0.954 -0.954,0.954 -0.527,0 -0.955,-0.427 -0.955,-0.954 0,-0.527 0.428,-0.955 0.955,-0.955 C -0.427,-0.955 0,-0.527 0,0 Z" />
    <path
       id="path328"
       transform="translate(2.1933,44.0752)"
       d="m 0,0 c 0,0.527 -0.428,0.955 -0.954,0.955 -0.527,0 -0.955,-0.428 -0.955,-0.955 0,-0.527 0.428,-0.954 0.955,-0.954 C -0.428,-0.954 0,-0.527 0,0 Z" />
    <path
       id="path330"
       transform="translate(14.5429,44.0752)"
       d="m 0,0 c 0,0.527 -0.427,0.955 -0.954,0.955 -0.527,0 -0.955,-0.428 -0.955,-0.955 0,-0.527 0.428,-0.954 0.955,-0.954 C -0.427,-0.954 0,-0.527 0,0 Z" />
    <path
       id="path332"
       transform="translate(28.2929,44.0752)"
       d="m 0,0 c 0,0.527 -0.427,0.955 -0.954,0.955 -0.527,0 -0.955,-0.428 -0.955,-0.955 0,-0.527 0.428,-0.954 0.955,-0.954 C -0.427,-0.954 0,-0.527 0,0 Z" />
    <path
       id="path334"
       transform="translate(42.4179,44.0752)"
       d="m 0,0 c 0,0.527 -0.427,0.955 -0.954,0.955 -0.527,0 -0.955,-0.428 -0.955,-0.955 0,-0.527 0.428,-0.954 0.955,-0.954 C -0.427,-0.954 0,-0.527 0,0 Z" />
    <path
       id="path336"
       transform="translate(6.5429,40)"
       d="m 0,0 c 0,0.527 -0.427,0.955 -0.954,0.955 -0.527,0 -0.955,-0.428 -0.955,-0.955 0,-0.526 0.428,-0.954 0.955,-0.954 C -0.427,-0.954 0,-0.526 0,0 Z" />
    <path
       id="path338"
       transform="translate(20.2929,40)"
       d="m 0,0 c 0,0.527 -0.427,0.955 -0.954,0.955 -0.527,0 -0.955,-0.428 -0.955,-0.955 0,-0.526 0.428,-0.954 0.955,-0.954 C -0.427,-0.954 0,-0.526 0,0 Z" />
    <path
       id="path340"
       transform="translate(34.7929,40)"
       d="m 0,0 c 0,0.527 -0.427,0.955 -0.954,0.955 -0.527,0 -0.955,-0.428 -0.955,-0.955 0,-0.526 0.428,-0.954 0.955,-0.954 C -0.427,-0.954 0,-0.526 0,0 Z" />
    <path
       id="path342"
       transform="translate(47.0888,39.0459)"
       d="M 0,0 C 0.527,0 0.954,0.428 0.954,0.954 0.954,1.481 0.527,1.909 0,1.909 -0.527,1.909 -0.955,1.481 -0.955,0.954 -0.955,0.428 -0.527,0 0,0 Z" />
    <path
       id="path344"
       transform="translate(0,35.3965)"
       d="M 0,0 C 0.511,0.019 0.918,0.439 0.918,0.954 0.918,1.47 0.511,1.889 0,1.907" />
    <path
       id="path346"
       transform="translate(11.3838,36.3506)"
       d="m 0,0 c 0,-0.527 0.428,-0.955 0.955,-0.955 0.527,0 0.954,0.428 0.954,0.955 0,0.527 -0.427,0.954 -0.954,0.954 C 0.428,0.954 0,0.527 0,0 Z" />
    <path
       id="path348"
       transform="translate(24.3838,36.3506)"
       d="m 0,0 c 0,-0.527 0.428,-0.955 0.955,-0.955 0.527,0 0.954,0.428 0.954,0.955 0,0.527 -0.427,0.954 -0.954,0.954 C 0.428,0.954 0,0.527 0,0 Z" />
    <path
       id="path350"
       transform="translate(40.5429,36.3506)"
       d="m 0,0 c 0,0.527 -0.427,0.954 -0.954,0.954 -0.527,0 -0.955,-0.427 -0.955,-0.954 0,-0.527 0.428,-0.955 0.955,-0.955 C -0.427,-0.955 0,-0.527 0,0 Z" />
    <path
       id="path352"
       transform="translate(5.1338,32.9756)"
       d="m 0,0 c 0,-0.527 0.428,-0.955 0.955,-0.955 0.527,0 0.954,0.428 0.954,0.955 0,0.527 -0.427,0.954 -0.954,0.954 C 0.428,0.954 0,0.527 0,0 Z" />
    <path
       id="path354"
       transform="translate(0,29.749)"
       d="m 0,0 c 0.168,0.273 0.47,0.456 0.813,0.456 0.528,0 0.955,-0.428 0.955,-0.955 0,-0.526 -0.427,-0.954 -0.955,-0.954 -0.343,0 -0.645,0.182 -0.813,0.456" />
    <path
       id="path356"
       transform="translate(12.6338,29.25)"
       d="m 0,0 c 0,-0.526 0.428,-0.954 0.955,-0.954 0.527,0 0.954,0.428 0.954,0.954 0,0.527 -0.427,0.955 -0.954,0.955 C 0.428,0.955 0,0.527 0,0 Z" />
    <path
       id="path358"
       transform="translate(26.3838,29.25)"
       d="m 0,0 c 0,-0.526 0.428,-0.954 0.955,-0.954 0.527,0 0.954,0.428 0.954,0.954 0,0.527 -0.427,0.955 -0.954,0.955 C 0.428,0.955 0,0.527 0,0 Z" />
    <path
       id="path360"
       transform="translate(40.2588,29.25)"
       d="m 0,0 c 0,-0.526 0.428,-0.954 0.955,-0.954 0.527,0 0.954,0.428 0.954,0.954 0,0.527 -0.427,0.955 -0.954,0.955 C 0.428,0.955 0,0.527 0,0 Z" />
    <path
       id="path362"
       transform="translate(4.3838,25.25)"
       d="m 0,0 c 0,-0.527 0.428,-0.954 0.955,-0.954 0.527,0 0.954,0.427 0.954,0.954 0,0.527 -0.427,0.955 -0.954,0.955 C 0.428,0.955 0,0.527 0,0 Z" />
    <path
       id="path364"
       transform="translate(18.0088,25.25)"
       d="m 0,0 c 0,-0.527 0.428,-0.954 0.955,-0.954 0.527,0 0.954,0.427 0.954,0.954 0,0.527 -0.427,0.955 -0.954,0.955 C 0.428,0.955 0,0.527 0,0 Z" />
    <path
       id="path366"
       transform="translate(32.6338,25.25)"
       d="m 0,0 c 0,-0.527 0.428,-0.954 0.955,-0.954 0.527,0 0.954,0.427 0.954,0.954 0,0.527 -0.427,0.955 -0.954,0.955 C 0.428,0.955 0,0.527 0,0 Z" />
    <path
       id="path368"
       transform="translate(45.7588,25.25)"
       d="m 0,0 c 0,-0.527 0.428,-0.954 0.955,-0.954 0.527,0 0.954,0.427 0.954,0.954 0,0.527 -0.427,0.955 -0.954,0.955 C 0.428,0.955 0,0.527 0,0 Z" />
    <path
       id="path370"
       transform="translate(0,20.835)"
       d="M 0,0 C 0.105,0.153 0.168,0.34 0.168,0.54 0.168,0.741 0.105,0.928 0,1.081" />
    <path
       id="path372"
       transform="translate(11.1338,21.375)"
       d="m 0,0 c 0,-0.526 0.428,-0.954 0.955,-0.954 0.527,0 0.954,0.428 0.954,0.954 0,0.527 -0.427,0.955 -0.954,0.955 C 0.428,0.955 0,0.527 0,0 Z" />
    <path
       id="path374"
       transform="translate(24.3838,21.375)"
       d="m 0,0 c 0,-0.526 0.428,-0.954 0.955,-0.954 0.527,0 0.954,0.428 0.954,0.954 0,0.527 -0.427,0.955 -0.954,0.955 C 0.428,0.955 0,0.527 0,0 Z" />
    <path
       id="path376"
       transform="translate(38.5088,21.375)"
       d="m 0,0 c 0,-0.526 0.428,-0.954 0.955,-0.954 0.527,0 0.954,0.428 0.954,0.954 0,0.527 -0.427,0.955 -0.954,0.955 C 0.428,0.955 0,0.527 0,0 Z" />
    <path
       id="path378"
       transform="translate(5.7588,17.625)"
       d="m 0,0 c 0,-0.527 0.428,-0.954 0.955,-0.954 0.527,0 0.954,0.427 0.954,0.954 0,0.527 -0.427,0.955 -0.954,0.955 C 0.428,0.955 0,0.527 0,0 Z" />
    <path
       id="path380"
       transform="translate(19.5088,17.625)"
       d="m 0,0 c 0,-0.527 0.428,-0.954 0.955,-0.954 0.527,0 0.954,0.427 0.954,0.954 0,0.527 -0.427,0.955 -0.954,0.955 C 0.428,0.955 0,0.527 0,0 Z" />
    <path
       id="path382"
       transform="translate(33.8838,17.625)"
       d="m 0,0 c 0,-0.527 0.428,-0.954 0.955,-0.954 0.527,0 0.954,0.427 0.954,0.954 0,0.527 -0.427,0.955 -0.954,0.955 C 0.428,0.955 0,0.527 0,0 Z" />
    <path
       id="path384"
       transform="translate(50.0429,17.625)"
       d="m 0,0 c 0,0.527 -0.427,0.955 -0.954,0.955 -0.527,0 -0.955,-0.428 -0.955,-0.955 0,-0.527 0.428,-0.954 0.955,-0.954 C -0.427,-0.954 0,-0.527 0,0 Z" />
    <path
       id="path386"
       transform="translate(2.1181,14.25)"
       d="m 0,0 c 0,0.527 -0.427,0.955 -0.954,0.955 -0.527,0 -0.955,-0.428 -0.955,-0.955 0,-0.526 0.428,-0.954 0.955,-0.954 C -0.427,-0.954 0,-0.526 0,0 Z" />
    <path
       id="path388"
       transform="translate(14.5429,14.25)"
       d="m 0,0 c 0,0.527 -0.427,0.955 -0.954,0.955 -0.527,0 -0.955,-0.428 -0.955,-0.955 0,-0.526 0.428,-0.954 0.955,-0.954 C -0.427,-0.954 0,-0.526 0,0 Z" />
    <path
       id="path390"
       transform="translate(28.0429,14.25)"
       d="m 0,0 c 0,0.527 -0.427,0.955 -0.954,0.955 -0.527,0 -0.955,-0.428 -0.955,-0.955 0,-0.526 0.428,-0.954 0.955,-0.954 C -0.427,-0.954 0,-0.526 0,0 Z" />
    <path
       id="path392"
       transform="translate(42.4179,14.25)"
       d="m 0,0 c 0,0.527 -0.427,0.955 -0.954,0.955 -0.527,0 -0.955,-0.428 -0.955,-0.955 0,-0.526 0.428,-0.954 0.955,-0.954 C -0.427,-0.954 0,-0.526 0,0 Z" />
    <path
       id="path394"
       transform="translate(6.4179,10.375)"
       d="m 0,0 c 0,0.527 -0.427,0.955 -0.954,0.955 -0.527,0 -0.955,-0.428 -0.955,-0.955 0,-0.527 0.428,-0.954 0.955,-0.954 C -0.427,-0.954 0,-0.527 0,0 Z" />
    <path
       id="path396"
       transform="translate(18.6338,10.375)"
       d="m 0,0 c 0,-0.527 0.428,-0.954 0.955,-0.954 0.527,0 0.954,0.427 0.954,0.954 0,0.527 -0.427,0.955 -0.954,0.955 C 0.428,0.955 0,0.527 0,0 Z" />
    <path
       id="path398"
       transform="translate(34.6679,10.375)"
       d="m 0,0 c 0,0.527 -0.427,0.955 -0.954,0.955 -0.527,0 -0.955,-0.428 -0.955,-0.955 0,-0.527 0.428,-0.954 0.955,-0.954 C -0.427,-0.954 0,-0.527 0,0 Z" />
    <path
       id="path400"
       transform="translate(46.3838,10.375)"
       d="m 0,0 c 0,-0.527 0.428,-0.954 0.955,-0.954 0.527,0 0.954,0.427 0.954,0.954 0,0.527 -0.427,0.955 -0.954,0.955 C 0.428,0.955 0,0.527 0,0 Z" />
    <path
       id="path402"
       transform="translate(51.9843,6.25)"
       d="m 0,0 c 0,-0.526 0.428,-0.954 0.954,-0.954 0.528,0 0.955,0.428 0.955,0.954 0,0.527 -0.427,0.955 -0.955,0.955 C 0.428,0.955 0,0.527 0,0 Z" />
    <path
       id="path404"
       transform="translate(11.2138,5.2959)"
       d="M 0,0 C 0.527,0 0.954,0.428 0.954,0.954 0.954,1.481 0.527,1.909 0,1.909 -0.527,1.909 -0.955,1.481 -0.955,0.954 -0.955,0.428 -0.527,0 0,0 Z" />
    <path
       id="path406"
       transform="translate(23.6338,6.25)"
       d="m 0,0 c 0,-0.526 0.428,-0.954 0.955,-0.954 0.527,0 0.954,0.428 0.954,0.954 0,0.527 -0.427,0.955 -0.954,0.955 C 0.428,0.955 0,0.527 0,0 Z" />
    <path
       id="path408"
       transform="translate(38.1338,6.25)"
       d="m 0,0 c 0,-0.526 0.428,-0.954 0.955,-0.954 0.527,0 0.954,0.428 0.954,0.954 0,0.527 -0.427,0.955 -0.954,0.955 C 0.428,0.955 0,0.527 0,0 Z" />
    <path
       id="path410"
       transform="translate(3.6338,2.4258)"
       d="m 0,0 c 0,-0.527 0.428,-0.955 0.955,-0.955 0.527,0 0.954,0.428 0.954,0.955 0,0.526 -0.427,0.954 -0.954,0.954 C 0.428,0.954 0,0.526 0,0 Z" />
    <path
       id="path412"
       transform="translate(16.6338,2.4258)"
       d="m 0,0 c 0,-0.527 0.428,-0.955 0.955,-0.955 0.527,0 0.954,0.428 0.954,0.955 0,0.526 -0.427,0.954 -0.954,0.954 C 0.428,0.954 0,0.526 0,0 Z" />
    <path
       id="path414"
       transform="translate(32.5429,2.4258)"
       d="m 0,0 c 0,0.526 -0.427,0.954 -0.954,0.954 -0.527,0 -0.955,-0.428 -0.955,-0.954 0,-0.527 0.428,-0.955 0.955,-0.955 C -0.427,-0.955 0,-0.527 0,0 Z" />
    <path
       id="path416"
       transform="translate(44.6338,2.4258)"
       d="m 0,0 c 0,-0.527 0.428,-0.955 0.955,-0.955 0.527,0 0.954,0.428 0.954,0.955 0,0.526 -0.427,0.954 -0.954,0.954 C 0.428,0.954 0,0.526 0,0 Z" />
    <path
       id="path418"
       transform="translate(20.2138,32.0205)"
       d="M 0,0 C 0.527,0 0.954,0.428 0.954,0.955 0.954,1.482 0.527,1.909 0,1.909 -0.527,1.909 -0.955,1.482 -0.955,0.955 -0.955,0.428 -0.527,0 0,0 Z" />
    <path
       id="path420"
       transform="translate(34.7138,32.0205)"
       d="M 0,0 C 0.527,0 0.954,0.428 0.954,0.955 0.954,1.482 0.527,1.909 0,1.909 -0.527,1.909 -0.955,1.482 -0.955,0.955 -0.955,0.428 -0.527,0 0,0 Z" />
    <path
       id="path422"
       transform="translate(48.7929,32.9756)"
       d="m 0,0 c 0,0.527 -0.427,0.954 -0.954,0.954 -0.527,0 -0.955,-0.427 -0.955,-0.954 0,-0.527 0.428,-0.955 0.955,-0.955 C -0.427,-0.955 0,-0.527 0,0 Z" />
    <path
       id="path424"
       transform="translate(54.125,53.3447)"
       d="m 0,0 c -0.105,0.039 -0.218,0.061 -0.336,0.061 -0.527,0 -0.955,-0.428 -0.955,-0.956 0,-0.527 0.428,-0.954 0.955,-0.954 0.118,0 0.231,0.022 0.336,0.061" />
    <path
       id="path426"
       transform="translate(54.125,37.3037)"
       d="m 0,0 c -0.012,0 -0.024,0.001 -0.036,0.001 -0.528,0 -0.955,-0.427 -0.955,-0.954 0,-0.527 0.427,-0.955 0.955,-0.955 0.012,0 0.024,0 0.036,10e-4" />
    <path
       id="path428"
       transform="translate(54.125,29.749)"
       d="m 0,0 c -0.089,-0.146 -0.141,-0.316 -0.141,-0.499 0,-0.183 0.052,-0.354 0.141,-0.498" />
    <path
       id="path430"
       transform="translate(54.125,21.916)"
       d="m 0,0 c -0.172,0.25 -0.46,0.414 -0.786,0.414 -0.528,0 -0.955,-0.428 -0.955,-0.955 0,-0.526 0.427,-0.954 0.955,-0.954 0.326,0 0.614,0.164 0.786,0.414" />
  </g>
</svg>
