<?xml version="1.0" encoding="UTF-8" standalone="no"?>
<svg
   xmlns:dc="http://purl.org/dc/elements/1.1/"
   xmlns:cc="http://creativecommons.org/ns#"
   xmlns:rdf="http://www.w3.org/1999/02/22-rdf-syntax-ns#"
   xmlns:svg="http://www.w3.org/2000/svg"
   xmlns="http://www.w3.org/2000/svg"
   id="svg390"
        width="85.0581"
     height="85.0417"
   version="1.1">
  <defs
     id="defs394" />
  <metadata
     id="metadata2">citation: U.S. Geological Survey, 2006, FGDC Digital Cartographic Standard for Geologic Map Symbolization (PostScript Implementation): U.S. Geological Survey Techniques and Methods 11-A2 [pubs.usgs.gov/tm/2006/11A02/]. converted by CEC Geology LLC 2018 from the USGS lithologic gs converted to inkscape by the University of Otago.<rdf:RDF>
  <cc:Work
     rdf:about="">
    <dc:format>image/svg+xml</dc:format>
    <dc:type
       rdf:resource="http://purl.org/dc/dcmitype/StillImage" />
    <dc:title></dc:title>
  </cc:Work>
</rdf:RDF>
</metadata>
  <g
     fill="none"
	 stroke="#231f20"
	 stroke-width="0.3"
     transform="matrix(-1,0,0,1,85.0581,0)"
     id="g388"
     width="85.0581"
     height="85.0417">
    <path
       id="path4"
       transform="translate(23.8958,66.4375)"
       d="M 0,0 5.333,5.25" />
    <path
       id="path6"
       transform="translate(26,70.4167)"
       d="M 0,0 1.938,-2" />
    <path
       id="path8"
       transform="translate(25.125,69.4792)"
       d="M 0,0 1.938,-1.938" />
    <path
       id="path10"
       transform="translate(34.5625,66.4375)"
       d="M 0,0 5.333,5.25" />
    <path
       id="path12"
       transform="translate(36.6666,70.4167)"
       d="M 0,0 1.938,-2" />
    <path
       id="path14"
       transform="translate(35.7916,69.4792)"
       d="M 0,0 1.938,-1.938" />
    <path
       id="path16"
       transform="translate(13.3125,66.4375)"
       d="M 0,0 5.333,5.25" />
    <path
       id="path18"
       transform="translate(15.4166,70.4167)"
       d="M 0,0 1.938,-2" />
    <path
       id="path20"
       transform="translate(14.5416,69.4792)"
       d="M 0,0 1.938,-1.938" />
    <path
       id="path22"
       transform="translate(2.6875,66.4375)"
       d="M 0,0 5.333,5.25" />
    <path
       id="path24"
       transform="translate(4.7916,70.4167)"
       d="M 0,0 1.938,-2" />
    <path
       id="path26"
       transform="translate(3.9166,69.4792)"
       d="M 0,0 1.938,-1.938" />
    <path
       id="path28"
       transform="translate(23.8958,77.0625)"
       d="M 0,0 5.333,5.25" />
    <path
       id="path30"
       transform="translate(26,81.0417)"
       d="M 0,0 1.938,-2" />
    <path
       id="path32"
       transform="translate(25.125,80.1042)"
       d="M 0,0 1.938,-1.938" />
    <path
       id="path34"
       transform="translate(34.5625,77.0625)"
       d="M 0,0 5.333,5.25" />
    <path
       id="path36"
       transform="translate(36.6666,81.0417)"
       d="M 0,0 1.938,-2" />
    <path
       id="path38"
       transform="translate(35.7916,80.1042)"
       d="M 0,0 1.938,-1.938" />
    <path
       id="path40"
       transform="translate(13.3125,77.0625)"
       d="M 0,0 5.333,5.25" />
    <path
       id="path42"
       transform="translate(15.4166,81.0417)"
       d="M 0,0 1.938,-2" />
    <path
       id="path44"
       transform="translate(14.5416,80.1042)"
       d="M 0,0 1.938,-1.938" />
    <path
       id="path46"
       transform="translate(2.6875,77.0625)"
       d="M 0,0 5.333,5.25" />
    <path
       id="path48"
       transform="translate(4.7916,81.0417)"
       d="M 0,0 1.938,-2" />
    <path
       id="path50"
       transform="translate(3.9166,80.1042)"
       d="M 0,0 1.938,-1.938" />
    <path
       id="path52"
       transform="translate(23.8958,55.7708)"
       d="M 0,0 5.333,5.25" />
    <path
       id="path54"
       transform="translate(26,59.75)"
       d="M 0,0 1.938,-2" />
    <path
       id="path56"
       transform="translate(25.125,58.8125)"
       d="M 0,0 1.938,-1.938" />
    <path
       id="path58"
       transform="translate(34.5625,55.7708)"
       d="M 0,0 5.333,5.25" />
    <path
       id="path60"
       transform="translate(36.6666,59.75)"
       d="M 0,0 1.938,-2" />
    <path
       id="path62"
       transform="translate(35.7916,58.8125)"
       d="M 0,0 1.938,-1.938" />
    <path
       id="path64"
       transform="translate(13.3125,55.7708)"
       d="M 0,0 5.333,5.25" />
    <path
       id="path66"
       transform="translate(15.4166,59.75)"
       d="M 0,0 1.938,-2" />
    <path
       id="path68"
       transform="translate(14.5416,58.8125)"
       d="M 0,0 1.938,-1.938" />
    <path
       id="path70"
       transform="translate(2.6875,55.7708)"
       d="M 0,0 5.333,5.25" />
    <path
       id="path72"
       transform="translate(4.7916,59.75)"
       d="M 0,0 1.938,-2" />
    <path
       id="path74"
       transform="translate(3.9166,58.8125)"
       d="M 0,0 1.938,-1.938" />
    <path
       id="path76"
       transform="translate(23.8958,45.2708)"
       d="M 0,0 5.333,5.25" />
    <path
       id="path78"
       transform="translate(26,49.25)"
       d="M 0,0 1.938,-2" />
    <path
       id="path80"
       transform="translate(25.125,48.3125)"
       d="M 0,0 1.938,-1.938" />
    <path
       id="path82"
       transform="translate(34.5625,45.2708)"
       d="M 0,0 5.333,5.25" />
    <path
       id="path84"
       transform="translate(36.6666,49.25)"
       d="M 0,0 1.938,-2" />
    <path
       id="path86"
       transform="translate(35.7916,48.3125)"
       d="M 0,0 1.938,-1.938" />
    <path
       id="path88"
       transform="translate(13.3125,45.2708)"
       d="M 0,0 5.333,5.25" />
    <path
       id="path90"
       transform="translate(15.4166,49.25)"
       d="M 0,0 1.938,-2" />
    <path
       id="path92"
       transform="translate(14.5416,48.3125)"
       d="M 0,0 1.938,-1.938" />
    <path
       id="path94"
       transform="translate(2.6875,45.2708)"
       d="M 0,0 5.333,5.25" />
    <path
       id="path96"
       transform="translate(4.7916,49.25)"
       d="M 0,0 1.938,-2" />
    <path
       id="path98"
       transform="translate(3.9166,48.3125)"
       d="M 0,0 1.938,-1.938" />
    <path
       id="path100"
       transform="translate(66.4539,66.4375)"
       d="M 0,0 5.333,5.25" />
    <path
       id="path102"
       transform="translate(68.5581,70.4167)"
       d="M 0,0 1.938,-2" />
    <path
       id="path104"
       transform="translate(67.6831,69.4792)"
       d="M 0,0 1.938,-1.938" />
    <path
       id="path106"
       transform="translate(77.1206,66.4375)"
       d="M 0,0 5.333,5.25" />
    <path
       id="path108"
       transform="translate(79.2247,70.4167)"
       d="M 0,0 1.938,-2" />
    <path
       id="path110"
       transform="translate(78.3497,69.4792)"
       d="M 0,0 1.938,-1.938" />
    <path
       id="path112"
       transform="translate(55.8706,66.4375)"
       d="M 0,0 5.333,5.25" />
    <path
       id="path114"
       transform="translate(57.9747,70.4167)"
       d="M 0,0 1.938,-2" />
    <path
       id="path116"
       transform="translate(57.0997,69.4792)"
       d="M 0,0 1.938,-1.938" />
    <path
       id="path118"
       transform="translate(45.2456,66.4375)"
       d="M 0,0 5.333,5.25" />
    <path
       id="path120"
       transform="translate(47.3497,70.4167)"
       d="M 0,0 1.938,-2" />
    <path
       id="path122"
       transform="translate(46.4747,69.4792)"
       d="M 0,0 1.938,-1.938" />
    <path
       id="path124"
       transform="translate(66.4539,77.0625)"
       d="M 0,0 5.333,5.25" />
    <path
       id="path126"
       transform="translate(68.5581,81.0417)"
       d="M 0,0 1.938,-2" />
    <path
       id="path128"
       transform="translate(67.6831,80.1042)"
       d="M 0,0 1.938,-1.938" />
    <path
       id="path130"
       transform="translate(77.1206,77.0625)"
       d="M 0,0 5.333,5.25" />
    <path
       id="path132"
       transform="translate(79.2247,81.0417)"
       d="M 0,0 1.938,-2" />
    <path
       id="path134"
       transform="translate(78.3497,80.1042)"
       d="M 0,0 1.938,-1.938" />
    <path
       id="path136"
       transform="translate(55.8706,77.0625)"
       d="M 0,0 5.333,5.25" />
    <path
       id="path138"
       transform="translate(57.9747,81.0417)"
       d="M 0,0 1.938,-2" />
    <path
       id="path140"
       transform="translate(57.0997,80.1042)"
       d="M 0,0 1.938,-1.938" />
    <path
       id="path142"
       transform="translate(45.2456,77.0625)"
       d="M 0,0 5.333,5.25" />
    <path
       id="path144"
       transform="translate(47.3497,81.0417)"
       d="M 0,0 1.938,-2" />
    <path
       id="path146"
       transform="translate(46.4747,80.1042)"
       d="M 0,0 1.938,-1.938" />
    <path
       id="path148"
       transform="translate(66.4539,55.7708)"
       d="M 0,0 5.333,5.25" />
    <path
       id="path150"
       transform="translate(68.5581,59.75)"
       d="M 0,0 1.938,-2" />
    <path
       id="path152"
       transform="translate(67.6831,58.8125)"
       d="M 0,0 1.938,-1.938" />
    <path
       id="path154"
       transform="translate(77.1206,55.7708)"
       d="M 0,0 5.333,5.25" />
    <path
       id="path156"
       transform="translate(79.2247,59.75)"
       d="M 0,0 1.938,-2" />
    <path
       id="path158"
       transform="translate(78.3497,58.8125)"
       d="M 0,0 1.938,-1.938" />
    <path
       id="path160"
       transform="translate(55.8706,55.7708)"
       d="M 0,0 5.333,5.25" />
    <path
       id="path162"
       transform="translate(57.9747,59.75)"
       d="M 0,0 1.938,-2" />
    <path
       id="path164"
       transform="translate(57.0997,58.8125)"
       d="M 0,0 1.938,-1.938" />
    <path
       id="path166"
       transform="translate(45.2456,55.7708)"
       d="M 0,0 5.333,5.25" />
    <path
       id="path168"
       transform="translate(47.3497,59.75)"
       d="M 0,0 1.938,-2" />
    <path
       id="path170"
       transform="translate(46.4747,58.8125)"
       d="M 0,0 1.938,-1.938" />
    <path
       id="path172"
       transform="translate(66.4539,45.2708)"
       d="M 0,0 5.333,5.25" />
    <path
       id="path174"
       transform="translate(68.5581,49.25)"
       d="M 0,0 1.938,-2" />
    <path
       id="path176"
       transform="translate(67.6831,48.3125)"
       d="M 0,0 1.938,-1.938" />
    <path
       id="path178"
       transform="translate(77.1206,45.2708)"
       d="M 0,0 5.333,5.25" />
    <path
       id="path180"
       transform="translate(79.2247,49.25)"
       d="M 0,0 1.938,-2" />
    <path
       id="path182"
       transform="translate(78.3497,48.3125)"
       d="M 0,0 1.938,-1.938" />
    <path
       id="path184"
       transform="translate(55.8706,45.2708)"
       d="M 0,0 5.333,5.25" />
    <path
       id="path186"
       transform="translate(57.9747,49.25)"
       d="M 0,0 1.938,-2" />
    <path
       id="path188"
       transform="translate(57.0997,48.3125)"
       d="M 0,0 1.938,-1.938" />
    <path
       id="path190"
       transform="translate(45.2456,45.2708)"
       d="M 0,0 5.333,5.25" />
    <path
       id="path192"
       transform="translate(47.3497,49.25)"
       d="M 0,0 1.938,-2" />
    <path
       id="path194"
       transform="translate(46.4747,48.3125)"
       d="M 0,0 1.938,-1.938" />
    <path
       id="path196"
       transform="translate(23.8958,23.8958)"
       d="M 0,0 5.333,5.25" />
    <path
       id="path198"
       transform="translate(26,27.875)"
       d="M 0,0 1.938,-2" />
    <path
       id="path200"
       transform="translate(25.125,26.9375)"
       d="M 0,0 1.938,-1.938" />
    <path
       id="path202"
       transform="translate(34.5625,23.8958)"
       d="M 0,0 5.333,5.25" />
    <path
       id="path204"
       transform="translate(36.6666,27.875)"
       d="M 0,0 1.938,-2" />
    <path
       id="path206"
       transform="translate(35.7916,26.9375)"
       d="M 0,0 1.938,-1.938" />
    <path
       id="path208"
       transform="translate(13.3125,23.8958)"
       d="M 0,0 5.333,5.25" />
    <path
       id="path210"
       transform="translate(15.4166,27.875)"
       d="M 0,0 1.938,-2" />
    <path
       id="path212"
       transform="translate(14.5416,26.9375)"
       d="M 0,0 1.938,-1.938" />
    <path
       id="path214"
       transform="translate(2.6875,23.8958)"
       d="M 0,0 5.333,5.25" />
    <path
       id="path216"
       transform="translate(4.7916,27.875)"
       d="M 0,0 1.938,-2" />
    <path
       id="path218"
       transform="translate(3.9166,26.9375)"
       d="M 0,0 1.938,-1.938" />
    <path
       id="path220"
       transform="translate(23.8958,34.5208)"
       d="M 0,0 5.333,5.25" />
    <path
       id="path222"
       transform="translate(26,38.5)"
       d="M 0,0 1.938,-2" />
    <path
       id="path224"
       transform="translate(25.125,37.5625)"
       d="M 0,0 1.938,-1.938" />
    <path
       id="path226"
       transform="translate(34.5625,34.5208)"
       d="M 0,0 5.333,5.25" />
    <path
       id="path228"
       transform="translate(36.6666,38.5)"
       d="M 0,0 1.938,-2" />
    <path
       id="path230"
       transform="translate(35.7916,37.5625)"
       d="M 0,0 1.938,-1.938" />
    <path
       id="path232"
       transform="translate(13.3125,34.5208)"
       d="M 0,0 5.333,5.25" />
    <path
       id="path234"
       transform="translate(15.4166,38.5)"
       d="M 0,0 1.938,-2" />
    <path
       id="path236"
       transform="translate(14.5416,37.5625)"
       d="M 0,0 1.938,-1.938" />
    <path
       id="path238"
       transform="translate(2.6875,34.5208)"
       d="M 0,0 5.333,5.25" />
    <path
       id="path240"
       transform="translate(4.7916,38.5)"
       d="M 0,0 1.938,-2" />
    <path
       id="path242"
       transform="translate(3.9166,37.5625)"
       d="M 0,0 1.938,-1.938" />
    <path
       id="path244"
       transform="translate(23.8958,13.2292)"
       d="M 0,0 5.333,5.25" />
    <path
       id="path246"
       transform="translate(26,17.2083)"
       d="M 0,0 1.938,-2" />
    <path
       id="path248"
       transform="translate(25.125,16.2708)"
       d="M 0,0 1.938,-1.938" />
    <path
       id="path250"
       transform="translate(34.5625,13.2292)"
       d="M 0,0 5.333,5.25" />
    <path
       id="path252"
       transform="translate(36.6666,17.2083)"
       d="M 0,0 1.938,-2" />
    <path
       id="path254"
       transform="translate(35.7916,16.2708)"
       d="M 0,0 1.938,-1.938" />
    <path
       id="path256"
       transform="translate(13.3125,13.2292)"
       d="M 0,0 5.333,5.25" />
    <path
       id="path258"
       transform="translate(15.4166,17.2083)"
       d="M 0,0 1.938,-2" />
    <path
       id="path260"
       transform="translate(14.5416,16.2708)"
       d="M 0,0 1.938,-1.938" />
    <path
       id="path262"
       transform="translate(2.6875,13.2292)"
       d="M 0,0 5.333,5.25" />
    <path
       id="path264"
       transform="translate(4.7916,17.2083)"
       d="M 0,0 1.938,-2" />
    <path
       id="path266"
       transform="translate(3.9166,16.2708)"
       d="M 0,0 1.938,-1.938" />
    <path
       id="path268"
       transform="translate(23.8958,2.7292)"
       d="M 0,0 5.333,5.25" />
    <path
       id="path270"
       transform="translate(26,6.7083)"
       d="M 0,0 1.938,-2" />
    <path
       id="path272"
       transform="translate(25.125,5.7708)"
       d="M 0,0 1.938,-1.938" />
    <path
       id="path274"
       transform="translate(34.5625,2.7292)"
       d="M 0,0 5.333,5.25" />
    <path
       id="path276"
       transform="translate(36.6666,6.7083)"
       d="M 0,0 1.938,-2" />
    <path
       id="path278"
       transform="translate(35.7916,5.7708)"
       d="M 0,0 1.938,-1.938" />
    <path
       id="path280"
       transform="translate(13.3125,2.7292)"
       d="M 0,0 5.333,5.25" />
    <path
       id="path282"
       transform="translate(15.4166,6.7083)"
       d="M 0,0 1.938,-2" />
    <path
       id="path284"
       transform="translate(14.5416,5.7708)"
       d="M 0,0 1.938,-1.938" />
    <path
       id="path286"
       transform="translate(2.6875,2.7292)"
       d="M 0,0 5.333,5.25" />
    <path
       id="path288"
       transform="translate(4.7916,6.7083)"
       d="M 0,0 1.938,-2" />
    <path
       id="path290"
       transform="translate(3.9166,5.7708)"
       d="M 0,0 1.938,-1.938" />
    <path
       id="path292"
       transform="translate(66.4539,23.8958)"
       d="M 0,0 5.333,5.25" />
    <path
       id="path294"
       transform="translate(68.5581,27.875)"
       d="M 0,0 1.938,-2" />
    <path
       id="path296"
       transform="translate(67.6831,26.9375)"
       d="M 0,0 1.938,-1.938" />
    <path
       id="path298"
       transform="translate(77.1206,23.8958)"
       d="M 0,0 5.333,5.25" />
    <path
       id="path300"
       transform="translate(79.2247,27.875)"
       d="M 0,0 1.938,-2" />
    <path
       id="path302"
       transform="translate(78.3497,26.9375)"
       d="M 0,0 1.938,-1.938" />
    <path
       id="path304"
       transform="translate(55.8706,23.8958)"
       d="M 0,0 5.333,5.25" />
    <path
       id="path306"
       transform="translate(57.9747,27.875)"
       d="M 0,0 1.938,-2" />
    <path
       id="path308"
       transform="translate(57.0997,26.9375)"
       d="M 0,0 1.938,-1.938" />
    <path
       id="path310"
       transform="translate(45.2456,23.8958)"
       d="M 0,0 5.333,5.25" />
    <path
       id="path312"
       transform="translate(47.3497,27.875)"
       d="M 0,0 1.938,-2" />
    <path
       id="path314"
       transform="translate(46.4747,26.9375)"
       d="M 0,0 1.938,-1.938" />
    <path
       id="path316"
       transform="translate(66.4539,34.5208)"
       d="M 0,0 5.333,5.25" />
    <path
       id="path318"
       transform="translate(68.5581,38.5)"
       d="M 0,0 1.938,-2" />
    <path
       id="path320"
       transform="translate(67.6831,37.5625)"
       d="M 0,0 1.938,-1.938" />
    <path
       id="path322"
       transform="translate(77.1206,34.5208)"
       d="M 0,0 5.333,5.25" />
    <path
       id="path324"
       transform="translate(79.2247,38.5)"
       d="M 0,0 1.938,-2" />
    <path
       id="path326"
       transform="translate(78.3497,37.5625)"
       d="M 0,0 1.938,-1.938" />
    <path
       id="path328"
       transform="translate(55.8706,34.5208)"
       d="M 0,0 5.333,5.25" />
    <path
       id="path330"
       transform="translate(57.9747,38.5)"
       d="M 0,0 1.938,-2" />
    <path
       id="path332"
       transform="translate(57.0997,37.5625)"
       d="M 0,0 1.938,-1.938" />
    <path
       id="path334"
       transform="translate(45.2456,34.5208)"
       d="M 0,0 5.333,5.25" />
    <path
       id="path336"
       transform="translate(47.3497,38.5)"
       d="M 0,0 1.938,-2" />
    <path
       id="path338"
       transform="translate(46.4747,37.5625)"
       d="M 0,0 1.938,-1.938" />
    <path
       id="path340"
       transform="translate(66.4539,13.2292)"
       d="M 0,0 5.333,5.25" />
    <path
       id="path342"
       transform="translate(68.5581,17.2083)"
       d="M 0,0 1.938,-2" />
    <path
       id="path344"
       transform="translate(67.6831,16.2708)"
       d="M 0,0 1.938,-1.938" />
    <path
       id="path346"
       transform="translate(77.1206,13.2292)"
       d="M 0,0 5.333,5.25" />
    <path
       id="path348"
       transform="translate(79.2247,17.2083)"
       d="M 0,0 1.938,-2" />
    <path
       id="path350"
       transform="translate(78.3497,16.2708)"
       d="M 0,0 1.938,-1.938" />
    <path
       id="path352"
       transform="translate(55.8706,13.2292)"
       d="M 0,0 5.333,5.25" />
    <path
       id="path354"
       transform="translate(57.9747,17.2083)"
       d="M 0,0 1.938,-2" />
    <path
       id="path356"
       transform="translate(57.0997,16.2708)"
       d="M 0,0 1.938,-1.938" />
    <path
       id="path358"
       transform="translate(45.2456,13.2292)"
       d="M 0,0 5.333,5.25" />
    <path
       id="path360"
       transform="translate(47.3497,17.2083)"
       d="M 0,0 1.938,-2" />
    <path
       id="path362"
       transform="translate(46.4747,16.2708)"
       d="M 0,0 1.938,-1.938" />
    <path
       id="path364"
       transform="translate(66.4539,2.7292)"
       d="M 0,0 5.333,5.25" />
    <path
       id="path366"
       transform="translate(68.5581,6.7083)"
       d="M 0,0 1.938,-2" />
    <path
       id="path368"
       transform="translate(67.6831,5.7708)"
       d="M 0,0 1.938,-1.938" />
    <path
       id="path370"
       transform="translate(77.1206,2.7292)"
       d="M 0,0 5.333,5.25" />
    <path
       id="path372"
       transform="translate(79.2247,6.7083)"
       d="M 0,0 1.938,-2" />
    <path
       id="path374"
       transform="translate(78.3497,5.7708)"
       d="M 0,0 1.938,-1.938" />
    <path
       id="path376"
       transform="translate(55.8706,2.7292)"
       d="M 0,0 5.333,5.25" />
    <path
       id="path378"
       transform="translate(57.9747,6.7083)"
       d="M 0,0 1.938,-2" />
    <path
       id="path380"
       transform="translate(57.0997,5.7708)"
       d="M 0,0 1.938,-1.938" />
    <path
       id="path382"
       transform="translate(45.2456,2.7292)"
       d="M 0,0 5.333,5.25" />
    <path
       id="path384"
       transform="translate(47.3497,6.7083)"
       d="M 0,0 1.938,-2" />
    <path
       id="path386"
       transform="translate(46.4747,5.7708)"
       d="M 0,0 1.938,-1.938" />
  </g>
</svg>
