<?xml version="1.0" encoding="UTF-8" standalone="no"?>
<svg
   xmlns:dc="http://purl.org/dc/elements/1.1/"
   xmlns:cc="http://creativecommons.org/ns#"
   xmlns:rdf="http://www.w3.org/1999/02/22-rdf-syntax-ns#"
   xmlns:svg="http://www.w3.org/2000/svg"
   xmlns="http://www.w3.org/2000/svg"
   height="54.125"
   width="54.125"
   id="svg440"
   version="1.1">
  <defs
     id="defs444" />
  <metadata
     id="metadata2">citation: U.S. Geological Survey, 2006, FGDC Digital Cartographic Standard for Geologic Map Symbolization (PostScript Implementation): U.S. Geological Survey Techniques and Methods 11-A2 [pubs.usgs.gov/tm/2006/11A02/]. converted by CEC Geology LLC 2018 from the USGS lithologic gs converted to inkscape by the University of Otago.<rdf:RDF>
  <cc:Work
     rdf:about="">
    <dc:format>image/svg+xml</dc:format>
    <dc:type
       rdf:resource="http://purl.org/dc/dcmitype/StillImage" />
    <dc:title></dc:title>
  </cc:Work>
</rdf:RDF>
</metadata>
  <g
     stroke-width=".3"
     stroke="#231f20"
     fill="none"

     id="g438"
     width="54.125"
     height="54.125">
    <path
       id="path4"
       transform="translate(32.1748,50.3755)"
       d="M 0,0 H -4.7" />
    <path
       id="path6"
       transform="translate(53.9248,50.3755)"
       d="M 0,0 H 0.2" />
    <path
       id="path8"
       transform="translate(18.6748,50.3755)"
       d="M 0,0 H 8.8" />
    <path
       id="path10"
       transform="translate(12.5996,50.3755)"
       d="M 0,0 H -6.675" />
    <path
       id="path12"
       transform="translate(0,50.3755)"
       d="M 0,0 H 5.925" />
    <path
       id="path14"
       transform="translate(18.6748,50.3755)"
       d="M 0,0 H -6.075" />
    <path
       id="path16"
       transform="translate(53.9248,50.3755)"
       d="M 0,0 H -7.375" />
    <path
       id="path18"
       transform="translate(41.0996,50.3755)"
       d="M 0,0 H 5.45" />
    <path
       id="path20"
       transform="translate(41.0996,50.3755)"
       d="M 0,0 H -8.925" />
    <path
       id="path22"
       transform="translate(54.125,46.2002)"
       d="M 0,0 H -54.125" />
    <path
       id="path24"
       transform="translate(54.125,42.0127)"
       d="M 0,0 H -0.713" />
    <path
       id="path26"
       transform="translate(40.1621,42.0127)"
       d="M 0,0 H 13.25" />
    <path
       id="path28"
       transform="translate(40.1621,42.0127)"
       d="M 0,0 H -13.375" />
    <path
       id="path30"
       transform="translate(11.9121,42.0127)"
       d="M 0,0 H -11.912" />
    <path
       id="path32"
       transform="translate(26.7871,42.0127)"
       d="M 0,0 H -14.875" />
    <path
       id="path34"
       transform="translate(33.7588,12.4004)"
       d="M 0,0 H 14.875" />
    <path
       id="path36"
       transform="translate(20.1338,12.4004)"
       d="M 0,0 H 13.625" />
    <path
       id="path38"
       transform="translate(6.8838,12.4004)"
       d="M 0,0 H -6.884" />
    <path
       id="path40"
       transform="translate(6.8838,12.4004)"
       d="M 0,0 H 13.25" />
    <path
       id="path42"
       transform="translate(48.6338,12.4004)"
       d="M 0,0 H 5.491" />
    <path
       id="path44"
       transform="translate(53.7334,8.625)"
       d="M 0,0 H 0.392" />
    <path
       id="path46"
       transform="translate(26.4082,8.625)"
       d="M 0,0 H -14.55" />
    <path
       id="path48"
       transform="translate(11.8584,8.625)"
       d="M 0,0 H -11.858" />
    <path
       id="path50"
       transform="translate(40.2832,8.625)"
       d="M 0,0 H -13.875" />
    <path
       id="path52"
       transform="translate(40.2832,8.625)"
       d="M 0,0 H 13.45" />
    <path
       id="path54"
       transform="translate(5.9248,37.9941)"
       d="M 0,0 H -5.925" />
    <path
       id="path56"
       transform="translate(31.9248,37.9941)"
       d="M 0,0 H -13.25" />
    <path
       id="path58"
       transform="translate(31.9248,37.9941)"
       d="M 0,0 H 14.625" />
    <path
       id="path60"
       transform="translate(18.6748,37.9941)"
       d="M 0,0 H -12.75" />
    <path
       id="path62"
       transform="translate(46.5498,37.9941)"
       d="M 0,0 H 7.575" />
    <path
       id="path64"
       transform="translate(27.4746,34.7129)"
       d="M 0,0 H -15" />
    <path
       id="path66"
       transform="translate(41.2246,34.7129)"
       d="M 0,0 H 12.75" />
    <path
       id="path68"
       transform="translate(53.9746,34.7129)"
       d="M 0,0 H 0.15" />
    <path
       id="path70"
       transform="translate(12.4746,34.7129)"
       d="M 0,0 H -12.475" />
    <path
       id="path72"
       transform="translate(41.2246,34.7129)"
       d="M 0,0 H -13.75" />
    <path
       id="path74"
       transform="translate(48.6621,31.2876)"
       d="M 0,0 H -14.875" />
    <path
       id="path76"
       transform="translate(33.7871,31.2876)"
       d="M 0,0 H -13.625" />
    <path
       id="path78"
       transform="translate(6.6621,31.2876)"
       d="M 0,0 H -6.662" />
    <path
       id="path80"
       transform="translate(20.1621,31.2876)"
       d="M 0,0 H -13.5" />
    <path
       id="path82"
       transform="translate(48.6621,31.2876)"
       d="M 0,0 H 5.463" />
    <path
       id="path84"
       transform="translate(0,27.2378)"
       d="M 0,0 H 54.125" />
    <path
       id="path86"
       transform="translate(0,23.4375)"
       d="M 0,0 H 54.125" />
    <path
       id="path88"
       transform="translate(54.125,19.2373)"
       d="M 0,0 H -54.125" />
    <path
       id="path90"
       transform="translate(0,16.0127)"
       d="M 0,0 H 54.125" />
    <path
       id="path92"
       transform="translate(38.3584,0.8379)"
       d="M 0,0 H -6.184" />
    <path
       id="path94"
       transform="translate(0,0.8379)"
       d="M 0,0 H 5.925" />
    <path
       id="path96"
       transform="translate(18.6748,0.8379)"
       d="M 0,0 H -8.379" />
    <path
       id="path98"
       transform="translate(38.3584,0.8379)"
       d="M 0,0 H 8.191" />
    <path
       id="path100"
       transform="translate(51.7334,0.8379)"
       d="M 0,0 H -5.184" />
    <path
       id="path102"
       transform="translate(51.7334,0.8379)"
       d="M 0,0 H 2.392" />
    <path
       id="path104"
       transform="translate(24.7334,0.8379)"
       d="M 0,0 H -6.059" />
    <path
       id="path106"
       transform="translate(24.7334,0.8379)"
       d="M 0,0 H 7.441" />
    <path
       id="path108"
       transform="translate(5.9248,0.8379)"
       d="M 0,0 H 4.371" />
    <path
       id="path110"
       transform="translate(5.9248,54.1255)"
       d="M 0,0 V -3.75" />
    <path
       id="path112"
       transform="translate(18.6748,50.3755)"
       d="M 0,0 V 3.75" />
    <path
       id="path114"
       transform="translate(32.1748,54.1255)"
       d="M 0,0 V -3.75" />
    <path
       id="path116"
       transform="translate(46.5498,54.1255)"
       d="M 0,0 V -3.75" />
    <path
       id="path118"
       transform="translate(5.9248,0.8506)"
       d="M 0,0 V -0.013" />
    <path
       id="path120"
       transform="translate(5.9248)"
       d="M 0,0 V 0.838" />
    <path
       id="path122"
       transform="translate(18.6748,0.8506)"
       d="M 0,0 V -0.013" />
    <path
       id="path124"
       transform="translate(18.6748)"
       d="M 0,0 V 0.838" />
    <path
       id="path126"
       transform="translate(32.1748,0.8506)"
       d="M 0,0 V -0.013" />
    <path
       id="path128"
       transform="translate(32.1748)"
       d="M 0,0 V 0.838" />
    <path
       id="path130"
       transform="translate(46.5498,0.8506)"
       d="M 0,0 V -0.013" />
    <path
       id="path132"
       transform="translate(46.5498)"
       d="M 0,0 V 0.838" />
    <path
       id="path134"
       transform="translate(12.5996,50.3755)"
       d="M 0,0 V -4.163" />
    <path
       id="path136"
       transform="translate(12.5996,50.438)"
       d="M 0,0 V -0.063" />
    <path
       id="path138"
       transform="translate(27.4746,50.438)"
       d="M 0,0 V -0.063" />
    <path
       id="path140"
       transform="translate(27.4746,46.2129)"
       d="M 0,0 V 4.163" />
    <path
       id="path142"
       transform="translate(41.0996,50.3755)"
       d="M 0,0 V -4.163" />
    <path
       id="path144"
       transform="translate(41.0996,50.3755)"
       d="M 0,0 V 0.063" />
    <path
       id="path146"
       transform="translate(53.9248,50.3755)"
       d="M 0,0 V 0.063" />
    <path
       id="path148"
       transform="translate(53.9248,50.3755)"
       d="M 0,0 V -4.163" />
    <path
       id="path150"
       transform="translate(7.0371,42.0254)"
       d="M 0,0 V 4.05" />
    <path
       id="path152"
       transform="translate(20.2871,42.0254)"
       d="M 0,0 V 4.05" />
    <path
       id="path154"
       transform="translate(33.8496,42.0254)"
       d="M 0,0 V 4.05" />
    <path
       id="path156"
       transform="translate(48.7871,42.0254)"
       d="M 0,0 V 4.05" />
    <path
       id="path158"
       transform="translate(40.1621,42.0127)"
       d="M 0,0 V -3.987" />
    <path
       id="path160"
       transform="translate(40.1621,42.0127)"
       d="M 0,0 V 0.013" />
    <path
       id="path162"
       transform="translate(26.7871,42.0127)"
       d="M 0,0 V 0.013" />
    <path
       id="path164"
       transform="translate(26.7871,42.0127)"
       d="M 0,0 V -3.987" />
    <path
       id="path166"
       transform="translate(11.9121,42.0127)"
       d="M 0,0 V 0.013" />
    <path
       id="path168"
       transform="translate(11.9121,42.0127)"
       d="M 0,0 V -3.987" />
    <path
       id="path170"
       transform="translate(53.4121,38.0254)"
       d="M 0,0 V 3.987" />
    <path
       id="path172"
       transform="translate(53.4121,42.0254)"
       d="M 0,0 V -0.013" />
    <path
       id="path174"
       transform="translate(46.5498,37.9941)"
       d="M 0,0 V 0.031" />
    <path
       id="path176"
       transform="translate(46.5498,37.9941)"
       d="M 0,0 V -3.269" />
    <path
       id="path178"
       transform="translate(31.9248,37.9941)"
       d="M 0,0 V 0.031" />
    <path
       id="path180"
       transform="translate(31.9248,37.9941)"
       d="M 0,0 V -3.269" />
    <path
       id="path182"
       transform="translate(18.6748,37.9941)"
       d="M 0,0 V -3.269" />
    <path
       id="path184"
       transform="translate(18.6748,37.9941)"
       d="M 0,0 V 0.031" />
    <path
       id="path186"
       transform="translate(5.9248,37.9941)"
       d="M 0,0 V -3.269" />
    <path
       id="path188"
       transform="translate(5.9248,37.9941)"
       d="M 0,0 V 0.031" />
    <path
       id="path190"
       transform="translate(12.4746,34.7129)"
       d="M 0,0 V -3.413" />
    <path
       id="path192"
       transform="translate(12.4746,34.7129)"
       d="M 0,0 V 0.012" />
    <path
       id="path194"
       transform="translate(27.4746,34.7129)"
       d="M 0,0 V -3.413" />
    <path
       id="path196"
       transform="translate(27.4746,34.7251)"
       d="M 0,0 V -0.012" />
    <path
       id="path198"
       transform="translate(41.2246,34.7129)"
       d="M 0,0 V 0.012" />
    <path
       id="path200"
       transform="translate(41.2246,34.7129)"
       d="M 0,0 V -3.413" />
    <path
       id="path202"
       transform="translate(53.9746,34.7129)"
       d="M 0,0 V 0.012" />
    <path
       id="path204"
       transform="translate(53.9746,34.7129)"
       d="M 0,0 V -3.413" />
    <path
       id="path206"
       transform="translate(6.6621,31.2876)"
       d="M 0,0 V -4.038" />
    <path
       id="path208"
       transform="translate(6.6621,31.3003)"
       d="M 0,0 V -0.013" />
    <path
       id="path210"
       transform="translate(20.1621,31.3003)"
       d="M 0,0 V -0.013" />
    <path
       id="path212"
       transform="translate(20.1621,31.2876)"
       d="M 0,0 V -4.038" />
    <path
       id="path214"
       transform="translate(33.7871,31.2876)"
       d="M 0,0 V -4.038" />
    <path
       id="path216"
       transform="translate(33.7871,31.3003)"
       d="M 0,0 V -0.013" />
    <path
       id="path218"
       transform="translate(48.6621,31.2876)"
       d="M 0,0 V 0.013" />
    <path
       id="path220"
       transform="translate(48.6621,31.2876)"
       d="M 0,0 V -4.038" />
    <path
       id="path222"
       transform="translate(40.0371,27.1875)"
       d="M 0,0 V -3.737" />
    <path
       id="path224"
       transform="translate(26.7129,27.1875)"
       d="M 0,0 V -3.737" />
    <path
       id="path226"
       transform="translate(11.7129,27.1875)"
       d="M 0,0 V -3.737" />
    <path
       id="path228"
       transform="translate(53.2666,23.4502)"
       d="M 0,0 V 3.737" />
    <path
       id="path230"
       transform="translate(5.5254,23.3877)"
       d="M 0,0 V -4.138" />
    <path
       id="path232"
       transform="translate(18.5254,23.3877)"
       d="M 0,0 V -4.138" />
    <path
       id="path234"
       transform="translate(32.1504,23.3877)"
       d="M 0,0 V -4.138" />
    <path
       id="path236"
       transform="translate(46.4004,23.3877)"
       d="M 0,0 V -4.138" />
    <path
       id="path238"
       transform="translate(42.2002,19.1875)"
       d="M 0,0 V -3.162" />
    <path
       id="path240"
       transform="translate(28.0498,19.1875)"
       d="M 0,0 V -3.162" />
    <path
       id="path242"
       transform="translate(12.9248,19.1875)"
       d="M 0,0 V -3.162" />
    <path
       id="path244"
       transform="translate(0.5088,19.1875)"
       d="M 0,0 V -3.162" />
    <path
       id="path246"
       transform="translate(6.8838,12.4004)"
       d="M 0,0 V 3.563" />
    <path
       id="path248"
       transform="translate(20.1338,12.4004)"
       d="M 0,0 V 3.563" />
    <path
       id="path250"
       transform="translate(33.7588,12.4004)"
       d="M 0,0 V 3.563" />
    <path
       id="path252"
       transform="translate(48.6338,12.4004)"
       d="M 0,0 V 3.563" />
    <path
       id="path254"
       transform="translate(40.2832,8.625)"
       d="M 0,0 V -0.037" />
    <path
       id="path256"
       transform="translate(40.2832,8.625)"
       d="M 0,0 V 3.725" />
    <path
       id="path258"
       transform="translate(26.4082,8.625)"
       d="M 0,0 V 3.725" />
    <path
       id="path260"
       transform="translate(26.4082,8.625)"
       d="M 0,0 V -0.037" />
    <path
       id="path262"
       transform="translate(11.8584,8.625)"
       d="M 0,0 V -0.037" />
    <path
       id="path264"
       transform="translate(11.8584,12.3496)"
       d="M 0,0 V -3.725" />
    <path
       id="path266"
       transform="translate(53.7334,8.625)"
       d="M 0,0 V 3.725" />
    <path
       id="path268"
       transform="translate(53.7334,8.625)"
       d="M 0,0 V -0.037" />
    <path
       id="path270"
       transform="translate(38.3584,4.2129)"
       d="M 0,0 H -13.625" />
    <path
       id="path272"
       transform="translate(51.7334,4.2129)"
       d="M 0,0 H -13.375" />
    <path
       id="path274"
       transform="translate(0,4.2129)"
       d="M 0,0 H 10.296" />
    <path
       id="path276"
       transform="translate(51.7334,4.2129)"
       d="M 0,0 H 2.392" />
    <path
       id="path278"
       transform="translate(24.7334,4.2129)"
       d="M 0,0 H -14.438" />
    <path
       id="path280"
       transform="translate(10.2959,4.2129)"
       d="M 0,0 V -3.375" />
    <path
       id="path282"
       transform="translate(10.2959,4.2383)"
       d="M 0,0 V -0.025" />
    <path
       id="path284"
       transform="translate(10.2959,0.7754)"
       d="M 0,0 V 0.063" />
    <path
       id="path286"
       transform="translate(24.7334,4.2129)"
       d="M 0,0 V -3.375" />
    <path
       id="path288"
       transform="translate(24.7334,0.8379)"
       d="M 0,0 V -0.063" />
    <path
       id="path290"
       transform="translate(24.7334,4.2129)"
       d="M 0,0 V 0.025" />
    <path
       id="path292"
       transform="translate(38.3584,0.8379)"
       d="M 0,0 V 3.375" />
    <path
       id="path294"
       transform="translate(38.3584,0.8379)"
       d="M 0,0 V -0.063" />
    <path
       id="path296"
       transform="translate(38.3584,4.2383)"
       d="M 0,0 V -0.025" />
    <path
       id="path298"
       transform="translate(51.7334,0.8379)"
       d="M 0,0 V 3.375" />
    <path
       id="path300"
       transform="translate(51.7334,0.8379)"
       d="M 0,0 V -0.063" />
    <path
       id="path302"
       transform="translate(51.7334,4.2129)"
       d="M 0,0 V 0.025" />
    <path
       id="path304"
       transform="translate(4.5713,8.5879)"
       d="M 0,0 V -4.35" />
    <path
       id="path306"
       transform="translate(17.5713,8.5879)"
       d="M 0,0 V -4.35" />
    <path
       id="path308"
       transform="translate(31.5713,8.5879)"
       d="M 0,0 V -4.35" />
    <path
       id="path310"
       transform="translate(46.1338,4.2383)"
       d="M 0,0 V 4.35" />
    <path
       id="path312"
       transform="translate(45.7647,33.6211)"
       d="M 0,0 -0.787,-1.237 H 3.6 L 4.388,0 Z" />
    <path
       id="path314"
       transform="translate(36.1143,32.3838)"
       d="M 0,0 0.788,1.237 H -3.6 L -4.387,0 Z" />
    <path
       id="path316"
       transform="translate(22.1143,32.3838)"
       d="M 0,0 0.788,1.237 H -3.6 L -4.387,0 Z" />
    <path
       id="path318"
       transform="translate(8.002,32.3584)"
       d="M 0,0 0.787,1.238 H -3.6 L -4.388,0 Z" />
    <path
       id="path320"
       transform="translate(9.7276,35.666)"
       d="M 0,0 H 4.387 L 5.175,1.238 H 0.787 Z" />
    <path
       id="path322"
       transform="translate(8.1641,40.5298)"
       d="m 0,0 h -4.387 l -0.788,-1.237 h 4.388 z" />
    <path
       id="path324"
       transform="translate(21.9024,40.5171)"
       d="m 0,0 h -4.388 l -0.787,-1.237 h 4.387 z" />
    <path
       id="path326"
       transform="translate(36.0274,40.5171)"
       d="m 0,0 h -4.388 l -0.787,-1.237 h 4.387 z" />
    <path
       id="path328"
       transform="translate(44.6026,39.2236)"
       d="M 0,0 H 4.387 L 5.175,1.237 H 0.787 Z" />
    <path
       id="path330"
       transform="translate(43.8018,44.7236)"
       d="m 0,0 h -4.387 l -0.788,-1.237 h 4.388 z" />
    <path
       id="path332"
       transform="translate(30.0274,44.7109)"
       d="m 0,0 h -4.388 l -0.787,-1.237 h 4.387 z" />
    <path
       id="path334"
       transform="translate(16.4141,44.7236)"
       d="m 0,0 h -4.387 l -0.788,-1.237 h 4.388 z" />
    <path
       id="path336"
       transform="translate(0,43.4609)"
       d="M 0,0 H 3.015 L 3.802,1.238 H 0" />
    <path
       id="path338"
       transform="translate(4.2647,48.8862)"
       d="M 0,0 -0.787,-1.238 H 3.6 L 4.388,0 Z" />
    <path
       id="path340"
       transform="translate(17.3526,47.6484)"
       d="M 0,0 H 4.387 L 5.175,1.238 H 0.787 Z" />
    <path
       id="path342"
       transform="translate(31.9776,47.6484)"
       d="M 0,0 H 4.387 L 5.175,1.238 H 0.787 Z" />
    <path
       id="path344"
       transform="translate(46.2647,48.8862)"
       d="M 0,0 -0.787,-1.238 H 3.6 L 4.388,0 Z" />
    <path
       id="path346"
       transform="translate(28.0274,52.936)"
       d="m 0,0 h -4.388 l -0.787,-1.237 h 4.387 z" />
    <path
       id="path348"
       transform="translate(41.9024,52.936)"
       d="m 0,0 h -4.388 l -0.787,-1.237 h 4.387 z" />
    <path
       id="path350"
       transform="translate(14.1143,51.6987)"
       d="M 0,0 0.788,1.237 H -3.6 L -4.387,0 Z" />
    <path
       id="path352"
       transform="translate(0,51.6987)"
       d="M 0,0 H 1.364 L 2.152,1.237 H 0" />
    <path
       id="path354"
       transform="translate(10.6026,28.6362)"
       d="M 0,0 H 4.387 L 5.175,1.237 H 0.787 Z" />
    <path
       id="path356"
       transform="translate(0,28.6362)"
       d="M 0,0 H 2.614 L 3.402,1.237 H 0" />
    <path
       id="path358"
       transform="translate(24.6026,28.6362)"
       d="M 0,0 H 4.387 L 5.175,1.237 H 0.787 Z" />
    <path
       id="path360"
       transform="translate(38.6026,28.6362)"
       d="M 0,0 H 4.387 L 5.175,1.237 H 0.787 Z" />
    <path
       id="path362"
       transform="translate(44.2276,24.7612)"
       d="M 0,0 H 4.387 L 5.175,1.237 H 0.787 Z" />
    <path
       id="path364"
       transform="translate(30.7276,24.7612)"
       d="M 0,0 H 4.387 L 5.175,1.237 H 0.787 Z" />
    <path
       id="path366"
       transform="translate(16.3526,24.7612)"
       d="M 0,0 H 4.387 L 5.175,1.237 H 0.787 Z" />
    <path
       id="path368"
       transform="translate(2.3526,24.7612)"
       d="M 0,0 H 4.387 L 5.175,1.237 H 0.787 Z" />
    <path
       id="path370"
       transform="translate(9.2276,20.7861)"
       d="M 0,0 H 4.387 L 5.175,1.237 H 0.787 Z" />
    <path
       id="path372"
       transform="translate(22.8526,20.7861)"
       d="M 0,0 H 4.387 L 5.175,1.237 H 0.787 Z" />
    <path
       id="path374"
       transform="translate(0,20.7861)"
       d="M 0,0 H 0.689 L 1.477,1.237 H 0" />
    <path
       id="path376"
       transform="translate(36.7276,20.7861)"
       d="M 0,0 H 4.387 L 5.175,1.237 H 0.787 Z" />
    <path
       id="path378"
       transform="translate(46.2276,17.0361)"
       d="M 0,0 H 4.387 L 5.175,1.237 H 0.787 Z" />
    <path
       id="path380"
       transform="translate(32.252,17.0361)"
       d="M 0,0 H 4.388 L 5.175,1.237 H 0.788 Z" />
    <path
       id="path382"
       transform="translate(17.752,17.0361)"
       d="M 0,0 H 4.388 L 5.175,1.237 H 0.788 Z" />
    <path
       id="path384"
       transform="translate(4.002,17.0361)"
       d="M 0,0 H 4.388 L 5.175,1.237 H 0.788 Z" />
    <path
       id="path386"
       transform="translate(0,13.5361)"
       d="M 0,0 H 2.74 L 3.527,1.237 H 0" />
    <path
       id="path388"
       transform="translate(16.3018,14.7734)"
       d="m 0,0 h -4.387 l -0.788,-1.237 h 4.388 z" />
    <path
       id="path390"
       transform="translate(29.4268,14.7734)"
       d="m 0,0 h -4.387 l -0.788,-1.237 h 4.388 z" />
    <path
       id="path392"
       transform="translate(43.5518,14.7734)"
       d="m 0,0 h -4.387 l -0.788,-1.237 h 4.388 z" />
    <path
       id="path394"
       transform="translate(49.8018,11.1484)"
       d="m 0,0 h -4.387 l -0.788,-1.237 h 4.388 z" />
    <path
       id="path396"
       transform="translate(31.2901,11.1484)"
       d="M 0,0 -0.788,-1.237 H 3.6 L 4.387,0 Z" />
    <path
       id="path398"
       transform="translate(16.502,9.9111)"
       d="M 0,0 H 4.388 L 5.175,1.237 H 0.788 Z" />
    <path
       id="path400"
       transform="translate(2.627,9.9111)"
       d="M 0,0 H 4.388 L 5.175,1.237 H 0.788 Z" />
    <path
       id="path402"
       transform="translate(0,5.6611)"
       d="M 0,0 H 0.064 L 0.853,1.237 H 0" />
    <path
       id="path404"
       transform="translate(12.6397,5.6611)"
       d="M 0,0 0.787,1.237 H -3.6 L -4.388,0 Z" />
    <path
       id="path406"
       transform="translate(21.752,5.6611)"
       d="M 0,0 H 4.388 L 5.175,1.237 H 0.788 Z" />
    <path
       id="path408"
       transform="translate(40.7647,5.6611)"
       d="M 0,0 0.787,1.237 H -3.6 L -4.388,0 Z" />
    <path
       id="path410"
       transform="translate(6.6768,3.1484)"
       d="m 0,0 h -4.387 l -0.788,-1.237 h 4.388 z" />
    <path
       id="path412"
       transform="translate(14.877,1.9111)"
       d="M 0,0 H 4.388 L 5.175,1.237 H 0.788 Z" />
    <path
       id="path414"
       transform="translate(33.6397,1.9111)"
       d="M 0,0 0.787,1.237 H -3.6 L -4.388,0 Z" />
    <path
       id="path416"
       transform="translate(46.8897,1.9111)"
       d="M 0,0 0.787,1.237 H -3.6 L -4.388,0 Z" />
    <path
       id="path418"
       transform="translate(28.0391,36.8472)"
       d="m 0,0 h -4.387 l -0.788,-1.237 h 4.388 z" />
    <path
       id="path420"
       transform="translate(37.1143,35.6787)"
       d="M 0,0 H 4.388 L 5.175,1.237 H 0.788 Z" />
    <path
       id="path422"
       transform="translate(0,35.666)"
       d="M 0,0 H 0.971 L 1.759,1.238 H 0" />
    <path
       id="path424"
       transform="translate(54.125,44.6987)"
       d="M 0,0 H -0.585 L -1.373,-1.238 H 0" />
    <path
       id="path426"
       transform="translate(54.125,52.936)"
       d="M 0,0 H -2.235 L -3.022,-1.237 H 0" />
    <path
       id="path428"
       transform="translate(54.125,29.8735)"
       d="M 0,0 H -0.985 L -1.772,-1.237 H 0" />
    <path
       id="path430"
       transform="translate(54.125,22.0234)"
       d="M 0,0 H -2.91 L -3.698,-1.237 H 0" />
    <path
       id="path432"
       transform="translate(54.125,14.7734)"
       d="M 0,0 H -0.86 L -1.647,-1.237 H 0" />
    <path
       id="path434"
       transform="translate(54.125,6.8984)"
       d="M 0,0 H -3.535 L -4.323,-1.237 H 0" />
    <path
       id="path436"
       transform="translate(54.125,36.9038)"
       d="M 0,0 H -2.629 L -3.417,-1.238 H 0" />
  </g>
</svg>
