<?xml version="1.0" encoding="UTF-8" standalone="no"?>
<svg
   xmlns:dc="http://purl.org/dc/elements/1.1/"
   xmlns:cc="http://creativecommons.org/ns#"
   xmlns:rdf="http://www.w3.org/1999/02/22-rdf-syntax-ns#"
   xmlns:svg="http://www.w3.org/2000/svg"
   xmlns="http://www.w3.org/2000/svg"
   height="54.125"
   width="54.125"
   id="svg670"
   version="1.1">
  <defs
     id="defs674" />
  <metadata
     id="metadata2">citation: U.S. Geological Survey, 2006, FGDC Digital Cartographic Standard for Geologic Map Symbolization (PostScript Implementation): U.S. Geological Survey Techniques and Methods 11-A2 [pubs.usgs.gov/tm/2006/11A02/]. converted by CEC Geology LLC 2018 from the USGS lithologic gs converted to inkscape by the University of Otago.<rdf:RDF>
  <cc:Work
     rdf:about="">
    <dc:format>image/svg+xml</dc:format>
    <dc:type
       rdf:resource="http://purl.org/dc/dcmitype/StillImage" />
    <dc:title></dc:title>
  </cc:Work>
</rdf:RDF>
</metadata>
  <g
     stroke-width=".3"
     stroke="#231f20"
     fill="none"

     id="g668"
     width="54.125"
     height="54.125">
    <path
       id="path4"
       transform="translate(12.6006,50.375)"
       d="M 0,0 H 6.074" />
    <path
       id="path6"
       transform="translate(41.1006,50.375)"
       d="M 0,0 H -8.926" />
    <path
       id="path8"
       transform="translate(53.9248,50.375)"
       d="M 0,0 H -7.375" />
    <path
       id="path10"
       transform="translate(41.1006,50.375)"
       d="M 0,0 H 5.449" />
    <path
       id="path12"
       transform="translate(12.6006,50.375)"
       d="M 0,0 H -6.676" />
    <path
       id="path14"
       transform="translate(53.9248,50.375)"
       d="M 0,0 H 0.2" />
    <path
       id="path16"
       transform="translate(27.4756,50.375)"
       d="M 0,0 H 4.699" />
    <path
       id="path18"
       transform="translate(27.4756,50.375)"
       d="M 0,0 H -8.801" />
    <path
       id="path20"
       transform="translate(0,50.375)"
       d="M 0,0 H 5.925" />
    <path
       id="path22"
       transform="translate(54.125,46.2002)"
       d="M 0,0 H -54.125" />
    <path
       id="path24"
       transform="translate(40.1631,42.0127)"
       d="M 0,0 H 13.25" />
    <path
       id="path26"
       transform="translate(11.9131,42.0127)"
       d="M 0,0 H -11.913" />
    <path
       id="path28"
       transform="translate(40.1631,42.0127)"
       d="M 0,0 H -13.375" />
    <path
       id="path30"
       transform="translate(26.7881,42.0127)"
       d="M 0,0 H -14.875" />
    <path
       id="path32"
       transform="translate(54.125,42.0127)"
       d="M 0,0 H -0.712" />
    <path
       id="path34"
       transform="translate(33.7588,12.4004)"
       d="M 0,0 H 14.875" />
    <path
       id="path36"
       transform="translate(6.8838,12.4004)"
       d="M 0,0 H 13.25" />
    <path
       id="path38"
       transform="translate(20.1338,12.4004)"
       d="M 0,0 H 13.625" />
    <path
       id="path40"
       transform="translate(48.6338,12.4004)"
       d="M 0,0 H 5.491" />
    <path
       id="path42"
       transform="translate(54.125,12.4004)"
       d="M 0,0 H 0.063" />
    <path
       id="path44"
       transform="translate(6.8838,12.4004)"
       d="M 0,0 H -6.884" />
    <path
       id="path46"
       transform="translate(53.7334,8.625)"
       d="M 0,0 H 0.392" />
    <path
       id="path48"
       transform="translate(26.4092,8.625)"
       d="M 0,0 H 13.875" />
    <path
       id="path50"
       transform="translate(11.8584,8.625)"
       d="M 0,0 H 14.551" />
    <path
       id="path52"
       transform="translate(40.2842,8.625)"
       d="M 0,0 H 13.449" />
    <path
       id="path54"
       transform="translate(11.8584,8.625)"
       d="M 0,0 H -11.858" />
    <path
       id="path56"
       transform="translate(46.5498,37.9942)"
       d="M 0,0 H 7.575" />
    <path
       id="path58"
       transform="translate(18.6748,37.9942)"
       d="M 0,0 H -12.75" />
    <path
       id="path60"
       transform="translate(31.9248,37.9942)"
       d="M 0,0 H -13.25" />
    <path
       id="path62"
       transform="translate(31.9248,37.9942)"
       d="M 0,0 H 14.625" />
    <path
       id="path64"
       transform="translate(5.9248,37.9942)"
       d="M 0,0 H -5.925" />
    <path
       id="path66"
       transform="translate(12.4756,34.7129)"
       d="M 0,0 H 15" />
    <path
       id="path68"
       transform="translate(41.2256,34.7129)"
       d="M 0,0 H -13.75" />
    <path
       id="path70"
       transform="translate(53.9756,34.7129)"
       d="M 0,0 H 0.149" />
    <path
       id="path72"
       transform="translate(12.4756,34.7129)"
       d="M 0,0 H -12.476" />
    <path
       id="path74"
       transform="translate(41.2256,34.7129)"
       d="M 0,0 H 12.75" />
    <path
       id="path76"
       transform="translate(48.6631,31.2881)"
       d="M 0,0 H 5.462" />
    <path
       id="path78"
       transform="translate(20.1631,31.2881)"
       d="M 0,0 H -13.5" />
    <path
       id="path80"
       transform="translate(33.7881,31.2881)"
       d="M 0,0 H -13.625" />
    <path
       id="path82"
       transform="translate(48.6631,31.2881)"
       d="M 0,0 H -14.875" />
    <path
       id="path84"
       transform="translate(6.6631,31.2881)"
       d="M 0,0 H -6.663" />
    <path
       id="path86"
       transform="translate(0,27.2373)"
       d="M 0,0 H 54.125" />
    <path
       id="path88"
       transform="translate(0,23.4375)"
       d="M 0,0 H 54.125" />
    <path
       id="path90"
       transform="translate(54.125,19.2373)"
       d="M 0,0 H 0.063" />
    <path
       id="path92"
       transform="translate(54.125,19.2373)"
       d="M 0,0 H -54.125" />
    <path
       id="path94"
       transform="translate(0,16.0127)"
       d="M 0,0 H 54.125" />
    <path
       id="path96"
       transform="translate(0,0.8379)"
       d="M 0,0 H 5.925" />
    <path
       id="path98"
       transform="translate(38.3584,0.8379)"
       d="M 0,0 H -6.184" />
    <path
       id="path100"
       transform="translate(38.3584,0.8379)"
       d="M 0,0 H 8.191" />
    <path
       id="path102"
       transform="translate(24.7334,0.8379)"
       d="M 0,0 H 7.441" />
    <path
       id="path104"
       transform="translate(51.7334,0.8379)"
       d="M 0,0 H -5.184" />
    <path
       id="path106"
       transform="translate(10.2959,0.8379)"
       d="M 0,0 H 8.379" />
    <path
       id="path108"
       transform="translate(10.2959,0.8379)"
       d="M 0,0 H -4.371" />
    <path
       id="path110"
       transform="translate(24.7334,0.8379)"
       d="M 0,0 H -6.059" />
    <path
       id="path112"
       transform="translate(51.7334,0.8379)"
       d="M 0,0 H 2.392" />
    <path
       id="path114"
       transform="translate(5.9248,54.125)"
       d="M 0,0 V -3.75" />
    <path
       id="path116"
       transform="translate(18.6748,54.125)"
       d="M 0,0 V -3.75" />
    <path
       id="path118"
       transform="translate(32.1748,54.125)"
       d="M 0,0 V -3.75" />
    <path
       id="path120"
       transform="translate(46.5498,54.125)"
       d="M 0,0 V -3.75" />
    <path
       id="path122"
       transform="translate(5.9248)"
       d="M 0,0 V 0.838" />
    <path
       id="path124"
       transform="translate(5.9248,0.8506)"
       d="M 0,0 V -0.013" />
    <path
       id="path126"
       transform="translate(18.6748,0.8506)"
       d="M 0,0 V -0.013" />
    <path
       id="path128"
       transform="translate(18.6748)"
       d="M 0,0 V 0.838" />
    <path
       id="path130"
       transform="translate(32.1748,0.8506)"
       d="M 0,0 V -0.013" />
    <path
       id="path132"
       transform="translate(32.1748)"
       d="M 0,0 V 0.838" />
    <path
       id="path134"
       transform="translate(46.5498,0.8506)"
       d="M 0,0 V -0.013" />
    <path
       id="path136"
       transform="translate(46.5498)"
       d="M 0,0 V 0.838" />
    <path
       id="path138"
       transform="translate(12.6006,50.375)"
       d="M 0,0 V 0.063" />
    <path
       id="path140"
       transform="translate(12.6006,50.375)"
       d="M 0,0 V -4.162" />
    <path
       id="path142"
       transform="translate(27.4756,50.375)"
       d="M 0,0 V -4.162" />
    <path
       id="path144"
       transform="translate(27.4756,50.375)"
       d="M 0,0 V 0.063" />
    <path
       id="path146"
       transform="translate(41.1006,50.375)"
       d="M 0,0 V -4.162" />
    <path
       id="path148"
       transform="translate(41.1006,50.375)"
       d="M 0,0 V 0.063" />
    <path
       id="path150"
       transform="translate(53.9248,50.375)"
       d="M 0,0 V 0.063" />
    <path
       id="path152"
       transform="translate(53.9248,50.375)"
       d="M 0,0 V -4.162" />
    <path
       id="path154"
       transform="translate(7.0381,42.0254)"
       d="M 0,0 V 4.05" />
    <path
       id="path156"
       transform="translate(20.2881,42.0254)"
       d="M 0,0 V 4.05" />
    <path
       id="path158"
       transform="translate(33.8506,42.0254)"
       d="M 0,0 V 4.05" />
    <path
       id="path160"
       transform="translate(48.7881,42.0254)"
       d="M 0,0 V 4.05" />
    <path
       id="path162"
       transform="translate(40.1631,42.0127)"
       d="M 0,0 V -3.987" />
    <path
       id="path164"
       transform="translate(40.1631,42.0127)"
       d="M 0,0 V 0.013" />
    <path
       id="path166"
       transform="translate(26.7881,42.0127)"
       d="M 0,0 V 0.013" />
    <path
       id="path168"
       transform="translate(26.7881,42.0127)"
       d="M 0,0 V -3.987" />
    <path
       id="path170"
       transform="translate(11.9131,42.0127)"
       d="M 0,0 V 0.013" />
    <path
       id="path172"
       transform="translate(11.9131,42.0127)"
       d="M 0,0 V -3.987" />
    <path
       id="path174"
       transform="translate(53.4131,42.0254)"
       d="M 0,0 V -0.013" />
    <path
       id="path176"
       transform="translate(53.4131,38.0254)"
       d="M 0,0 V 3.987" />
    <path
       id="path178"
       transform="translate(46.5498,37.9942)"
       d="M 0,0 V 0.031" />
    <path
       id="path180"
       transform="translate(46.5498,37.9942)"
       d="M 0,0 V -3.269" />
    <path
       id="path182"
       transform="translate(31.9248,37.9942)"
       d="M 0,0 V 0.031" />
    <path
       id="path184"
       transform="translate(31.9248,37.9942)"
       d="M 0,0 V -3.269" />
    <path
       id="path186"
       transform="translate(18.6748,37.9942)"
       d="M 0,0 V 0.031" />
    <path
       id="path188"
       transform="translate(18.6748,37.9942)"
       d="M 0,0 V -3.269" />
    <path
       id="path190"
       transform="translate(5.9248,37.9942)"
       d="M 0,0 V 0.031" />
    <path
       id="path192"
       transform="translate(5.9248,37.9942)"
       d="M 0,0 V -3.269" />
    <path
       id="path194"
       transform="translate(12.4756,34.7129)"
       d="M 0,0 V 0.013" />
    <path
       id="path196"
       transform="translate(12.4756,34.7129)"
       d="M 0,0 V -3.413" />
    <path
       id="path198"
       transform="translate(27.4756,34.7129)"
       d="M 0,0 V -3.413" />
    <path
       id="path200"
       transform="translate(27.4756,34.7129)"
       d="M 0,0 V 0.013" />
    <path
       id="path202"
       transform="translate(41.2256,34.7129)"
       d="M 0,0 V 0.013" />
    <path
       id="path204"
       transform="translate(41.2256,34.7129)"
       d="M 0,0 V -3.413" />
    <path
       id="path206"
       transform="translate(53.9756,34.7129)"
       d="M 0,0 V 0.013" />
    <path
       id="path208"
       transform="translate(53.9756,34.7129)"
       d="M 0,0 V -3.413" />
    <path
       id="path210"
       transform="translate(6.6631,31.2998)"
       d="M 0,0 V -0.012" />
    <path
       id="path212"
       transform="translate(6.6631,31.2881)"
       d="M 0,0 V -4.038" />
    <path
       id="path214"
       transform="translate(20.1631,31.2998)"
       d="M 0,0 V -0.012" />
    <path
       id="path216"
       transform="translate(20.1631,31.2881)"
       d="M 0,0 V -4.038" />
    <path
       id="path218"
       transform="translate(33.7881,31.2881)"
       d="M 0,0 V -4.038" />
    <path
       id="path220"
       transform="translate(33.7881,31.2998)"
       d="M 0,0 V -0.012" />
    <path
       id="path222"
       transform="translate(48.6631,31.2881)"
       d="M 0,0 V -4.038" />
    <path
       id="path224"
       transform="translate(48.6631,31.2881)"
       d="M 0,0 V 0.012" />
    <path
       id="path226"
       transform="translate(40.0381,27.1875)"
       d="M 0,0 V -3.737" />
    <path
       id="path228"
       transform="translate(26.7129,27.1875)"
       d="M 0,0 V -3.737" />
    <path
       id="path230"
       transform="translate(11.7129,27.1875)"
       d="M 0,0 V -3.737" />
    <path
       id="path232"
       transform="translate(53.2666,23.4502)"
       d="M 0,0 V 3.737" />
    <path
       id="path234"
       transform="translate(5.5254,23.3877)"
       d="M 0,0 V -4.138" />
    <path
       id="path236"
       transform="translate(18.5254,23.3877)"
       d="M 0,0 V -4.138" />
    <path
       id="path238"
       transform="translate(32.1504,23.3877)"
       d="M 0,0 V -4.138" />
    <path
       id="path240"
       transform="translate(46.4004,23.3877)"
       d="M 0,0 V -4.138" />
    <path
       id="path242"
       transform="translate(42.2002,19.1875)"
       d="M 0,0 V -3.162" />
    <path
       id="path244"
       transform="translate(28.0498,19.1875)"
       d="M 0,0 V -3.162" />
    <path
       id="path246"
       transform="translate(12.9248,19.1875)"
       d="M 0,0 V -3.162" />
    <path
       id="path248"
       transform="translate(0.5088,19.1875)"
       d="M 0,0 V -3.162" />
    <path
       id="path250"
       transform="translate(6.8838,12.4004)"
       d="M 0,0 V 3.563" />
    <path
       id="path252"
       transform="translate(20.1338,12.4004)"
       d="M 0,0 V 3.563" />
    <path
       id="path254"
       transform="translate(33.7588,12.4004)"
       d="M 0,0 V 3.563" />
    <path
       id="path256"
       transform="translate(48.6338,12.4004)"
       d="M 0,0 V 3.563" />
    <path
       id="path258"
       transform="translate(40.2842,8.625)"
       d="M 0,0 V -0.037" />
    <path
       id="path260"
       transform="translate(40.2842,8.625)"
       d="M 0,0 V 3.725" />
    <path
       id="path262"
       transform="translate(26.4092,8.625)"
       d="M 0,0 V 3.725" />
    <path
       id="path264"
       transform="translate(26.4092,8.625)"
       d="M 0,0 V -0.037" />
    <path
       id="path266"
       transform="translate(11.8584,8.625)"
       d="M 0,0 V 3.725" />
    <path
       id="path268"
       transform="translate(11.8584,8.625)"
       d="M 0,0 V -0.037" />
    <path
       id="path270"
       transform="translate(53.7334,8.625)"
       d="M 0,0 V -0.037" />
    <path
       id="path272"
       transform="translate(53.7334,8.625)"
       d="M 0,0 V 3.725" />
    <path
       id="path274"
       transform="translate(0,4.2129)"
       d="M 0,0 H 10.296" />
    <path
       id="path276"
       transform="translate(51.7334,4.2129)"
       d="M 0,0 H 2.392" />
    <path
       id="path278"
       transform="translate(38.3584,4.2129)"
       d="M 0,0 H 13.375" />
    <path
       id="path280"
       transform="translate(38.3584,4.2129)"
       d="M 0,0 H -13.625" />
    <g
       id="g288"
       transform="translate(10.2959,4.2129)">
      <path
         id="path282"
         d="M 0,0 H 14.438" />
      <path
         id="path284"
         d="M 0,0 V 0.025" />
      <path
         id="path286"
         d="M 0,0 V -3.375" />
    </g>
    <path
       id="path290"
       transform="translate(10.2959,0.8379)"
       d="M 0,0 V -0.063" />
    <path
       id="path292"
       transform="translate(24.7334,4.2129)"
       d="M 0,0 V -3.375" />
    <path
       id="path294"
       transform="translate(24.7334,4.2129)"
       d="M 0,0 V 0.025" />
    <path
       id="path296"
       transform="translate(24.7334,0.8379)"
       d="M 0,0 V -0.063" />
    <path
       id="path298"
       transform="translate(38.3584,0.8379)"
       d="M 0,0 V 3.375" />
    <path
       id="path300"
       transform="translate(38.3584,0.8379)"
       d="M 0,0 V -0.063" />
    <path
       id="path302"
       transform="translate(38.3584,4.2129)"
       d="M 0,0 V 0.025" />
    <path
       id="path304"
       transform="translate(51.7334,0.8379)"
       d="M 0,0 V -0.063" />
    <path
       id="path306"
       transform="translate(51.7334,4.2129)"
       d="M 0,0 V 0.025" />
    <path
       id="path308"
       transform="translate(51.7334,4.2129)"
       d="M 0,0 V -3.375" />
    <path
       id="path310"
       transform="translate(4.5713,8.5879)"
       d="M 0,0 V -4.35" />
    <path
       id="path312"
       transform="translate(17.5713,8.5879)"
       d="M 0,0 V -4.35" />
    <path
       id="path314"
       transform="translate(31.5713,8.5879)"
       d="M 0,0 V -4.35" />
    <path
       id="path316"
       transform="translate(46.1338,8.5879)"
       d="M 0,0 V -4.35" />
    <path
       id="path318"
       transform="translate(21.9297,6.9668)"
       d="M 0,0 C 1.125,-2.475 3.824,-2.25 4.725,0.226 2.699,-0.787 2.024,-0.787 0,0 Z" />
    <path
       id="path320"
       transform="translate(49.3623,11.2754)"
       d="M 0,0 C -2.024,-1.013 -2.699,-1.013 -4.725,-0.225 -3.6,-2.7 -0.899,-2.475 0,0 Z" />
    <path
       id="path322"
       transform="translate(43.4043,15.1084)"
       d="M 0,0 C -2.025,-1.013 -2.7,-1.013 -4.725,-0.225 -3.6,-2.699 -0.9,-2.475 0,0 Z" />
    <path
       id="path324"
       transform="translate(33.4922,18.3838)"
       d="M 0,0 C 1.125,-2.475 3.824,-2.25 4.725,0.225 2.699,-0.788 2.024,-0.788 0,0 Z" />
    <path
       id="path326"
       transform="translate(22.8672,22.0508)"
       d="M 0,0 C 1.125,-2.476 3.824,-2.25 4.725,0.225 2.699,-0.788 2.024,-0.788 0,0 Z" />
    <path
       id="path328"
       transform="translate(16.9297,25.9922)"
       d="M 0,0 C 1.125,-2.475 3.824,-2.25 4.725,0.225 2.699,-0.787 2.024,-0.787 0,0 Z" />
    <path
       id="path330"
       transform="translate(10.7207,30.0088)"
       d="M 0,0 C 1.125,-2.475 3.825,-2.25 4.726,0.225 2.7,-0.787 2.025,-0.787 0,0 Z" />
    <path
       id="path332"
       transform="translate(8.4463,33.9834)"
       d="M 0,0 C -2.025,-1.013 -2.7,-1.013 -4.726,-0.225 -3.601,-2.7 -0.9,-2.475 0,0 Z" />
    <path
       id="path334"
       transform="translate(0,35.4483)"
       d="M 0,0 C 0.757,0.217 1.445,0.857 1.821,1.89 1.076,1.517 0.514,1.282 0,1.173" />
    <path
       id="path336"
       transform="translate(44.1377,26.1338)"
       d="M 0,0 C 1.125,-2.475 3.825,-2.25 4.725,0.225 2.7,-0.788 2.025,-0.788 0,0 Z" />
    <path
       id="path338"
       transform="translate(38.6797,29.8633)"
       d="M 0,0 C 1.125,-2.476 3.824,-2.25 4.725,0.225 2.699,-0.788 2.024,-0.788 0,0 Z" />
    <path
       id="path340"
       transform="translate(36.8213,33.7959)"
       d="M 0,0 C -2.025,-1.012 -2.7,-1.012 -4.726,-0.225 -3.601,-2.699 -0.9,-2.475 0,0 Z" />
    <path
       id="path342"
       transform="translate(23.2422,37.0752)"
       d="M 0,0 C 1.125,-2.475 3.824,-2.25 4.725,0.226 2.699,-0.787 2.024,-0.787 0,0 Z" />
    <path
       id="path344"
       transform="translate(22.3213,41.0254)"
       d="M 0,0 C -2.025,-1.013 -2.7,-1.013 -4.726,-0.225 -3.601,-2.7 -0.9,-2.475 0,0 Z" />
    <path
       id="path346"
       transform="translate(15.3623,44.8379)"
       d="M 0,0 C -2.024,-1.013 -2.699,-1.013 -4.725,-0.225 -3.6,-2.7 -0.899,-2.475 0,0 Z" />
    <path
       id="path348"
       transform="translate(3.8799,49.0088)"
       d="M 0,0 C 1.125,-2.475 3.824,-2.25 4.725,0.225 2.699,-0.787 2.024,-0.787 0,0 Z" />
    <path
       id="path350"
       transform="translate(49.4873,40.9209)"
       d="M 0,0 C -2.024,-1.012 -2.699,-1.012 -4.725,-0.225 -3.6,-2.699 -0.899,-2.475 0,0 Z" />
    <path
       id="path352"
       transform="translate(43.7588,44.9424)"
       d="M 0,0 C -2.025,-1.013 -2.7,-1.013 -4.726,-0.226 -3.601,-2.7 -0.9,-2.476 0,0 Z" />
    <path
       id="path354"
       transform="translate(31.6377,48.8418)"
       d="M 0,0 C 1.125,-2.475 3.825,-2.25 4.725,0.226 2.7,-0.787 2.025,-0.787 0,0 Z" />
    <path
       id="path356"
       transform="translate(0,51.6035)"
       d="M 0,0 C 0.699,0.254 1.324,0.877 1.675,1.843 1,1.505 0.475,1.28 0,1.16" />
    <path
       id="path358"
       transform="translate(27.8838,53.3633)"
       d="M 0,0 C -2.025,-1.013 -2.7,-1.013 -4.726,-0.226 -3.601,-2.7 -0.9,-2.476 0,0 Z" />
    <path
       id="path360"
       transform="translate(0,6.001)"
       d="M 0,0 C 0.248,0.293 0.46,0.655 0.617,1.087 0.396,0.976 0.192,0.879 0,0.792" />
    <path
       id="path362"
       transform="translate(16.6377,11.2549)"
       d="M 0,0 C 1.125,-2.476 3.825,-2.25 4.725,0.225 2.7,-0.788 2.025,-0.788 0,0 Z" />
    <path
       id="path364"
       transform="translate(15.7373,15.1709)"
       d="M 0,0 C -2.024,-1.013 -2.699,-1.013 -4.725,-0.225 -3.6,-2.699 -0.899,-2.475 0,0 Z" />
    <path
       id="path366"
       transform="translate(4.5547,18.417)"
       d="M 0,0 C 1.125,-2.475 3.824,-2.25 4.725,0.226 2.699,-0.787 2.024,-0.787 0,0 Z" />
    <path
       id="path368"
       transform="translate(0,20.6133)"
       d="M 0,0 C 0.643,0.282 1.21,0.886 1.538,1.787 0.927,1.481 0.439,1.269 0,1.142" />
    <path
       id="path370"
       transform="translate(34.1006,3.4004)"
       d="M 0,0 C -2.025,-1.013 -2.7,-1.013 -4.726,-0.225 -3.601,-2.7 -0.9,-2.475 0,0 Z" />
    <path
       id="path372"
       transform="translate(6.5752,3.4004)"
       d="M 0,0 C -2.025,-1.013 -2.7,-1.013 -4.725,-0.225 -3.6,-2.7 -0.9,-2.475 0,0 Z" />
    <path
       id="path374"
       transform="translate(47.3838,1.4961)"
       d="M 0,0 C -0.9,2.476 -3.601,2.7 -4.726,0.226 -2.7,1.013 -2.025,1.013 0,0 Z" />
    <path
       id="path376"
       transform="translate(0,43.7158)"
       d="M 0,0 C 0.94,0.151 1.689,-0.075 3.029,-0.745 2.457,0.828 1.159,1.491 0,1.132" />
    <path
       id="path378"
       transform="translate(7.8418,39.0752)"
       d="M 0,0 C -0.9,2.476 -3.6,2.7 -4.725,0.226 -2.7,1.013 -2.025,1.013 0,0 Z" />
    <path
       id="path380"
       transform="translate(9.4922,35.6543)"
       d="M 0,0 C 2.024,0.788 2.699,0.788 4.725,-0.225 3.824,2.25 1.125,2.476 0,0 Z" />
    <path
       id="path382"
       transform="translate(22.3623,31.8672)"
       d="M 0,0 C -0.899,2.475 -3.6,2.7 -4.725,0.225 -2.699,1.013 -2.024,1.013 0,0 Z" />
    <path
       id="path384"
       transform="translate(24.6172,28.5088)"
       d="M 0,0 C 2.024,0.787 2.7,0.787 4.725,-0.226 3.824,2.25 1.125,2.475 0,0 Z" />
    <path
       id="path386"
       transform="translate(30.7832,24.4883)"
       d="M 0,0 C 2.025,0.787 2.7,0.787 4.726,-0.226 3.825,2.25 1.125,2.475 0,0 Z" />
    <path
       id="path388"
       transform="translate(36.6582,20.5088)"
       d="M 0,0 C 2.025,0.787 2.7,0.787 4.726,-0.225 3.825,2.25 1.125,2.475 0,0 Z" />
    <path
       id="path390"
       transform="translate(46.1006,16.8672)"
       d="M 0,0 C 2.024,0.787 2.699,0.787 4.725,-0.225 3.824,2.25 1.125,2.475 0,0 Z" />
    <path
       id="path392"
       transform="translate(17.6377,47.4883)"
       d="M 0,0 C 2.025,0.787 2.7,0.787 4.725,-0.226 3.825,2.25 1.125,2.475 0,0 Z" />
    <path
       id="path394"
       transform="translate(14.9248,51.2754)"
       d="M 0,0 C -0.899,2.476 -3.6,2.7 -4.725,0.226 -2.699,1.013 -2.024,1.013 0,0 Z" />
    <path
       id="path396"
       transform="translate(41.5498,51.3926)"
       d="M 0,0 C -0.899,2.475 -3.6,2.699 -4.725,0.225 -2.699,1.012 -2.024,1.012 0,0 Z" />
    <path
       id="path398"
       transform="translate(29.5918,43.0967)"
       d="M 0,0 C -0.9,2.475 -3.6,2.699 -4.725,0.225 -2.7,1.012 -2.025,1.012 0,0 Z" />
    <path
       id="path400"
       transform="translate(35.5039,38.9717)"
       d="M 0,0 C -0.899,2.475 -3.6,2.699 -4.725,0.225 -2.699,1.012 -2.024,1.012 0,0 Z" />
    <path
       id="path402"
       transform="translate(41.2168,35.2627)"
       d="M 0,0 C -0.9,2.476 -3.6,2.7 -4.725,0.226 -2.7,1.013 -2.025,1.013 0,0 Z" />
    <path
       id="path404"
       transform="translate(49.4668,31.9502)"
       d="M 0,0 C -0.9,2.476 -3.6,2.7 -4.725,0.226 -2.7,1.013 -2.025,1.013 0,0 Z" />
    <path
       id="path406"
       transform="translate(44.9082,47.6758)"
       d="M 0,0 C 2.025,0.787 2.7,0.787 4.726,-0.226 3.825,2.25 1.125,2.475 0,0 Z" />
    <path
       id="path408"
       transform="translate(19.7998,1.5127)"
       d="M 0,0 C -0.899,2.476 -3.6,2.7 -4.725,0.226 -2.699,1.013 -2.024,1.013 0,0 Z" />
    <path
       id="path410"
       transform="translate(8.5625,5.6758)"
       d="M 0,0 C 2.025,0.787 2.7,0.787 4.726,-0.226 3.825,2.25 1.125,2.475 0,0 Z" />
    <path
       id="path412"
       transform="translate(36.7627,5.8008)"
       d="M 0,0 C 2.025,0.787 2.7,0.787 4.725,-0.226 3.825,2.25 1.125,2.475 0,0 Z" />
    <path
       id="path414"
       transform="translate(30.3877,9.8008)"
       d="M 0,0 C 2.025,0.787 2.7,0.787 4.725,-0.226 3.825,2.25 1.125,2.475 0,0 Z" />
    <path
       id="path416"
       transform="translate(29.1748,13.2002)"
       d="M 0,0 C -0.899,2.476 -3.6,2.7 -4.725,0.226 -2.699,1.013 -2.024,1.013 0,0 Z" />
    <path
       id="path418"
       transform="translate(17.7832,16.8379)"
       d="M 0,0 C 2.025,0.787 2.7,0.787 4.726,-0.225 3.825,2.25 1.125,2.475 0,0 Z" />
    <path
       id="path420"
       transform="translate(9.5957,20.4883)"
       d="M 0,0 C 2.025,0.787 2.7,0.787 4.726,-0.226 3.825,2.25 1.125,2.475 0,0 Z" />
    <path
       id="path422"
       transform="translate(3.4336,24.6338)"
       d="M 0,0 C 2.025,0.787 2.7,0.787 4.726,-0.225 3.825,2.25 1.125,2.475 0,0 Z" />
    <path
       id="path424"
       transform="translate(0,30.0586)"
       d="M 0,0 C 1.211,0.523 2.642,-0.122 3.25,-1.796 1.807,-1.074 1.05,-0.867 0,-1.093" />
    <path
       id="path426"
       transform="translate(3.3047,9.8008)"
       d="M 0,0 C 2.024,0.787 2.7,0.787 4.725,-0.226 3.825,2.25 1.125,2.475 0,0 Z" />
    <path
       id="path428"
       transform="translate(0,13.9199)"
       d="M 0,0 C 1.109,0.265 1.868,0.069 3.362,-0.678 2.735,1.047 1.233,1.679 0,1.065" />
    <path
       id="path430"
       transform="translate(54.125,36.6113)"
       d="M 0,0 C -0.865,-0.174 -1.603,0.012 -2.862,0.502 -2.215,-0.922 -1.047,-1.452 0,-1.175" />
    <path
       id="path432"
       transform="translate(54.125,52.7529)"
       d="M 0,0 C -0.931,-0.227 -1.678,-0.049 -3.008,0.469 -2.33,-1.021 -1.082,-1.532 0,-1.163" />
    <path
       id="path434"
       transform="translate(54.125,6.7744)"
       d="M 0,0 C -1.542,-0.688 -2.277,-0.607 -4.066,0.089 -3.148,-1.932 -1.182,-2.152 0,-0.82" />
    <path
       id="path436"
       transform="translate(54.125,21.7422)"
       d="M 0,0 C -0.996,-0.278 -1.751,-0.109 -3.146,0.434 -2.439,-1.12 -1.112,-1.609 0,-1.146" />
    <path
       id="path438"
       transform="translate(54.125,44.835)"
       d="M 0,0 C -0.649,-0.216 -1.252,-0.755 -1.653,-1.639 -0.988,-1.38 -0.47,-1.207 0,-1.126" />
    <path
       id="path440"
       transform="translate(54.125,30.04)"
       d="M 0,0 C -0.564,-0.257 -1.077,-0.769 -1.433,-1.552 -0.87,-1.333 -0.412,-1.176 0,-1.083" />
    <path
       id="path442"
       transform="translate(54.125,14.9639)"
       d="m 0,0 c -0.52,-0.271 -0.988,-0.767 -1.32,-1.497 0.511,0.199 0.937,0.348 1.32,0.442" />
    <path
       id="path444"
       transform="translate(49.9375,3.1758)"
       d="M 0,0 -1.25,-1.625" />
    <path
       id="path446"
       transform="translate(9.0752,3.3008)"
       d="M 0,0 -1.875,-1.625" />
    <path
       id="path448"
       transform="translate(40.75,1.5508)"
       d="M 0,0 -1.125,1.75" />
    <path
       id="path450"
       transform="translate(44.7715,6.8633)"
       d="M 0,0 -2.188,-1.313" />
    <path
       id="path452"
       transform="translate(50.25,9.4883)"
       d="M 0,0 1.875,1.625" />
    <path
       id="path454"
       transform="translate(38.25,11.1758)"
       d="M 0,0 -1.313,-1.75" />
    <path
       id="path456"
       transform="translate(34.9375,5.2383)"
       d="M 0,0 -1.125,1.75" />
    <path
       id="path458"
       transform="translate(27.875,1.4883)"
       d="M 0,0 -1.125,1.75" />
    <path
       id="path460"
       transform="translate(29.125,7.4258)"
       d="M 0,0 -1.063,-1.938" />
    <path
       id="path462"
       transform="translate(20.5625,5.4883)"
       d="M 0,0 -1.125,1.75" />
    <path
       id="path464"
       transform="translate(22.5547,3.3008)"
       d="M 0,0 -1.188,-1.813" />
    <path
       id="path466"
       transform="translate(36.875,3.3008)"
       d="M 0,0 -1.875,-1.625" />
    <path
       id="path468"
       transform="translate(13.4375,1.6133)"
       d="M 0,0 -1.125,1.75" />
    <path
       id="path470"
       transform="translate(24.3125,11.1133)"
       d="M 0,0 -1.875,-1.625" />
    <path
       id="path472"
       transform="translate(16.2627,7.0625)"
       d="M 0,0 -1.875,-1.625" />
    <path
       id="path474"
       transform="translate(3.8125,6.8008)"
       d="M 0,0 -1.875,-1.625" />
    <path
       id="path476"
       transform="translate(14.6875,9.4883)"
       d="M 0,0 -0.688,1.938" />
    <path
       id="path478"
       transform="translate(7.1006,5.4258)"
       d="M 0,0 -1.125,1.75" />
    <path
       id="path480"
       transform="translate(49,5.0508)"
       d="M 0,0 -1.125,1.75" />
    <path
       id="path482"
       transform="translate(52.75,3.4258)"
       d="M 0,0 1.125,-1.75" />
    <path
       id="path484"
       transform="translate(43.3125,9.4258)"
       d="M 0,0 -1.813,1.625" />
    <path
       id="path486"
       transform="translate(30.625,13.2383)"
       d="M 0,0 1.875,1.625" />
    <path
       id="path488"
       transform="translate(22.0215,14.9883)"
       d="M 0,0 1.125,-1.75" />
    <path
       id="path490"
       transform="translate(40.667,18.3633)"
       d="M 0,0 -1.875,-1.625" />
    <path
       id="path492"
       transform="translate(35.375,13.3008)"
       d="M 0,0 1.875,1.625" />
    <path
       id="path494"
       transform="translate(31.959,16.9258)"
       d="M 0,0 -1.625,1.563" />
    <path
       id="path496"
       transform="translate(30.4375,22.0508)"
       d="M 0,0 -1.875,-1.625" />
    <path
       id="path498"
       transform="translate(20.875,20.1758)"
       d="M 0,0 -1,2.125" />
    <path
       id="path500"
       transform="translate(25.125,16.6758)"
       d="M 0,0 -1.125,1.75" />
    <path
       id="path502"
       transform="translate(17.209,21.9258)"
       d="M 0,0 -1.875,-1.625" />
    <path
       id="path504"
       transform="translate(16.5,18.1758)"
       d="M 0,0 -1.938,-1.313" />
    <path
       id="path506"
       transform="translate(8.1875,13.2383)"
       d="M 0,0 1.875,1.625" />
    <path
       id="path508"
       transform="translate(2.5,11.1758)"
       d="M 0,0 -1.512,-1.563" />
    <path
       id="path510"
       transform="translate(8,20.3008)"
       d="M 0,0 -1.125,1.75" />
    <path
       id="path512"
       transform="translate(11.75,17.0508)"
       d="M 0,0 -1.5,1.5" />
    <path
       id="path514"
       transform="translate(4.25,15.0508)"
       d="M 0,0 1.125,-1.75" />
    <path
       id="path516"
       transform="translate(10.417,9.6963)"
       d="M 0,0 -1.625,1.625" />
    <path
       id="path518"
       transform="translate(28.75,9.3633)"
       d="M 0,0 -1.125,1.75" />
    <path
       id="path520"
       transform="translate(17.0625,14.9883)"
       d="M 0,0 1.125,-1.75" />
    <path
       id="path522"
       transform="translate(18.584,30.0508)"
       d="M 0,0 -1.875,-1.625" />
    <path
       id="path524"
       transform="translate(15.25,26.0508)"
       d="M 0,0 -1.875,-1.625" />
    <path
       id="path526"
       transform="translate(4.25,21.8008)"
       d="M 0,0 -1.875,-1.625" />
    <path
       id="path528"
       transform="translate(3.375,18.2383)"
       d="M 0,0 -1.5,-1.313" />
    <path
       id="path530"
       transform="translate(2.8633,26.2383)"
       d="M 0,0 -1.875,-1.625" />
    <path
       id="path532"
       transform="translate(9.125,28.4258)"
       d="M 0,0 -1.125,1.75" />
    <path
       id="path534"
       transform="translate(10.6006,24.5508)"
       d="M 0,0 -1.125,1.75" />
    <path
       id="path536"
       transform="translate(32.542,29.9258)"
       d="M 0,0 -1.875,-1.625" />
    <path
       id="path538"
       transform="translate(29.875,25.9883)"
       d="M 0,0 -1.875,-1.625" />
    <path
       id="path540"
       transform="translate(23.25,28.1758)"
       d="M 0,0 -1.75,1.875" />
    <path
       id="path542"
       transform="translate(37.75,24.4258)"
       d="M 0,0 -1.125,1.75" />
    <path
       id="path544"
       transform="translate(35,19.9883)"
       d="M 0,0 -1.125,1.75" />
    <path
       id="path546"
       transform="translate(24.25,24.5508)"
       d="M 0,0 -1.125,1.75" />
    <path
       id="path548"
       transform="translate(9.375,33.8418)"
       d="M 0,0 1.625,-1.666" />
    <path
       id="path550"
       transform="translate(5.6133,28.0293)"
       d="M 0,0 -1.125,1.75" />
    <path
       id="path552"
       transform="translate(25.8125,33.6758)"
       d="M 0,0 -1.875,-1.625" />
    <path
       id="path554"
       transform="translate(15.8545,31.8633)"
       d="M 0,0 -1.125,1.75" />
    <path
       id="path556"
       transform="translate(39.625,33.6133)"
       d="M 0,0 -1.875,-1.625" />
    <path
       id="path558"
       transform="translate(37.1875,29.9258)"
       d="M 0,0 -1.875,-1.625" />
    <path
       id="path560"
       transform="translate(42.9375,26.0508)"
       d="M 0,0 -1.875,-1.625" />
    <path
       id="path562"
       transform="translate(44.75,21.9258)"
       d="M 0,0 -1.875,-1.625" />
    <path
       id="path564"
       transform="translate(44.9629,18.4883)"
       d="M 0,0 -1.188,-1.688" />
    <path
       id="path566"
       transform="translate(51.8125,14.8633)"
       d="M 0,0 -1.875,-1.625" />
    <path
       id="path568"
       transform="translate(30.6875,31.9883)"
       d="M 0,0 -1.125,1.75" />
    <path
       id="path570"
       transform="translate(52.8213,33.6963)"
       d="M 0,0 -1.875,-1.625" />
    <path
       id="path572"
       transform="translate(51.9004,30.1133)"
       d="M 0,0 -1.875,-1.625" />
    <path
       id="path574"
       transform="translate(47.9375,35.4258)"
       d="M 0,0 1.875,1.625" />
    <path
       id="path576"
       transform="translate(43.5625,32.0508)"
       d="M 0,0 -1.125,1.75" />
    <path
       id="path578"
       transform="translate(46.125,28.4258)"
       d="M 0,0 -1.125,1.75" />
    <path
       id="path580"
       transform="translate(51,24.4258)"
       d="M 0,0 -1.125,1.75" />
    <path
       id="path582"
       transform="translate(49.5625,20.3008)"
       d="M 0,0 -1.125,1.75" />
    <path
       id="path584"
       transform="translate(53,16.7383)"
       d="M 0,0 -1.125,1.75" />
    <path
       id="path586"
       transform="translate(45,14.9883)"
       d="M 0,0 1.125,-1.75" />
    <path
       id="path588"
       transform="translate(44,35.4883)"
       d="M 0,0 -1.125,1.75" />
    <path
       id="path590"
       transform="translate(50.6875,47.3213)"
       d="M 0,0 1.875,1.625" />
    <path
       id="path592"
       transform="translate(50,42.9883)"
       d="M 0,0 1.375,1.688" />
    <path
       id="path594"
       transform="translate(42.375,49.1133)"
       d="M 0,0 1.375,-1.438" />
    <path
       id="path596"
       transform="translate(45.625,44.8008)"
       d="M 0,0 1.125,-1.75" />
    <path
       id="path598"
       transform="translate(52,39.1133)"
       d="M 0,0 -1.125,1.75" />
    <path
       id="path600"
       transform="translate(48.25,53.4883)"
       d="M 0,0 1.125,-1.75" />
    <path
       id="path602"
       transform="translate(29.1875,51.8008)"
       d="M 0,0 1.875,1.625" />
    <path
       id="path604"
       transform="translate(43.25,51.9258)"
       d="M 0,0 1.875,1.625" />
    <path
       id="path606"
       transform="translate(37.875,47.4258)"
       d="M 0,0 1.875,1.625" />
    <path
       id="path608"
       transform="translate(35.6875,42.9883)"
       d="M 0,0 2.188,1.938" />
    <path
       id="path610"
       transform="translate(41.125,39.5508)"
       d="M 0,0 2.375,1.375" />
    <path
       id="path612"
       transform="translate(20.542,53.4258)"
       d="M 0,0 1.438,-1.976" />
    <path
       id="path614"
       transform="translate(33.5,53.4258)"
       d="M 0,0 0.75,-1.851" />
    <path
       id="path616"
       transform="translate(29.167,48.8008)"
       d="M 0,0 1.125,-1.75" />
    <path
       id="path618"
       transform="translate(30.625,42.9883)"
       d="M 0,0 1.875,1.625" />
    <path
       id="path620"
       transform="translate(21.625,44.9258)"
       d="M 0,0 2,-1.5" />
    <path
       id="path622"
       transform="translate(23.417,38.8008)"
       d="M 0,0 1.438,1.875" />
    <path
       id="path624"
       transform="translate(14.4375,40.8008)"
       d="M 0,0 1.125,-1.75" />
    <path
       id="path626"
       transform="translate(36.6045,39.3008)"
       d="M 0,0 2.375,1.5" />
    <path
       id="path628"
       transform="translate(33.625,35.5508)"
       d="M 0,0 1.875,1.625" />
    <path
       id="path630"
       transform="translate(28.625,40.9258)"
       d="M 0,0 0.625,-2.125" />
    <path
       id="path632"
       transform="translate(29.0625,37.1133)"
       d="M 0,0 1.125,-1.75" />
    <path
       id="path634"
       transform="translate(16.25,43.0508)"
       d="M 0,0 1.875,1.625" />
    <path
       id="path636"
       transform="translate(9.0625,39.0508)"
       d="M 0,0 1.875,1.625" />
    <path
       id="path638"
       transform="translate(17.5,36.9883)"
       d="M 0,0 -1.875,-1.625" />
    <path
       id="path640"
       transform="translate(2.6006,33.8008)"
       d="M 0,0 -1.476,-1.625" />
    <path
       id="path642"
       transform="translate(22.2715,37.1133)"
       d="M 0,0 -1.875,-1.625" />
    <path
       id="path644"
       transform="translate(4.5,37.0508)"
       d="M 0,0 -1.875,-1.625" />
    <path
       id="path646"
       transform="translate(8.75,45.0508)"
       d="M 0,0 0.813,-2.188" />
    <path
       id="path648"
       transform="translate(0.75,40.7383)"
       d="M 0,0 1.125,-1.75" />
    <path
       id="path650"
       transform="translate(8.375,35.4258)"
       d="M 0,0 -1.125,1.75" />
    <path
       id="path652"
       transform="translate(4.125,44.7383)"
       d="M 0,0 1.125,-1.75" />
    <path
       id="path654"
       transform="translate(2.7373,47.1133)"
       d="M 0,0 -1.125,1.75" />
    <path
       id="path656"
       transform="translate(26,48.7383)"
       d="M 0,0 -2.125,-1.313" />
    <path
       id="path658"
       transform="translate(7.625,51.9258)"
       d="M 0,0 1.875,1.625" />
    <path
       id="path660"
       transform="translate(2.7373,51.8633)"
       d="M 0,0 1.875,1.625" />
    <path
       id="path662"
       transform="translate(11.3877,48.8633)"
       d="M 0,0 -1.875,-1.625" />
    <path
       id="path664"
       transform="translate(15.7295,47.1133)"
       d="M 0,0 -1.125,1.75" />
    <path
       id="path666"
       transform="translate(16.25,53.4883)"
       d="M 0,0 0.75,-2.038" />
  </g>
</svg>
