<?xml version="1.0" encoding="UTF-8" standalone="no"?>
<svg
   xmlns:dc="http://purl.org/dc/elements/1.1/"
   xmlns:cc="http://creativecommons.org/ns#"
   xmlns:rdf="http://www.w3.org/1999/02/22-rdf-syntax-ns#"
   xmlns:svg="http://www.w3.org/2000/svg"
   xmlns="http://www.w3.org/2000/svg"
   height="54.102108"
   width="53.018913"
   id="svg260"
   version="1.1">
  <defs
     id="defs264" />
  <metadata
     id="metadata2">citation: U.S. Geological Survey, 2006, FGDC Digital Cartographic Standard for Geologic Map Symbolization (PostScript Implementation): U.S. Geological Survey Techniques and Methods 11-A2 [pubs.usgs.gov/tm/2006/11A02/]. converted by CEC Geology LLC 2018 from the USGS lithologic gs converted to inkscape by the University of Otago.<rdf:RDF>
  <cc:Work
     rdf:about="">
    <dc:format>image/svg+xml</dc:format>
    <dc:type
       rdf:resource="http://purl.org/dc/dcmitype/StillImage" />
    <dc:title></dc:title>
  </cc:Work>
</rdf:RDF>
</metadata>
  <g
     stroke-width=".3"
     stroke="#231f20"
     fill="none"
     id="g258"
     width="54.125"
     height="54.126">
    <path
       id="path4"
       transform="translate(53,39.4863)"
       d="M 0,0 C 0.221,-0.99 0.33,-2.859 0.11,-4.62" />
    <path
       id="path6"
       transform="translate(53.2832,32.1221)"
       d="M 0,0 C -0.33,-1.649 -0.22,-4.73 0.109,-5.61" />
    <path
       id="path8"
       transform="translate(50.8662,37.1406)"
       d="m 0,0 c 0.22,-1.87 0.22,-2.53 -0.221,-4.51 -0.439,-1.98 -0.439,-2.86 0,-4.291" />
    <path
       id="path10"
       transform="translate(48.0415,39.9697)"
       d="M 0,0 C 0.439,-1.54 0.232,-3.317 -0.208,-5.407" />
    <path
       id="path12"
       transform="translate(47.7783,32.2529)"
       d="M 0,0 C -0.055,-1.155 -0.22,-0.715 -0.33,-1.979 -0.44,-3.245 0.616,-6.061 1.386,-7.381" />
    <path
       id="path14"
       transform="translate(44.5332,38.1377)"
       d="M 0,0 C 0.44,-1.76 0.33,-3.08 -0.22,-5.225 -0.77,-7.37 -0.608,-8.287 0.327,-9.772" />
    <path
       id="path16"
       transform="translate(40.8486,39.7324)"
       d="M 0,0 C 0.604,-1.539 0.88,-3.41 0.824,-4.51" />
    <path
       id="path18"
       transform="translate(41.5635,33.2979)"
       d="M 0,0 C -0.33,-2.255 -1.223,-6.61 0.426,-8.426" />
    <path
       id="path20"
       transform="translate(40.0137,44.2461)"
       d="M 0,0 C 0.22,-1.155 0.329,-2.158 0.329,-2.598" />
    <path
       id="path22"
       transform="translate(38.6484,35.6216)"
       d="m 0,0 c 0.109,-1.595 0,-3.424 -0.33,-4.854 -0.33,-1.43 0.633,-5.357 1.238,-6.457" />
    <path
       id="path24"
       transform="translate(35.8428,39.293)"
       d="M 0,0 C 0.33,-2.145 0.44,-4.346 0,-6.71" />
    <path
       id="path26"
       transform="translate(35.4033,30.5479)"
       d="M 0,0 C -0.33,-1.32 -0.33,-3.905 0.165,-4.675" />
    <path
       id="path28"
       transform="translate(33.3682,36.1582)"
       d="M 0,0 C 0.22,-1.926 0.055,-3.301 -0.55,-5.115 -1.155,-6.931 -1.265,-9.24 -0.715,-10.506" />
    <path
       id="path30"
       transform="translate(30.2881,39.4688)"
       d="M 0,0 C 0.275,-1.594 0.495,-4.521 0,-6.501" />
    <path
       id="path32"
       transform="translate(29.8867,30.6221)"
       d="M 0,0 C -0.741,-3.459 -0.904,-6.648 -0.408,-7.453" />
    <path
       id="path34"
       transform="translate(27.7031,37.0381)"
       d="M 0,0 C 0.165,-2.421 0.275,-3.3 -0.22,-5.28 -0.715,-7.261 -0.77,-8.745 -0.605,-9.681" />
    <path
       id="path36"
       transform="translate(25.5195,40.2813)"
       d="M 0,0 C 0.441,-1.705 -0.071,-4.563 -0.291,-5.773" />
    <path
       id="path38"
       transform="translate(24.9531,32.3076)"
       d="M 0,0 C -0.11,-1.045 -0.055,-0.605 -0.275,-1.87 -0.495,-3.135 -0.605,-5.444 0,-6.601" />
    <path
       id="path40"
       transform="translate(22.2754,37.6621)"
       d="m 0,0 c 0.274,-2.586 0.273,-4.969 0.053,-6.84 -0.22,-1.869 -0.22,-4.069 0.165,-4.949" />
    <path
       id="path42"
       transform="translate(19.4238,39.1279)"
       d="M 0,0 C 0.605,-1.87 0.88,-3.136 0.825,-4.565" />
    <path
       id="path44"
       transform="translate(19.6436,31.8125)"
       d="M 0,0 C -0.33,-1.539 -0.55,-4.51 0.385,-6.05" />
    <path
       id="path46"
       transform="translate(16.5981,39.5332)"
       d="M 0,0 C 0.605,-2.695 1.191,-4.86 0.806,-6.785 0.421,-8.711 0.366,-8.545 0.366,-9.096" />
    <path
       id="path48"
       transform="translate(17.3794,28.6699)"
       d="M 0,0 C 0.299,-1.12 0.417,-3.41 0.5,-4.334" />
    <path
       id="path50"
       transform="translate(14.6172,37.6426)"
       d="M 0,0 C 0.44,-2.255 0.551,-3.63 0.11,-5.609 -0.33,-7.59 -0.274,-9.955 0.44,-11.715" />
    <path
       id="path52"
       transform="translate(11.3794,39.9199)"
       d="M 0,0 C 0.495,-1.65 1.03,-3.652 0.975,-4.752" />
    <path
       id="path54"
       transform="translate(11.9688,31.7578)"
       d="M 0,0 C -0.495,-1.926 -0.662,-4.871 0.603,-6.906" />
    <path
       id="path56"
       transform="translate(9.3896,38.3574)"
       d="m 0,0 c 0.329,-2.254 0.494,-3.355 0.109,-5.004 -0.384,-1.65 -0.33,-1.596 -0.33,-2.201" />
    <path
       id="path58"
       transform="translate(34.6362,51.7241)"
       d="M 0,0 C 0.943,-1.209 1.197,-9.687 1.197,-9.687" />
    <path
       id="path60"
       transform="translate(7.4268,36.9121)"
       d="m 0,0 c -0.275,-1.76 -0.638,-4.989 -0.968,-6.199 -0.33,-1.21 -0.825,-3.575 0,-4.95" />
    <path
       id="path62"
       transform="translate(4.6343,39.3457)"
       d="M 0,0 C 0.275,-1.814 0.55,-2.97 0.221,-4.564 -0.109,-6.16 0,-6.6 -0.055,-6.93" />
    <path
       id="path64"
       transform="translate(3.9756,29.5029)"
       d="M 0,0 C -0.275,-1.046 -0.386,-2.255 -0.11,-3.025 0.165,-3.796 0.904,-5.083 0.904,-5.083" />
    <path
       id="path66"
       transform="translate(1.8223,36.9277)"
       d="m 0,0 c 0.439,-1.54 0.77,-4.234 0.274,-5.995 -0.495,-1.76 -0.825,-4.069 -0.11,-5.5" />
    <path
       id="path68"
       transform="translate(8.7842,28.6231)"
       d="M 0,0 C 0.055,-1.1 1.58,-4.783 2.074,-5.498" />
    <path
       id="path70"
       transform="translate(1.4131,22.0234)"
       d="M 0,0 C 0.439,-2.201 0.604,-2.861 0.055,-4.785 -0.495,-6.711 -0.715,-8.086 -0.22,-9.57" />
    <path
       id="path72"
       transform="translate(3.4482,23.6729)"
       d="M 0,0 C 0.439,-1.155 0.88,-2.64 0.77,-3.74 0.66,-4.841 0.385,-5.445 0.439,-5.61" />
    <path
       id="path74"
       transform="translate(3.5576,16.5781)"
       d="M 0,0 C -0.439,-1.32 0.153,-4.418 0.758,-5.628" />
    <path
       id="path76"
       transform="translate(6.1982,22.2979)"
       d="M 0,0 C 0.275,-1.375 0.55,-2.091 -0.11,-4.125 -0.77,-6.16 -0.66,-7.755 -0.275,-8.854" />
    <path
       id="path78"
       transform="translate(8.3091,24.1777)"
       d="M 0,0 C 0.33,-1.375 0.605,-2.915 0.33,-4.29" />
    <path
       id="path80"
       transform="translate(8.8379,17.5127)"
       d="M 0,0 C -0.495,-1.375 -0.361,-4.642 0.024,-5.742" />
    <path
       id="path82"
       transform="translate(11.4775,20.4277)"
       d="m 0,0 c 0.056,-1.154 0.11,-1.32 -0.329,-3.135 -0.44,-1.815 -0.97,-4.974 -0.365,-6.131" />
    <path
       id="path84"
       transform="translate(14.0635,22.6826)"
       d="m 0,0 c 0.33,-1.54 0.604,-2.805 0.055,-4.565 -0.55,-1.76 -0.991,-3.355 0.054,-5.28" />
    <path
       id="path86"
       transform="translate(16.2861,24.1856)"
       d="M 0,0 C 0.385,-1.595 1.132,-2.713 0.802,-3.923 0.472,-5.133 0.197,-5.683 0.087,-6.287" />
    <path
       id="path88"
       transform="translate(16.3965,16.3535)"
       d="M 0,0 C 0,-1.155 -0.044,-2.589 0.341,-3.359" />
    <path
       id="path90"
       transform="translate(18.9033,22.8477)"
       d="m 0,0 c 0.495,-2.09 1.045,-3.025 0.33,-4.785 -0.715,-1.76 -0.609,-5.277 -0.39,-6.541" />
    <path
       id="path92"
       transform="translate(20.9932,23.8926)"
       d="M 0,0 C 0.605,-1.32 0.935,-3.41 0.825,-4.234" />
    <path
       id="path94"
       transform="translate(21.4326,17.2383)"
       d="M 0,0 C -0.385,-1.32 -0.311,-4.729 -0.036,-5.499" />
    <path
       id="path96"
       transform="translate(23.0283,22.8477)"
       d="M 0,0 C 0.604,-2.035 0.935,-2.805 0.495,-4.62 0.055,-6.436 -0.385,-8.359 -0.11,-9.404" />
    <path
       id="path98"
       transform="translate(25.9277,24.3057)"
       d="M 0,0 C 0.22,-1.101 -0.26,-3.108 -0.26,-3.769" />
    <path
       id="path100"
       transform="translate(25.4131,18.1729)"
       d="M 0,0 C -0.11,-1.155 -0.055,-0.99 -0.33,-2.035 -0.605,-3.08 0.348,-8.289 0.624,-9.058" />
    <path
       id="path102"
       transform="translate(27.7031,22.3526)"
       d="M 0,0 C 0.605,-2.53 1.045,-3.795 0.66,-5.225 0.275,-6.655 0.165,-8.305 0.33,-9.075" />
    <path
       id="path104"
       transform="translate(30.123,22.0781)"
       d="m 0,0 c -0.055,-1.1 0.11,-1.705 0.33,-2.641 0.22,-0.934 0.441,-1.705 0,-3.299 -0.44,-1.595 0.099,-2.888 0.21,-3.548" />
    <path
       id="path106"
       transform="translate(32.835,23.6729)"
       d="M 0,0 C 0,-0.99 0.221,-2.915 0.385,-3.63" />
    <path
       id="path108"
       transform="translate(33.3301,18.3926)"
       d="m 0,0 c -0.055,-1.32 -0.055,-1.375 -0.274,-2.75 -0.221,-1.375 -0.153,-3.82 0.012,-4.371" />
    <path
       id="path110"
       transform="translate(37.2192,24.791)"
       d="M 0,0 C 0.495,-1.705 1.014,-3.264 0.849,-4.913" />
    <path
       id="path112"
       transform="translate(37.7383,17.8984)"
       d="m 0,0 c -0.22,-1.705 -0.55,-3.246 -0.329,-4.291 0.22,-1.045 0.151,-2.897 0.151,-2.897" />
    <path
       id="path114"
       transform="translate(40.3838,22.6279)"
       d="m 0,0 c 0.165,-2.255 0.22,-2.309 -0.22,-3.96 -0.44,-1.65 -0.29,-4.802 0.259,-6.066" />
    <path
       id="path116"
       transform="translate(44.1733,26.5567)"
       d="m 0,0 c 0.998,-1.623 1.378,-6.184 0.937,-8.329 -0.44,-2.146 -0.22,-3.85 0.33,-5.28" />
    <path
       id="path118"
       transform="translate(46.6689,25.4497)"
       d="M 0,0 C 0.329,-1.375 1.162,-5.045 1.053,-6.365" />
    <path
       id="path120"
       transform="translate(47.4756,16.8526)"
       d="M 0,0 C -0.22,-1.375 0.275,-4.542 0.55,-5.478" />
    <path
       id="path122"
       transform="translate(49.8438,22.6826)"
       d="M 0,0 C 0.495,-2.146 0.771,-2.86 0.495,-4.73 0.22,-6.601 0.11,-8.194 0.275,-8.965" />
    <path
       id="path124"
       transform="translate(52.0317,24.8516)"
       d="M 0,0 C 0.85,-1.335 0.784,-2.939 0.784,-3.874" />
    <path
       id="path126"
       transform="translate(52.8701,18.2832)"
       d="M 0,0 C -0.22,-1.32 -0.973,-4.703 0.072,-6.848" />
    <path
       id="path128"
       transform="translate(1.8105,52.9317)"
       d="m 0,0 c 0.441,-1.155 0.06,-2.441 -0.051,-3.542 -0.11,-1.101 -0.385,-1.705 -0.33,-1.87" />
    <path
       id="path130"
       transform="translate(1.0996,45.3906)"
       d="M 0,0 C -0.44,-1.32 0.277,-4.667 0.883,-5.877" />
    <path
       id="path132"
       transform="translate(3.7393,51.96)"
       d="M 0,0 C 0.275,-1.375 0.551,-2.941 -0.109,-4.975 -0.77,-7.01 -0.659,-8.605 -0.275,-9.704" />
    <path
       id="path134"
       transform="translate(5.7729,52.9712)"
       d="M 0,0 C 0.33,-1.375 0.605,-2.364 0.33,-3.739" />
    <path
       id="path136"
       transform="translate(6.3252,46.7485)"
       d="M 0,0 C -0.495,-1.375 -0.219,-6.365 0.166,-7.465" />
    <path
       id="path138"
       transform="translate(9.0195,49.2402)"
       d="M 0,0 C 0.055,-1.154 0.11,-1.32 -0.33,-3.135 -0.77,-4.95 -0.496,-7.832 0.11,-8.986" />
    <path
       id="path140"
       transform="translate(11.6045,52.5147)"
       d="m 0,0 c 0.33,-1.54 0.605,-3.824 0.056,-5.585 -0.551,-1.76 -0.991,-3.354 0.054,-5.279" />
    <path
       id="path142"
       transform="translate(13.7529,53.5366)"
       d="m 0,0 c 0.385,-1.594 0.605,-2.126 0.275,-3.335 -0.33,-1.21 -0.605,-1.76 -0.714,-2.366" />
    <path
       id="path144"
       transform="translate(13.6396,46.2266)"
       d="M 0,0 C 0,-1.155 0.888,-5.674 1.274,-6.443" />
    <path
       id="path146"
       transform="translate(16.4443,52.6831)"
       d="m 0,0 c 0.495,-2.09 1.046,-3.237 0.33,-4.997 -0.715,-1.76 -1.154,-3.08 -0.935,-4.344" />
    <path
       id="path148"
       transform="translate(19.2773,50.9766)"
       d="M 0,0 C 0.605,-1.319 0.34,-3.664 0.23,-4.49" />
    <path
       id="path150"
       transform="translate(18.2607,45.0068)"
       d="M 0,0 C -0.385,-1.319 -0.66,-3.96 -0.385,-4.729" />
    <path
       id="path152"
       transform="translate(20.5693,53.5366)"
       d="M 0,0 C 0.605,-2.035 0.936,-4.037 0.495,-5.852 0.056,-7.667 -0.129,-11.835 0.146,-12.88" />
    <path
       id="path154"
       transform="translate(23.2876,52.3018)"
       d="M 0,0 C 0.538,-2.689 0.038,-5.47 0.038,-4.761" />
    <path
       id="path156"
       transform="translate(23.8027,45.8574)"
       d="m 0,0 c -0.11,-1.156 -0.482,-2.059 -0.758,-3.104 -0.275,-1.044 -0.165,-2.75 0.111,-3.519" />
    <path
       id="path158"
       transform="translate(25.2451,53.5059)"
       d="M 0,0 C 0.604,-2.53 1.045,-5.324 0.66,-6.754 0.274,-8.185 0.165,-9.834 0.33,-10.605" />
    <path
       id="path160"
       transform="translate(27.665,50.4517)"
       d="m 0,0 c -0.056,-1.101 0.109,-1.266 0.33,-2.202 0.22,-0.934 0.44,-1.705 0,-3.3 -0.44,-1.594 -0.226,-4.286 -0.116,-4.946" />
    <path
       id="path162"
       transform="translate(30.1353,53.1299)"
       d="M 0,0 C 0,-0.99 -0.558,-2.915 -0.394,-3.63" />
    <path
       id="path164"
       transform="translate(30.3047,47.2051)"
       d="M 0,0 C -0.055,-1.32 -0.055,-1.375 -0.274,-2.75 -0.495,-4.125 -0.33,-5.39 -0.165,-5.939" />
    <path
       id="path166"
       transform="translate(32.2573,53.7974)"
       d="M 0,0 C 0.606,-2.034 0.137,-7.362 -0.082,-9.232" />
    <path
       id="path168"
       transform="translate(34.0166,44.752)"
       d="m 0,0 c -0.22,-1.705 -1.18,-3.867 -0.96,-4.912 0.22,-1.045 0.385,-1.484 0.385,-1.484" />
    <path
       id="path170"
       transform="translate(37.5283,53.583)"
       d="m 0,0 c 0.165,-2.256 0.221,-3.642 -0.22,-5.292 -0.44,-1.65 -0.715,-3.025 -0.165,-4.289" />
    <path
       id="path172"
       transform="translate(40.356,50.3862)"
       d="M 0,0 C 0.165,-1.209 0.33,-1.347 0.109,-2.501 -0.11,-3.658 -0.386,-4.317 -0.441,-4.757" />
    <path
       id="path174"
       transform="translate(42.8467,52.832)"
       d="m 0,0 c 0.385,-1.705 0.55,-2.805 0.11,-4.95 -0.44,-2.146 -0.644,-5.546 -0.093,-6.976" />
    <path
       id="path176"
       transform="translate(45.6084,53.7481)"
       d="M 0,0 C 0.33,-1.375 0.235,-4.285 0.124,-5.606" />
    <path
       id="path178"
       transform="translate(45.0166,45.6651)"
       d="M 0,0 C -0.22,-1.375 0.254,-5.477 0.529,-6.411" />
    <path
       id="path180"
       transform="translate(47.6123,50.8438)"
       d="M 0,0 C 0.495,-2.145 0.77,-2.209 0.495,-4.078 0.22,-5.949 0.11,-7.543 0.275,-8.313" />
    <path
       id="path182"
       transform="translate(50.3662,53.6182)"
       d="M 0,0 C 0.274,-1.485 0.274,-2.894 0.274,-3.828" />
    <path
       id="path184"
       transform="translate(50.6953,47.0957)"
       d="M 0,0 C -0.22,-1.32 -1.111,-4.447 -0.066,-6.592" />
    <path
       id="path186"
       transform="translate(52.626,53.169)"
       d="m 0,0 c 0.33,-1.814 0.22,-4.589 0,-6.129 -0.22,-1.54 -0.441,-3.3 0.165,-4.784" />
    <path
       id="path188"
       transform="translate(2.2983,10.418)"
       d="M 0,0 C 0.385,-1.705 0.494,-2.805 0.329,-3.905" />
    <path
       id="path190"
       transform="translate(1.9565,5.0274)"
       d="M 0,0 C -0.44,-1.375 -1.193,-3.749 -0.809,-4.684" />
    <path
       id="path192"
       transform="translate(4.6484,9.1524)"
       d="M 0,0 C 0.221,-1.595 -0.164,-2.584 -0.439,-3.959 -0.715,-5.334 -0.88,-7.463 -0.494,-8.564" />
    <path
       id="path194"
       transform="translate(7.2202,12.2842)"
       d="M 0,0 C 0.22,-1.154 -0.465,-8.359 -1.016,-10.064" />
    <path
       id="path196"
       transform="translate(9.2773,8.2315)"
       d="M 0,0 C 0.055,-1.54 -0.094,-1.213 -0.385,-2.53 -0.754,-4.204 -1.039,-6.464 -0.983,-8.204" />
    <path
       id="path198"
       transform="translate(14.4941,9.1524)"
       d="M 0,0 C 0.109,-1.925 0.33,-2.365 -0.33,-4.07 -0.99,-5.775 -1.155,-5.989 -0.88,-7.144" />
    <path
       id="path200"
       transform="translate(16.3896,11.293)"
       d="M 0,0 C 0.33,-0.99 1.104,-3.075 0.994,-4.01" />
    <path
       id="path202"
       transform="translate(16.4126,5.7422)"
       d="M 0,0 C -0.385,-0.99 -1.052,-3.398 -0.941,-4.993" />
    <path
       id="path204"
       transform="translate(18.9287,9.3184)"
       d="M 0,0 C 0.495,-2.035 0.623,-2.89 0,-4.346 -0.509,-5.535 -0.429,-7.868 -0.44,-9.304" />
    <path
       id="path206"
       transform="translate(23.4604,11.0215)"
       d="M 0,0 C 0.495,-2.035 0.7,-4.289 0.205,-5.554 -0.29,-6.818 -0.587,-9.322 -0.312,-10.531" />
    <path
       id="path208"
       transform="translate(26.0991,7.2808)"
       d="M 0,0 C -0.11,-0.935 -1.126,-4.528 -0.906,-5.243" />
    <path
       id="path210"
       transform="translate(27.8901,11.6455)"
       d="m 0,0 c 0.494,-1.76 0.398,-3.903 -0.069,-5.253 -0.426,-1.23 -0.574,-4.432 -0.577,-6.365" />
    <path
       id="path212"
       transform="translate(32.0654,9.5371)"
       d="M 0,0 C 0.495,-1.594 0.495,-2.529 0.055,-4.18 -0.385,-5.83 -0.66,-6.255 -0.33,-7.354" />
    <path
       id="path214"
       transform="translate(34.9829,10.9541)"
       d="M 0,0 C 0.22,-1.045 -0.255,-2.596 -0.31,-3.311" />
    <path
       id="path216"
       transform="translate(34.8828,6.2637)"
       d="M 0,0 C -0.385,-1.1 -1.243,-4.286 -1.078,-5.056" />
    <path
       id="path218"
       transform="translate(36.5586,9.4277)"
       d="M 0,0 C 0.439,-2.365 0.494,-3.355 -0.165,-4.785 -0.825,-6.215 -1.045,-8.03 -0.66,-9.13" />
    <path
       id="path220"
       transform="translate(41.7974,9.8535)"
       d="m 0,0 c 0.77,-2.035 0.452,-2.928 -0.564,-4.771 -0.624,-1.133 -0.833,-3.43 -0.823,-5.055" />
    <path
       id="path222"
       transform="translate(43.106,12.209)"
       d="M 0,0 C 0.72,-0.72 1.159,-4.047 1.048,-4.596" />
    <path
       id="path224"
       transform="translate(43.4463,5.5532)"
       d="M 0,0 C 0,-1.375 -0.73,-3.957 -1.06,-5.056" />
    <path
       id="path226"
       transform="translate(46.0503,10.1152)"
       d="m 0,0 c 0.165,-1.045 -0.362,-0.742 0.078,-2.393 0.44,-1.65 0.11,-2.365 -0.33,-3.519 -0.44,-1.155 -0.13,-2.144 -0.075,-2.804" />
    <path
       id="path228"
       transform="translate(8.2944,54.1104)"
       d="M 0,0 C 0.042,-1.27 0.19,-1.932 0.548,-2.344" />
    <path
       id="path230"
       transform="translate(18.4883,54.0977)"
       d="M 0,0 C -0.004,-0.57 -0.023,-0.955 -0.099,-1.115" />
    <path
       id="path232"
       transform="translate(27.2437,54.1094)"
       d="M 0,0 C -0.002,-0.857 0.024,-1.902 0.068,-1.969" />
    <path
       id="path234"
       transform="translate(40.4106,54.1094)"
       d="M 0,0 C 0.005,-0.892 0.077,-2.044 0.182,-2.216" />
    <path
       id="path236"
       transform="translate(48.3188,54.1094)"
       d="M 0,0 C -0.006,-0.471 0.005,-1.474 0.04,-1.619" />
    <path
       id="path238"
       transform="translate(48.5479,9.4277)"
       d="M 0,0 C 0.275,-1.1 0.605,-2.641 0.275,-3.905 0.021,-4.881 -0.208,-7.813 -0.229,-9.4" />
    <path
       id="path240"
       transform="translate(53.5537,9.7578)"
       d="m 0,0 c 0.109,-1.266 0.165,-1.596 -0.165,-2.915 -0.33,-1.32 -0.657,-4.639 -0.272,-5.903" />
    <path
       id="path242"
       transform="translate(35.1377,22.6729)"
       d="M 0,0 C 0.167,-2 0.667,-2.333 0.333,-4.833 0,-7.333 -0.333,-8.5 0,-9.5" />
    <path
       id="path244"
       transform="translate(38.1421,42.5513)"
       d="M 0,0 C -0.055,-1.485 0.22,-3.748 0.495,-4.462" />
    <path
       id="path246"
       transform="translate(39.1406,10.8233)"
       d="m 0,0 c 0.274,-1.375 0.55,-2.091 -0.11,-4.125 -0.502,-1.548 -1.179,-3.53 -0.636,-5.079" />
    <path
       id="path248"
       transform="translate(42.7485,23.0547)"
       d="m 0,0 c 0.274,-1.375 0.55,-2.091 -0.11,-4.125 -0.661,-2.035 -0.55,-3.63 -0.165,-4.73" />
    <path
       id="path250"
       transform="translate(30.3472,10.7041)"
       d="m 0,0 c 0.274,-1.375 0.292,-2.706 -0.368,-4.74 -0.66,-2.035 -0.933,-4.003 -0.548,-5.103" />
    <path
       id="path252"
       transform="translate(20.9512,9.919)"
       d="m 0,0 c 0.274,-1.375 0.698,-2.226 0.038,-4.26 -0.66,-2.035 -0.71,-3.037 -0.326,-4.137" />
    <path
       id="path254"
       transform="translate(12.6157,12.0376)"
       d="m 0,0 c 0.274,-1.375 -0.384,-3.978 -1.044,-6.012 -0.661,-2.035 -0.623,-4.491 -0.238,-5.59" />
    <path
       id="path256"
       transform="translate(50.8921,11.2276)"
       d="m 0,0 c 0.274,-1.375 1.029,-3.29 0.369,-5.324 -0.66,-2.035 -0.55,-3.12 -0.165,-4.22" />
  </g>
</svg>
