<?xml version="1.0" encoding="UTF-8" standalone="no"?>
<svg
   xmlns:dc="http://purl.org/dc/elements/1.1/"
   xmlns:cc="http://creativecommons.org/ns#"
   xmlns:rdf="http://www.w3.org/1999/02/22-rdf-syntax-ns#"
   xmlns:svg="http://www.w3.org/2000/svg"
   xmlns="http://www.w3.org/2000/svg"
     width="44.667"
     height="44.667"
   id="svg178"
   version="1.1">
  <defs
     id="defs182" />
  <metadata
     id="metadata2">citation: U.S. Geological Survey, 2006, FGDC Digital Cartographic Standard for Geologic Map Symbolization (PostScript Implementation): U.S. Geological Survey Techniques and Methods 11-A2 [pubs.usgs.gov/tm/2006/11A02/]. converted by CEC Geology LLC 2018 from the USGS lithologic gs converted to inkscape by the University of Otago.<rdf:RDF>
  <cc:Work
     rdf:about="">
    <dc:format>image/svg+xml</dc:format>
    <dc:type
       rdf:resource="http://purl.org/dc/dcmitype/StillImage" />
    <dc:title></dc:title>
  </cc:Work>
</rdf:RDF>
</metadata>
  <g
     stroke-width=".3"
     stroke="#231f20"
     fill="none"
     id="g176"
     width="44.667"
     height="44.667">
    <path
       id="path4"
       transform="translate(3.7764,43.4038)"
       d="M 0,0 H -3.776" />
    <path
       id="path6"
       transform="translate(6.3564,43.4038)"
       d="M 0,0 H 6.369" />
    <path
       id="path8"
       transform="translate(15.2734,43.4038)"
       d="M 0,0 H 6.369" />
    <path
       id="path10"
       transform="translate(24.1895,43.4038)"
       d="M 0,0 H 6.369" />
    <path
       id="path12"
       transform="translate(33.1064,43.4038)"
       d="M 0,0 H 6.369" />
    <path
       id="path14"
       transform="translate(8.1084,40.269)"
       d="M 0,0 H -6.369" />
    <path
       id="path16"
       transform="translate(17.0244,40.269)"
       d="M 0,0 H -6.369" />
    <path
       id="path18"
       transform="translate(19.5723,40.269)"
       d="M 0,0 H 6.369" />
    <path
       id="path20"
       transform="translate(34.8584,40.269)"
       d="M 0,0 H -6.369" />
    <path
       id="path22"
       transform="translate(37.4053,40.269)"
       d="M 0,0 H 6.369" />
    <path
       id="path24"
       transform="translate(0,37.2988)"
       d="M 0,0 H 2.024" />
    <path
       id="path26"
       transform="translate(10.9746,37.2988)"
       d="M 0,0 H -6.369" />
    <path
       id="path28"
       transform="translate(19.8906,37.2988)"
       d="M 0,0 H -6.369" />
    <path
       id="path30"
       transform="translate(22.4385,37.2988)"
       d="M 0,0 H 6.369" />
    <path
       id="path32"
       transform="translate(37.7236,37.2988)"
       d="M 0,0 H -6.369" />
    <path
       id="path34"
       transform="translate(5.2422,28.52)"
       d="M 0,0 H -5.242" />
    <path
       id="path36"
       transform="translate(14.1582,28.52)"
       d="M 0,0 H -6.368" />
    <path
       id="path38"
       transform="translate(16.7061,28.52)"
       d="M 0,0 H 6.369" />
    <path
       id="path40"
       transform="translate(25.623,28.52)"
       d="M 0,0 H 6.369" />
    <path
       id="path42"
       transform="translate(34.5391,28.52)"
       d="M 0,0 H 6.369" />
    <path
       id="path44"
       transform="translate(0,25.353)"
       d="M 0,0 H 2.184" />
    <path
       id="path46"
       transform="translate(11.1338,25.353)"
       d="M 0,0 H -6.369" />
    <path
       id="path48"
       transform="translate(20.0498,25.353)"
       d="M 0,0 H -6.369" />
    <path
       id="path50"
       transform="translate(22.5977,25.353)"
       d="M 0,0 H 6.369" />
    <path
       id="path52"
       transform="translate(31.5146,25.353)"
       d="M 0,0 H 6.368" />
    <path
       id="path54"
       transform="translate(6.6748,22.4399)"
       d="M 0,0 H -6.369" />
    <path
       id="path56"
       transform="translate(9.2227,22.4399)"
       d="M 0,0 H 6.369" />
    <path
       id="path58"
       transform="translate(18.1396,22.4399)"
       d="M 0,0 H 6.368" />
    <path
       id="path60"
       transform="translate(33.4248,22.4399)"
       d="M 0,0 H -6.369" />
    <path
       id="path62"
       transform="translate(35.9727,22.4399)"
       d="M 0,0 H 6.369" />
    <path
       id="path64"
       transform="translate(2.9805,13.5298)"
       d="M 0,0 H -2.98" />
    <path
       id="path66"
       transform="translate(5.5605,13.5298)"
       d="M 0,0 H 6.369" />
    <path
       id="path68"
       transform="translate(14.4775,13.5298)"
       d="M 0,0 H 6.368" />
    <path
       id="path70"
       transform="translate(23.3936,13.5298)"
       d="M 0,0 H 6.369" />
    <path
       id="path72"
       transform="translate(32.3105,13.5298)"
       d="M 0,0 H 6.369" />
    <path
       id="path74"
       transform="translate(6.834,10.3945)"
       d="M 0,0 H -6.369" />
    <path
       id="path76"
       transform="translate(9.3818,10.3945)"
       d="M 0,0 H 6.369" />
    <path
       id="path78"
       transform="translate(18.2988,10.3945)"
       d="M 0,0 H 6.368" />
    <path
       id="path80"
       transform="translate(27.2148,10.3945)"
       d="M 0,0 H 6.369" />
    <path
       id="path82"
       transform="translate(36.1318,10.3945)"
       d="M 0,0 H 6.369" />
    <path
       id="path84"
       transform="translate(0,7.4248)"
       d="M 0,0 H 2.184" />
    <path
       id="path86"
       transform="translate(11.1338,7.4248)"
       d="M 0,0 H -6.369" />
    <path
       id="path88"
       transform="translate(20.0498,7.4248)"
       d="M 0,0 H -6.369" />
    <path
       id="path90"
       transform="translate(28.9668,7.4248)"
       d="M 0,0 H -6.369" />
    <path
       id="path92"
       transform="translate(37.8828,7.4248)"
       d="M 0,0 H -6.368" />
    <path
       id="path94"
       transform="translate(4.457,19.6353)"
       d="M 0,0 H -4.457" />
    <path
       id="path96"
       transform="translate(33.957,19.6353)"
       d="M 0,0 H -14.75" />
    <path
       id="path98"
       transform="translate(19.207,19.6353)"
       d="M 0,0 H -14.75" />
    <path
       id="path100"
       transform="translate(33.957,19.6353)"
       d="M 0,0 H 10.71" />
    <path
       id="path102"
       transform="translate(0,16.3535)"
       d="M 0,0 H 44.667" />
    <path
       id="path104"
       transform="translate(33.957,19.6353)"
       d="M 0,0 V -3.269" />
    <path
       id="path106"
       transform="translate(33.957,19.6353)"
       d="M 0,0 V 0.031" />
    <path
       id="path108"
       transform="translate(19.207,19.6353)"
       d="M 0,0 V -3.269" />
    <path
       id="path110"
       transform="translate(19.207,19.6665)"
       d="M 0,0 V -0.031" />
    <path
       id="path112"
       transform="translate(4.457,19.6665)"
       d="M 0,0 V -0.031" />
    <path
       id="path114"
       transform="translate(4.457,19.6353)"
       d="M 0,0 V -3.269" />
    <path
       id="path116"
       transform="translate(23.9209,31.3071)"
       d="M 0,0 H 14" />
    <path
       id="path118"
       transform="translate(6.9834,31.3071)"
       d="M 0,0 H 16.938" />
    <path
       id="path120"
       transform="translate(6.9834,31.3071)"
       d="M 0,0 H -6.983" />
    <path
       id="path122"
       transform="translate(37.9209,31.3071)"
       d="M 0,0 H 6.746" />
    <path
       id="path124"
       transform="translate(6.9834,34.6855)"
       d="M 0,0 H -6.983" />
    <path
       id="path126"
       transform="translate(37.9209,34.6855)"
       d="M 0,0 H 6.746" />
    <path
       id="path128"
       transform="translate(37.9209,34.6855)"
       d="M 0,0 H -14" />
    <g
       id="g136"
       transform="translate(6.9834,34.6855)">
      <path
         id="path130"
         d="M 0,0 H 16.938" />
      <path
         id="path132"
         d="M 0,0 V -3.378" />
      <path
         id="path134"
         d="M 0,0 V 0.013" />
    </g>
    <path
       id="path138"
       transform="translate(6.9834,31.3071)"
       d="M 0,0 V -0.034" />
    <path
       id="path140"
       transform="translate(23.9209,34.6855)"
       d="M 0,0 V -3.378" />
    <path
       id="path142"
       transform="translate(23.9209,34.6855)"
       d="M 0,0 V 0.013" />
    <path
       id="path144"
       transform="translate(23.9209,31.2729)"
       d="M 0,0 V 0.034" />
    <path
       id="path146"
       transform="translate(37.9209,31.3071)"
       d="M 0,0 V -0.034" />
    <path
       id="path148"
       transform="translate(37.9209,31.3071)"
       d="M 0,0 V 3.378" />
    <path
       id="path150"
       transform="translate(37.9209,34.6982)"
       d="M 0,0 V -0.013" />
    <path
       id="path152"
       transform="translate(0,4.6621)"
       d="M 0,0 H 44.667" />
    <path
       id="path154"
       transform="translate(0,1.437)"
       d="M 0,0 H 44.667" />
    <path
       id="path156"
       transform="translate(36.915,1.4497)"
       d="M 0,0 V 3.163" />
    <path
       id="path158"
       transform="translate(25.2764,4.6123)"
       d="M 0,0 V -3.163" />
    <path
       id="path160"
       transform="translate(13.709,4.6123)"
       d="M 0,0 V -3.163" />
    <path
       id="path162"
       transform="translate(1.707,4.6123)"
       d="M 0,0 V -3.163" />
    <path
       id="path164"
       transform="translate(42.0742,43.4038)"
       d="M 0,0 H 2.593" />
    <path
       id="path166"
       transform="translate(44.667,37.2988)"
       d="M 0,0 H -4.344" />
    <path
       id="path168"
       transform="translate(44.667,28.52)"
       d="M 0,0 H -1.127" />
    <path
       id="path170"
       transform="translate(40.4824,25.353)"
       d="M 0,0 H 4.185" />
    <path
       id="path172"
       transform="translate(41.2783,13.5298)"
       d="M 0,0 H 3.389" />
    <path
       id="path174"
       transform="translate(40.4824,7.4248)"
       d="M 0,0 H 4.185" />
  </g>
</svg>
