<?xml version="1.0" encoding="UTF-8" standalone="no"?>
<svg
   xmlns:dc="http://purl.org/dc/elements/1.1/"
   xmlns:cc="http://creativecommons.org/ns#"
   xmlns:rdf="http://www.w3.org/1999/02/22-rdf-syntax-ns#"
   xmlns:svg="http://www.w3.org/2000/svg"
   xmlns="http://www.w3.org/2000/svg"
     width="54.223"
     height="54.125"
   id="svg642"
   version="1.1">
  <defs
     id="defs646" />
  <metadata
     id="metadata2">citation: U.S. Geological Survey, 2006, FGDC Digital Cartographic Standard for Geologic Map Symbolization (PostScript Implementation): U.S. Geological Survey Techniques and Methods 11-A2 [pubs.usgs.gov/tm/2006/11A02/]. converted by CEC Geology LLC 2018 from the USGS lithologic gs converted to inkscape by the University of Otago.<rdf:RDF>
  <cc:Work
     rdf:about="">
    <dc:format>image/svg+xml</dc:format>
    <dc:type
       rdf:resource="http://purl.org/dc/dcmitype/StillImage" />
    <dc:title></dc:title>
  </cc:Work>
</rdf:RDF>
</metadata>
  <g
          stroke-width=".3"
     stroke="#231f20"
     fill="none"

     id="g640"
     width="54.223"
     height="54.125">
    <path
       id="path4"
       transform="translate(5.4699,51.9268)"
       d="M 0,0 V -3.227" />
    <path
       id="path6"
       transform="translate(5.4699,51.9268)"
       d="M 0,0 V 0.069" />
    <path
       id="path8"
       transform="translate(14.8449,51.9043)"
       d="M 0,0 V 0.059" />
    <path
       id="path10"
       transform="translate(14.8449,51.9043)"
       d="M 0,0 V -3.125" />
    <path
       id="path12"
       transform="translate(23.5949,48.7793)"
       d="M 0,0 V 3.07" />
    <path
       id="path14"
       transform="translate(32.7199,51.9102)"
       d="M 0,0 V 0.064" />
    <path
       id="path16"
       transform="translate(32.7199,51.9102)"
       d="M 0,0 V -3.006" />
    <path
       id="path18"
       transform="translate(41.8449,51.8994)"
       d="M 0,0 V 0.12" />
    <path
       id="path20"
       transform="translate(41.8449,51.8994)"
       d="M 0,0 V -3.12" />
    <path
       id="path22"
       transform="translate(51.2199,51.8379)"
       d="M 0,0 V -3.069" />
    <path
       id="path24"
       transform="translate(46.4699,52.7461)"
       d="M 0,0 V 0.052" />
    <path
       id="path26"
       transform="translate(46.4699,52.7979)"
       d="M 0,0 V 1.327" />
    <path
       id="path28"
       transform="translate(37.5949,52.8711)"
       d="M 0,0 V 1.254" />
    <path
       id="path30"
       transform="translate(28.4699,52.9961)"
       d="M 0,0 V 1.129" />
    <path
       id="path32"
       transform="translate(19.0949,52.8711)"
       d="M 0,0 V 1.254" />
    <path
       id="path34"
       transform="translate(10.3449,52.9961)"
       d="M 0,0 V 1.129" />
    <path
       id="path36"
       transform="translate(0.8449,52.7461)"
       d="M 0,0 V 1.379" />
    <path
       id="path38"
       transform="translate(46.2199,44.666)"
       d="M 0,0 V 2.988" />
    <path
       id="path40"
       transform="translate(37.3449,47.7783)"
       d="M 0,0 V 0.001" />
    <path
       id="path42"
       transform="translate(37.3449,47.7783)"
       d="M 0,0 V -3.112" />
    <path
       id="path44"
       transform="translate(28.2199,47.7315)"
       d="M 0,0 V 0.173" />
    <path
       id="path46"
       transform="translate(28.2199,44.791)"
       d="M 0,0 V 2.941" />
    <path
       id="path48"
       transform="translate(18.8449,44.708)"
       d="M 0,0 V 3.071" />
    <path
       id="path50"
       transform="translate(18.8449,44.708)"
       d="M 0,0 V -0.042" />
    <path
       id="path52"
       transform="translate(10.0949,47.7959)"
       d="M 0,0 V -3.13" />
    <path
       id="path54"
       transform="translate(10.0949,47.7959)"
       d="M 0,0 V 0.108" />
    <path
       id="path56"
       transform="translate(0.5949,47.6543)"
       d="M 0,0 V -3.057" />
    <path
       id="path58"
       transform="translate(0.5949,44.541)"
       d="M 0,0 V 0.057" />
    <path
       id="path60"
       transform="translate(50.8449,43.5293)"
       d="M 0,0 V -2.738" />
    <path
       id="path62"
       transform="translate(41.9699,40.7598)"
       d="M 0,0 V 2.895" />
    <path
       id="path64"
       transform="translate(41.9699,40.7598)"
       d="M 0,0 V -0.094" />
    <path
       id="path66"
       transform="translate(32.8449,43.7783)"
       d="M 0,0 V 0.001" />
    <path
       id="path68"
       transform="translate(32.8449,43.7783)"
       d="M 0,0 V -2.862" />
    <path
       id="path70"
       transform="translate(23.4699,40.8262)"
       d="M 0,0 V 2.828" />
    <path
       id="path72"
       transform="translate(23.4699,40.8262)"
       d="M 0,0 V -0.035" />
    <path
       id="path74"
       transform="translate(14.7199,40.916)"
       d="M 0,0 V 2.863" />
    <path
       id="path76"
       transform="translate(5.2199,40.7139)"
       d="M 0,0 V -0.048" />
    <path
       id="path78"
       transform="translate(5.2199,40.7139)"
       d="M 0,0 V 3.1" />
    <path
       id="path80"
       transform="translate(1.4699,36.6123)"
       d="M 0,0 V -0.071" />
    <path
       id="path82"
       transform="translate(1.4699,36.6123)"
       d="M 0,0 V 3.167" />
    <path
       id="path84"
       transform="translate(46.7199,36.666)"
       d="M 0,0 V 3.113" />
    <path
       id="path86"
       transform="translate(37.5949,39.9033)"
       d="M 0,0 V 0.001" />
    <path
       id="path88"
       transform="translate(37.5949,39.9033)"
       d="M 0,0 V -3.237" />
    <path
       id="path90"
       transform="translate(28.2199,39.7793)"
       d="M 0,0 V -2.988" />
    <path
       id="path92"
       transform="translate(19.4699,36.7129)"
       d="M 0,0 V 3.191" />
    <path
       id="path94"
       transform="translate(19.4699,36.666)"
       d="M 0,0 V 0.047" />
    <path
       id="path96"
       transform="translate(9.9699,39.9414)"
       d="M 0,0 V 0.11" />
    <path
       id="path98"
       transform="translate(9.9699,36.666)"
       d="M 0,0 V 3.275" />
    <path
       id="path100"
       transform="translate(51.5949,35.6963)"
       d="M 0,0 V 0.095" />
    <path
       id="path102"
       transform="translate(51.5949,32.917)"
       d="M 0,0 V 2.779" />
    <path
       id="path104"
       transform="translate(51.5949,32.917)"
       d="M 0,0 V -0.001" />
    <path
       id="path106"
       transform="translate(42.7199,32.9004)"
       d="M 0,0 V 2.865" />
    <path
       id="path108"
       transform="translate(42.7199,35.7656)"
       d="M 0,0 V 0.094" />
    <path
       id="path110"
       transform="translate(42.7199,32.9004)"
       d="M 0,0 V -0.109" />
    <path
       id="path112"
       transform="translate(33.5949,35.7783)"
       d="M 0,0 V -2.737" />
    <path
       id="path114"
       transform="translate(33.5949,35.7783)"
       d="M 0,0 V 0.206" />
    <path
       id="path116"
       transform="translate(24.2199,35.7315)"
       d="M 0,0 V -2.769" />
    <path
       id="path118"
       transform="translate(24.2199,32.9629)"
       d="M 0,0 V -0.047" />
    <path
       id="path120"
       transform="translate(24.2199,35.7315)"
       d="M 0,0 V 0.128" />
    <path
       id="path122"
       transform="translate(15.4699,35.7734)"
       d="M 0,0 V 0.211" />
    <path
       id="path124"
       transform="translate(15.4699,35.7734)"
       d="M 0,0 V -2.855" />
    <path
       id="path126"
       transform="translate(15.4699,32.918)"
       d="M 0,0 V -0.002" />
    <path
       id="path128"
       transform="translate(5.9699,35.7998)"
       d="M 0,0 V -2.884" />
    <path
       id="path130"
       transform="translate(5.9699,35.7998)"
       d="M 0,0 V 0.104" />
    <path
       id="path132"
       transform="translate(47.2199,32.0068)"
       d="M 0,0 V -2.683" />
    <path
       id="path134"
       transform="translate(47.2199,29.291)"
       d="M 0,0 V 0.033" />
    <path
       id="path136"
       transform="translate(38.3449,32.0752)"
       d="M 0,0 V -0.043" />
    <path
       id="path138"
       transform="translate(38.3449,32.0322)"
       d="M 0,0 V -2.571" />
    <path
       id="path140"
       transform="translate(29.2199,29.3887)"
       d="M 0,0 V -0.098" />
    <path
       id="path142"
       transform="translate(29.2199,31.9922)"
       d="M 0,0 V 0.037" />
    <path
       id="path144"
       transform="translate(29.2199,29.3887)"
       d="M 0,0 V 2.604" />
    <path
       id="path146"
       transform="translate(19.8449,29.3574)"
       d="M 0,0 V 2.547" />
    <path
       id="path148"
       transform="translate(19.8449,29.3574)"
       d="M 0,0 V -0.066" />
    <path
       id="path150"
       transform="translate(11.0949,29.3242)"
       d="M 0,0 V 2.705" />
    <path
       id="path152"
       transform="translate(11.0949,29.291)"
       d="M 0,0 V 0.033" />
    <path
       id="path154"
       transform="translate(1.5949,31.9688)"
       d="M 0,0 V 0.038" />
    <path
       id="path156"
       transform="translate(1.5949,31.9688)"
       d="M 0,0 V -2.689" />
    <path
       id="path158"
       transform="translate(1.5949,29.2793)"
       d="M 0,0 V -0.002" />
    <path
       id="path160"
       transform="translate(51.4699,28.2793)"
       d="M 0,0 V -2.738" />
    <path
       id="path162"
       transform="translate(42.5949,25.5225)"
       d="M 0,0 V -0.107" />
    <path
       id="path164"
       transform="translate(42.5949,25.5225)"
       d="M 0,0 V 2.882" />
    <path
       id="path166"
       transform="translate(33.4699,28.4522)"
       d="M 0,0 V -2.827" />
    <path
       id="path168"
       transform="translate(33.4699,28.4522)"
       d="M 0,0 V 0.077" />
    <path
       id="path170"
       transform="translate(33.4699,25.541)"
       d="M 0,0 V 0.084" />
    <path
       id="path172"
       transform="translate(24.0949,28.4024)"
       d="M 0,0 V -2.814" />
    <path
       id="path174"
       transform="translate(24.0949,28.4024)"
       d="M 0,0 V 0.002" />
    <path
       id="path176"
       transform="translate(24.0949,25.5879)"
       d="M 0,0 V -0.047" />
    <path
       id="path178"
       transform="translate(15.3449,25.542)"
       d="M 0,0 V 2.902" />
    <path
       id="path180"
       transform="translate(15.3449,28.4443)"
       d="M 0,0 V 0.085" />
    <path
       id="path182"
       transform="translate(15.3449,25.542)"
       d="M 0,0 V -0.001" />
    <path
       id="path184"
       transform="translate(5.8449,28.4658)"
       d="M 0,0 V 0.098" />
    <path
       id="path186"
       transform="translate(5.8449,25.4805)"
       d="M 0,0 V -0.064" />
    <path
       id="path188"
       transform="translate(5.8449,28.4658)"
       d="M 0,0 V -2.985" />
    <path
       id="path190"
       transform="translate(47.3449,24.6406)"
       d="M 0,0 V -2.725" />
    <path
       id="path192"
       transform="translate(47.3449,24.6406)"
       d="M 0,0 V 0.014" />
    <path
       id="path194"
       transform="translate(38.4699,24.7793)"
       d="M 0,0 V -0.116" />
    <path
       id="path196"
       transform="translate(38.4699,24.6631)"
       d="M 0,0 V -2.747" />
    <path
       id="path198"
       transform="translate(29.3449,21.9404)"
       d="M 0,0 V 2.685" />
    <path
       id="path200"
       transform="translate(29.3449,21.9404)"
       d="M 0,0 V -0.149" />
    <path
       id="path202"
       transform="translate(29.3449,24.625)"
       d="M 0,0 V 0.166" />
    <path
       id="path204"
       transform="translate(19.9699,21.9063)"
       d="M 0,0 V -0.115" />
    <path
       id="path206"
       transform="translate(19.9699,21.9063)"
       d="M 0,0 V 2.744" />
    <path
       id="path208"
       transform="translate(19.9699,24.7793)"
       d="M 0,0 V -0.129" />
    <path
       id="path210"
       transform="translate(11.2199,24.6807)"
       d="M 0,0 V 0.224" />
    <path
       id="path212"
       transform="translate(11.2199,21.8633)"
       d="M 0,0 V -0.072" />
    <path
       id="path214"
       transform="translate(11.2199,24.6807)"
       d="M 0,0 V -2.817" />
    <path
       id="path216"
       transform="translate(1.7199,21.8086)"
       d="M 0,0 V -0.018" />
    <path
       id="path218"
       transform="translate(1.7199,24.5811)"
       d="M 0,0 V -2.773" />
    <path
       id="path220"
       transform="translate(1.7199,24.5811)"
       d="M 0,0 V 0.073" />
    <path
       id="path222"
       transform="translate(52.2199,20.7793)"
       d="M 0,0 V -2.863" />
    <path
       id="path224"
       transform="translate(43.3449,17.8682)"
       d="M 0,0 V -0.077" />
    <path
       id="path226"
       transform="translate(43.3449,17.8682)"
       d="M 0,0 V 3.036" />
    <path
       id="path228"
       transform="translate(34.2199,17.9463)"
       d="M 0,0 V 3.047" />
    <path
       id="path230"
       transform="translate(34.2199,20.9932)"
       d="M 0,0 V 0.036" />
    <path
       id="path232"
       transform="translate(34.2199,17.9463)"
       d="M 0,0 V -0.03" />
    <path
       id="path234"
       transform="translate(24.8449,17.916)"
       d="M 0,0 V 2.988" />
    <path
       id="path236"
       transform="translate(24.8449,17.916)"
       d="M 0,0 0.01,0.01" />
    <path
       id="path238"
       transform="translate(16.0949,20.9805)"
       d="M 0,0 V -3.064" />
    <path
       id="path240"
       transform="translate(16.0949,21.0293)"
       d="M 0,0 V -0.049" />
    <path
       id="path242"
       transform="translate(6.5949,21.0068)"
       d="M 0,0 V -0.016" />
    <path
       id="path244"
       transform="translate(6.5949,20.9912)"
       d="M 0,0 V -3.075" />
    <path
       id="path246"
       transform="translate(46.9699,14.3008)"
       d="M 0,0 V -0.01" />
    <path
       id="path248"
       transform="translate(46.9699,16.9043)"
       d="M 0,0 V -2.604" />
    <path
       id="path250"
       transform="translate(38.0949,14.2842)"
       d="M 0,0 V 2.745" />
    <path
       id="path252"
       transform="translate(38.0949,14.2842)"
       d="M 0,0 V -0.118" />
    <path
       id="path254"
       transform="translate(28.9699,16.9951)"
       d="M 0,0 V -2.613" />
    <path
       id="path256"
       transform="translate(28.9699,14.3818)"
       d="M 0,0 V -0.091" />
    <path
       id="path258"
       transform="translate(28.9699,16.9951)"
       d="M 0,0 V 0.159" />
    <path
       id="path260"
       transform="translate(19.5949,17.0293)"
       d="M 0,0 V -2.683" />
    <path
       id="path262"
       transform="translate(19.5949,14.3467)"
       d="M 0,0 V -0.056" />
    <path
       id="path264"
       transform="translate(10.8449,17.0537)"
       d="M 0,0 V 0.101" />
    <path
       id="path266"
       transform="translate(10.8449,14.291)"
       d="M 0,0 V 0.01" />
    <path
       id="path268"
       transform="translate(10.8449,17.0537)"
       d="M 0,0 V -2.753" />
    <path
       id="path270"
       transform="translate(1.3449,14.2432)"
       d="M 0,0 V -0.077" />
    <path
       id="path272"
       transform="translate(1.3449,14.2432)"
       d="M 0,0 V 2.661" />
    <path
       id="path274"
       transform="translate(51.8449,13.4043)"
       d="M 0,0 V -0.057" />
    <path
       id="path276"
       transform="translate(51.8449,10.416)"
       d="M 0,0 V 2.932" />
    <path
       id="path278"
       transform="translate(42.9699,13.5293)"
       d="M 0,0 V -0.124" />
    <path
       id="path280"
       transform="translate(42.9699,10.3779)"
       d="M 0,0 V 3.027" />
    <path
       id="path282"
       transform="translate(42.9699,10.3779)"
       d="M 0,0 V -0.087" />
    <path
       id="path284"
       transform="translate(33.8449,10.46)"
       d="M 0,0 V 2.962" />
    <path
       id="path286"
       transform="translate(33.8449,13.6543)"
       d="M 0,0 V -0.232" />
    <path
       id="path288"
       transform="translate(33.8449,10.46)"
       d="M 0,0 V -0.044" />
    <path
       id="path290"
       transform="translate(24.4699,10.4287)"
       d="M 0,0 V -0.013" />
    <path
       id="path292"
       transform="translate(24.4699,13.5293)"
       d="M 0,0 V -0.159" />
    <path
       id="path294"
       transform="translate(24.4699,10.4287)"
       d="M 0,0 V 2.941" />
    <path
       id="path296"
       transform="translate(15.7199,13.4121)"
       d="M 0,0 V -2.996" />
    <path
       id="path298"
       transform="translate(15.7199,13.6543)"
       d="M 0,0 V -0.242" />
    <path
       id="path300"
       transform="translate(6.2199,13.4043)"
       d="M 0,0 V -2.988" />
    <path
       id="path302"
       transform="translate(46.8449,9.4502)"
       d="M 0,0 V -3.034" />
    <path
       id="path304"
       transform="translate(37.9699,9.5303)"
       d="M 0,0 V -3.239" />
    <path
       id="path306"
       transform="translate(37.9699,9.5303)"
       d="M 0,0 V 0.045" />
    <path
       id="path308"
       transform="translate(28.8449,9.4902)"
       d="M 0,0 V -3.074" />
    <path
       id="path310"
       transform="translate(28.8449,9.4902)"
       d="M 0,0 V 0.039" />
    <path
       id="path312"
       transform="translate(19.4699,6.3379)"
       d="M 0,0 V 3.066" />
    <path
       id="path314"
       transform="translate(19.4699,6.3379)"
       d="M 0,0 V -0.047" />
    <path
       id="path316"
       transform="translate(10.7199,9.5293)"
       d="M 0,0 V -3.113" />
    <path
       id="path318"
       transform="translate(1.2199,6.166)"
       d="M 0,0 V 0.067" />
    <path
       id="path320"
       transform="translate(1.2199,9.5068)"
       d="M 0,0 V -0.033" />
    <path
       id="path322"
       transform="translate(1.2199,6.2334)"
       d="M 0,0 V 3.24" />
    <path
       id="path324"
       transform="translate(51.3449,5.3203)"
       d="M 0,0 V 0.084" />
    <path
       id="path326"
       transform="translate(51.3449,5.3203)"
       d="M 0,0 V -2.529" />
    <path
       id="path328"
       transform="translate(42.4699,2.7695)"
       d="M 0,0 V 2.622" />
    <path
       id="path330"
       transform="translate(42.4699,2.7695)"
       d="M 0,0 V -0.104" />
    <path
       id="path332"
       transform="translate(42.4699,5.3916)"
       d="M 0,0 V 0.138" />
    <path
       id="path334"
       transform="translate(33.3449,5.5977)"
       d="M 0,0 V -0.195" />
    <path
       id="path336"
       transform="translate(33.3449,5.4024)"
       d="M 0,0 V -2.486" />
    <path
       id="path338"
       transform="translate(23.9699,2.8262)"
       d="M 0,0 V -0.16" />
    <path
       id="path340"
       transform="translate(23.9699,2.8262)"
       d="M 0,0 V 2.531" />
    <path
       id="path342"
       transform="translate(23.9699,5.416)"
       d="M 0,0 V -0.059" />
    <path
       id="path344"
       transform="translate(15.2199,5.4014)"
       d="M 0,0 V 0.026" />
    <path
       id="path346"
       transform="translate(15.2199,5.4014)"
       d="M 0,0 V -2.61" />
    <path
       id="path348"
       transform="translate(5.7199,2.7383)"
       d="M 0,0 V -0.072" />
    <path
       id="path350"
       transform="translate(5.7199,2.7383)"
       d="M 0,0 V 2.666" />
    <path
       id="path352"
       transform="translate(48.5656,52.377)"
       d="M 0,0 C -0.43,0.262 -1.239,0.417 -2.096,0.421" />
    <path
       id="path354"
       transform="translate(48.5656,52.377)"
       d="M 0,0 C -0.031,0.012 -0.063,0.023 -0.096,0.036 L 0.029,-0.019 C 0.02,-0.013 0.01,-0.006 0,0" />
    <path
       id="path356"
       transform="translate(41.8449,51.8994)"
       d="M 0,0 C 0.817,-0.028 1.662,0.075 2.25,0.405 2.867,0.752 3.77,0.901 4.625,0.898" />
    <path
       id="path358"
       transform="translate(5.4699,51.9268)"
       d="M 0,0 C -0.734,0.022 -1.458,0.178 -2.125,0.432 -3.101,0.804 -4.391,0.893 -5.427,0.756" />
    <path
       id="path360"
       transform="translate(14.8449,51.9043)"
       d="m 0,0 c -0.97,0.01 -1.888,0.259 -2.417,0.509 -0.75,0.485 -3.333,0.54 -4.5,0 -0.79,-0.366 -1.632,-0.511 -2.458,-0.486" />
    <path
       id="path362"
       transform="translate(41.8449,51.8994)"
       d="M 0,0 C -0.922,0.031 -1.809,0.23 -2.25,0.459 -3.083,0.892 -4.75,1.161 -6.75,0.405 -7.585,0.09 -8.404,-0.009 -9.125,0.011" />
    <path
       id="path364"
       transform="translate(32.7199,51.9102)"
       d="m 0,0 c -1.007,0.026 -1.82,0.283 -2.208,0.503 -0.667,0.378 -2.778,0.852 -4.5,-0.055 -1.334,-0.701 -3.556,-0.589 -4.5,-0.107 -1.167,0.593 -3.084,0.918 -4.584,0.107 -0.634,-0.343 -1.372,-0.462 -2.083,-0.454" />
    <path
       id="path366"
       transform="translate(48.5656,52.377)"
       d="M 0,0 C 2.583,-0.977 3.088,-0.445 4.404,-0.019 4.716,0.133 5.133,0.242 5.603,0.306" />
    <path
       id="path368"
       transform="translate(37.3449,47.7783)"
       d="m 0,0 c 0.711,-0.014 1.515,0.087 2.333,0.396 2,0.756 3.667,0.487 4.5,0.054 0.834,-0.431 3.25,-0.756 4.5,-0.054 1.235,0.695 3.611,0.596 4.471,0.073" />
    <path
       id="path370"
       transform="translate(10.0949,47.7959)"
       d="m 0,0 c 0.813,-0.018 1.64,0.128 2.417,0.487 1.166,0.54 3.75,0.486 4.5,0 0.916,-0.432 3,-0.864 4.5,-0.054 1.5,0.81 3.416,0.486 4.583,-0.108 0.477,-0.242 1.277,-0.391 2.125,-0.389" />
    <path
       id="path372"
       transform="translate(53.1486,48.2471)"
       d="M 0,0 C 0.382,-0.145 0.719,-0.256 1.02,-0.34" />
    <path
       id="path374"
       transform="translate(53.1486,48.2471)"
       d="M 0,0 C -0.032,0.012 -0.064,0.023 -0.096,0.036 L 0.029,-0.019 C 0.02,-0.013 0.01,-0.007 0,0" />
    <path
       id="path376"
       transform="translate(28.2199,47.7315)"
       d="M 0,0 C 0.834,0.001 1.714,0.148 2.375,0.497 4.098,1.404 6.208,0.93 6.875,0.552 7.27,0.328 8.1,0.067 9.125,0.047" />
    <path
       id="path378"
       transform="translate(10.0949,47.7959)"
       d="m 0,0 c -0.749,0.017 -1.487,0.174 -2.167,0.433 -1.416,0.54 -3.5,0.486 -4.5,0 -1.122,-0.364 -1.654,-0.804 -3.385,-0.322" />
    <path
       id="path380"
       transform="translate(18.8449,44.708)"
       d="m 0,0 c -0.629,-0.026 -1.261,-0.171 -1.833,-0.48 -1.5,-0.809 -3.584,-0.377 -4.5,0.055 -0.75,0.486 -3.334,0.54 -4.5,0 -1.494,-0.691 -3.167,-0.595 -4.584,-0.055 -0.832,0.318 -1.896,0.43 -2.833,0.37" />
    <path
       id="path382"
       transform="translate(48.6486,44.2471)"
       d="M 0,0 C 2.583,-0.977 3.087,-0.445 4.404,-0.019 4.697,0.124 5.084,0.23 5.52,0.293" />
    <path
       id="path384"
       transform="translate(32.8449,43.7783)"
       d="M 0,0 C -1.025,0.02 -1.855,0.281 -2.25,0.505 -2.917,0.883 -5.027,1.357 -6.75,0.45 -8.083,-0.252 -10.305,-0.139 -11.25,0.343 -11.972,0.71 -12.98,0.974 -14,0.93" />
    <path
       id="path386"
       transform="translate(48.6486,44.2471)"
       d="M 0,0 C -0.032,0.012 -0.064,0.023 -0.096,0.036 L 0.029,-0.019 C 0.02,-0.013 0.01,-0.007 0,0" />
    <path
       id="path388"
       transform="translate(0.0431,44.54)"
       d="M 0,0 C 0.177,0.026 0.361,0.046 0.552,0.058" />
    <path
       id="path390"
       transform="translate(32.8449,43.7783)"
       d="m 0,0 c 0.711,-0.014 1.515,0.087 2.333,0.396 2,0.756 3.667,0.487 4.5,0.054 0.834,-0.431 3.25,-0.756 4.5,-0.054 1.235,0.695 3.611,0.596 4.471,0.073" />
    <path
       id="path392"
       transform="translate(53.3986,40.3721)"
       d="M 0,0 C -0.032,0.012 -0.064,0.023 -0.096,0.036 L 0.029,-0.019 C 0.02,-0.013 0.01,-0.007 0,0" />
    <path
       id="path394"
       transform="translate(41.9699,40.7598)"
       d="m 0,0 c 1.068,0.076 1.931,-0.133 2.458,-0.406 0.834,-0.432 3.25,-0.756 4.5,-0.054 1.235,0.694 3.611,0.596 4.471,0.072" />
    <path
       id="path396"
       transform="translate(53.3986,40.3721)"
       d="M 0,0 C 0.279,-0.107 0.535,-0.194 0.77,-0.267" />
    <path
       id="path398"
       transform="translate(5.2199,40.7139)"
       d="M 0,0 C -0.608,-0.05 -1.156,-0.173 -1.542,-0.36 -2.717,-0.74 -3.244,-1.205 -5.177,-0.608" />
    <path
       id="path400"
       transform="translate(23.4699,40.8262)"
       d="m 0,0 c -0.587,-0.04 -1.174,-0.184 -1.708,-0.473 -1.5,-0.809 -3.584,-0.378 -4.5,0.055 -0.75,0.485 -3.334,0.54 -4.5,0 -0.897,-0.415 -1.859,-0.546 -2.792,-0.467" />
    <path
       id="path402"
       transform="translate(23.4699,40.8262)"
       d="m 0,0 c 1.062,0.072 2.123,-0.197 2.875,-0.58 0.945,-0.482 3.167,-0.595 4.5,0.107 1.723,0.908 3.833,0.433 4.5,0.055 0.395,-0.224 1.225,-0.484 2.25,-0.505" />
    <path
       id="path404"
       transform="translate(37.5949,39.9033)"
       d="m 0,0 c 0.711,-0.014 1.515,0.087 2.333,0.396 0.733,0.278 1.423,0.417 2.042,0.46" />
    <path
       id="path406"
       transform="translate(5.2199,40.7139)"
       d="M 0,0 C 0.968,0.079 2.089,-0.028 2.958,-0.36 3.523,-0.576 4.131,-0.721 4.75,-0.772" />
    <path
       id="path408"
       transform="translate(1.4699,36.6123)"
       d="M 0,0 C -0.517,-0.008 -1.01,-0.065 -1.427,-0.17" />
    <path
       id="path410"
       transform="translate(51.5949,35.6963)"
       d="M 0,0 C 0.737,0.021 1.22,0.293 1.958,0.532 2.133,0.617 2.342,0.688 2.573,0.746" />
    <path
       id="path412"
       transform="translate(49.1486,36.2471)"
       d="M 0,0 C -0.032,0.012 -0.064,0.023 -0.096,0.036 L 0.029,-0.019 C 0.02,-0.013 0.01,-0.007 0,0" />
    <path
       id="path414"
       transform="translate(49.1486,36.2471)"
       d="M 0,0 C 1.135,-0.43 1.869,-0.567 2.446,-0.551" />
    <path
       id="path416"
       transform="translate(15.4699,35.7734)"
       d="M 0,0 C 0.698,-0.002 1.42,0.119 2.042,0.455 2.652,0.785 3.331,0.927 4,0.939" />
    <path
       id="path418"
       transform="translate(24.2199,35.7315)"
       d="M 0,0 C -0.848,-0.002 -1.648,0.147 -2.125,0.39 -2.817,0.742 -3.773,0.999 -4.75,0.981" />
    <path
       id="path420"
       transform="translate(24.2199,35.7315)"
       d="m 0,0 c 0.834,0.001 1.714,0.148 2.375,0.497 1.723,0.907 3.833,0.433 4.5,0.055 0.426,-0.241 1.36,-0.527 2.5,-0.505" />
    <path
       id="path422"
       transform="translate(15.4699,35.7734)"
       d="m 0,0 c -0.985,0.004 -1.922,0.257 -2.458,0.51 -0.75,0.485 -3.334,0.54 -4.5,0 C -7.775,0.132 -8.646,-0.011 -9.5,0.026" />
    <path
       id="path424"
       transform="translate(5.9699,35.7998)"
       d="M 0,0 C -0.706,0.031 -1.4,0.185 -2.042,0.429 -2.765,0.704 -3.662,0.825 -4.5,0.813" />
    <path
       id="path426"
       transform="translate(33.5949,35.7783)"
       d="m 0,0 c 0.646,0.013 1.359,0.123 2.083,0.396 2,0.756 3.667,0.487 4.5,0.054 0.488,-0.253 1.521,-0.469 2.542,-0.463" />
    <path
       id="path428"
       transform="translate(42.7199,35.7656)"
       d="M 0,0 C 0.723,0.004 1.44,0.118 1.958,0.409 3.193,1.104 5.569,1.005 6.429,0.482" />
    <path
       id="path430"
       transform="translate(24.2199,32.9629)"
       d="m 0,0 c -0.709,0.004 -1.435,-0.134 -2.083,-0.484 -1.5,-0.81 -3.584,-0.378 -4.5,0.054 -0.386,0.249 -1.255,0.385 -2.167,0.385" />
    <path
       id="path432"
       transform="translate(1.5949,31.9688)"
       d="M 0,0 C -0.415,0.046 -0.914,0.164 -1.552,0.385" />
    <path
       id="path434"
       transform="translate(29.2199,31.9922)"
       d="M 0,0 C 0.717,0.039 1.438,0.189 2,0.486 3.723,1.394 5.833,0.919 6.5,0.541 6.941,0.291 7.929,-0.006 9.125,0.04" />
    <path
       id="path436"
       transform="translate(42.7199,32.9004)"
       d="m 0,0 c 0.896,0.01 1.619,-0.181 2.083,-0.422 0.834,-0.432 3.25,-0.756 4.5,-0.054 0.598,0.336 1.462,0.487 2.292,0.493" />
    <path
       id="path438"
       transform="translate(15.4699,32.918)"
       d="m 0,0 c -0.863,0 -1.766,-0.122 -2.333,-0.385 -1.494,-0.691 -3.167,-0.594 -4.584,-0.054 -1.416,0.54 -3.5,0.486 -4.5,0 -0.893,-0.29 -1.412,-0.627 -2.458,-0.51" />
    <path
       id="path440"
       transform="translate(53.7736,32.4971)"
       d="M 0,0 C 0.137,-0.052 0.268,-0.1 0.395,-0.144" />
    <path
       id="path442"
       transform="translate(53.7736,32.4971)"
       d="M 0,0 C -0.032,0.012 -0.064,0.023 -0.096,0.036 L 0.029,-0.019 C 0.02,-0.013 0.01,-0.007 0,0" />
    <path
       id="path444"
       transform="translate(51.5949,32.917)"
       d="M 0,0 C 0.887,0.008 1.735,-0.149 2.179,-0.42" />
    <path
       id="path446"
       transform="translate(24.2199,32.9629)"
       d="M 0,0 C 0.933,-0.005 1.837,-0.255 2.5,-0.592 3.046,-0.87 4.019,-1.024 5,-0.971" />
    <path
       id="path448"
       transform="translate(42.7199,32.9004)"
       d="M 0,0 C -0.712,-0.008 -1.531,-0.141 -2.417,-0.476 -3.095,-0.731 -3.762,-0.845 -4.375,-0.868" />
    <path
       id="path450"
       transform="translate(33.4699,28.4522)"
       d="m 0,0 c 0.613,0.023 1.28,0.137 1.958,0.393 2,0.755 3.667,0.486 4.5,0.053 0.834,-0.431 3.25,-0.756 4.5,-0.053 0.719,0.404 1.824,0.54 2.792,0.479" />
    <path
       id="path452"
       transform="translate(29.2199,29.3887)"
       d="M 0,0 C 0.725,-0.073 1.323,-0.265 1.625,-0.436 2.066,-0.686 3.054,-0.982 4.25,-0.937" />
    <path
       id="path454"
       transform="translate(5.8449,28.4658)"
       d="M 0,0 C 0.813,-0.019 1.64,0.128 2.417,0.487 3.095,0.802 4.252,0.914 5.25,0.858" />
    <path
       id="path456"
       transform="translate(1.5949,29.2793)"
       d="M 0,0 C -0.549,0.018 -1.086,-0.021 -1.552,-0.111" />
    <path
       id="path458"
       transform="translate(48.8986,28.917)"
       d="M 0,0 C 2.583,-0.977 3.087,-0.445 4.404,-0.019 4.64,0.096 4.936,0.186 5.27,0.251" />
    <path
       id="path460"
       transform="translate(11.0949,29.3242)"
       d="M 0,0 C 0.718,-0.04 1.354,-0.168 1.667,-0.371 2.226,-0.635 3.22,-0.898 4.25,-0.88" />
    <path
       id="path462"
       transform="translate(5.8449,28.4658)"
       d="M 0,0 C -0.749,0.017 -1.487,0.174 -2.167,0.433 -2.783,0.668 -3.525,0.79 -4.25,0.813" />
    <path
       id="path464"
       transform="translate(19.8449,29.3574)"
       d="M 0,0 C -0.861,0.083 -1.781,-0.025 -2.583,-0.459 -3.168,-0.774 -3.842,-0.901 -4.5,-0.913" />
    <path
       id="path466"
       transform="translate(48.8986,28.917)"
       d="M 0,0 C -0.359,0.219 -0.983,0.363 -1.679,0.407" />
    <path
       id="path468"
       transform="translate(19.8449,29.3574)"
       d="M 0,0 C 0.751,-0.072 1.457,-0.29 2,-0.566 2.5,-0.821 3.356,-0.973 4.25,-0.955" />
    <path
       id="path470"
       transform="translate(24.0949,28.4024)"
       d="m 0,0 c 0.796,0.016 1.622,0.166 2.25,0.496 0.942,0.496 2,0.579 2.875,0.49" />
    <path
       id="path472"
       transform="translate(48.8986,28.917)"
       d="M 0,0 C -0.032,0.012 -0.064,0.023 -0.096,0.036 L 0.029,-0.019 C 0.02,-0.013 0.01,-0.007 0,0" />
    <path
       id="path474"
       transform="translate(47.3449,24.6406)"
       d="m 0,0 c 0.723,0.004 1.44,0.118 1.958,0.409 1.235,0.695 3.61,0.596 4.47,0.073" />
    <path
       id="path476"
       transform="translate(53.7726,25.1221)"
       d="M 0,0 C -0.031,0.012 -0.063,0.023 -0.095,0.036 L 0.03,-0.019 C 0.021,-0.013 0.011,-0.006 0,0" />
    <path
       id="path478"
       transform="translate(24.0949,25.5879)"
       d="M 0,0 C -0.669,-0.013 -1.348,-0.154 -1.958,-0.484 -2.617,-0.84 -3.389,-0.956 -4.125,-0.938" />
    <path
       id="path480"
       transform="translate(11.2199,24.6807)"
       d="M 0,0 C 0.649,0.04 1.299,0.191 1.917,0.478 2.457,0.728 3.3,0.85 4.125,0.861" />
    <path
       id="path482"
       transform="translate(19.9699,24.6504)"
       d="M 0,0 C -0.939,0.023 -1.819,0.266 -2.333,0.508 -2.736,0.769 -3.668,0.905 -4.625,0.892" />
    <path
       id="path484"
       transform="translate(29.3449,24.625)"
       d="M 0,0 C -1.022,-0.075 -2.056,0.081 -2.625,0.371 -3.317,0.724 -4.273,0.98 -5.25,0.963" />
    <path
       id="path486"
       transform="translate(53.7726,25.1221)"
       d="M 0,0 C 0.138,-0.052 0.27,-0.1 0.396,-0.144" />
    <path
       id="path488"
       transform="translate(42.5949,25.5225)"
       d="M 0,0 C 0.953,0.029 1.723,-0.167 2.208,-0.419 2.696,-0.672 3.729,-0.888 4.75,-0.882" />
    <path
       id="path490"
       transform="translate(1.7199,24.5811)"
       d="M 0,0 C -0.439,0.036 -0.974,0.154 -1.677,0.397" />
    <path
       id="path492"
       transform="translate(5.8449,25.4805)"
       d="m 0,0 c -0.707,-0.034 -1.354,-0.164 -1.792,-0.377 -0.856,-0.277 -1.369,-0.6 -2.333,-0.522" />
    <path
       id="path494"
       transform="translate(5.8449,25.4805)"
       d="M 0,0 C 0.906,0.042 1.912,-0.073 2.708,-0.377 3.538,-0.693 4.456,-0.857 5.375,-0.8" />
    <path
       id="path496"
       transform="translate(29.3449,24.625)"
       d="M 0,0 C 0.675,0.05 1.345,0.199 1.875,0.479 2.602,0.861 3.397,0.998 4.125,1" />
    <path
       id="path498"
       transform="translate(42.5949,25.5225)"
       d="M 0,0 C -0.682,-0.021 -1.458,-0.157 -2.292,-0.473 -2.924,-0.711 -3.547,-0.826 -4.125,-0.859" />
    <path
       id="path500"
       transform="translate(38.4699,24.6631)"
       d="M 0,0 C -1.253,-0.072 -2.294,0.236 -2.75,0.495 -3.136,0.714 -4.004,0.965 -5,0.962" />
    <path
       id="path502"
       transform="translate(29.3449,21.9404)"
       d="M 0,0 C 0.89,-0.035 1.647,-0.262 2,-0.462 2.472,-0.729 3.567,-1.049 4.875,-0.947" />
    <path
       id="path504"
       transform="translate(6.5949,20.9912)"
       d="M 0,0 C -0.834,-0.017 -1.662,0.146 -2.417,0.434 -3.14,0.709 -4.037,0.83 -4.875,0.817" />
    <path
       id="path506"
       transform="translate(34.2199,20.9932)"
       d="m 0,0 c 0.543,0.042 1.121,0.156 1.708,0.378 2,0.756 3.667,0.485 4.5,0.054 0.834,-0.432 3.25,-0.756 4.5,-0.054 1.237,0.695 3.619,0.596 4.475,0.069" />
    <path
       id="path508"
       transform="translate(19.9699,21.9063)"
       d="m 0,0 c -0.749,0.021 -1.521,-0.111 -2.208,-0.481 -0.511,-0.276 -1.09,-0.408 -1.667,-0.445" />
    <path
       id="path510"
       transform="translate(11.2199,21.8633)"
       d="M 0,0 C -0.9,0.012 -1.863,-0.109 -2.458,-0.385 -3.156,-0.708 -3.894,-0.858 -4.625,-0.872" />
    <path
       id="path512"
       transform="translate(49.4025,21.4404)"
       d="M 0,0 C 2.58,-0.974 3.084,-0.441 4.4,-0.016 4.51,0.037 4.633,0.085 4.766,0.128" />
    <path
       id="path514"
       transform="translate(16.0949,20.9805)"
       d="M 0,0 C -1.117,-0.071 -2.229,0.214 -2.833,0.498 -3.2,0.736 -4.009,0.871 -4.875,0.883" />
    <path
       id="path516"
       transform="translate(1.7199,21.8086)"
       d="M 0,0 C -0.624,-0.009 -1.215,-0.092 -1.677,-0.24" />
    <path
       id="path518"
       transform="translate(49.4025,21.4404)"
       d="M 0,0 C -0.033,0.013 -0.066,0.025 -0.1,0.038 L 0.025,-0.016 C 0.018,-0.011 0.009,-0.005 0,0" />
    <path
       id="path520"
       transform="translate(19.9699,21.9063)"
       d="m 0,0 c 0.888,-0.025 1.742,-0.268 2.375,-0.59 0.945,-0.48 3.167,-0.594 4.5,0.109 0.812,0.426 1.708,0.546 2.5,0.515" />
    <path
       id="path522"
       transform="translate(24.8449,17.916)"
       d="m 0,0 c -0.931,0.131 -1.953,0.046 -2.833,-0.429 -1.5,-0.809 -3.584,-0.378 -4.5,0.054 -0.75,0.486 -3.334,0.54 -4.5,0 -0.698,-0.323 -1.436,-0.474 -2.167,-0.487" />
    <path
       id="path524"
       transform="translate(34.2199,17.9463)"
       d="m 0,0 c 0.611,-0.088 1.108,-0.254 1.375,-0.405 0.667,-0.378 2.583,-0.864 4.583,-0.108 1.217,0.46 2.31,0.539 3.167,0.435" />
    <path
       id="path526"
       transform="translate(34.2199,17.9463)"
       d="M 0,0 C -0.917,0.132 -2.091,0.085 -3.125,-0.459 -3.721,-0.773 -4.493,-0.923 -5.25,-0.951" />
    <path
       id="path528"
       transform="translate(53.6515,17.5039)"
       d="M 0,0 C 0.183,-0.069 0.354,-0.131 0.517,-0.185" />
    <path
       id="path530"
       transform="translate(10.8449,17.0537)"
       d="m 0,0 c -0.834,-0.017 -1.662,0.146 -2.417,0.434 -1.416,0.54 -3.5,0.486 -4.5,0 -1.224,-0.397 -1.745,-0.884 -3.885,-0.168" />
    <path
       id="path532"
       transform="translate(43.3449,17.8682)"
       d="m 0,0 c 0.552,-0.067 1.007,-0.212 1.333,-0.381 0.834,-0.432 3.25,-0.756 4.5,-0.054 1.237,0.696 3.618,0.596 4.474,0.071" />
    <path
       id="path534"
       transform="translate(24.8449,17.916)"
       d="M 0,0 C 0.656,-0.092 1.268,-0.291 1.75,-0.537 2.273,-0.803 3.188,-0.956 4.125,-0.921" />
    <path
       id="path536"
       transform="translate(53.6515,17.5039)"
       d="M 0,0 C -0.032,0.012 -0.065,0.024 -0.099,0.037 L 0.026,-0.017 C 0.018,-0.011 0.009,-0.006 0,0" />
    <path
       id="path538"
       transform="translate(54.1681,14.0772)"
       d="M 0,0 C -0.231,-0.059 -0.44,-0.13 -0.615,-0.215 -1.267,-0.426 -1.72,-0.663 -2.323,-0.729" />
    <path
       id="path540"
       transform="translate(49.1525,13.8779)"
       d="M 0,0 C 1.303,-0.491 2.076,-0.6 2.692,-0.53" />
    <path
       id="path542"
       transform="translate(15.7199,13.4121)"
       d="M 0,0 C -1.074,-0.044 -2.127,0.23 -2.708,0.504 -3.094,0.754 -3.963,0.89 -4.875,0.889" />
    <path
       id="path544"
       transform="translate(19.5949,14.3467)"
       d="M 0,0 C -0.709,0.003 -1.435,-0.135 -2.083,-0.484 -2.631,-0.78 -3.257,-0.91 -3.875,-0.935" />
    <path
       id="path546"
       transform="translate(1.3449,14.2432)"
       d="M 0,0 C 0.873,0.027 1.824,-0.092 2.583,-0.381 4,-0.921 5.673,-1.019 7.167,-0.327 7.734,-0.064 8.637,0.058 9.5,0.058" />
    <path
       id="path548"
       transform="translate(24.4699,13.3701)"
       d="m 0,0 c -0.938,-0.035 -1.852,0.118 -2.375,0.384 -0.663,0.338 -1.567,0.588 -2.5,0.593" />
    <path
       id="path550"
       transform="translate(46.9699,14.3008)"
       d="M 0,0 C -0.83,-0.006 -1.694,-0.156 -2.292,-0.492 -2.75,-0.749 -3.364,-0.869 -4,-0.895" />
    <path
       id="path552"
       transform="translate(49.1525,13.8779)"
       d="M 0,0 C -0.033,0.013 -0.066,0.025 -0.1,0.038 L 0.025,-0.016 C 0.018,-0.011 0.009,-0.005 0,0" />
    <path
       id="path554"
       transform="translate(38.0949,14.2842)"
       d="M 0,0 C 0.896,0.009 1.619,-0.182 2.083,-0.422 2.611,-0.695 3.775,-0.926 4.875,-0.879" />
    <path
       id="path556"
       transform="translate(1.3449,14.2432)"
       d="M 0,0 C -0.471,-0.014 -0.919,-0.071 -1.302,-0.167" />
    <path
       id="path558"
       transform="translate(49.1525,13.8779)"
       d="M 0,0 C -0.442,0.273 -1.293,0.431 -2.183,0.423" />
    <path
       id="path560"
       transform="translate(28.9699,14.3818)"
       d="M 0,0 C -0.761,0.015 -1.606,-0.115 -2.375,-0.52 -2.971,-0.833 -3.743,-0.983 -4.5,-1.012" />
    <path
       id="path562"
       transform="translate(33.8449,13.4219)"
       d="M 0,0 C -1.253,-0.073 -2.294,0.235 -2.75,0.494 -3.119,0.703 -3.932,0.942 -4.875,0.96" />
    <path
       id="path564"
       transform="translate(38.0949,14.2842)"
       d="M 0,0 C -0.712,-0.008 -1.531,-0.141 -2.417,-0.476 -3.049,-0.714 -3.672,-0.829 -4.25,-0.862" />
    <path
       id="path566"
       transform="translate(53.4396,9.9971)"
       d="M 0,0 C 0.264,-0.099 0.505,-0.184 0.729,-0.253" />
    <path
       id="path568"
       transform="translate(28.8449,9.4902)"
       d="M 0,0 C -0.967,-0.048 -1.92,0.106 -2.458,0.381 -2.981,0.647 -3.655,0.858 -4.375,0.938" />
    <path
       id="path570"
       transform="translate(37.9699,9.5303)"
       d="m 0,0 c 0.624,0.02 1.307,0.133 2,0.395 1.139,0.43 2.17,0.528 3,0.453" />
    <path
       id="path572"
       transform="translate(37.9699,9.5303)"
       d="M 0,0 C -1.178,-0.037 -2.147,0.256 -2.583,0.503 -2.873,0.668 -3.438,0.851 -4.125,0.93" />
    <path
       id="path574"
       transform="translate(28.8449,9.4902)"
       d="M 0,0 C 0.73,0.035 1.468,0.187 2.042,0.488 3.014,1 4.109,1.072 5,0.97" />
    <path
       id="path576"
       transform="translate(42.9699,10.3779)"
       d="M 0,0 C 0.628,-0.058 1.142,-0.213 1.5,-0.399 2.333,-0.831 4.75,-1.155 6,-0.453 7.235,0.241 9.609,0.143 10.47,-0.381" />
    <path
       id="path578"
       transform="translate(24.4699,10.4287)"
       d="m 0,0 c -0.886,0.099 -1.84,-0.003 -2.667,-0.45 -1.5,-0.81 -3.583,-0.378 -4.5,0.055 -0.75,0.485 -3.333,0.54 -4.5,0 -1.493,-0.692 -3.166,-0.595 -4.583,-0.055 -1.417,0.54 -3.5,0.486 -4.5,0 -0.904,-0.293 -1.426,-0.636 -2.5,-0.505" />
    <path
       id="path580"
       transform="translate(53.4396,9.9971)"
       d="M 0,0 C -0.031,0.013 -0.063,0.023 -0.095,0.036 L 0.03,-0.019 C 0.02,-0.012 0.01,-0.006 0,0" />
    <path
       id="path582"
       transform="translate(0.0431,9.7432)"
       d="M 0,0 C 0.463,-0.145 0.846,-0.229 1.177,-0.27" />
    <path
       id="path584"
       transform="translate(51.3449,5.3203)"
       d="M 0,0 C 0.834,-0.018 1.332,0.276 2.125,0.533 2.32,0.628 2.558,0.707 2.823,0.768" />
    <path
       id="path586"
       transform="translate(33.3449,5.4024)"
       d="M 0,0 C -1.064,0.008 -1.929,0.276 -2.333,0.506 -3,0.884 -5.111,1.358 -6.833,0.451 -7.539,0.08 -8.493,-0.064 -9.375,-0.045" />
    <path
       id="path588"
       transform="translate(1.2199,6.2334)"
       d="m 0,0 c 0.885,0.032 1.854,-0.086 2.625,-0.38 1.417,-0.54 3.09,-0.637 4.583,0.055 1.167,0.54 3.75,0.485 4.5,0 0.507,-0.239 1.369,-0.478 2.292,-0.507" />
    <path
       id="path590"
       transform="translate(42.4699,5.3916)"
       d="m 0,0 c -0.966,0.017 -1.913,0.223 -2.375,0.462 -0.833,0.433 -2.5,0.702 -4.5,-0.054 -0.787,-0.297 -1.561,-0.401 -2.25,-0.397" />
    <path
       id="path592"
       transform="translate(0.0431,6.0879)"
       d="M 0,0 C 0.352,0.081 0.755,0.13 1.177,0.145" />
    <path
       id="path594"
       transform="translate(42.4699,5.3916)"
       d="M 0,0 C 0.777,-0.014 1.567,0.095 2.125,0.408 3.36,1.103 5.736,1.004 6.596,0.48" />
    <path
       id="path596"
       transform="translate(15.2199,5.4014)"
       d="M 0,0 C 0.748,-0.023 1.536,0.09 2.208,0.452 2.844,0.796 3.554,0.935 4.25,0.937" />
    <path
       id="path598"
       transform="translate(51.3449,5.3203)"
       d="M 0,0 C -0.552,0.013 -1.251,0.162 -2.279,0.552" />
    <path
       id="path600"
       transform="translate(49.0656,5.8721)"
       d="M 0,0 C -0.031,0.012 -0.063,0.023 -0.096,0.036 L 0.029,-0.019 C 0.02,-0.013 0.01,-0.007 0,0" />
    <path
       id="path602"
       transform="translate(23.9699,5.3574)"
       d="M 0,0 C -0.785,0.017 -1.514,0.162 -1.958,0.389 -2.631,0.73 -3.553,0.983 -4.5,0.98" />
    <path
       id="path604"
       transform="translate(5.7199,2.7383)"
       d="M 0,0 C 0.776,-0.009 1.586,-0.132 2.25,-0.385 2.992,-0.668 3.805,-0.828 4.625,-0.818" />
    <path
       id="path606"
       transform="translate(53.1896,2.3721)"
       d="m 0,0 c -0.859,0.523 -3.234,0.622 -4.47,-0.072 -0.588,-0.33 -1.432,-0.434 -2.25,-0.406" />
    <path
       id="path608"
       transform="translate(0.0431,2.044)"
       d="m 0,0 c 1.765,-0.501 2.296,-0.057 3.427,0.309 0.531,0.259 1.369,0.395 2.25,0.385" />
    <path
       id="path610"
       transform="translate(42.4699,2.7695)"
       d="M 0,0 C 0.742,-0.034 1.345,-0.206 1.75,-0.416 2.191,-0.645 3.078,-0.844 4,-0.875" />
    <path
       id="path612"
       transform="translate(53.1896,2.3721)"
       d="M 0,0 C -0.031,0.013 -0.063,0.023 -0.095,0.036 L 0.03,-0.019 C 0.02,-0.013 0.011,-0.006 0,0" />
    <path
       id="path614"
       transform="translate(53.1896,2.3721)"
       d="M 0,0 C 0.365,-0.138 0.688,-0.246 0.979,-0.328" />
    <path
       id="path616"
       transform="translate(23.9699,2.8262)"
       d="M 0,0 C -0.813,0.055 -1.667,-0.067 -2.417,-0.473 -3.164,-0.876 -4.055,-0.971 -4.875,-0.912" />
    <path
       id="path618"
       transform="translate(19.0949,1.9141)"
       d="m 0,0 c -0.827,0.061 -1.582,0.277 -2.042,0.494 -0.75,0.486 -3.333,0.54 -4.5,0 C -7.253,0.165 -8.005,0.015 -8.75,0.006" />
    <path
       id="path620"
       transform="translate(23.9699,2.8262)"
       d="m 0,0 c 0.813,-0.054 1.584,-0.283 2.167,-0.58 0.944,-0.482 3.166,-0.595 4.5,0.107 1.722,0.908 3.833,0.433 4.5,0.055 0.666,-0.378 2.583,-0.864 4.583,-0.108 1.027,0.388 1.967,0.505 2.75,0.469" />
    <path
       id="path622"
       transform="translate(46.4699,1.8945)"
       d="M 0,0 V 0.023" />
    <path
       id="path624"
       transform="translate(46.4699,1.8945)"
       d="M 0,0 V -1.895" />
    <path
       id="path626"
       transform="translate(37.5949,1.8721)"
       d="M 0,0 V -1.872" />
    <path
       id="path628"
       transform="translate(28.4699,1.8272)"
       d="M 0,0 V -1.827" />
    <path
       id="path630"
       transform="translate(19.0949,1.9141)"
       d="M 0,0 V -1.914" />
    <path
       id="path632"
       transform="translate(19.0949,1.9854)"
       d="M 0,0 V -0.071" />
    <path
       id="path634"
       transform="translate(10.3449,1.9199)"
       d="M 0,0 V -1.92" />
    <path
       id="path636"
       transform="translate(10.3449,1.9199)"
       d="M 0,0 V 0.02" />
    <path
       id="path638"
       transform="translate(0.8449,1.8604)"
       d="M 0,0 V -1.86" />
  </g>
</svg>
