<?xml version="1.0" encoding="UTF-8" standalone="no"?>
<svg
   xmlns:dc="http://purl.org/dc/elements/1.1/"
   xmlns:cc="http://creativecommons.org/ns#"
   xmlns:rdf="http://www.w3.org/1999/02/22-rdf-syntax-ns#"
   xmlns:svg="http://www.w3.org/2000/svg"
   xmlns="http://www.w3.org/2000/svg"
   height="54.125"
   width="54.125"
   id="svg1112"
   version="1.1">
  <defs
     id="defs1116" />
  <metadata
     id="metadata2">citation: U.S. Geological Survey, 2006, FGDC Digital Cartographic Standard for Geologic Map Symbolization (PostScript Implementation): U.S. Geological Survey Techniques and Methods 11-A2 [pubs.usgs.gov/tm/2006/11A02/]. converted by CEC Geology LLC 2018 from the USGS lithologic gs converted to inkscape by the University of Otago.<rdf:RDF>
  <cc:Work
     rdf:about="">
    <dc:format>image/svg+xml</dc:format>
    <dc:type
       rdf:resource="http://purl.org/dc/dcmitype/StillImage" />
    <dc:title></dc:title>
  </cc:Work>
</rdf:RDF>
</metadata>
  <g
     stroke-width=".3"
     stroke="#231f20"
     fill="none"

     id="g1110"
     width="54.125"
     height="54.125">
    <path
       id="path4"
       transform="translate(45.6875,50.3213)"
       d="m 0,0 c -0.057,0.02 -0.113,0.041 -0.17,0.064 -0.53,0.294 -1.178,0.707 -1.414,1.296 -0.354,0.943 0.209,1.823 1.12,2.092 0.653,0.193 1.266,0.297 1.858,0.352" />
    <path
       id="path6"
       transform="translate(45.6875,50.3213)"
       d="M 0,0 C 0.799,-0.285 1.621,-0.343 2.455,-0.335" />
    <path
       id="path8"
       transform="translate(47.0811,54.125)"
       d="M 0,0 C 1.077,0.099 2.087,0.031 3.151,0.031 3.524,0.031 3.887,0.02 4.243,0" />
    <path
       id="path10"
       transform="translate(54.126,53.8448)"
       d="M 0,0 C -0.965,0.117 -1.864,0.228 -2.802,0.28" />
    <path
       id="path12"
       transform="translate(54.126,50.1661)"
       d="M 0,0 C -1.003,-0.21 -2.054,-0.227 -3.069,-0.134 -4.046,-0.073 -5.023,-0.17 -5.983,-0.18" />
    <path
       id="path14"
       transform="translate(30.8418,50.1001)"
       d="M 0,0 C 0.325,-0.121 0.671,-0.186 1.006,-0.186 1.989,-0.233 2.952,-0.259 3.905,-0.258" />
    <path
       id="path16"
       transform="translate(39.0742,50.0601)"
       d="M 0,0 C 0.865,0.091 1.736,0.212 2.621,0.37" />
    <path
       id="path18"
       transform="translate(39.0742,50.0601)"
       d="M 0,0 C -1.445,-0.151 -2.875,-0.216 -4.327,-0.218" />
    <path
       id="path20"
       transform="translate(41.6953,50.4297)"
       d="m 0,0 c 0.329,0.059 0.66,0.122 0.994,0.191 0.707,0.118 1.532,1.061 1.179,1.65 -1.474,2.534 -4.39,1.679 -7.219,1.679 -2.134,0 -4.39,0.383 -6.275,-0.324 -0.589,-0.236 -1.2,-0.78 -1.119,-1.709 0.073,-0.854 0.766,-1.511 1.586,-1.817" />
    <path
       id="path22"
       transform="translate(19.8838,49.6597)"
       d="M 0,0 C -0.243,0.011 -0.488,0.027 -0.735,0.048 -1.15,0.1 -1.649,0.19 -2.143,0.325" />
    <path
       id="path24"
       transform="translate(17.7412,49.9849)"
       d="M 0,0 C -1.188,0.327 -2.347,0.918 -2.234,1.879 -1.536,3.652 -0.036,4.073 1.61,4.14" />
    <path
       id="path26"
       transform="translate(25.6777,50.2286)"
       d="M 0,0 C 0.793,0.178 1.589,0.39 2.398,0.628 3.017,0.716 3.68,1.468 3.415,1.91 2.79,3.369 1.503,3.798 0.036,3.896" />
    <path
       id="path28"
       transform="translate(23.8174,54.125)"
       d="M 0,0 C 0.641,0.024 1.284,0.041 1.896,0" />
    <path
       id="path30"
       transform="translate(20.6045,54.125)"
       d="M 0,0 C 0.665,-0.018 1.328,-0.053 1.947,-0.042 2.36,-0.035 2.786,-0.016 3.213,0" />
    <path
       id="path32"
       transform="translate(19.3516,54.125)"
       d="M 0,0 C 0.412,0.017 0.833,0.012 1.253,0" />
    <path
       id="path34"
       transform="translate(19.8838,49.6597)"
       d="M 0,0 C 1.493,-0.069 2.932,0.044 4.366,0.286" />
    <path
       id="path36"
       transform="translate(25.6777,50.2286)"
       d="M 0,0 C -0.477,-0.107 -0.952,-0.202 -1.428,-0.283" />
    <path
       id="path38"
       transform="translate(9.5791,54.125)"
       d="M 0,0 C 0.008,0.001 0.016,0.001 0.023,0.002 0.488,0.019 0.996,0.021 1.511,0" />
    <path
       id="path40"
       transform="translate(9.2451,54.125)"
       d="M 0,0 C 0.076,-0.01 0.18,-0.013 0.334,0" />
    <path
       id="path42"
       transform="translate(6.6855,54.125)"
       d="M 0,0 C 0.591,-0.034 1.211,-0.053 1.838,0" />
    <path
       id="path44"
       transform="translate(3.9531,54.125)"
       d="m 0,0 c -0.867,-0.193 -1.438,-0.758 -1.51,-2.208 0,-0.53 0.796,-1.326 1.591,-1.591 3.271,-1.149 6.718,-0.176 10.253,0.177 0.707,0 1.017,0.663 1.149,1.591 0.036,1.459 -2.22,1.944 -4.346,2.031" />
    <path
       id="path46"
       transform="translate(8.5234,54.125)"
       d="M 0,0 C 0.139,0.012 0.277,0.026 0.416,0.046 0.531,0.062 0.571,0.019 0.722,0" />
    <path
       id="path48"
       transform="translate(3.9531,54.125)"
       d="M 0,0 C 0.737,0.165 1.689,0.06 2.732,0" />
    <path
       id="path50"
       transform="translate(51.7178,46.1768)"
       d="m 0,0 c -1.1,0.296 -1.86,0.89 -1.986,1.94 -0.062,0.512 0.707,1.679 2.165,1.723 0.966,0.029 1.584,0.15 2.229,0.25" />
    <path
       id="path52"
       transform="translate(53.0449,45.9629)"
       d="M 0,0 C 0.346,-0.027 0.708,-0.037 1.081,-0.033" />
    <path
       id="path54"
       transform="translate(53.0449,45.9629)"
       d="M 0,0 C -0.479,0.037 -0.925,0.105 -1.327,0.214" />
    <path
       id="path56"
       transform="translate(46.1797,46.2886)"
       d="m 0,0 c 0.607,0.059 1.182,0.113 1.695,0.148 0.531,0 1.59,1.187 1.785,1.68 0.411,1.032 -0.33,1.57 -1.517,1.87" />
    <path
       id="path58"
       transform="translate(45.6875,50.3213)"
       d="M 0,0 C 0.878,-0.063 1.746,-0.156 2.455,-0.335" />
    <path
       id="path60"
       transform="translate(45.6875,50.3213)"
       d="m 0,0 c -0.546,0.039 -1.096,0.065 -1.613,0.093 -0.734,0 -1.556,0.034 -2.379,0.015" />
    <path
       id="path62"
       transform="translate(44.0469,46.087)"
       d="m 0,0 c -3.461,-0.297 -7.119,-0.369 -7.309,1.587 0.37,1.328 1.246,2.025 2.336,2.386" />
    <path
       id="path64"
       transform="translate(44.0469,46.087)"
       d="M 0,0 C 0.731,0.063 1.453,0.136 2.133,0.202" />
    <path
       id="path66"
       transform="translate(41.6953,50.4297)"
       d="M 0,0 C -0.91,-0.021 -1.822,-0.105 -2.621,-0.37" />
    <path
       id="path68"
       transform="translate(30.0459,46.1319)"
       d="M 0,0 C 0.847,0.068 1.703,0.169 2.533,0.289" />
    <path
       id="path70"
       transform="translate(30.8418,50.1001)"
       d="M 0,0 C 1.353,-0.069 2.71,-0.151 3.905,-0.258" />
    <path
       id="path72"
       transform="translate(30.8418,50.1001)"
       d="m 0,0 c -0.334,0.017 -0.668,0.034 -0.998,0.049 -1.565,0.075 -2.52,-0.132 -3.934,0.045 -0.063,0.021 -0.142,0.032 -0.232,0.035" />
    <path
       id="path74"
       transform="translate(30.0459,46.1319)"
       d="M 0,0 C -3.493,-0.279 -6.813,0.012 -7.338,1.893" />
    <path
       id="path76"
       transform="translate(32.5791,46.4205)"
       d="M 0,0 C 0.939,0.136 1.842,0.295 2.656,0.458 3.319,0.591 4.469,1.21 4.203,2.005 4.114,2.624 3.363,3.199 2.656,3.375 2.497,3.392 2.334,3.407 2.168,3.421" />
    <path
       id="path78"
       transform="translate(22.6563,48.2994)"
       d="M 0,0 C -0.031,0.365 0.089,0.824 0.691,1.275 0.862,1.378 1.206,1.521 1.594,1.646" />
    <path
       id="path80"
       transform="translate(25.6777,50.2286)"
       d="M 0,0 C -0.371,0.01 -0.935,-0.123 -1.428,-0.283" />
    <path
       id="path82"
       transform="translate(22.6563,48.2994)"
       d="M 0,0 C 0.006,-0.064 0.016,-0.125 0.028,-0.183 0.035,-0.214 0.043,-0.245 0.052,-0.275" />
    <path
       id="path84"
       transform="translate(22.708,48.0245)"
       d="M 0,0 C -0.01,-0.645 -0.908,-1.224 -1.438,-1.322 -2.269,-1.477 -3.185,-1.628 -4.136,-1.757" />
    <path
       id="path86"
       transform="translate(19.8838,49.6597)"
       d="M 0,0 C -0.819,0.1 -1.507,0.218 -2.143,0.325" />
    <path
       id="path88"
       transform="translate(15.7666,45.9703)"
       d="M 0,0 C 0.938,0.067 1.888,0.171 2.806,0.297" />
    <path
       id="path90"
       transform="translate(10.0459,46.3184)"
       d="M 0,0 C 0.503,-0.155 1.076,-0.262 1.697,-0.331" />
    <path
       id="path92"
       transform="translate(10.0459,46.3184)"
       d="M 0,0 C -1.032,0.317 -1.771,0.834 -2.034,1.622 -2.122,3.389 2.518,4.141 4.993,3.964 H 5.258 C 6.109,3.93 6.858,3.808 7.695,3.666" />
    <path
       id="path94"
       transform="translate(22.6563,48.2994)"
       d="M 0,0 C -0.005,0.013 -0.011,0.025 -0.017,0.038 -0.325,0.701 -0.679,1.143 -1.475,1.231 -1.945,1.268 -2.374,1.312 -2.772,1.36" />
    <path
       id="path96"
       transform="translate(22.6563,48.2994)"
       d="M 0,0 C 0.037,-0.092 0.054,-0.184 0.052,-0.275" />
    <path
       id="path98"
       transform="translate(11.7432,45.9878)"
       d="M 0,0 C 1.209,-0.133 2.602,-0.119 4.023,-0.017" />
    <path
       id="path100"
       transform="translate(46.1797,46.2886)"
       d="M 0,0 C -0.732,0.001 -1.449,-0.037 -2.133,-0.202" />
    <path
       id="path102"
       transform="translate(41.9873,44.1192)"
       d="M 0,0 C 0.303,-0.896 1.124,-1.547 2.105,-1.882" />
    <path
       id="path104"
       transform="translate(41.9531,44.2276)"
       d="M 0,0 C 0.011,-0.037 0.021,-0.072 0.034,-0.108" />
    <path
       id="path106"
       transform="translate(41.9531,44.2276)"
       d="m 0,0 c -0.177,0.707 0.795,1.326 1.503,1.679 0.193,0.073 0.391,0.132 0.591,0.18" />
    <path
       id="path108"
       transform="translate(44.0928,42.2373)"
       d="m 0,0 c 0.306,-0.104 0.628,-0.179 0.954,-0.22 0.162,-0.024 0.322,-0.045 0.48,-0.062" />
    <path
       id="path110"
       transform="translate(45.5273,41.9556)"
       d="M 0,0 C 1.074,-0.116 2.082,-0.07 3.073,0.06" />
    <path
       id="path112"
       transform="translate(46.1797,46.2886)"
       d="m 0,0 c 0.616,-0.001 1.244,-0.028 1.872,-0.028 1.195,0 2.521,0.022 3.666,-0.084" />
    <path
       id="path114"
       transform="translate(50.0732,42.2608)"
       d="M 0,0 C -0.491,-0.096 -0.98,-0.181 -1.473,-0.245" />
    <path
       id="path116"
       transform="translate(53.0449,45.9629)"
       d="M 0,0 C -0.395,0.102 -0.845,0.169 -1.327,0.214" />
    <path
       id="path118"
       transform="translate(53.0449,45.9629)"
       d="M 0,0 C 0.441,-0.114 0.813,-0.271 1.081,-0.486" />
    <path
       id="path120"
       transform="translate(50.0732,42.2608)"
       d="M 0,0 C 1.007,0.196 2.023,0.438 3.105,0.641 3.437,0.703 3.784,0.878 4.053,1.15" />
    <path
       id="path122"
       transform="translate(36.6221,42.2535)"
       d="M 0,0 C 1.065,0.02 2.154,0.067 3.314,0.204" />
    <path
       id="path124"
       transform="translate(31.7188,42.1216)"
       d="M 0,0 C -0.065,-0.005 -0.13,-0.01 -0.195,-0.016 -0.788,0.019 -1.526,0.089 -2.204,0.25" />
    <path
       id="path126"
       transform="translate(41.9873,44.1192)"
       d="M 0,0 C 0.094,-0.506 -0.532,-1.45 -1.36,-1.571 -1.594,-1.605 -1.823,-1.635 -2.051,-1.662" />
    <path
       id="path128"
       transform="translate(41.9531,44.2276)"
       d="M 0,0 C 0.016,-0.033 0.026,-0.069 0.034,-0.108" />
    <path
       id="path130"
       transform="translate(30.0459,46.1319)"
       d="m 0,0 c -1.135,-0.319 -2.061,-0.958 -2.5,-2.169 0.026,-0.883 0.928,-1.345 1.969,-1.592" />
    <path
       id="path132"
       transform="translate(32.5791,46.4205)"
       d="M 0,0 C -0.883,0 -1.757,-0.069 -2.533,-0.289" />
    <path
       id="path134"
       transform="translate(32.5791,46.4205)"
       d="m 0,0 c 1.075,0 2.162,-0.102 3.099,-0.16 2.293,-0.144 5.244,0.118 6.275,-2.033" />
    <path
       id="path136"
       transform="translate(31.7188,42.1216)"
       d="M 0,0 C 1.691,0.133 3.27,0.101 4.903,0.132" />
    <path
       id="path138"
       transform="translate(13.9365,43.7251)"
       d="M 0,0 C 0.052,-0.6 0.861,-1.064 1.643,-1.282" />
    <path
       id="path140"
       transform="translate(13.9561,43.9473)"
       d="M 0,0 C 0.181,1.136 0.877,1.724 1.811,2.023" />
    <path
       id="path142"
       transform="translate(15.5791,42.4429)"
       d="m 0,0 c 0.101,-0.028 0.201,-0.052 0.299,-0.072 0.847,0 1.685,-0.04 2.516,-0.089" />
    <path
       id="path144"
       transform="translate(22.7549,42.1343)"
       d="M 0,0 C -1.446,-0.047 -2.893,0.062 -4.36,0.148" />
    <path
       id="path146"
       transform="translate(25.0254,42.3623)"
       d="M 0,0 C 0.396,0.071 0.795,0.161 1.194,0.274 1.901,0.451 2.688,1.032 2.458,1.838 1.857,3.942 -0.662,4.075 -4.021,3.898 -4.744,3.86 -5.596,3.9 -6.453,3.905" />
    <path
       id="path148"
       transform="translate(18.5723,46.2671)"
       d="M 0,0 C -0.99,0.006 -1.988,-0.035 -2.806,-0.297" />
    <path
       id="path150"
       transform="translate(22.7549,42.1343)"
       d="M 0,0 C 0.756,0.025 1.512,0.092 2.271,0.228" />
    <path
       id="path152"
       transform="translate(13.9365,43.7251)"
       d="M 0,0 C -0.002,0.02 -0.003,0.04 -0.003,0.061 0.003,0.116 0.011,0.17 0.02,0.222" />
    <path
       id="path154"
       transform="translate(2.0957,42.3379)"
       d="m 0,0 c 0.087,-0.026 0.173,-0.046 0.259,-0.055 0.155,0.008 0.31,0.015 0.465,0.022" />
    <path
       id="path156"
       transform="translate(2.3447,46.0913)"
       d="m 0,0 c -0.964,-0.328 -1.634,-0.992 -1.669,-2.306 0,-0.473 0.704,-1.228 1.42,-1.447" />
    <path
       id="path158"
       transform="translate(7.6914,42.4703)"
       d="M 0,0 C -1.613,-0.059 -3.221,-0.091 -4.872,-0.166" />
    <path
       id="path160"
       transform="translate(13.9365,43.7251)"
       d="M 0,0 C -0.125,-0.458 -0.743,-0.867 -1.151,-0.912 -2.066,-1.014 -2.964,-1.086 -3.852,-1.141" />
    <path
       id="path162"
       transform="translate(11.7432,45.9878)"
       d="m 0,0 c 0.863,-0.301 1.603,-0.831 2.103,-1.76 0.065,-0.092 0.099,-0.186 0.11,-0.28" />
    <path
       id="path164"
       transform="translate(4.3594,46.3872)"
       d="M 0,0 C -0.73,-0.021 -1.427,-0.096 -2.015,-0.296" />
    <path
       id="path166"
       transform="translate(10.0459,46.3184)"
       d="M 0,0 C 0.595,-0.05 1.169,-0.147 1.697,-0.331" />
    <path
       id="path168"
       transform="translate(13.9365,43.7251)"
       d="M 0,0 C 0.02,0.073 0.027,0.148 0.02,0.222" />
    <path
       id="path170"
       transform="translate(7.6914,42.4703)"
       d="M 0,0 C 0.794,0.029 1.59,0.064 2.393,0.114" />
    <path
       id="path172"
       transform="translate(4.3594,46.3872)"
       d="m 0,0 c 1.051,0.029 2.169,-0.054 3.122,-0.039 0.847,0.015 1.726,0.04 2.564,-0.03" />
    <path
       id="path174"
       transform="translate(53.8262,42.4302)"
       d="M 0,0 C 0.099,-0.014 0.198,-0.026 0.3,-0.035" />
    <path
       id="path176"
       transform="translate(50.0732,42.2608)"
       d="M 0,0 C 1.359,0.146 2.677,0.201 4.053,0.124" />
    <path
       id="path178"
       transform="translate(48.6006,42.0157)"
       d="m 0,0 c -0.824,-0.308 -1.489,-1.057 -1.521,-1.854 -0.038,-0.925 0.792,-1.313 1.617,-1.484" />
    <path
       id="path180"
       transform="translate(48.6963,38.6778)"
       d="M 0,0 C 0.161,-0.033 0.321,-0.059 0.475,-0.078 0.97,-0.104 1.463,-0.136 1.955,-0.166" />
    <path
       id="path182"
       transform="translate(50.6514,38.5122)"
       d="M 0,0 C 1.168,-0.071 2.327,-0.136 3.475,-0.124" />
    <path
       id="path184"
       transform="translate(50.0732,42.2608)"
       d="M 0,0 C -0.304,-0.032 -0.608,-0.069 -0.917,-0.11 -1.106,-0.131 -1.293,-0.178 -1.473,-0.245" />
    <path
       id="path186"
       transform="translate(44.0928,42.2373)"
       d="M 0,0 C 0.516,-0.038 1.003,-0.115 1.434,-0.282" />
    <path
       id="path188"
       transform="translate(44.0928,42.2373)"
       d="M 0,0 C -1.071,0.078 -2.265,-0.014 -3.333,0.178 H -3.775 C -3.906,0.194 -4.033,0.208 -4.156,0.22" />
    <path
       id="path190"
       transform="translate(39.9365,42.4571)"
       d="M 0,0 C -1.23,0.114 -2.136,-0.002 -3.314,-0.204" />
    <path
       id="path192"
       transform="translate(36.9141,38.4952)"
       d="M 0,0 C 0.545,-0.044 1.098,-0.018 1.65,0.105" />
    <path
       id="path194"
       transform="translate(36.6221,42.2535)"
       d="m 0,0 c -0.411,-0.07 -0.854,-0.151 -1.357,-0.236 -0.78,-0.132 -1.65,-1.179 -1.296,-2.003 0.235,-0.59 0.825,-1.061 1.472,-1.238 0.48,-0.141 0.973,-0.241 1.473,-0.281" />
    <path
       id="path196"
       transform="translate(45.5273,41.9556)"
       d="M 0,0 C 0.601,-0.232 1.094,-0.637 1.405,-1.352 1.699,-2 0.874,-3.061 0.05,-3.179 -2.308,-3.768 -4.487,-2.884 -6.963,-3.355" />
    <path
       id="path198"
       transform="translate(31.7188,42.1216)"
       d="M 0,0 C -0.41,0.104 -0.95,0.205 -1.168,0.161 -1.567,0.213 -1.899,0.237 -2.204,0.25" />
    <path
       id="path200"
       transform="translate(31.7188,42.1216)"
       d="m 0,0 c 0.144,-0.037 0.272,-0.073 0.364,-0.104 0.825,-0.118 1.826,-0.442 1.65,-1.591 0.118,0 0.089,-1.325 -1.001,-1.532 -0.589,-0.111 -1.163,-0.187 -1.726,-0.236" />
    <path
       id="path202"
       transform="translate(25.0254,42.3623)"
       d="M 0,0 C -0.907,-0.095 -1.452,-0.112 -2.271,-0.228" />
    <path
       id="path204"
       transform="translate(20.2646,40.1758)"
       d="m 0,0 c 0.007,-0.054 0.018,-0.107 0.033,-0.162 0.354,-1.06 1.959,-1.311 3.138,-1.311 2.106,0.039 4.02,-0.153 5.999,-0.123" />
    <path
       id="path206"
       transform="translate(20.2988,40.5943)"
       d="M 0,0 C -0.039,-0.136 -0.053,-0.276 -0.034,-0.419" />
    <path
       id="path208"
       transform="translate(31.0059,38.6582)"
       d="M 0,0 C -0.531,-0.046 -1.054,-0.07 -1.571,-0.078" />
    <path
       id="path210"
       transform="translate(25.0254,42.3623)"
       d="m 0,0 c 0.301,0.032 0.643,0.072 1.047,0.127 0.296,0.04 0.798,-0.06 1.259,-0.01" />
    <path
       id="path212"
       transform="translate(29.5146,42.3711)"
       d="M 0,0 C -0.712,0.029 -1.275,-0.004 -2.184,0.108" />
    <path
       id="path214"
       transform="translate(20.2988,40.5943)"
       d="M 0,0 C 0.219,0.757 1.232,1.373 1.987,1.468 2.155,1.496 2.31,1.52 2.456,1.54" />
    <path
       id="path216"
       transform="translate(27.6631,42.5479)"
       d="M 0,0 C -0.105,-0.035 -0.218,-0.056 -0.332,-0.068" />
    <path
       id="path218"
       transform="translate(27.251,42.4893)"
       d="M 0,0 C 0.027,-0.003 0.054,-0.007 0.08,-0.01" />
    <path
       id="path220"
       transform="translate(7.6914,42.4703)"
       d="M 0,0 C 0.605,0.163 1.527,0.083 2.117,0.137 2.21,0.126 2.302,0.119 2.393,0.114" />
    <path
       id="path222"
       transform="translate(6.8516,38.7798)"
       d="M 0,0 C -0.259,0.034 -0.512,0.104 -0.755,0.233 -0.968,0.374 -1.254,0.57 -1.401,0.885" />
    <path
       id="path224"
       transform="translate(20.2646,40.1758)"
       d="m 0,0 c -0.183,-0.558 -0.864,-1.102 -1.603,-1.207 -3.396,-0.486 -5.862,-0.089 -9.28,-0.089 -0.404,0.022 -0.814,-0.024 -1.221,-0.067" />
    <path
       id="path226"
       transform="translate(5.5576,40.9336)"
       d="m 0,0 c -0.058,-0.14 -0.108,-0.293 -0.153,-0.463 -0.088,-0.335 -0.052,-0.596 0.046,-0.806" />
    <path
       id="path228"
       transform="translate(5.5576,40.9336)"
       d="M 0,0 C 0.352,0.853 0.956,1.178 1.968,1.482 2.02,1.503 2.075,1.521 2.134,1.537" />
    <path
       id="path230"
       transform="translate(10.084,42.584)"
       d="M 0,0 C 0.952,-0.057 1.826,0.125 2.848,-0.036 3.643,-0.162 4.57,-0.149 5.495,-0.141" />
    <path
       id="path232"
       transform="translate(20.2988,40.5943)"
       d="M 0,0 C 0,0.003 0,0.006 -0.001,0.009 -0.203,1.018 -0.932,1.48 -1.904,1.688" />
    <path
       id="path234"
       transform="translate(15.5791,42.4429)"
       d="M 0,0 C 0.999,0.009 1.994,0.015 2.815,-0.161" />
    <path
       id="path236"
       transform="translate(6.8516,38.7798)"
       d="M 0,0 C 0.424,-0.056 0.864,-0.014 1.31,0.033" />
    <path
       id="path238"
       transform="translate(20.2646,40.1758)"
       d="M 0,0 C 0.046,0.141 0.06,0.283 0.034,0.419" />
    <path
       id="path240"
       transform="translate(51.875,34.7725)"
       d="M 0,0 C 1.248,0.221 2.294,0.807 2.188,2.119 2.069,3.061 1.111,3.194 0.11,3.489 -0.335,3.591 -0.779,3.675 -1.224,3.74" />
    <path
       id="path242"
       transform="translate(51.875,34.7725)"
       d="M 0,0 C -0.468,-0.083 -0.965,-0.114 -1.439,-0.113" />
    <path
       id="path244"
       transform="translate(48.6963,38.6778)"
       d="m 0,0 c -0.446,0.011 -0.896,0.005 -1.352,-0.019 -2.239,-0.118 -5.612,-0.044 -5.774,-2.475 0.383,-1.149 2.003,-1.532 3.3,-1.65 1.531,-0.117 2.946,0.236 4.537,0.177 0.315,-0.03 0.665,-0.05 1.028,-0.051" />
    <path
       id="path246"
       transform="translate(48.6963,38.6778)"
       d="M 0,0 C 0.658,-0.017 1.308,-0.071 1.955,-0.166" />
    <path
       id="path248"
       transform="translate(28.3691,34.751)"
       d="M 0,0 C 0.136,-0.038 0.275,-0.053 0.414,-0.04" />
    <path
       id="path250"
       transform="translate(39.6025,34.7642)"
       d="M 0,0 C 1.107,0.218 2.219,1.089 1.968,2.245 1.791,2.893 1.084,3.482 0.317,3.659 c -0.471,0 -0.942,0.118 -1.355,0.177" />
    <path
       id="path252"
       transform="translate(28.7832,34.711)"
       d="M 0,0 C 3.183,0.292 6.007,0.106 9.183,0.023" />
    <path
       id="path254"
       transform="translate(31.0059,38.6582)"
       d="M 0,0 C -0.533,0.004 -1.066,-0.005 -1.571,-0.078" />
    <path
       id="path256"
       transform="translate(28.3691,34.751)"
       d="m 0,0 c -0.719,0.198 -1.338,1.02 -1.486,1.565 -0.295,1.002 0.772,1.721 1.665,2.048 0.282,0.104 0.58,0.172 0.887,0.216" />
    <path
       id="path258"
       transform="translate(38.5645,38.6001)"
       d="M 0,0 C -0.557,-0.043 -1.105,-0.082 -1.65,-0.105" />
    <path
       id="path260"
       transform="translate(37.9658,34.7339)"
       d="M 0,0 C 0.352,-0.009 0.708,-0.017 1.07,-0.023 1.254,-0.026 1.445,-0.007 1.637,0.03" />
    <path
       id="path262"
       transform="translate(31.0059,38.6582)"
       d="m 0,0 c 0.473,-0.003 0.945,-0.015 1.401,0.001 0.416,0.014 1.267,0 1.679,-0.059 0.936,-0.134 1.874,-0.145 2.828,-0.105" />
    <path
       id="path264"
       transform="translate(25.1309,34.9058)"
       d="M 0,0 C -0.401,-0.146 -0.84,-0.238 -1.27,-0.287" />
    <path
       id="path266"
       transform="translate(14.4863,34.6563)"
       d="M 0,0 C 0.085,-0.015 0.17,-0.029 0.255,-0.041" />
    <path
       id="path268"
       transform="translate(12.1865,37.1153)"
       d="M 0,0 C -0.065,-0.151 -0.104,-0.323 -0.107,-0.52" />
    <path
       id="path270"
       transform="translate(14.4863,34.6563)"
       d="m 0,0 c -1.238,0.225 -2.393,0.777 -2.408,1.881 0,0.02 0,0.039 10e-4,0.058" />
    <path
       id="path272"
       transform="translate(25.1309,34.9058)"
       d="m 0,0 c 0.964,0.351 1.718,1.015 1.648,2.162 -0.647,2.21 -5.126,1.532 -7.778,1.532 -1.768,0 -3.535,0.354 -5.126,-0.295 -0.655,-0.28 -1.411,-0.552 -1.688,-1.19" />
    <path
       id="path274"
       transform="translate(19.0029,34.4961)"
       d="M 0,0 C -0.909,0.002 -1.828,0.016 -2.771,0.038" />
    <path
       id="path276"
       transform="translate(19.0029,34.4961)"
       d="M 0,0 C 1.534,-0.005 3.041,0.023 4.595,0.097 4.682,0.104 4.77,0.112 4.858,0.123" />
    <path
       id="path278"
       transform="translate(15.0498,34.5762)"
       d="M 0,0 C 0.416,-0.044 0.823,-0.055 1.182,-0.042" />
    <path
       id="path280"
       transform="translate(15.0498,34.5762)"
       d="M 0,0 C -0.103,0.011 -0.205,0.023 -0.309,0.039" />
    <path
       id="path282"
       transform="translate(10.7686,34.8946)"
       d="m 0,0 c 0.034,0.017 0.067,0.034 0.102,0.052 0.699,0.4 0.964,0.896 1.209,1.649" />
    <path
       id="path284"
       transform="translate(10.7686,34.8946)"
       d="M 0,0 C -0.473,-0.236 -0.962,-0.36 -1.462,-0.417" />
    <path
       id="path286"
       transform="translate(8.1611,38.813)"
       d="M 0,0 C 1.838,-0.036 3.671,-0.446 4.025,-1.698" />
    <path
       id="path288"
       transform="translate(5.3652,34.5752)"
       d="M 0,0 C -0.869,-0.022 -1.724,-0.014 -2.584,0.084" />
    <path
       id="path290"
       transform="translate(6.8516,38.7798)"
       d="M 0,0 C -0.24,-0.016 -0.474,-0.037 -0.696,-0.062 -1.741,-0.178 -2.729,-0.237 -3.772,-0.126" />
    <path
       id="path292"
       transform="translate(12.0791,36.5953)"
       d="M 0,0 C 0.044,0.134 0.086,0.277 0.131,0.429 0.124,0.459 0.116,0.49 0.107,0.52" />
    <path
       id="path294"
       transform="translate(6.8516,38.7798)"
       d="M 0,0 C 0.423,0.028 0.866,0.042 1.31,0.033" />
    <path
       id="path296"
       transform="translate(2.7813,34.6592)"
       d="M 0,0 C -0.521,0.059 -1.045,0.15 -1.575,0.288 -2.224,0.464 -2.647,1.03 -2.766,1.502 -2.772,1.542 -2.777,1.581 -2.781,1.621" />
    <path
       id="path298"
       transform="translate(9.3066,34.4781)"
       d="M 0,0 C -1.093,-0.123 -2.24,0.076 -3.387,0.115 -3.572,0.108 -3.757,0.102 -3.941,0.097" />
    <path
       id="path300"
       transform="translate(3.0791,38.6538)"
       d="M 0,0 C -0.016,0.002 -0.031,0.004 -0.047,0.005 -0.437,-0.038 -0.857,-0.05 -1.218,-0.17" />
    <path
       id="path302"
       transform="translate(0,36.543)"
       d="M 0,0 C -0.009,-0.085 -0.009,-0.172 0,-0.263" />
    <path
       id="path304"
       transform="translate(1.8613,38.4839)"
       d="m 0,0 c -0.13,-0.043 -0.252,-0.101 -0.361,-0.179 -0.663,-0.459 -1.423,-0.98 -1.5,-1.762" />
    <path
       id="path306"
       transform="translate(51.875,34.7725)"
       d="m 0,0 c 0.503,-0.016 1.021,-0.062 1.539,-0.062 0.239,0 0.477,-0.002 0.712,-0.005" />
    <path
       id="path308"
       transform="translate(54.126,30.5796)"
       d="M 0,0 C -0.382,0.003 -0.765,0.015 -1.15,0.037" />
    <path
       id="path310"
       transform="translate(49.8643,31.1075)"
       d="M 0,0 C 0.2,-0.081 0.404,-0.139 0.604,-0.167 1.462,-0.346 2.293,-0.443 3.111,-0.491" />
    <path
       id="path312"
       transform="translate(51.875,34.7725)"
       d="M 0,0 C -0.499,0.016 -0.984,0.003 -1.439,-0.113" />
    <path
       id="path314"
       transform="translate(50.4355,34.6597)"
       d="m 0,0 c -0.129,-0.033 -0.257,-0.074 -0.381,-0.126 -0.765,-0.412 -1.932,-1.202 -1.579,-2.144 0.18,-0.537 0.759,-1.026 1.389,-1.282" />
    <path
       id="path316"
       transform="translate(44.2383,30.5933)"
       d="M 0,0 C -1.367,0.023 -2.722,0.1 -4.103,0.162" />
    <path
       id="path318"
       transform="translate(46.2051,30.7852)"
       d="m 0,0 c -0.372,-0.105 -0.766,-0.169 -1.158,-0.199 -0.271,0 -0.539,0.003 -0.809,0.007" />
    <path
       id="path320"
       transform="translate(38.0283,30.8496)"
       d="M 0,0 C 0.099,-0.013 0.199,-0.023 0.301,-0.028 0.91,-0.043 1.511,-0.067 2.107,-0.094" />
    <path
       id="path322"
       transform="translate(46.2051,30.7852)"
       d="m 0,0 c 1.08,0.303 1.98,0.945 2.156,2.085 -0.089,0.972 -0.619,1.59 -2.475,1.59 -2.577,0 -4.552,0.192 -4.552,0.192 -0.567,0.023 -1.15,0.08 -1.732,0.112" />
    <path
       id="path324"
       transform="translate(37.9658,34.7339)"
       d="M 0,0 C 0.531,0.068 1.083,0.061 1.637,0.03" />
    <path
       id="path326"
       transform="translate(37.9658,34.7339)"
       d="m 0,0 c -0.361,-0.046 -0.714,-0.127 -1.051,-0.259 -0.707,-0.353 -1.532,-1.178 -1.237,-1.944 0.324,-0.865 1.244,-1.532 2.351,-1.681" />
    <path
       id="path328"
       transform="translate(25.1309,34.9058)"
       d="M 0,0 C 1.014,0.099 2.112,-0.042 3.238,-0.155" />
    <path
       id="path330"
       transform="translate(25.1309,34.9058)"
       d="M 0,0 C -0.441,-0.043 -0.866,-0.131 -1.27,-0.287" />
    <path
       id="path332"
       transform="translate(28.3691,34.751)"
       d="M 0,0 C 0.138,-0.014 0.275,-0.027 0.414,-0.04" />
    <path
       id="path334"
       transform="translate(23.8613,34.6187)"
       d="m 0,0 c -0.15,-0.058 -0.297,-0.125 -0.44,-0.202 -0.767,-0.413 -1.709,-1.356 -1.356,-2.181 0.53,-1.355 2.52,-1.134 3.934,-1.134 3.005,0.059 5.995,-0.751 8.971,0.25 0.675,0.227 0.632,1.167 0.531,2.063 -0.266,2.328 -4.393,1.085 -6.718,1.296" />
    <path
       id="path336"
       transform="translate(19.0029,34.4961)"
       d="M 0,0 C -0.907,0.128 -1.807,0.213 -2.771,0.038" />
    <path
       id="path338"
       transform="translate(15.6934,30.646)"
       d="M 0,0 C -1.691,-0.057 -3.373,-0.102 -5.03,0.123" />
    <path
       id="path340"
       transform="translate(19.9014,30.8296)"
       d="M 0,0 C 1.099,0.27 2.078,0.973 1.987,2.055 1.929,2.821 0.985,3.41 0.043,3.528 -0.273,3.573 -0.587,3.622 -0.898,3.667" />
    <path
       id="path342"
       transform="translate(15.0498,34.5762)"
       d="M 0,0 C 0.409,-0.016 0.82,0.113 1.182,-0.042" />
    <path
       id="path344"
       transform="translate(10.7686,34.8946)"
       d="M 0,0 C -0.401,-0.056 -0.8,-0.151 -1.195,-0.301 -1.283,-0.334 -1.372,-0.373 -1.462,-0.417" />
    <path
       id="path346"
       transform="translate(14.7412,34.6148)"
       d="M 0,0 C -0.085,0.014 -0.17,0.028 -0.255,0.041" />
    <path
       id="path348"
       transform="translate(15.0498,34.5762)"
       d="m 0,0 c -0.058,0.002 -0.115,0.007 -0.173,0.017 -0.045,0.007 -0.09,0.014 -0.136,0.022" />
    <path
       id="path350"
       transform="translate(9.3066,34.4781)"
       d="m 0,0 c -0.871,-0.426 -1.758,-1.344 -1.383,-2.36 0.177,-0.413 0.531,-0.884 1.001,-1.002 0.229,-0.062 0.458,-0.117 0.689,-0.166" />
    <path
       id="path352"
       transform="translate(19.9014,30.8296)"
       d="m 0,0 c -0.337,-0.083 -0.686,-0.126 -1.018,-0.126 -1.064,0.019 -2.129,-0.021 -3.19,-0.058" />
    <path
       id="path354"
       transform="translate(10.7686,34.8946)"
       d="M 0,0 C 1.211,0.168 2.45,-0.03 3.718,-0.238" />
    <path
       id="path356"
       transform="translate(9.6133,30.9502)"
       d="M 0,0 C 0.349,-0.074 0.698,-0.134 1.05,-0.182" />
    <path
       id="path358"
       transform="translate(49.8643,31.1075)"
       d="M 0,0 C 0.122,-0.013 0.244,-0.029 0.368,-0.05 1.309,-0.144 2.215,-0.201 3.111,-0.491" />
    <path
       id="path360"
       transform="translate(54.126,30.1094)"
       d="M 0,0 C -0.153,0.087 -0.316,0.168 -0.477,0.241 -0.701,0.348 -0.925,0.435 -1.15,0.507" />
    <path
       id="path362"
       transform="translate(46.2051,30.7852)"
       d="M 0,0 C -0.677,-0.035 -1.364,-0.069 -1.967,-0.192" />
    <path
       id="path364"
       transform="translate(49.8643,31.1075)"
       d="M 0,0 C -0.571,0.06 -1.12,0.031 -1.694,-0.109 -2.267,-0.248 -2.957,-0.286 -3.659,-0.322" />
    <path
       id="path366"
       transform="translate(49.8154,26.8018)"
       d="M 0,0 C 0.837,0.006 1.681,0.047 2.538,0.131 2.791,0.143 3.066,0.182 3.34,0.249" />
    <path
       id="path368"
       transform="translate(44.2383,30.5933)"
       d="m 0,0 c -1.148,-0.235 -1.986,-0.794 -1.844,-2.305 0.06,-0.413 0.59,-0.825 1.12,-1.002 2.148,-0.295 4.204,-0.499 6.301,-0.484" />
    <path
       id="path370"
       transform="translate(53.291,27.0865)"
       d="M 0,0 C 0.291,0.081 0.578,0.194 0.835,0.339" />
    <path
       id="path372"
       transform="translate(53.1553,27.0508)"
       d="M 0,0 C 0.045,0.011 0.091,0.023 0.136,0.036" />
    <path
       id="path374"
       transform="translate(38.9717,27.0127)"
       d="m 0,0 c -0.564,-0.08 -1.121,-0.119 -1.703,-0.08 -0.159,0.023 -0.318,0.042 -0.477,0.059" />
    <path
       id="path376"
       transform="translate(29.3359,27.087)"
       d="m 0,0 c -0.947,0.222 -1.729,0.801 -1.967,1.614 -0.202,0.525 0.442,1.738 1.473,1.944 1.942,0.389 3.771,0 5.716,0.059 0.96,0.029 2.23,0.13 3.47,0.146" />
    <path
       id="path378"
       transform="translate(36.792,26.9917)"
       d="M 0,0 C -1.786,0.189 -3.491,0.018 -5.25,-0.016" />
    <path
       id="path380"
       transform="translate(38.0283,30.8496)"
       d="M 0,0 C 0.736,0.01 1.463,-0.011 2.107,-0.094" />
    <path
       id="path382"
       transform="translate(29.3359,27.087)"
       d="M 0,0 C 0.221,-0.052 0.45,-0.084 0.685,-0.095 1.198,-0.12 1.704,-0.121 2.206,-0.111" />
    <path
       id="path384"
       transform="translate(38.9717,27.0127)"
       d="M 0,0 C 0.293,0.042 0.588,0.095 0.89,0.156 2.009,0.45 3.306,1.04 3.482,2.277 3.383,3.173 2.431,3.579 1.164,3.743" />
    <path
       id="path386"
       transform="translate(21.123,30.94)"
       d="M 0,0 C -0.419,-0.05 -0.823,-0.086 -1.222,-0.11" />
    <path
       id="path388"
       transform="translate(21.8662,26.625)"
       d="M 0,0 C 0.857,0.043 1.7,0.145 2.521,0.316" />
    <path
       id="path390"
       transform="translate(21.8662,26.625)"
       d="m 0,0 c -1.87,-0.094 -3.801,0.088 -5.693,0.426 -0.943,0.118 -2.063,0.53 -2.24,1.414 -0.258,1.121 0.683,1.864 1.76,2.181" />
    <path
       id="path392"
       transform="translate(20.7695,30.94)"
       d="M 0,0 C 2.71,0.471 5.753,-0.059 6.423,-1.474 6.717,-2.239 6.363,-3.182 5.126,-3.595 4.634,-3.759 4.131,-3.892 3.618,-3.999" />
    <path
       id="path394"
       transform="translate(19.9014,30.8296)"
       d="m 0,0 c -1.003,-0.062 -1.967,-0.05 -3.021,-0.008 -0.379,0 -0.792,-0.059 -1.187,-0.176" />
    <path
       id="path396"
       transform="translate(8.0898,27.0459)"
       d="m 0,0 c -0.465,0.036 -0.932,0.064 -1.404,0.064 -2,-0.111 -5.256,-0.196 -5.821,1.153" />
    <path
       id="path398"
       transform="translate(5.5518,31.0015)"
       d="M 0,0 C -1,-0.021 -2.031,-0.077 -2.881,-0.36" />
    <path
       id="path400"
       transform="translate(0.9648,29.1641)"
       d="M 0,0 C 0.313,0.776 0.934,1.221 1.706,1.477" />
    <path
       id="path402"
       transform="translate(10.6631,30.7686)"
       d="M 0,0 C -0.35,0.066 -0.698,0.13 -1.05,0.182" />
    <path
       id="path404"
       transform="translate(0.9648,29.1641)"
       d="m 0,0 c -0.077,-0.192 -0.135,-0.405 -0.172,-0.64 0.014,-0.093 0.038,-0.18 0.072,-0.261" />
    <path
       id="path406"
       transform="translate(9.6133,30.9502)"
       d="M 0,0 C -0.704,0.104 -1.417,0.162 -2.161,0.107 -2.738,0.066 -3.393,0.066 -4.061,0.051" />
    <path
       id="path408"
       transform="translate(11.3877,26.9419)"
       d="m 0,0 c -0.055,-0.004 -0.109,-0.007 -0.164,-0.009 -1.06,-0.082 -2.092,0.034 -3.134,0.113" />
    <path
       id="path410"
       transform="translate(11.3877,26.9419)"
       d="M 0,0 C 1.319,0.09 2.824,0.604 2.429,2.584 2.358,2.93 1.839,3.409 1.309,3.467 0.618,3.56 -0.054,3.699 -0.725,3.827" />
    <path
       id="path412"
       transform="translate(53.2959,27.0508)"
       d="M 0,0 H -0.141" />
    <path
       id="path414"
       transform="translate(53.1553,27.0508)"
       d="M 0,0 C -1.033,-0.001 -2.263,-0.011 -3.34,-0.249" />
    <path
       id="path416"
       transform="translate(53.291,27.0865)"
       d="M 0,0 C 0.271,-0.017 0.55,-0.023 0.835,-0.022" />
    <path
       id="path418"
       transform="translate(47.5195,25.2583)"
       d="M 0,0 C 0.071,0.554 0.637,0.878 1.239,1.203 1.564,1.351 1.92,1.461 2.296,1.544" />
    <path
       id="path420"
       transform="translate(47.5801,24.7525)"
       d="M 0,0 C 0.295,-1.12 1.591,-1.591 2.77,-1.591" />
    <path
       id="path422"
       transform="translate(47.5195,25.2583)"
       d="M 0,0 C -0.018,-0.15 -0.002,-0.317 0.061,-0.506" />
    <path
       id="path424"
       transform="translate(53.291,27.0865)"
       d="M 0,0 C -0.098,0.006 -0.194,0.014 -0.289,0.023" />
    <path
       id="path426"
       transform="translate(51.1602,23.127)"
       d="M 0,0 C -0.27,0.011 -0.539,0.023 -0.811,0.035" />
    <path
       id="path428"
       transform="translate(51.1602,23.127)"
       d="M 0,0 C 0.998,-0.041 1.982,-0.073 2.966,-0.058" />
    <path
       id="path430"
       transform="translate(33.833,25.2549)"
       d="M 0,0 C 0.183,0.605 0.814,1.104 1.373,1.383 1.888,1.589 2.418,1.69 2.959,1.737" />
    <path
       id="path432"
       transform="translate(33.7881,25.0381)"
       d="M 0,0 C -0.011,-0.093 -0.01,-0.189 0.004,-0.286 0.121,-1.11 1.123,-1.523 2.007,-1.7 2.583,-1.792 3.15,-1.868 3.712,-1.926" />
    <path
       id="path434"
       transform="translate(47.5801,24.7525)"
       d="M 0,0 C 0.016,0.2 -0.008,0.364 -0.061,0.506" />
    <path
       id="path436"
       transform="translate(38.9717,27.0127)"
       d="M 0,0 C -0.738,0.009 -1.469,0.041 -2.18,-0.021" />
    <path
       id="path438"
       transform="translate(39.4199,22.983)"
       d="M 0,0 C 2.309,-0.072 4.568,0.164 6.981,0.709 7.453,0.827 7.925,1.298 8.16,1.77" />
    <path
       id="path440"
       transform="translate(38.9717,27.0127)"
       d="M 0,0 C 0.626,-0.007 1.259,0.001 1.891,0.097 3.886,0.399 6.649,0.111 7.577,-0.728 8.011,-1.12 8.399,-1.352 8.548,-1.754" />
    <path
       id="path442"
       transform="translate(39.4199,22.983)"
       d="M 0,0 C -0.635,0.02 -1.273,0.063 -1.92,0.129" />
    <path
       id="path444"
       transform="translate(33.833,25.2549)"
       d="M 0,0 C -0.021,-0.071 -0.036,-0.143 -0.045,-0.217" />
    <path
       id="path446"
       transform="translate(29.3359,27.087)"
       d="M 0,0 C 0.656,-0.04 1.305,-0.095 2.011,-0.095 2.074,-0.099 2.14,-0.104 2.206,-0.111" />
    <path
       id="path448"
       transform="translate(24.3877,26.941)"
       d="M 0,0 C -0.914,-0.026 -1.815,-0.083 -2.521,-0.316" />
    <path
       id="path450"
       transform="translate(20.4844,25.0621)"
       d="m 0,0 c -0.006,-0.062 -0.01,-0.126 -0.01,-0.192 0,-0.013 0.001,-0.025 0.001,-0.038" />
    <path
       id="path452"
       transform="translate(20.4756,24.8321)"
       d="M 0,0 C 0.012,-0.512 0.304,-0.85 0.706,-1.023 2.945,-1.847 5.232,-1.742 7.718,-1.789" />
    <path
       id="path454"
       transform="translate(33.7881,25.0381)"
       d="M 0,0 C 0.022,0.074 0.037,0.146 0.045,0.217" />
    <path
       id="path456"
       transform="translate(29.3359,27.087)"
       d="M 0,0 C -0.769,0.047 -1.547,0.073 -2.438,-0.036 -3.18,-0.127 -4.07,-0.122 -4.948,-0.146" />
    <path
       id="path458"
       transform="translate(28.1934,23.0435)"
       d="M 0,0 C 0.796,-0.015 1.65,0.028 2.475,0.159" />
    <path
       id="path460"
       transform="translate(21.8662,26.625)"
       d="M 0,0 C -0.77,-0.253 -1.308,-0.713 -1.382,-1.563" />
    <path
       id="path462"
       transform="translate(33.833,25.2549)"
       d="M 0,0 C 0.11,1.014 -1.262,1.607 -2.291,1.721" />
    <path
       id="path464"
       transform="translate(33.7881,25.0381)"
       d="M 0,0 C -0.004,-0.012 -0.007,-0.023 -0.011,-0.035 -0.188,-0.565 -0.247,-0.89 -0.895,-1.184 -1.559,-1.502 -2.326,-1.709 -3.119,-1.836" />
    <path
       id="path466"
       transform="translate(5.6953,25.5332)"
       d="m 0,0 c -0.097,-0.175 -0.161,-0.358 -0.188,-0.545 0.03,-0.134 0.079,-0.26 0.143,-0.38" />
    <path
       id="path468"
       transform="translate(20.4844,25.0621)"
       d="m 0,0 c -0.02,0.156 -0.093,0.314 -0.23,0.471 -1.769,2.004 -4.627,1.12 -7.161,1.414 L -7.906,1.93 C -8.341,1.873 -8.727,1.865 -9.097,1.88" />
    <path
       id="path470"
       transform="translate(14.8545,23.0039)"
       d="M 0,0 C -1.546,0.009 -3.081,0.126 -4.701,0.063" />
    <path
       id="path472"
       transform="translate(11.3877,26.9419)"
       d="M 0,0 C -0.785,0.032 -1.501,0.168 -2.463,0.168 -2.742,0.178 -3.023,0.155 -3.298,0.104" />
    <path
       id="path474"
       transform="translate(5.6504,24.6084)"
       d="M 0,0 C 0.428,-0.785 1.579,-1.275 2.726,-1.471" />
    <path
       id="path476"
       transform="translate(14.8545,23.0039)"
       d="M 0,0 C 0.809,-0.004 1.62,0.021 2.448,0.118" />
    <path
       id="path478"
       transform="translate(20.4756,24.8321)"
       d="M 0,0 C 0.015,0.076 0.018,0.153 0.009,0.23" />
    <path
       id="path480"
       transform="translate(10.1533,23.0664)"
       d="m 0,0 c -0.153,-0.006 -0.307,-0.014 -0.462,-0.023 -0.407,-0.015 -0.861,0.017 -1.315,0.094" />
    <path
       id="path482"
       transform="translate(5.6953,25.5332)"
       d="M 0,0 C 0.401,0.726 1.353,1.32 2.395,1.513" />
    <path
       id="path484"
       transform="translate(17.3027,23.1221)"
       d="M 0,0 C 0.231,0.027 0.463,0.059 0.697,0.098 1.654,0.235 3.021,0.927 3.173,1.71" />
    <path
       id="path486"
       transform="translate(46.0117,19.149)"
       d="M 0,0 C 0.032,0.001 0.063,0.003 0.096,0.005 2.512,0.183 4.868,0.064 7.107,0.771 7.579,0.89 8.228,1.42 7.991,2.009 7.463,3.212 6.344,3.826 5.148,3.978" />
    <path
       id="path488"
       transform="translate(41.7471,21.6294)"
       d="M 0,0 C -0.069,-0.167 -0.092,-0.329 -0.078,-0.483" />
    <path
       id="path490"
       transform="translate(44.6934,19.1792)"
       d="M 0,0 C 0.439,-0.05 0.879,-0.055 1.318,-0.03" />
    <path
       id="path492"
       transform="translate(44.6934,19.1792)"
       d="M 0,0 C -0.413,0.047 -0.825,0.132 -1.237,0.27 -1.974,0.614 -2.955,1.202 -3.025,1.967" />
    <path
       id="path494"
       transform="translate(51.1602,23.127)"
       d="M 0,0 C -0.269,0.034 -0.54,0.045 -0.811,0.035" />
    <path
       id="path496"
       transform="translate(41.7471,21.6294)"
       d="m 0,0 c 1.119,2.534 4.007,1.179 6.246,1.532 0.759,0.12 1.709,-0.177 2.357,0" />
    <path
       id="path498"
       transform="translate(26.6699,21.1382)"
       d="M 0,0 C 0.402,-1.061 1.5,-1.427 2.677,-1.713" />
    <path
       id="path500"
       transform="translate(26.6699,21.1382)"
       d="M 0,0 C -0.003,0.007 -0.005,0.013 -0.008,0.02 -0.047,0.157 -0.053,0.294 -0.033,0.429" />
    <path
       id="path502"
       transform="translate(26.6367,21.5669)"
       d="M 0,0 C 0.1,0.674 0.869,1.28 1.557,1.477" />
    <path
       id="path504"
       transform="translate(30.6689,23.2022)"
       d="M 0,0 C -0.818,-0.02 -1.643,-0.066 -2.475,-0.159" />
    <path
       id="path506"
       transform="translate(38.9482,19.2598)"
       d="M 0,0 C -0.069,-0.016 -0.139,-0.031 -0.207,-0.046 -0.743,-0.134 -1.268,-0.204 -1.785,-0.257" />
    <path
       id="path508"
       transform="translate(30.6689,23.2022)"
       d="M 0,0 C 1.266,0.03 2.519,-0.005 3.771,-0.04" />
    <path
       id="path510"
       transform="translate(29.3467,19.4248)"
       d="M 0,0 C 0.048,-0.012 0.096,-0.023 0.144,-0.035 1.521,-0.29 2.831,-0.456 4.138,-0.521" />
    <path
       id="path512"
       transform="translate(37.1631,19.003)"
       d="M 0,0 C -1.256,-0.129 -2.465,-0.158 -3.679,-0.099" />
    <path
       id="path514"
       transform="translate(37.5,23.1123)"
       d="M 0,0 C -1.138,-0.049 -2.26,-0.217 -3.414,0.049" />
    <path
       id="path516"
       transform="translate(41.7471,21.6294)"
       d="M 0,0 C -0.324,0.74 -1.337,1.153 -2.327,1.354" />
    <path
       id="path518"
       transform="translate(39.4199,22.983)"
       d="M 0,0 C -0.271,0.055 -0.542,0.094 -0.796,0.12 -1.174,0.148 -1.548,0.145 -1.92,0.129" />
    <path
       id="path520"
       transform="translate(41.6689,21.1465)"
       d="M 0,0 C -0.327,-1.203 -1.563,-1.622 -2.721,-1.887" />
    <path
       id="path522"
       transform="translate(41.7471,21.6294)"
       d="M 0,0 C -0.011,-0.174 -0.037,-0.334 -0.078,-0.483" />
    <path
       id="path524"
       transform="translate(20.2891,18.8995)"
       d="M 0,0 C 1.067,-0.076 2.125,-0.086 3.176,0.076" />
    <path
       id="path526"
       transform="translate(26.6699,21.1382)"
       d="M 0,0 C 0.011,0.14 0.001,0.284 -0.033,0.429" />
    <path
       id="path528"
       transform="translate(26.6699,21.1382)"
       d="M 0,0 C -0.064,-0.802 -0.817,-1.497 -1.605,-1.77" />
    <path
       id="path530"
       transform="translate(17.3027,23.1221)"
       d="m 0,0 c 0.922,-0.06 1.842,-0.172 2.598,-0.152 1.634,0.044 2.931,0.486 4.757,0.073 0.826,-0.235 1.709,-0.648 1.945,-1.355 0.013,-0.04 0.024,-0.081 0.034,-0.121" />
    <path
       id="path532"
       transform="translate(25.0654,19.3682)"
       d="m 0,0 c -0.037,-0.013 -0.075,-0.025 -0.112,-0.037 -0.494,-0.165 -0.99,-0.279 -1.489,-0.356" />
    <path
       id="path534"
       transform="translate(14.9189,19.3287)"
       d="M 0,0 C 0.039,-0.002 0.077,-0.002 0.115,-0.002" />
    <path
       id="path536"
       transform="translate(15.6572,19.3164)"
       d="M 0,0 C -0.162,0.007 -0.324,0.012 -0.486,0.015 -0.531,0.013 -0.576,0.011 -0.623,0.011" />
    <path
       id="path538"
       transform="translate(20.2891,18.8995)"
       d="M 0,0 C -1.523,0.108 -3.065,0.35 -4.632,0.417" />
    <path
       id="path540"
       transform="translate(14.8545,23.0039)"
       d="M 0,0 C 0.731,0.185 1.591,0.174 2.448,0.118" />
    <path
       id="path542"
       transform="translate(14.8545,23.0039)"
       d="M 0,0 C -0.199,-0.05 -0.39,-0.114 -0.567,-0.196 -0.932,-0.378 -2.025,-1.006 -2.1,-2.2 -2.157,-3.132 -0.914,-3.644 0.064,-3.675" />
    <g
       id="g550"
       transform="translate(6.8535,23.1392)">
      <path
         id="path544"
         d="M 0,0 C 0.141,-0.012 0.281,-0.024 0.422,-0.037" />
      <path
         id="path546"
         d="M 0,0 C 0.505,-0.011 1.015,-0.002 1.523,-0.002" />
      <path
         id="path548"
         d="M 0,0 C -0.194,0.004 -0.388,0.011 -0.58,0.022" />
    </g>
    <path
       id="path552"
       transform="translate(9.6406,19.0323)"
       d="M 0,0 C -1.587,-0.157 -3.142,-0.17 -4.671,0.007" />
    <path
       id="path554"
       transform="translate(10.1533,23.0664)"
       d="M 0,0 C -0.583,0.063 -1.179,0.072 -1.777,0.071" />
    <path
       id="path556"
       transform="translate(9.6406,19.0323)"
       d="M 0,0 C 0.193,0.019 0.387,0.04 0.581,0.063 0.9,0.121 1.158,0.197 1.381,0.299" />
    <path
       id="path558"
       transform="translate(11.0215,19.3316)"
       d="M 0,0 C 0.682,0.313 1.03,0.871 1.764,1.915 2.085,2.372 1.616,3.005 1.203,3.182 0.545,3.501 -0.152,3.658 -0.868,3.735" />
    <path
       id="path560"
       transform="translate(2.9717,19.3863)"
       d="M 0,0 C 0.662,-0.155 1.327,-0.269 1.998,-0.347" />
    <path
       id="path562"
       transform="translate(6.8535,23.1392)"
       d="m 0,0 c -1.929,0.168 -3.898,0.336 -5.766,-0.213 -0.648,-0.177 -1.3,-0.908 -0.942,-1.768 0.441,-1.061 0.824,-1.179 1.532,-1.415 0.43,-0.137 0.862,-0.255 1.294,-0.357" />
    <path
       id="path564"
       transform="translate(48.2373,17.251)"
       d="M 0,0 C 0.006,-0.091 0.022,-0.184 0.05,-0.277 0.412,-1.258 1.452,-1.742 2.577,-1.925" />
    <path
       id="path566"
       transform="translate(48.2979,17.7354)"
       d="M 0,0 C -0.049,-0.155 -0.071,-0.317 -0.061,-0.484" />
    <path
       id="path568"
       transform="translate(50.8145,15.3262)"
       d="m 0,0 c 0.158,-0.026 0.318,-0.046 0.479,-0.061 0.507,-0.01 1.01,-0.025 1.51,-0.038" />
    <path
       id="path570"
       transform="translate(52.8037,15.2276)"
       d="M 0,0 C 0.443,-0.011 0.884,-0.02 1.322,-0.024" />
    <path
       id="path572"
       transform="translate(48.2979,17.7354)"
       d="M 0,0 C 0.209,0.667 0.899,1.202 1.463,1.419 2.825,1.874 4.317,1.852 5.828,1.763" />
    <path
       id="path574"
       transform="translate(38.9482,19.2598)"
       d="M 0,0 C 0.512,0.008 1.036,-0.018 1.561,-0.046 3.001,-0.122 4.36,-0.073 5.745,-0.081" />
    <path
       id="path576"
       transform="translate(48.2373,17.251)"
       d="M 0,0 C -0.255,-0.788 -1.232,-1.318 -2.071,-1.691 -2.3,-1.783 -2.53,-1.864 -2.763,-1.937" />
    <path
       id="path578"
       transform="translate(39.2725,15.1485)"
       d="m 0,0 c -0.77,0.142 -1.538,0.325 -2.299,0.529 -0.589,0.118 -1.179,0.59 -1.355,1.12 -0.395,0.96 0.724,1.919 1.545,2.206" />
    <path
       id="path580"
       transform="translate(48.2979,17.7354)"
       d="m 0,0 c -0.004,0.064 -0.012,0.129 -0.025,0.196 -0.118,0.472 -0.81,1.164 -1.4,1.164 -0.29,0.024 -0.576,0.041 -0.861,0.054" />
    <path
       id="path582"
       transform="translate(38.9482,19.2598)"
       d="m 0,0 c -0.581,-0.01 -1.147,-0.066 -1.68,-0.223 -0.034,-0.01 -0.069,-0.021 -0.105,-0.034" />
    <path
       id="path584"
       transform="translate(44.6934,19.1792)"
       d="M 0,0 C 0.436,-0.002 0.874,-0.011 1.318,-0.03" />
    <path
       id="path586"
       transform="translate(43.6377,14.9288)"
       d="M 0,0 C -0.988,-0.115 -1.99,-0.094 -2.995,0.017" />
    <path
       id="path588"
       transform="translate(43.6377,14.9288)"
       d="M 0,0 C 0.619,0.072 1.232,0.197 1.837,0.386" />
    <path
       id="path590"
       transform="translate(48.2373,17.251)"
       d="M 0,0 C 0.049,0.152 0.071,0.313 0.061,0.484" />
    <path
       id="path592"
       transform="translate(40.6426,14.9454)"
       d="M 0,0 C -0.457,0.05 -0.914,0.12 -1.37,0.203" />
    <path
       id="path594"
       transform="translate(30.623,15.1416)"
       d="M 0,0 C 0.676,-0.055 1.289,0.078 1.896,0.209" />
    <path
       id="path596"
       transform="translate(25.0654,19.3682)"
       d="m 0,0 c -0.492,-0.037 -0.98,-0.128 -1.468,-0.331 -0.044,-0.02 -0.089,-0.04 -0.133,-0.062" />
    <path
       id="path598"
       transform="translate(25.8105,15.3999)"
       d="M 0,0 C -0.768,0.033 -1.528,0.116 -2.29,0.326" />
    <path
       id="path600"
       transform="translate(25.0654,19.3682)"
       d="M 0,0 C 0.936,0.07 1.889,-0.055 2.893,0.022 3.368,0.059 3.828,0.068 4.281,0.057" />
    <path
       id="path602"
       transform="translate(23.4648,18.9751)"
       d="m 0,0 c -0.783,-0.387 -1.561,-1.229 -1.281,-2.178 0.177,-0.53 0.707,-0.943 1.296,-1.06 0.013,-0.004 0.027,-0.008 0.041,-0.011" />
    <path
       id="path604"
       transform="translate(32.5186,15.3506)"
       d="M 0,0 C 0.421,0.091 0.839,0.183 1.273,0.21 3.159,0.327 2.923,1.27 2.923,2.095 2.817,2.946 1.848,3.316 0.966,3.554" />
    <path
       id="path606"
       transform="translate(25.8105,15.3999)"
       d="M 0,0 C 1.537,-0.067 3.1,0.06 4.74,-0.252 4.765,-0.255 4.788,-0.256 4.813,-0.258" />
    <path
       id="path608"
       transform="translate(29.3467,19.4248)"
       d="M 0,0 C 1.282,-0.032 2.506,-0.229 3.855,-0.447 3.948,-0.47 4.043,-0.495 4.138,-0.521" />
    <path
       id="path610"
       transform="translate(15.9336,15.3379)"
       d="M 0,0 C 0.684,0.037 1.369,0.081 2.058,0.121" />
    <path
       id="path612"
       transform="translate(14.9189,19.3287)"
       d="m 0,0 c -0.161,0.002 -0.316,0.003 -0.455,0.003 -1.089,0.113 -2.298,0.153 -3.442,0" />
    <path
       id="path614"
       transform="translate(20.2891,18.8995)"
       d="m 0,0 c -1.809,0.268 -2.057,0.402 -3.969,0.402 0,0 -0.287,0.008 -0.663,0.015" />
    <path
       id="path616"
       transform="translate(9.3711,15.5079)"
       d="M 0,0 C 0.826,-0.126 1.642,-0.198 2.449,-0.233" />
    <path
       id="path618"
       transform="translate(15.9336,15.3379)"
       d="M 0,0 C -1.367,-0.074 -2.73,-0.123 -4.113,-0.063" />
    <path
       id="path620"
       transform="translate(9.6406,19.0323)"
       d="M 0,0 C 0.441,0.139 0.905,0.236 1.381,0.299" />
    <path
       id="path622"
       transform="translate(20.2891,18.8995)"
       d="M 0,0 C 0.088,-0.013 0.179,-0.026 0.273,-0.04 0.981,-0.157 1.481,-0.275 1.718,-0.982 2.071,-2.043 0.881,-3.314 -0.05,-3.339 -0.807,-3.36 -1.555,-3.398 -2.298,-3.441" />
    <path
       id="path624"
       transform="translate(9.6406,19.0323)"
       d="m 0,0 c -0.163,-0.052 -0.323,-0.109 -0.479,-0.172 -0.767,-0.295 -1.828,-1.002 -1.474,-2.063 0.177,-0.53 0.707,-1.178 1.355,-1.237 0.11,-0.019 0.219,-0.036 0.328,-0.052" />
    <path
       id="path626"
       transform="translate(14.9189,19.3287)"
       d="M 0,0 C 0.038,-0.001 0.077,-0.001 0.115,-0.002" />
    <path
       id="path628"
       transform="translate(15.6572,19.3164)"
       d="M 0,0 C -0.193,0.004 -0.41,0.008 -0.623,0.011" />
    <path
       id="path630"
       transform="translate(50.8145,15.3262)"
       d="M 0,0 C 0.706,0.045 1.385,0.055 1.989,-0.099" />
    <path
       id="path632"
       transform="translate(43.6377,14.9288)"
       d="m 0,0 c -0.787,-0.333 -1.354,-0.916 -1.42,-1.902 1.002,-1.474 3.109,-1.43 4.376,-1.547 0.877,-0.082 1.733,-0.133 2.58,-0.129" />
    <path
       id="path634"
       transform="translate(51.6338,11.544)"
       d="M 0,0 C 0.653,0.107 1.304,0.263 1.957,0.48 2.143,0.531 2.329,0.64 2.492,0.785" />
    <path
       id="path636"
       transform="translate(52.8037,15.2276)"
       d="M 0,0 C 0.5,-0.126 0.949,-0.364 1.322,-0.784" />
    <path
       id="path638"
       transform="translate(45.4746,15.3145)"
       d="M 0,0 C -0.654,-0.044 -1.297,-0.156 -1.837,-0.386" />
    <path
       id="path640"
       transform="translate(45.4746,15.3145)"
       d="M 0,0 C 0.957,0.065 1.94,-0.013 2.665,-0.079 3.537,-0.158 4.459,-0.045 5.34,0.012" />
    <path
       id="path642"
       transform="translate(51.6338,11.544)"
       d="M 0,0 C -0.814,-0.133 -1.632,-0.19 -2.46,-0.193" />
    <path
       id="path644"
       transform="translate(39.2725,15.1485)"
       d="m 0,0 c -1.696,0.198 -4.26,0.384 -4.892,0.294 h 0.119 c -0.696,0 -1.341,-0.036 -1.981,-0.092" />
    <path
       id="path646"
       transform="translate(30.623,15.1416)"
       d="M 0,0 C 0.653,0.08 1.271,0.154 1.896,0.209" />
    <path
       id="path648"
       transform="translate(30.623,15.1416)"
       d="M 0,0 C -0.61,-0.075 -1.252,-0.155 -1.958,-0.23 -2.626,-0.3 -3.607,-1.055 -3.313,-1.938 -3.074,-2.656 -2.369,-3.14 -1.608,-3.36" />
    <path
       id="path650"
       transform="translate(36.0557,11.4424)"
       d="M 0,0 C 1.23,0.046 2.466,0.152 3.727,0.337" />
    <path
       id="path652"
       transform="translate(36.0557,11.4424)"
       d="M 0,0 C -1.534,-0.057 -3.062,-0.019 -4.622,0.081" />
    <path
       id="path654"
       transform="translate(40.6426,14.9454)"
       d="M 0,0 C 0.662,-0.142 1.3,-0.522 1.517,-1.153 1.841,-2.096 0.868,-2.862 0.279,-2.98 -0.104,-3.049 -0.482,-3.111 -0.859,-3.166" />
    <path
       id="path656"
       transform="translate(29.0146,11.7813)"
       d="M 0,0 C 0.177,-0.051 0.357,-0.088 0.534,-0.11 1.17,-0.168 1.797,-0.218 2.419,-0.258" />
    <path
       id="path658"
       transform="translate(40.6426,14.9454)"
       d="M 0,0 C -0.045,0.01 -0.089,0.018 -0.134,0.025 -0.41,0.08 -0.85,0.143 -1.37,0.203" />
    <path
       id="path660"
       transform="translate(13.7012,13.5699)"
       d="M 0,0 C -0.009,-0.131 0.008,-0.267 0.057,-0.405" />
    <path
       id="path662"
       transform="translate(15.9121,11.7691)"
       d="M 0,0 C -0.885,0.174 -1.682,0.499 -2.096,1.257 -2.119,1.304 -2.139,1.35 -2.154,1.395" />
    <path
       id="path664"
       transform="translate(15.9336,15.3379)"
       d="M 0,0 C -0.297,-0.056 -0.591,-0.135 -0.88,-0.249 -1.399,-0.485 -2.185,-1.063 -2.232,-1.768" />
    <path
       id="path666"
       transform="translate(21.7832,11.5293)"
       d="M 0,0 C 0.779,0.045 1.535,0.112 2.269,0.189" />
    <path
       id="path668"
       transform="translate(15.9121,11.7691)"
       d="M 0,0 C 0.628,-0.124 1.3,-0.172 1.911,-0.245 1.926,-0.246 1.94,-0.247 1.955,-0.248" />
    <path
       id="path670"
       transform="translate(20.7695,15.6192)"
       d="M 0,0 C 1.015,0.082 1.941,0.124 2.751,0.107" />
    <path
       id="path672"
       transform="translate(25.8105,15.3999)"
       d="M 0,0 C 0.777,-0.278 1.195,-0.751 1.146,-1.49 1.088,-2.358 0.713,-3.385 -0.15,-3.493 -0.675,-3.559 -1.211,-3.622 -1.759,-3.681" />
    <path
       id="path674"
       transform="translate(25.8105,15.3999)"
       d="M 0,0 C -0.578,0.207 -1.356,0.306 -2.29,0.326" />
    <path
       id="path676"
       transform="translate(21.7832,11.5293)"
       d="M 0,0 C -1.243,-0.073 -2.547,-0.09 -3.916,-0.008" />
    <path
       id="path678"
       transform="translate(17.9912,15.4585)"
       d="M 0,0 C -0.692,0.009 -1.385,0.006 -2.058,-0.121" />
    <path
       id="path680"
       transform="translate(21.123,15.7369)"
       d="M 0,0 C -1.003,-0.334 -2.068,-0.292 -3.132,-0.278" />
    <path
       id="path682"
       transform="translate(13.7578,13.1646)"
       d="M 0,0 C -0.04,-0.642 -0.617,-1.344 -1.18,-1.376 -1.785,-1.41 -2.392,-1.446 -2.998,-1.481" />
    <path
       id="path684"
       transform="translate(6.918,11.4981)"
       d="M 0,0 C -0.972,-0.03 -1.951,-0.044 -2.943,-0.028" />
    <path
       id="path686"
       transform="translate(2.4063,15.2725)"
       d="m 0,0 c -0.008,-0.002 -0.015,-0.004 -0.021,-0.007 -0.531,-0.177 -0.944,-0.707 -1.239,-1.238 -0.467,-0.933 0.25,-1.94 1.125,-2.348" />
    <path
       id="path688"
       transform="translate(6.918,11.4981)"
       d="M 0,0 C 1.291,0.04 2.568,0.111 3.842,0.185" />
    <path
       id="path690"
       transform="translate(9.3711,15.5079)"
       d="M 0,0 C -0.841,-0.017 -1.704,-0.069 -2.509,-0.007 -3.24,0.05 -3.972,0.105 -4.69,0.098" />
    <path
       id="path692"
       transform="translate(2.4063,15.2725)"
       d="M 0,0 C 0.732,0.241 1.496,0.325 2.274,0.333" />
    <path
       id="path694"
       transform="translate(3.9746,11.4698)"
       d="M 0,0 C -0.332,0.005 -0.666,0.013 -1.001,0.024 -1.233,0.037 -1.474,0.102 -1.703,0.21" />
    <path
       id="path696"
       transform="translate(13.7578,13.1646)"
       d="M 0,0 C 0.009,0.141 -0.008,0.278 -0.057,0.405" />
    <path
       id="path698"
       transform="translate(13.7012,13.5699)"
       d="M 0,0 C -0.01,0.025 -0.02,0.051 -0.032,0.075 -0.447,0.987 -1.1,1.462 -1.881,1.705" />
    <path
       id="path700"
       transform="translate(9.3711,15.5079)"
       d="M 0,0 C 0.871,0.017 1.717,-0.006 2.449,-0.233" />
    <path
       id="path702"
       transform="translate(51.6338,11.544)"
       d="M 0,0 C 0.357,-0.014 0.713,-0.038 1.059,-0.064 1.518,-0.1 2.002,-0.081 2.492,-0.043" />
    <path
       id="path704"
       transform="translate(51.0244,7.5293)"
       d="M 0,0 C 1.045,-0.082 2.08,-0.14 3.102,-0.123" />
    <path
       id="path706"
       transform="translate(51.6338,11.544)"
       d="M 0,0 C -0.848,0.032 -1.706,0.004 -2.46,-0.193" />
    <path
       id="path708"
       transform="translate(49.293,7.7286)"
       d="M 0,0 C 0.264,-0.058 0.538,-0.098 0.821,-0.124 1.125,-0.15 1.429,-0.176 1.731,-0.199" />
    <path
       id="path710"
       transform="translate(46.9688,9.2046)"
       d="M 0,0 C 0.595,-0.842 1.396,-1.272 2.324,-1.476" />
    <path
       id="path712"
       transform="translate(47.0488,9.5957)"
       d="M 0,0 C 0.4,0.995 1.182,1.507 2.125,1.755" />
    <path
       id="path714"
       transform="translate(47.0488,9.5957)"
       d="m 0,0 c -0.043,-0.108 -0.082,-0.221 -0.116,-0.341 0.012,-0.017 0.023,-0.033 0.036,-0.05" />
    <path
       id="path716"
       transform="translate(39.7832,11.7793)"
       d="M 0,0 C -1.246,-0.082 -2.523,-0.076 -3.727,-0.337" />
    <path
       id="path718"
       transform="translate(47.0488,9.5957)"
       d="M 0,0 C 0,0.102 -0.018,0.205 -0.058,0.308 -0.352,0.956 -1.059,1.545 -1.943,1.84 -3.652,2.37 -5.365,2.319 -7.129,2.193 -7.175,2.189 -7.221,2.187 -7.266,2.184" />
    <path
       id="path720"
       transform="translate(39.4941,7.7076)"
       d="M 0,0 C -0.775,0.028 -1.555,0.047 -2.344,0.016 -2.663,-0.011 -3,-0.02 -3.335,0" />
    <path
       id="path722"
       transform="translate(36.0557,11.4424)"
       d="m 0,0 c -0.349,-0.075 -0.692,-0.173 -1.026,-0.302 -0.649,-0.294 -1.651,-1.06 -1.415,-1.886 0.274,-1.094 1.396,-1.483 2.544,-1.547" />
    <path
       id="path724"
       transform="translate(47.0488,9.5957)"
       d="M 0,0 C 0.001,-0.134 -0.028,-0.265 -0.08,-0.391" />
    <path
       id="path726"
       transform="translate(39.4941,7.7076)"
       d="M 0,0 C 2.121,-0.077 4.203,-0.219 6.318,0.428 6.724,0.59 7.27,1.004 7.475,1.497" />
    <path
       id="path728"
       transform="translate(31.4336,11.5235)"
       d="M 0,0 C -0.731,0.182 -1.582,0.251 -2.419,0.258" />
    <path
       id="path730"
       transform="translate(20.123,9.503)"
       d="m 0,0 c 0.016,-0.044 0.033,-0.087 0.057,-0.13 0.471,-1.061 1.65,-1.316 2.711,-1.296" />
    <path
       id="path732"
       transform="translate(20.0781,9.856)"
       d="M 0,0 C 0.047,0.624 0.719,1.24 1.28,1.52 1.42,1.581 1.563,1.63 1.705,1.673" />
    <path
       id="path734"
       transform="translate(21.7832,11.5293)"
       d="M 0,0 C 0.726,0.215 1.489,0.225 2.269,0.189" />
    <path
       id="path736"
       transform="translate(24.0518,11.7188)"
       d="M 0,0 C 0.881,-0.039 1.782,-0.134 2.669,-0.048 3.337,0.017 4.143,0.069 4.963,0.063" />
    <path
       id="path738"
       transform="translate(22.8906,8.0767)"
       d="m 0,0 c 4.655,0.088 4.699,-0.752 8.058,0.044 0.618,0.146 2.43,0.398 2.519,1.193 0.139,1.246 -0.769,1.896 -2.034,2.21" />
    <path
       id="path740"
       transform="translate(20.0781,9.856)"
       d="M 0,0 C -0.009,-0.118 0.004,-0.237 0.045,-0.353" />
    <path
       id="path742"
       transform="translate(14.5908,7.4898)"
       d="M 0,0 C -1.344,-0.053 -2.705,0.024 -4.078,0.141" />
    <path
       id="path744"
       transform="translate(5.3691,10.2803)"
       d="M 0,0 C -0.043,-0.192 -0.04,-0.399 0.021,-0.613 0.037,-0.684 0.059,-0.751 0.082,-0.816" />
    <path
       id="path746"
       transform="translate(20.123,9.503)"
       d="M 0,0 C 0.021,0.123 0.01,0.243 -0.045,0.353" />
    <path
       id="path748"
       transform="translate(15.9121,11.7691)"
       d="M 0,0 C 0.684,-0.007 1.34,-0.061 1.955,-0.248" />
    <path
       id="path750"
       transform="translate(16.5332,7.669)"
       d="M 0,0 C -0.643,-0.097 -1.29,-0.153 -1.942,-0.179" />
    <path
       id="path752"
       transform="translate(15.9121,11.7691)"
       d="M 0,0 C -0.79,0.008 -1.617,-0.045 -2.465,-0.024 -2.906,-0.113 -4.557,-0.113 -4.674,-0.113 -4.841,-0.103 -5,-0.094 -5.152,-0.086" />
    <path
       id="path754"
       transform="translate(20.0781,9.856)"
       d="m 0,0 c -0.014,0.026 -0.027,0.052 -0.046,0.077 -0.637,0.88 -1.367,1.346 -2.165,1.588" />
    <path
       id="path756"
       transform="translate(20.123,9.503)"
       d="M 0,0 C -0.091,-0.526 -0.77,-1.112 -1.181,-1.25 -1.975,-1.523 -2.778,-1.711 -3.59,-1.834" />
    <path
       id="path758"
       transform="translate(5.3691,10.2803)"
       d="M 0,0 C 0.123,0.55 0.616,0.98 1.185,1.111 1.32,1.148 1.438,1.184 1.549,1.218" />
    <path
       id="path760"
       transform="translate(9.1416,7.7569)"
       d="M 0,0 C -0.288,0.028 -0.576,0.056 -0.864,0.084 -2.032,0.251 -3.302,0.627 -3.69,1.707" />
    <path
       id="path762"
       transform="translate(10.7598,11.6831)"
       d="M 0,0 C -2.761,0.147 -3.173,0.02 -3.842,-0.185" />
    <path
       id="path764"
       transform="translate(9.1416,7.7569)"
       d="M 0,0 C 0.458,-0.044 0.915,-0.087 1.371,-0.126" />
    <path
       id="path766"
       transform="translate(41.5781,5.4795)"
       d="m 0,0 c 0.104,-0.623 0.9,-1.184 1.642,-1.469 0.09,-0.027 0.182,-0.052 0.273,-0.076" />
    <path
       id="path768"
       transform="translate(41.5723,6.0274)"
       d="M 0,0 C 0.226,2.167 3.548,1.75 5.478,1.696 L 5.419,1.637 C 6.067,1.734 6.88,1.752 7.721,1.701" />
    <path
       id="path770"
       transform="translate(49.293,7.7286)"
       d="M 0,0 C 0.579,-0.035 1.171,-0.103 1.731,-0.199" />
    <path
       id="path772"
       transform="translate(43.4932,3.9346)"
       d="M 0,0 C 0.742,-0.194 1.479,-0.271 2.218,-0.29" />
    <path
       id="path774"
       transform="translate(50.1514,3.7774)"
       d="M 0,0 C 0.047,-0.001 0.093,-0.002 0.14,-0.003 0.455,0.022 0.746,0.071 1.03,0.134" />
    <path
       id="path776"
       transform="translate(45.7109,3.6446)"
       d="M 0,0 C 1.464,-0.038 2.93,0.156 4.44,0.133" />
    <path
       id="path778"
       transform="translate(41.5723,6.0274)"
       d="M 0,0 C -0.016,-0.149 -0.018,-0.311 -0.002,-0.485 0,-0.506 0.003,-0.527 0.006,-0.548" />
    <path
       id="path780"
       transform="translate(51.1816,3.9117)"
       d="M 0,0 C 0.404,0.09 0.797,0.21 1.231,0.334 2.262,0.629 2.94,1.313 2.836,2.176 2.758,2.838 1.426,3.344 -0.157,3.618" />
    <path
       id="path782"
       transform="translate(41.5723,6.0274)"
       d="M 0,0 C -0.016,0.055 -0.036,0.109 -0.062,0.164 -0.458,0.901 -1.184,1.529 -2.078,1.68" />
    <path
       id="path784"
       transform="translate(41.5781,5.4795)"
       d="M 0,0 C 0.043,0.178 0.046,0.363 -0.006,0.548" />
    <path
       id="path786"
       transform="translate(39.4941,7.7076)"
       d="M 0,0 C -0.034,0.006 -0.069,0.011 -0.105,0.016 -1.636,0.206 -2.176,0.107 -3.335,0" />
    <path
       id="path788"
       transform="translate(30.9014,3.8633)"
       d="M 0,0 C 0.994,-0.074 1.978,-0.165 2.951,-0.227" />
    <path
       id="path790"
       transform="translate(37.4824,3.6426)"
       d="M 0,0 C -1.198,-0.111 -2.406,-0.082 -3.63,-0.006" />
    <path
       id="path792"
       transform="translate(26.6934,6.0723)"
       d="M 0,0 C -0.033,-0.13 -0.028,-0.268 0.027,-0.412 0.042,-0.445 0.058,-0.478 0.074,-0.51" />
    <path
       id="path794"
       transform="translate(41.5781,5.4795)"
       d="M 0,0 C -0.15,-0.625 -0.804,-1.163 -1.363,-1.292 -1.614,-1.373 -1.865,-1.444 -2.117,-1.506" />
    <path
       id="path796"
       transform="translate(30.9014,3.8633)"
       d="M 0,0 C -0.468,0.035 -0.938,0.066 -1.411,0.088 -2.553,0.203 -3.639,0.704 -4.134,1.699" />
    <path
       id="path798"
       transform="translate(37.4824,3.6426)"
       d="M 0,0 C 0.663,0.062 1.322,0.167 1.979,0.331" />
    <path
       id="path800"
       transform="translate(26.6934,6.0723)"
       d="M 0,0 C 0.142,0.564 0.989,1.006 1.516,1.341 2.809,2.142 8.542,1.563 8.542,1.563 8.896,1.585 9.198,1.61 9.466,1.635" />
    <path
       id="path802"
       transform="translate(16.5332,7.669)"
       d="M 0,0 C -0.672,0.034 -1.328,0.027 -1.942,-0.179" />
    <path
       id="path804"
       transform="translate(26.6934,6.0723)"
       d="M 0,0 C 0.009,-0.02 0.018,-0.038 0.027,-0.058 0.086,-0.21 0.098,-0.361 0.074,-0.51" />
    <path
       id="path806"
       transform="translate(12.9912,5.4839)"
       d="M 0,0 C 0.468,-0.979 1.496,-1.427 2.608,-1.601" />
    <path
       id="path808"
       transform="translate(15.5996,3.8829)"
       d="m 0,0 c 0.429,-0.067 0.869,-0.093 1.295,-0.093 0.046,0.001 0.091,0.002 0.136,0.003" />
    <path
       id="path810"
       transform="translate(17.0303,3.793)"
       d="M 0,0 C 1.996,0.044 3.549,-0.22 5.565,-0.047 6.509,0.07 7.628,-0.077 8.393,0.335 8.961,0.619 9.642,1.168 9.737,1.769" />
    <path
       id="path812"
       transform="translate(12.9707,6.1075)"
       d="M 0,0 C -0.075,-0.208 -0.081,-0.421 0.02,-0.624" />
    <path
       id="path814"
       transform="translate(22.8906,8.0767)"
       d="M 0,0 C 1.453,-0.174 3.135,-0.579 3.803,-2.004" />
    <path
       id="path816"
       transform="translate(22.8906,8.0767)"
       d="m 0,0 c -1.179,-0.118 -2.367,-0.072 -3.536,-0.354 -0.928,-0.224 -1.89,-0.1 -2.821,-0.054" />
    <path
       id="path818"
       transform="translate(12.9707,6.1075)"
       d="m 0,0 c 0.188,0.518 0.813,1.01 1.316,1.262 0.1,0.046 0.202,0.086 0.304,0.12" />
    <path
       id="path820"
       transform="translate(9.1416,7.7569)"
       d="M 0,0 C 0.452,-0.01 0.904,-0.045 1.371,-0.126" />
    <path
       id="path822"
       transform="translate(12.9707,6.1075)"
       d="m 0,0 c -0.229,0.806 -1.231,1.296 -2.042,1.439 -0.14,0.032 -0.278,0.06 -0.416,0.084" />
    <path
       id="path824"
       transform="translate(3.5283,7.8511)"
       d="M 0,0 C -0.674,0.036 -1.295,-0.02 -1.947,-0.353" />
    <path
       id="path826"
       transform="translate(12.9912,5.4839)"
       d="M 0,0 C -0.235,-0.587 -0.64,-1.115 -1.231,-1.237" />
    <path
       id="path828"
       transform="translate(9.1416,7.7569)"
       d="M 0,0 C -0.869,0.019 -1.735,-0.059 -2.691,-0.093 -3.854,-0.133 -4.774,0.05 -5.613,0.094" />
    <path
       id="path830"
       transform="translate(2.5088,3.9742)"
       d="M 0,0 C 0.851,-0.165 1.708,-0.237 2.569,-0.253" />
    <path
       id="path832"
       transform="translate(9.5693,3.9424)"
       d="M 0,0 C -1.51,-0.113 -3.009,-0.249 -4.491,-0.222" />
    <path
       id="path834"
       transform="translate(9.5693,3.9424)"
       d="m 0,0 c 0.041,0.003 0.081,0.006 0.122,0.009 0.795,0.059 1.105,0.103 2.063,0.295 0.002,0 0.003,0.001 0.005,0.001" />
    <path
       id="path836"
       transform="translate(1.5811,7.4981)"
       d="m 0,0 c -0.007,-0.003 -0.015,-0.007 -0.021,-0.011 -0.708,-0.471 -1.709,-1.002 -1.474,-1.945 0.177,-0.648 0.648,-1.119 1.12,-1.237 0.433,-0.138 0.867,-0.247 1.303,-0.331" />
    <path
       id="path838"
       transform="translate(12.9912,5.4839)"
       d="M 0,0 C 0.045,0.225 0.034,0.433 -0.02,0.624" />
    <path
       id="path840"
       transform="translate(52.9414)"
       d="M 0,0 C -0.292,0.005 -0.587,0.007 -0.883,0.004 -2.295,-0.014 -3.898,0.347 -4.79,1.54" />
    <path
       id="path842"
       transform="translate(48.1982,1.9849)"
       d="m 0,0 c -0.035,-0.123 -0.064,-0.252 -0.088,-0.39 0.014,-0.019 0.027,-0.037 0.041,-0.055" />
    <path
       id="path844"
       transform="translate(51.1816,3.9117)"
       d="M 0,0 C 0.976,0.048 2.033,-0.069 2.944,-0.08" />
    <path
       id="path846"
       transform="translate(50.1514,3.7774)"
       d="M 0,0 C -0.911,-0.214 -1.646,-0.711 -1.953,-1.793" />
    <path
       id="path848"
       transform="translate(50.1514,3.7774)"
       d="M 0,0 C 0.325,0.076 0.672,0.116 1.03,0.134" />
    <path
       id="path850"
       transform="translate(43.4932,3.9346)"
       d="M 0,0 C -0.556,0.015 -1.129,0.002 -1.717,-0.012 L -2.557,0.12 C -3.095,0.09 -3.574,0.072 -4.032,0.039" />
    <path
       id="path852"
       transform="translate(45.7109,3.6446)"
       d="M 0,0 C -0.698,0.196 -1.44,0.269 -2.218,0.29" />
    <path
       id="path854"
       transform="translate(39.4609,3.9732)"
       d="M 0,0 C -0.666,-0.049 -1.287,-0.131 -1.979,-0.331" />
    <path
       id="path856"
       transform="translate(35.4229,2.1968)"
       d="M 0,0 C -0.04,-0.166 -0.037,-0.347 0.019,-0.543" />
    <path
       id="path858"
       transform="translate(48.1514,1.5396)"
       d="M 0,0 C 0.063,0.151 0.083,0.304 0.047,0.445" />
    <path
       id="path860"
       transform="translate(37.4824,3.6426)"
       d="M 0,0 C -0.238,-0.068 -0.484,-0.15 -0.744,-0.25 -1.373,-0.52 -1.934,-0.91 -2.06,-1.446" />
    <path
       id="path862"
       transform="translate(48.1514,1.5396)"
       d="m 0,0 c -0.207,-0.503 -0.874,-0.998 -1.395,-1.064 -3.787,-0.487 -6.616,-0.575 -10.254,0.117 -0.477,0.091 -0.943,0.59 -1.061,1.061" />
    <path
       id="path864"
       transform="translate(45.7109,3.6446)"
       d="M 0,0 C 0.854,-0.241 1.641,-0.665 2.341,-1.402 2.416,-1.482 2.464,-1.568 2.487,-1.66" />
    <path
       id="path866"
       transform="translate(30.8906)"
       d="M 0,0 C -0.117,0.011 -0.23,0.023 -0.34,0.033 -1.511,0.183 -2.683,0.066 -3.838,0" />
    <path
       id="path868"
       transform="translate(22.0654,2.1841)"
       d="m 0,0 c 0.648,2.651 3.804,1.141 5.922,1.296 0.954,0.07 1.925,0.279 2.914,0.383" />
    <path
       id="path870"
       transform="translate(22.0361,1.9996)"
       d="M 0,0 C -0.059,-0.857 0.968,-1.54 1.738,-1.76 2.166,-1.887 2.599,-1.961 3.034,-2" />
    <path
       id="path872"
       transform="translate(22.0361,1.9996)"
       d="M 0,0 C 0.005,0.061 0.014,0.122 0.029,0.184" />
    <path
       id="path874"
       transform="translate(35.4414,1.6538)"
       d="M 0,0 C 0.033,0.19 0.024,0.372 -0.019,0.543" />
    <path
       id="path876"
       transform="translate(33.8525,3.6368)"
       d="M 0,0 C 0.727,-0.269 1.403,-0.779 1.57,-1.44" />
    <path
       id="path878"
       transform="translate(35.4414,1.6538)"
       d="M 0,0 C -0.235,-0.707 -0.31,-0.899 -0.957,-1.311 -1.266,-1.482 -1.627,-1.59 -2.014,-1.654" />
    <path
       id="path880"
       transform="translate(33.4277)"
       d="M 0,0 C -0.821,-0.136 -1.757,-0.073 -2.537,0" />
    <path
       id="path882"
       transform="translate(25.0703)"
       d="M 0,0 C 0.654,-0.058 1.315,-0.038 1.982,0" />
    <path
       id="path884"
       transform="translate(30.9014,3.8633)"
       d="m 0,0 c 0.889,0.094 1.793,0.104 2.714,-0.147 0.079,-0.024 0.158,-0.05 0.237,-0.08" />
    <path
       id="path886"
       transform="translate(22.0361,1.9996)"
       d="M 0,0 C 0.012,0.06 0.022,0.121 0.029,0.184" />
    <path
       id="path888"
       transform="translate(22.0361,1.9996)"
       d="m 0,0 c -0.266,-1.383 -1.615,-1.79 -2.976,-1.79 -3.624,0 -6.541,-0.176 -10.017,0.148 -0.765,0.071 -1.414,0.707 -1.709,1.355 -0.412,0.884 0.648,1.826 1.414,2.003 0.273,0.085 0.547,0.161 0.821,0.227" />
    <path
       id="path890"
       transform="translate(9.5693,3.9424)"
       d="M 0,0 C 0.721,0.174 1.446,0.279 2.19,0.305" />
    <path
       id="path892"
       transform="translate(17.0303,3.793)"
       d="M 0,0 C 2.458,-0.137 4.974,-0.276 5.035,-1.609" />
    <path
       id="path894"
       transform="translate(15.5996,3.8829)"
       d="M 0,0 C -0.559,0.043 -1.086,0.1 -1.548,0.187 -2.339,0.335 -3.099,0.39 -3.84,0.364" />
    <path
       id="path896"
       transform="translate(15.5996,3.8829)"
       d="M 0,0 C 0.462,-0.036 0.945,-0.063 1.431,-0.09" />
    <path
       id="path898"
       transform="translate(0,50.1607)"
       d="M 0,0 C 0.286,0.059 0.569,0.132 0.846,0.225 1.494,0.519 2.614,1.403 2.201,2.287 1.906,3.053 1.199,3.524 0.375,3.642 0.249,3.657 0.124,3.672 0,3.688" />
    <path
       id="path900"
       transform="translate(0,45.9292)"
       d="M 0,0 C 0.752,0.006 1.549,0.068 2.345,0.162" />
    <path
       id="path902"
       transform="translate(4.3594,46.3872)"
       d="M 0,0 C 0.77,0.132 1.5,0.275 2.143,0.403 2.663,0.507 3.558,1.287 3.558,1.818 3.381,2.702 2.231,3.32 1.171,3.497 c -1.237,0 -2.383,0.354 -3.712,0.354 -0.757,0 -1.296,-0.071 -1.818,-0.152" />
    <path
       id="path904"
       transform="translate(4.3594,46.3872)"
       d="M 0,0 C -0.652,-0.112 -1.333,-0.215 -2.015,-0.296" />
    <path
       id="path906"
       transform="translate(0,43.3853)"
       d="M 0,0 C 0.281,0.274 0.481,0.649 0.492,1.107 0.502,1.539 0.32,1.865 0,2.112" />
    <path
       id="path908"
       transform="translate(0,42.3975)"
       d="M 0,0 C 0.664,-0.065 1.387,-0.044 2.096,-0.06" />
    <path
       id="path910"
       transform="translate(2.8193,42.3047)"
       d="M 0,0 C -0.237,0.019 -0.48,0.028 -0.724,0.033" />
    <path
       id="path912"
       transform="translate(1.8613,38.4839)"
       d="M 0,0 C -0.616,-0.062 -1.237,-0.09 -1.861,-0.096" />
    <path
       id="path914"
       transform="translate(0,42.3863)"
       d="M 0,0 C 0.086,-0.004 0.171,-0.009 0.257,-0.015" />
    <path
       id="path916"
       transform="translate(5.4502,39.6646)"
       d="M 0,0 C -0.25,-0.297 -0.605,-0.538 -0.892,-0.652 -1.382,-0.803 -1.875,-0.92 -2.371,-1.011" />
    <path
       id="path918"
       transform="translate(5.4502,39.6646)"
       d="M 0,0 C 0.264,0.314 0.409,0.693 0.228,1.057 0.189,1.131 0.149,1.201 0.107,1.269" />
    <path
       id="path920"
       transform="translate(5.5576,40.9336)"
       d="M 0,0 C -0.616,0.996 -1.629,1.284 -2.738,1.371" />
    <path
       id="path922"
       transform="translate(1.8613,38.4839)"
       d="M 0,0 C 0.408,0.041 0.814,0.096 1.218,0.17" />
    <path
       id="path924"
       transform="translate(2.6709,30.6416)"
       d="M 0,0 C -0.897,-0.036 -1.78,-0.07 -2.671,-0.062" />
    <path
       id="path926"
       transform="translate(5.5518,31.0015)"
       d="M 0,0 C 0.907,0.431 1.621,1.259 1.363,2.119 1.197,2.782 0.564,3.329 -0.187,3.574" />
    <path
       id="path928"
       transform="translate(5.5518,31.0015)"
       d="M 0,0 C -0.338,-0.16 -0.701,-0.266 -1.053,-0.297 -1.672,-0.311 -2.279,-0.335 -2.881,-0.36" />
    <path
       id="path930"
       transform="translate(2.7813,34.6592)"
       d="M 0,0 C -0.937,-0.003 -1.847,0.032 -2.781,0.046" />
    <path
       id="path932"
       transform="translate(5.3652,34.5752)"
       d="M 0,0 C -0.315,0.103 -0.652,0.153 -0.983,0.136 -1.531,0.099 -2.062,0.086 -2.584,0.084" />
    <path
       id="path934"
       transform="translate(0.9648,29.1641)"
       d="M 0,0 C 0,0.002 0,0.005 -0.001,0.008 -0.092,0.369 -0.491,0.694 -0.965,0.96" />
    <path
       id="path936"
       transform="translate(0.8652,28.2627)"
       d="M 0,0 C -0.168,-0.357 -0.484,-0.64 -0.865,-0.852" />
    <path
       id="path938"
       transform="translate(0.9648,29.1641)"
       d="M 0,0 C 0.067,-0.341 0.023,-0.641 -0.1,-0.901" />
    <path
       id="path940"
       transform="translate(5.6504,24.6084)"
       d="M 0,0 C 0.163,0.288 0.218,0.59 0.087,0.851 0.073,0.876 0.06,0.9 0.045,0.925" />
    <path
       id="path942"
       transform="translate(5.6953,25.5332)"
       d="M 0,0 C -1.077,1.874 -3.547,1.533 -5.695,1.531" />
    <path
       id="path944"
       transform="translate(5.6504,24.6084)"
       d="M 0,0 C -0.276,-0.492 -0.866,-0.945 -1.387,-1.093 -2.83,-1.407 -4.239,-1.52 -5.65,-1.54" />
    <path
       id="path946"
       transform="translate(2.4063,15.2725)"
       d="M 0,0 C 0.765,0.059 1.522,0.162 2.274,0.333" />
    <path
       id="path948"
       transform="translate(4.9697,19.0396)"
       d="M 0,0 C -0.601,0.23 -1.294,0.313 -1.998,0.347" />
    <path
       id="path950"
       transform="translate(2.4063,15.2725)"
       d="M 0,0 C -0.795,-0.062 -1.596,-0.075 -2.406,-0.069" />
    <path
       id="path952"
       transform="translate(4.6807,15.6055)"
       d="M 0,0 C 0.176,0.04 0.352,0.083 0.526,0.131 1.292,0.308 2.234,1.251 1.822,2.017 1.495,2.753 0.948,3.182 0.289,3.434" />
    <path
       id="path954"
       transform="translate(2.9717,19.3863)"
       d="M 0,0 C -0.749,0.037 -1.511,0.018 -2.185,0.063 -2.447,0.08 -2.71,0.098 -2.972,0.113" />
    <path
       id="path956"
       transform="translate(0,12.3067)"
       d="M 0,0 C 0.421,0.358 0.707,0.955 0.492,1.427 0.349,1.721 0.184,1.964 0,2.165" />
    <path
       id="path958"
       transform="translate(1.5811,7.4981)"
       d="M 0,0 C 0.656,0.07 1.306,0.183 1.947,0.353" />
    <path
       id="path960"
       transform="translate(5.4512,9.4639)"
       d="M 0,0 C -0.192,-0.635 -0.881,-1.258 -1.541,-1.505 -1.668,-1.544 -1.795,-1.579 -1.923,-1.613" />
    <path
       id="path962"
       transform="translate(3.9746,11.4698)"
       d="M 0,0 C -0.512,0.181 -1.092,0.226 -1.703,0.21" />
    <path
       id="path964"
       transform="translate(5.3691,10.2803)"
       d="M 0,0 C -0.352,0.628 -0.833,0.991 -1.395,1.189" />
    <path
       id="path966"
       transform="translate(0,7.4058)"
       d="M 0,0 C 0.531,0.008 1.058,0.037 1.581,0.092" />
    <path
       id="path968"
       transform="translate(5.3691,10.2803)"
       d="m 0,0 c 0.005,-0.008 0.009,-0.016 0.014,-0.023 0.141,-0.248 0.15,-0.522 0.068,-0.793" />
    <path
       id="path970"
       transform="translate(2.2715,11.6797)"
       d="M 0,0 C -0.732,-0.019 -1.511,-0.124 -2.271,-0.181" />
    <path
       id="path972"
       transform="translate(0,3.8326)"
       d="m 0,0 c 0.128,-0.002 0.253,-0.001 0.375,0.001 0.669,0.018 1.403,0.1 2.134,0.141" />
    <path
       id="path974"
       transform="translate(2.5088,3.9742)"
       d="M 0,0 C 0.906,0.05 1.807,0.034 2.569,-0.253" />
    <path
       id="path976"
       transform="translate(0.0293,0.0528)"
       d="M 0,0 C 2.469,-0.016 4.045,0.184 4.927,0.555 5.693,0.967 6.886,1.601 6.474,2.485 6.111,3.088 5.618,3.454 5.049,3.668" />
    <path
       id="path978"
       transform="translate(0,1.0264)"
       d="M 0,0 C 1.01,-0.055 2.03,0.625 2.52,1.969 1.429,1.424 0.73,1.173 0,1.18" />
    <path
       id="path980"
       transform="translate(26.6064,2.375)"
       d="M 0,0 C 1.125,-2.475 3.825,-2.25 4.726,0.225 2.7,-0.788 2.025,-0.788 0,0 Z" />
    <path
       id="path982"
       transform="translate(17.3779,6.4165)"
       d="M 0,0 C 1.125,-2.475 3.824,-2.25 4.725,0.225 2.699,-0.788 2.024,-0.788 0,0 Z" />
    <path
       id="path984"
       transform="translate(44.9189,6.1665)"
       d="M 0,0 C 1.125,-2.475 3.825,-2.25 4.726,0.225 2.7,-0.788 2.025,-0.788 0,0 Z" />
    <path
       id="path986"
       transform="translate(24.3154,10.604)"
       d="M 0,0 C 1.125,-2.475 3.824,-2.25 4.725,0.225 2.699,-0.788 2.024,-0.788 0,0 Z" />
    <path
       id="path988"
       transform="translate(0,8.4678)"
       d="M 0,0 C 0.81,0.176 1.56,0.83 1.957,1.924 1.145,1.518 0.552,1.275 0,1.18" />
    <path
       id="path990"
       transform="translate(4.7939,14.104)"
       d="M 0,0 C 1.125,-2.475 3.825,-2.25 4.726,0.225 2.7,-0.788 2.025,-0.788 0,0 Z" />
    <path
       id="path992"
       transform="translate(32.6279,14.0205)"
       d="M 0,0 C 1.125,-2.475 3.824,-2.249 4.725,0.225 2.699,-0.787 2.024,-0.787 0,0 Z" />
    <path
       id="path994"
       transform="translate(31.0195,18.2251)"
       d="M 0,0 C -2.025,-1.013 -2.7,-1.013 -4.726,-0.225 -3.601,-2.7 -0.9,-2.475 0,0 Z" />
    <path
       id="path996"
       transform="translate(0,16.1997)"
       d="M 0,0 C 1.037,-0.099 2.1,0.582 2.602,1.963 1.47,1.397 0.76,1.147 0,1.175" />
    <path
       id="path998"
       transform="translate(22.04,21.8291)"
       d="M 0,0 C -2.025,-1.012 -2.7,-1.012 -4.725,-0.225 -3.6,-2.7 -0.9,-2.475 0,0 Z" />
    <path
       id="path1000"
       transform="translate(49.8525,21.8081)"
       d="M 0,0 C -2.025,-1.012 -2.7,-1.012 -4.725,-0.225 -3.6,-2.7 -0.9,-2.475 0,0 Z" />
    <path
       id="path1002"
       transform="translate(29.207,25.9331)"
       d="M 0,0 C -2.025,-1.012 -2.7,-1.012 -4.726,-0.225 -3.601,-2.7 -0.9,-2.475 0,0 Z" />
    <path
       id="path1004"
       transform="translate(0,24.0762)"
       d="M 0,0 C 0.77,0.208 1.472,0.852 1.852,1.899 1.093,1.519 0.523,1.281 0,1.175" />
    <path
       id="path1006"
       transform="translate(4.8359,29.5415)"
       d="M 0,0 C 1.125,-2.475 3.825,-2.25 4.725,0.225 2.7,-0.787 2.024,-0.787 0,0 Z" />
    <path
       id="path1008"
       transform="translate(32.2529,29.625)"
       d="M 0,0 C 1.125,-2.475 3.824,-2.25 4.725,0.225 2.699,-0.788 2.024,-0.788 0,0 Z" />
    <path
       id="path1010"
       transform="translate(26.3154,33.5835)"
       d="M 0,0 C 1.125,-2.475 3.824,-2.25 4.725,0.225 2.699,-0.788 2.024,-0.788 0,0 Z" />
    <path
       id="path1012"
       transform="translate(0,32.7256)"
       d="M 0,0 C 0.985,-0.182 1.739,0.037 3.123,0.729 2.536,-0.887 1.183,-1.543 0,-1.117" />
    <path
       id="path1014"
       transform="translate(3.6064,37.4165)"
       d="M 0,0 C 1.125,-2.475 3.825,-2.25 4.726,0.225 2.7,-0.787 2.025,-0.787 0,0 Z" />
    <path
       id="path1016"
       transform="translate(36.6445,37.6206)"
       d="M 0,0 C -2.025,-1.012 -2.7,-1.012 -4.726,-0.225 -3.601,-2.7 -0.9,-2.475 0,0 Z" />
    <path
       id="path1018"
       transform="translate(28.957,41.4126)"
       d="M 0,0 C -2.025,-1.013 -2.7,-1.013 -4.726,-0.225 -3.601,-2.7 -0.9,-2.475 0,0 Z" />
    <path
       id="path1020"
       transform="translate(0,39.3057)"
       d="M 0,0 C 0.802,0.183 1.541,0.835 1.936,1.919 1.135,1.519 0.546,1.277 0,1.18" />
    <path
       id="path1022"
       transform="translate(9.3525,45.2041)"
       d="M 0,0 C -2.025,-1.012 -2.7,-1.012 -4.725,-0.225 -3.6,-2.7 -0.9,-2.475 0,0 Z" />
    <path
       id="path1024"
       transform="translate(37.0605,45.1206)"
       d="M 0,0 C -2.024,-1.012 -2.7,-1.012 -4.725,-0.225 -3.6,-2.7 -0.899,-2.475 0,0 Z" />
    <path
       id="path1026"
       transform="translate(0,47.1353)"
       d="M 0,0 C 1.25,-0.694 2.814,-0.076 3.457,1.694 1.921,0.926 1.161,0.741 0,1.04" />
    <path
       id="path1028"
       transform="translate(31.457,48.8706)"
       d="M 0,0 C -2.025,-1.012 -2.7,-1.012 -4.726,-0.225 -3.601,-2.7 -0.9,-2.475 0,0 Z" />
    <path
       id="path1030"
       transform="translate(24.332,52.7876)"
       d="M 0,0 C -2.025,-1.013 -2.7,-1.013 -4.726,-0.225 -3.601,-2.7 -0.9,-2.475 0,0 Z" />
    <path
       id="path1032"
       transform="translate(52.54,53.0791)"
       d="M 0,0 C -2.025,-1.012 -2.7,-1.012 -4.726,-0.225 -3.601,-2.7 -0.9,-2.475 0,0 Z" />
    <path
       id="path1034"
       transform="translate(39.2314,1.333)"
       d="M 0,0 C 2.025,0.788 2.7,0.788 4.726,-0.225 3.825,2.25 1.125,2.475 0,0 Z" />
    <path
       id="path1036"
       transform="translate(12.2734,1.229)"
       d="M 0,0 C 2.025,0.788 2.7,0.788 4.725,-0.225 3.825,2.25 1.125,2.475 0,0 Z" />
    <path
       id="path1038"
       transform="translate(4.3154,4.7915)"
       d="M 0,0 C 2.024,0.788 2.699,0.788 4.725,-0.225 3.824,2.25 1.125,2.475 0,0 Z" />
    <path
       id="path1040"
       transform="translate(32.3564,4.729)"
       d="M 0,0 C 2.025,0.788 2.7,0.788 4.726,-0.225 3.825,2.25 1.125,2.475 0,0 Z" />
    <path
       id="path1042"
       transform="translate(10.7314,8.75)"
       d="M 0,0 C 2.025,0.788 2.7,0.788 4.726,-0.225 3.825,2.25 1.125,2.475 0,0 Z" />
    <path
       id="path1044"
       transform="translate(38.1064,8.75)"
       d="M 0,0 C 2.025,0.788 2.7,0.788 4.726,-0.225 3.825,2.25 1.125,2.475 0,0 Z" />
    <path
       id="path1046"
       transform="translate(51.207,12.3584)"
       d="M 0,0 C -0.9,2.475 -3.601,2.7 -4.726,0.225 -2.7,1.012 -2.025,1.012 0,0 Z" />
    <path
       id="path1048"
       transform="translate(39.6904,16.3955)"
       d="M 0,0 C 2.024,0.788 2.699,0.788 4.725,-0.225 3.824,2.25 1.125,2.475 0,0 Z" />
    <path
       id="path1050"
       transform="translate(18.2314,12.729)"
       d="M 0,0 C 2.025,0.788 2.7,0.788 4.726,-0.225 3.825,2.25 1.125,2.475 0,0 Z" />
    <path
       id="path1052"
       transform="translate(12.6064,16.4165)"
       d="M 0,0 C 2.025,0.788 2.7,0.788 4.726,-0.225 3.825,2.25 1.125,2.475 0,0 Z" />
    <path
       id="path1054"
       transform="translate(4.6484,20.25)"
       d="M 0,0 C 2.024,0.788 2.7,0.788 4.725,-0.225 3.825,2.25 1.125,2.475 0,0 Z" />
    <path
       id="path1056"
       transform="translate(31.6904,20.2705)"
       d="M 0,0 C 2.024,0.788 2.699,0.788 4.725,-0.225 3.824,2.25 1.125,2.475 0,0 Z" />
    <path
       id="path1058"
       transform="translate(43.123,24.1084)"
       d="M 0,0 C -0.899,2.475 -3.6,2.7 -4.725,0.225 -2.7,1.012 -2.024,1.012 0,0 Z" />
    <path
       id="path1060"
       transform="translate(10.3779,24.1665)"
       d="M 0,0 C 2.024,0.788 2.699,0.788 4.725,-0.225 3.824,2.25 1.125,2.475 0,0 Z" />
    <path
       id="path1062"
       transform="translate(50.8105,27.9414)"
       d="M 0,0 C -0.899,2.475 -3.6,2.7 -4.725,0.225 -2.7,1.013 -2.024,1.013 0,0 Z" />
    <path
       id="path1064"
       transform="translate(18.6279,27.8955)"
       d="M 0,0 C 2.024,0.788 2.699,0.788 4.725,-0.225 3.824,2.25 1.125,2.475 0,0 Z" />
    <path
       id="path1066"
       transform="translate(12.5029,31.8125)"
       d="M 0,0 C 2.024,0.788 2.699,0.788 4.725,-0.225 3.824,2.25 1.125,2.475 0,0 Z" />
    <path
       id="path1068"
       transform="translate(21.7695,35.6499)"
       d="M 0,0 C -0.9,2.475 -3.601,2.7 -4.726,0.225 -2.7,1.013 -2.025,1.013 0,0 Z" />
    <path
       id="path1070"
       transform="translate(49.9775,35.5249)"
       d="M 0,0 C -0.9,2.475 -3.6,2.7 -4.725,0.225 -2.7,1.013 -2.025,1.013 0,0 Z" />
    <path
       id="path1072"
       transform="translate(38.1279,39.729)"
       d="M 0,0 C 2.024,0.788 2.699,0.788 4.725,-0.225 3.824,2.25 1.125,2.475 0,0 Z" />
    <path
       id="path1074"
       transform="translate(10.3359,39.9165)"
       d="M 0,0 C 2.024,0.788 2.7,0.788 4.725,-0.225 3.825,2.25 1.125,2.475 0,0 Z" />
    <path
       id="path1076"
       transform="translate(18.6484,43.396)"
       d="M 0,0 C 2.024,0.787 2.7,0.787 4.725,-0.225 3.825,2.25 1.125,2.475 0,0 Z" />
    <path
       id="path1078"
       transform="translate(50.3105,43.2334)"
       d="M 0,0 C -0.899,2.475 -3.6,2.7 -4.725,0.225 -2.7,1.012 -2.024,1.012 0,0 Z" />
    <path
       id="path1080"
       transform="translate(45.6855,47.2124)"
       d="M 0,0 C -0.899,2.475 -3.6,2.7 -4.725,0.225 -2.7,1.013 -2.024,1.013 0,0 Z" />
    <path
       id="path1082"
       transform="translate(34.3359,51.2915)"
       d="M 0,0 C 2.024,0.788 2.7,0.788 4.725,-0.225 3.825,2.25 1.125,2.475 0,0 Z" />
    <path
       id="path1084"
       transform="translate(17.2695,47.1499)"
       d="M 0,0 C -0.9,2.475 -3.601,2.7 -4.726,0.225 -2.7,1.013 -2.025,1.013 0,0 Z" />
    <path
       id="path1086"
       transform="translate(6.0859,51.4165)"
       d="M 0,0 C 2.024,0.788 2.7,0.788 4.725,-0.225 3.825,2.25 1.125,2.475 0,0 Z" />
    <path
       id="path1088"
       transform="translate(39.5439,32.0625)"
       d="M 0,0 C 2.025,0.788 2.7,0.788 4.726,-0.225 3.825,2.25 1.125,2.475 0,0 Z" />
    <path
       id="path1090"
       transform="translate(54.126,2.2066)"
       d="M 0,0 C -0.618,0.01 -1.262,0.205 -2.186,0.564 -1.676,-0.558 -0.843,-1.124 0,-1.179" />
    <path
       id="path1092"
       transform="translate(54.126,9.6446)"
       d="M 0,0 C -0.817,-0.136 -1.544,0.054 -2.748,0.522 -2.124,-0.851 -1.017,-1.392 0,-1.181" />
    <path
       id="path1094"
       transform="translate(54.126,17.375)"
       d="M 0,0 C -0.594,0.025 -1.22,0.219 -2.103,0.563 -1.609,-0.522 -0.814,-1.088 0,-1.174" />
    <path
       id="path1096"
       transform="translate(54.126,25.2471)"
       d="M 0,0 C -0.861,-0.17 -1.598,0.015 -2.853,0.503 -2.207,-0.917 -1.045,-1.447 0,-1.176" />
    <path
       id="path1098"
       transform="translate(54.126,32.7295)"
       d="M 0,0 C -0.45,0.085 -0.951,0.254 -1.582,0.499 -1.195,-0.352 -0.622,-0.883 0,-1.114" />
    <path
       id="path1100"
       transform="translate(54.126,40.482)"
       d="M 0,0 C -0.826,-0.143 -1.555,0.046 -2.77,0.518 -2.142,-0.864 -1.023,-1.404 0,-1.181" />
    <path
       id="path1102"
       transform="translate(54.126,48.1802)"
       d="M 0,0 C -0.364,0.095 -0.769,0.237 -1.249,0.424 -0.933,-0.272 -0.491,-0.755 0,-1.034" />
    <path
       id="path1104"
       transform="translate(54.126,50.0899)"
       d="M 0,0 V 0.076" />
    <path
       id="path1106"
       transform="translate(0,42.3863)"
       d="M 0,0 V 0.011" />
    <path
       id="path1108"
       transform="translate(54.126,42.3848)"
       d="M 0,0 V 0.01" />
  </g>
</svg>
