<?xml version="1.0" encoding="UTF-8" standalone="no"?>
<svg
   xmlns:dc="http://purl.org/dc/elements/1.1/"
   xmlns:cc="http://creativecommons.org/ns#"
   xmlns:rdf="http://www.w3.org/1999/02/22-rdf-syntax-ns#"
   xmlns:svg="http://www.w3.org/2000/svg"
   xmlns="http://www.w3.org/2000/svg"
   height="54.125"
   width="54.125"
   id="svg142"
   version="1.1">
  <defs
     id="defs146" />
  <metadata
     id="metadata2">citation: U.S. Geological Survey, 2006, FGDC Digital Cartographic Standard for Geologic Map Symbolization (PostScript Implementation): U.S. Geological Survey Techniques and Methods 11-A2 [pubs.usgs.gov/tm/2006/11A02/]. converted by CEC Geology LLC 2018 from the USGS lithologic gs converted to inkscape by the University of Otago.<rdf:RDF>
  <cc:Work
     rdf:about="">
    <dc:format>image/svg+xml</dc:format>
    <dc:type
       rdf:resource="http://purl.org/dc/dcmitype/StillImage" />
    <dc:title></dc:title>
  </cc:Work>
</rdf:RDF>
</metadata>
  <g
     stroke-width=".3"
     stroke="#231f20"
     fill="none"
     transform="matrix(1,0,0,-1,0,51.125)"
     id="g140"
     width="54.125"
     height="54.125">
    <path
       id="path4"
       transform="translate(0,13.3936)"
       d="M 0,0 H 54.125" />
    <path
       id="path6"
       transform="translate(0,27.5186)"
       d="M 0,0 H 54.125" />
    <path
       id="path8"
       transform="translate(0,37.8936)"
       d="M 0,0 H 54.125" />
    <path
       id="path10"
       transform="translate(1.333,1.5835)"
       d="M 0,0 C 0,0 -0.125,1.375 0.125,2.5 0.375,3.625 0.25,3.75 0,4.5 -0.25,5.25 -0.25,5.5 0,6.125 0.25,6.75 0.125,7 0,7.75 c -0.125,0.75 0,1 0.75,2.5 h -1.875" />
    <path
       id="path12"
       transform="translate(5.5205,1.5835)"
       d="M 0,0 C 0,0 -0.125,1.375 0.125,2.5 0.375,3.625 0.25,3.75 0,4.5 -0.25,5.25 -0.25,5.5 0,6.125 0.25,6.75 0.125,7 0,7.75 c -0.125,0.75 0,1 0.75,2.5 h -1.875" />
    <path
       id="path14"
       transform="translate(9.6455,1.5835)"
       d="M 0,0 C 0,0 -0.125,1.375 0.125,2.5 0.375,3.625 0.25,3.75 0,4.5 -0.25,5.25 -0.25,5.5 0,6.125 0.25,6.75 0.125,7 0,7.75 c -0.125,0.75 0,1 0.75,2.5 h -1.875" />
    <path
       id="path16"
       transform="translate(13.833,1.5835)"
       d="M 0,0 C 0,0 -0.125,1.375 0.125,2.5 0.375,3.625 0.25,3.75 0,4.5 -0.25,5.25 -0.25,5.5 0,6.125 0.25,6.75 0.125,7 0,7.75 c -0.125,0.75 0,1 0.75,2.5 h -1.875" />
    <path
       id="path18"
       transform="translate(17.958,1.5835)"
       d="M 0,0 C 0,0 -0.125,1.375 0.125,2.5 0.375,3.625 0.25,3.75 0,4.5 -0.25,5.25 -0.25,5.5 0,6.125 0.25,6.75 0.125,7 0,7.75 c -0.125,0.75 0,1 0.75,2.5 h -1.875" />
    <path
       id="path20"
       transform="translate(22.1455,1.5835)"
       d="M 0,0 C 0,0 -0.125,1.375 0.125,2.5 0.375,3.625 0.25,3.75 0,4.5 -0.25,5.25 -0.25,5.5 0,6.125 0.25,6.75 0.125,7 0,7.75 c -0.125,0.75 0,1 0.75,2.5 h -1.875" />
    <path
       id="path22"
       transform="translate(26.333,1.5835)"
       d="M 0,0 C 0,0 -0.125,1.375 0.125,2.5 0.375,3.625 0.25,3.75 0,4.5 -0.25,5.25 -0.25,5.5 0,6.125 0.25,6.75 0.125,7 0,7.75 c -0.125,0.75 0,1 0.75,2.5 h -1.875" />
    <path
       id="path24"
       transform="translate(30.458,1.5835)"
       d="M 0,0 C 0,0 -0.125,1.375 0.125,2.5 0.375,3.625 0.25,3.75 0,4.5 -0.25,5.25 -0.25,5.5 0,6.125 0.25,6.75 0.125,7 0,7.75 c -0.125,0.75 0,1 0.75,2.5 h -1.875" />
    <path
       id="path26"
       transform="translate(34.6455,1.5835)"
       d="M 0,0 C 0,0 -0.125,1.375 0.125,2.5 0.375,3.625 0.25,3.75 0,4.5 -0.25,5.25 -0.25,5.5 0,6.125 0.25,6.75 0.125,7 0,7.75 c -0.125,0.75 0,1 0.75,2.5 h -1.875" />
    <path
       id="path28"
       transform="translate(38.7705,1.5835)"
       d="M 0,0 C 0,0 -0.125,1.375 0.125,2.5 0.375,3.625 0.25,3.75 0,4.5 -0.25,5.25 -0.25,5.5 0,6.125 0.25,6.75 0.125,7 0,7.75 c -0.125,0.75 0,1 0.75,2.5 h -1.875" />
    <path
       id="path30"
       transform="translate(42.958,1.5835)"
       d="M 0,0 C 0,0 -0.125,1.375 0.125,2.5 0.375,3.625 0.25,3.75 0,4.5 -0.25,5.25 -0.25,5.5 0,6.125 0.25,6.75 0.125,7 0,7.75 c -0.125,0.75 0,1 0.75,2.5 h -1.875" />
    <path
       id="path32"
       transform="translate(47.0205,1.5835)"
       d="M 0,0 C 0,0 -0.125,1.375 0.125,2.5 0.375,3.625 0.25,3.75 0,4.5 -0.25,5.25 -0.25,5.5 0,6.125 0.25,6.75 0.125,7 0,7.75 c -0.125,0.75 0,1 0.75,2.5 h -1.875" />
    <path
       id="path34"
       transform="translate(51.208,1.5835)"
       d="M 0,0 C 0,0 -0.125,1.375 0.125,2.5 0.375,3.625 0.25,3.75 0,4.5 -0.25,5.25 -0.25,5.5 0,6.125 0.25,6.75 0.125,7 0,7.75 c -0.125,0.75 0,1 0.75,2.5 h -1.875" />
    <path
       id="path36"
       transform="translate(1.208,19.4585)"
       d="M 0,0 C 0.125,0.5 0.125,1.125 -0.125,1.75 -0.375,2.375 -0.375,2.875 0,3.625 0.375,4.375 0.25,4.375 0.125,5.125 0,5.875 0,5.625 0.5,6.602 h -1.625" />
    <path
       id="path38"
       transform="translate(4.583,19.4585)"
       d="M 0,0 C 0.125,0.5 0.125,1.125 -0.125,1.75 -0.375,2.375 -0.375,2.875 0,3.625 0.375,4.375 0.25,4.375 0.125,5.125 0,5.875 0,5.625 0.5,6.602 h -1.625" />
    <path
       id="path40"
       transform="translate(7.958,19.4585)"
       d="M 0,0 C 0.125,0.5 0.125,1.125 -0.125,1.75 -0.375,2.375 -0.375,2.875 0,3.625 0.375,4.375 0.25,4.375 0.125,5.125 0,5.875 0,5.625 0.5,6.602 h -1.625" />
    <path
       id="path42"
       transform="translate(11.3955,19.4585)"
       d="M 0,0 C 0.125,0.5 0.125,1.125 -0.125,1.75 -0.375,2.375 -0.375,2.875 0,3.625 0.375,4.375 0.25,4.375 0.125,5.125 0,5.875 0,5.625 0.5,6.602 h -1.625" />
    <path
       id="path44"
       transform="translate(14.7705,19.4585)"
       d="M 0,0 C 0.125,0.5 0.125,1.125 -0.125,1.75 -0.375,2.375 -0.375,2.875 0,3.625 0.375,4.375 0.25,4.375 0.125,5.125 0,5.875 0,5.625 0.5,6.602 h -1.625" />
    <path
       id="path46"
       transform="translate(18.1455,19.4585)"
       d="M 0,0 C 0.125,0.5 0.125,1.125 -0.125,1.75 -0.375,2.375 -0.375,2.875 0,3.625 0.375,4.375 0.25,4.375 0.125,5.125 0,5.875 0,5.625 0.5,6.602 h -1.625" />
    <path
       id="path48"
       transform="translate(21.583,19.4585)"
       d="M 0,0 C 0.125,0.5 0.125,1.125 -0.125,1.75 -0.375,2.375 -0.375,2.875 0,3.625 0.375,4.375 0.25,4.375 0.125,5.125 0,5.875 0,5.625 0.5,6.602 h -1.625" />
    <path
       id="path50"
       transform="translate(24.958,19.4585)"
       d="M 0,0 C 0.125,0.5 0.125,1.125 -0.125,1.75 -0.375,2.375 -0.375,2.875 0,3.625 0.375,4.375 0.25,4.375 0.125,5.125 0,5.875 0,5.625 0.5,6.602 h -1.625" />
    <path
       id="path52"
       transform="translate(28.2705,19.4585)"
       d="M 0,0 C 0.125,0.5 0.125,1.125 -0.125,1.75 -0.375,2.375 -0.375,2.875 0,3.625 0.375,4.375 0.25,4.375 0.125,5.125 0,5.875 0,5.625 0.5,6.602 h -1.625" />
    <path
       id="path54"
       transform="translate(31.708,19.4585)"
       d="M 0,0 C 0.125,0.5 0.125,1.125 -0.125,1.75 -0.375,2.375 -0.375,2.875 0,3.625 0.375,4.375 0.25,4.375 0.125,5.125 0,5.875 0,5.625 0.5,6.602 h -1.625" />
    <path
       id="path56"
       transform="translate(35.083,19.4585)"
       d="M 0,0 C 0.125,0.5 0.125,1.125 -0.125,1.75 -0.375,2.375 -0.375,2.875 0,3.625 0.375,4.375 0.25,4.375 0.125,5.125 0,5.875 0,5.625 0.5,6.602 h -1.625" />
    <path
       id="path58"
       transform="translate(38.458,19.4585)"
       d="M 0,0 C 0.125,0.5 0.125,1.125 -0.125,1.75 -0.375,2.375 -0.375,2.875 0,3.625 0.375,4.375 0.25,4.375 0.125,5.125 0,5.875 0,5.625 0.5,6.602 h -1.625" />
    <path
       id="path60"
       transform="translate(41.833,19.4585)"
       d="M 0,0 C 0.125,0.5 0.125,1.125 -0.125,1.75 -0.375,2.375 -0.375,2.875 0,3.625 0.375,4.375 0.25,4.375 0.125,5.125 0,5.875 0,5.625 0.5,6.602 h -1.625" />
    <path
       id="path62"
       transform="translate(45.208,19.4585)"
       d="M 0,0 C 0.125,0.5 0.125,1.125 -0.125,1.75 -0.375,2.375 -0.375,2.875 0,3.625 0.375,4.375 0.25,4.375 0.125,5.125 0,5.875 0,5.625 0.5,6.602 h -1.625" />
    <path
       id="path64"
       transform="translate(48.6455,19.4585)"
       d="M 0,0 C 0.125,0.5 0.125,1.125 -0.125,1.75 -0.375,2.375 -0.375,2.875 0,3.625 0.375,4.375 0.25,4.375 0.125,5.125 0,5.875 0,5.625 0.5,6.602 h -1.625" />
    <path
       id="path66"
       transform="translate(51.958,19.4585)"
       d="M 0,0 C 0.125,0.5 0.125,1.125 -0.125,1.75 -0.375,2.375 -0.375,2.875 0,3.625 0.375,4.375 0.25,4.375 0.125,5.125 0,5.875 0,5.625 0.5,6.602 h -1.625" />
    <path
       id="path68"
       transform="translate(0,50.8936)"
       d="M 0,0 H 54.125" />
    <path
       id="path70"
       transform="translate(1.208,42.8335)"
       d="M 0,0 C 0.125,0.5 0.579,1.125 0.329,1.75 0.079,2.375 -0.375,2.875 0,3.625 0.375,4.375 0.137,4.375 0.012,5.125 -0.113,5.875 0,5.625 0.5,6.602 h -1.625" />
    <path
       id="path72"
       transform="translate(4.583,42.8335)"
       d="M 0,0 C 0.125,0.5 0.579,1.125 0.329,1.75 0.079,2.375 -0.375,2.875 0,3.625 0.375,4.375 0.137,4.375 0.012,5.125 -0.113,5.875 0,5.625 0.5,6.602 h -1.625" />
    <path
       id="path74"
       transform="translate(7.958,42.8335)"
       d="M 0,0 C 0.125,0.5 0.579,1.125 0.329,1.75 0.079,2.375 -0.375,2.875 0,3.625 0.375,4.375 0.137,4.375 0.012,5.125 -0.113,5.875 0,5.625 0.5,6.602 h -1.625" />
    <path
       id="path76"
       transform="translate(11.3955,42.8335)"
       d="M 0,0 C 0.125,0.5 0.579,1.125 0.329,1.75 0.079,2.375 -0.375,2.875 0,3.625 0.375,4.375 0.137,4.375 0.012,5.125 -0.113,5.875 0,5.625 0.5,6.602 h -1.625" />
    <path
       id="path78"
       transform="translate(14.7705,42.8335)"
       d="M 0,0 C 0.125,0.5 0.579,1.125 0.329,1.75 0.079,2.375 -0.375,2.875 0,3.625 0.375,4.375 0.137,4.375 0.012,5.125 -0.113,5.875 0,5.625 0.5,6.602 h -1.625" />
    <path
       id="path80"
       transform="translate(18.1455,42.8335)"
       d="M 0,0 C 0.125,0.5 0.579,1.125 0.329,1.75 0.079,2.375 -0.375,2.875 0,3.625 0.375,4.375 0.137,4.375 0.012,5.125 -0.113,5.875 0,5.625 0.5,6.602 h -1.625" />
    <path
       id="path82"
       transform="translate(21.583,42.8335)"
       d="M 0,0 C 0.125,0.5 0.579,1.125 0.329,1.75 0.079,2.375 -0.375,2.875 0,3.625 0.375,4.375 0.137,4.375 0.012,5.125 -0.113,5.875 0,5.625 0.5,6.602 h -1.625" />
    <path
       id="path84"
       transform="translate(24.958,42.8335)"
       d="M 0,0 C 0.125,0.5 0.579,1.125 0.329,1.75 0.079,2.375 -0.375,2.875 0,3.625 0.375,4.375 0.137,4.375 0.012,5.125 -0.113,5.875 0,5.625 0.5,6.602 h -1.625" />
    <path
       id="path86"
       transform="translate(28.2705,42.8335)"
       d="M 0,0 C 0.125,0.5 0.579,1.125 0.329,1.75 0.079,2.375 -0.375,2.875 0,3.625 0.375,4.375 0.137,4.375 0.012,5.125 -0.113,5.875 0,5.625 0.5,6.602 h -1.625" />
    <path
       id="path88"
       transform="translate(31.708,42.8335)"
       d="M 0,0 C 0.125,0.5 0.579,1.125 0.329,1.75 0.079,2.375 -0.375,2.875 0,3.625 0.375,4.375 0.137,4.375 0.012,5.125 -0.113,5.875 0,5.625 0.5,6.602 h -1.625" />
    <path
       id="path90"
       transform="translate(35.083,42.8335)"
       d="M 0,0 C 0.125,0.5 0.579,1.125 0.329,1.75 0.079,2.375 -0.375,2.875 0,3.625 0.375,4.375 0.137,4.375 0.012,5.125 -0.113,5.875 0,5.625 0.5,6.602 h -1.625" />
    <path
       id="path92"
       transform="translate(38.458,42.8335)"
       d="M 0,0 C 0.125,0.5 0.579,1.125 0.329,1.75 0.079,2.375 -0.375,2.875 0,3.625 0.375,4.375 0.137,4.375 0.012,5.125 -0.113,5.875 0,5.625 0.5,6.602 h -1.625" />
    <path
       id="path94"
       transform="translate(41.833,42.8335)"
       d="M 0,0 C 0.125,0.5 0.579,1.125 0.329,1.75 0.079,2.375 -0.375,2.875 0,3.625 0.375,4.375 0.137,4.375 0.012,5.125 -0.113,5.875 0,5.625 0.5,6.602 h -1.625" />
    <path
       id="path96"
       transform="translate(45.208,42.8335)"
       d="M 0,0 C 0.125,0.5 0.579,1.125 0.329,1.75 0.079,2.375 -0.375,2.875 0,3.625 0.375,4.375 0.137,4.375 0.012,5.125 -0.113,5.875 0,5.625 0.5,6.602 h -1.625" />
    <path
       id="path98"
       transform="translate(48.6455,42.8335)"
       d="M 0,0 C 0.125,0.5 0.579,1.125 0.329,1.75 0.079,2.375 -0.375,2.875 0,3.625 0.375,4.375 0.137,4.375 0.012,5.125 -0.113,5.875 0,5.625 0.5,6.602 h -1.625" />
    <path
       id="path100"
       transform="translate(51.958,42.8335)"
       d="M 0,0 C 0.125,0.5 0.579,1.125 0.329,1.75 0.079,2.375 -0.375,2.875 0,3.625 0.375,4.375 0.137,4.375 0.012,5.125 -0.113,5.875 0,5.625 0.5,6.602 h -1.625" />
    <path
       id="path102"
       transform="translate(0.958,33.9165)"
       d="M 0,0 C 0,0.375 0,0.875 0.125,1.5 0.25,2.125 0.125,2 0.5,2.875 h -1.25" />
    <path
       id="path104"
       transform="translate(3.7705,33.9165)"
       d="M 0,0 C 0,0.375 0,0.875 0.125,1.5 0.25,2.125 0.125,2 0.5,2.875 h -1.25" />
    <path
       id="path106"
       transform="translate(6.6455,33.9165)"
       d="M 0,0 C 0,0.375 0,0.875 0.125,1.5 0.25,2.125 0.125,2 0.5,2.875 h -1.25" />
    <path
       id="path108"
       transform="translate(9.458,33.9165)"
       d="M 0,0 C 0,0.375 0,0.875 0.125,1.5 0.25,2.125 0.125,2 0.5,2.875 h -1.25" />
    <path
       id="path110"
       transform="translate(12.3955,33.9165)"
       d="M 0,0 C 0,0.375 0,0.875 0.125,1.5 0.25,2.125 0.125,2 0.5,2.875 h -1.25" />
    <path
       id="path112"
       transform="translate(15.208,33.9165)"
       d="M 0,0 C 0,0.375 0,0.875 0.125,1.5 0.25,2.125 0.125,2 0.5,2.875 h -1.25" />
    <path
       id="path114"
       transform="translate(18.083,33.9165)"
       d="M 0,0 C 0,0.375 0,0.875 0.125,1.5 0.25,2.125 0.125,2 0.5,2.875 h -1.25" />
    <path
       id="path116"
       transform="translate(20.8955,33.9165)"
       d="M 0,0 C 0,0.375 0,0.875 0.125,1.5 0.25,2.125 0.125,2 0.5,2.875 h -1.25" />
    <path
       id="path118"
       transform="translate(23.7705,33.9165)"
       d="M 0,0 C 0,0.375 0,0.875 0.125,1.5 0.25,2.125 0.125,2 0.5,2.875 h -1.25" />
    <path
       id="path120"
       transform="translate(26.583,33.9165)"
       d="M 0,0 C 0,0.375 0,0.875 0.125,1.5 0.25,2.125 0.125,2 0.5,2.875 h -1.25" />
    <path
       id="path122"
       transform="translate(29.458,33.9165)"
       d="M 0,0 C 0,0.375 0,0.875 0.125,1.5 0.25,2.125 0.125,2 0.5,2.875 h -1.25" />
    <path
       id="path124"
       transform="translate(32.2705,33.9165)"
       d="M 0,0 C 0,0.375 0,0.875 0.125,1.5 0.25,2.125 0.125,2 0.5,2.875 h -1.25" />
    <path
       id="path126"
       transform="translate(35.1455,33.9165)"
       d="M 0,0 C 0,0.375 0,0.875 0.125,1.5 0.25,2.125 0.125,2 0.5,2.875 h -1.25" />
    <path
       id="path128"
       transform="translate(38.0205,33.9165)"
       d="M 0,0 C 0,0.375 0,0.875 0.125,1.5 0.25,2.125 0.125,2 0.5,2.875 h -1.25" />
    <path
       id="path130"
       transform="translate(40.833,33.9165)"
       d="M 0,0 C 0,0.375 0,0.875 0.125,1.5 0.25,2.125 0.125,2 0.5,2.875 h -1.25" />
    <path
       id="path132"
       transform="translate(43.708,33.9165)"
       d="M 0,0 C 0,0.375 0,0.875 0.125,1.5 0.25,2.125 0.125,2 0.5,2.875 h -1.25" />
    <path
       id="path134"
       transform="translate(46.5205,33.9165)"
       d="M 0,0 C 0,0.375 0,0.875 0.125,1.5 0.25,2.125 0.125,2 0.5,2.875 h -1.25" />
    <path
       id="path136"
       transform="translate(49.3955,33.9165)"
       d="M 0,0 C 0,0.375 0,0.875 0.125,1.5 0.25,2.125 0.125,2 0.5,2.875 h -1.25" />
    <path
       id="path138"
       transform="translate(52.208,33.9165)"
       d="M 0,0 C 0,0.375 0,0.875 0.125,1.5 0.25,2.125 0.125,2 0.5,2.875 h -1.25" />
  </g>
</svg>
