<?xml version="1.0" encoding="UTF-8" standalone="no"?>
<svg
   xmlns:dc="http://purl.org/dc/elements/1.1/"
   xmlns:cc="http://creativecommons.org/ns#"
   xmlns:rdf="http://www.w3.org/1999/02/22-rdf-syntax-ns#"
   xmlns:svg="http://www.w3.org/2000/svg"
   xmlns="http://www.w3.org/2000/svg"
   height="54.125"
   width="54.125"
   id="svg474"
   version="1.1">
  <defs
     id="defs478" />
  <metadata
     id="metadata2">citation: U.S. Geological Survey, 2006, FGDC Digital Cartographic Standard for Geologic Map Symbolization (PostScript Implementation): U.S. Geological Survey Techniques and Methods 11-A2 [pubs.usgs.gov/tm/2006/11A02/]. converted by CEC Geology LLC 2018 from the USGS lithologic gs converted to inkscape by the University of Otago.<rdf:RDF>
  <cc:Work
     rdf:about="">
    <dc:format>image/svg+xml</dc:format>
    <dc:type
       rdf:resource="http://purl.org/dc/dcmitype/StillImage" />
    <dc:title></dc:title>
  </cc:Work>
</rdf:RDF>
</metadata>
  <g

     stroke="#231f20"
     fill="none"

     transform="matrix(1,0,0,-1,0,54)"
     id="g472"
     width="54"
     height="54">
    <g
       style="stroke-width:0.3"
       id="g398">
      <path
         id="path4"
         transform="translate(38.3301,47.2714)"
         d="M 0,0 C -3.167,-1.016 -6.389,-1.959 -9.553,-2.815" />
      <path
         id="path6"
         transform="translate(22.039,42.7353)"
         d="M 0,0 C 2.187,0.524 4.447,1.1 6.738,1.721" />
      <path
         id="path8"
         transform="translate(46.8935,50.2617)"
         d="M 0,0 C 2.504,0.958 4.895,1.957 7.106,2.988" />
      <path
         id="path10"
         transform="translate(46.8935,50.2617)"
         d="M 0,0 C -2.748,-1.051 -5.633,-2.052 -8.563,-2.99" />
      <path
         id="path12"
         transform="translate(5.167,39.5)"
         d="M 0,0 C 4.093,0.487 10.134,1.62 16.872,3.235" />
      <path
         id="path14"
         transform="translate(0,53.25)"
         d="M 0,0 1.607,0.75" />
      <path
         id="path16"
         transform="translate(1.7178)"
         d="M 0,0 1.955,0.912" />
      <path
         id="path18"
         transform="translate(3.75,0.9482)"
         d="M 0,0 -0.077,-0.036" />
      <path
         id="path20"
         transform="translate(32.5097,3.2461)"
         d="M 0,0 C 4.426,-1.295 9.135,-2.425 14.085,-3.246" />
      <path
         id="path22"
         transform="translate(4.4902,14.0976)"
         d="M 0,0 C -0.052,0.023 -0.105,0.046 -0.156,0.068" />
      <path
         id="path24"
         transform="translate(19.7373,7.625)"
         d="M 0,0 C -5.945,2.314 -11.083,4.66 -15.247,6.473" />
      <path
         id="path26"
         transform="translate(19.7373,7.625)"
         d="M 0,0 C 3.922,-1.527 8.195,-3.041 12.772,-4.379" />
      <path
         id="path28"
         transform="translate(22.0078,16.9961)"
         d="M 0,0 C -1.496,-0.317 -2.999,-0.62 -4.501,-0.906" />
      <path
         id="path30"
         transform="translate(0,13.6972)"
         d="M 0,0 C 1.464,0.099 2.964,0.234 4.49,0.4" />
      <path
         id="path32"
         transform="translate(31.1699,19.1093)"
         d="M 0,0 C -2.98,-0.741 -6.057,-1.456 -9.162,-2.113" />
      <path
         id="path34"
         transform="translate(46.1806,23.2588)"
         d="M 0,0 C -4.4,-1.341 -9.544,-2.789 -15.011,-4.15" />
      <path
         id="path36"
         transform="translate(17.5068,16.0898)"
         d="M 0,0 C -4.412,-0.84 -8.814,-1.534 -13.017,-1.992" />
      <path
         id="path38"
         transform="translate(46.1806,23.2588)"
         d="M 0,0 C 2.994,0.913 5.645,1.776 7.819,2.529" />
      <path
         id="path40"
         transform="translate(54,41.2002)"
         d="M 0,0 C -0.443,0.156 -0.881,0.312 -1.311,0.466" />
      <path
         id="path42"
         transform="translate(38.1875,47.333)"
         d="M 0,0 C 0.047,-0.021 0.095,-0.041 0.143,-0.062" />
      <path
         id="path44"
         transform="translate(52.6885,41.666)"
         d="M 0,0 C -6.389,2.287 -11.398,4.322 -14.358,5.605" />
      <path
         id="path46"
         transform="translate(48.4902,13.498)"
         d="M 0,0 C 1.762,-0.001 3.605,0.068 5.51,0.197" />
      <path
         id="path48"
         transform="translate(37.9707,13.8183)"
         d="M 0,0 C -4.135,0.297 -11.548,1.04 -15.963,3.178" />
      <path
         id="path50"
         transform="translate(22,17)"
         d="M 0,0 C 0.003,-0.001 0.005,-0.003 0.008,-0.004" />
      <path
         id="path52"
         transform="translate(48.4902,13.498)"
         d="m 0,0 c -0.157,0 -0.314,0.001 -0.469,0.002 0,0 -5.021,0 -7.687,0.166 -0.527,0.033 -1.346,0.079 -2.364,0.152" />
      <path
         id="path54"
         transform="translate(48.3701,28.8896)"
         d="M 0,0 C 1.877,-0.263 3.755,-0.494 5.63,-0.69" />
      <path
         id="path56"
         transform="translate(19.7666,34.9677)"
         d="M 0,0 C 8.946,-2.474 18.75,-4.701 28.604,-6.078" />
      <path
         id="path58"
         transform="translate(19.7666,34.9677)"
         d="M 0,0 C -7.308,2.021 -14.043,4.205 -19.767,6.225" />
      <path
         id="path60"
         transform="translate(0,41.792)"
         d="M 0,0 C 10.037,0.982 33.116,3.918 46.167,8.374" />
      <path
         id="path62"
         transform="translate(0,46.1279)"
         d="M 0,0 C 13.564,0.652 35.088,2.331 49.21,7.437" />
      <path
         id="path64"
         transform="translate(0,50.207)"
         d="M 0,0 C 12.498,0.097 30.292,1.107 42.731,3.793" />
      <path
         id="path66"
         transform="translate(44.5039,0.3613)"
         d="M 0,0 C -0.517,-0.124 -1.044,-0.244 -1.581,-0.361" />
      <path
         id="path68"
         transform="translate(38.3799,1.5898)"
         d="M 0,0 C -11.549,-1.285 -24.433,-1.188 -34.707,-0.678" />
      <path
         id="path70"
         transform="translate(3.6728,0.9121)"
         d="M 0,0 C -1.267,0.063 -2.493,0.132 -3.673,0.206" />
      <path
         id="path72"
         transform="translate(15.167,41.166)"
         d="M 0,0 C 1.044,-0.461 2.105,-0.905 3.177,-1.332" />
      <path
         id="path74"
         transform="translate(39.4687,33.6826)"
         d="M 0,0 C 4.901,-1.005 9.8,-1.767 14.531,-2.326" />
      <path
         id="path76"
         transform="translate(18.3437,39.8339)"
         d="M 0,0 C 6.702,-2.667 13.917,-4.673 21.125,-6.151" />
      <path
         id="path78"
         transform="translate(22.039,42.7353)"
         d="M 0,0 C 0.858,-0.404 1.893,-0.833 3.076,-1.276" />
      <path
         id="path80"
         transform="translate(22.039,42.7353)"
         d="M 0,0 C -0.069,0.033 -0.138,0.065 -0.205,0.098" />
      <path
         id="path82"
         transform="translate(25.1152,41.4589)"
         d="M 0,0 C 6.585,-2.466 17.777,-5.386 28.885,-7.177" />
      <path
         id="path84"
         transform="translate(31.8857,43.2021)"
         d="M 0,0 C 2.669,-1.071 5.935,-2.348 9.605,-3.584" />
      <path
         id="path86"
         transform="translate(28.7773,44.456)"
         d="M 0,0 C -0.037,0.015 -0.074,0.029 -0.11,0.044" />
      <path
         id="path88"
         transform="translate(54,36.1777)"
         d="M 0,0 C -4.461,0.92 -8.703,2.158 -12.51,3.44" />
      <path
         id="path90"
         transform="translate(31.8857,43.2021)"
         d="M 0,0 C -1.152,0.463 -2.194,0.887 -3.108,1.254" />
      <path
         id="path92"
         transform="translate(34.334,46)"
         d="M 0,0 C 7.445,-3.005 10.898,-5.19 19.666,-6.717" />
      <path
         id="path94"
         transform="translate(26.0107,33.2588)"
         d="M 0,0 C -6.455,-1.261 -16.202,-0.555 -26.011,1.029" />
      <path
         id="path96"
         transform="translate(0,36.1865)"
         d="M 0,0 C 0.163,-0.033 0.326,-0.067 0.49,-0.1" />
      <path
         id="path98"
         transform="translate(19.7666,34.9677)"
         d="M 0,0 C 0.092,0.011 0.184,0.021 0.275,0.032" />
      <path
         id="path100"
         transform="translate(7.8232,34.9677)"
         d="M 0,0 C 3.955,-0.4 7.98,-0.457 11.943,0" />
      <path
         id="path102"
         transform="translate(7.8232,34.9677)"
         d="M 0,0 C -2.483,0.251 -4.938,0.638 -7.333,1.119" />
      <path
         id="path104"
         transform="translate(8.709,38.166)"
         d="M 0,0 C -3.215,0.305 -5.9,0.65 -8.219,1.04" />
      <path
         id="path106"
         transform="translate(0,39.29)"
         d="M 0,0 C 0.161,-0.028 0.325,-0.056 0.49,-0.084" />
      <path
         id="path108"
         transform="translate(52.6885,41.666)"
         d="M 0,0 H -0.001" />
      <path
         id="path110"
         transform="translate(54,41.79)"
         d="M 0,0 C -0.466,-0.045 -0.904,-0.087 -1.311,-0.124" />
      <path
         id="path112"
         transform="translate(54,46.1269)"
         d="M 0,0 C -5.79,-0.278 -10.127,-0.37 -11.813,-0.461" />
      <path
         id="path114"
         transform="translate(46.8935,50.2617)"
         d="M 0,0 C 2.064,-0.055 4.468,-0.075 7.106,-0.055" />
      <path
         id="path116"
         transform="translate(46.8935,50.2617)"
         d="M 0,0 C -0.024,0.001 -0.048,0.001 -0.071,0.002" />
      <path
         id="path118"
         transform="translate(5.2138,27.7851)"
         d="M 0,0 C -1.562,0.087 -3.113,0.189 -4.646,0.307" />
      <path
         id="path120"
         transform="translate(15.0527,27.4648)"
         d="M 0,0 C 10.313,-0.095 20.124,0.617 26.518,2.448" />
      <path
         id="path122"
         transform="translate(0,28.1367)"
         d="M 0,0 C 0.189,-0.016 0.379,-0.03 0.568,-0.045" />
      <path
         id="path124"
         transform="translate(5.2138,27.7851)"
         d="M 0,0 C 3.269,-0.181 6.579,-0.291 9.839,-0.32" />
      <path
         id="path126"
         transform="translate(20.9277,23.7734)"
         d="M 0,0 C -6.978,-0.58 -14.186,-0.811 -20.928,-0.74" />
      <path
         id="path128"
         transform="translate(48.3701,28.8896)"
         d="M 0,0 C -7.076,-2.597 -17.001,-4.248 -27.442,-5.116" />
      <path
         id="path130"
         transform="translate(48.3701,28.8896)"
         d="M 0,0 C 0.007,0.002 0.014,0.004 0.02,0.007" />
      <path
         id="path132"
         transform="translate(0,17.7099)"
         d="M 0,0 C 21.369,1.635 46.96,8.085 54,10.109" />
      <path
         id="path134"
         transform="translate(46.1806,23.2588)"
         d="M 0,0 C -0.02,0.001 -0.038,0.002 -0.058,0.003" />
      <path
         id="path136"
         transform="translate(46.1806,23.2588)"
         d="M 0,0 C 2.502,-0.121 5.123,-0.197 7.819,-0.226" />
      <path
         id="path138"
         transform="translate(31.1699,19.1093)"
         d="M 0,0 C -0.015,0.005 -0.03,0.011 -0.045,0.016" />
      <path
         id="path140"
         transform="translate(31.1699,19.1093)"
         d="m 0,0 c 2.691,-0.926 7.092,-1.298 9.268,-1.484 2.187,-0.188 5.062,-0.292 5.062,-0.292 2.715,0.018 5.567,0.153 8.5,0.377" />
      <path
         id="path142"
         transform="translate(32.5097,3.2461)"
         d="M 0,0 C -7.217,-0.266 -19.537,-0.204 -32.51,1.239" />
      <path
         id="path144"
         transform="translate(32.5097,3.2461)"
         d="M 0,0 C 0.038,0.001 0.077,0.003 0.115,0.004" />
      <path
         id="path146"
         transform="translate(15.6728,5.6806)"
         d="M 0,0 C -4.158,0.109 -9.24,0.525 -15.673,1.552" />
      <path
         id="path148"
         transform="translate(24.375,5.875)"
         d="M 0,0 C -2.427,-0.162 -5.245,-0.284 -8.702,-0.194" />
      <path
         id="path150"
         transform="translate(2.8398,9.0898)"
         d="M 0,0 C -0.929,0.151 -1.877,0.316 -2.84,0.495" />
      <path
         id="path152"
         transform="translate(19.7373,7.625)"
         d="M 0,0 C -3.059,-0.077 -9.344,0.237 -16.898,1.465" />
      <path
         id="path154"
         transform="translate(19.7373,7.625)"
         d="M 0,0 H 0.013" />
      <path
         id="path156"
         transform="translate(15.375,9.375)"
         d="M 0,0 C -4.168,0 -7.996,0.454 -15.375,3.632" />
      <path
         id="path158"
         transform="translate(17.5068,13.1425)"
         d="M 0,0 C -1.56,0.647 -3.115,1.35 -4.632,2.107" />
      <path
         id="path160"
         transform="translate(17.5068,13.1425)"
         d="m 0,0 c 10.528,-4.371 21.243,-6.268 21.243,-6.268 5.006,-1.05 10.178,-1.826 15.25,-2.39" />
      <path
         id="path162"
         transform="translate(20.125,16.5)"
         d="M 0,0 C 4.875,-2.375 17.25,-5.875 17.25,-5.875 23.643,-7.419 29.127,-8.51 33.875,-9.268" />
      <path
         id="path164"
         transform="translate(37.9707,13.8183)"
         d="M 0,0 -0.085,0.027" />
      <path
         id="path166"
         transform="translate(37.9707,13.8183)"
         d="m 0,0 4.404,-1.443 c 3.967,-1.187 7.911,-2.098 11.625,-2.79" />
      <path
         id="path168"
         transform="translate(52.875,13.5)"
         d="M 0,0 C 0.384,-0.171 0.759,-0.336 1.125,-0.493" />
      <path
         id="path170"
         transform="translate(39.5312,2.7607)"
         d="m 0,0 c 1.661,-0.351 2.469,-0.511 2.469,-0.511 l 0.334,-0.125 c 2.555,-0.303 6.25,-0.652 10.666,-0.943" />
      <path
         id="path172"
         transform="translate(39.5312,2.7607)"
         d="M 0,0 C -2.867,0.605 -8.277,1.777 -16.469,3.677" />
      <path
         id="path174"
         transform="translate(53,1.1816)"
         d="M 0,0 C 0.329,-0.021 0.663,-0.043 1,-0.063" />
      <path
         id="path176"
         transform="translate(36.167,31)"
         d="M 0,0 C -5.768,-1.117 -19.995,-1.559 -36.167,0.356" />
      <path
         id="path178"
         transform="translate(0,27.8193)"
         d="M 0,0 C 0.069,0.02 0.138,0.039 0.204,0.059 L 0.568,0.272" />
      <path
         id="path180"
         transform="translate(0.625,28.125)"
         d="M 0,0 -0.057,-0.033" />
      <path
         id="path182"
         transform="translate(5.2138,27.7851)"
         d="m 0,0 -0.214,-0.119 c -1.09,-0.471 -2.802,-1.118 -5,-1.878" />
      <path
         id="path184"
         transform="translate(5.2138,27.7851)"
         d="M 0,0 0.161,0.09" />
      <path
         id="path186"
         transform="translate(46.5957,54)"
         d="M 0,0 C 2.288,-0.38 4.628,-0.693 7.015,-0.926" />
      <path
         id="path188"
         transform="translate(11.834,48.833)"
         d="M 0,0 C 0,0.917 -3,0.888 -3,-0.167 -3,-1 0,-1.087 0,0 Z" />
      <path
         id="path190"
         transform="translate(29.7138,37.9267)"
         d="M 0,0 C -0.281,-0.784 2.513,-1.88 2.88,-0.856 3.189,0.006 0.356,0.992 0,0 Z" />
      <path
         id="path192"
         transform="translate(7.0556,25.3662)"
         d="M 0,0 C -0.016,-0.833 2.982,-0.974 3.002,0.112 3.019,1.029 0.019,1.055 0,0 Z" />
      <path
         id="path194"
         transform="translate(33.6426,16.2822)"
         d="M 0,0 C -0.164,-0.816 2.76,-1.492 2.974,-0.428 3.154,0.472 0.207,1.033 0,0 Z" />
      <path
         id="path196"
         transform="translate(26.0176,7.8037)"
         d="M 0,0 C -0.164,-0.817 2.76,-1.493 2.974,-0.428 3.154,0.471 0.207,1.033 0,0 Z" />
      <path
         id="path198"
         transform="translate(48.5332,6.7714)"
         d="M 0,0 C 0.181,0.899 -2.767,1.461 -2.975,0.428 -3.139,-0.39 -0.214,-1.065 0,0 Z" />
      <path
         id="path200"
         transform="translate(0.4424,20.375)"
         d="M 0,0 C 0.056,-0.831 3.055,-0.715 2.981,0.369 2.92,1.283 -0.071,1.052 0,0 Z" />
      <path
         id="path202"
         transform="translate(44.8388,31.3642)"
         d="M 0,0 C -0.281,-0.784 2.513,-1.88 2.88,-0.856 3.189,0.006 0.356,0.992 0,0 Z" />
      <path
         id="path204"
         transform="translate(42.2627,50.375)"
         d="M 0,0 C 0,-0.5 1.8,-0.553 1.8,0.1 1.8,0.649 0,0.632 0,0 Z" />
      <path
         id="path206"
         transform="translate(32.9375,50.7246)"
         d="M 0,0 C 0,0.55 -1.8,0.532 -1.8,-0.1 -1.8,-0.6 0,-0.652 0,0 Z" />
      <path
         id="path208"
         transform="translate(53,47.833)"
         d="M 0,0 C 0,0.55 -1.8,0.532 -1.8,-0.101 -1.8,-0.601 0,-0.652 0,0 Z" />
      <path
         id="path210"
         transform="translate(6.625,41.125)"
         d="M 0,0 C 0,0.55 -1.8,0.532 -1.8,-0.101 -1.8,-0.601 0,-0.652 0,0 Z" />
      <path
         id="path212"
         transform="translate(24.75,19)"
         d="M 0,0 C 0,0.55 -1.8,0.532 -1.8,-0.101 -1.8,-0.601 0,-0.652 0,0 Z" />
      <path
         id="path214"
         transform="translate(40.8662,44.6445)"
         d="M 0,0 C 0.254,0.488 -1.351,1.304 -1.643,0.743 -1.874,0.3 -0.301,-0.578 0,0 Z" />
      <path
         id="path216"
         transform="translate(4.5342,16.289)"
         d="M 0,0 C -0.044,-0.498 1.744,-0.708 1.802,-0.059 1.85,0.489 0.056,0.63 0,0 Z" />
      <path
         id="path218"
         transform="translate(2.8359,10.7304)"
         d="M 0,0 C 0.048,0.548 -1.746,0.688 -1.802,0.059 -1.846,-0.439 -0.058,-0.649 0,0 Z" />
      <path
         id="path220"
         transform="translate(16.5,21.5)"
         d="M 0,0 C 0.049,0.548 -1.746,0.688 -1.802,0.059 -1.846,-0.439 -0.057,-0.649 0,0 Z" />
      <path
         id="path222"
         transform="translate(6.5859,5.2089)"
         d="M 0,0 C 0.048,0.548 -1.746,0.69 -1.802,0.06 -1.846,-0.438 -0.058,-0.649 0,0 Z" />
      <path
         id="path224"
         transform="translate(17.8652,2.0586)"
         d="M 0,0 C -0.044,-0.498 1.744,-0.708 1.802,-0.059 1.851,0.489 0.056,0.63 0,0 Z" />
      <path
         id="path226"
         transform="translate(20,31.333)"
         d="M 0,0 C 0.049,0.548 -1.746,0.688 -1.802,0.059 -1.846,-0.439 -0.057,-0.649 0,0 Z" />
      <path
         id="path228"
         transform="translate(35.125,33.125)"
         d="M 0,0 C 0.049,0.548 -1.746,0.688 -1.802,0.059 -1.846,-0.439 -0.057,-0.649 0,0 Z" />
      <path
         id="path230"
         transform="translate(3,32.666)"
         d="M 0,0 C 0.049,0.548 -1.746,0.689 -1.802,0.06 -1.846,-0.438 -0.057,-0.649 0,0 Z" />
      <path
         id="path232"
         transform="translate(31.292,23.4375)"
         d="M 0,0 C 0.049,0.548 -1.746,0.688 -1.802,0.059 -1.846,-0.439 -0.058,-0.65 0,0 Z" />
      <path
         id="path234"
         transform="translate(22.4375,46.4785)"
         d="M 0,0 C 0,-0.833 3,-0.92 3,0.167 3,1.084 0,1.055 0,0 Z" />
      <path
         id="path236"
         transform="translate(50.1924,38.5244)"
         d="M 0,0 C 0.281,0.873 -2.584,1.765 -2.907,0.762 -3.162,-0.032 -0.333,-1.034 0,0 Z" />
      <path
         id="path238"
         transform="translate(11.167,44.333)"
         d="M 0,0 -2.5,1" />
      <path
         id="path240"
         transform="translate(30.542,21.333)"
         d="M 0,0 2.5,-1" />
      <path
         id="path242"
         transform="translate(18.1045,29.208)"
         d="M 0,0 2.5,-1" />
      <path
         id="path244"
         transform="translate(43.709,47.916)"
         d="M 0,0 2.5,-1" />
      <path
         id="path246"
         transform="translate(23.125,35.125)"
         d="M 0,0 -1.27,1.896" />
      <path
         id="path248"
         transform="translate(26.875,24.875)"
         d="M 0,0 -1.27,1.896" />
      <path
         id="path250"
         transform="translate(40,7.5625)"
         d="M 0,0 -1.27,1.896" />
      <path
         id="path252"
         transform="translate(41.1045,16.2705)"
         d="M 0,0 1.27,-1.896" />
      <path
         id="path254"
         transform="translate(17.5,10.0625)"
         d="M 0,0 -1.27,1.895" />
      <path
         id="path256"
         transform="translate(5.8545,2.833)"
         d="M 0,0 1.27,-1.895" />
      <path
         id="path258"
         transform="translate(34.6045,37.333)"
         d="M 0,0 1.27,-1.896" />
      <path
         id="path260"
         transform="translate(2.4795,25.583)"
         d="M 0,0 1.27,-1.896" />
      <path
         id="path262"
         transform="translate(27.0215,52.5625)"
         d="M 0,0 -2.5,1" />
      <path
         id="path264"
         transform="translate(2.1875,48.875)"
         d="M 0,0 2.5,-1" />
      <path
         id="path266"
         transform="translate(29.334,48.083)"
         d="M 0,0 -1.75,-1.333" />
      <path
         id="path268"
         transform="translate(29.25,11.833)"
         d="M 0,0 -1.75,-1.333" />
      <path
         id="path270"
         transform="translate(50.1465,2.4375)"
         d="M 0,0 1.75,1.333" />
      <path
         id="path272"
         transform="translate(23.334,4.8955)"
         d="M 0,0 -1.75,-1.333" />
      <path
         id="path274"
         transform="translate(42.1465,20.3955)"
         d="M 0,0 -1.75,-1.333" />
      <path
         id="path276"
         transform="translate(8.709,28.25)"
         d="M 0,0 1.75,1.333" />
      <path
         id="path278"
         transform="translate(13.209,16.6875)"
         d="M 0,0 2.041,0.688" />
      <path
         id="path280"
         transform="translate(21.584,48.875)"
         d="M 0,0 1.75,1.333" />
      <path
         id="path282"
         transform="translate(29.5498,34.7275)"
         d="M 0,0 -2.169,-0.367" />
      <path
         id="path284"
         transform="translate(7.5625,52.666)"
         d="M 0,0 -1.75,-1.333" />
      <path
         id="path286"
         transform="translate(11.4482,50.5537)"
         d="M 0,0 V 3.446" />
      <path
         id="path288"
         transform="translate(30.7187,52.1162)"
         d="M 0,0 V 1.884" />
      <path
         id="path290"
         transform="translate(11.4482)"
         d="M 0,0 V 0.596" />
      <path
         id="path292"
         transform="translate(30.7187)"
         d="M 0,0 V 0.908" />
      <path
         id="path294"
         transform="translate(15.3027,47.1992)"
         d="M 0,0 V 3.438" />
      <path
         id="path296"
         transform="translate(2.2402,46.1367)"
         d="M 0,0 V -4.041" />
      <path
         id="path298"
         transform="translate(34.8027,49.8037)"
         d="M 0,0 V -2.625" />
      <path
         id="path300"
         transform="translate(48.1562,50.2207)"
         d="M 0,0 V -4.23" />
      <path
         id="path302"
         transform="translate(17.5312,43.9707)"
         d="M 0,0 V -2.23" />
      <path
         id="path304"
         transform="translate(0.4902,36.0869)"
         d="M 0,0 V 3.119" />
      <path
         id="path306"
         transform="translate(0.4902,39.2207)"
         d="M 0,0 V -0.015" />
      <path
         id="path308"
         transform="translate(0.4902,36.0869)"
         d="M 0,0 V -0.033" />
      <path
         id="path310"
         transform="translate(25.1152,41.4589)"
         d="M 0,0 V 0.115" />
      <path
         id="path312"
         transform="translate(25.1152,41.4589)"
         d="M 0,0 V -3.926" />
      <path
         id="path314"
         transform="translate(31.8857,43.2021)"
         d="M 0,0 V -3.856" />
      <path
         id="path316"
         transform="translate(31.8857,43.2021)"
         d="M 0,0 V 0.019" />
      <path
         id="path318"
         transform="translate(41.4902,39.5742)"
         d="M 0,0 V 0.044" />
      <path
         id="path320"
         transform="translate(41.4902,42.8867)"
         d="M 0,0 V -3.269" />
      <path
         id="path322"
         transform="translate(36.8232,34.3867)"
         d="M 0,0 V 3.417" />
      <path
         id="path324"
         transform="translate(18.3437,39.8339)"
         d="M 0,0 V 0.053" />
      <path
         id="path326"
         transform="translate(18.3437,39.8339)"
         d="M 0,0 V -4.385" />
      <path
         id="path328"
         transform="translate(39.4687,33.6826)"
         d="M 0,0 V 0.101" />
      <path
         id="path330"
         transform="translate(39.4687,33.6826)"
         d="M 0,0 V -3.316" />
      <path
         id="path332"
         transform="translate(50.4062,28.6787)"
         d="M 0,0 V 3.042" />
      <path
         id="path334"
         transform="translate(27.4062,32.8867)"
         d="M 0,0 V -2.708" />
      <path
         id="path336"
         transform="translate(48.2402,23.9707)"
         d="M 0,0 V 2.25" />
      <path
         id="path338"
         transform="translate(36.5107,20.5957)"
         d="M 0,0 V 2.791" />
      <path
         id="path340"
         transform="translate(31.0527,25.0117)"
         d="M 0,0 V 3.042" />
      <path
         id="path342"
         transform="translate(12.1357,27.5742)"
         d="M 0,0 V 2.646" />
      <path
         id="path344"
         transform="translate(7.8232,34.9677)"
         d="M 0,0 V 0.003" />
      <path
         id="path346"
         transform="translate(7.8232,34.9677)"
         d="M 0,0 V -1.664" />
      <path
         id="path348"
         transform="translate(15.0527,27.4648)"
         d="M 0,0 V 0.006" />
      <path
         id="path350"
         transform="translate(15.0527,23.4287)"
         d="M 0,0 V 4.036" />
      <path
         id="path352"
         transform="translate(6.3027,22.9707)"
         d="M 0,0 V -4.646" />
      <path
         id="path354"
         transform="translate(20.9277,23.7734)"
         d="M 0,0 V -3.199" />
      <path
         id="path356"
         transform="translate(20.9277,23.8037)"
         d="M 0,0 V -0.03" />
      <path
         id="path358"
         transform="translate(9.7187,14.9082)"
         d="M 0,0 V 3.729" />
      <path
         id="path360"
         transform="translate(50.1357,17.5117)"
         d="M 0,0 V 5.542" />
      <path
         id="path362"
         transform="translate(27.29,18.1162)"
         d="M 0,0 V -2.792" />
      <path
         id="path364"
         transform="translate(48.4902,13.498)"
         d="M 0,0 V -2.674" />
      <path
         id="path366"
         transform="translate(48.4902,13.498)"
         d="M 0,0 V 0.056" />
      <path
         id="path368"
         transform="translate(31.6777,12.3037)"
         d="M 0,0 V -3.75" />
      <path
         id="path370"
         transform="translate(17.5068,13.1425)"
         d="M 0,0 V -0.006" />
      <path
         id="path372"
         transform="translate(17.5068,16.2119)"
         d="M 0,0 V -0.122" />
      <path
         id="path374"
         transform="translate(17.5068,13.1425)"
         d="M 0,0 V 2.947" />
      <path
         id="path376"
         transform="translate(21.6152,6.9707)"
         d="M 0,0 V 4.563" />
      <path
         id="path378"
         transform="translate(39.5312,2.7607)"
         d="M 0,0 V 3.918" />
      <path
         id="path380"
         transform="translate(39.5312,2.7607)"
         d="M 0,0 V -0.04" />
      <path
         id="path382"
         transform="translate(9.2978,11.9414)"
         d="M 0,0 V -1.971" />
      <path
         id="path384"
         transform="translate(2.8398,9.0898)"
         d="M 0,0 V 0.019" />
      <path
         id="path386"
         transform="translate(2.8398,9.0898)"
         d="M 0,0 V -2.203" />
      <path
         id="path388"
         transform="translate(15.6728,5.6806)"
         d="M 0,0 V -2.294" />
      <path
         id="path390"
         transform="translate(15.6728,5.6806)"
         d="M 0,0 V 0.073" />
      <path
         id="path392"
         transform="translate(4.3857,0.8867)"
         d="M 0,0 V 3.146" />
      <path
         id="path394"
         transform="translate(25.4687,0.7832)"
         d="M 0,0 V 2.27" />
      <path
         id="path396"
         transform="translate(42.2812,2.1367)"
         d="M 0,0 V -1.271" />
    </g>
    <path
       style="stroke-width:0.69999999;stroke-linecap:round"
       id="path400"
       transform="translate(52.834,51.166)"
       d="M 0,0 0.01,0.01" />
    <path
       style="stroke-width:0.69999999;stroke-linecap:round"
       id="path402"
       transform="translate(15.584,45.5)"
       d="M 0,0 0.01,0.01" />
    <path
       style="stroke-width:0.69999999;stroke-linecap:round"
       id="path404"
       transform="translate(14.375,38.875)"
       d="M 0,0 0.01,0.01" />
    <path
       style="stroke-width:0.69999999;stroke-linecap:round"
       id="path406"
       transform="translate(4.25,37)"
       d="M 0,0 0.01,0.01" />
    <path
       style="stroke-width:0.69999999;stroke-linecap:round"
       id="path408"
       transform="translate(13.875,33.625)"
       d="M 0,0 0.01,0.01" />
    <path
       style="stroke-width:0.69999999;stroke-linecap:round"
       id="path410"
       transform="translate(29.125,42.25)"
       d="M 0,0 0.01,0.01" />
    <path
       style="stroke-width:0.69999999;stroke-linecap:round"
       id="path412"
       transform="translate(52,35.625)"
       d="M 0,0 0.01,0.01" />
    <path
       style="stroke-width:0.69999999;stroke-linecap:round"
       id="path414"
       transform="translate(39.5,49.5)"
       d="M 0,0 0.01,0.01" />
    <path
       style="stroke-width:0.69999999;stroke-linecap:round"
       id="path416"
       transform="translate(41,52.5)"
       d="M 0,0 0.01,0.01" />
    <path
       style="stroke-width:0.69999999;stroke-linecap:round"
       id="path418"
       transform="translate(42,35.166)"
       d="M 0,0 0.01,0.01" />
    <path
       style="stroke-width:0.69999999;stroke-linecap:round"
       id="path420"
       transform="translate(45,43.333)"
       d="M 0,0 0.01,0.01" />
    <path
       style="stroke-width:0.69999999;stroke-linecap:round"
       id="path422"
       transform="translate(36.875,43.375)"
       d="M 0,0 0.01,0.01" />
    <path
       style="stroke-width:0.69999999;stroke-linecap:round"
       id="path424"
       transform="translate(51.125,44.375)"
       d="M 0,0 0.01,0.01" />
    <path
       style="stroke-width:0.69999999;stroke-linecap:round"
       id="path426"
       transform="translate(20.5,52.666)"
       d="M 0,0 0.01,0.01" />
    <path
       style="stroke-width:0.69999999;stroke-linecap:round"
       id="path428"
       transform="translate(11.25,20.75)"
       d="M 0,0 0.01,0.01" />
    <path
       style="stroke-width:0.69999999;stroke-linecap:round"
       id="path430"
       transform="translate(4.875,29.5)"
       d="M 0,0 0.01,0.01" />
    <path
       style="stroke-width:0.69999999;stroke-linecap:round"
       id="path432"
       transform="translate(26.875,29)"
       d="M 0,0 0.01,0.01" />
    <path
       style="stroke-width:0.69999999;stroke-linecap:round"
       id="path434"
       transform="translate(37.875,27.5)"
       d="M 0,0 0.01,0.01" />
    <path
       style="stroke-width:0.69999999;stroke-linecap:round"
       id="path436"
       transform="translate(46.875,12.5)"
       d="M 0,0 0.01,0.01" />
    <path
       style="stroke-width:0.69999999;stroke-linecap:round"
       id="path438"
       transform="translate(38.125,12.125)"
       d="M 0,0 0.01,0.01" />
    <path
       style="stroke-width:0.69999999;stroke-linecap:round"
       id="path440"
       transform="translate(30.5,16.625)"
       d="M 0,0 0.01,0.01" />
    <path
       style="stroke-width:0.69999999;stroke-linecap:round"
       id="path442"
       transform="translate(19.625,18.375)"
       d="M 0,0 0.01,0.01" />
    <path
       style="stroke-width:0.69999999;stroke-linecap:round"
       id="path444"
       transform="translate(45.125,20.625)"
       d="M 0,0 0.01,0.01" />
    <path
       style="stroke-width:0.69999999;stroke-linecap:round"
       id="path446"
       transform="translate(52.125,8.75)"
       d="M 0,0 0.01,0.01" />
    <path
       style="stroke-width:0.69999999;stroke-linecap:round"
       id="path448"
       transform="translate(50.5,15.75)"
       d="M 0,0 0.01,0.01" />
    <path
       style="stroke-width:0.69999999;stroke-linecap:round"
       id="path450"
       transform="translate(42.125,3.875)"
       d="M 0,0 0.01,0.01" />
    <path
       style="stroke-width:0.69999999;stroke-linecap:round"
       id="path452"
       transform="translate(1.75,16.375)"
       d="M 0,0 0.01,0.01" />
    <path
       style="stroke-width:0.69999999;stroke-linecap:round"
       id="path454"
       transform="translate(20.875,25.625)"
       d="M 0,0 0.01,0.01" />
    <path
       style="stroke-width:0.69999999;stroke-linecap:round"
       id="path456"
       transform="translate(34.875,21.875)"
       d="M 0,0 0.01,0.01" />
    <path
       style="stroke-width:0.69999999;stroke-linecap:round"
       id="path458"
       transform="translate(31.875,6.25)"
       d="M 0,0 0.01,0.01" />
    <path
       style="stroke-width:0.69999999;stroke-linecap:round"
       id="path460"
       transform="translate(22.5,13.5)"
       d="M 0,0 0.01,0.01" />
    <path
       style="stroke-width:0.69999999;stroke-linecap:round"
       id="path462"
       transform="translate(12.125,12.5)"
       d="M 0,0 0.01,0.01" />
    <path
       style="stroke-width:0.69999999;stroke-linecap:round"
       id="path464"
       transform="translate(6.875,9.5)"
       d="M 0,0 0.01,0.01" />
    <path
       style="stroke-width:0.69999999;stroke-linecap:round"
       id="path466"
       transform="translate(1.625,5.5)"
       d="M 0,0 0.01,0.01" />
    <path
       style="stroke-width:0.69999999;stroke-linecap:round"
       id="path468"
       transform="translate(11.625,2.25)"
       d="M 0,0 0.01,0.01" />
    <path
       style="stroke-width:0.69999999;stroke-linecap:round"
       id="path470"
       transform="translate(32.125,2.25)"
       d="M 0,0 0.01,0.01" />
  </g>
</svg>
