<?xml version="1.0" encoding="UTF-8" standalone="no"?>
<svg
   xmlns:dc="http://purl.org/dc/elements/1.1/"
   xmlns:cc="http://creativecommons.org/ns#"
   xmlns:rdf="http://www.w3.org/1999/02/22-rdf-syntax-ns#"
   xmlns:svg="http://www.w3.org/2000/svg"
   xmlns="http://www.w3.org/2000/svg"
   height="54.125"
   width="54.125"
   id="svg154"
   version="1.1">
  <defs
     id="defs158" />
  <metadata
     id="metadata2">citation: U.S. Geological Survey, 2006, FGDC Digital Cartographic Standard for Geologic Map Symbolization (PostScript Implementation): U.S. Geological Survey Techniques and Methods 11-A2 [pubs.usgs.gov/tm/2006/11A02/]. converted by CEC Geology LLC 2018 from the USGS lithologic gs converted to inkscape by the University of Otago.<rdf:RDF>
  <cc:Work
     rdf:about="">
    <dc:format>image/svg+xml</dc:format>
    <dc:type
       rdf:resource="http://purl.org/dc/dcmitype/StillImage" />
    <dc:title></dc:title>
  </cc:Work>
</rdf:RDF>
</metadata>
  <g
     stroke-width=".3"
     stroke="#231f20"
     fill="none"

     id="g152"
     width="54.125"
     height="54.125">
    <path
       id="path4"
       transform="translate(0,50.375)"
       d="M 0,0 H 54.125" />
    <path
       id="path6"
       transform="translate(0,46.2)"
       d="M 0,0 H 54.125" />
    <path
       id="path8"
       transform="translate(0,42.0125)"
       d="M 0,0 H 54.125" />
    <path
       id="path10"
       transform="translate(0,12.3997)"
       d="M 0,0 H 54.188" />
    <path
       id="path12"
       transform="translate(0,8.6246)"
       d="M 0,0 H 54.125" />
    <path
       id="path14"
       transform="translate(0,37.9937)"
       d="M 0,0 H 54.125" />
    <path
       id="path16"
       transform="translate(0,34.7123)"
       d="M 0,0 H 54.125" />
    <path
       id="path18"
       transform="translate(0,31.2873)"
       d="M 0,0 H 54.125" />
    <path
       id="path20"
       transform="translate(0,27.2373)"
       d="M 0,0 H 54.125" />
    <path
       id="path22"
       transform="translate(0,23.4373)"
       d="M 0,0 H 54.125" />
    <path
       id="path24"
       transform="translate(0,19.2373)"
       d="M 0,0 H 54.188" />
    <path
       id="path26"
       transform="translate(0,16.0123)"
       d="M 0,0 H 54.125" />
    <path
       id="path28"
       transform="translate(0,0.8374)"
       d="M 0,0 H 54.125" />
    <path
       id="path30"
       transform="translate(5.925,54.125)"
       d="M 0,0 V -3.75" />
    <path
       id="path32"
       transform="translate(18.675,54.125)"
       d="M 0,0 V -3.75" />
    <path
       id="path34"
       transform="translate(32.175,54.125)"
       d="M 0,0 V -3.75" />
    <path
       id="path36"
       transform="translate(46.55,54.125)"
       d="M 0,0 V -3.75" />
    <path
       id="path38"
       transform="translate(5.925,0.8499)"
       d="M 0,0 V -0.85" />
    <path
       id="path40"
       transform="translate(18.675,0.8499)"
       d="M 0,0 V -0.85" />
    <path
       id="path42"
       transform="translate(32.175,0.8499)"
       d="M 0,0 V -0.85" />
    <path
       id="path44"
       transform="translate(46.55,0.8499)"
       d="M 0,0 V -0.85" />
    <path
       id="path46"
       transform="translate(12.6,50.4375)"
       d="M 0,0 V -4.225" />
    <path
       id="path48"
       transform="translate(27.475,50.4375)"
       d="M 0,0 V -4.225" />
    <path
       id="path50"
       transform="translate(41.1,50.4375)"
       d="M 0,0 V -4.225" />
    <path
       id="path52"
       transform="translate(53.925,50.4375)"
       d="M 0,0 V -4.225" />
    <path
       id="path54"
       transform="translate(7.0375,46.075)"
       d="M 0,0 V -4.05" />
    <path
       id="path56"
       transform="translate(20.2875,46.075)"
       d="M 0,0 V -4.05" />
    <path
       id="path58"
       transform="translate(33.85,46.075)"
       d="M 0,0 V -4.05" />
    <path
       id="path60"
       transform="translate(48.7875,46.075)"
       d="M 0,0 V -4.05" />
    <path
       id="path62"
       transform="translate(40.1625,42.0249)"
       d="M 0,0 V -4" />
    <path
       id="path64"
       transform="translate(26.7875,42.0249)"
       d="M 0,0 V -4" />
    <path
       id="path66"
       transform="translate(11.9125,42.0249)"
       d="M 0,0 V -4" />
    <path
       id="path68"
       transform="translate(53.4125,42.0249)"
       d="M 0,0 V -4" />
    <path
       id="path70"
       transform="translate(46.55,38.025)"
       d="M 0,0 V -3.3" />
    <path
       id="path72"
       transform="translate(31.925,38.025)"
       d="M 0,0 V -3.3" />
    <path
       id="path74"
       transform="translate(18.675,38.025)"
       d="M 0,0 V -3.3" />
    <path
       id="path76"
       transform="translate(5.925,38.025)"
       d="M 0,0 V -3.3" />
    <path
       id="path78"
       transform="translate(12.475,34.7248)"
       d="M 0,0 V -3.425" />
    <path
       id="path80"
       transform="translate(27.475,34.7248)"
       d="M 0,0 V -3.425" />
    <path
       id="path82"
       transform="translate(41.225,34.7248)"
       d="M 0,0 V -3.425" />
    <path
       id="path84"
       transform="translate(53.975,34.7248)"
       d="M 0,0 V -3.425" />
    <path
       id="path86"
       transform="translate(6.6625,31.2998)"
       d="M 0,0 V -4.05" />
    <path
       id="path88"
       transform="translate(20.1625,31.2998)"
       d="M 0,0 V -4.05" />
    <path
       id="path90"
       transform="translate(33.7875,31.2998)"
       d="M 0,0 V -4.05" />
    <path
       id="path92"
       transform="translate(48.6625,31.2998)"
       d="M 0,0 V -4.05" />
    <path
       id="path94"
       transform="translate(40.0375,27.1873)"
       d="M 0,0 V -3.738" />
    <path
       id="path96"
       transform="translate(26.7126,27.1873)"
       d="M 0,0 V -3.738" />
    <path
       id="path98"
       transform="translate(11.7126,27.1873)"
       d="M 0,0 V -3.738" />
    <path
       id="path100"
       transform="translate(53.2667,27.1873)"
       d="M 0,0 V -3.738" />
    <path
       id="path102"
       transform="translate(5.5251,23.3873)"
       d="M 0,0 V -4.137" />
    <path
       id="path104"
       transform="translate(18.5251,23.3873)"
       d="M 0,0 V -4.137" />
    <path
       id="path106"
       transform="translate(32.1501,23.3873)"
       d="M 0,0 V -4.137" />
    <path
       id="path108"
       transform="translate(46.4001,23.3873)"
       d="M 0,0 V -4.137" />
    <path
       id="path110"
       transform="translate(42.2,19.1873)"
       d="M 0,0 V -3.163" />
    <path
       id="path112"
       transform="translate(28.05,19.1873)"
       d="M 0,0 V -3.163" />
    <path
       id="path114"
       transform="translate(12.925,19.1873)"
       d="M 0,0 V -3.163" />
    <path
       id="path116"
       transform="translate(0.5083,19.1873)"
       d="M 0,0 V -3.163" />
    <path
       id="path118"
       transform="translate(6.8833,15.9623)"
       d="M 0,0 V -3.563" />
    <path
       id="path120"
       transform="translate(20.1333,15.9623)"
       d="M 0,0 V -3.563" />
    <path
       id="path122"
       transform="translate(33.7583,15.9623)"
       d="M 0,0 V -3.563" />
    <path
       id="path124"
       transform="translate(48.6333,15.9623)"
       d="M 0,0 V -3.563" />
    <path
       id="path126"
       transform="translate(40.2834,12.3497)"
       d="M 0,0 V -3.763" />
    <path
       id="path128"
       transform="translate(26.4084,12.3497)"
       d="M 0,0 V -3.763" />
    <path
       id="path130"
       transform="translate(11.8583,12.3497)"
       d="M 0,0 V -3.763" />
    <path
       id="path132"
       transform="translate(53.7333,12.3497)"
       d="M 0,0 V -3.763" />
    <path
       id="path134"
       transform="translate(0,4.2122)"
       d="M 0,0 H 54.125" />
    <path
       id="path136"
       transform="translate(10.2958,4.2375)"
       d="M 0,0 V -3.463" />
    <path
       id="path138"
       transform="translate(24.7333,4.2375)"
       d="M 0,0 V -3.463" />
    <path
       id="path140"
       transform="translate(38.3583,4.2375)"
       d="M 0,0 V -3.463" />
    <path
       id="path142"
       transform="translate(51.7333,4.2375)"
       d="M 0,0 V -3.463" />
    <path
       id="path144"
       transform="translate(4.5708,8.5873)"
       d="M 0,0 V -4.35" />
    <path
       id="path146"
       transform="translate(17.5708,8.5873)"
       d="M 0,0 V -4.35" />
    <path
       id="path148"
       transform="translate(31.5708,8.5873)"
       d="M 0,0 V -4.35" />
    <path
       id="path150"
       transform="translate(46.1333,8.5873)"
       d="M 0,0 V -4.35" />
  </g>
</svg>
