<?xml version="1.0" encoding="UTF-8" standalone="no"?>
<svg
   xmlns:dc="http://purl.org/dc/elements/1.1/"
   xmlns:cc="http://creativecommons.org/ns#"
   xmlns:rdf="http://www.w3.org/1999/02/22-rdf-syntax-ns#"
   xmlns:svg="http://www.w3.org/2000/svg"
   xmlns="http://www.w3.org/2000/svg"
   id="svg838"
   version="1.1"
   width="54.125"
   height="54.125">
  <defs
     id="defs842" />
  <metadata
     id="metadata2">citation: U.S. Geological Survey, 2006, FGDC Digital Cartographic Standard for Geologic Map Symbolization (PostScript Implementation): U.S. Geological Survey Techniques and Methods 11-A2 [pubs.usgs.gov/tm/2006/11A02/]. converted by CEC Geology LLC 2018 from the USGS lithologic gs converted to inkscape by the University of Otago.<rdf:RDF>
  <cc:Work
     rdf:about="">
    <dc:format>image/svg+xml</dc:format>
    <dc:type
       rdf:resource="http://purl.org/dc/dcmitype/StillImage" />
    <dc:title></dc:title>
  </cc:Work>
</rdf:RDF>
</metadata>
  <g
     id="g836"
     width="54.125"
     stroke-width=".7"
     stroke-linecap="round"
     stroke="#231f20"
     height="54.125"
     fill="none">
    <path
       id="path4"
       transform="translate(.353535 51.116035)"
       d="m0 0 .01.01" />
    <path
       id="path6"
       transform="translate(2.353535 51.434335)"
       d="m0 0 .01.01" />
    <path
       id="path8"
       transform="translate(4.171835 52.053535)"
       d="m0 0 .01.01" />
    <path
       id="path10"
       transform="translate(6.097735 52.178535)"
       d="m0 0 .01.01" />
    <path
       id="path12"
       transform="translate(8.046835 52.053535)"
       d="m0 0 .01.01" />
    <path
       id="path14"
       transform="translate(9.984335 51.610235)"
       d="m0 0 .01.01" />
    <path
       id="path16"
       transform="translate(11.830335 51.241035)"
       d="m0 0 .01.01" />
    <path
       id="path18"
       transform="translate(13.859335 51.116035)"
       d="m0 0 .01.01" />
    <path
       id="path20"
       transform="translate(15.916035 51.434335)"
       d="m0 0 .01.01" />
    <path
       id="path22"
       transform="translate(17.734335 52.053535)"
       d="m0 0 .01.01" />
    <path
       id="path24"
       transform="translate(19.660235 52.178535)"
       d="m0 0 .01.01" />
    <path
       id="path26"
       transform="translate(21.609335 52.053535)"
       d="m0 0 .01.01" />
    <path
       id="path28"
       transform="translate(23.546835 51.610235)"
       d="m0 0 .01.01" />
    <path
       id="path30"
       transform="translate(25.279435 51.241035)"
       d="m0 0 .01.01" />
    <path
       id="path32"
       transform="translate(27.285235 51.172735)"
       d="m0 0 .01.01" />
    <path
       id="path34"
       transform="translate(29.341935 51.491035)"
       d="m0 0 .01.01" />
    <path
       id="path36"
       transform="translate(31.160235 52.110235)"
       d="m0 0 .01.01" />
    <path
       id="path38"
       transform="translate(33.086035 52.235235)"
       d="m0 0 .01.01" />
    <path
       id="path40"
       transform="translate(35.035235 52.110235)"
       d="m0 0 .01.01" />
    <path
       id="path42"
       transform="translate(36.972735 51.666935)"
       d="m0 0 .01.01" />
    <path
       id="path44"
       transform="translate(38.875435 51.297735)"
       d="m0 0 .01.01" />
    <path
       id="path46"
       transform="translate(40.853535 51.172735)"
       d="m0 0 .01.01" />
    <path
       id="path48"
       transform="translate(42.910235 51.491035)"
       d="m0 0 .01.01" />
    <path
       id="path50"
       transform="translate(44.728535 52.110235)"
       d="m0 0 .01.01" />
    <path
       id="path52"
       transform="translate(46.654435 52.235235)"
       d="m0 0 .01.01" />
    <path
       id="path54"
       transform="translate(48.603535 52.110235)"
       d="m0 0 .01.01" />
    <path
       id="path56"
       transform="translate(50.541035 51.666935)"
       d="m0 0 .01.01" />
    <path
       id="path58"
       transform="translate(52.273535 51.297735)"
       d="m0 0 .01.01" />
    <path
       id="path60"
       transform="translate(.719335 46.544335)"
       d="m0 0 .01.01" />
    <path
       id="path62"
       transform="translate(2.537635 47.163535)"
       d="m0 0 .01.01" />
    <path
       id="path64"
       transform="translate(4.463535 47.288535)"
       d="m0 0 .01.01" />
    <path
       id="path66"
       transform="translate(6.412635 47.163535)"
       d="m0 0 .01.01" />
    <path
       id="path68"
       transform="translate(8.350135 46.720235)"
       d="m0 0 .01.01" />
    <path
       id="path70"
       transform="translate(10.196035 46.351035)"
       d="m0 0 .01.01" />
    <path
       id="path72"
       transform="translate(12.225135 46.226035)"
       d="m0 0 .01.01" />
    <path
       id="path74"
       transform="translate(14.281835 46.544335)"
       d="m0 0 .01.01" />
    <path
       id="path76"
       transform="translate(16.100135 47.163535)"
       d="m0 0 .01.01" />
    <path
       id="path78"
       transform="translate(18.026035 47.288535)"
       d="m0 0 .01.01" />
    <path
       id="path80"
       transform="translate(19.975135 47.163535)"
       d="m0 0 .01.01" />
    <path
       id="path82"
       transform="translate(21.912635 46.720235)"
       d="m0 0 .01.01" />
    <path
       id="path84"
       transform="translate(23.645235 46.351035)"
       d="m0 0 .01.01" />
    <path
       id="path86"
       transform="translate(25.651035 46.282735)"
       d="m0 0 .01.01" />
    <path
       id="path88"
       transform="translate(27.707735 46.601035)"
       d="m0 0 .01.01" />
    <path
       id="path90"
       transform="translate(29.526035 47.220235)"
       d="m0 0 .01.01" />
    <path
       id="path92"
       transform="translate(31.451935 47.345235)"
       d="m0 0 .01.01" />
    <path
       id="path94"
       transform="translate(33.401035 47.220235)"
       d="m0 0 .01.01" />
    <path
       id="path96"
       transform="translate(35.338535 46.776935)"
       d="m0 0 .01.01" />
    <path
       id="path98"
       transform="translate(37.241235 46.407735)"
       d="m0 0 .01.01" />
    <path
       id="path100"
       transform="translate(39.219335 46.282735)"
       d="m0 0 .01.01" />
    <path
       id="path102"
       transform="translate(41.276035 46.601035)"
       d="m0 0 .01.01" />
    <path
       id="path104"
       transform="translate(43.094335 47.220235)"
       d="m0 0 .01.01" />
    <path
       id="path106"
       transform="translate(45.020235 47.345235)"
       d="m0 0 .01.01" />
    <path
       id="path108"
       transform="translate(46.969335 47.220235)"
       d="m0 0 .01.01" />
    <path
       id="path110"
       transform="translate(48.906835 46.776935)"
       d="m0 0 .01.01" />
    <path
       id="path112"
       transform="translate(50.639435 46.407735)"
       d="m0 0 .01.01" />
    <path
       id="path114"
       transform="translate(52.627835 46.339435)"
       d="m0 0 .01.01" />
    <path
       id="path116"
       transform="translate(.370935 42.163535)"
       d="m0 0 .01.01" />
    <path
       id="path118"
       transform="translate(2.296835 42.288535)"
       d="m0 0 .01.01" />
    <path
       id="path120"
       transform="translate(4.245935 42.163535)"
       d="m0 0 .01.01" />
    <path
       id="path122"
       transform="translate(6.183435 41.720235)"
       d="m0 0 .01.01" />
    <path
       id="path124"
       transform="translate(8.029435 41.351035)"
       d="m0 0 .01.01" />
    <path
       id="path126"
       transform="translate(10.058435 41.226035)"
       d="m0 0 .01.01" />
    <path
       id="path128"
       transform="translate(12.115135 41.544335)"
       d="m0 0 .01.01" />
    <path
       id="path130"
       transform="translate(13.933435 42.163535)"
       d="m0 0 .01.01" />
    <path
       id="path132"
       transform="translate(15.859335 42.288535)"
       d="m0 0 .01.01" />
    <path
       id="path134"
       transform="translate(17.808435 42.163535)"
       d="m0 0 .01.01" />
    <path
       id="path136"
       transform="translate(19.745935 41.720235)"
       d="m0 0 .01.01" />
    <path
       id="path138"
       transform="translate(21.478535 41.351035)"
       d="m0 0 .01.01" />
    <path
       id="path140"
       transform="translate(23.484335 41.282735)"
       d="m0 0 .01.01" />
    <path
       id="path142"
       transform="translate(25.541035 41.601035)"
       d="m0 0 .01.01" />
    <path
       id="path144"
       transform="translate(27.359335 42.220235)"
       d="m0 0 .01.01" />
    <path
       id="path146"
       transform="translate(29.285235 42.345235)"
       d="m0 0 .01.01" />
    <path
       id="path148"
       transform="translate(31.234335 42.220235)"
       d="m0 0 .01.01" />
    <path
       id="path150"
       transform="translate(33.171835 41.776935)"
       d="m0 0 .01.01" />
    <path
       id="path152"
       transform="translate(35.074535 41.407735)"
       d="m0 0 .01.01" />
    <path
       id="path154"
       transform="translate(37.052635 41.282735)"
       d="m0 0 .01.01" />
    <path
       id="path156"
       transform="translate(39.109335 41.601035)"
       d="m0 0 .01.01" />
    <path
       id="path158"
       transform="translate(40.927635 42.220235)"
       d="m0 0 .01.01" />
    <path
       id="path160"
       transform="translate(42.853535 42.345235)"
       d="m0 0 .01.01" />
    <path
       id="path162"
       transform="translate(44.802635 42.220235)"
       d="m0 0 .01.01" />
    <path
       id="path164"
       transform="translate(46.740135 41.776935)"
       d="m0 0 .01.01" />
    <path
       id="path166"
       transform="translate(48.472735 41.407735)"
       d="m0 0 .01.01" />
    <path
       id="path168"
       transform="translate(50.461035 41.339435)"
       d="m0 0 .01.01" />
    <path
       id="path170"
       transform="translate(52.517835 41.657735)"
       d="m0 0 .01.01" />
    <path
       id="path172"
       transform="translate(.537635 37.330135)"
       d="m0 0 .01.01" />
    <path
       id="path174"
       transform="translate(2.463535 37.455135)"
       d="m0 0 .01.01" />
    <path
       id="path176"
       transform="translate(4.412635 37.330135)"
       d="m0 0 .01.01" />
    <path
       id="path178"
       transform="translate(6.350135 36.886835)"
       d="m0 0 .01.01" />
    <path
       id="path180"
       transform="translate(8.196035 36.517635)"
       d="m0 0 .01.01" />
    <path
       id="path182"
       transform="translate(10.225135 36.392635)"
       d="m0 0 .01.01" />
    <path
       id="path184"
       transform="translate(12.281835 36.710935)"
       d="m0 0 .01.01" />
    <path
       id="path186"
       transform="translate(14.100135 37.330135)"
       d="m0 0 .01.01" />
    <path
       id="path188"
       transform="translate(16.026035 37.455135)"
       d="m0 0 .01.01" />
    <path
       id="path190"
       transform="translate(17.975135 37.330135)"
       d="m0 0 .01.01" />
    <path
       id="path192"
       transform="translate(19.912635 36.886835)"
       d="m0 0 .01.01" />
    <path
       id="path194"
       transform="translate(21.645235 36.517635)"
       d="m0 0 .01.01" />
    <path
       id="path196"
       transform="translate(23.651035 36.449335)"
       d="m0 0 .01.01" />
    <path
       id="path198"
       transform="translate(25.707735 36.767635)"
       d="m0 0 .01.01" />
    <path
       id="path200"
       transform="translate(27.526035 37.386835)"
       d="m0 0 .01.01" />
    <path
       id="path202"
       transform="translate(29.451935 37.511835)"
       d="m0 0 .01.01" />
    <path
       id="path204"
       transform="translate(31.401035 37.386835)"
       d="m0 0 .01.01" />
    <path
       id="path206"
       transform="translate(33.338535 36.943535)"
       d="m0 0 .01.01" />
    <path
       id="path208"
       transform="translate(35.241235 36.574335)"
       d="m0 0 .01.01" />
    <path
       id="path210"
       transform="translate(37.219335 36.449335)"
       d="m0 0 .01.01" />
    <path
       id="path212"
       transform="translate(39.276035 36.767635)"
       d="m0 0 .01.01" />
    <path
       id="path214"
       transform="translate(41.094335 37.386835)"
       d="m0 0 .01.01" />
    <path
       id="path216"
       transform="translate(43.020235 37.511835)"
       d="m0 0 .01.01" />
    <path
       id="path218"
       transform="translate(44.969335 37.386835)"
       d="m0 0 .01.01" />
    <path
       id="path220"
       transform="translate(46.906835 36.943535)"
       d="m0 0 .01.01" />
    <path
       id="path222"
       transform="translate(48.639435 36.574335)"
       d="m0 0 .01.01" />
    <path
       id="path224"
       transform="translate(50.627835 36.506035)"
       d="m0 0 .01.01" />
    <path
       id="path226"
       transform="translate(52.684535 36.824335)"
       d="m0 0 .01.01" />
    <path
       id="path228"
       transform="translate(1.052635 31.544335)"
       d="m0 0 .01.01" />
    <path
       id="path230"
       transform="translate(2.870935 32.163535)"
       d="m0 0 .01.01" />
    <path
       id="path232"
       transform="translate(4.796835 32.288535)"
       d="m0 0 .01.01" />
    <path
       id="path234"
       transform="translate(6.745935 32.163535)"
       d="m0 0 .01.01" />
    <path
       id="path236"
       transform="translate(8.683435 31.720235)"
       d="m0 0 .01.01" />
    <path
       id="path238"
       transform="translate(10.529435 31.351035)"
       d="m0 0 .01.01" />
    <path
       id="path240"
       transform="translate(12.558435 31.226035)"
       d="m0 0 .01.01" />
    <path
       id="path242"
       transform="translate(14.615135 31.544335)"
       d="m0 0 .01.01" />
    <path
       id="path244"
       transform="translate(16.433435 32.163535)"
       d="m0 0 .01.01" />
    <path
       id="path246"
       transform="translate(18.359335 32.288535)"
       d="m0 0 .01.01" />
    <path
       id="path248"
       transform="translate(20.308435 32.163535)"
       d="m0 0 .01.01" />
    <path
       id="path250"
       transform="translate(22.245935 31.720235)"
       d="m0 0 .01.01" />
    <path
       id="path252"
       transform="translate(23.978535 31.351035)"
       d="m0 0 .01.01" />
    <path
       id="path254"
       transform="translate(25.984335 31.282735)"
       d="m0 0 .01.01" />
    <path
       id="path256"
       transform="translate(28.041035 31.601035)"
       d="m0 0 .01.01" />
    <path
       id="path258"
       transform="translate(29.859335 32.220235)"
       d="m0 0 .01.01" />
    <path
       id="path260"
       transform="translate(31.785235 32.345235)"
       d="m0 0 .01.01" />
    <path
       id="path262"
       transform="translate(33.734335 32.220235)"
       d="m0 0 .01.01" />
    <path
       id="path264"
       transform="translate(35.671835 31.776935)"
       d="m0 0 .01.01" />
    <path
       id="path266"
       transform="translate(37.574535 31.407735)"
       d="m0 0 .01.01" />
    <path
       id="path268"
       transform="translate(39.552635 31.282735)"
       d="m0 0 .01.01" />
    <path
       id="path270"
       transform="translate(41.609335 31.601035)"
       d="m0 0 .01.01" />
    <path
       id="path272"
       transform="translate(43.427635 32.220235)"
       d="m0 0 .01.01" />
    <path
       id="path274"
       transform="translate(45.353535 32.345235)"
       d="m0 0 .01.01" />
    <path
       id="path276"
       transform="translate(47.302635 32.220235)"
       d="m0 0 .01.01" />
    <path
       id="path278"
       transform="translate(49.240135 31.776935)"
       d="m0 0 .01.01" />
    <path
       id="path280"
       transform="translate(50.972735 31.407735)"
       d="m0 0 .01.01" />
    <path
       id="path282"
       transform="translate(52.961035 31.339435)"
       d="m0 0 .01.01" />
    <path
       id="path284"
       transform="translate(.885935 26.877635)"
       d="m0 0 .01.01" />
    <path
       id="path286"
       transform="translate(2.704235 27.496835)"
       d="m0 0 .01.01" />
    <path
       id="path288"
       transform="translate(4.630135 27.621835)"
       d="m0 0 .01.01" />
    <path
       id="path290"
       transform="translate(6.579235 27.496835)"
       d="m0 0 .01.01" />
    <path
       id="path292"
       transform="translate(8.516735 27.053535)"
       d="m0 0 .01.01" />
    <path
       id="path294"
       transform="translate(10.362735 26.684335)"
       d="m0 0 .01.01" />
    <path
       id="path296"
       transform="translate(12.391735 26.559335)"
       d="m0 0 .01.01" />
    <path
       id="path298"
       transform="translate(14.448435 26.877635)"
       d="m0 0 .01.01" />
    <path
       id="path300"
       transform="translate(16.266735 27.496835)"
       d="m0 0 .01.01" />
    <path
       id="path302"
       transform="translate(18.192635 27.621835)"
       d="m0 0 .01.01" />
    <path
       id="path304"
       transform="translate(20.141735 27.496835)"
       d="m0 0 .01.01" />
    <path
       id="path306"
       transform="translate(22.079235 27.053535)"
       d="m0 0 .01.01" />
    <path
       id="path308"
       transform="translate(23.811835 26.684335)"
       d="m0 0 .01.01" />
    <path
       id="path310"
       transform="translate(25.817635 26.616035)"
       d="m0 0 .01.01" />
    <path
       id="path312"
       transform="translate(27.874335 26.934335)"
       d="m0 0 .01.01" />
    <path
       id="path314"
       transform="translate(29.692635 27.553535)"
       d="m0 0 .01.01" />
    <path
       id="path316"
       transform="translate(31.618535 27.678535)"
       d="m0 0 .01.01" />
    <path
       id="path318"
       transform="translate(33.567635 27.553535)"
       d="m0 0 .01.01" />
    <path
       id="path320"
       transform="translate(35.505135 27.110235)"
       d="m0 0 .01.01" />
    <path
       id="path322"
       transform="translate(37.407735 26.741035)"
       d="m0 0 .01.01" />
    <path
       id="path324"
       transform="translate(39.385935 26.616035)"
       d="m0 0 .01.01" />
    <path
       id="path326"
       transform="translate(41.442635 26.934335)"
       d="m0 0 .01.01" />
    <path
       id="path328"
       transform="translate(43.260935 27.553535)"
       d="m0 0 .01.01" />
    <path
       id="path330"
       transform="translate(45.186835 27.678535)"
       d="m0 0 .01.01" />
    <path
       id="path332"
       transform="translate(47.135935 27.553535)"
       d="m0 0 .01.01" />
    <path
       id="path334"
       transform="translate(49.073435 27.110235)"
       d="m0 0 .01.01" />
    <path
       id="path336"
       transform="translate(50.806035 26.741035)"
       d="m0 0 .01.01" />
    <path
       id="path338"
       transform="translate(52.794435 26.672735)"
       d="m0 0 .01.01" />
    <path
       id="path340"
       transform="translate(.369335 21.559335)"
       d="m0 0 .01.01" />
    <path
       id="path342"
       transform="translate(2.219335 21.877635)"
       d="m0 0 .01.01" />
    <path
       id="path344"
       transform="translate(4.037635 22.496835)"
       d="m0 0 .01.01" />
    <path
       id="path346"
       transform="translate(5.963535 22.621835)"
       d="m0 0 .01.01" />
    <path
       id="path348"
       transform="translate(7.912635 22.496835)"
       d="m0 0 .01.01" />
    <path
       id="path350"
       transform="translate(9.850135 22.053535)"
       d="m0 0 .01.01" />
    <path
       id="path352"
       transform="translate(11.696035 21.684335)"
       d="m0 0 .01.01" />
    <path
       id="path354"
       transform="translate(13.725135 21.559335)"
       d="m0 0 .01.01" />
    <path
       id="path356"
       transform="translate(15.781835 21.877635)"
       d="m0 0 .01.01" />
    <path
       id="path358"
       transform="translate(17.600135 22.496835)"
       d="m0 0 .01.01" />
    <path
       id="path360"
       transform="translate(19.526035 22.621835)"
       d="m0 0 .01.01" />
    <path
       id="path362"
       transform="translate(21.475135 22.496835)"
       d="m0 0 .01.01" />
    <path
       id="path364"
       transform="translate(23.412635 22.053535)"
       d="m0 0 .01.01" />
    <path
       id="path366"
       transform="translate(25.145235 21.684335)"
       d="m0 0 .01.01" />
    <path
       id="path368"
       transform="translate(27.151035 21.616035)"
       d="m0 0 .01.01" />
    <path
       id="path370"
       transform="translate(29.207735 21.934335)"
       d="m0 0 .01.01" />
    <path
       id="path372"
       transform="translate(31.026035 22.553535)"
       d="m0 0 .01.01" />
    <path
       id="path374"
       transform="translate(32.951935 22.678535)"
       d="m0 0 .01.01" />
    <path
       id="path376"
       transform="translate(34.901035 22.553535)"
       d="m0 0 .01.01" />
    <path
       id="path378"
       transform="translate(36.838535 22.110235)"
       d="m0 0 .01.01" />
    <path
       id="path380"
       transform="translate(38.741235 21.741035)"
       d="m0 0 .01.01" />
    <path
       id="path382"
       transform="translate(40.719335 21.616035)"
       d="m0 0 .01.01" />
    <path
       id="path384"
       transform="translate(42.776035 21.934335)"
       d="m0 0 .01.01" />
    <path
       id="path386"
       transform="translate(44.594335 22.553535)"
       d="m0 0 .01.01" />
    <path
       id="path388"
       transform="translate(46.520235 22.678535)"
       d="m0 0 .01.01" />
    <path
       id="path390"
       transform="translate(48.469335 22.553535)"
       d="m0 0 .01.01" />
    <path
       id="path392"
       transform="translate(50.406835 22.110235)"
       d="m0 0 .01.01" />
    <path
       id="path394"
       transform="translate(52.139435 21.741035)"
       d="m0 0 .01.01" />
    <path
       id="path396"
       transform="translate(1.219335 16.559335)"
       d="m0 0 .01.01" />
    <path
       id="path398"
       transform="translate(3.219335 16.877635)"
       d="m0 0 .01.01" />
    <path
       id="path400"
       transform="translate(5.037635 17.496835)"
       d="m0 0 .01.01" />
    <path
       id="path402"
       transform="translate(6.963535 17.621835)"
       d="m0 0 .01.01" />
    <path
       id="path404"
       transform="translate(8.912635 17.496835)"
       d="m0 0 .01.01" />
    <path
       id="path406"
       transform="translate(10.850135 17.053535)"
       d="m0 0 .01.01" />
    <path
       id="path408"
       transform="translate(12.696035 16.684335)"
       d="m0 0 .01.01" />
    <path
       id="path410"
       transform="translate(14.725135 16.559335)"
       d="m0 0 .01.01" />
    <path
       id="path412"
       transform="translate(16.781835 16.877635)"
       d="m0 0 .01.01" />
    <path
       id="path414"
       transform="translate(18.600135 17.496835)"
       d="m0 0 .01.01" />
    <path
       id="path416"
       transform="translate(20.526035 17.621835)"
       d="m0 0 .01.01" />
    <path
       id="path418"
       transform="translate(22.475135 17.496835)"
       d="m0 0 .01.01" />
    <path
       id="path420"
       transform="translate(24.412635 17.053535)"
       d="m0 0 .01.01" />
    <path
       id="path422"
       transform="translate(26.145235 16.684335)"
       d="m0 0 .01.01" />
    <path
       id="path424"
       transform="translate(28.151035 16.616035)"
       d="m0 0 .01.01" />
    <path
       id="path426"
       transform="translate(30.207735 16.934335)"
       d="m0 0 .01.01" />
    <path
       id="path428"
       transform="translate(32.026035 17.553535)"
       d="m0 0 .01.01" />
    <path
       id="path430"
       transform="translate(33.951935 17.678535)"
       d="m0 0 .01.01" />
    <path
       id="path432"
       transform="translate(35.901035 17.553535)"
       d="m0 0 .01.01" />
    <path
       id="path434"
       transform="translate(37.838535 17.110235)"
       d="m0 0 .01.01" />
    <path
       id="path436"
       transform="translate(39.741235 16.741035)"
       d="m0 0 .01.01" />
    <path
       id="path438"
       transform="translate(41.719335 16.616035)"
       d="m0 0 .01.01" />
    <path
       id="path440"
       transform="translate(43.776035 16.934335)"
       d="m0 0 .01.01" />
    <path
       id="path442"
       transform="translate(45.594335 17.553535)"
       d="m0 0 .01.01" />
    <path
       id="path444"
       transform="translate(47.520235 17.678535)"
       d="m0 0 .01.01" />
    <path
       id="path446"
       transform="translate(49.469335 17.553535)"
       d="m0 0 .01.01" />
    <path
       id="path448"
       transform="translate(51.406835 17.110235)"
       d="m0 0 .01.01" />
    <path
       id="path450"
       transform="translate(53.139435 16.741035)"
       d="m0 0 .01.01" />
    <path
       id="path452"
       transform="translate(1.052635 11.726035)"
       d="m0 0 .01.01" />
    <path
       id="path454"
       transform="translate(3.052635 12.044335)"
       d="m0 0 .01.01" />
    <path
       id="path456"
       transform="translate(4.870935 12.663535)"
       d="m0 0 .01.01" />
    <path
       id="path458"
       transform="translate(6.796835 12.788535)"
       d="m0 0 .01.01" />
    <path
       id="path460"
       transform="translate(8.745935 12.663535)"
       d="m0 0 .01.01" />
    <path
       id="path462"
       transform="translate(10.683435 12.220235)"
       d="m0 0 .01.01" />
    <path
       id="path464"
       transform="translate(12.529435 11.851035)"
       d="m0 0 .01.01" />
    <path
       id="path466"
       transform="translate(14.558435 11.726035)"
       d="m0 0 .01.01" />
    <path
       id="path468"
       transform="translate(16.615135 12.044335)"
       d="m0 0 .01.01" />
    <path
       id="path470"
       transform="translate(18.433435 12.663535)"
       d="m0 0 .01.01" />
    <path
       id="path472"
       transform="translate(20.359335 12.788535)"
       d="m0 0 .01.01" />
    <path
       id="path474"
       transform="translate(22.308435 12.663535)"
       d="m0 0 .01.01" />
    <path
       id="path476"
       transform="translate(24.245935 12.220235)"
       d="m0 0 .01.01" />
    <path
       id="path478"
       transform="translate(25.978535 11.851035)"
       d="m0 0 .01.01" />
    <path
       id="path480"
       transform="translate(27.984335 11.782735)"
       d="m0 0 .01.01" />
    <path
       id="path482"
       transform="translate(30.041035 12.101035)"
       d="m0 0 .01.01" />
    <path
       id="path484"
       transform="translate(31.859335 12.720235)"
       d="m0 0 .01.01" />
    <path
       id="path486"
       transform="translate(33.785235 12.845235)"
       d="m0 0 .01.01" />
    <path
       id="path488"
       transform="translate(35.734335 12.720235)"
       d="m0 0 .01.01" />
    <path
       id="path490"
       transform="translate(37.671835 12.276935)"
       d="m0 0 .01.01" />
    <path
       id="path492"
       transform="translate(39.574535 11.907735)"
       d="m0 0 .01.01" />
    <path
       id="path494"
       transform="translate(41.552635 11.782735)"
       d="m0 0 .01.01" />
    <path
       id="path496"
       transform="translate(43.609335 12.101035)"
       d="m0 0 .01.01" />
    <path
       id="path498"
       transform="translate(45.427635 12.720235)"
       d="m0 0 .01.01" />
    <path
       id="path500"
       transform="translate(47.353535 12.845235)"
       d="m0 0 .01.01" />
    <path
       id="path502"
       transform="translate(49.302635 12.720235)"
       d="m0 0 .01.01" />
    <path
       id="path504"
       transform="translate(51.240135 12.276935)"
       d="m0 0 .01.01" />
    <path
       id="path506"
       transform="translate(52.972735 11.907735)"
       d="m0 0 .01.01" />
    <path
       id="path508"
       transform="translate(1.770235 7.002635)"
       d="m0 0 .01.01" />
    <path
       id="path510"
       transform="translate(3.588535 7.621835)"
       d="m0 0 .01.01" />
    <path
       id="path512"
       transform="translate(5.514435 7.746835)"
       d="m0 0 .01.01" />
    <path
       id="path514"
       transform="translate(7.463535 7.621835)"
       d="m0 0 .01.01" />
    <path
       id="path516"
       transform="translate(9.401035 7.178535)"
       d="m0 0 .01.01" />
    <path
       id="path518"
       transform="translate(11.247035 6.809335)"
       d="m0 0 .01.01" />
    <path
       id="path520"
       transform="translate(13.276035 6.684335)"
       d="m0 0 .01.01" />
    <path
       id="path522"
       transform="translate(15.332735 7.002635)"
       d="m0 0 .01.01" />
    <path
       id="path524"
       transform="translate(17.151035 7.621835)"
       d="m0 0 .01.01" />
    <path
       id="path526"
       transform="translate(19.076935 7.746835)"
       d="m0 0 .01.01" />
    <path
       id="path528"
       transform="translate(21.026035 7.621835)"
       d="m0 0 .01.01" />
    <path
       id="path530"
       transform="translate(22.963535 7.178535)"
       d="m0 0 .01.01" />
    <path
       id="path532"
       transform="translate(24.696035 6.809335)"
       d="m0 0 .01.01" />
    <path
       id="path534"
       transform="translate(26.701935 6.741035)"
       d="m0 0 .01.01" />
    <path
       id="path536"
       transform="translate(28.758535 7.059335)"
       d="m0 0 .01.01" />
    <path
       id="path538"
       transform="translate(30.576935 7.678535)"
       d="m0 0 .01.01" />
    <path
       id="path540"
       transform="translate(32.502835 7.803535)"
       d="m0 0 .01.01" />
    <path
       id="path542"
       transform="translate(34.451935 7.678535)"
       d="m0 0 .01.01" />
    <path
       id="path544"
       transform="translate(36.389435 7.235235)"
       d="m0 0 .01.01" />
    <path
       id="path546"
       transform="translate(38.292135 6.866035)"
       d="m0 0 .01.01" />
    <path
       id="path548"
       transform="translate(40.270235 6.741035)"
       d="m0 0 .01.01" />
    <path
       id="path550"
       transform="translate(42.326935 7.059335)"
       d="m0 0 .01.01" />
    <path
       id="path552"
       transform="translate(44.145235 7.678535)"
       d="m0 0 .01.01" />
    <path
       id="path554"
       transform="translate(46.071035 7.803535)"
       d="m0 0 .01.01" />
    <path
       id="path556"
       transform="translate(48.020235 7.678535)"
       d="m0 0 .01.01" />
    <path
       id="path558"
       transform="translate(49.957735 7.235235)"
       d="m0 0 .01.01" />
    <path
       id="path560"
       transform="translate(51.690335 6.866035)"
       d="m0 0 .01.01" />
    <path
       id="path562"
       transform="translate(53.678735 6.797735)"
       d="m0 0 .01.01" />
    <path
       id="path564"
       transform="translate(.499335 2.112635)"
       d="m0 0 .01.01" />
    <path
       id="path566"
       transform="translate(2.317635 2.731835)"
       d="m0 0 .01.01" />
    <path
       id="path568"
       transform="translate(4.243535 2.856835)"
       d="m0 0 .01.01" />
    <path
       id="path570"
       transform="translate(6.192635 2.731835)"
       d="m0 0 .01.01" />
    <path
       id="path572"
       transform="translate(8.130135 2.288535)"
       d="m0 0 .01.01" />
    <path
       id="path574"
       transform="translate(9.976135 1.919335)"
       d="m0 0 .01.01" />
    <path
       id="path576"
       transform="translate(12.005135 1.794335)"
       d="m0 0 .01.01" />
    <path
       id="path578"
       transform="translate(14.061835 2.112635)"
       d="m0 0 .01.01" />
    <path
       id="path580"
       transform="translate(15.880135 2.731835)"
       d="m0 0 .01.01" />
    <path
       id="path582"
       transform="translate(17.806035 2.856835)"
       d="m0 0 .01.01" />
    <path
       id="path584"
       transform="translate(19.755135 2.731835)"
       d="m0 0 .01.01" />
    <path
       id="path586"
       transform="translate(21.692635 2.288535)"
       d="m0 0 .01.01" />
    <path
       id="path588"
       transform="translate(23.425235 1.919335)"
       d="m0 0 .01.01" />
    <path
       id="path590"
       transform="translate(25.431035 1.851035)"
       d="m0 0 .01.01" />
    <path
       id="path592"
       transform="translate(27.487735 2.169335)"
       d="m0 0 .01.01" />
    <path
       id="path594"
       transform="translate(29.306035 2.788535)"
       d="m0 0 .01.01" />
    <path
       id="path596"
       transform="translate(31.231935 2.913535)"
       d="m0 0 .01.01" />
    <path
       id="path598"
       transform="translate(33.181035 2.788535)"
       d="m0 0 .01.01" />
    <path
       id="path600"
       transform="translate(35.118535 2.345235)"
       d="m0 0 .01.01" />
    <path
       id="path602"
       transform="translate(37.021235 1.976035)"
       d="m0 0 .01.01" />
    <path
       id="path604"
       transform="translate(38.999335 1.851035)"
       d="m0 0 .01.01" />
    <path
       id="path606"
       transform="translate(41.056035 2.169335)"
       d="m0 0 .01.01" />
    <path
       id="path608"
       transform="translate(42.874335 2.788535)"
       d="m0 0 .01.01" />
    <path
       id="path610"
       transform="translate(44.800235 2.913535)"
       d="m0 0 .01.01" />
    <path
       id="path612"
       transform="translate(46.749335 2.788535)"
       d="m0 0 .01.01" />
    <path
       id="path614"
       transform="translate(48.686835 2.345235)"
       d="m0 0 .01.01" />
    <path
       id="path616"
       transform="translate(50.419435 1.976035)"
       d="m0 0 .01.01" />
    <path
       id="path618"
       transform="translate(52.407735 1.907735)"
       d="m0 0 .01.01" />
    <path
       id="path620"
       transform="translate(2.728535 49.303535)"
       d="m0 0 .01.01" />
    <path
       id="path622"
       transform="translate(8.353535 49.553535)"
       d="m0 0 .01.01" />
    <path
       id="path624"
       transform="translate(13.478535 48.678535)"
       d="m0 0 .01.01" />
    <path
       id="path626"
       transform="translate(18.728535 49.803535)"
       d="m0 0 .01.01" />
    <path
       id="path628"
       transform="translate(24.103535 48.866035)"
       d="m0 0 .01.01" />
    <path
       id="path630"
       transform="translate(29.103535 49.116035)"
       d="m0 0 .01.01" />
    <path
       id="path632"
       transform="translate(34.603535 49.616035)"
       d="m0 0 .01.01" />
    <path
       id="path634"
       transform="translate(40.166035 48.553535)"
       d="m0 0 .01.01" />
    <path
       id="path636"
       transform="translate(45.353535 49.803535)"
       d="m0 0 .01.01" />
    <path
       id="path638"
       transform="translate(50.853535 48.803535)"
       d="m0 0 .01.01" />
    <path
       id="path640"
       transform="translate(1.416035 29.303535)"
       d="m0 0 .01.01" />
    <path
       id="path642"
       transform="translate(7.041035 29.553535)"
       d="m0 0 .01.01" />
    <path
       id="path644"
       transform="translate(12.166035 28.678535)"
       d="m0 0 .01.01" />
    <path
       id="path646"
       transform="translate(17.416035 29.803535)"
       d="m0 0 .01.01" />
    <path
       id="path648"
       transform="translate(22.791035 28.866035)"
       d="m0 0 .01.01" />
    <path
       id="path650"
       transform="translate(27.791035 29.116035)"
       d="m0 0 .01.01" />
    <path
       id="path652"
       transform="translate(33.291035 29.616035)"
       d="m0 0 .01.01" />
    <path
       id="path654"
       transform="translate(38.853535 28.553535)"
       d="m0 0 .01.01" />
    <path
       id="path656"
       transform="translate(44.041035 29.803535)"
       d="m0 0 .01.01" />
    <path
       id="path658"
       transform="translate(49.541035 28.803535)"
       d="m0 0 .01.01" />
    <path
       id="path660"
       transform="translate(3.041035 24.553535)"
       d="m0 0 .01.01" />
    <path
       id="path662"
       transform="translate(8.666035 24.803535)"
       d="m0 0 .01.01" />
    <path
       id="path664"
       transform="translate(13.791035 23.928535)"
       d="m0 0 .01.01" />
    <path
       id="path666"
       transform="translate(19.041035 25.053535)"
       d="m0 0 .01.01" />
    <path
       id="path668"
       transform="translate(24.416035 24.116035)"
       d="m0 0 .01.01" />
    <path
       id="path670"
       transform="translate(29.416035 24.366035)"
       d="m0 0 .01.01" />
    <path
       id="path672"
       transform="translate(34.916035 24.866035)"
       d="m0 0 .01.01" />
    <path
       id="path674"
       transform="translate(40.478535 23.803535)"
       d="m0 0 .01.01" />
    <path
       id="path676"
       transform="translate(45.666035 25.053535)"
       d="m0 0 .01.01" />
    <path
       id="path678"
       transform="translate(51.166035 24.053535)"
       d="m0 0 .01.01" />
    <path
       id="path680"
       transform="translate(1.166035 19.053535)"
       d="m0 0 .01.01" />
    <path
       id="path682"
       transform="translate(6.416035 20.178535)"
       d="m0 0 .01.01" />
    <path
       id="path684"
       transform="translate(11.791035 19.241035)"
       d="m0 0 .01.01" />
    <path
       id="path686"
       transform="translate(16.791035 19.491035)"
       d="m0 0 .01.01" />
    <path
       id="path688"
       transform="translate(22.291035 19.991035)"
       d="m0 0 .01.01" />
    <path
       id="path690"
       transform="translate(27.853535 18.928535)"
       d="m0 0 .01.01" />
    <path
       id="path692"
       transform="translate(33.041035 20.178535)"
       d="m0 0 .01.01" />
    <path
       id="path694"
       transform="translate(38.541035 19.178535)"
       d="m0 0 .01.01" />
    <path
       id="path696"
       transform="translate(43.916035 19.678535)"
       d="m0 0 .01.01" />
    <path
       id="path698"
       transform="translate(4.791035 14.928535)"
       d="m0 0 .01.01" />
    <path
       id="path700"
       transform="translate(10.416035 15.178535)"
       d="m0 0 .01.01" />
    <path
       id="path702"
       transform="translate(15.541035 14.303535)"
       d="m0 0 .01.01" />
    <path
       id="path704"
       transform="translate(20.791035 15.428535)"
       d="m0 0 .01.01" />
    <path
       id="path706"
       transform="translate(26.166035 14.491035)"
       d="m0 0 .01.01" />
    <path
       id="path708"
       transform="translate(31.166035 14.741035)"
       d="m0 0 .01.01" />
    <path
       id="path710"
       transform="translate(36.666035 15.241035)"
       d="m0 0 .01.01" />
    <path
       id="path712"
       transform="translate(42.228535 14.178535)"
       d="m0 0 .01.01" />
    <path
       id="path714"
       transform="translate(47.416035 15.428535)"
       d="m0 0 .01.01" />
    <path
       id="path716"
       transform="translate(52.916035 14.428535)"
       d="m0 0 .01.01" />
    <path
       id="path718"
       transform="translate(1.666035 9.303535)"
       d="m0 0 .01.01" />
    <path
       id="path720"
       transform="translate(6.916035 10.428535)"
       d="m0 0 .01.01" />
    <path
       id="path722"
       transform="translate(12.291035 9.491035)"
       d="m0 0 .01.01" />
    <path
       id="path724"
       transform="translate(17.291035 9.741035)"
       d="m0 0 .01.01" />
    <path
       id="path726"
       transform="translate(22.791035 10.241035)"
       d="m0 0 .01.01" />
    <path
       id="path728"
       transform="translate(28.353535 9.178535)"
       d="m0 0 .01.01" />
    <path
       id="path730"
       transform="translate(33.541035 10.428535)"
       d="m0 0 .01.01" />
    <path
       id="path732"
       transform="translate(39.041035 9.428535)"
       d="m0 0 .01.01" />
    <path
       id="path734"
       transform="translate(44.416035 9.928535)"
       d="m0 0 .01.01" />
    <path
       id="path736"
       transform="translate(6.103535 .353535)"
       d="m0 0 .01.01" />
    <path
       id="path738"
       transform="translate(19.478535 .678535)"
       d="m0 0 .01.01" />
    <path
       id="path740"
       transform="translate(33.103535 .553535)"
       d="m0 0 .01.01" />
    <path
       id="path742"
       transform="translate(4.916035 5.428535)"
       d="m0 0 .01.01" />
    <path
       id="path744"
       transform="translate(10.291035 4.491035)"
       d="m0 0 .01.01" />
    <path
       id="path746"
       transform="translate(15.291035 4.741035)"
       d="m0 0 .01.01" />
    <path
       id="path748"
       transform="translate(20.791035 5.241035)"
       d="m0 0 .01.01" />
    <path
       id="path750"
       transform="translate(26.353535 4.178535)"
       d="m0 0 .01.01" />
    <path
       id="path752"
       transform="translate(31.541035 5.428535)"
       d="m0 0 .01.01" />
    <path
       id="path754"
       transform="translate(37.041035 4.428535)"
       d="m0 0 .01.01" />
    <path
       id="path756"
       transform="translate(42.416035 4.928535)"
       d="m0 0 .01.01" />
    <path
       id="path758"
       transform="translate(40.853535 44.303535)"
       d="m0 0 .01.01" />
    <path
       id="path760"
       transform="translate(47.353535 44.428535)"
       d="m0 0 .01.01" />
    <path
       id="path762"
       transform="translate(40.478535 39.678535)"
       d="m0 0 .01.01" />
    <path
       id="path764"
       transform="translate(3.353535 39.803535)"
       d="m0 0 .01.01" />
    <path
       id="path766"
       transform="translate(50.853535 38.928535)"
       d="m0 0 .01.01" />
    <path
       id="path768"
       transform="translate(45.853535 39.678535)"
       d="m0 0 .01.01" />
    <path
       id="path770"
       transform="translate(37.853535 33.553535)"
       d="m0 0 .01.01" />
    <path
       id="path772"
       transform="translate(42.728535 35.053535)"
       d="m0 0 .01.01" />
    <path
       id="path774"
       transform="translate(48.353535 34.303535)"
       d="m0 0 .01.01" />
    <path
       id="path776"
       transform="translate(49.853535 19.803535)"
       d="m0 0 .01.01" />
    <path
       id="path778"
       transform="translate(49.978535 9.928535)"
       d="m0 0 .01.01" />
    <path
       id="path780"
       transform="translate(52.978535 53.303535)"
       d="m0 0 .01.01" />
    <path
       id="path782"
       transform="translate(40.353535 53.428535)"
       d="m0 0 .01.01" />
    <path
       id="path784"
       transform="translate(26.478535 53.428535)"
       d="m0 0 .01.01" />
    <path
       id="path786"
       transform="translate(13.103535 53.428535)"
       d="m0 0 .01.01" />
    <path
       id="path788"
       transform="translate(47.978535 5.553535)"
       d="m0 0 .01.01" />
    <path
       id="path790"
       transform="translate(46.853535 .553535)"
       d="m0 0 .01.01" />
    <path
       id="path792"
       transform="translate(53.228535 4.428535)"
       d="m0 0 .01.01" />
    <path
       id="path794"
       transform="translate(53.353535 34.303535)"
       d="m0 0 .01.01" />
    <path
       id="path796"
       transform="translate(53.103535 43.803535)"
       d="m0 0 .01.01" />
    <path
       id="path798"
       transform="translate(36.228535 43.178535)"
       d="m0 0 .01.01" />
    <path
       id="path800"
       transform="translate(31.666035 44.803535)"
       d="m0 0 .01.01" />
    <path
       id="path802"
       transform="translate(25.978535 43.866035)"
       d="m0 0 .01.01" />
    <path
       id="path804"
       transform="translate(21.166035 43.741035)"
       d="m0 0 .01.01" />
    <path
       id="path806"
       transform="translate(16.791035 44.803535)"
       d="m0 0 .01.01" />
    <path
       id="path808"
       transform="translate(10.853535 43.491035)"
       d="m0 0 .01.01" />
    <path
       id="path810"
       transform="translate(5.728535 44.616035)"
       d="m0 0 .01.01" />
    <path
       id="path812"
       transform="translate(8.041035 38.803535)"
       d="m0 0 .01.01" />
    <path
       id="path814"
       transform="translate(14.041035 39.616035)"
       d="m0 0 .01.01" />
    <path
       id="path816"
       transform="translate(19.103535 39.428535)"
       d="m0 0 .01.01" />
    <path
       id="path818"
       transform="translate(24.603535 38.803535)"
       d="m0 0 .01.01" />
    <path
       id="path820"
       transform="translate(29.791035 40.178535)"
       d="m0 0 .01.01" />
    <path
       id="path822"
       transform="translate(35.228535 38.991035)"
       d="m0 0 .01.01" />
    <path
       id="path824"
       transform="translate(32.416035 34.491035)"
       d="m0 0 .01.01" />
    <path
       id="path826"
       transform="translate(26.541035 33.803535)"
       d="m0 0 .01.01" />
    <path
       id="path828"
       transform="translate(21.291035 34.116035)"
       d="m0 0 .01.01" />
    <path
       id="path830"
       transform="translate(15.978535 34.866035)"
       d="m0 0 .01.01" />
    <path
       id="path832"
       transform="translate(10.791035 33.553535)"
       d="m0 0 .01.01" />
    <path
       id="path834"
       transform="translate(5.666035 34.678535)"
       d="m0 0 .01.01" />
  </g>
</svg>
