<?xml version="1.0" encoding="UTF-8" standalone="no"?>
<svg
   xmlns:dc="http://purl.org/dc/elements/1.1/"
   xmlns:cc="http://creativecommons.org/ns#"
   xmlns:rdf="http://www.w3.org/1999/02/22-rdf-syntax-ns#"
   xmlns:svg="http://www.w3.org/2000/svg"
   xmlns="http://www.w3.org/2000/svg"
   id="svg566"
   version="1.1"
   width="54.125"
   height="54.125">
  <defs
     id="defs570" />
  <metadata
     id="metadata2">citation: U.S. Geological Survey, 2006, FGDC Digital Cartographic Standard for Geologic Map Symbolization (PostScript Implementation): U.S. Geological Survey Techniques and Methods 11-A2 [pubs.usgs.gov/tm/2006/11A02/]. converted by CEC Geology LLC 2018 from the USGS lithologic gs converted to inkscape by the University of Otago.<rdf:RDF>
  <cc:Work
     rdf:about="">
    <dc:format>image/svg+xml</dc:format>
    <dc:type
       rdf:resource="http://purl.org/dc/dcmitype/StillImage" />
    <dc:title></dc:title>
  </cc:Work>
</rdf:RDF>
</metadata>
  <g
     id="g564"
     width="54.125"
     transform="matrix(1 0 0 -1 0 54.125)"
     stroke="#231f20"
     height="54.125"
     fill="none">
    <path
       id="path4"
       transform="translate(5.666 52.7705)"
       stroke-width=".3"
       d="m0 0h9.084" />
    <path
       id="path6"
       transform="translate(6.792 52.833)"
       stroke-width=".3"
       d="m0 0 .81 1.14" />
    <path
       id="path8"
       transform="translate(23.791 52.7705)"
       stroke-width=".3"
       d="m0 0h9.084" />
    <path
       id="path10"
       transform="translate(24.917 52.833)"
       stroke-width=".3"
       d="m0 0 .81 1.14" />
    <path
       id="path12"
       transform="translate(41.916 52.7705)"
       stroke-width=".3"
       d="m0 0h9.084" />
    <path
       id="path14"
       transform="translate(43.042 52.833)"
       stroke-width=".3"
       d="m0 0 .81 1.14" />
    <path
       id="path16"
       transform="translate(6.875 49.583)"
       stroke-width=".3"
       d="m0 0h-6.875" />
    <path
       id="path18"
       transform="translate(24.75 49.583)"
       stroke-width=".3"
       d="m0 0h-9.084" />
    <path
       id="path20"
       transform="translate(16.792 49.6455)"
       stroke-width=".3"
       d="m0 0 .81 1.14" />
    <path
       id="path22"
       transform="translate(42.875 49.583)"
       stroke-width=".3"
       d="m0 0h-9.084" />
    <path
       id="path24"
       transform="translate(34.917 49.6455)"
       stroke-width=".3"
       d="m0 0 .81 1.14" />
    <path
       id="path26"
       transform="translate(17 46.583)"
       stroke-width=".3"
       d="m0 0h-9.084" />
    <path
       id="path28"
       transform="translate(9.8516 47.7851)"
       stroke-width=".3"
       d="m0 0-.81-1.14" />
    <path
       id="path30"
       transform="translate(35 46.583)"
       stroke-width=".3"
       d="m0 0h-9.084" />
    <path
       id="path32"
       transform="translate(27.8516 47.7851)"
       stroke-width=".3"
       d="m0 0-.81-1.14" />
    <path
       id="path34"
       transform="translate(43.791 46.583)"
       stroke-width=".3"
       d="m0 0h9.084" />
    <path
       id="path36"
       transform="translate(45.7266 47.7851)"
       stroke-width=".3"
       d="m0 0-.81-1.14" />
    <path
       id="path38"
       transform="translate(6.875 43.708)"
       stroke-width=".3"
       d="m0 0h-6.875" />
    <path
       id="path40"
       transform="translate(15.666 43.708)"
       stroke-width=".3"
       d="m0 0h9.084" />
    <path
       id="path42"
       transform="translate(16.792 43.7705)"
       stroke-width=".3"
       d="m0 0 .81 1.14" />
    <path
       id="path44"
       transform="translate(33.666 43.708)"
       stroke-width=".3"
       d="m0 0h9.084" />
    <path
       id="path46"
       transform="translate(34.792 43.7705)"
       stroke-width=".3"
       d="m0 0 .81 1.14" />
    <path
       id="path48"
       transform="translate(41.666 40.708)"
       stroke-width=".3"
       d="m0 0h9.084" />
    <path
       id="path50"
       transform="translate(42.792 40.7705)"
       stroke-width=".3"
       d="m0 0 .81 1.14" />
    <path
       id="path52"
       transform="translate(23.666 40.708)"
       stroke-width=".3"
       d="m0 0h9.084" />
    <path
       id="path54"
       transform="translate(24.792 40.7705)"
       stroke-width=".3"
       d="m0 0 .81 1.14" />
    <path
       id="path56"
       transform="translate(14.625 40.708)"
       stroke-width=".3"
       d="m0 0h-9.084" />
    <path
       id="path58"
       transform="translate(7.4766 41.9101)"
       stroke-width=".3"
       d="m0 0-.81-1.14" />
    <path
       id="path60"
       transform="translate(0 37.583)"
       stroke-width=".3"
       d="m0 0h5.125" />
    <path
       id="path62"
       transform="translate(23.125 37.583)"
       stroke-width=".3"
       d="m0 0h-9.084" />
    <path
       id="path64"
       transform="translate(15.9766 38.7851)"
       stroke-width=".3"
       d="m0 0-.81-1.14" />
    <path
       id="path66"
       transform="translate(31.916 37.583)"
       stroke-width=".3"
       d="m0 0h9.084" />
    <path
       id="path68"
       transform="translate(33.8516 38.7851)"
       stroke-width=".3"
       d="m0 0-.81-1.14" />
    <path
       id="path70"
       transform="translate(41.666 34.708)"
       stroke-width=".3"
       d="m0 0h9.084" />
    <path
       id="path72"
       transform="translate(42.792 34.7705)"
       stroke-width=".3"
       d="m0 0 .81 1.14" />
    <path
       id="path74"
       transform="translate(32.875 34.708)"
       stroke-width=".3"
       d="m0 0h-9.084" />
    <path
       id="path76"
       transform="translate(24.917 34.7705)"
       stroke-width=".3"
       d="m0 0 .81 1.14" />
    <path
       id="path78"
       transform="translate(5.916 34.708)"
       stroke-width=".3"
       d="m0 0h9.084" />
    <path
       id="path80"
       transform="translate(7.042 34.7705)"
       stroke-width=".3"
       d="m0 0 .81 1.14" />
    <path
       id="path82"
       transform="translate(5 31.583)"
       stroke-width=".3"
       d="m0 0h-5" />
    <path
       id="path84"
       transform="translate(13.791 31.583)"
       stroke-width=".3"
       d="m0 0h9.084" />
    <path
       id="path86"
       transform="translate(14.917 31.6455)"
       stroke-width=".3"
       d="m0 0 .81 1.14" />
    <path
       id="path88"
       transform="translate(31.791 31.583)"
       stroke-width=".3"
       d="m0 0h9.084" />
    <path
       id="path90"
       transform="translate(33.7266 32.7851)"
       stroke-width=".3"
       d="m0 0-.81-1.14" />
    <path
       id="path92"
       transform="translate(39.791 28.583)"
       stroke-width=".3"
       d="m0 0h9.084" />
    <path
       id="path94"
       transform="translate(41.7266 29.7851)"
       stroke-width=".3"
       d="m0 0-.81-1.14" />
    <path
       id="path96"
       transform="translate(30.875 28.583)"
       stroke-width=".3"
       d="m0 0h-9.084" />
    <path
       id="path98"
       transform="translate(23.7266 29.7851)"
       stroke-width=".3"
       d="m0 0-.81-1.14" />
    <path
       id="path100"
       transform="translate(12.625 28.583)"
       stroke-width=".3"
       d="m0 0h-9.084" />
    <path
       id="path102"
       transform="translate(4.667 28.6455)"
       stroke-width=".3"
       d="m0 0 .81 1.14" />
    <path
       id="path104"
       transform="translate(0 25.458)"
       stroke-width=".3"
       d="m0 0h3" />
    <path
       id="path106"
       transform="translate(20.875 25.458)"
       stroke-width=".3"
       d="m0 0h-9.084" />
    <path
       id="path108"
       transform="translate(13.7266 26.6601)"
       stroke-width=".3"
       d="m0 0-.81-1.14" />
    <path
       id="path110"
       transform="translate(29.916 25.458)"
       stroke-width=".3"
       d="m0 0h9.084" />
    <path
       id="path112"
       transform="translate(31.8516 26.6601)"
       stroke-width=".3"
       d="m0 0-.81-1.14" />
    <path
       id="path114"
       transform="translate(46.75 22.583)"
       stroke-width=".3"
       d="m0 0h-9.084" />
    <path
       id="path116"
       transform="translate(39.6016 23.7851)"
       stroke-width=".3"
       d="m0 0-.81-1.14" />
    <path
       id="path118"
       transform="translate(19.666 22.583)"
       stroke-width=".3"
       d="m0 0h9.084" />
    <path
       id="path120"
       transform="translate(20.792 22.6455)"
       stroke-width=".3"
       d="m0 0 .81 1.14" />
    <path
       id="path122"
       transform="translate(10.875 22.583)"
       stroke-width=".3"
       d="m0 0h-9.084" />
    <path
       id="path124"
       transform="translate(3.7266 23.7851)"
       stroke-width=".3"
       d="m0 0-.81-1.14" />
    <path
       id="path126"
       transform="translate(2.625 19.458)"
       stroke-width=".3"
       d="m0 0h-2.625" />
    <path
       id="path128"
       transform="translate(20.625 19.458)"
       stroke-width=".3"
       d="m0 0h-9.084" />
    <path
       id="path130"
       transform="translate(12.667 19.5205)"
       stroke-width=".3"
       d="m0 0 .81 1.14" />
    <path
       id="path132"
       transform="translate(29.541 19.458)"
       stroke-width=".3"
       d="m0 0h9.084" />
    <path
       id="path134"
       transform="translate(31.4766 20.6601)"
       stroke-width=".3"
       d="m0 0-.81-1.14" />
    <path
       id="path136"
       transform="translate(39.791 16.458)"
       stroke-width=".3"
       d="m0 0h9.084" />
    <path
       id="path138"
       transform="translate(41.7266 17.6601)"
       stroke-width=".3"
       d="m0 0-.81-1.14" />
    <path
       id="path140"
       transform="translate(21.791 16.458)"
       stroke-width=".3"
       d="m0 0h9.084" />
    <path
       id="path142"
       transform="translate(23.7266 17.6601)"
       stroke-width=".3"
       d="m0 0-.81-1.14" />
    <path
       id="path144"
       transform="translate(12.875 16.458)"
       stroke-width=".3"
       d="m0 0h-9.084" />
    <path
       id="path146"
       transform="translate(4.917 16.5205)"
       stroke-width=".3"
       d="m0 0 .81 1.14" />
    <path
       id="path148"
       transform="translate(5.125 13.458)"
       stroke-width=".3"
       d="m0 0h-5.125" />
    <path
       id="path150"
       transform="translate(13.916 13.458)"
       stroke-width=".3"
       d="m0 0h9.084" />
    <path
       id="path152"
       transform="translate(15.042 13.5205)"
       stroke-width=".3"
       d="m0 0 .81 1.14" />
    <path
       id="path154"
       transform="translate(31.791 13.458)"
       stroke-width=".3"
       d="m0 0h9.084" />
    <path
       id="path156"
       transform="translate(33.7266 14.6601)"
       stroke-width=".3"
       d="m0 0-.81-1.14" />
    <path
       id="path158"
       transform="translate(41.666 10.583)"
       stroke-width=".3"
       d="m0 0h9.084" />
    <path
       id="path160"
       transform="translate(43.6016 11.7851)"
       stroke-width=".3"
       d="m0 0-.81-1.14" />
    <path
       id="path162"
       transform="translate(33 10.583)"
       stroke-width=".3"
       d="m0 0h-9.084" />
    <path
       id="path164"
       transform="translate(25.042 10.6455)"
       stroke-width=".3"
       d="m0 0 .81 1.14" />
    <path
       id="path166"
       transform="translate(15 10.583)"
       stroke-width=".3"
       d="m0 0h-9.084" />
    <path
       id="path168"
       transform="translate(7.042 10.6455)"
       stroke-width=".3"
       d="m0 0 .81 1.14" />
    <path
       id="path170"
       transform="translate(6.5 7.333)"
       stroke-width=".3"
       d="m0 0h-6.5" />
    <path
       id="path172"
       transform="translate(15.541 7.333)"
       stroke-width=".3"
       d="m0 0h9.084" />
    <path
       id="path174"
       transform="translate(17.4766 8.5351)"
       stroke-width=".3"
       d="m0 0-.81-1.14" />
    <path
       id="path176"
       transform="translate(33.666 7.333)"
       stroke-width=".3"
       d="m0 0h9.084" />
    <path
       id="path178"
       transform="translate(35.6016 8.5351)"
       stroke-width=".3"
       d="m0 0-.81-1.14" />
    <path
       id="path180"
       transform="translate(50.75 4.458)"
       stroke-width=".3"
       d="m0 0h-9.084" />
    <path
       id="path182"
       transform="translate(43.6016 5.6601)"
       stroke-width=".3"
       d="m0 0-.81-1.14" />
    <path
       id="path184"
       transform="translate(33 4.458)"
       stroke-width=".3"
       d="m0 0h-9.084" />
    <path
       id="path186"
       transform="translate(25.8516 5.6601)"
       stroke-width=".3"
       d="m0 0-.81-1.14" />
    <path
       id="path188"
       transform="translate(14.875 4.458)"
       stroke-width=".3"
       d="m0 0h-9.084" />
    <path
       id="path190"
       transform="translate(7.7266 5.6601)"
       stroke-width=".3"
       d="m0 0-.81-1.14" />
    <path
       id="path192"
       transform="translate(0 1.333)"
       stroke-width=".3"
       d="m0 0h5.125" />
    <path
       id="path194"
       transform="translate(22.875 1.333)"
       stroke-width=".3"
       d="m0 0h-9.084" />
    <path
       id="path196"
       transform="translate(15.7266 2.5351)"
       stroke-width=".3"
       d="m0 0-.81-1.14" />
    <path
       id="path198"
       transform="translate(40.75 1.333)"
       stroke-width=".3"
       d="m0 0h-9.084" />
    <path
       id="path200"
       transform="translate(32.792 1.3955)"
       stroke-width=".3"
       d="m0 0 .81 1.14" />
    <path
       id="path202"
       transform="translate(51.958 49.583)"
       stroke-width=".3"
       d="m0 0h2.167" />
    <path
       id="path204"
       transform="translate(53.083 49.6455)"
       stroke-width=".3"
       d="m0 0 .811 1.14" />
    <path
       id="path206"
       transform="translate(54.125 43.708)"
       stroke-width=".3"
       d="m0 0h-2.167" />
    <path
       id="path208"
       transform="translate(53.8936 44.9101)"
       stroke-width=".3"
       d="m0 0-.811-1.14" />
    <path
       id="path210"
       transform="translate(50.208 37.583)"
       stroke-width=".3"
       d="m0 0h3.917" />
    <path
       id="path212"
       transform="translate(51.333 37.6455)"
       stroke-width=".3"
       d="m0 0 .811 1.14" />
    <path
       id="path214"
       transform="translate(54.125 31.583)"
       stroke-width=".3"
       d="m0 0h-4.042" />
    <path
       id="path216"
       transform="translate(51.208 31.6455)"
       stroke-width=".3"
       d="m0 0 .811 1.14" />
    <path
       id="path218"
       transform="translate(54.125 25.458)"
       stroke-width=".3"
       d="m0 0h-6.042" />
    <path
       id="path220"
       transform="translate(50.0186 26.6601)"
       stroke-width=".3"
       d="m0 0-.811-1.14" />
    <path
       id="path222"
       transform="translate(54.125 19.458)"
       stroke-width=".3"
       d="m0 0h-6.417" />
    <path
       id="path224"
       transform="translate(49.6436 20.6601)"
       stroke-width=".3"
       d="m0 0-.811-1.14" />
    <path
       id="path226"
       transform="translate(50.208 13.458)"
       stroke-width=".3"
       d="m0 0h3.917" />
    <path
       id="path228"
       transform="translate(52.1436 14.6601)"
       stroke-width=".3"
       d="m0 0-.811-1.14" />
    <path
       id="path230"
       transform="translate(54.125 7.333)"
       stroke-width=".3"
       d="m0 0h-2.542" />
    <path
       id="path232"
       transform="translate(53.5186 8.5351)"
       stroke-width=".3"
       d="m0 0-.811-1.14" />
    <path
       id="path234"
       transform="translate(50.208 1.333)"
       stroke-width=".3"
       d="m0 0h3.917" />
    <path
       id="path236"
       transform="translate(51.333 1.3955)"
       stroke-width=".3"
       d="m0 0 .811 1.14" />
    <g
       id="g562"
       stroke-width=".7"
       stroke-linecap="round">
      <path
         id="path238"
         transform="translate(11.3379 49.5664)"
         d="m0 0 .01.01" />
      <path
         id="path240"
         transform="translate(13.6182 49.5664)"
         d="m0 0 .01.01" />
      <path
         id="path242"
         transform="translate(8.9512 49.5664)"
         d="m0 0 .01.01" />
      <path
         id="path244"
         transform="translate(29.3418 49.5664)"
         d="m0 0 .01.01" />
      <path
         id="path246"
         transform="translate(31.6211 49.5664)"
         d="m0 0 .01.01" />
      <path
         id="path248"
         transform="translate(26.9551 49.5664)"
         d="m0 0 .01.01" />
      <path
         id="path250"
         transform="translate(47.4248 49.5664)"
         d="m0 0 .01.01" />
      <path
         id="path252"
         transform="translate(49.7051 49.5664)"
         d="m0 0 .01.01" />
      <path
         id="path254"
         transform="translate(45.0381 49.5664)"
         d="m0 0 .01.01" />
      <path
         id="path256"
         transform="translate(39.5078 46.5664)"
         d="m0 0 .01.01" />
      <path
         id="path258"
         transform="translate(41.7881 46.5664)"
         d="m0 0 .01.01" />
      <path
         id="path260"
         transform="translate(37.1211 46.5664)"
         d="m0 0 .01.01" />
      <path
         id="path262"
         transform="translate(21.5078 46.5664)"
         d="m0 0 .01.01" />
      <path
         id="path264"
         transform="translate(23.7881 46.5664)"
         d="m0 0 .01.01" />
      <path
         id="path266"
         transform="translate(19.1211 46.5664)"
         d="m0 0 .01.01" />
      <path
         id="path268"
         transform="translate(3.5479 46.5664)"
         d="m0 0 .01.01" />
      <path
         id="path270"
         transform="translate(5.8281 46.5664)"
         d="m0 0 .01.01" />
      <path
         id="path272"
         transform="translate(1.1611 46.5664)"
         d="m0 0 .01.01" />
      <path
         id="path274"
         transform="translate(19.1748 52.6894)"
         d="m0 0 .01.01" />
      <path
         id="path276"
         transform="translate(21.4551 52.6894)"
         d="m0 0 .01.01" />
      <path
         id="path278"
         transform="translate(16.7881 52.6894)"
         d="m0 0 .01.01" />
      <path
         id="path280"
         transform="translate(1.2979 52.6894)"
         d="m0 0 .01.01" />
      <path
         id="path282"
         transform="translate(3.5781 52.6894)"
         d="m0 0 .01.01" />
      <path
         id="path284"
         transform="translate(37.4248 52.6894)"
         d="m0 0 .01.01" />
      <path
         id="path286"
         transform="translate(39.7051 52.6894)"
         d="m0 0 .01.01" />
      <path
         id="path288"
         transform="translate(35.0381 52.6894)"
         d="m0 0 .01.01" />
      <path
         id="path290"
         transform="translate(52.8281 52.6894)"
         d="m0 0 .01.01" />
      <path
         id="path292"
         transform="translate(29.2012 43.666)"
         d="m0 0 .01.01" />
      <path
         id="path294"
         transform="translate(31.4815 43.666)"
         d="m0 0 .01.01" />
      <path
         id="path296"
         transform="translate(26.8145 43.666)"
         d="m0 0 .01.01" />
      <path
         id="path298"
         transform="translate(11.3242 43.666)"
         d="m0 0 .01.01" />
      <path
         id="path300"
         transform="translate(13.6045 43.666)"
         d="m0 0 .01.01" />
      <path
         id="path302"
         transform="translate(8.9385 43.666)"
         d="m0 0 .01.01" />
      <path
         id="path304"
         transform="translate(47.4512 43.666)"
         d="m0 0 .01.01" />
      <path
         id="path306"
         transform="translate(49.7315 43.666)"
         d="m0 0 .01.01" />
      <path
         id="path308"
         transform="translate(45.0645 43.666)"
         d="m0 0 .01.01" />
      <path
         id="path310"
         transform="translate(19.0498 40.6709)"
         d="m0 0 .01.01" />
      <path
         id="path312"
         transform="translate(21.3301 40.6709)"
         d="m0 0 .01.01" />
      <path
         id="path314"
         transform="translate(16.6631 40.6709)"
         d="m0 0 .01.01" />
      <path
         id="path316"
         transform="translate(1.1729 40.6709)"
         d="m0 0 .01.01" />
      <path
         id="path318"
         transform="translate(3.4531 40.6709)"
         d="m0 0 .01.01" />
      <path
         id="path320"
         transform="translate(37.2998 40.6709)"
         d="m0 0 .01.01" />
      <path
         id="path322"
         transform="translate(39.5801 40.6709)"
         d="m0 0 .01.01" />
      <path
         id="path324"
         transform="translate(34.9131 40.6709)"
         d="m0 0 .01.01" />
      <path
         id="path326"
         transform="translate(52.7031 40.6709)"
         d="m0 0 .01.01" />
      <path
         id="path328"
         transform="translate(27.4873 37.5459)"
         d="m0 0 .01.01" />
      <path
         id="path330"
         transform="translate(29.7676 37.5459)"
         d="m0 0 .01.01" />
      <path
         id="path332"
         transform="translate(25.1006 37.5459)"
         d="m0 0 .01.01" />
      <path
         id="path334"
         transform="translate(9.6104 37.5459)"
         d="m0 0 .01.01" />
      <path
         id="path336"
         transform="translate(11.8906 37.5459)"
         d="m0 0 .01.01" />
      <path
         id="path338"
         transform="translate(7.2236 37.5459)"
         d="m0 0 .01.01" />
      <path
         id="path340"
         transform="translate(45.7373 37.5459)"
         d="m0 0 .01.01" />
      <path
         id="path342"
         transform="translate(48.0176 37.5459)"
         d="m0 0 .01.01" />
      <path
         id="path344"
         transform="translate(43.3506 37.5459)"
         d="m0 0 .01.01" />
      <path
         id="path346"
         transform="translate(18.9248 34.6709)"
         d="m0 0 .01.01" />
      <path
         id="path348"
         transform="translate(21.2051 34.6709)"
         d="m0 0 .01.01" />
      <path
         id="path350"
         transform="translate(16.5381 34.6709)"
         d="m0 0 .01.01" />
      <path
         id="path352"
         transform="translate(1.0479 34.6709)"
         d="m0 0 .01.01" />
      <path
         id="path354"
         transform="translate(3.3281 34.6709)"
         d="m0 0 .01.01" />
      <path
         id="path356"
         transform="translate(37.1748 34.6709)"
         d="m0 0 .01.01" />
      <path
         id="path358"
         transform="translate(39.4551 34.6709)"
         d="m0 0 .01.01" />
      <path
         id="path360"
         transform="translate(34.7881 34.6709)"
         d="m0 0 .01.01" />
      <path
         id="path362"
         transform="translate(52.5781 34.6709)"
         d="m0 0 .01.01" />
      <path
         id="path364"
         transform="translate(27.3623 31.6084)"
         d="m0 0 .01.01" />
      <path
         id="path366"
         transform="translate(29.6426 31.6084)"
         d="m0 0 .01.01" />
      <path
         id="path368"
         transform="translate(24.9756 31.6084)"
         d="m0 0 .01.01" />
      <path
         id="path370"
         transform="translate(9.4854 31.6084)"
         d="m0 0 .01.01" />
      <path
         id="path372"
         transform="translate(11.7656 31.6084)"
         d="m0 0 .01.01" />
      <path
         id="path374"
         transform="translate(7.0986 31.6084)"
         d="m0 0 .01.01" />
      <path
         id="path376"
         transform="translate(45.6123 31.6084)"
         d="m0 0 .01.01" />
      <path
         id="path378"
         transform="translate(47.8926 31.6084)"
         d="m0 0 .01.01" />
      <path
         id="path380"
         transform="translate(43.2256 31.6084)"
         d="m0 0 .01.01" />
      <path
         id="path382"
         transform="translate(17.1123 28.6084)"
         d="m0 0 .01.01" />
      <path
         id="path384"
         transform="translate(19.3926 28.6084)"
         d="m0 0 .01.01" />
      <path
         id="path386"
         transform="translate(14.7256 28.6084)"
         d="m0 0 .01.01" />
      <path
         id="path388"
         transform="translate(1.5156 28.6084)"
         d="m0 0 .01.01" />
      <path
         id="path390"
         transform="translate(35.3623 28.6084)"
         d="m0 0 .01.01" />
      <path
         id="path392"
         transform="translate(37.6426 28.6084)"
         d="m0 0 .01.01" />
      <path
         id="path394"
         transform="translate(32.9756 28.6084)"
         d="m0 0 .01.01" />
      <path
         id="path396"
         transform="translate(53.1524 28.6084)"
         d="m0 0 .01.01" />
      <path
         id="path398"
         transform="translate(50.7656 28.6084)"
         d="m0 0 .01.01" />
      <path
         id="path400"
         transform="translate(25.2998 25.4834)"
         d="m0 0 .01.01" />
      <path
         id="path402"
         transform="translate(27.5801 25.4834)"
         d="m0 0 .01.01" />
      <path
         id="path404"
         transform="translate(22.9131 25.4834)"
         d="m0 0 .01.01" />
      <path
         id="path406"
         transform="translate(7.4229 25.4834)"
         d="m0 0 .01.01" />
      <path
         id="path408"
         transform="translate(9.7031 25.4834)"
         d="m0 0 .01.01" />
      <path
         id="path410"
         transform="translate(5.0361 25.4834)"
         d="m0 0 .01.01" />
      <path
         id="path412"
         transform="translate(43.5498 25.4834)"
         d="m0 0 .01.01" />
      <path
         id="path414"
         transform="translate(45.8301 25.4834)"
         d="m0 0 .01.01" />
      <path
         id="path416"
         transform="translate(41.1631 25.4834)"
         d="m0 0 .01.01" />
      <path
         id="path418"
         transform="translate(14.9873 22.5459)"
         d="m0 0 .01.01" />
      <path
         id="path420"
         transform="translate(17.2676 22.5459)"
         d="m0 0 .01.01" />
      <path
         id="path422"
         transform="translate(12.6006 22.5459)"
         d="m0 0 .01.01" />
      <path
         id="path424"
         transform="translate(33.2373 22.5459)"
         d="m0 0 .01.01" />
      <path
         id="path426"
         transform="translate(35.5176 22.5459)"
         d="m0 0 .01.01" />
      <path
         id="path428"
         transform="translate(30.8506 22.5459)"
         d="m0 0 .01.01" />
      <path
         id="path430"
         transform="translate(51.0274 22.5459)"
         d="m0 0 .01.01" />
      <path
         id="path432"
         transform="translate(53.3067 22.5459)"
         d="m0 0 .01.01" />
      <path
         id="path434"
         transform="translate(48.6406 22.5459)"
         d="m0 0 .01.01" />
      <path
         id="path436"
         transform="translate(24.9873 19.4209)"
         d="m0 0 .01.01" />
      <path
         id="path438"
         transform="translate(27.2676 19.4209)"
         d="m0 0 .01.01" />
      <path
         id="path440"
         transform="translate(22.6006 19.4209)"
         d="m0 0 .01.01" />
      <path
         id="path442"
         transform="translate(7.1104 19.4209)"
         d="m0 0 .01.01" />
      <path
         id="path444"
         transform="translate(9.3906 19.4209)"
         d="m0 0 .01.01" />
      <path
         id="path446"
         transform="translate(4.7236 19.4209)"
         d="m0 0 .01.01" />
      <path
         id="path448"
         transform="translate(43.2373 19.4209)"
         d="m0 0 .01.01" />
      <path
         id="path450"
         transform="translate(45.5176 19.4209)"
         d="m0 0 .01.01" />
      <path
         id="path452"
         transform="translate(40.8506 19.4209)"
         d="m0 0 .01.01" />
      <path
         id="path454"
         transform="translate(17.1748 16.4209)"
         d="m0 0 .01.01" />
      <path
         id="path456"
         transform="translate(19.4551 16.4209)"
         d="m0 0 .01.01" />
      <path
         id="path458"
         transform="translate(14.7881 16.4209)"
         d="m0 0 .01.01" />
      <path
         id="path460"
         transform="translate(1.5781 16.4209)"
         d="m0 0 .01.01" />
      <path
         id="path462"
         transform="translate(35.4248 16.4209)"
         d="m0 0 .01.01" />
      <path
         id="path464"
         transform="translate(37.7051 16.4209)"
         d="m0 0 .01.01" />
      <path
         id="path466"
         transform="translate(33.0381 16.4209)"
         d="m0 0 .01.01" />
      <path
         id="path468"
         transform="translate(53.2149 16.4209)"
         d="m0 0 .01.01" />
      <path
         id="path470"
         transform="translate(50.8281 16.4209)"
         d="m0 0 .01.01" />
      <path
         id="path472"
         transform="translate(27.3623 13.4209)"
         d="m0 0 .01.01" />
      <path
         id="path474"
         transform="translate(29.6426 13.4209)"
         d="m0 0 .01.01" />
      <path
         id="path476"
         transform="translate(24.9756 13.4209)"
         d="m0 0 .01.01" />
      <path
         id="path478"
         transform="translate(9.4854 13.4209)"
         d="m0 0 .01.01" />
      <path
         id="path480"
         transform="translate(11.7656 13.4209)"
         d="m0 0 .01.01" />
      <path
         id="path482"
         transform="translate(7.0986 13.4209)"
         d="m0 0 .01.01" />
      <path
         id="path484"
         transform="translate(45.6123 13.4209)"
         d="m0 0 .01.01" />
      <path
         id="path486"
         transform="translate(47.8926 13.4209)"
         d="m0 0 .01.01" />
      <path
         id="path488"
         transform="translate(43.2256 13.4209)"
         d="m0 0 .01.01" />
      <path
         id="path490"
         transform="translate(19.1748 10.6084)"
         d="m0 0 .01.01" />
      <path
         id="path492"
         transform="translate(21.4551 10.6084)"
         d="m0 0 .01.01" />
      <path
         id="path494"
         transform="translate(16.7881 10.6084)"
         d="m0 0 .01.01" />
      <path
         id="path496"
         transform="translate(1.2979 10.6084)"
         d="m0 0 .01.01" />
      <path
         id="path498"
         transform="translate(3.5781 10.6084)"
         d="m0 0 .01.01" />
      <path
         id="path500"
         transform="translate(37.4248 10.6084)"
         d="m0 0 .01.01" />
      <path
         id="path502"
         transform="translate(39.7051 10.6084)"
         d="m0 0 .01.01" />
      <path
         id="path504"
         transform="translate(35.0381 10.6084)"
         d="m0 0 .01.01" />
      <path
         id="path506"
         transform="translate(52.8281 10.6084)"
         d="m0 0 .01.01" />
      <path
         id="path508"
         transform="translate(29.0498 7.2959)"
         d="m0 0 .01.01" />
      <path
         id="path510"
         transform="translate(31.3301 7.2959)"
         d="m0 0 .01.01" />
      <path
         id="path512"
         transform="translate(26.6631 7.2959)"
         d="m0 0 .01.01" />
      <path
         id="path514"
         transform="translate(11.1729 7.2959)"
         d="m0 0 .01.01" />
      <path
         id="path516"
         transform="translate(13.4531 7.2959)"
         d="m0 0 .01.01" />
      <path
         id="path518"
         transform="translate(8.7861 7.2959)"
         d="m0 0 .01.01" />
      <path
         id="path520"
         transform="translate(47.2998 7.2959)"
         d="m0 0 .01.01" />
      <path
         id="path522"
         transform="translate(49.5801 7.2959)"
         d="m0 0 .01.01" />
      <path
         id="path524"
         transform="translate(44.9131 7.2959)"
         d="m0 0 .01.01" />
      <path
         id="path526"
         transform="translate(19.2373 4.4209)"
         d="m0 0 .01.01" />
      <path
         id="path528"
         transform="translate(21.5176 4.4209)"
         d="m0 0 .01.01" />
      <path
         id="path530"
         transform="translate(16.8506 4.4209)"
         d="m0 0 .01.01" />
      <path
         id="path532"
         transform="translate(1.3604 4.4209)"
         d="m0 0 .01.01" />
      <path
         id="path534"
         transform="translate(3.6406 4.4209)"
         d="m0 0 .01.01" />
      <path
         id="path536"
         transform="translate(37.4873 4.4209)"
         d="m0 0 .01.01" />
      <path
         id="path538"
         transform="translate(39.7676 4.4209)"
         d="m0 0 .01.01" />
      <path
         id="path540"
         transform="translate(35.1006 4.4209)"
         d="m0 0 .01.01" />
      <path
         id="path542"
         transform="translate(52.8906 4.4209)"
         d="m0 0 .01.01" />
      <path
         id="path544"
         transform="translate(27.4248 1.2959)"
         d="m0 0 .01.01" />
      <path
         id="path546"
         transform="translate(29.7051 1.2959)"
         d="m0 0 .01.01" />
      <path
         id="path548"
         transform="translate(25.0381 1.2959)"
         d="m0 0 .01.01" />
      <path
         id="path550"
         transform="translate(9.5479 1.2959)"
         d="m0 0 .01.01" />
      <path
         id="path552"
         transform="translate(11.8281 1.2959)"
         d="m0 0 .01.01" />
      <path
         id="path554"
         transform="translate(7.1611 1.2959)"
         d="m0 0 .01.01" />
      <path
         id="path556"
         transform="translate(45.6748 1.2959)"
         d="m0 0 .01.01" />
      <path
         id="path558"
         transform="translate(47.9551 1.2959)"
         d="m0 0 .01.01" />
      <path
         id="path560"
         transform="translate(43.2881 1.2959)"
         d="m0 0 .01.01" />
    </g>
  </g>
</svg>
