<?xml version="1.0" encoding="UTF-8" standalone="no"?>
<svg
   xmlns:dc="http://purl.org/dc/elements/1.1/"
   xmlns:cc="http://creativecommons.org/ns#"
   xmlns:rdf="http://www.w3.org/1999/02/22-rdf-syntax-ns#"
   xmlns:svg="http://www.w3.org/2000/svg"
   xmlns="http://www.w3.org/2000/svg"
   xmlns:sodipodi="http://sodipodi.sourceforge.net/DTD/sodipodi-0.dtd"
   xmlns:inkscape="http://www.inkscape.org/namespaces/inkscape"
   height="52.616795"
   width="53.5849"
   version="1.1"
   id="svg240"
   sodipodi:docname="sed621_cleaned_cleaned.svg"
   inkscape:version="0.92.2 (5c3e80d, 2017-08-06)">
  <defs
     id="defs244" />
  <sodipodi:namedview
     pagecolor="#ffffff"
     bordercolor="#666666"
     borderopacity="1"
     objecttolerance="10"
     gridtolerance="10"
     guidetolerance="10"
     inkscape:pageopacity="0"
     inkscape:pageshadow="2"
     inkscape:window-width="702"
     inkscape:window-height="480"
     id="namedview242"
     showgrid="false"
     inkscape:zoom="4.4852599"
     inkscape:cx="26.79245"
     inkscape:cy="26.308397"
     inkscape:window-x="0"
     inkscape:window-y="0"
     inkscape:window-maximized="0"
     inkscape:current-layer="svg240" />
  <metadata
     id="metadata2">citation: U.S. Geological Survey, 2006, FGDC Digital Cartographic Standard for Geologic Map Symbolization (PostScript Implementation): U.S. Geological Survey Techniques and Methods 11-A2 [pubs.usgs.gov/tm/2006/11A02/]. converted by CEC Geology LLC 2018 from the USGS lithologic gs converted to inkscape by the University of Otago.<rdf:RDF>
  <cc:Work
     rdf:about="">
    <dc:format>image/svg+xml</dc:format>
    <dc:type
       rdf:resource="http://purl.org/dc/dcmitype/StillImage" />
    <dc:title></dc:title>
  </cc:Work>
</rdf:RDF>
</metadata>
  <g
     fill="none"
     stroke="#231f20"
     stroke-width=".3"
     id="g238">
    <path
       d="m3.7768 51.840633h-3.776"
       id="path4" />
    <path
       d="m15.2738 51.840633h6.368"
       id="path6" />
    <path
       d="m24.1899 51.840633h6.369"
       id="path8" />
    <path
       d="m48.392 51.840633h-6.369"
       id="path10" />
    <path
       d="m50.9399 51.840633h2.645"
       id="path12" />
    <path
       d="m8.1088 48.705933h-6.369"
       id="path14" />
    <path
       d="m17.0248 48.705933h-6.369"
       id="path16" />
    <path
       d="m34.8578 48.705933h-6.369"
       id="path18" />
    <path
       d="m37.4057 48.705933h6.369"
       id="path20" />
    <path
       d="m4.35 45.736133h-4.35"
       id="path22" />
    <path
       d="m15.8471 45.736133h6.369"
       id="path24" />
    <path
       d="m24.7631 45.736133h6.369"
       id="path26" />
    <path
       d="m42.5971 45.736133h6.368"
       id="path28" />
    <path
       d="m51.5131 45.736133h2.071"
       id="path30" />
    <path
       d="m7.3119 42.931533h-6.369"
       id="path32" />
    <path
       d="m16.2289 42.931533h-6.369"
       id="path34" />
    <path
       d="m34.0619 42.931533h-6.369"
       id="path36" />
    <path
       d="m36.6098 42.931533h6.369"
       id="path38" />
    <path
       d="m1.7065 39.960733h-1.706"
       id="path40" />
    <path
       d="m13.2035 39.960733h6.369"
       id="path42" />
    <path
       d="m22.1205 39.960733h6.368"
       id="path44" />
    <path
       d="m39.9535 39.960733h6.369"
       id="path46" />
    <path
       d="m48.8696 39.960733h4.715"
       id="path48" />
    <path
       d="m2.974 36.956833h-2.974"
       id="path50" />
    <path
       d="m5.5219 36.956833h6.369"
       id="path52" />
    <path
       d="m23.3549 36.956833h6.369"
       id="path54" />
    <path
       d="m32.2719 36.956833h6.369"
       id="path56" />
    <path
       d="m50.1049 36.956833h3.479"
       id="path58" />
    <path
       d="m2.184 34.074033h-2.184"
       id="path60" />
    <path
       d="m20.0502 34.074033h-6.369"
       id="path62" />
    <path
       d="m22.5981 34.074033h6.369"
       id="path64" />
    <path
       d="m40.4311 34.074033h6.369"
       id="path66" />
    <path
       d="m49.3481 34.074033h4.236"
       id="path68" />
    <path
       d="m6.6752 30.876833h-6.369"
       id="path70" />
    <path
       d="m15.5922 30.876833h-6.369"
       id="path72" />
    <path
       d="m27.0561 30.876833h6.369"
       id="path74" />
    <path
       d="m35.9731 30.876833h6.369"
       id="path76" />
    <path
       d="m3.4584 27.907033h-3.458"
       id="path78" />
    <path
       d="m21.3237 27.907033h-6.368"
       id="path80" />
    <path
       d="m23.8715 27.907033h6.369"
       id="path82" />
    <path
       d="m41.7045 27.907033h6.369"
       id="path84" />
    <path
       d="m50.6215 27.907033h2.963"
       id="path86" />
    <path
       d="m7.9487 24.771333h-6.368"
       id="path88" />
    <path
       d="m10.4965 24.771333h6.369"
       id="path90" />
    <path
       d="m34.6987 24.771333h-6.369"
       id="path92" />
    <path
       d="m37.2465 24.771333h6.369"
       id="path94" />
    <path
       d="m16.7074 21.966633h-6.369"
       id="path96" />
    <path
       d="m25.6235 21.966633h-6.369"
       id="path98" />
    <path
       d="m43.4574 21.966633h-6.369"
       id="path100" />
    <path
       d="m46.0043 21.966633h6.369"
       id="path102" />
    <path
       d="m6.8344 18.831833h-6.369"
       id="path104" />
    <path
       d="m9.3822 18.831833h6.369"
       id="path106" />
    <path
       d="m27.2153 18.831833h6.369"
       id="path108" />
    <path
       d="m36.1322 18.831833h6.369"
       id="path110" />
    <path
       d="m2.184 15.862133h-2.184"
       id="path112" />
    <path
       d="m13.6811 15.862133h6.369"
       id="path114" />
    <path
       d="m22.5981 15.862133h6.369"
       id="path116" />
    <path
       d="m46.8002 15.862133h-6.369"
       id="path118" />
    <path
       d="m49.3481 15.862133h4.236"
       id="path120" />
    <path
       d="m.0004 12.891433h2.012"
       id="path122" />
    <path
       d="m10.9291 12.891433h-6.369"
       id="path124" />
    <path
       d="m22.393 12.891433h6.369"
       id="path126" />
    <path
       d="m37.6791 12.891433h-6.369"
       id="path128" />
    <path
       d="m49.143 12.891433h4.441"
       id="path130" />
    <path
       d="m3.1391 10.095533h-3.139"
       id="path132" />
    <path
       d="m14.6362 10.095533h6.369"
       id="path134" />
    <path
       d="m23.5531 10.095533h6.369"
       id="path136" />
    <path
       d="m41.3862 10.095533h6.369"
       id="path138" />
    <path
       d="m50.3031 10.095533h3.281"
       id="path140" />
    <path
       d="m8.268 6.9607331h-6.369"
       id="path142" />
    <path
       d="m17.184 6.9607331h-6.369"
       id="path144" />
    <path
       d="m35.017 6.9607331h-6.368"
       id="path146" />
    <path
       d="m43.934 6.9607331h-6.369"
       id="path148" />
    <path
       d="m6.8295 3.9910331h-6.369"
       id="path150" />
    <path
       d="m24.6957 3.9910331h-6.369"
       id="path152" />
    <path
       d="m33.6127 3.9910331h-6.369"
       id="path154" />
    <path
       d="m51.4457 3.9910331h-6.369"
       id="path156" />
    <path
       d="m8.5863 1.0203331h-6.369"
       id="path158" />
    <path
       d="m17.5024 1.0203331h-6.369"
       id="path160" />
    <path
       d="m35.3363 1.0203331h-6.369"
       id="path162" />
    <path
       d="m44.2524 1.0203331h-6.369"
       id="path164" />
    <path
       d="m9.4526 52.460733c-3.146-.109-4.719-1.54.121-1.43 4.84.111 3.509 1.54-.121 1.43z"
       id="path166" />
    <path
       d="m36.2748 52.460733c-3.145-.109-4.719-1.54.121-1.43 4.84.111 3.509 1.54-.121 1.43z"
       id="path168" />
    <path
       d="m22.7856 49.340633c-3.146-.109-4.719-1.54.121-1.43s3.509 1.54-.121 1.43z"
       id="path170" />
    <path
       d="m49.6088 49.340633c-3.146-.109-4.72-1.54.121-1.43 4.84.11 3.509 1.54-.121 1.43z"
       id="path172" />
    <path
       d="m10.2729 45.014533c4.841.11 3.51 1.541-.121 1.431-3.146-.111-4.719-1.54.121-1.431z"
       id="path174" />
    <path
       d="m36.975 46.445133c-3.146-.11-4.719-1.54.121-1.431 4.84.111 3.509 1.541-.121 1.431z"
       id="path176" />
    <path
       d="m21.9418 43.840633c-3.146-.109-4.719-1.54.121-1.43s3.509 1.54-.121 1.43z"
       id="path178" />
    <path
       d="m48.8852 42.410933c4.84.109 3.51 1.54-.121 1.43-3.146-.11-4.719-1.54.121-1.43z"
       id="path180" />
    <path
       d="m7.4418 40.840633c-3.146-.109-4.719-1.54.121-1.43s3.509 1.54-.121 1.43z"
       id="path182" />
    <path
       d="m34.2641 40.840633c-3.146-.109-4.719-1.54.121-1.43s3.51 1.54-.121 1.43z"
       id="path184" />
    <path
       d="m17.5072 37.673633c-3.146-.109-4.72-1.539.121-1.43 4.84.111 3.509 1.54-.121 1.43z"
       id="path186" />
    <path
       d="m44.3295 37.673633c-3.146-.109-4.719-1.539.121-1.43 4.84.111 3.509 1.54-.121 1.43z"
       id="path188" />
    <path
       d="m7.8959 33.410933c4.84.109 3.509 1.54-.121 1.43-3.146-.11-4.719-1.54.121-1.43z"
       id="path190" />
    <path
       d="m34.7192 33.410933c4.84.109 3.509 1.54-.121 1.43-3.147-.11-4.72-1.54.121-1.43z"
       id="path192" />
    <path
       d="m21.1088 31.673633c-3.146-.109-4.72-1.539.121-1.43 4.84.111 3.509 1.54-.121 1.43z"
       id="path194" />
    <path
       d="m47.9311 31.673633c-3.146-.109-4.719-1.539.121-1.43 4.84.111 3.509 1.54-.121 1.43z"
       id="path196" />
    <path
       d="m9.3959 27.244033c4.84.11 3.509 1.54-.121 1.43-3.146-.11-4.719-1.539.121-1.43z"
       id="path198" />
    <path
       d="m36.0981 28.673633c-3.146-.109-4.72-1.539.121-1.43 4.84.111 3.509 1.54-.121 1.43z"
       id="path200" />
    <path
       d="m22.2748 25.673633c-3.145-.109-4.719-1.539.121-1.43 4.84.111 3.509 1.54-.121 1.43z"
       id="path202" />
    <path
       d="m49.0981 25.673633c-3.146-.109-4.72-1.539.121-1.43 4.84.111 3.509 1.54-.121 1.43z"
       id="path204" />
    <path
       d="m4.8022 22.673633c-3.146-.109-4.719-1.539.121-1.43 4.84.111 3.51 1.54-.121 1.43z"
       id="path206" />
    <path
       d="m31.7465 21.244033c4.84.11 3.509 1.54-.121 1.43-3.147-.11-4.72-1.539.121-1.43z"
       id="path208" />
    <path
       d="m21.7299 18.077033c4.84.11 3.509 1.541-.121 1.431-3.147-.111-4.72-1.54.121-1.431z"
       id="path210" />
    <path
       d="m48.5522 18.077033c4.84.11 3.509 1.541-.121 1.431-3.147-.111-4.719-1.54.121-1.431z"
       id="path212" />
    <path
       d="m7.9418 16.507633c-3.146-.11-4.719-1.54.121-1.431 4.84.111 3.509 1.541-.121 1.431z"
       id="path214" />
    <path
       d="m34.7641 16.507633c-3.146-.11-4.719-1.54.121-1.431 4.84.111 3.51 1.541-.121 1.431z"
       id="path216" />
    <path
       d="m16.7035 12.244033c4.84.11 3.509 1.54-.121 1.43-3.146-.11-4.719-1.539.121-1.43z"
       id="path218" />
    <path
       d="m43.5258 12.244033c4.841.11 3.51 1.54-.12 1.43-3.147-.11-4.72-1.539.12-1.43z"
       id="path220" />
    <path
       d="m9.1127 9.3611331c4.84.109 3.509 1.5399999-.121 1.4299999-3.147-.11-4.719-1.5399999.121-1.4299999z"
       id="path222" />
    <path
       d="m35.935 9.3611331c4.84.109 3.51 1.5399999-.121 1.4299999-3.146-.11-4.719-1.5399999.121-1.4299999z"
       id="path224" />
    <path
       d="m22.7299 6.2440331c4.84.11 3.509 1.54-.121 1.43-3.147-.11-4.72-1.539.121-1.43z"
       id="path226" />
    <path
       d="m49.4311 7.6736331c-3.146-.109-4.719-1.539.121-1.43 4.84.111 3.509 1.54-.121 1.43z"
       id="path228" />
    <path
       d="m12.6606 3.2440331c4.84.11 3.509 1.54-.121 1.43-3.146-.11-4.719-1.539.121-1.43z"
       id="path230" />
    <path
       d="m39.4838 3.2440331c4.84.11 3.509 1.54-.121 1.43-3.147-.11-4.72-1.539.121-1.43z"
       id="path232" />
    <path
       d="m50.059.15613315c4.84.11 3.509 1.53999995-.121 1.42999995-3.147-.11-4.72-1.53999995.121-1.42999995z"
       id="path234" />
    <path
       d="m23.2299.19813315c4.84.109 3.509 1.53999995-.121 1.42999995-3.147-.111-4.72-1.53999995.121-1.42999995z"
       id="path236" />
  </g>
</svg>
