<?xml version="1.0" encoding="UTF-8" standalone="no"?>
<svg
   xmlns:dc="http://purl.org/dc/elements/1.1/"
   xmlns:cc="http://creativecommons.org/ns#"
   xmlns:rdf="http://www.w3.org/1999/02/22-rdf-syntax-ns#"
   xmlns:svg="http://www.w3.org/2000/svg"
   xmlns="http://www.w3.org/2000/svg"
   height="54.125"
   width="54.125"
   id="svg164"
   version="1.1">
  <defs
     id="defs168" />
  <metadata
     id="metadata2">citation: U.S. Geological Survey, 2006, FGDC Digital Cartographic Standard for Geologic Map Symbolization (PostScript Implementation): U.S. Geological Survey Techniques and Methods 11-A2 [pubs.usgs.gov/tm/2006/11A02/]. converted by CEC Geology LLC 2018 from the USGS lithologic gs converted to inkscape by the University of Otago.<rdf:RDF>
  <cc:Work
     rdf:about="">
    <dc:format>image/svg+xml</dc:format>
    <dc:type
       rdf:resource="http://purl.org/dc/dcmitype/StillImage" />
    <dc:title></dc:title>
  </cc:Work>
</rdf:RDF>
</metadata>
  <g
          stroke-width=".3"
     stroke="#231f20"
     fill="none"

     transform="matrix(1,0,0,-1,0,54.125)"
     id="g162"
     width="54.125"
     height="54.125">
    <path
       id="path4"
       transform="translate(18.2031,49.6094)"
       d="M 0,0 V 2.336" />
    <path
       id="path6"
       transform="translate(0.9531,52.7705)"
       d="M 0,0 H 13.756" />
    <path
       id="path8"
       transform="translate(19.7861,52.7705)"
       d="M 0,0 H 13.048" />
    <path
       id="path10"
       transform="translate(37.4531,52.7705)"
       d="M 0,0 H 14.833" />
    <path
       id="path12"
       transform="translate(10.6192,49.583)"
       d="M 0,0 H -10.619" />
    <path
       id="path14"
       transform="translate(28.6192,49.583)"
       d="M 0,0 H -12.994" />
    <path
       id="path16"
       transform="translate(48.1192,49.583)"
       d="M 0,0 H -14.369" />
    <path
       id="path18"
       transform="translate(16.959,46.583)"
       d="M 0,0 H -14.84" />
    <path
       id="path20"
       transform="translate(22.6192,46.583)"
       d="M 0,0 H 13.334" />
    <path
       id="path22"
       transform="translate(39.7861,46.583)"
       d="M 0,0 H 13.048" />
    <path
       id="path24"
       transform="translate(27.4531,43.708)"
       d="M 0,0 H -20.834" />
    <path
       id="path26"
       transform="translate(37.292,43.708)"
       d="M 0,0 H 16.661" />
    <path
       id="path28"
       transform="translate(52.6192,40.708)"
       d="M 0,0 H -13.333" />
    <path
       id="path30"
       transform="translate(35.2861,40.708)"
       d="M 0,0 H -15.5" />
    <path
       id="path32"
       transform="translate(14.584,40.708)"
       d="M 0,0 H -12.965" />
    <path
       id="path34"
       transform="translate(7.7861,37.583)"
       d="M 0,0 H -7.786" />
    <path
       id="path36"
       transform="translate(14,37.583)"
       d="M 0,0 H 12.786" />
    <path
       id="path38"
       transform="translate(31.875,37.583)"
       d="M 0,0 H 15.911" />
    <path
       id="path40"
       transform="translate(37.4111,34.708)"
       d="M 0,0 H -12.5" />
    <path
       id="path42"
       transform="translate(40.9111,34.708)"
       d="M 0,0 H 10.75" />
    <path
       id="path44"
       transform="translate(19.6192,34.708)"
       d="M 0,0 H -18.166" />
    <path
       id="path46"
       transform="translate(9.7861,31.583)"
       d="M 0,0 H -9.786" />
    <path
       id="path48"
       transform="translate(26.2861,31.583)"
       d="M 0,0 H -12.536" />
    <path
       id="path50"
       transform="translate(29.7861,31.583)"
       d="M 0,0 H 16.5" />
    <path
       id="path52"
       transform="translate(41.9111,28.583)"
       d="M 0,0 H 10.042" />
    <path
       id="path54"
       transform="translate(17.6192,28.583)"
       d="M 0,0 H 19.667" />
    <path
       id="path56"
       transform="translate(0.2861,28.583)"
       d="M 0,0 H 12.298" />
    <path
       id="path58"
       transform="translate(9.1192,25.458)"
       d="M 0,0 H -9.119" />
    <path
       id="path60"
       transform="translate(29.4531,25.458)"
       d="M 0,0 H -14.494" />
    <path
       id="path62"
       transform="translate(46.834,25.458)"
       d="M 0,0 H -11.215" />
    <path
       id="path64"
       transform="translate(37.625,22.583)"
       d="M 0,0 H 14.828" />
    <path
       id="path66"
       transform="translate(19.625,22.583)"
       d="M 0,0 H 13.328" />
    <path
       id="path68"
       transform="translate(14.1192,22.583)"
       d="M 0,0 H -11.5" />
    <path
       id="path70"
       transform="translate(0,19.458)"
       d="M 0,0 H 6.953" />
    <path
       id="path72"
       transform="translate(24.1192,19.458)"
       d="M 0,0 H -12.619" />
    <path
       id="path74"
       transform="translate(29.5,19.458)"
       d="M 0,0 H 15.286" />
    <path
       id="path76"
       transform="translate(52.4531,16.458)"
       d="M 0,0 H -12.703" />
    <path
       id="path78"
       transform="translate(34.9531,16.458)"
       d="M 0,0 H -13.203" />
    <path
       id="path80"
       transform="translate(17.6192,16.458)"
       d="M 0,0 H -15.5" />
    <path
       id="path82"
       transform="translate(9.7861,13.458)"
       d="M 0,0 H -9.786" />
    <path
       id="path84"
       transform="translate(15.5361,13.458)"
       d="M 0,0 H 13.917" />
    <path
       id="path86"
       transform="translate(33.4111,13.458)"
       d="M 0,0 H 13.542" />
    <path
       id="path88"
       transform="translate(40.334,10.583)"
       d="M 0,0 H 10.785" />
    <path
       id="path90"
       transform="translate(36.9531,10.583)"
       d="M 0,0 H -13.292" />
    <path
       id="path92"
       transform="translate(19.0361,10.583)"
       d="M 0,0 H -15.417" />
    <path
       id="path94"
       transform="translate(6.459,7.333)"
       d="M 0,0 H -6.459" />
    <path
       id="path96"
       transform="translate(25.7861,7.333)"
       d="M 0,0 H -13" />
    <path
       id="path98"
       transform="translate(46.9531,7.333)"
       d="M 0,0 H -16.5" />
    <path
       id="path100"
       transform="translate(41.625,4.458)"
       d="M 0,0 H 9.084" />
    <path
       id="path102"
       transform="translate(23.875,4.458)"
       d="M 0,0 H 13.078" />
    <path
       id="path104"
       transform="translate(18.1192,4.458)"
       d="M 0,0 H -16.166" />
    <path
       id="path106"
       transform="translate(0,1.333)"
       d="M 0,0 H 10.953" />
    <path
       id="path108"
       transform="translate(25.209,1.333)"
       d="M 0,0 H -9.084" />
    <path
       id="path110"
       transform="translate(45.4531,1.333)"
       d="M 0,0 H -13.828" />
    <path
       id="path112"
       transform="translate(51.875,49.583)"
       d="M 0,0 H 2.25" />
    <path
       id="path114"
       transform="translate(50.125,37.583)"
       d="M 0,0 H 4" />
    <path
       id="path116"
       transform="translate(50,31.583)"
       d="M 0,0 H 4.125" />
    <path
       id="path118"
       transform="translate(51.0781,25.458)"
       d="M 0,0 H 3.047" />
    <path
       id="path120"
       transform="translate(47.625,19.458)"
       d="M 0,0 H 6.5" />
    <path
       id="path122"
       transform="translate(50.125,13.458)"
       d="M 0,0 H 4" />
    <path
       id="path124"
       transform="translate(51.5,7.333)"
       d="M 0,0 H 2.625" />
    <path
       id="path126"
       transform="translate(50.125,1.333)"
       d="M 0,0 H 4" />
    <path
       id="path128"
       transform="translate(30.4531,49.0703)"
       d="M 0,0 V -2.336" />
    <path
       id="path130"
       transform="translate(29.5781,40.7686)"
       d="M 0,0 V 2.337" />
    <path
       id="path132"
       transform="translate(10.3281,34.7803)"
       d="M 0,0 V 2.337" />
    <path
       id="path134"
       transform="translate(28.0781,31.0039)"
       d="M 0,0 V -2.337" />
    <path
       id="path136"
       transform="translate(48.9531,25.0488)"
       d="M 0,0 V -2.337" />
    <path
       id="path138"
       transform="translate(9.0781,16.4971)"
       d="M 0,0 V 2.337" />
    <path
       id="path140"
       transform="translate(49.8281,49.0156)"
       d="M 0,0 V -2.337" />
    <path
       id="path142"
       transform="translate(39.9531,27.8789)"
       d="M 0,0 V -2.337" />
    <path
       id="path144"
       transform="translate(17.9531,21.959)"
       d="M 0,0 V -2.337" />
    <path
       id="path146"
       transform="translate(37.0781,15.834)"
       d="M 0,0 V -2.337" />
    <path
       id="path148"
       transform="translate(11.7031,10.6445)"
       d="M 0,0 V 2.337" />
    <path
       id="path150"
       transform="translate(22.0781,7.3945)"
       d="M 0,0 V 2.337" />
    <path
       id="path152"
       transform="translate(39.5781,3.8564)"
       d="M 0,0 V -2.337" />
    <path
       id="path154"
       transform="translate(39.4531,34.0039)"
       d="M 0,0 V -2.337" />
    <path
       id="path156"
       transform="translate(53.4531,34.0039)"
       d="M 0,0 V -2.337" />
    <path
       id="path158"
       transform="translate(0.6192,7.4551)"
       d="M 0,0 V 2.337" />
    <path
       id="path160"
       transform="translate(4.3281,43.0723)"
       d="M 0,0 V -2.337" />
  </g>
</svg>
