<?xml version="1.0" encoding="UTF-8" standalone="no"?>
<svg
   xmlns:dc="http://purl.org/dc/elements/1.1/"
   xmlns:cc="http://creativecommons.org/ns#"
   xmlns:rdf="http://www.w3.org/1999/02/22-rdf-syntax-ns#"
   xmlns:svg="http://www.w3.org/2000/svg"
   xmlns="http://www.w3.org/2000/svg"
   height="54.125"
   width="54.125"
   id="svg458"
   version="1.1">
  <defs
     id="defs462" />
  <metadata
     id="metadata2">citation: U.S. Geological Survey, 2006, FGDC Digital Cartographic Standard for Geologic Map Symbolization (PostScript Implementation): U.S. Geological Survey Techniques and Methods 11-A2 [pubs.usgs.gov/tm/2006/11A02/]. converted by CEC Geology LLC 2018 from the USGS lithologic gs converted to inkscape by the University of Otago.<rdf:RDF>
  <cc:Work
     rdf:about="">
    <dc:format>image/svg+xml</dc:format>
    <dc:type
       rdf:resource="http://purl.org/dc/dcmitype/StillImage" />
    <dc:title></dc:title>
  </cc:Work>
</rdf:RDF>
</metadata>
  <g
     stroke-width=".3"
     stroke="#231f20"
     fill="none"

     id="g456"
     width="54.125"
     height="54.125">
    <path
       id="path4"
       transform="translate(42.0161,50.375)"
       d="M 0,0 H -11.242" />
    <path
       id="path6"
       transform="translate(42.0161,50.375)"
       d="M 0,0 H 3.133" />
    <path
       id="path8"
       transform="translate(54.125,50.375)"
       d="M 0,0 H -8.976" />
    <path
       id="path10"
       transform="translate(28.3491,50.375)"
       d="M 0,0 H 2.425" />
    <path
       id="path12"
       transform="translate(28.3491,50.375)"
       d="M 0,0 H -11.013" />
    <path
       id="path14"
       transform="translate(4.5864,50.375)"
       d="M 0,0 H -4.586" />
    <path
       id="path16"
       transform="translate(4.5864,50.375)"
       d="M 0,0 H 12.75" />
    <path
       id="path18"
       transform="translate(7.9697,46.2002)"
       d="M 0,0 H -7.97" />
    <path
       id="path20"
       transform="translate(54.125,46.2002)"
       d="M 0,0 H -19.343" />
    <path
       id="path22"
       transform="translate(34.7822,46.2002)"
       d="M 0,0 H -26.813" />
    <path
       id="path24"
       transform="translate(53.7822,42.0127)"
       d="M 0,0 H -12.812" />
    <path
       id="path26"
       transform="translate(40.9702,42.0127)"
       d="M 0,0 H -13.438" />
    <path
       id="path28"
       transform="translate(12.7202,42.0127)"
       d="M 0,0 H 14.813" />
    <path
       id="path30"
       transform="translate(53.7822,42.0127)"
       d="M 0,0 H 0.343" />
    <path
       id="path32"
       transform="translate(12.7202,42.0127)"
       d="M 0,0 H -12.72" />
    <path
       id="path34"
       transform="translate(27.102,12.3999)"
       d="M 0,0 H -14.5" />
    <path
       id="path36"
       transform="translate(41.102,12.3999)"
       d="M 0,0 H 12.58" />
    <path
       id="path38"
       transform="translate(53.6821,12.3999)"
       d="M 0,0 H 0.443" />
    <path
       id="path40"
       transform="translate(12.602,12.3999)"
       d="M 0,0 H -12.602" />
    <path
       id="path42"
       transform="translate(54.125,12.3999)"
       d="M 0,0 H 0.063" />
    <path
       id="path44"
       transform="translate(41.102,12.3999)"
       d="M 0,0 H -14" />
    <path
       id="path46"
       transform="translate(51.228,8.625)"
       d="M 0,0 H 2.897" />
    <path
       id="path48"
       transform="translate(24.7886,8.625)"
       d="M 0,0 H 7.674" />
    <path
       id="path50"
       transform="translate(38.7886,8.625)"
       d="M 0,0 H 8.274" />
    <path
       id="path52"
       transform="translate(10.2886,8.625)"
       d="M 0,0 H 8.174" />
    <path
       id="path54"
       transform="translate(10.2886,8.625)"
       d="M 0,0 H -4.826" />
    <path
       id="path56"
       transform="translate(38.7886,8.625)"
       d="M 0,0 H -6.326" />
    <path
       id="path58"
       transform="translate(24.7886,8.625)"
       d="M 0,0 H -6.326" />
    <path
       id="path60"
       transform="translate(5.4629,8.625)"
       d="M 0,0 H -5.463" />
    <path
       id="path62"
       transform="translate(51.228,8.625)"
       d="M 0,0 H -4.165" />
    <path
       id="path64"
       transform="translate(6.6211,37.9937)"
       d="M 0,0 H -6.621" />
    <path
       id="path66"
       transform="translate(32.6211,37.9937)"
       d="M 0,0 H -13.313" />
    <path
       id="path68"
       transform="translate(32.6211,37.9937)"
       d="M 0,0 H 14.625" />
    <path
       id="path70"
       transform="translate(19.3086,37.9937)"
       d="M 0,0 H -12.688" />
    <path
       id="path72"
       transform="translate(47.2461,37.9937)"
       d="M 0,0 H 6.879" />
    <path
       id="path74"
       transform="translate(13.0405,34.7124)"
       d="M 0,0 H -13.04" />
    <path
       id="path76"
       transform="translate(41.853,34.7124)"
       d="M 0,0 H 12.058" />
    <path
       id="path78"
       transform="translate(28.0405,34.7124)"
       d="M 0,0 H -15" />
    <path
       id="path80"
       transform="translate(41.853,34.7124)"
       d="M 0,0 H -13.813" />
    <path
       id="path82"
       transform="translate(53.9111,34.7124)"
       d="M 0,0 H 0.214" />
    <path
       id="path84"
       transform="translate(7.4849,31.2876)"
       d="M 0,0 H -7.485" />
    <path
       id="path86"
       transform="translate(49.5474,31.2876)"
       d="M 0,0 H 2.164" />
    <path
       id="path88"
       transform="translate(34.6099,31.2876)"
       d="M 0,0 H 14.937" />
    <path
       id="path90"
       transform="translate(20.9224,31.2876)"
       d="M 0,0 H 13.688" />
    <path
       id="path92"
       transform="translate(20.9224,31.2876)"
       d="M 0,0 H -13.438" />
    <path
       id="path94"
       transform="translate(51.7114,31.2876)"
       d="M 0,0 H 2.414" />
    <path
       id="path96"
       transform="translate(54.0547,27.2373)"
       d="M 0,0 H 0.07" />
    <path
       id="path98"
       transform="translate(27.4922,27.2373)"
       d="M 0,0 H -15" />
    <path
       id="path100"
       transform="translate(40.8672,27.2373)"
       d="M 0,0 H -13.375" />
    <path
       id="path102"
       transform="translate(12.4922,27.2373)"
       d="M 0,0 H -12.492" />
    <path
       id="path104"
       transform="translate(40.8672,27.2373)"
       d="M 0,0 H 13.188" />
    <path
       id="path106"
       transform="translate(0,23.4375)"
       d="M 0,0 H 54.125" />
    <path
       id="path108"
       transform="translate(0,19.2373)"
       d="M 0,0 H 54.125" />
    <path
       id="path110"
       transform="translate(54.1875,19.2373)"
       d="M 0,0 H -0.063" />
    <path
       id="path112"
       transform="translate(51.8208,16.0127)"
       d="M 0,0 H 2.304" />
    <path
       id="path114"
       transform="translate(51.8208,16.0127)"
       d="M 0,0 H -51.821" />
    <path
       id="path116"
       transform="translate(9.0151,0.8374)"
       d="M 0,0 H 14.313" />
    <path
       id="path118"
       transform="translate(50.3901,0.8374)"
       d="M 0,0 H 3.735" />
    <path
       id="path120"
       transform="translate(37.0151,0.8374)"
       d="M 0,0 H 13.375" />
    <path
       id="path122"
       transform="translate(23.3276,0.8374)"
       d="M 0,0 H 13.688" />
    <path
       id="path124"
       transform="translate(0,0.8374)"
       d="M 0,0 H 9.015" />
    <path
       id="path126"
       transform="translate(0,4.2124)"
       d="M 0,0 H 54.125" />
    <path
       id="path128"
       transform="translate(5.4629,8.625)"
       d="M 0,0 -2.592,-4.387" />
    <path
       id="path130"
       transform="translate(5.5,8.6875)"
       d="M 0,0 -0.037,-0.063" />
    <path
       id="path132"
       transform="translate(18.5,8.6875)"
       d="M 0,0 -0.037,-0.063" />
    <path
       id="path134"
       transform="translate(18.4629,8.625)"
       d="M 0,0 -2.592,-4.387" />
    <path
       id="path136"
       transform="translate(32.4629,8.625)"
       d="M 0,0 -2.592,-4.387" />
    <path
       id="path138"
       transform="translate(32.5,8.6875)"
       d="M 0,0 -0.037,-0.063" />
    <path
       id="path140"
       transform="translate(47.0625,8.625)"
       d="M 0,0 -2.629,-4.387" />
    <path
       id="path142"
       transform="translate(50.3901,0.8374)"
       d="M 0,0 2.047,3.35" />
    <path
       id="path144"
       transform="translate(50.3901,0.8374)"
       d="M 0,0 -0.015,-0.025" />
    <path
       id="path146"
       transform="translate(37.0151,0.8374)"
       d="M 0,0 2.047,3.35" />
    <path
       id="path148"
       transform="translate(37.0151,0.8374)"
       d="M 0,0 -0.015,-0.025" />
    <path
       id="path150"
       transform="translate(23.3276,0.8374)"
       d="M 0,0 -0.015,-0.025" />
    <path
       id="path152"
       transform="translate(23.3276,0.8374)"
       d="M 0,0 2.047,3.35" />
    <path
       id="path154"
       transform="translate(9.0151,0.8374)"
       d="M 0,0 2.047,3.35" />
    <path
       id="path156"
       transform="translate(9.0151,0.8374)"
       d="M 0,0 -0.015,-0.025" />
    <path
       id="path158"
       transform="translate(51.228,8.625)"
       d="M 0,0 -0.04,-0.063" />
    <path
       id="path160"
       transform="translate(53.6821,12.3999)"
       d="M 0,0 0.014,0.021" />
    <path
       id="path162"
       transform="translate(51.228,8.625)"
       d="M 0,0 2.454,3.775" />
    <path
       id="path164"
       transform="translate(47.3125,12.4375)"
       d="M 0,0 2.125,3.563" />
    <path
       id="path166"
       transform="translate(47.375,23.375)"
       d="M 0,0 -2.563,-4.063" />
    <path
       id="path168"
       transform="translate(51.8208,16.0127)"
       d="M 0,0 2.042,3.2" />
    <path
       id="path170"
       transform="translate(51.8208,16.0127)"
       d="M 0,0 -0.008,-0.013" />
    <path
       id="path172"
       transform="translate(54.0625,27.25)"
       d="M 0,0 -0.008,-0.013" />
    <path
       id="path174"
       transform="translate(51.8125,23.5)"
       d="M 0,0 2.242,3.737" />
    <path
       id="path176"
       transform="translate(49.5625,31.3125)"
       d="M 0,0 -0.015,-0.025" />
    <path
       id="path178"
       transform="translate(49.5474,31.2876)"
       d="M 0,0 -2.422,-4.038" />
    <path
       id="path180"
       transform="translate(51.6875,31.25)"
       d="M 0,0 0.024,0.038" />
    <path
       id="path182"
       transform="translate(53.9111,34.7124)"
       d="M 0,0 -2.2,-3.425" />
    <path
       id="path184"
       transform="translate(53.9248,34.7334)"
       d="M 0,0 -0.014,-0.021" />
    <path
       id="path186"
       transform="translate(47.2461,37.9937)"
       d="M 0,0 0.004,0.006" />
    <path
       id="path188"
       transform="translate(47.2461,37.9937)"
       d="M 0,0 -1.996,-3.244" />
    <path
       id="path190"
       transform="translate(53.7822,42.0127)"
       d="M 0,0 -2.423,-4.013" />
    <path
       id="path192"
       transform="translate(53.7822,42.0127)"
       d="M 0,0 0.03,0.05" />
    <path
       id="path194"
       transform="translate(46.1875,42.0625)"
       d="M 0,0 2.654,4.108" />
    <path
       id="path196"
       transform="translate(51.2915,46.25)"
       d="M 0,0 2.613,4.108" />
    <path
       id="path198"
       transform="translate(45.1489,50.375)"
       d="M 0,0 -0.007,-0.012" />
    <path
       id="path200"
       transform="translate(45.1489,50.375)"
       d="M 0,0 2.285,3.75" />
    <path
       id="path202"
       transform="translate(41.102,12.3999)"
       d="M 0,0 0.023,0.038" />
    <path
       id="path204"
       transform="translate(38.7886,8.625)"
       d="M 0,0 2.313,3.775" />
    <path
       id="path206"
       transform="translate(38.7886,8.625)"
       d="M 0,0 -0.039,-0.063" />
    <path
       id="path208"
       transform="translate(24.7886,8.625)"
       d="M 0,0 2.313,3.775" />
    <path
       id="path210"
       transform="translate(27.102,12.3999)"
       d="M 0,0 0.023,0.038" />
    <path
       id="path212"
       transform="translate(24.7886,8.625)"
       d="M 0,0 -0.039,-0.063" />
    <path
       id="path214"
       transform="translate(12.602,12.3999)"
       d="M 0,0 0.023,0.038" />
    <path
       id="path216"
       transform="translate(10.2886,8.625)"
       d="M 0,0 -0.039,-0.063" />
    <path
       id="path218"
       transform="translate(12.602,12.3999)"
       d="M 0,0 -2.313,-3.775" />
    <path
       id="path220"
       transform="translate(32.4375,12.4375)"
       d="M 0,0 2.125,3.563" />
    <path
       id="path222"
       transform="translate(18.75,12.4375)"
       d="M 0,0 2.125,3.563" />
    <path
       id="path224"
       transform="translate(5.5,12.4375)"
       d="M 0,0 2.125,3.563" />
    <path
       id="path226"
       transform="translate(40,16.0625)"
       d="M 0,0 1.938,3.125" />
    <path
       id="path228"
       transform="translate(25.75,16.0625)"
       d="M 0,0 1.938,3.125" />
    <path
       id="path230"
       transform="translate(10.6875,16.0625)"
       d="M 0,0 1.938,3.125" />
    <path
       id="path232"
       transform="translate(33.0625,23.375)"
       d="M 0,0 -2.563,-4.063" />
    <path
       id="path234"
       transform="translate(19.4375,23.375)"
       d="M 0,0 -2.563,-4.063" />
    <path
       id="path236"
       transform="translate(6.4375,23.375)"
       d="M 0,0 -2.563,-4.063" />
    <path
       id="path238"
       transform="translate(40.8672,27.2373)"
       d="M 0,0 -2.242,-3.737" />
    <path
       id="path240"
       transform="translate(40.8672,27.2373)"
       d="M 0,0 0.008,0.013" />
    <path
       id="path242"
       transform="translate(27.5,27.25)"
       d="M 0,0 -0.008,-0.013" />
    <path
       id="path244"
       transform="translate(27.4922,27.2373)"
       d="M 0,0 -2.242,-3.737" />
    <path
       id="path246"
       transform="translate(12.4922,27.2373)"
       d="M 0,0 -2.242,-3.737" />
    <path
       id="path248"
       transform="translate(12.5,27.25)"
       d="M 0,0 -0.008,-0.013" />
    <path
       id="path250"
       transform="translate(34.6099,31.2876)"
       d="M 0,0 -2.422,-4.038" />
    <path
       id="path252"
       transform="translate(34.6099,31.2876)"
       d="M 0,0 0.015,0.025" />
    <path
       id="path254"
       transform="translate(20.9224,31.2876)"
       d="M 0,0 0.015,0.025" />
    <path
       id="path256"
       transform="translate(20.9224,31.2876)"
       d="M 0,0 -2.422,-4.038" />
    <path
       id="path258"
       transform="translate(7.4849,31.2876)"
       d="M 0,0 0.015,0.025" />
    <path
       id="path260"
       transform="translate(7.4849,31.2876)"
       d="M 0,0 -2.422,-4.038" />
    <path
       id="path262"
       transform="translate(41.853,34.7124)"
       d="M 0,0 -1.978,-3.4" />
    <path
       id="path264"
       transform="translate(41.853,34.7124)"
       d="M 0,0 0.022,0.038" />
    <path
       id="path266"
       transform="translate(28.0405,34.7124)"
       d="M 0,0 -1.978,-3.4" />
    <path
       id="path268"
       transform="translate(28.0625,34.75)"
       d="M 0,0 -0.022,-0.038" />
    <path
       id="path270"
       transform="translate(13.0405,34.7124)"
       d="M 0,0 0.022,0.038" />
    <path
       id="path272"
       transform="translate(13.0405,34.7124)"
       d="M 0,0 -1.978,-3.4" />
    <path
       id="path274"
       transform="translate(32.6211,37.9937)"
       d="M 0,0 -1.996,-3.244" />
    <path
       id="path276"
       transform="translate(32.6211,37.9937)"
       d="M 0,0 0.004,0.006" />
    <path
       id="path278"
       transform="translate(19.3086,37.9937)"
       d="M 0,0 0.004,0.006" />
    <path
       id="path280"
       transform="translate(19.3086,37.9937)"
       d="M 0,0 -1.996,-3.244" />
    <path
       id="path282"
       transform="translate(6.6211,37.9937)"
       d="M 0,0 0.004,0.006" />
    <path
       id="path284"
       transform="translate(6.6211,37.9937)"
       d="M 0,0 -1.996,-3.244" />
    <path
       id="path286"
       transform="translate(40.9702,42.0127)"
       d="M 0,0 -2.408,-4.013" />
    <path
       id="path288"
       transform="translate(40.9702,42.0127)"
       d="M 0,0 0.03,0.05" />
    <path
       id="path290"
       transform="translate(27.5327,42.0127)"
       d="M 0,0 0.03,0.05" />
    <path
       id="path292"
       transform="translate(25.125,38)"
       d="M 0,0 2.408,4.013" />
    <path
       id="path294"
       transform="translate(12.75,42.0625)"
       d="M 0,0 -0.03,-0.05" />
    <path
       id="path296"
       transform="translate(12.7202,42.0127)"
       d="M 0,0 -2.408,-4.013" />
    <path
       id="path298"
       transform="translate(34.7822,46.2002)"
       d="M 0,0 -2.532,-4.138" />
    <path
       id="path300"
       transform="translate(34.7822,46.2002)"
       d="M 0,0 0.03,0.05" />
    <path
       id="path302"
       transform="translate(18.625,42.0625)"
       d="M 0,0 2.5,4.125" />
    <path
       id="path304"
       transform="translate(7.9697,46.2002)"
       d="M 0,0 -2.532,-4.138" />
    <path
       id="path306"
       transform="translate(7.9697,46.2002)"
       d="M 0,0 0.03,0.05" />
    <path
       id="path308"
       transform="translate(42.0161,50.375)"
       d="M 0,0 0.025,0.042" />
    <path
       id="path310"
       transform="translate(42.0161,50.375)"
       d="M 0,0 -2.516,-4.125" />
    <path
       id="path312"
       transform="translate(28.3491,50.375)"
       d="M 0,0 0.026,0.042" />
    <path
       id="path314"
       transform="translate(28.3491,50.375)"
       d="M 0,0 -2.537,-4.125" />
    <path
       id="path316"
       transform="translate(13.4585,50.3335)"
       d="M 0,0 -2.521,-4.083" />
    <path
       id="path318"
       transform="translate(30.7739,50.375)"
       d="M 0,0 -0.007,-0.012" />
    <path
       id="path320"
       transform="translate(30.7739,50.375)"
       d="M 0,0 2.285,3.75" />
    <path
       id="path322"
       transform="translate(17.3291,50.3628)"
       d="M 0,0 0.007,0.012" />
    <path
       id="path324"
       transform="translate(17.3364,50.375)"
       d="M 0,0 2.285,3.75" />
    <path
       id="path326"
       transform="translate(4.5864,50.375)"
       d="M 0,0 2.285,3.75" />
    <path
       id="path328"
       transform="translate(4.5864,50.375)"
       d="M 0,0 -0.007,-0.012" />
    <path
       id="path330"
       transform="translate(47.875,0.75)"
       d="M 0,0 -0.452,-0.75" />
    <path
       id="path332"
       transform="translate(33.5,0.75)"
       d="M 0,0 -0.452,-0.75" />
    <path
       id="path334"
       transform="translate(20.0625,0.75)"
       d="M 0,0 -0.452,-0.75" />
    <path
       id="path336"
       transform="translate(7.3125,0.75)"
       d="M 0,0 -0.452,-0.75" />
    <path
       id="path338"
       transform="translate(12.6182,52.4214)"
       d="m 0,0 c 0,0.527 -0.427,0.955 -0.955,0.955 -0.526,0 -0.954,-0.428 -0.954,-0.955 0,-0.527 0.428,-0.955 0.954,-0.955 C -0.427,-0.955 0,-0.527 0,0 Z" />
    <path
       id="path340"
       transform="translate(25.9434,52.4214)"
       d="m 0,0 c 0,0.527 -0.427,0.955 -0.955,0.955 -0.527,0 -0.954,-0.428 -0.954,-0.955 0,-0.527 0.427,-0.955 0.954,-0.955 C -0.427,-0.955 0,-0.527 0,0 Z" />
    <path
       id="path342"
       transform="translate(39.6934,52.4214)"
       d="m 0,0 c 0,0.527 -0.427,0.955 -0.955,0.955 -0.527,0 -0.954,-0.428 -0.954,-0.955 0,-0.527 0.427,-0.955 0.954,-0.955 C -0.427,-0.955 0,-0.527 0,0 Z" />
    <path
       id="path344"
       transform="translate(53.8184,52.4214)"
       d="m 0,0 c 0,0.527 -0.427,0.955 -0.955,0.955 -0.527,0 -0.954,-0.428 -0.954,-0.955 0,-0.527 0.427,-0.955 0.954,-0.955 C -0.427,-0.955 0,-0.527 0,0 Z" />
    <path
       id="path346"
       transform="translate(4.0342,48.125)"
       d="m 0,0 c 0,-0.527 0.427,-0.955 0.955,-0.955 0.527,0 0.954,0.428 0.954,0.955 0,0.527 -0.427,0.955 -0.954,0.955 C 0.427,0.955 0,0.527 0,0 Z" />
    <path
       id="path348"
       transform="translate(17.9092,48.125)"
       d="m 0,0 c 0,-0.527 0.427,-0.955 0.955,-0.955 0.527,0 0.954,0.428 0.954,0.955 0,0.527 -0.427,0.955 -0.954,0.955 C 0.427,0.955 0,0.527 0,0 Z" />
    <path
       id="path350"
       transform="translate(32.3589,48.125)"
       d="m 0,0 c 0,-0.527 0.428,-0.955 0.955,-0.955 0.527,0 0.954,0.428 0.954,0.955 0,0.527 -0.427,0.955 -0.954,0.955 C 0.428,0.955 0,0.527 0,0 Z" />
    <path
       id="path352"
       transform="translate(45.7842,48.125)"
       d="m 0,0 c 0,-0.527 0.427,-0.955 0.955,-0.955 0.527,0 0.954,0.428 0.954,0.955 0,0.527 -0.427,0.955 -0.954,0.955 C 0.427,0.955 0,0.527 0,0 Z" />
    <path
       id="path354"
       transform="translate(13.6934,44)"
       d="m 0,0 c 0,0.527 -0.427,0.955 -0.955,0.955 -0.527,0 -0.954,-0.428 -0.954,-0.955 0,-0.527 0.427,-0.955 0.954,-0.955 C -0.427,-0.955 0,-0.527 0,0 Z" />
    <path
       id="path356"
       transform="translate(0,43.0522)"
       d="m 0,0 c 0.038,-0.004 0.075,-0.007 0.114,-0.007 0.527,0 0.954,0.428 0.954,0.955 0,0.527 -0.427,0.954 -0.954,0.954 C 0.075,1.902 0.038,1.9 0,1.896" />
    <path
       id="path358"
       transform="translate(27.5229,44)"
       d="m 0,0 c 0,0.527 -0.427,0.955 -0.954,0.955 -0.528,0 -0.955,-0.428 -0.955,-0.955 0,-0.527 0.427,-0.955 0.955,-0.955 C -0.427,-0.955 0,-0.527 0,0 Z" />
    <path
       id="path360"
       transform="translate(41.8184,44)"
       d="m 0,0 c 0,0.527 -0.427,0.955 -0.955,0.955 -0.527,0 -0.954,-0.428 -0.954,-0.955 0,-0.527 0.427,-0.955 0.954,-0.955 C -0.427,-0.955 0,-0.527 0,0 Z" />
    <path
       id="path362"
       transform="translate(47.0684,39.8501)"
       d="m 0,0 c 0,0.527 -0.427,0.955 -0.955,0.955 -0.527,0 -0.954,-0.428 -0.954,-0.955 0,-0.527 0.427,-0.955 0.954,-0.955 C -0.427,-0.955 0,-0.527 0,0 Z" />
    <path
       id="path364"
       transform="translate(33.8184,39.8501)"
       d="m 0,0 c 0,0.527 -0.427,0.955 -0.955,0.955 -0.527,0 -0.954,-0.428 -0.954,-0.955 0,-0.527 0.427,-0.955 0.954,-0.955 C -0.427,-0.955 0,-0.527 0,0 Z" />
    <path
       id="path366"
       transform="translate(19.5684,39.8501)"
       d="m 0,0 c 0,0.527 -0.427,0.955 -0.955,0.955 -0.527,0 -0.954,-0.428 -0.954,-0.955 0,-0.527 0.427,-0.955 0.954,-0.955 C -0.427,-0.955 0,-0.527 0,0 Z" />
    <path
       id="path368"
       transform="translate(3.2842,39.8501)"
       d="m 0,0 c 0,-0.527 0.427,-0.955 0.955,-0.955 0.527,0 0.954,0.428 0.954,0.955 0,0.527 -0.427,0.955 -0.954,0.955 C 0.427,0.955 0,0.527 0,0 Z" />
    <path
       id="path370"
       transform="translate(54.0684,36.25)"
       d="m 0,0 c 0,0.527 -0.427,0.955 -0.955,0.955 -0.527,0 -0.954,-0.428 -0.954,-0.955 0,-0.527 0.427,-0.955 0.954,-0.955 C -0.427,-0.955 0,-0.527 0,0 Z" />
    <path
       id="path372"
       transform="translate(39.6934,36.25)"
       d="m 0,0 c 0,0.527 -0.427,0.955 -0.955,0.955 -0.527,0 -0.954,-0.428 -0.954,-0.955 0,-0.527 0.427,-0.955 0.954,-0.955 C -0.427,-0.955 0,-0.527 0,0 Z" />
    <path
       id="path374"
       transform="translate(25.6934,36.25)"
       d="m 0,0 c 0,0.527 -0.427,0.955 -0.955,0.955 -0.527,0 -0.954,-0.428 -0.954,-0.955 0,-0.527 0.427,-0.955 0.954,-0.955 C -0.427,-0.955 0,-0.527 0,0 Z" />
    <path
       id="path376"
       transform="translate(10.9092,36.25)"
       d="m 0,0 c 0,-0.527 0.427,-0.955 0.955,-0.955 0.527,0 0.954,0.428 0.954,0.955 0,0.527 -0.427,0.955 -0.954,0.955 C 0.427,0.955 0,0.527 0,0 Z" />
    <path
       id="path378"
       transform="translate(3.9092,32.9751)"
       d="m 0,0 c 0,-0.527 0.427,-0.955 0.955,-0.955 0.527,0 0.954,0.428 0.954,0.955 0,0.527 -0.427,0.955 -0.954,0.955 C 0.427,0.955 0,0.527 0,0 Z" />
    <path
       id="path380"
       transform="translate(18.4092,32.9751)"
       d="m 0,0 c 0,-0.527 0.427,-0.955 0.955,-0.955 0.527,0 0.954,0.428 0.954,0.955 0,0.527 -0.427,0.955 -0.954,0.955 C 0.427,0.955 0,0.527 0,0 Z" />
    <path
       id="path382"
       transform="translate(32.6592,32.9751)"
       d="m 0,0 c 0,-0.527 0.427,-0.955 0.955,-0.955 0.527,0 0.954,0.428 0.954,0.955 0,0.527 -0.427,0.955 -0.954,0.955 C 0.427,0.955 0,0.527 0,0 Z" />
    <path
       id="path384"
       transform="translate(46.0342,32.9751)"
       d="m 0,0 c 0,-0.527 0.427,-0.955 0.955,-0.955 0.527,0 0.954,0.428 0.954,0.955 0,0.527 -0.427,0.955 -0.954,0.955 C 0.427,0.955 0,0.527 0,0 Z" />
    <path
       id="path386"
       transform="translate(12.8638,28.2954)"
       d="M 0,0 C 0.527,0 0.955,0.428 0.955,0.955 0.955,1.482 0.527,1.909 0,1.909 -0.527,1.909 -0.955,1.482 -0.955,0.955 -0.955,0.428 -0.527,0 0,0 Z" />
    <path
       id="path388"
       transform="translate(25.4092,29.25)"
       d="m 0,0 c 0,-0.527 0.427,-0.955 0.955,-0.955 0.527,0 0.954,0.428 0.954,0.955 0,0.527 -0.427,0.955 -0.954,0.955 C 0.427,0.955 0,0.527 0,0 Z" />
    <path
       id="path390"
       transform="translate(40.6138,28.2954)"
       d="M 0,0 C 0.527,0 0.955,0.428 0.955,0.955 0.955,1.482 0.527,1.909 0,1.909 -0.527,1.909 -0.955,1.482 -0.955,0.955 -0.955,0.428 -0.527,0 0,0 Z" />
    <path
       id="path392"
       transform="translate(0,28.332)"
       d="M 0,0 C 0.4,0.114 0.693,0.482 0.693,0.918 0.693,1.354 0.4,1.723 0,1.836" />
    <path
       id="path394"
       transform="translate(3.4092,25.3252)"
       d="m 0,0 c 0,-0.527 0.427,-0.955 0.955,-0.955 0.527,0 0.954,0.428 0.954,0.955 0,0.527 -0.427,0.955 -0.954,0.955 C 0.427,0.955 0,0.527 0,0 Z" />
    <path
       id="path396"
       transform="translate(17.7842,25.3252)"
       d="m 0,0 c 0,-0.527 0.427,-0.955 0.955,-0.955 0.527,0 0.954,0.428 0.954,0.955 0,0.527 -0.427,0.955 -0.954,0.955 C 0.427,0.955 0,0.527 0,0 Z" />
    <path
       id="path398"
       transform="translate(31.7842,25.3252)"
       d="m 0,0 c 0,-0.527 0.427,-0.955 0.955,-0.955 0.527,0 0.954,0.428 0.954,0.955 0,0.527 -0.427,0.955 -0.954,0.955 C 0.427,0.955 0,0.527 0,0 Z" />
    <path
       id="path400"
       transform="translate(45.0342,25.3252)"
       d="m 0,0 c 0,-0.527 0.427,-0.955 0.955,-0.955 0.527,0 0.954,0.428 0.954,0.955 0,0.527 -0.427,0.955 -0.954,0.955 C 0.427,0.955 0,0.527 0,0 Z" />
    <path
       id="path402"
       transform="translate(51.5342,21.25)"
       d="m 0,0 c 0,-0.527 0.427,-0.955 0.955,-0.955 0.527,0 0.954,0.428 0.954,0.955 0,0.527 -0.427,0.955 -0.954,0.955 C 0.427,0.955 0,0.527 0,0 Z" />
    <path
       id="path404"
       transform="translate(37.7842,21.25)"
       d="m 0,0 c 0,-0.527 0.427,-0.955 0.955,-0.955 0.527,0 0.954,0.428 0.954,0.955 0,0.527 -0.427,0.955 -0.954,0.955 C 0.427,0.955 0,0.527 0,0 Z" />
    <path
       id="path406"
       transform="translate(23.4092,21.25)"
       d="m 0,0 c 0,-0.527 0.427,-0.955 0.955,-0.955 0.527,0 0.954,0.428 0.954,0.955 0,0.527 -0.427,0.955 -0.954,0.955 C 0.427,0.955 0,0.527 0,0 Z" />
    <path
       id="path408"
       transform="translate(10.4092,21.25)"
       d="m 0,0 c 0,-0.527 0.427,-0.955 0.955,-0.955 0.527,0 0.954,0.428 0.954,0.955 0,0.527 -0.427,0.955 -0.954,0.955 C 0.427,0.955 0,0.527 0,0 Z" />
    <path
       id="path410"
       transform="translate(5.3184,17.625)"
       d="m 0,0 c 0,0.527 -0.427,0.955 -0.955,0.955 -0.527,0 -0.954,-0.428 -0.954,-0.955 0,-0.527 0.427,-0.955 0.954,-0.955 C -0.427,-0.955 0,-0.527 0,0 Z" />
    <path
       id="path412"
       transform="translate(19.5684,17.625)"
       d="m 0,0 c 0,0.527 -0.427,0.955 -0.955,0.955 -0.527,0 -0.954,-0.428 -0.954,-0.955 0,-0.527 0.427,-0.955 0.954,-0.955 C -0.427,-0.955 0,-0.527 0,0 Z" />
    <path
       id="path414"
       transform="translate(34.5684,17.625)"
       d="m 0,0 c 0,0.527 -0.427,0.955 -0.955,0.955 -0.527,0 -0.954,-0.428 -0.954,-0.955 0,-0.527 0.427,-0.955 0.954,-0.955 C -0.427,-0.955 0,-0.527 0,0 Z" />
    <path
       id="path416"
       transform="translate(48.0684,17.625)"
       d="m 0,0 c 0,0.527 -0.427,0.955 -0.955,0.955 -0.527,0 -0.954,-0.428 -0.954,-0.955 0,-0.527 0.427,-0.955 0.954,-0.955 C -0.427,-0.955 0,-0.527 0,0 Z" />
    <path
       id="path418"
       transform="translate(0,13.2998)"
       d="M 0,0 C 0.413,0.105 0.718,0.479 0.718,0.925 0.718,1.371 0.413,1.745 0,1.851" />
    <path
       id="path420"
       transform="translate(41.9434,14.2251)"
       d="m 0,0 c 0,0.527 -0.427,0.955 -0.955,0.955 -0.527,0 -0.954,-0.428 -0.954,-0.955 0,-0.527 0.427,-0.955 0.954,-0.955 C -0.427,-0.955 0,-0.527 0,0 Z" />
    <path
       id="path422"
       transform="translate(27.5684,14.2251)"
       d="m 0,0 c 0,0.527 -0.427,0.955 -0.955,0.955 -0.527,0 -0.954,-0.428 -0.954,-0.955 0,-0.527 0.427,-0.955 0.954,-0.955 C -0.427,-0.955 0,-0.527 0,0 Z" />
    <path
       id="path424"
       transform="translate(14.0684,14.2251)"
       d="m 0,0 c 0,0.527 -0.427,0.955 -0.955,0.955 -0.527,0 -0.954,-0.428 -0.954,-0.955 0,-0.527 0.427,-0.955 0.954,-0.955 C -0.427,-0.955 0,-0.527 0,0 Z" />
    <path
       id="path426"
       transform="translate(5.3184,10.4751)"
       d="m 0,0 c 0,0.527 -0.427,0.955 -0.955,0.955 -0.527,0 -0.954,-0.428 -0.954,-0.955 0,-0.527 0.427,-0.955 0.954,-0.955 C -0.427,-0.955 0,-0.527 0,0 Z" />
    <path
       id="path428"
       transform="translate(19.4434,10.4751)"
       d="m 0,0 c 0,0.527 -0.427,0.955 -0.955,0.955 -0.527,0 -0.954,-0.428 -0.954,-0.955 0,-0.527 0.427,-0.955 0.954,-0.955 C -0.427,-0.955 0,-0.527 0,0 Z" />
    <path
       id="path430"
       transform="translate(32.7388,9.5205)"
       d="M 0,0 C 0.527,0 0.955,0.427 0.955,0.955 0.955,1.482 0.527,1.909 0,1.909 -0.527,1.909 -0.955,1.482 -0.955,0.955 -0.955,0.427 -0.527,0 0,0 Z" />
    <path
       id="path432"
       transform="translate(47.6934,10.4751)"
       d="m 0,0 c 0,0.527 -0.427,0.955 -0.955,0.955 -0.527,0 -0.954,-0.428 -0.954,-0.955 0,-0.527 0.427,-0.955 0.954,-0.955 C -0.427,-0.955 0,-0.527 0,0 Z" />
    <path
       id="path434"
       transform="translate(51.0342,6.375)"
       d="m 0,0 c 0,-0.527 0.427,-0.955 0.955,-0.955 0.527,0 0.954,0.428 0.954,0.955 0,0.527 -0.427,0.955 -0.954,0.955 C 0.427,0.955 0,0.527 0,0 Z" />
    <path
       id="path436"
       transform="translate(37.5342,6.375)"
       d="m 0,0 c 0,-0.527 0.427,-0.955 0.955,-0.955 0.527,0 0.954,0.428 0.954,0.955 0,0.527 -0.427,0.955 -0.954,0.955 C 0.427,0.955 0,0.527 0,0 Z" />
    <path
       id="path438"
       transform="translate(23.0342,6.375)"
       d="m 0,0 c 0,-0.527 0.427,-0.955 0.955,-0.955 0.527,0 0.954,0.428 0.954,0.955 0,0.527 -0.427,0.955 -0.954,0.955 C 0.427,0.955 0,0.527 0,0 Z" />
    <path
       id="path440"
       transform="translate(9.2842,6.375)"
       d="m 0,0 c 0,-0.527 0.427,-0.955 0.955,-0.955 0.527,0 0.954,0.428 0.954,0.955 0,0.527 -0.427,0.955 -0.954,0.955 C 0.427,0.955 0,0.527 0,0 Z" />
    <path
       id="path442"
       transform="translate(2.1592,2.5)"
       d="m 0,0 c 0,-0.527 0.427,-0.955 0.955,-0.955 0.527,0 0.954,0.428 0.954,0.955 0,0.527 -0.427,0.955 -0.954,0.955 C 0.427,0.955 0,0.527 0,0 Z" />
    <path
       id="path444"
       transform="translate(15.9092,2.5)"
       d="m 0,0 c 0,-0.527 0.427,-0.955 0.955,-0.955 0.527,0 0.954,0.428 0.954,0.955 0,0.527 -0.427,0.955 -0.954,0.955 C 0.427,0.955 0,0.527 0,0 Z" />
    <path
       id="path446"
       transform="translate(29.9092,2.5)"
       d="m 0,0 c 0,-0.527 0.427,-0.955 0.955,-0.955 0.527,0 0.954,0.428 0.954,0.955 0,0.527 -0.427,0.955 -0.954,0.955 C 0.427,0.955 0,0.527 0,0 Z" />
    <path
       id="path448"
       transform="translate(43.6592,2.5)"
       d="m 0,0 c 0,-0.527 0.427,-0.955 0.955,-0.955 0.527,0 0.954,0.428 0.954,0.955 0,0.527 -0.427,0.955 -0.954,0.955 C 0.427,0.955 0,0.527 0,0 Z" />
    <path
       id="path450"
       transform="translate(54.125,44.9473)"
       d="m 0,0 c -0.472,-0.058 -0.837,-0.459 -0.837,-0.947 0,-0.488 0.365,-0.889 0.837,-0.948" />
    <path
       id="path452"
       transform="translate(54.125,30.1689)"
       d="m 0,0 c -0.082,0.023 -0.169,0.036 -0.258,0.036 -0.527,0 -0.954,-0.428 -0.954,-0.955 0,-0.527 0.427,-0.955 0.954,-0.955 0.089,0 0.176,0.013 0.258,0.036" />
    <path
       id="path454"
       transform="translate(54.125,15.1509)"
       d="m 0,0 c -0.074,0.019 -0.152,0.029 -0.232,0.029 -0.528,0 -0.955,-0.427 -0.955,-0.955 0,-0.527 0.427,-0.954 0.955,-0.954 0.08,0 0.158,0.009 0.232,0.028" />
  </g>
</svg>
