<?xml version="1.0" encoding="UTF-8" standalone="no"?>
<svg
   xmlns:dc="http://purl.org/dc/elements/1.1/"
   xmlns:cc="http://creativecommons.org/ns#"
   xmlns:rdf="http://www.w3.org/1999/02/22-rdf-syntax-ns#"
   xmlns:svg="http://www.w3.org/2000/svg"
   xmlns="http://www.w3.org/2000/svg"
   height="54.125"
   width="54.125"
   id="svg248"
   version="1.1">
  <defs
     id="defs252" />
  <metadata
     id="metadata2">citation: U.S. Geological Survey, 2006, FGDC Digital Cartographic Standard for Geologic Map Symbolization (PostScript Implementation): U.S. Geological Survey Techniques and Methods 11-A2 [pubs.usgs.gov/tm/2006/11A02/]. converted by CEC Geology LLC 2018 from the USGS lithologic gs converted to inkscape by the University of Otago.<rdf:RDF>
  <cc:Work
     rdf:about="">
    <dc:format>image/svg+xml</dc:format>
    <dc:type
       rdf:resource="http://purl.org/dc/dcmitype/StillImage" />
    <dc:title></dc:title>
  </cc:Work>
</rdf:RDF>
</metadata>
  <g
     transform="matrix(1,0,0,-1,0,54.125)"
     id="g246"
     width="54.125"
     height="54.125">
    <path
       style="fill:#231f20"
       id="path4"
       d="M 0,54.125 H 54.125 V 0 H 0 Z" />
    <path
       style="fill:#ffffff"
       id="path6"
       transform="translate(3.2715,37.8916)"
       d="m 0,0 c -3.375,-0.625 -0.375,-2.5 1.5,-2.375 1.875,0.125 3.125,0 4.125,-0.375 1,-0.375 4.5,-1.25 7,-1.125 2.5,0.125 3.5,0.125 7.5,0.25 6.75,0.875 0.366,2.999 -2.125,2.75 -2.5,-0.25 -4.875,0.125 -7.125,1.25 C 8.625,1.5 3.375,0.625 0,0" />
    <path
       style="fill:#ffffff"
       id="path8"
       transform="translate(50.1055,35.5376)"
       d="m 0,0 c 2.25,0.75 1.125,2 -3.75,2 0,0 -2.75,0.125 -4.25,0.625 -1.5,0.5 -4,0.125 -7.375,-0.625 -3.375,-0.75 -1.5,-1.75 0,-1.875 1.5,-0.125 2,0 6.125,-0.75 4.125,-0.75 7,-0.125 9.25,0.625" />
    <path
       style="fill:#ffffff"
       id="path10"
       transform="translate(20.5215,26.4331)"
       d="m 0,0 c 2.125,0 4.5,-0.375 9.5,-1.5 5,-1.125 12.5,1 15.125,2 2.625,1 1.75,1.25 0.75,1.875 -1,0.625 -1.75,0.625 -5.625,0.25 0,0 -3.125,0 -5.375,0.375 C 12.125,3.375 7.875,2.875 4.25,2.625 0.625,2.375 1.625,2.625 -2.375,1.75 -6.375,0.875 -2.125,0 0,0" />
    <path
       style="fill:#ffffff"
       id="path12"
       transform="translate(50.7305,14.9126)"
       d="m 0,0 c 4.25,0.875 0.5,2.25 -4.25,2.25 0,0 -1.625,0 -3.25,0.375 C -9.125,3 -15.5,3.5 -17.375,2.875 -19.25,2.25 -22.75,2.25 -24.625,2.125 -26.5,2 -25.5,0.625 -24,0.625 c 1.5,0 4,-0.625 6.5,-0.25 C -15,0.75 -13.75,0.5 -11.375,-0.5 -9,-1.5 -4.25,-0.875 0,0" />
    <path
       style="fill:#ffffff"
       id="path14"
       transform="translate(17.8555,50.7456)"
       d="M 0,0 C 0,0 -1.625,0 -3.25,0.375 -3.25,0.375 -6.667,0 -8.334,-0.5 -10,-1 -8.5,-2.667 -7.125,-2.75 -4.75,-3.75 0,-3.125 4.25,-2.25 8.5,-1.375 4.75,0 0,0" />
    <path
       style="fill:#ffffff"
       id="path16"
       transform="translate(1.3555,19.2876)"
       d="m 0,0 c 1.25,-0.375 4.125,-0.5 6.125,-0.125 2,0.375 1.125,-0.625 0.625,-1 -0.5,-0.375 0,-1.125 2,-1 2,0.125 2.5,0.125 4.125,0 1.625,-0.125 1.75,0.375 1.25,1 -0.5,0.625 1.125,0.75 2.5,0.375 1.375,-0.375 2.125,0.125 3.625,1 1.5,0.875 -1.5,1.625 -5.375,1.625 0,0 -2.125,-0.125 -4.375,0.25 C 8.25,2.5 3.625,2.125 0.875,1.75 -1.875,1.375 -1.25,0.375 0,0" />
    <path
       style="fill:#ffffff"
       id="path18"
       transform="translate(24.2305,8.1626)"
       d="m 0,0 c 5.125,-0.25 2.977,-0.08 3.727,-0.455 0.75,-0.375 3.625,-0.375 5.376,0.75 1.75,1.125 1.25,1.5 -1.501,1.625 -2.75,0.125 -1.227,0.205 -3.227,0.205 -2,0 -3.5,0.25 -3.5,0.25 C -4.75,2 -5.125,0.25 0,0" />
    <path
       style="fill:#ffffff"
       id="path20"
       transform="translate(31.9805,44.2876)"
       d="m 0,0 c 0,0 -1.5,-0.25 -3.5,-0.25 -2,0 -5.25,-0.375 -8,-0.5 -2.75,-0.125 -3.25,-0.5 -1.5,-1.625 1.75,-1.125 4.625,-1.125 5.375,-0.75 0.75,0.375 3.375,0.5 8.5,0.75 C 6,-2.125 5.625,-0.375 0,0" />
    <path
       style="fill:#ffffff"
       id="path22"
       transform="translate(0,8.8608)"
       d="m 0,0 c 1.734,-0.042 3.23,0.052 3.23,0.052 4.375,-0.25 4.5,0.5 5.25,0.625 0.75,0.125 1.625,1 -1.625,1 H 0 Z" />
    <path
       style="fill:#ffffff"
       id="path24"
       transform="translate(5.2305,3.6626)"
       d="M 0,0 C 1.875,0.125 5.5,-0.5 8.75,-0.875 12,-1.25 11.125,-1 13,-0.5 14.875,0 12.5,1.125 11.5,0.875 10.5,0.625 11.021,0.547 9.625,0.625 7.375,0.75 1.875,2 -0.5,1.75 -2.875,1.5 -1.875,-0.125 0,0" />
    <path
       style="fill:#ffffff"
       id="path26"
       transform="translate(41.2305,1.6626)"
       d="m 0,0 c 4.375,-0.375 6.125,-0.25 8.25,0.75 2.125,1 -1.063,4.587 -5.813,3.712 0,0 -3.375,-0.125 -5.5,0.25 C -5.188,5.087 -5.875,1.875 -7.25,1.25 -8.625,0.625 -4.375,0.375 0,0" />
    <path
       style="fill:#ffffff"
       id="path28"
       transform="translate(0,27.1133)"
       d="m 0,0 c 1.45,0.137 3.347,0.251 5.605,0.424 3.25,0.25 2,0.75 0.375,1.125 -1.625,0.375 -3,0.875 -5.75,0.875 0,0 -0.073,-0.012 -0.23,-0.036 z" />
    <path
       style="fill:#ffffff"
       id="path30"
       transform="translate(0,43.2671)"
       d="M 0,0 C 1.214,0.286 1.38,1.864 3.98,2.124 7.314,2.458 5.48,4.458 3.314,4.458 2.607,4.458 1.407,4.529 0,4.641 Z" />
    <path
       style="fill:#ffffff"
       id="path32"
       transform="translate(54.125,10.5376)"
       d="M 0,0 H -0.52 C -2.145,0 -5.77,-0.875 -3.27,-1.375 -2.299,-1.569 -1.102,-1.65 0,-1.677 Z" />
    <path
       style="fill:#ffffff"
       id="path34"
       transform="translate(54.125,29.501)"
       d="m 0,0 c -0.347,-0.054 -1.104,-0.167 -2.395,-0.338 -1.875,-0.25 -0.75,-2.5 0.75,-2.25 0.457,0.076 1.008,0.14 1.645,0.2 z" />
    <path
       style="fill:#ffffff"
       id="path36"
       transform="translate(54.125,47.9082)"
       d="m 0,0 c -2.915,0.233 -6.718,0.646 -8.854,0.983 -3.166,0.5 -6.5,-0.166 -7.832,-0.833 0,0 -1.5,1 -1.168,-0.333 0.334,-1.334 3.668,-3.334 6,-3 2.334,0.333 7.834,-0.5 10.5,-1.334 C -0.768,-4.7 -0.342,-4.722 0,-4.641 Z" />
    <g
       stroke-width=".3"
       stroke="param(outline) #231f20"
       fill="none"
       id="g244">
      <path
         id="path38"
         transform="translate(0.5108,47.8633)"
         d="M 0,0 -0.511,-0.523" />
      <path
         id="path40"
         transform="translate(2.7129,47.7246)"
         d="M 0,0 -2.713,-2.78" />
      <path
         id="path42"
         transform="translate(2.1983,44.8018)"
         d="M 0,0 2.561,2.625" />
      <path
         id="path44"
         transform="translate(39.333,6.292)"
         d="M 0,0 -4.033,-4.132" />
      <path
         id="path46"
         transform="translate(41.4219,6.0376)"
         d="M 0,0 -3.87,-3.966" />
      <path
         id="path48"
         transform="translate(43.8389,6.1187)"
         d="M 0,0 -4.198,-4.302" />
      <path
         id="path50"
         transform="translate(46.2578,6.2021)"
         d="M 0,0 -4.406,-4.515" />
      <path
         id="path52"
         transform="translate(48.0166,5.6089)"
         d="M 0,0 -3.993,-4.091" />
      <path
         id="path54"
         transform="translate(49.4453,4.6777)"
         d="M 0,0 -3.086,-3.163" />
      <path
         id="path56"
         transform="translate(0,9.4224)"
         d="M 0,0 1.057,1.083" />
      <path
         id="path58"
         transform="translate(3.4131,10.5244)"
         d="M 0,0 -1.637,-1.676" />
      <path
         id="path60"
         transform="translate(5.7686,10.5435)"
         d="M 0,0 -1.697,-1.74" />
      <path
         id="path62"
         transform="translate(8.0635,10.5)"
         d="M 0,0 -1.513,-1.55" />
      <path
         id="path64"
         transform="translate(1.9737,29.4009)"
         d="M 0,0 -1.974,-2.023" />
      <path
         id="path66"
         transform="translate(4.083,29.167)"
         d="M 0,0 -1.883,-1.929" />
      <path
         id="path68"
         transform="translate(5.9141,28.6484)"
         d="M 0,0 -1.111,-1.139" />
      <path
         id="path70"
         transform="translate(2.8281,21.1094)"
         d="M 0,0 -1.76,-1.803" />
      <path
         id="path72"
         transform="translate(3.1162,19.0093)"
         d="M 0,0 2.316,2.372" />
      <path
         id="path74"
         transform="translate(5.3184,18.8701)"
         d="M 0,0 2.561,2.625" />
      <path
         id="path76"
         transform="translate(10.2969,21.5762)"
         d="M 0,0 -2.252,-2.308" />
      <path
         id="path78"
         transform="translate(8.4854,17.3252)"
         d="M 0,0 3.952,4.049" />
      <path
         id="path80"
         transform="translate(10.626,17.123)"
         d="M 0,0 3.89,3.986" />
      <path
         id="path82"
         transform="translate(16.8721,21.1274)"
         d="M 0,0 -3.858,-3.954" />
      <path
         id="path84"
         transform="translate(16.7891,18.6479)"
         d="M 0,0 2.315,2.373" />
      <path
         id="path86"
         transform="translate(21.1211,20.6914)"
         d="M 0,0 -2.315,-2.373" />
      <path
         id="path88"
         transform="translate(6.544,5.4546)"
         d="M 0,0 -1.82,-1.865" />
      <path
         id="path90"
         transform="translate(8.624,5.1904)"
         d="M 0,0 -1.546,-1.583" />
      <path
         id="path92"
         transform="translate(10.7315,4.9551)"
         d="M 0,0 -1.574,-1.613" />
      <path
         id="path94"
         transform="translate(12.7178,4.5947)"
         d="M 0,0 -1.421,-1.456" />
      <path
         id="path96"
         transform="translate(14.7031,4.2339)"
         d="M 0,0 -1.358,-1.392" />
      <path
         id="path98"
         transform="translate(17.3682,4.5698)"
         d="M 0,0 -1.853,-1.898" />
      <path
         id="path100"
         transform="translate(23.6739,10.3901)"
         d="M 0,0 -1.884,-1.93" />
      <path
         id="path102"
         transform="translate(26.0303,10.4092)"
         d="M 0,0 -2.193,-2.248" />
      <path
         id="path104"
         transform="translate(28.169,10.2056)"
         d="M 0,0 -2.037,-2.088" />
      <path
         id="path106"
         transform="translate(30.4942,10.1929)"
         d="M 0,0 -2.407,-2.467" />
      <path
         id="path108"
         transform="translate(32.6651,10.022)"
         d="M 0,0 -2.408,-2.467" />
      <path
         id="path110"
         transform="translate(26.5088,15.5327)"
         d="M 0,0 1.524,1.563" />
      <path
         id="path112"
         transform="translate(28.6787,15.3613)"
         d="M 0,0 2.017,2.066" />
      <path
         id="path114"
         transform="translate(30.7276,15.0659)"
         d="M 0,0 2.757,2.824" />
      <path
         id="path116"
         transform="translate(36.1485,18.2256)"
         d="M 0,0 -2.88,-2.952" />
      <path
         id="path118"
         transform="translate(35.7686,15.4404)"
         d="M 0,0 2.593,2.657" />
      <path
         id="path120"
         transform="translate(40.5322,17.9268)"
         d="M 0,0 -2.841,-2.911" />
      <path
         id="path122"
         transform="translate(42.6612,17.7129)"
         d="M 0,0 -3.209,-3.289" />
      <path
         id="path124"
         transform="translate(44.669,17.3745)"
         d="M 0,0 -3.375,-3.458" />
      <path
         id="path126"
         transform="translate(46.8389,17.2026)"
         d="M 0,0 -3.17,-3.248" />
      <path
         id="path128"
         transform="translate(49.0098,17.0317)"
         d="M 0,0 -2.717,-2.784" />
      <path
         id="path130"
         transform="translate(48.999,14.6255)"
         d="M 0,0 2.017,2.067" />
      <path
         id="path132"
         transform="translate(19.584,28.478)"
         d="M 0,0 -1.698,-1.74" />
      <path
         id="path134"
         transform="translate(19.9951,26.5044)"
         d="M 0,0 2.377,2.435" />
      <path
         id="path136"
         transform="translate(22.2598,26.4292)"
         d="M 0,0 2.592,2.657" />
      <path
         id="path138"
         transform="translate(24.3057,26.1309)"
         d="M 0,0 3.087,3.163" />
      <path
         id="path140"
         transform="translate(26.2002,25.6763)"
         d="M 0,0 3.702,3.794" />
      <path
         id="path142"
         transform="translate(32.3223,29.5542)"
         d="M 0,0 -4.168,-4.271" />
      <path
         id="path144"
         transform="translate(34.5537,29.4453)"
         d="M 0,0 -4.384,-4.491" />
      <path
         id="path146"
         transform="translate(36.6016,29.1484)"
         d="M 0,0 -4.415,-4.523" />
      <path
         id="path148"
         transform="translate(38.8653,29.0732)"
         d="M 0,0 -4.321,-4.428" />
      <path
         id="path150"
         transform="translate(41.253,29.1235)"
         d="M 0,0 -4.138,-4.239" />
      <path
         id="path152"
         transform="translate(40.0274,25.4727)"
         d="M 0,0 3.766,3.859" />
      <path
         id="path154"
         transform="translate(43.125,26.2524)"
         d="M 0,0 2.562,2.624" />
      <path
         id="path156"
         transform="translate(34.294,35.7075)"
         d="M 0,0 2.098,2.149" />
      <path
         id="path158"
         transform="translate(39.1797,38.3193)"
         d="M 0,0 -2.746,-2.814" />
      <path
         id="path160"
         transform="translate(38.4805,35.207)"
         d="M 0,0 2.963,3.037" />
      <path
         id="path162"
         transform="translate(40.5889,34.9731)"
         d="M 0,0 2.778,2.847" />
      <path
         id="path164"
         transform="translate(42.5752,34.6118)"
         d="M 0,0 2.963,3.036" />
      <path
         id="path166"
         transform="translate(44.9317,34.6313)"
         d="M 0,0 2.809,2.878" />
      <path
         id="path168"
         transform="translate(47.4717,34.8394)"
         d="M 0,0 2.286,2.342" />
      <path
         id="path170"
         transform="translate(3.836,38.0386)"
         d="M 0,0 -1.637,-1.678" />
      <path
         id="path172"
         transform="translate(3.7852,35.5903)"
         d="M 0,0 2.839,2.91" />
      <path
         id="path174"
         transform="translate(6.0479,35.5137)"
         d="M 0,0 3.118,3.195" />
      <path
         id="path176"
         transform="translate(11.583,38.791)"
         d="M 0,0 -3.396,-3.48" />
      <path
         id="path178"
         transform="translate(9.9883,34.7607)"
         d="M 0,0 3.613,3.703" />
      <path
         id="path180"
         transform="translate(20.958,43.6064)"
         d="M 0,0 -1.791,-1.835" />
      <path
         id="path182"
         transform="translate(15.3076,37.8164)"
         d="M 0,0 -3.492,-3.579" />
      <path
         id="path184"
         transform="translate(20.9063,41.1582)"
         d="M 0,0 2.53,2.592" />
      <path
         id="path186"
         transform="translate(17.1084,37.2666)"
         d="M 0,0 -3.025,-3.1" />
      <path
         id="path188"
         transform="translate(23.0147,40.9229)"
         d="M 0,0 2.87,2.941" />
      <path
         id="path190"
         transform="translate(19.1553,36.9683)"
         d="M 0,0 -2.805,-2.873" />
      <path
         id="path192"
         transform="translate(25.833,41.4155)"
         d="M 0,0 2.531,2.595" />
      <path
         id="path194"
         transform="translate(18.6192,34.0234)"
         d="M 0,0 2.984,3.059" />
      <path
         id="path196"
         transform="translate(28.3438,41.5923)"
         d="M 0,0 2.47,2.531" />
      <path
         id="path198"
         transform="translate(21.1201,34.1909)"
         d="M 0,0 2.532,2.594" />
      <path
         id="path200"
         transform="translate(30.8233,41.7383)"
         d="M 0,0 2.315,2.373" />
      <path
         id="path202"
         transform="translate(23.5694,34.3052)"
         d="M 0,0 1.883,1.93" />
      <path
         id="path204"
         transform="translate(33.334,41.916)"
         d="M 0,0 1.852,1.898" />
      <path
         id="path206"
         transform="translate(9.5449,48.4541)"
         d="M 0,0 2.192,2.246" />
      <path
         id="path208"
         transform="translate(11.2842,47.8408)"
         d="M 0,0 3.271,3.353" />
      <path
         id="path210"
         transform="translate(13.2696,47.48)"
         d="M 0,0 3.272,3.353" />
      <path
         id="path212"
         transform="translate(15.7803,47.6577)"
         d="M 0,0 2.994,3.068" />
      <path
         id="path214"
         transform="translate(18.1983,47.7402)"
         d="M 0,0 2.747,2.814" />
      <path
         id="path216"
         transform="translate(21.1406,48.3594)"
         d="M 0,0 1.76,1.803" />
      <path
         id="path218"
         transform="translate(37.0928,46.6548)"
         d="M 0,0 1.884,1.93" />
      <path
         id="path220"
         transform="translate(38.4004,45.6001)"
         d="M 0,0 3.241,3.321" />
      <path
         id="path222"
         transform="translate(40.0772,44.9219)"
         d="M 0,0 3.982,4.08" />
      <path
         id="path224"
         transform="translate(42.2168,44.7192)"
         d="M 0,0 4.014,4.113" />
      <path
         id="path226"
         transform="translate(44.6045,44.7705)"
         d="M 0,0 3.674,3.764" />
      <path
         id="path228"
         transform="translate(46.6826,44.5044)"
         d="M 0,0 3.705,3.797" />
      <path
         id="path230"
         transform="translate(48.8223,44.3018)"
         d="M 0,0 3.643,3.733" />
      <path
         id="path232"
         transform="translate(50.7774,43.9092)"
         d="M 0,0 3.348,3.431" />
      <path
         id="path234"
         transform="translate(52.6094,43.3916)"
         d="M 0,0 1.516,1.553" />
      <path
         id="path236"
         transform="translate(52.7637,10.4233)"
         d="M 0,0 -1.39,-1.423" />
      <path
         id="path238"
         transform="translate(53.5459,8.8291)"
         d="M 0,0 0.579,0.593" />
      <path
         id="path240"
         transform="translate(51.5821,27.168)"
         d="M 0,0 2.253,2.309" />
      <path
         id="path242"
         transform="translate(53.7842,27.0288)"
         d="M 0,0 0.341,0.349" />
    </g>
  </g>
</svg>
