<?xml version="1.0" encoding="UTF-8" standalone="no"?>
<svg
   xmlns:dc="http://purl.org/dc/elements/1.1/"
   xmlns:cc="http://creativecommons.org/ns#"
   xmlns:rdf="http://www.w3.org/1999/02/22-rdf-syntax-ns#"
   xmlns:svg="http://www.w3.org/2000/svg"
   xmlns="http://www.w3.org/2000/svg"
   height="54.125"
   width="54.125"
   id="svg566"
   version="1.1">
  <defs
     id="defs570" />
  <metadata
     id="metadata2">citation: U.S. Geological Survey, 2006, FGDC Digital Cartographic Standard for Geologic Map Symbolization (PostScript Implementation): U.S. Geological Survey Techniques and Methods 11-A2 [pubs.usgs.gov/tm/2006/11A02/]. converted by CEC Geology LLC 2018 from the USGS lithologic gs converted to inkscape by the University of Otago.<rdf:RDF>
  <cc:Work
     rdf:about="">
    <dc:format>image/svg+xml</dc:format>
    <dc:type
       rdf:resource="http://purl.org/dc/dcmitype/StillImage" />
    <dc:title></dc:title>
  </cc:Work>
</rdf:RDF>
</metadata>
  <g

     stroke="#231f20"
     fill="none"

     id="g564"
     width="54.125"
     height="54.125">
    <path
       style="stroke-width:0.30000001"
       id="path4"
       transform="translate(0,50.375)"
       d="M 0,0 H 54.125" />
    <path
       style="stroke-width:0.30000001"
       id="path6"
       transform="translate(0,46.2)"
       d="M 0,0 H 54.125" />
    <path
       style="stroke-width:0.30000001"
       id="path8"
       transform="translate(0,42.0125)"
       d="M 0,0 H 54.125" />
    <path
       style="stroke-width:0.30000001"
       id="path10"
       transform="translate(0,12.3997)"
       d="M 0,0 H 54.188" />
    <path
       style="stroke-width:0.30000001"
       id="path12"
       transform="translate(0,8.6246)"
       d="M 0,0 H 54.125" />
    <path
       style="stroke-width:0.30000001"
       id="path14"
       transform="translate(0,37.9937)"
       d="M 0,0 H 54.125" />
    <path
       style="stroke-width:0.30000001"
       id="path16"
       transform="translate(0,34.7123)"
       d="M 0,0 H 54.125" />
    <path
       style="stroke-width:0.30000001"
       id="path18"
       transform="translate(0,31.2873)"
       d="M 0,0 H 54.125" />
    <path
       style="stroke-width:0.30000001"
       id="path20"
       transform="translate(0,27.2373)"
       d="M 0,0 H 54.125" />
    <path
       style="stroke-width:0.30000001"
       id="path22"
       transform="translate(0,23.4373)"
       d="M 0,0 H 54.125" />
    <path
       style="stroke-width:0.30000001"
       id="path24"
       transform="translate(0,19.2373)"
       d="M 0,0 H 54.188" />
    <path
       style="stroke-width:0.30000001"
       id="path26"
       transform="translate(0,16.0123)"
       d="M 0,0 H 54.125" />
    <path
       style="stroke-width:0.30000001"
       id="path28"
       transform="translate(0,0.8374)"
       d="M 0,0 H 54.125" />
    <path
       style="stroke-width:0.30000001"
       id="path30"
       transform="translate(5.925,54.125)"
       d="M 0,0 V -3.75" />
    <path
       style="stroke-width:0.30000001"
       id="path32"
       transform="translate(18.675,54.125)"
       d="M 0,0 V -3.75" />
    <path
       style="stroke-width:0.30000001"
       id="path34"
       transform="translate(32.175,54.125)"
       d="M 0,0 V -3.75" />
    <path
       style="stroke-width:0.30000001"
       id="path36"
       transform="translate(46.55,54.125)"
       d="M 0,0 V -3.75" />
    <path
       style="stroke-width:0.30000001"
       id="path38"
       transform="translate(5.925,0.8499)"
       d="M 0,0 V -0.85" />
    <path
       style="stroke-width:0.30000001"
       id="path40"
       transform="translate(18.675,0.8499)"
       d="M 0,0 V -0.85" />
    <path
       style="stroke-width:0.30000001"
       id="path42"
       transform="translate(32.175,0.8499)"
       d="M 0,0 V -0.85" />
    <path
       style="stroke-width:0.30000001"
       id="path44"
       transform="translate(46.55,0.8499)"
       d="M 0,0 V -0.85" />
    <path
       style="stroke-width:0.30000001"
       id="path46"
       transform="translate(12.6,50.4375)"
       d="M 0,0 V -4.225" />
    <path
       style="stroke-width:0.30000001"
       id="path48"
       transform="translate(27.475,50.4375)"
       d="M 0,0 V -4.225" />
    <path
       style="stroke-width:0.30000001"
       id="path50"
       transform="translate(41.1,50.4375)"
       d="M 0,0 V -4.225" />
    <path
       style="stroke-width:0.30000001"
       id="path52"
       transform="translate(53.925,50.4375)"
       d="M 0,0 V -4.225" />
    <path
       style="stroke-width:0.30000001"
       id="path54"
       transform="translate(7.0375,46.075)"
       d="M 0,0 V -4.05" />
    <path
       style="stroke-width:0.30000001"
       id="path56"
       transform="translate(20.2875,46.075)"
       d="M 0,0 V -4.05" />
    <path
       style="stroke-width:0.30000001"
       id="path58"
       transform="translate(33.85,46.075)"
       d="M 0,0 V -4.05" />
    <path
       style="stroke-width:0.30000001"
       id="path60"
       transform="translate(48.7875,46.075)"
       d="M 0,0 V -4.05" />
    <path
       style="stroke-width:0.30000001"
       id="path62"
       transform="translate(40.1625,42.0249)"
       d="M 0,0 V -4" />
    <path
       style="stroke-width:0.30000001"
       id="path64"
       transform="translate(26.7875,42.0249)"
       d="M 0,0 V -4" />
    <path
       style="stroke-width:0.30000001"
       id="path66"
       transform="translate(11.9125,42.0249)"
       d="M 0,0 V -4" />
    <path
       style="stroke-width:0.30000001"
       id="path68"
       transform="translate(53.4125,42.0249)"
       d="M 0,0 V -4" />
    <path
       style="stroke-width:0.30000001"
       id="path70"
       transform="translate(46.55,38.025)"
       d="M 0,0 V -3.3" />
    <path
       style="stroke-width:0.30000001"
       id="path72"
       transform="translate(31.925,38.025)"
       d="M 0,0 V -3.3" />
    <path
       style="stroke-width:0.30000001"
       id="path74"
       transform="translate(18.675,38.025)"
       d="M 0,0 V -3.3" />
    <path
       style="stroke-width:0.30000001"
       id="path76"
       transform="translate(5.925,38.025)"
       d="M 0,0 V -3.3" />
    <path
       style="stroke-width:0.30000001"
       id="path78"
       transform="translate(12.475,34.7248)"
       d="M 0,0 V -3.425" />
    <path
       style="stroke-width:0.30000001"
       id="path80"
       transform="translate(27.475,34.7248)"
       d="M 0,0 V -3.425" />
    <path
       style="stroke-width:0.30000001"
       id="path82"
       transform="translate(41.225,34.7248)"
       d="M 0,0 V -3.425" />
    <path
       style="stroke-width:0.30000001"
       id="path84"
       transform="translate(53.975,34.7248)"
       d="M 0,0 V -3.425" />
    <path
       style="stroke-width:0.30000001"
       id="path86"
       transform="translate(6.6625,31.2998)"
       d="M 0,0 V -4.05" />
    <path
       style="stroke-width:0.30000001"
       id="path88"
       transform="translate(20.1625,31.2998)"
       d="M 0,0 V -4.05" />
    <path
       style="stroke-width:0.30000001"
       id="path90"
       transform="translate(33.7875,31.2998)"
       d="M 0,0 V -4.05" />
    <path
       style="stroke-width:0.30000001"
       id="path92"
       transform="translate(48.6625,31.2998)"
       d="M 0,0 V -4.05" />
    <path
       style="stroke-width:0.30000001"
       id="path94"
       transform="translate(40.0375,27.1873)"
       d="M 0,0 V -3.738" />
    <path
       style="stroke-width:0.30000001"
       id="path96"
       transform="translate(26.7126,27.1873)"
       d="M 0,0 V -3.738" />
    <path
       style="stroke-width:0.30000001"
       id="path98"
       transform="translate(11.7126,27.1873)"
       d="M 0,0 V -3.738" />
    <path
       style="stroke-width:0.30000001"
       id="path100"
       transform="translate(53.2667,27.1873)"
       d="M 0,0 V -3.738" />
    <path
       style="stroke-width:0.30000001"
       id="path102"
       transform="translate(5.5251,23.3873)"
       d="M 0,0 V -4.137" />
    <path
       style="stroke-width:0.30000001"
       id="path104"
       transform="translate(18.5251,23.3873)"
       d="M 0,0 V -4.137" />
    <path
       style="stroke-width:0.30000001"
       id="path106"
       transform="translate(32.1501,23.3873)"
       d="M 0,0 V -4.137" />
    <path
       style="stroke-width:0.30000001"
       id="path108"
       transform="translate(46.4001,23.3873)"
       d="M 0,0 V -4.137" />
    <path
       style="stroke-width:0.30000001"
       id="path110"
       transform="translate(42.2,19.1873)"
       d="M 0,0 V -3.163" />
    <path
       style="stroke-width:0.30000001"
       id="path112"
       transform="translate(28.05,19.1873)"
       d="M 0,0 V -3.163" />
    <path
       style="stroke-width:0.30000001"
       id="path114"
       transform="translate(12.925,19.1873)"
       d="M 0,0 V -3.163" />
    <path
       style="stroke-width:0.30000001"
       id="path116"
       transform="translate(0.5083,19.1873)"
       d="M 0,0 V -3.163" />
    <path
       style="stroke-width:0.30000001"
       id="path118"
       transform="translate(6.8833,15.9623)"
       d="M 0,0 V -3.563" />
    <path
       style="stroke-width:0.30000001"
       id="path120"
       transform="translate(20.1333,15.9623)"
       d="M 0,0 V -3.563" />
    <path
       style="stroke-width:0.30000001"
       id="path122"
       transform="translate(33.7583,15.9623)"
       d="M 0,0 V -3.563" />
    <path
       style="stroke-width:0.30000001"
       id="path124"
       transform="translate(48.6333,15.9623)"
       d="M 0,0 V -3.563" />
    <path
       style="stroke-width:0.30000001"
       id="path126"
       transform="translate(40.2834,12.3497)"
       d="M 0,0 V -3.763" />
    <path
       style="stroke-width:0.30000001"
       id="path128"
       transform="translate(26.4084,12.3497)"
       d="M 0,0 V -3.763" />
    <path
       style="stroke-width:0.30000001"
       id="path130"
       transform="translate(11.8583,12.3497)"
       d="M 0,0 V -3.763" />
    <path
       style="stroke-width:0.30000001"
       id="path132"
       transform="translate(53.7333,12.3497)"
       d="M 0,0 V -3.763" />
    <path
       style="stroke-width:0.30000001"
       id="path134"
       transform="translate(0,4.2122)"
       d="M 0,0 H 54.125" />
    <path
       style="stroke-width:0.30000001"
       id="path136"
       transform="translate(10.2958,4.2375)"
       d="M 0,0 V -3.463" />
    <path
       style="stroke-width:0.30000001"
       id="path138"
       transform="translate(24.7333,4.2375)"
       d="M 0,0 V -3.463" />
    <path
       style="stroke-width:0.30000001"
       id="path140"
       transform="translate(38.3583,4.2375)"
       d="M 0,0 V -3.463" />
    <path
       style="stroke-width:0.30000001"
       id="path142"
       transform="translate(51.7333,4.2375)"
       d="M 0,0 V -3.463" />
    <path
       style="stroke-width:0.30000001"
       id="path144"
       transform="translate(4.5708,8.5873)"
       d="M 0,0 V -4.35" />
    <path
       style="stroke-width:0.30000001"
       id="path146"
       transform="translate(17.5708,8.5873)"
       d="M 0,0 V -4.35" />
    <path
       style="stroke-width:0.30000001"
       id="path148"
       transform="translate(31.5708,8.5873)"
       d="M 0,0 V -4.35" />
    <path
       style="stroke-width:0.30000001"
       id="path150"
       transform="translate(46.1333,8.5873)"
       d="M 0,0 V -4.35" />
    <g
       style="stroke-width:0.69999999;stroke-linecap:round"
       id="g562">
      <path
         id="path152"
         transform="translate(7.3333,53.2916)"
         d="M 0,0 0.01,0.01" />
      <path
         id="path154"
         transform="translate(9.75,51.4583)"
         d="M 0,0 0.01,0.01" />
      <path
         id="path156"
         transform="translate(13.25,53.375)"
         d="M 0,0 0.01,0.01" />
      <path
         id="path158"
         transform="translate(16.6667,51.5416)"
         d="M 0,0 0.01,0.01" />
      <path
         id="path160"
         transform="translate(20.25,53.0416)"
         d="M 0,0 0.01,0.01" />
      <path
         id="path162"
         transform="translate(22.6667,51.4583)"
         d="M 0,0 0.01,0.01" />
      <path
         id="path164"
         transform="translate(26.0833,53.125)"
         d="M 0,0 0.01,0.01" />
      <path
         id="path166"
         transform="translate(29.6667,51.2083)"
         d="M 0,0 0.01,0.01" />
      <path
         id="path168"
         transform="translate(17.375,47.5)"
         d="M 0,0 0.01,0.01" />
      <path
         id="path170"
         transform="translate(14.25,49.0416)"
         d="M 0,0 0.01,0.01" />
      <path
         id="path172"
         transform="translate(10,47.2083)"
         d="M 0,0 0.01,0.01" />
      <path
         id="path174"
         transform="translate(7.3333,49.125)"
         d="M 0,0 0.01,0.01" />
      <path
         id="path176"
         transform="translate(4.25,47.5)"
         d="M 0,0 0.01,0.01" />
      <path
         id="path178"
         transform="translate(1.4167,49.125)"
         d="M 0,0 0.01,0.01" />
      <path
         id="path180"
         transform="translate(3.5,51.125)"
         d="M 0,0 0.01,0.01" />
      <path
         id="path182"
         transform="translate(0.8333,53.125)"
         d="M 0,0 0.01,0.01" />
      <path
         id="path184"
         transform="translate(20.75,49.125)"
         d="M 0,0 0.01,0.01" />
      <path
         id="path186"
         transform="translate(25.25,47.5)"
         d="M 0,0 0.01,0.01" />
      <path
         id="path188"
         transform="translate(29.3333,49.2083)"
         d="M 0,0 0.01,0.01" />
      <path
         id="path190"
         transform="translate(32,47.375)"
         d="M 0,0 0.01,0.01" />
      <path
         id="path192"
         transform="translate(36.125,48.75)"
         d="M 0,0 0.01,0.01" />
      <path
         id="path194"
         transform="translate(39.1667,47.2083)"
         d="M 0,0 0.01,0.01" />
      <path
         id="path196"
         transform="translate(42.875,48.875)"
         d="M 0,0 0.01,0.01" />
      <path
         id="path198"
         transform="translate(46.125,47.5)"
         d="M 0,0 0.01,0.01" />
      <path
         id="path200"
         transform="translate(49.125,49.125)"
         d="M 0,0 0.01,0.01" />
      <path
         id="path202"
         transform="translate(52.5,47.625)"
         d="M 0,0 0.01,0.01" />
      <path
         id="path204"
         transform="translate(50.4167,45.125)"
         d="M 0,0 0.01,0.01" />
      <path
         id="path206"
         transform="translate(53.1667,43.125)"
         d="M 0,0 0.01,0.01" />
      <path
         id="path208"
         transform="translate(1.6667,45.375)"
         d="M 0,0 0.01,0.01" />
      <path
         id="path210"
         transform="translate(4.5833,43.0416)"
         d="M 0,0 0.01,0.01" />
      <path
         id="path212"
         transform="translate(8.75,45.125)"
         d="M 0,0 0.01,0.01" />
      <path
         id="path214"
         transform="translate(12.375,43.25)"
         d="M 0,0 0.01,0.01" />
      <path
         id="path216"
         transform="translate(15.875,45)"
         d="M 0,0 0.01,0.01" />
      <path
         id="path218"
         transform="translate(18.3333,42.9583)"
         d="M 0,0 0.01,0.01" />
      <path
         id="path220"
         transform="translate(22.1667,45.2916)"
         d="M 0,0 0.01,0.01" />
      <path
         id="path222"
         transform="translate(25.125,43.5)"
         d="M 0,0 0.01,0.01" />
      <path
         id="path224"
         transform="translate(28.25,45.2916)"
         d="M 0,0 0.01,0.01" />
      <path
         id="path226"
         transform="translate(31.25,43.625)"
         d="M 0,0 0.01,0.01" />
      <path
         id="path228"
         transform="translate(35.125,44.875)"
         d="M 0,0 0.01,0.01" />
      <path
         id="path230"
         transform="translate(38.625,43.375)"
         d="M 0,0 0.01,0.01" />
      <path
         id="path232"
         transform="translate(42.25,45)"
         d="M 0,0 0.01,0.01" />
      <path
         id="path234"
         transform="translate(46.25,43.25)"
         d="M 0,0 0.01,0.01" />
      <path
         id="path236"
         transform="translate(4.375,39.25)"
         d="M 0,0 0.01,0.01" />
      <path
         id="path238"
         transform="translate(1.375,40.5)"
         d="M 0,0 0.01,0.01" />
      <path
         id="path240"
         transform="translate(7.625,40.625)"
         d="M 0,0 0.01,0.01" />
      <path
         id="path242"
         transform="translate(10.0833,39.0416)"
         d="M 0,0 0.01,0.01" />
      <path
         id="path244"
         transform="translate(13.5,40.625)"
         d="M 0,0 0.01,0.01" />
      <path
         id="path246"
         transform="translate(16.75,39.25)"
         d="M 0,0 0.01,0.01" />
      <path
         id="path248"
         transform="translate(20.5,41.0416)"
         d="M 0,0 0.01,0.01" />
      <path
         id="path250"
         transform="translate(23.4167,39.0416)"
         d="M 0,0 0.01,0.01" />
      <path
         id="path252"
         transform="translate(28.25,40.75)"
         d="M 0,0 0.01,0.01" />
      <path
         id="path254"
         transform="translate(31.25,39.375)"
         d="M 0,0 0.01,0.01" />
      <path
         id="path256"
         transform="translate(34.9167,41.0416)"
         d="M 0,0 0.01,0.01" />
      <path
         id="path258"
         transform="translate(38,39.375)"
         d="M 0,0 0.01,0.01" />
      <path
         id="path260"
         transform="translate(42.0833,40.9583)"
         d="M 0,0 0.01,0.01" />
      <path
         id="path262"
         transform="translate(45.125,39.375)"
         d="M 0,0 0.01,0.01" />
      <path
         id="path264"
         transform="translate(48.3333,40.9583)"
         d="M 0,0 0.01,0.01" />
      <path
         id="path266"
         transform="translate(51.875,39.25)"
         d="M 0,0 0.01,0.01" />
      <path
         id="path268"
         transform="translate(49,37)"
         d="M 0,0 0.01,0.01" />
      <path
         id="path270"
         transform="translate(44.8333,35.625)"
         d="M 0,0 0.01,0.01" />
      <path
         id="path272"
         transform="translate(39.75,36.875)"
         d="M 0,0 0.01,0.01" />
      <path
         id="path274"
         transform="translate(34.875,36.5)"
         d="M 0,0 0.01,0.01" />
      <path
         id="path276"
         transform="translate(29.625,36.75)"
         d="M 0,0 0.01,0.01" />
      <path
         id="path278"
         transform="translate(25.125,36.125)"
         d="M 0,0 0.01,0.01" />
      <path
         id="path280"
         transform="translate(20.5833,36.9583)"
         d="M 0,0 0.01,0.01" />
      <path
         id="path282"
         transform="translate(16.625,35.875)"
         d="M 0,0 0.01,0.01" />
      <path
         id="path284"
         transform="translate(12.25,36.625)"
         d="M 0,0 0.01,0.01" />
      <path
         id="path286"
         transform="translate(8.25,36)"
         d="M 0,0 0.01,0.01" />
      <path
         id="path288"
         transform="translate(3.75,36.25)"
         d="M 0,0 0.01,0.01" />
      <path
         id="path290"
         transform="translate(52.875,35.875)"
         d="M 0,0 0.01,0.01" />
      <path
         id="path292"
         transform="translate(0.625,33.75)"
         d="M 0,0 0.01,0.01" />
      <path
         id="path294"
         transform="translate(5.3333,33.4583)"
         d="M 0,0 0.01,0.01" />
      <path
         id="path296"
         transform="translate(10.25,32.375)"
         d="M 0,0 0.01,0.01" />
      <path
         id="path298"
         transform="translate(14.6667,33.125)"
         d="M 0,0 0.01,0.01" />
      <path
         id="path300"
         transform="translate(19.6667,32.4583)"
         d="M 0,0 0.01,0.01" />
      <path
         id="path302"
         transform="translate(24.1667,33.4583)"
         d="M 0,0 0.01,0.01" />
      <path
         id="path304"
         transform="translate(30.3333,33.2916)"
         d="M 0,0 0.01,0.01" />
      <path
         id="path306"
         transform="translate(34.6667,33.625)"
         d="M 0,0 0.01,0.01" />
      <path
         id="path308"
         transform="translate(38.8333,32.7916)"
         d="M 0,0 0.01,0.01" />
      <path
         id="path310"
         transform="translate(43.1667,33.125)"
         d="M 0,0 0.01,0.01" />
      <path
         id="path312"
         transform="translate(47.3333,33.4583)"
         d="M 0,0 0.01,0.01" />
      <path
         id="path314"
         transform="translate(52,33.125)"
         d="M 0,0 0.01,0.01" />
      <path
         id="path316"
         transform="translate(49.75,30.2916)"
         d="M 0,0 0.01,0.01" />
      <path
         id="path318"
         transform="translate(52.75,28.375)"
         d="M 0,0 0.01,0.01" />
      <path
         id="path320"
         transform="translate(46.9167,28.2916)"
         d="M 0,0 0.01,0.01" />
      <path
         id="path322"
         transform="translate(41.75,26.2916)"
         d="M 0,0 0.01,0.01" />
      <path
         id="path324"
         transform="translate(44.5,24.4583)"
         d="M 0,0 0.01,0.01" />
      <path
         id="path326"
         transform="translate(47.9167,26.2916)"
         d="M 0,0 0.01,0.01" />
      <path
         id="path328"
         transform="translate(51.0833,24.5416)"
         d="M 0,0 0.01,0.01" />
      <path
         id="path330"
         transform="translate(47.8333,22.375)"
         d="M 0,0 0.01,0.01" />
      <path
         id="path332"
         transform="translate(50.875,20.75)"
         d="M 0,0 0.01,0.01" />
      <path
         id="path334"
         transform="translate(44.5,20.625)"
         d="M 0,0 0.01,0.01" />
      <path
         id="path336"
         transform="translate(41.25,22.375)"
         d="M 0,0 0.01,0.01" />
      <path
         id="path338"
         transform="translate(1.3333,10.125)"
         d="M 0,0 0.01,0.01" />
      <path
         id="path340"
         transform="translate(6.5,10.9583)"
         d="M 0,0 0.01,0.01" />
      <path
         id="path342"
         transform="translate(10.0833,9.5416)"
         d="M 0,0 0.01,0.01" />
      <path
         id="path344"
         transform="translate(13.5833,11.5416)"
         d="M 0,0 0.01,0.01" />
      <path
         id="path346"
         transform="translate(16.5833,9.625)"
         d="M 0,0 0.01,0.01" />
      <path
         id="path348"
         transform="translate(20.5833,11.4583)"
         d="M 0,0 0.01,0.01" />
      <path
         id="path350"
         transform="translate(23.875,9.875)"
         d="M 0,0 0.01,0.01" />
      <path
         id="path352"
         transform="translate(28.3333,11.4583)"
         d="M 0,0 0.01,0.01" />
      <path
         id="path354"
         transform="translate(30.75,9.875)"
         d="M 0,0 0.01,0.01" />
      <path
         id="path356"
         transform="translate(35.25,11.625)"
         d="M 0,0 0.01,0.01" />
      <path
         id="path358"
         transform="translate(38.125,10)"
         d="M 0,0 0.01,0.01" />
      <path
         id="path360"
         transform="translate(42.25,11.5416)"
         d="M 0,0 0.01,0.01" />
      <path
         id="path362"
         transform="translate(45.25,9.75)"
         d="M 0,0 0.01,0.01" />
      <path
         id="path364"
         transform="translate(48.8333,11.5416)"
         d="M 0,0 0.01,0.01" />
      <path
         id="path366"
         transform="translate(51.9167,9.625)"
         d="M 0,0 0.01,0.01" />
      <path
         id="path368"
         transform="translate(2.375,5.625)"
         d="M 0,0 0.01,0.01" />
      <path
         id="path370"
         transform="translate(6.5,7.625)"
         d="M 0,0 0.01,0.01" />
      <path
         id="path372"
         transform="translate(9.375,5.625)"
         d="M 0,0 0.01,0.01" />
      <path
         id="path374"
         transform="translate(12.6667,7.875)"
         d="M 0,0 0.01,0.01" />
      <path
         id="path376"
         transform="translate(15.4167,5.375)"
         d="M 0,0 0.01,0.01" />
      <path
         id="path378"
         transform="translate(19.25,7.7083)"
         d="M 0,0 0.01,0.01" />
      <path
         id="path380"
         transform="translate(22.125,5.5)"
         d="M 0,0 0.01,0.01" />
      <path
         id="path382"
         transform="translate(26.0833,7.625)"
         d="M 0,0 0.01,0.01" />
      <path
         id="path384"
         transform="translate(29.5,5.5)"
         d="M 0,0 0.01,0.01" />
      <path
         id="path386"
         transform="translate(33.5833,7.5416)"
         d="M 0,0 0.01,0.01" />
      <path
         id="path388"
         transform="translate(36.75,5.5)"
         d="M 0,0 0.01,0.01" />
      <path
         id="path390"
         transform="translate(40.6667,7.5416)"
         d="M 0,0 0.01,0.01" />
      <path
         id="path392"
         transform="translate(44.25,5.75)"
         d="M 0,0 0.01,0.01" />
      <path
         id="path394"
         transform="translate(48.3333,7.5416)"
         d="M 0,0 0.01,0.01" />
      <path
         id="path396"
         transform="translate(51.4167,5.2083)"
         d="M 0,0 0.01,0.01" />
      <path
         id="path398"
         transform="translate(52.75,3.25)"
         d="M 0,0 0.01,0.01" />
      <path
         id="path400"
         transform="translate(1.125,2)"
         d="M 0,0 0.01,0.01" />
      <path
         id="path402"
         transform="translate(5.4167,3.4583)"
         d="M 0,0 0.01,0.01" />
      <path
         id="path404"
         transform="translate(8.5,2.2916)"
         d="M 0,0 0.01,0.01" />
      <path
         id="path406"
         transform="translate(12.5,2.9583)"
         d="M 0,0 0.01,0.01" />
      <path
         id="path408"
         transform="translate(18.1667,2.9583)"
         d="M 0,0 0.01,0.01" />
      <path
         id="path410"
         transform="translate(23,2.125)"
         d="M 0,0 0.01,0.01" />
      <path
         id="path412"
         transform="translate(26.125,3.125)"
         d="M 0,0 0.01,0.01" />
      <path
         id="path414"
         transform="translate(29.5,1.875)"
         d="M 0,0 0.01,0.01" />
      <path
         id="path416"
         transform="translate(33.25,3.25)"
         d="M 0,0 0.01,0.01" />
      <path
         id="path418"
         transform="translate(36.5,2)"
         d="M 0,0 0.01,0.01" />
      <path
         id="path420"
         transform="translate(40.375,3.25)"
         d="M 0,0 0.01,0.01" />
      <path
         id="path422"
         transform="translate(44.6667,2.2916)"
         d="M 0,0 0.01,0.01" />
      <path
         id="path424"
         transform="translate(49,2.625)"
         d="M 0,0 0.01,0.01" />
      <path
         id="path426"
         transform="translate(44.875,17.5)"
         d="M 0,0 0.01,0.01" />
      <path
         id="path428"
         transform="translate(48.75,18.125)"
         d="M 0,0 0.01,0.01" />
      <path
         id="path430"
         transform="translate(52.625,17.5)"
         d="M 0,0 0.01,0.01" />
      <path
         id="path432"
         transform="translate(39.875,17.5)"
         d="M 0,0 0.01,0.01" />
      <path
         id="path434"
         transform="translate(35,18.25)"
         d="M 0,0 0.01,0.01" />
      <path
         id="path436"
         transform="translate(30,17.5)"
         d="M 0,0 0.01,0.01" />
      <path
         id="path438"
         transform="translate(29.75,20.625)"
         d="M 0,0 0.01,0.01" />
      <path
         id="path440"
         transform="translate(23.25,20.5)"
         d="M 0,0 0.01,0.01" />
      <path
         id="path442"
         transform="translate(26.5,22.2916)"
         d="M 0,0 0.01,0.01" />
      <path
         id="path444"
         transform="translate(20.4167,22.2916)"
         d="M 0,0 0.01,0.01" />
      <path
         id="path446"
         transform="translate(16.625,20.625)"
         d="M 0,0 0.01,0.01" />
      <path
         id="path448"
         transform="translate(13.5833,22.2916)"
         d="M 0,0 0.01,0.01" />
      <path
         id="path450"
         transform="translate(10.5833,20.2083)"
         d="M 0,0 0.01,0.01" />
      <path
         id="path452"
         transform="translate(7.4167,22.2916)"
         d="M 0,0 0.01,0.01" />
      <path
         id="path454"
         transform="translate(3.4167,20.4583)"
         d="M 0,0 0.01,0.01" />
      <path
         id="path456"
         transform="translate(0.5833,22.4583)"
         d="M 0,0 0.01,0.01" />
      <path
         id="path458"
         transform="translate(1.875,17.5)"
         d="M 0,0 0.01,0.01" />
      <path
         id="path460"
         transform="translate(6,18.125)"
         d="M 0,0 0.01,0.01" />
      <path
         id="path462"
         transform="translate(5.5,13.7916)"
         d="M 0,0 0.01,0.01" />
      <path
         id="path464"
         transform="translate(2.25,14.875)"
         d="M 0,0 0.01,0.01" />
      <path
         id="path466"
         transform="translate(49.9167,14.7083)"
         d="M 0,0 0.01,0.01" />
      <path
         id="path468"
         transform="translate(46.75,13.75)"
         d="M 0,0 0.01,0.01" />
      <path
         id="path470"
         transform="translate(40.8333,14.125)"
         d="M 0,0 0.01,0.01" />
      <path
         id="path472"
         transform="translate(35.375,15)"
         d="M 0,0 0.01,0.01" />
      <path
         id="path474"
         transform="translate(31,13.7916)"
         d="M 0,0 0.01,0.01" />
      <path
         id="path476"
         transform="translate(26.3333,13.9583)"
         d="M 0,0 0.01,0.01" />
      <path
         id="path478"
         transform="translate(22,15.125)"
         d="M 0,0 0.01,0.01" />
      <path
         id="path480"
         transform="translate(17.875,13.75)"
         d="M 0,0 0.01,0.01" />
      <path
         id="path482"
         transform="translate(13.5,14.625)"
         d="M 0,0 0.01,0.01" />
      <path
         id="path484"
         transform="translate(8.5,14.2916)"
         d="M 0,0 0.01,0.01" />
      <path
         id="path486"
         transform="translate(53.375,14)"
         d="M 0,0 0.01,0.01" />
      <path
         id="path488"
         transform="translate(10.5,17)"
         d="M 0,0 0.01,0.01" />
      <path
         id="path490"
         transform="translate(15.75,17.375)"
         d="M 0,0 0.01,0.01" />
      <path
         id="path492"
         transform="translate(20.125,17.625)"
         d="M 0,0 0.01,0.01" />
      <path
         id="path494"
         transform="translate(25.375,18.125)"
         d="M 0,0 0.01,0.01" />
      <path
         id="path496"
         transform="translate(34.4167,22.2083)"
         d="M 0,0 0.01,0.01" />
      <path
         id="path498"
         transform="translate(37.5,20.2916)"
         d="M 0,0 0.01,0.01" />
      <path
         id="path500"
         transform="translate(43.5,30.0416)"
         d="M 0,0 0.01,0.01" />
      <path
         id="path502"
         transform="translate(35.4167,29.9583)"
         d="M 0,0 0.01,0.01" />
      <path
         id="path504"
         transform="translate(39.9167,28.5416)"
         d="M 0,0 0.01,0.01" />
      <path
         id="path506"
         transform="translate(31.25,28.375)"
         d="M 0,0 0.01,0.01" />
      <path
         id="path508"
         transform="translate(28.6667,29.9583)"
         d="M 0,0 0.01,0.01" />
      <path
         id="path510"
         transform="translate(24.875,28.5)"
         d="M 0,0 0.01,0.01" />
      <path
         id="path512"
         transform="translate(22.0833,29.9583)"
         d="M 0,0 0.01,0.01" />
      <path
         id="path514"
         transform="translate(18.5,28.625)"
         d="M 0,0 0.01,0.01" />
      <path
         id="path516"
         transform="translate(15.9167,30.2083)"
         d="M 0,0 0.01,0.01" />
      <path
         id="path518"
         transform="translate(12.3333,28.2916)"
         d="M 0,0 0.01,0.01" />
      <path
         id="path520"
         transform="translate(8.5,29.875)"
         d="M 0,0 0.01,0.01" />
      <path
         id="path522"
         transform="translate(4.75,28.375)"
         d="M 0,0 0.01,0.01" />
      <path
         id="path524"
         transform="translate(1.375,30)"
         d="M 0,0 0.01,0.01" />
      <path
         id="path526"
         transform="translate(0.875,26.125)"
         d="M 0,0 0.01,0.01" />
      <path
         id="path528"
         transform="translate(3.5,24.0416)"
         d="M 0,0 0.01,0.01" />
      <path
         id="path530"
         transform="translate(6.6667,26.0416)"
         d="M 0,0 0.01,0.01" />
      <path
         id="path532"
         transform="translate(9.8333,24.375)"
         d="M 0,0 0.01,0.01" />
      <path
         id="path534"
         transform="translate(13.6667,26.2916)"
         d="M 0,0 0.01,0.01" />
      <path
         id="path536"
         transform="translate(16.6667,24.375)"
         d="M 0,0 0.01,0.01" />
      <path
         id="path538"
         transform="translate(20.25,26.2083)"
         d="M 0,0 0.01,0.01" />
      <path
         id="path540"
         transform="translate(23.9167,24.375)"
         d="M 0,0 0.01,0.01" />
      <path
         id="path542"
         transform="translate(28.4167,26.0416)"
         d="M 0,0 0.01,0.01" />
      <path
         id="path544"
         transform="translate(31.75,24.2916)"
         d="M 0,0 0.01,0.01" />
      <path
         id="path546"
         transform="translate(35.9167,26.125)"
         d="M 0,0 0.01,0.01" />
      <path
         id="path548"
         transform="translate(38.3333,24.375)"
         d="M 0,0 0.01,0.01" />
      <path
         id="path550"
         transform="translate(34.5833,53.4583)"
         d="M 0,0 0.01,0.01" />
      <path
         id="path552"
         transform="translate(37.9167,51.0416)"
         d="M 0,0 0.01,0.01" />
      <path
         id="path554"
         transform="translate(41.1667,53.125)"
         d="M 0,0 0.01,0.01" />
      <path
         id="path556"
         transform="translate(44.4167,51.2083)"
         d="M 0,0 0.01,0.01" />
      <path
         id="path558"
         transform="translate(48.1667,53.4583)"
         d="M 0,0 0.01,0.01" />
      <path
         id="path560"
         transform="translate(51.3333,51.2083)"
         d="M 0,0 0.01,0.01" />
    </g>
  </g>
</svg>
