<?xml version="1.0" encoding="UTF-8" standalone="no"?>
<svg
   xmlns:dc="http://purl.org/dc/elements/1.1/"
   xmlns:cc="http://creativecommons.org/ns#"
   xmlns:rdf="http://www.w3.org/1999/02/22-rdf-syntax-ns#"
   xmlns:svg="http://www.w3.org/2000/svg"
   xmlns="http://www.w3.org/2000/svg"
   height="53.9776"
   width="53.9776"
   id="svg66"
   version="1.1">
  <defs
     id="defs70" />
  <metadata
     id="metadata2">citation: U.S. Geological Survey, 2006, FGDC Digital Cartographic Standard for Geologic Map Symbolization (PostScript Implementation): U.S. Geological Survey Techniques and Methods 11-A2 [pubs.usgs.gov/tm/2006/11A02/]. converted by CEC Geology LLC 2018 from the USGS lithologic gs converted to inkscape by the University of Otago.<rdf:RDF>
  <cc:Work
     rdf:about="">
    <dc:format>image/svg+xml</dc:format>
    <dc:type
       rdf:resource="http://purl.org/dc/dcmitype/StillImage" />
    <dc:title></dc:title>
  </cc:Work>
</rdf:RDF>
</metadata>
  <g
     stroke-width=".3"
     stroke="#231f20"
     fill="none"
     id="g64"
     width="53.9776"
     height="53.9776">
    <path
       id="path4"
       transform="translate(3.4405,37.3744)"
       d="m 0,0 c 1.302,0 2.357,-1.055 2.357,-2.357 0,-1.302 -1.055,-2.357 -2.357,-2.357 -1.302,0 -2.357,1.055 -2.357,2.357 C -2.357,-1.055 -1.302,0 0,0 Z" />
    <path
       id="path6"
       d="M 4.261,35.838 H 2.62 v -1.641 h 1.641 z" />
    <path
       id="path8"
       transform="translate(36.9069,34.0364)"
       d="m 0,0 c 1.302,0 2.357,-1.055 2.357,-2.357 0,-1.302 -1.055,-2.357 -2.357,-2.357 -1.302,0 -2.357,1.055 -2.357,2.357 C -2.357,-1.055 -1.302,0 0,0 Z" />
    <path
       id="path10"
       d="m 37.728,32.5 h -1.641 v -1.641 h 1.641 z" />
    <path
       id="path12"
       transform="translate(50.3943,27.9403)"
       d="m 0,0 c 1.302,0 2.357,-1.055 2.357,-2.357 0,-1.302 -1.055,-2.357 -2.357,-2.357 -1.302,0 -2.357,1.055 -2.357,2.357 C -2.357,-1.055 -1.302,0 0,0 Z" />
    <path
       id="path14"
       d="m 51.215,26.404 h -1.641 v -1.641 h 1.641 z" />
    <path
       id="path16"
       transform="translate(22.7982,40.764)"
       d="m 0,0 c 1.302,0 2.357,-1.055 2.357,-2.357 0,-1.302 -1.055,-2.357 -2.357,-2.357 -1.302,0 -2.357,1.055 -2.357,2.357 C -2.357,-1.055 -1.302,0 0,0 Z" />
    <path
       id="path18"
       d="m 23.619,39.228 h -1.641 v -1.641 h 1.641 z" />
    <path
       id="path20"
       transform="translate(7.8943,48.1903)"
       d="m 0,0 c 1.302,0 2.357,-1.055 2.357,-2.357 0,-1.302 -1.055,-2.357 -2.357,-2.357 -1.302,0 -2.357,1.055 -2.357,2.357 C -2.357,-1.055 -1.302,0 0,0 Z" />
    <path
       id="path22"
       d="M 8.715,46.654 H 7.074 v -1.641 h 1.641 z" />
    <path
       id="path24"
       transform="translate(41.7982,47.014)"
       d="m 0,0 c 1.302,0 2.357,-1.055 2.357,-2.357 0,-1.302 -1.055,-2.357 -2.357,-2.357 -1.302,0 -2.357,1.055 -2.357,2.357 C -2.357,-1.055 -1.302,0 0,0 Z" />
    <path
       id="path26"
       d="m 42.619,45.478 h -1.641 v -1.641 h 1.641 z" />
    <path
       id="path28"
       transform="translate(22.1443,52.5653)"
       d="m 0,0 c 1.302,0 2.357,-1.055 2.357,-2.357 0,-1.302 -1.055,-2.357 -2.357,-2.357 -1.302,0 -2.357,1.055 -2.357,2.357 C -2.357,-1.055 -1.302,0 0,0 Z" />
    <path
       id="path30"
       d="m 22.965,51.029 h -1.641 v -1.641 h 1.641 z" />
    <path
       id="path32"
       transform="translate(50.2693,53.0653)"
       d="m 0,0 c 1.302,0 2.357,-1.055 2.357,-2.357 0,-1.302 -1.055,-2.357 -2.357,-2.357 -1.302,0 -2.357,1.055 -2.357,2.357 C -2.357,-1.055 -1.302,0 0,0 Z" />
    <path
       id="path34"
       d="M 51.09,51.529 H 49.449 V 49.888 H 51.09 Z" />
    <path
       id="path36"
       transform="translate(18.8236,29.2193)"
       d="m 0,0 c 1.302,0 2.357,-1.055 2.357,-2.357 0,-1.302 -1.055,-2.357 -2.357,-2.357 -1.302,0 -2.357,1.055 -2.357,2.357 C -2.357,-1.055 -1.302,0 0,0 Z" />
    <path
       id="path38"
       d="m 19.644,27.683 h -1.641 v -1.641 h 1.641 z" />
    <path
       id="path40"
       transform="translate(3.8236,17.5943)"
       d="m 0,0 c 1.302,0 2.357,-1.055 2.357,-2.357 0,-1.302 -1.055,-2.357 -2.357,-2.357 -1.302,0 -2.357,1.055 -2.357,2.357 C -2.357,-1.055 -1.302,0 0,0 Z" />
    <path
       id="path42"
       d="M 4.644,16.058 H 3.003 v -1.641 h 1.641 z" />
    <path
       id="path44"
       transform="translate(38.0736,19.4693)"
       d="m 0,0 c 1.302,0 2.357,-1.055 2.357,-2.357 0,-1.302 -1.055,-2.357 -2.357,-2.357 -1.302,0 -2.357,1.055 -2.357,2.357 C -2.357,-1.055 -1.302,0 0,0 Z" />
    <path
       id="path46"
       d="m 38.894,17.933 h -1.641 v -1.641 h 1.641 z" />
    <path
       id="path48"
       transform="translate(47.8236,11.2193)"
       d="m 0,0 c 1.302,0 2.357,-1.055 2.357,-2.357 0,-1.302 -1.055,-2.357 -2.357,-2.357 -1.302,0 -2.357,1.055 -2.357,2.357 C -2.357,-1.055 -1.302,0 0,0 Z" />
    <path
       id="path50"
       d="M 48.644,9.683 H 47.003 V 8.042 h 1.641 z" />
    <path
       id="path52"
       transform="translate(33.1986,6.3443)"
       d="m 0,0 c 1.302,0 2.357,-1.055 2.357,-2.357 0,-1.302 -1.055,-2.357 -2.357,-2.357 -1.302,0 -2.357,1.055 -2.357,2.357 C -2.357,-1.055 -1.302,0 0,0 Z" />
    <path
       id="path54"
       d="M 34.019,4.808 H 32.378 V 3.167 h 1.641 z" />
    <path
       id="path56"
       transform="translate(21.5736,13.3443)"
       d="m 0,0 c 1.302,0 2.357,-1.055 2.357,-2.357 0,-1.302 -1.055,-2.357 -2.357,-2.357 -1.302,0 -2.357,1.055 -2.357,2.357 C -2.357,-1.055 -1.302,0 0,0 Z" />
    <path
       id="path58"
       d="m 22.394,11.808 h -1.641 v -1.641 h 1.641 z" />
    <path
       id="path60"
       transform="translate(10.8236,5.5943)"
       d="m 0,0 c 1.302,0 2.357,-1.055 2.357,-2.357 0,-1.302 -1.055,-2.357 -2.357,-2.357 -1.302,0 -2.357,1.055 -2.357,2.357 C -2.357,-1.055 -1.302,0 0,0 Z" />
    <path
       id="path62"
       d="M 11.644,4.058 H 10.003 V 2.417 h 1.641 z" />
  </g>
</svg>
