<?xml version="1.0" encoding="UTF-8" standalone="no"?>
<svg
   xmlns:dc="http://purl.org/dc/elements/1.1/"
   xmlns:cc="http://creativecommons.org/ns#"
   xmlns:rdf="http://www.w3.org/1999/02/22-rdf-syntax-ns#"
   xmlns:svg="http://www.w3.org/2000/svg"
   xmlns="http://www.w3.org/2000/svg"
   height="54.125"
   width="54.125"
   id="svg296"
   version="1.1">
  <defs
     id="defs300" />
  <metadata
     id="metadata2">citation: U.S. Geological Survey, 2006, FGDC Digital Cartographic Standard for Geologic Map Symbolization (PostScript Implementation): U.S. Geological Survey Techniques and Methods 11-A2 [pubs.usgs.gov/tm/2006/11A02/]. converted by CEC Geology LLC 2018 from the USGS lithologic gs converted to inkscape by the University of Otago.<rdf:RDF>
  <cc:Work
     rdf:about="">
    <dc:format>image/svg+xml</dc:format>
    <dc:type
       rdf:resource="http://purl.org/dc/dcmitype/StillImage" />
    <dc:title></dc:title>
  </cc:Work>
</rdf:RDF>
</metadata>
  <g
     transform="matrix(1,0,0,-1,0,54.125)"
     stroke-width=".3"
     stroke="#231f20"
     fill="none"

     id="g294"
     width="54.125"
     height="54.125">
    <path
       id="path4"
       transform="translate(54.125,50.375)"
       d="M 0,0 H -0.199" />
    <path
       id="path6"
       transform="translate(27.4756,50.375)"
       d="M 0,0 H -8.8" />
    <path
       id="path8"
       transform="translate(53.9258,50.375)"
       d="M 0,0 H -7.375" />
    <path
       id="path10"
       transform="translate(13.625,50.375)"
       d="M 0,0 H 5.051" />
    <path
       id="path12"
       transform="translate(4.4248,50.375)"
       d="M 0,0 H -4.425" />
    <path
       id="path14"
       transform="translate(30.6748,50.375)"
       d="M 0,0 H 15.876" />
    <path
       id="path16"
       transform="translate(13.625,50.375)"
       d="M 0,0 H -9.2" />
    <path
       id="path18"
       transform="translate(27.4756,50.375)"
       d="M 0,0 H 3.199" />
    <path
       id="path20"
       transform="translate(54.125,46.2002)"
       d="M 0,0 H -54.125" />
    <path
       id="path22"
       transform="translate(54.125,42.0127)"
       d="M 0,0 H -0.712" />
    <path
       id="path24"
       transform="translate(41.1563,42.0127)"
       d="M 0,0 H 12.257" />
    <path
       id="path26"
       transform="translate(26.7881,42.0127)"
       d="M 0,0 H 14.368" />
    <path
       id="path28"
       transform="translate(26.7881,42.0127)"
       d="M 0,0 H -26.788" />
    <path
       id="path30"
       transform="translate(20.1338,12.4004)"
       d="M 0,0 H 12.125" />
    <path
       id="path32"
       transform="translate(12.665,12.4004)"
       d="M 0,0 H 7.469" />
    <path
       id="path34"
       transform="translate(32.2588,12.4004)"
       d="M 0,0 H 8.844" />
    <path
       id="path36"
       transform="translate(41.1025,12.4004)"
       d="M 0,0 H 7.531" />
    <path
       id="path38"
       transform="translate(5.3838,12.4004)"
       d="M 0,0 H 7.281" />
    <path
       id="path40"
       transform="translate(5.3838,12.4004)"
       d="M 0,0 H -5.384" />
    <path
       id="path42"
       transform="translate(48.6338,12.4004)"
       d="M 0,0 H 5.491" />
    <path
       id="path44"
       transform="translate(38.8066,8.625)"
       d="M 0,0 H -12.397" />
    <path
       id="path46"
       transform="translate(10.3809,8.625)"
       d="M 0,0 H 16.028" />
    <path
       id="path48"
       transform="translate(38.8066,8.625)"
       d="M 0,0 H 14.927" />
    <path
       id="path50"
       transform="translate(53.7334,8.625)"
       d="M 0,0 H 0.392" />
    <path
       id="path52"
       transform="translate(10.3809,8.625)"
       d="M 0,0 H -10.381" />
    <path
       id="path54"
       transform="translate(5.9258,37.9941)"
       d="M 0,0 H 26" />
    <path
       id="path56"
       transform="translate(46.9961,37.9941)"
       d="M 0,0 H -15.07" />
    <path
       id="path58"
       transform="translate(46.9961,37.9941)"
       d="M 0,0 H 7.129" />
    <path
       id="path60"
       transform="translate(5.9258,37.9941)"
       d="M 0,0 H -5.926" />
    <path
       id="path62"
       transform="translate(12.4756,34.7129)"
       d="M 0,0 H -12.476" />
    <path
       id="path64"
       transform="translate(41.2256,34.7129)"
       d="M 0,0 H -13.186" />
    <path
       id="path66"
       transform="translate(54.125,34.7129)"
       d="M 0,0 H -0.157" />
    <path
       id="path68"
       transform="translate(41.2256,34.7129)"
       d="M 0,0 H 12.742" />
    <path
       id="path70"
       transform="translate(28.04,34.7129)"
       d="M 0,0 H -15.564" />
    <path
       id="path72"
       transform="translate(48.6631,31.2881)"
       d="M 0,0 H 5.462" />
    <path
       id="path74"
       transform="translate(48.6631,31.2881)"
       d="M 0,0 H -28.5" />
    <path
       id="path76"
       transform="translate(20.1631,31.2881)"
       d="M 0,0 H -20.163" />
    <path
       id="path78"
       transform="translate(54.125,27.2373)"
       d="M 0,0 H -54.125" />
    <path
       id="path80"
       transform="translate(54.125,23.4375)"
       d="M 0,0 H -54.125" />
    <path
       id="path82"
       transform="translate(54.125,19.2373)"
       d="M 0,0 H -54.125" />
    <path
       id="path84"
       transform="translate(54.125,16.0127)"
       d="M 0,0 H -54.125" />
    <path
       id="path86"
       transform="translate(46.5508,0.8379)"
       d="M 0,0 H 3.721" />
    <path
       id="path88"
       transform="translate(54.125,0.8379)"
       d="M 0,0 H -3.854" />
    <path
       id="path90"
       transform="translate(7.3125,0.8379)"
       d="M 0,0 H 2.983" />
    <path
       id="path92"
       transform="translate(10.2959,0.8379)"
       d="M 0,0 H 8.38" />
    <path
       id="path94"
       transform="translate(38.3584,0.8379)"
       d="M 0,0 H 8.192" />
    <path
       id="path96"
       transform="translate(18.6758,0.8379)"
       d="M 0,0 H 4.595" />
    <path
       id="path98"
       transform="translate(33.4404,0.8379)"
       d="M 0,0 H -10.17" />
    <path
       id="path100"
       transform="translate(38.3584,0.8379)"
       d="M 0,0 H -4.918" />
    <path
       id="path102"
       transform="translate(7.3125,0.8379)"
       d="M 0,0 H -7.313" />
    <path
       id="path104"
       transform="translate(6.7725,54.125)"
       d="M 0,0 -2.348,-3.75" />
    <path
       id="path106"
       transform="translate(18.6758,54.125)"
       d="M 0,0 V -3.75" />
    <path
       id="path108"
       transform="translate(30.6748,50.375)"
       d="M 0,0 2.269,3.75" />
    <path
       id="path110"
       transform="translate(46.5508,54.125)"
       d="M 0,0 V -3.75" />
    <path
       id="path112"
       transform="translate(13.625,50.375)"
       d="M 0,0 -2.524,-4.162" />
    <path
       id="path114"
       transform="translate(27.4756,50.375)"
       d="M 0,0 V 0.063" />
    <path
       id="path116"
       transform="translate(27.4756,50.375)"
       d="M 0,0 V -4.162" />
    <path
       id="path118"
       transform="translate(42.1875,50.3125)"
       d="M 0,0 -2.587,-4.1" />
    <path
       id="path120"
       transform="translate(53.9258,50.375)"
       d="M 0,0 V -4.162" />
    <path
       id="path122"
       transform="translate(53.9258,50.4375)"
       d="M 0,0 V -0.063" />
    <path
       id="path124"
       transform="translate(5.5381,42.0254)"
       d="M 0,0 2.587,4.162" />
    <path
       id="path126"
       transform="translate(20.2881,42.0254)"
       d="M 0,0 V 4.05" />
    <path
       id="path128"
       transform="translate(32.3506,42.0254)"
       d="M 0,0 2.524,4.162" />
    <path
       id="path130"
       transform="translate(48.7881,42.0254)"
       d="M 0,0 V 4.05" />
    <path
       id="path132"
       transform="translate(38.6631,38.0254)"
       d="M 0,0 2.493,3.987" />
    <path
       id="path134"
       transform="translate(41.1563,42.0127)"
       d="M 0,0 0.031,0.05" />
    <path
       id="path136"
       transform="translate(26.7881,42.0127)"
       d="M 0,0 V 0.013" />
    <path
       id="path138"
       transform="translate(26.7881,42.0127)"
       d="M 0,0 V -3.987" />
    <path
       id="path140"
       transform="translate(10.4131,38.0254)"
       d="M 0,0 2.462,3.975" />
    <path
       id="path142"
       transform="translate(53.4131,38.0254)"
       d="M 0,0 V 3.987" />
    <path
       id="path144"
       transform="translate(53.4131,42.0254)"
       d="M 0,0 V -0.013" />
    <path
       id="path146"
       transform="translate(46.9961,37.9941)"
       d="M 0,0 -1.945,-3.268" />
    <path
       id="path148"
       transform="translate(46.9961,37.9941)"
       d="M 0,0 0.004,0.006" />
    <path
       id="path150"
       transform="translate(31.9258,34.7256)"
       d="M 0,0 V 3.268" />
    <path
       id="path152"
       transform="translate(31.9258,37.9941)"
       d="M 0,0 V 0.031" />
    <path
       id="path154"
       transform="translate(17.1758,34.7256)"
       d="M 0,0 2.012,3.212" />
    <path
       id="path156"
       transform="translate(5.9258,37.9941)"
       d="M 0,0 V 0.031" />
    <path
       id="path158"
       transform="translate(5.9258,37.9941)"
       d="M 0,0 V -3.268" />
    <path
       id="path160"
       transform="translate(12.4756,34.7129)"
       d="M 0,0 V -3.413" />
    <path
       id="path162"
       transform="translate(12.4756,34.7129)"
       d="M 0,0 V 0.013" />
    <path
       id="path164"
       transform="translate(28.04,34.7129)"
       d="M 0,0 -2.064,-3.413" />
    <path
       id="path166"
       transform="translate(28.04,34.7129)"
       d="M 0,0 0.023,0.037" />
    <path
       id="path168"
       transform="translate(41.2256,34.7129)"
       d="M 0,0 V 0.013" />
    <path
       id="path170"
       transform="translate(41.2256,34.7129)"
       d="M 0,0 V -3.413" />
    <path
       id="path172"
       transform="translate(51.8125,31.3125)"
       d="M 0,0 2.155,3.4" />
    <path
       id="path174"
       transform="translate(53.9756,34.7256)"
       d="M 0,0 -0.008,-0.013" />
    <path
       id="path176"
       transform="translate(5.1631,27.25)"
       d="M 0,0 2.524,4" />
    <path
       id="path178"
       transform="translate(20.1631,31.2881)"
       d="M 0,0 V -4.038" />
    <path
       id="path180"
       transform="translate(20.1631,31.2881)"
       d="M 0,0 V 0.012" />
    <path
       id="path182"
       transform="translate(34.8125,31.25)"
       d="M 0,0 -2.524,-4" />
    <path
       id="path184"
       transform="translate(48.6631,31.2881)"
       d="M 0,0 V 0.012" />
    <path
       id="path186"
       transform="translate(48.6631,31.2881)"
       d="M 0,0 V -4.038" />
    <path
       id="path188"
       transform="translate(38.5381,23.4502)"
       d="M 0,0 2.274,3.737" />
    <path
       id="path190"
       transform="translate(26.7129,23.4502)"
       d="M 0,0 V 3.737" />
    <path
       id="path192"
       transform="translate(10.2129,23.4502)"
       d="M 0,0 2.287,3.737" />
    <path
       id="path194"
       transform="translate(53.2666,23.4502)"
       d="M 0,0 V 3.737" />
    <path
       id="path196"
       transform="translate(4.0254,19.25)"
       d="M 0,0 2.537,4.063" />
    <path
       id="path198"
       transform="translate(18.5254,19.25)"
       d="M 0,0 V 4.138" />
    <path
       id="path200"
       transform="translate(30.6504,19.25)"
       d="M 0,0 2.6,4.125" />
    <path
       id="path202"
       transform="translate(46.4004,19.25)"
       d="M 0,0 V 4.138" />
    <path
       id="path204"
       transform="translate(40.7002,16.0254)"
       d="M 0,0 1.925,3.162" />
    <path
       id="path206"
       transform="translate(28.0508,16.0254)"
       d="M 0,0 V 3.162" />
    <path
       id="path208"
       transform="translate(11.4258,16.0254)"
       d="M 0,0 1.887,3.1" />
    <path
       id="path210"
       transform="translate(0.5088,16.0254)"
       d="M 0,0 V 3.162" />
    <path
       id="path212"
       transform="translate(5.3838,12.4004)"
       d="M 0,0 2.304,3.6" />
    <path
       id="path214"
       transform="translate(20.1338,12.4004)"
       d="M 0,0 V 3.563" />
    <path
       id="path216"
       transform="translate(32.2588,12.4004)"
       d="M 0,0 2.241,3.6" />
    <path
       id="path218"
       transform="translate(48.6338,12.4004)"
       d="M 0,0 V 3.563" />
    <path
       id="path220"
       transform="translate(38.8066,8.625)"
       d="M 0,0 2.296,3.775" />
    <path
       id="path222"
       transform="translate(41.1025,12.4004)"
       d="M 0,0 0.023,0.037" />
    <path
       id="path224"
       transform="translate(38.8066,8.625)"
       d="M 0,0 -0.022,-0.037" />
    <path
       id="path226"
       transform="translate(26.4092,8.625)"
       d="M 0,0 V -0.037" />
    <path
       id="path228"
       transform="translate(26.4092,8.625)"
       d="M 0,0 V 3.725" />
    <path
       id="path230"
       transform="translate(10.3809,8.625)"
       d="M 0,0 -0.023,-0.037" />
    <path
       id="path232"
       transform="translate(10.3809,8.625)"
       d="M 0,0 2.284,3.775" />
    <path
       id="path234"
       transform="translate(12.665,12.4004)"
       d="M 0,0 0.022,0.037" />
    <path
       id="path236"
       transform="translate(53.7334,8.625)"
       d="M 0,0 V -0.037" />
    <path
       id="path238"
       transform="translate(53.7334,8.625)"
       d="M 0,0 V 3.725" />
    <path
       id="path240"
       transform="translate(38.3584,4.2129)"
       d="M 0,0 H 13.994" />
    <path
       id="path242"
       transform="translate(38.3584,4.2129)"
       d="M 0,0 H -13.068" />
    <path
       id="path244"
       transform="translate(10.2959,4.2129)"
       d="M 0,0 H 14.994" />
    <path
       id="path246"
       transform="translate(54.125,4.2129)"
       d="M 0,0 H -1.773" />
    <path
       id="path248"
       transform="translate(10.2959,4.2129)"
       d="M 0,0 H -10.296" />
    <path
       id="path250"
       transform="translate(10.2959,4.2129)"
       d="M 0,0 V 0.025" />
    <path
       id="path252"
       transform="translate(10.2959,0.7754)"
       d="M 0,0 V 0.063" />
    <path
       id="path254"
       transform="translate(10.2959,4.2129)"
       d="M 0,0 V -3.375" />
    <path
       id="path256"
       transform="translate(25.3125,4.25)"
       d="M 0,0 -0.023,-0.037" />
    <path
       id="path258"
       transform="translate(25.29,4.2129)"
       d="M 0,0 -2.019,-3.375" />
    <path
       id="path260"
       transform="translate(23.2334,0.7754)"
       d="M 0,0 0.037,0.063" />
    <path
       id="path262"
       transform="translate(38.3584,0.8379)"
       d="M 0,0 V -0.063" />
    <path
       id="path264"
       transform="translate(38.3584,4.2129)"
       d="M 0,0 V 0.025" />
    <path
       id="path266"
       transform="translate(38.3584,4.2129)"
       d="M 0,0 V -3.375" />
    <path
       id="path268"
       transform="translate(52.375,4.25)"
       d="M 0,0 -0.023,-0.037" />
    <path
       id="path270"
       transform="translate(52.3525,4.2129)"
       d="M 0,0 -2.081,-3.375" />
    <path
       id="path272"
       transform="translate(50.2334,0.7754)"
       d="M 0,0 0.038,0.063" />
    <path
       id="path274"
       transform="translate(4.5713,4.2383)"
       d="M 0,0 V 4.35" />
    <path
       id="path276"
       transform="translate(18.75,8.5)"
       d="M 0,0 -2.679,-4.262" />
    <path
       id="path278"
       transform="translate(31.5713,8.5879)"
       d="M 0,0 V -4.35" />
    <path
       id="path280"
       transform="translate(47.25,8.5625)"
       d="M 0,0 -2.616,-4.324" />
    <path
       id="path282"
       transform="translate(18.6758,0.8379)"
       d="M 0,0 V -0.838" />
    <path
       id="path284"
       transform="translate(46.5508,0.8379)"
       d="M 0,0 V -0.838" />
    <path
       id="path286"
       transform="translate(7.3125,0.8379)"
       d="M 0,0 -0.527,-0.838" />
    <path
       id="path288"
       transform="translate(7.3125,0.8379)"
       d="M 0,0 0.063,0.1" />
    <path
       id="path290"
       transform="translate(32.9346)"
       d="M 0,0 0.506,0.838" />
    <path
       id="path292"
       transform="translate(33.5,0.9375)"
       d="M 0,0 -0.06,-0.1" />
  </g>
</svg>
