<?xml version="1.0" encoding="UTF-8" standalone="no"?>
<svg
   xmlns:dc="http://purl.org/dc/elements/1.1/"
   xmlns:cc="http://creativecommons.org/ns#"
   xmlns:rdf="http://www.w3.org/1999/02/22-rdf-syntax-ns#"
   xmlns:svg="http://www.w3.org/2000/svg"
   xmlns="http://www.w3.org/2000/svg"
   id="svg64"
   version="1.1"
   width="38.8632"
   height="38.8632">
  <defs
     id="defs68" />
  <metadata
     id="metadata2">citation: U.S. Geological Survey, 2006, FGDC Digital Cartographic Standard for Geologic Map Symbolization (PostScript Implementation): U.S. Geological Survey Techniques and Methods 11-A2 [pubs.usgs.gov/tm/2006/11A02/]. converted by CEC Geology LLC 2018 from the USGS lithologic patterns converted to inkscape by the University of Otago.&gt;<rdf:RDF>
  <cc:Work
     rdf:about="">
    <dc:format>image/svg+xml</dc:format>
    <dc:type
       rdf:resource="http://purl.org/dc/dcmitype/StillImage" />
    <dc:title></dc:title>
  </cc:Work>
</rdf:RDF>
</metadata>
  <g
     id="g62"
     width="38.8632"
     transform="matrix(1 0 0 -1 0 38.8632)"
     stroke-width=".3"
     stroke="#231f20"
     height="38.8632"
     fill="none">
    <path
       id="path4"
       transform="translate(.0029 38.8637)"
       d="m0 0 38.86-38.821" />
    <path
       id="path6"
       transform="translate(2.5927 38.8637)"
       d="m0 0 36.271-36.233" />
    <path
       id="path8"
       transform="translate(5.1826 38.8637)"
       d="m0 0 33.681-33.646" />
    <path
       id="path10"
       transform="translate(7.7724 38.8637)"
       d="m0 0 31.091-31.058" />
    <path
       id="path12"
       transform="translate(10.3632 38.8637)"
       d="m0 0 28.5-28.47" />
    <path
       id="path14"
       transform="translate(12.9531 38.8637)"
       d="m0 0 25.91-25.883" />
    <path
       id="path16"
       transform="translate(15.5439 38.8637)"
       d="m0 0 23.319-23.295" />
    <path
       id="path18"
       transform="translate(18.1337 38.8637)"
       d="m0 0 20.73-20.708" />
    <path
       id="path20"
       transform="translate(20.7246 38.8637)"
       d="m0 0 18.139-18.12" />
    <path
       id="path22"
       transform="translate(23.3144 38.8637)"
       d="m0 0 15.549-15.533" />
    <path
       id="path24"
       transform="translate(25.9052 38.8637)"
       d="m0 0 12.958-12.944" />
    <path
       id="path26"
       transform="translate(28.4951 38.8637)"
       d="m0 0 10.368-10.357" />
    <path
       id="path28"
       transform="translate(31.0859 38.8637)"
       d="m0 0 7.777-7.77" />
    <path
       id="path30"
       transform="translate(33.6757 38.8637)"
       d="m0 0 5.188-5.182" />
    <path
       id="path32"
       transform="translate(36.2656 38.8637)"
       d="m0 0 2.598-2.595" />
    <path
       id="path34"
       transform="translate(0 36.2773)"
       d="m0 0 36.314-36.277" />
    <path
       id="path36"
       transform="translate(0 33.6884)"
       d="m0 0 33.724-33.688" />
    <path
       id="path38"
       transform="translate(0 31.0996)"
       d="m0 0 31.132-31.1" />
    <path
       id="path40"
       transform="translate(0 28.5107)"
       d="m0 0 28.54-28.511" />
    <path
       id="path42"
       transform="translate(0 25.9218)"
       d="m0 0 25.948-25.922" />
    <path
       id="path44"
       transform="translate(0 23.333)"
       d="m0 0 23.357-23.333" />
    <path
       id="path46"
       transform="translate(0 20.7441)"
       d="m0 0 20.766-20.744" />
    <path
       id="path48"
       transform="translate(0 18.1543)"
       d="m0 0 18.174-18.154" />
    <path
       id="path50"
       transform="translate(0 15.5654)"
       d="m0 0 15.582-15.565" />
    <path
       id="path52"
       transform="translate(0 12.9765)"
       d="m0 0 12.99-12.977" />
    <path
       id="path54"
       transform="translate(0 10.3877)"
       d="m0 0 10.398-10.388" />
    <path
       id="path56"
       transform="translate(0 7.7988)"
       d="m0 0 7.808-7.799" />
    <path
       id="path58"
       transform="translate(0 5.2104)"
       d="m0 0 5.216-5.21" />
    <path
       id="path60"
       transform="translate(0 2.6211)"
       d="m0 0 2.624-2.621" />
  </g>
</svg>
