<?xml version="1.0" encoding="UTF-8" standalone="no"?>
<svg
   xmlns:dc="http://purl.org/dc/elements/1.1/"
   xmlns:cc="http://creativecommons.org/ns#"
   xmlns:rdf="http://www.w3.org/1999/02/22-rdf-syntax-ns#"
   xmlns:svg="http://www.w3.org/2000/svg"
   xmlns="http://www.w3.org/2000/svg"
   id="svg54"
   version="1.1"
   width="54.125"
   height="54.125">
  <defs
     id="defs58" />
  <metadata
     id="metadata2">citation: U.S. Geological Survey, 2006, FGDC Digital Cartographic Standard for Geologic Map Symbolization (PostScript Implementation): U.S. Geological Survey Techniques and Methods 11-A2 [pubs.usgs.gov/tm/2006/11A02/]. converted by CEC Geology LLC 2018 from the USGS lithologic patterns converted to inkscape by the University of Otago.<rdf:RDF>
  <cc:Work
     rdf:about="">
    <dc:format>image/svg+xml</dc:format>
    <dc:type
       rdf:resource="http://purl.org/dc/dcmitype/StillImage" />
    <dc:title></dc:title>
  </cc:Work>
</rdf:RDF>
</metadata>
  <g
     id="g52"
     width="54.125"
     stroke-width=".3"
     stroke="#231f20"
     height="54.125"
     fill="none">
    <path
       id="path4"
       transform="translate(20.2608 23.72877)"
       d="m0 0h2.97c.413.99 2.063 1.011 2.393-.021h2.928" />
    <path
       id="path6"
       transform="translate(20.2608 22.40877)"
       d="m0 0h2.97c.413-.99 2.063-1.011 2.393.021h2.928" />
    <path
       id="path8"
       transform="translate(27.5055 15.29307)"
       d="m0 0h2.97c.413.99 2.063 1.011 2.393-.021h2.928" />
    <path
       id="path10"
       transform="translate(27.5055 13.97307)"
       d="m0 0h2.97c.413-.99 2.063-1.011 2.393.021h2.928" />
    <path
       id="path12"
       transform="translate(.8623 2.22037)"
       d="m0 0h2.97c.413.99 2.063 1.011 2.393-.021h2.928" />
    <path
       id="path14"
       transform="translate(.8623 .90037)"
       d="m0 0h2.97c.413-.99 2.063-1.011 2.393.021h2.928" />
    <path
       id="path16"
       transform="translate(16.529 43.55367)"
       d="m0 0h2.97c.413.99 2.063 1.011 2.393-.021h2.928" />
    <path
       id="path18"
       transform="translate(16.529 42.23367)"
       d="m0 0h2.97c.413-.99 2.063-1.011 2.393.021h2.928" />
    <path
       id="path20"
       transform="translate(42.1957 46.22037)"
       d="m0 0h2.97c.412.99 2.063 1.011 2.393-.021h2.928" />
    <path
       id="path22"
       transform="translate(42.1957 44.90037)"
       d="m0 0h2.97c.412-.99 2.063-1.011 2.393.021h2.928" />
    <path
       id="path24"
       transform="translate(34.3477 36.27067)"
       d="m0 0h2.97c.413.99 2.063 1.011 2.393-.021h2.928" />
    <path
       id="path26"
       transform="translate(34.3477 34.95067)"
       d="m0 0h2.97c.413-.99 2.063-1.011 2.393.021h2.928" />
    <path
       id="path28"
       transform="translate(44.0003 21.23317)"
       d="m0 0h2.97c.413.99 2.063 1.011 2.393-.021h2.928" />
    <path
       id="path30"
       transform="translate(44.0003 19.91317)"
       d="m0 0h2.97c.413-.99 2.063-1.011 2.393.021h2.928" />
    <path
       id="path32"
       transform="translate(43.9178 11.08557)"
       d="m0 0h2.97c.412.99 2.062 1.011 2.392-.021h2.929" />
    <path
       id="path34"
       transform="translate(43.9178 9.76557)"
       d="m0 0h2.97c.412-.99 2.062-1.011 2.392.021h2.929" />
    <path
       id="path36"
       transform="translate(34.1002 2.55367)"
       d="m0 0h2.97c.413.99 2.063 1.011 2.393-.021h2.928" />
    <path
       id="path38"
       transform="translate(34.1002 1.23367)"
       d="m0 0h2.97c.413-.99 2.063-1.011 2.393.021h2.928" />
    <path
       id="path40"
       transform="translate(15.7301 5.85367)"
       d="m0 0h2.97c.413.99 2.063 1.011 2.393-.021h2.928" />
    <path
       id="path42"
       transform="translate(15.7301 4.53367)"
       d="m0 0h2.97c.413-.99 2.063-1.011 2.393.021h2.928" />
    <path
       id="path44"
       transform="translate(4.2905 15.40397)"
       d="m0 0h2.97c.412.99 2.063 1.011 2.393-.021h2.928" />
    <path
       id="path46"
       transform="translate(4.2905 14.08397)"
       d="m0 0h2.97c.412-.99 2.063-1.011 2.393.021h2.928" />
    <path
       id="path48"
       transform="translate(0 30.53427)"
       d="m0 0h2.97c.412.99 2.063 1.011 2.393-.021h2.928" />
    <path
       id="path50"
       transform="translate(0 29.21427)"
       d="m0 0h2.97c.412-.99 2.063-1.011 2.393.021h2.928" />
  </g>
</svg>
