<?xml version="1.0" encoding="UTF-8" standalone="no"?>
<svg
   xmlns:dc="http://purl.org/dc/elements/1.1/"
   xmlns:cc="http://creativecommons.org/ns#"
   xmlns:rdf="http://www.w3.org/1999/02/22-rdf-syntax-ns#"
   xmlns:svg="http://www.w3.org/2000/svg"
   xmlns="http://www.w3.org/2000/svg"
   height="53.5835"
   width="53.584"
   id="svg462"
   version="1.1">
  <defs
     id="defs466" />
  <metadata
     id="metadata2">citation: U.S. Geological Survey, 2006, FGDC Digital Cartographic Standard for Geologic Map Symbolization (PostScript Implementation): U.S. Geological Survey Techniques and Methods 11-A2 [pubs.usgs.gov/tm/2006/11A02/]. converted by CEC Geology LLC 2018 from the USGS lithologic gs converted to inkscape by the University of Otago.<rdf:RDF>
  <cc:Work
     rdf:about="">
    <dc:format>image/svg+xml</dc:format>
    <dc:type
       rdf:resource="http://purl.org/dc/dcmitype/StillImage" />
    <dc:title></dc:title>
  </cc:Work>
</rdf:RDF>
</metadata>
  <g
          stroke="#231f20"
     fill="none
	 id="g460"
     width="53.584"
     height="53.5835">
    <g
       style="stroke-width:.3"
       id="g242">
      <path
         id="path4"
         transform="translate(4.1162,51.7535)"
         d="M 0,0 H -4.116" />
      <path
         id="path6"
         transform="translate(7.3203,51.7535)"
         d="M 0,0 H 5.745" />
      <path
         id="path8"
         transform="translate(16.2363,51.7535)"
         d="M 0,0 H 5.746" />
      <path
         id="path10"
         transform="translate(25.1533,51.7535)"
         d="M 0,0 H 5.745" />
      <path
         id="path12"
         transform="translate(34.0703,51.7535)"
         d="M 0,0 H 5.745" />
      <path
         id="path14"
         transform="translate(42.9863,51.7535)"
         d="M 0,0 H 5.745" />
      <path
         id="path16"
         transform="translate(51.9033,51.7535)"
         d="M 0,0 H 1.681" />
      <path
         id="path18"
         transform="translate(8.4483,48.6182)"
         d="M 0,0 H -5.746" />
      <path
         id="path20"
         transform="translate(17.3643,48.6182)"
         d="M 0,0 H -5.745" />
      <path
         id="path22"
         transform="translate(26.2813,48.6182)"
         d="M 0,0 H -5.745" />
      <path
         id="path24"
         transform="translate(35.1973,48.6182)"
         d="M 0,0 H -5.745" />
      <path
         id="path26"
         transform="translate(44.1143,48.6182)"
         d="M 0,0 H -5.745" />
      <path
         id="path28"
         transform="translate(47.2861,48.6182)"
         d="M 0,0 H 5.745" />
      <path
         id="path30"
         transform="translate(2.3643,45.6485)"
         d="M 0,0 H -2.364" />
      <path
         id="path32"
         transform="translate(11.3145,45.6485)"
         d="M 0,0 H -5.746" />
      <path
         id="path34"
         transform="translate(14.4854,45.6485)"
         d="M 0,0 H 5.745" />
      <path
         id="path36"
         transform="translate(23.4024,45.6485)"
         d="M 0,0 H 5.745" />
      <path
         id="path38"
         transform="translate(32.3184,45.6485)"
         d="M 0,0 H 5.745" />
      <path
         id="path40"
         transform="translate(41.2354,45.6485)"
         d="M 0,0 H 5.745" />
      <path
         id="path42"
         transform="translate(50.1514,45.6485)"
         d="M 0,0 H 3.433" />
      <path
         id="path44"
         transform="translate(7.6514,42.8428)"
         d="M 0,0 H -5.745" />
      <path
         id="path46"
         transform="translate(16.5684,42.8428)"
         d="M 0,0 H -5.745" />
      <path
         id="path48"
         transform="translate(25.4854,42.8428)"
         d="M 0,0 H -5.746" />
      <path
         id="path50"
         transform="translate(34.4014,42.8428)"
         d="M 0,0 H -5.745" />
      <path
         id="path52"
         transform="translate(43.3184,42.8428)"
         d="M 0,0 H -5.745" />
      <path
         id="path54"
         transform="translate(52.2344,42.8428)"
         d="M 0,0 H -5.745" />
      <path
         id="path56"
         transform="translate(2.0459,39.8731)"
         d="M 0,0 H -2.046" />
      <path
         id="path58"
         transform="translate(5.25,39.8731)"
         d="M 0,0 H 5.745" />
      <path
         id="path60"
         transform="translate(19.9121,39.8731)"
         d="M 0,0 H -5.745" />
      <path
         id="path62"
         transform="translate(23.083,39.8731)"
         d="M 0,0 H 5.746" />
      <path
         id="path64"
         transform="translate(32,39.8731)"
         d="M 0,0 H 5.745" />
      <path
         id="path66"
         transform="translate(40.917,39.8731)"
         d="M 0,0 H 5.745" />
      <path
         id="path68"
         transform="translate(49.833,39.8731)"
         d="M 0,0 H 3.751" />
      <path
         id="path70"
         transform="translate(0,36.8692)"
         d="M 0,0 H -0.163" />
      <path
         id="path72"
         transform="translate(5.582,36.8692)"
         d="M 0,0 H -5.582" />
      <path
         id="path74"
         transform="translate(14.4981,36.8692)"
         d="M 0,0 H -5.745" />
      <path
         id="path76"
         transform="translate(23.4151,36.8692)"
         d="M 0,0 H -5.745" />
      <path
         id="path78"
         transform="translate(26.586,36.8692)"
         d="M 0,0 H 5.746" />
      <path
         id="path80"
         transform="translate(35.5029,36.8692)"
         d="M 0,0 H 5.745" />
      <path
         id="path82"
         transform="translate(44.4199,36.8692)"
         d="M 0,0 H 5.745" />
      <path
         id="path84"
         transform="translate(53.336,36.8692)"
         d="M 0,0 H 0.248" />
      <path
         id="path86"
         transform="translate(2.5235,33.9864)"
         d="M 0,0 H -2.523" />
      <path
         id="path88"
         transform="translate(11.4736,33.9864)"
         d="M 0,0 H -5.746" />
      <path
         id="path90"
         transform="translate(20.3897,33.9864)"
         d="M 0,0 H -5.745" />
      <path
         id="path92"
         transform="translate(23.5615,33.9864)"
         d="M 0,0 H 5.745" />
      <path
         id="path94"
         transform="translate(32.4776,33.9864)"
         d="M 0,0 H 5.745" />
      <path
         id="path96"
         transform="translate(41.3945,33.9864)"
         d="M 0,0 H 5.745" />
      <path
         id="path98"
         transform="translate(50.3106,33.9864)"
         d="M 0,0 H 3.273" />
      <path
         id="path100"
         transform="translate(7.0147,30.7891)"
         d="M 0,0 H -5.745" />
      <path
         id="path102"
         transform="translate(15.9317,30.7891)"
         d="M 0,0 H -5.745" />
      <path
         id="path104"
         transform="translate(24.8477,30.7891)"
         d="M 0,0 H -5.745" />
      <path
         id="path106"
         transform="translate(28.0195,30.7891)"
         d="M 0,0 H 5.745" />
      <path
         id="path108"
         transform="translate(36.9356,30.7891)"
         d="M 0,0 H 5.746" />
      <path
         id="path110"
         transform="translate(45.8526,30.7891)"
         d="M 0,0 H 5.745" />
      <path
         id="path112"
         transform="translate(3.7979,27.8194)"
         d="M 0,0 H -3.798" />
      <path
         id="path114"
         transform="translate(12.7471,27.8194)"
         d="M 0,0 H -5.745" />
      <path
         id="path116"
         transform="translate(15.918,27.8194)"
         d="M 0,0 H 5.746" />
      <path
         id="path118"
         transform="translate(24.835,27.8194)"
         d="M 0,0 H 5.745" />
      <path
         id="path120"
         transform="translate(39.4971,27.8194)"
         d="M 0,0 H -5.745" />
      <path
         id="path122"
         transform="translate(48.4131,27.8194)"
         d="M 0,0 H -5.745" />
      <path
         id="path124"
         transform="translate(51.585,27.8194)"
         d="M 0,0 H 1.999" />
      <path
         id="path126"
         transform="translate(2.543,24.6836)"
         d="M 0,0 H 5.746" />
      <path
         id="path128"
         transform="translate(17.2051,24.6836)"
         d="M 0,0 H -5.745" />
      <path
         id="path130"
         transform="translate(26.1221,24.6836)"
         d="M 0,0 H -5.745" />
      <path
         id="path132"
         transform="translate(29.293,24.6836)"
         d="M 0,0 H 5.745" />
      <path
         id="path134"
         transform="translate(38.21,24.6836)"
         d="M 0,0 H 5.745" />
      <path
         id="path136"
         transform="translate(47.127,24.6836)"
         d="M 0,0 H 5.745" />
      <path
         id="path138"
         transform="translate(3.3203,21.8789)"
         d="M 0,0 H -3.32" />
      <path
         id="path140"
         transform="translate(12.2695,21.8789)"
         d="M 0,0 H -5.745" />
      <path
         id="path142"
         transform="translate(21.1856,21.8789)"
         d="M 0,0 H -5.745" />
      <path
         id="path144"
         transform="translate(24.3574,21.8789)"
         d="M 0,0 H 5.745" />
      <path
         id="path146"
         transform="translate(33.2735,21.8789)"
         d="M 0,0 H 5.746" />
      <path
         id="path148"
         transform="translate(42.1904,21.8789)"
         d="M 0,0 H 5.745" />
      <path
         id="path150"
         transform="translate(51.1074,21.8789)"
         d="M 0,0 H 2.477" />
      <path
         id="path152"
         transform="translate(7.1738,18.7442)"
         d="M 0,0 H -5.745" />
      <path
         id="path154"
         transform="translate(16.0908,18.7442)"
         d="M 0,0 H -5.745" />
      <path
         id="path156"
         transform="translate(25.0068,18.7442)"
         d="M 0,0 H -5.745" />
      <path
         id="path158"
         transform="translate(28.1787,18.7442)"
         d="M 0,0 H 5.745" />
      <path
         id="path160"
         transform="translate(42.8408,18.7442)"
         d="M 0,0 H -5.745" />
      <path
         id="path162"
         transform="translate(46.0117,18.7442)"
         d="M 0,0 H 5.745" />
      <path
         id="path164"
         transform="translate(2.5235,15.7745)"
         d="M 0,0 H -2.523" />
      <path
         id="path166"
         transform="translate(5.7276,15.7745)"
         d="M 0,0 H 5.746" />
      <path
         id="path168"
         transform="translate(14.6445,15.7745)"
         d="M 0,0 H 5.745" />
      <path
         id="path170"
         transform="translate(23.5615,15.7745)"
         d="M 0,0 H 5.745" />
      <path
         id="path172"
         transform="translate(32.4776,15.7745)"
         d="M 0,0 H 5.745" />
      <path
         id="path174"
         transform="translate(41.3945,15.7745)"
         d="M 0,0 H 5.745" />
      <path
         id="path176"
         transform="translate(50.3106,15.7745)"
         d="M 0,0 H 3.273" />
      <path
         id="path178"
         transform="translate(6.3779,12.8038)"
         d="M 0,0 H -5.745" />
      <path
         id="path180"
         transform="translate(15.2949,12.8038)"
         d="M 0,0 H -5.746" />
      <path
         id="path182"
         transform="translate(24.211,12.8038)"
         d="M 0,0 H -5.745" />
      <path
         id="path184"
         transform="translate(33.1279,12.8038)"
         d="M 0,0 H -5.745" />
      <path
         id="path186"
         transform="translate(36.2988,12.8038)"
         d="M 0,0 H 5.745" />
      <path
         id="path188"
         transform="translate(50.961,12.8038)"
         d="M 0,0 H -5.745" />
      <path
         id="path190"
         transform="translate(3.4795,10.0079)"
         d="M 0,0 H -3.48" />
      <path
         id="path192"
         transform="translate(12.4287,10.0079)"
         d="M 0,0 H -5.745" />
      <path
         id="path194"
         transform="translate(15.5996,10.0079)"
         d="M 0,0 H 5.745" />
      <path
         id="path196"
         transform="translate(24.5166,10.0079)"
         d="M 0,0 H 5.745" />
      <path
         id="path198"
         transform="translate(33.4336,10.0079)"
         d="M 0,0 H 5.745" />
      <path
         id="path200"
         transform="translate(42.3496,10.0079)"
         d="M 0,0 H 5.745" />
      <path
         id="path202"
         transform="translate(51.2666,10.0079)"
         d="M 0,0 H 2.317" />
      <path
         id="path204"
         transform="translate(8.6074,6.8731)"
         d="M 0,0 H -5.746" />
      <path
         id="path206"
         transform="translate(17.5235,6.8731)"
         d="M 0,0 H -5.745" />
      <path
         id="path208"
         transform="translate(26.4404,6.8731)"
         d="M 0,0 H -5.745" />
      <path
         id="path210"
         transform="translate(35.3574,6.8731)"
         d="M 0,0 H -5.746" />
      <path
         id="path212"
         transform="translate(38.5283,6.8731)"
         d="M 0,0 H 5.745" />
      <path
         id="path214"
         transform="translate(47.4453,6.8731)"
         d="M 0,0 H 5.745" />
      <path
         id="path216"
         transform="translate(0,3.9034)"
         d="M 0,0 H 5.071" />
      <path
         id="path218"
         transform="translate(8.2754,3.9034)"
         d="M 0,0 H 5.745" />
      <path
         id="path220"
         transform="translate(17.1924,3.9034)"
         d="M 0,0 H 5.745" />
      <path
         id="path222"
         transform="translate(26.1084,3.9034)"
         d="M 0,0 H 5.746" />
      <path
         id="path224"
         transform="translate(35.0254,3.9034)"
         d="M 0,0 H 5.745" />
      <path
         id="path226"
         transform="translate(43.9424,3.9034)"
         d="M 0,0 H 5.745" />
      <path
         id="path228"
         transform="translate(52.8584,3.9034)"
         d="M 0,0 H 0.726" />
      <path
         id="path230"
         transform="translate(8.9258,0.9327)"
         d="M 0,0 H -5.745" />
      <path
         id="path232"
         transform="translate(17.8418,0.9327)"
         d="M 0,0 H -5.745" />
      <path
         id="path234"
         transform="translate(26.7588,0.9327)"
         d="M 0,0 H -5.745" />
      <path
         id="path236"
         transform="translate(35.6758,0.9327)"
         d="M 0,0 H -5.746" />
      <path
         id="path238"
         transform="translate(44.5918,0.9327)"
         d="M 0,0 H -5.745" />
      <path
         id="path240"
         transform="translate(53.5088,0.9327)"
         d="M 0,0 H -5.745" />
    </g>
    <path
       style="stroke-width:0.69999999;stroke-linecap:round"
       id="path244"
       transform="translate(5.7559,51.6866)"
       d="M 0,0 0.01,0.01" />
    <path
       style="stroke-width:0.69999999;stroke-linecap:round"
       id="path246"
       transform="translate(14.7324,51.6866)"
       d="M 0,0 0.01,0.01" />
    <path
       style="stroke-width:0.69999999;stroke-linecap:round"
       id="path248"
       transform="translate(23.6485,51.6866)"
       d="M 0,0 0.01,0.01" />
    <path
       style="stroke-width:0.69999999;stroke-linecap:round"
       id="path250"
       transform="translate(32.5918,51.6866)"
       d="M 0,0 0.01,0.01" />
    <path
       style="stroke-width:0.69999999;stroke-linecap:round"
       id="path252"
       transform="translate(41.4785,51.6866)"
       d="M 0,0 0.01,0.01" />
    <path
       style="stroke-width:0.69999999;stroke-linecap:round"
       id="path254"
       transform="translate(50.4258,51.6866)"
       d="M 0,0 0.01,0.01" />
    <path
       style="stroke-width:0.69999999;stroke-linecap:round"
       id="path256"
       transform="translate(1.0586,48.6099)"
       d="M 0,0 0.01,0.01" />
    <path
       style="stroke-width:0.69999999;stroke-linecap:round"
       id="path258"
       transform="translate(10.0352,48.6099)"
       d="M 0,0 0.01,0.01" />
    <path
       style="stroke-width:0.69999999;stroke-linecap:round"
       id="path260"
       transform="translate(18.9522,48.6099)"
       d="M 0,0 0.01,0.01" />
    <path
       style="stroke-width:0.69999999;stroke-linecap:round"
       id="path262"
       transform="translate(27.8955,48.6099)"
       d="M 0,0 0.01,0.01" />
    <path
       style="stroke-width:0.69999999;stroke-linecap:round"
       id="path264"
       transform="translate(36.7822,48.6099)"
       d="M 0,0 0.01,0.01" />
    <path
       style="stroke-width:0.69999999;stroke-linecap:round"
       id="path266"
       transform="translate(45.7285,48.6099)"
       d="M 0,0 0.01,0.01" />
    <path
       style="stroke-width:0.69999999;stroke-linecap:round"
       id="path268"
       transform="translate(4.0322,45.6104)"
       d="M 0,0 0.01,0.01" />
    <path
       style="stroke-width:0.69999999;stroke-linecap:round"
       id="path270"
       transform="translate(13.0088,45.6104)"
       d="M 0,0 0.01,0.01" />
    <path
       style="stroke-width:0.69999999;stroke-linecap:round"
       id="path272"
       transform="translate(21.9258,45.6104)"
       d="M 0,0 0.01,0.01" />
    <path
       style="stroke-width:0.69999999;stroke-linecap:round"
       id="path274"
       transform="translate(30.8692,45.6104)"
       d="M 0,0 0.01,0.01" />
    <path
       style="stroke-width:0.69999999;stroke-linecap:round"
       id="path276"
       transform="translate(39.7559,45.6104)"
       d="M 0,0 0.01,0.01" />
    <path
       style="stroke-width:0.69999999;stroke-linecap:round"
       id="path278"
       transform="translate(48.7022,45.6104)"
       d="M 0,0 0.01,0.01" />
    <path
       style="stroke-width:0.69999999;stroke-linecap:round"
       id="path280"
       transform="translate(0.3916,42.7764)"
       d="M 0,0 0.01,0.01" />
    <path
       style="stroke-width:0.69999999;stroke-linecap:round"
       id="path282"
       transform="translate(9.3692,42.7764)"
       d="M 0,0 0.01,0.01" />
    <path
       style="stroke-width:0.69999999;stroke-linecap:round"
       id="path284"
       transform="translate(18.2852,42.7764)"
       d="M 0,0 0.01,0.01" />
    <path
       style="stroke-width:0.69999999;stroke-linecap:round"
       id="path286"
       transform="translate(27.2285,42.7764)"
       d="M 0,0 0.01,0.01" />
    <path
       style="stroke-width:0.69999999;stroke-linecap:round"
       id="path288"
       transform="translate(36.1152,42.7764)"
       d="M 0,0 0.01,0.01" />
    <path
       style="stroke-width:0.69999999;stroke-linecap:round"
       id="path290"
       transform="translate(45.0625,42.7764)"
       d="M 0,0 0.01,0.01" />
    <path
       style="stroke-width:0.69999999;stroke-linecap:round"
       id="path292"
       transform="translate(3.6152,39.8604)"
       d="M 0,0 0.01,0.01" />
    <path
       style="stroke-width:0.69999999;stroke-linecap:round"
       id="path294"
       transform="translate(12.5918,39.8604)"
       d="M 0,0 0.01,0.01" />
    <path
       style="stroke-width:0.69999999;stroke-linecap:round"
       id="path296"
       transform="translate(21.5088,39.8604)"
       d="M 0,0 0.01,0.01" />
    <path
       style="stroke-width:0.69999999;stroke-linecap:round"
       id="path298"
       transform="translate(30.4522,39.8604)"
       d="M 0,0 0.01,0.01" />
    <path
       style="stroke-width:0.69999999;stroke-linecap:round"
       id="path300"
       transform="translate(39.3389,39.8604)"
       d="M 0,0 0.01,0.01" />
    <path
       style="stroke-width:0.69999999;stroke-linecap:round"
       id="path302"
       transform="translate(48.2852,39.8604)"
       d="M 0,0 0.01,0.01" />
    <path
       style="stroke-width:0.69999999;stroke-linecap:round"
       id="path304"
       transform="translate(7.169,36.8604)"
       d="M 0,0 0.01,0.01" />
    <path
       style="stroke-width:0.69999999;stroke-linecap:round"
       id="path306"
       transform="translate(16.1455,36.8604)"
       d="M 0,0 0.01,0.01" />
    <path
       style="stroke-width:0.69999999;stroke-linecap:round"
       id="path308"
       transform="translate(25.0625,36.8604)"
       d="M 0,0 0.01,0.01" />
    <path
       style="stroke-width:0.69999999;stroke-linecap:round"
       id="path310"
       transform="translate(34.0059,36.8604)"
       d="M 0,0 0.01,0.01" />
    <path
       style="stroke-width:0.69999999;stroke-linecap:round"
       id="path312"
       transform="translate(42.8916,36.8604)"
       d="M 0,0 0.01,0.01" />
    <path
       style="stroke-width:0.69999999;stroke-linecap:round"
       id="path314"
       transform="translate(51.8389,36.8604)"
       d="M 0,0 0.01,0.01" />
    <path
       style="stroke-width:0.69999999;stroke-linecap:round"
       id="path316"
       transform="translate(4.0586,34.0264)"
       d="M 0,0 0.01,0.01" />
    <path
       style="stroke-width:0.69999999;stroke-linecap:round"
       id="path318"
       transform="translate(13.0352,34.0264)"
       d="M 0,0 0.01,0.01" />
    <path
       style="stroke-width:0.69999999;stroke-linecap:round"
       id="path320"
       transform="translate(21.9522,34.0264)"
       d="M 0,0 0.01,0.01" />
    <path
       style="stroke-width:0.69999999;stroke-linecap:round"
       id="path322"
       transform="translate(30.8955,34.0264)"
       d="M 0,0 0.01,0.01" />
    <path
       style="stroke-width:0.69999999;stroke-linecap:round"
       id="path324"
       transform="translate(39.7822,34.0264)"
       d="M 0,0 0.01,0.01" />
    <path
       style="stroke-width:0.69999999;stroke-linecap:round"
       id="path326"
       transform="translate(48.7285,34.0264)"
       d="M 0,0 0.01,0.01" />
    <path
       style="stroke-width:0.69999999;stroke-linecap:round"
       id="path328"
       transform="translate(8.6455,30.8604)"
       d="M 0,0 0.01,0.01" />
    <path
       style="stroke-width:0.69999999;stroke-linecap:round"
       id="path330"
       transform="translate(17.6221,30.8604)"
       d="M 0,0 0.01,0.01" />
    <path
       style="stroke-width:0.69999999;stroke-linecap:round"
       id="path332"
       transform="translate(26.5391,30.8604)"
       d="M 0,0 0.01,0.01" />
    <path
       style="stroke-width:0.69999999;stroke-linecap:round"
       id="path334"
       transform="translate(35.4824,30.8604)"
       d="M 0,0 0.01,0.01" />
    <path
       style="stroke-width:0.69999999;stroke-linecap:round"
       id="path336"
       transform="translate(44.3692,30.8604)"
       d="M 0,0 0.01,0.01" />
    <path
       style="stroke-width:0.69999999;stroke-linecap:round"
       id="path338"
       transform="translate(53.3154,30.8604)"
       d="M 0,0 0.01,0.01" />
    <path
       style="stroke-width:0.69999999;stroke-linecap:round"
       id="path340"
       transform="translate(5.3389,27.7764)"
       d="M 0,0 0.01,0.01" />
    <path
       style="stroke-width:0.69999999;stroke-linecap:round"
       id="path342"
       transform="translate(14.3154,27.7764)"
       d="M 0,0 0.01,0.01" />
    <path
       style="stroke-width:0.69999999;stroke-linecap:round"
       id="path344"
       transform="translate(23.2324,27.7764)"
       d="M 0,0 0.01,0.01" />
    <path
       style="stroke-width:0.69999999;stroke-linecap:round"
       id="path346"
       transform="translate(32.1758,27.7764)"
       d="M 0,0 0.01,0.01" />
    <path
       style="stroke-width:0.69999999;stroke-linecap:round"
       id="path348"
       transform="translate(41.0625,27.7764)"
       d="M 0,0 0.01,0.01" />
    <path
       style="stroke-width:0.69999999;stroke-linecap:round"
       id="path350"
       transform="translate(50.0088,27.7764)"
       d="M 0,0 0.01,0.01" />
    <path
       style="stroke-width:0.69999999;stroke-linecap:round"
       id="path352"
       transform="translate(9.7559,24.6368)"
       d="M 0,0 0.01,0.01" />
    <path
       style="stroke-width:0.69999999;stroke-linecap:round"
       id="path354"
       transform="translate(1,24.6368)"
       d="M 0,0 0.01,0.01" />
    <path
       style="stroke-width:0.69999999;stroke-linecap:round"
       id="path356"
       transform="translate(18.7324,24.6368)"
       d="M 0,0 0.01,0.01" />
    <path
       style="stroke-width:0.69999999;stroke-linecap:round"
       id="path358"
       transform="translate(27.6485,24.6368)"
       d="M 0,0 0.01,0.01" />
    <path
       style="stroke-width:0.69999999;stroke-linecap:round"
       id="path360"
       transform="translate(36.5918,24.6368)"
       d="M 0,0 0.01,0.01" />
    <path
       style="stroke-width:0.69999999;stroke-linecap:round"
       id="path362"
       transform="translate(45.4785,24.6368)"
       d="M 0,0 0.01,0.01" />
    <path
       style="stroke-width:0.69999999;stroke-linecap:round"
       id="path364"
       transform="translate(4.9561,21.8868)"
       d="M 0,0 0.01,0.01" />
    <path
       style="stroke-width:0.69999999;stroke-linecap:round"
       id="path366"
       transform="translate(13.9326,21.8868)"
       d="M 0,0 0.01,0.01" />
    <path
       style="stroke-width:0.69999999;stroke-linecap:round"
       id="path368"
       transform="translate(22.8486,21.8868)"
       d="M 0,0 0.01,0.01" />
    <path
       style="stroke-width:0.69999999;stroke-linecap:round"
       id="path370"
       transform="translate(31.792,21.8868)"
       d="M 0,0 0.01,0.01" />
    <path
       style="stroke-width:0.69999999;stroke-linecap:round"
       id="path372"
       transform="translate(40.6787,21.8868)"
       d="M 0,0 0.01,0.01" />
    <path
       style="stroke-width:0.69999999;stroke-linecap:round"
       id="path374"
       transform="translate(49.626,21.8868)"
       d="M 0,0 0.01,0.01" />
    <path
       style="stroke-width:0.69999999;stroke-linecap:round"
       id="path376"
       transform="translate(8.5586,18.6934)"
       d="M 0,0 0.01,0.01" />
    <path
       style="stroke-width:0.69999999;stroke-linecap:round"
       id="path378"
       transform="translate(17.5352,18.6934)"
       d="M 0,0 0.01,0.01" />
    <path
       style="stroke-width:0.69999999;stroke-linecap:round"
       id="path380"
       transform="translate(26.4522,18.6934)"
       d="M 0,0 0.01,0.01" />
    <path
       style="stroke-width:0.69999999;stroke-linecap:round"
       id="path382"
       transform="translate(35.3955,18.6934)"
       d="M 0,0 0.01,0.01" />
    <path
       style="stroke-width:0.69999999;stroke-linecap:round"
       id="path384"
       transform="translate(44.2822,18.6934)"
       d="M 0,0 0.01,0.01" />
    <path
       style="stroke-width:0.69999999;stroke-linecap:round"
       id="path386"
       transform="translate(53.2285,18.6934)"
       d="M 0,0 0.01,0.01" />
    <path
       style="stroke-width:0.69999999;stroke-linecap:round"
       id="path388"
       transform="translate(4.1416,15.6934)"
       d="M 0,0 0.01,0.01" />
    <path
       style="stroke-width:0.69999999;stroke-linecap:round"
       id="path390"
       transform="translate(13.1192,15.6934)"
       d="M 0,0 0.01,0.01" />
    <path
       style="stroke-width:0.69999999;stroke-linecap:round"
       id="path392"
       transform="translate(22.0352,15.6934)"
       d="M 0,0 0.01,0.01" />
    <path
       style="stroke-width:0.69999999;stroke-linecap:round"
       id="path394"
       transform="translate(30.9785,15.6934)"
       d="M 0,0 0.01,0.01" />
    <path
       style="stroke-width:0.69999999;stroke-linecap:round"
       id="path396"
       transform="translate(39.8652,15.6934)"
       d="M 0,0 0.01,0.01" />
    <path
       style="stroke-width:0.69999999;stroke-linecap:round"
       id="path398"
       transform="translate(48.8125,15.6934)"
       d="M 0,0 0.01,0.01" />
    <path
       style="stroke-width:0.69999999;stroke-linecap:round"
       id="path400"
       transform="translate(7.8916,12.7764)"
       d="M 0,0 0.01,0.01" />
    <path
       style="stroke-width:0.69999999;stroke-linecap:round"
       id="path402"
       transform="translate(16.8692,12.7764)"
       d="M 0,0 0.01,0.01" />
    <path
       style="stroke-width:0.69999999;stroke-linecap:round"
       id="path404"
       transform="translate(25.7852,12.7764)"
       d="M 0,0 0.01,0.01" />
    <path
       style="stroke-width:0.69999999;stroke-linecap:round"
       id="path406"
       transform="translate(34.7285,12.7764)"
       d="M 0,0 0.01,0.01" />
    <path
       style="stroke-width:0.69999999;stroke-linecap:round"
       id="path408"
       transform="translate(43.6152,12.7764)"
       d="M 0,0 0.01,0.01" />
    <path
       style="stroke-width:0.69999999;stroke-linecap:round"
       id="path410"
       transform="translate(52.5625,12.7764)"
       d="M 0,0 0.01,0.01" />
    <path
       style="stroke-width:0.69999999;stroke-linecap:round"
       id="path412"
       transform="translate(5.0586,9.9434)"
       d="M 0,0 0.01,0.01" />
    <path
       style="stroke-width:0.69999999;stroke-linecap:round"
       id="path414"
       transform="translate(14.0352,9.9434)"
       d="M 0,0 0.01,0.01" />
    <path
       style="stroke-width:0.69999999;stroke-linecap:round"
       id="path416"
       transform="translate(22.9522,9.9434)"
       d="M 0,0 0.01,0.01" />
    <path
       style="stroke-width:0.69999999;stroke-linecap:round"
       id="path418"
       transform="translate(31.8955,9.9434)"
       d="M 0,0 0.01,0.01" />
    <path
       style="stroke-width:0.69999999;stroke-linecap:round"
       id="path420"
       transform="translate(40.7822,9.9434)"
       d="M 0,0 0.01,0.01" />
    <path
       style="stroke-width:0.69999999;stroke-linecap:round"
       id="path422"
       transform="translate(49.7285,9.9434)"
       d="M 0,0 0.01,0.01" />
    <path
       style="stroke-width:0.69999999;stroke-linecap:round"
       id="path424"
       transform="translate(1.2256,6.833)"
       d="M 0,0 0.01,0.01" />
    <path
       style="stroke-width:0.69999999;stroke-linecap:round"
       id="path426"
       transform="translate(10.2022,6.833)"
       d="M 0,0 0.01,0.01" />
    <path
       style="stroke-width:0.69999999;stroke-linecap:round"
       id="path428"
       transform="translate(19.1192,6.833)"
       d="M 0,0 0.01,0.01" />
    <path
       style="stroke-width:0.69999999;stroke-linecap:round"
       id="path430"
       transform="translate(28.0625,6.833)"
       d="M 0,0 0.01,0.01" />
    <path
       style="stroke-width:0.69999999;stroke-linecap:round"
       id="path432"
       transform="translate(36.9483,6.833)"
       d="M 0,0 0.01,0.01" />
    <path
       style="stroke-width:0.69999999;stroke-linecap:round"
       id="path434"
       transform="translate(45.8955,6.833)"
       d="M 0,0 0.01,0.01" />
    <path
       style="stroke-width:0.69999999;stroke-linecap:round"
       id="path436"
       transform="translate(6.6416,3.8604)"
       d="M 0,0 0.01,0.01" />
    <path
       style="stroke-width:0.69999999;stroke-linecap:round"
       id="path438"
       transform="translate(15.6192,3.8604)"
       d="M 0,0 0.01,0.01" />
    <path
       style="stroke-width:0.69999999;stroke-linecap:round"
       id="path440"
       transform="translate(24.5352,3.8604)"
       d="M 0,0 0.01,0.01" />
    <path
       style="stroke-width:0.69999999;stroke-linecap:round"
       id="path442"
       transform="translate(33.4785,3.8604)"
       d="M 0,0 0.01,0.01" />
    <path
       style="stroke-width:0.69999999;stroke-linecap:round"
       id="path444"
       transform="translate(42.3652,3.8604)"
       d="M 0,0 0.01,0.01" />
    <path
       style="stroke-width:0.69999999;stroke-linecap:round"
       id="path446"
       transform="translate(51.3125,3.8604)"
       d="M 0,0 0.01,0.01" />
    <path
       style="stroke-width:0.69999999;stroke-linecap:round"
       id="path448"
       transform="translate(1.4756,0.8604)"
       d="M 0,0 0.01,0.01" />
    <path
       style="stroke-width:0.69999999;stroke-linecap:round"
       id="path450"
       transform="translate(10.4522,0.8604)"
       d="M 0,0 0.01,0.01" />
    <path
       style="stroke-width:0.69999999;stroke-linecap:round"
       id="path452"
       transform="translate(19.3692,0.8604)"
       d="M 0,0 0.01,0.01" />
    <path
       style="stroke-width:0.69999999;stroke-linecap:round"
       id="path454"
       transform="translate(28.3125,0.8604)"
       d="M 0,0 0.01,0.01" />
    <path
       style="stroke-width:0.69999999;stroke-linecap:round"
       id="path456"
       transform="translate(37.1983,0.8604)"
       d="M 0,0 0.01,0.01" />
    <path
       style="stroke-width:0.69999999;stroke-linecap:round"
       id="path458"
       transform="translate(46.1455,0.8604)"
       d="M 0,0 0.01,0.01" />
  </g>
</svg>
