<?xml version="1.0" encoding="UTF-8" standalone="no"?>
<svg
   xmlns:dc="http://purl.org/dc/elements/1.1/"
   xmlns:cc="http://creativecommons.org/ns#"
   xmlns:rdf="http://www.w3.org/1999/02/22-rdf-syntax-ns#"
   xmlns:svg="http://www.w3.org/2000/svg"
   xmlns="http://www.w3.org/2000/svg"
   height="54.125"
   width="54.125"
   id="svg574"
   version="1.1">
  <defs
     id="defs578" />
  <metadata
     id="metadata2">citation: U.S. Geological Survey, 2006, FGDC Digital Cartographic Standard for Geologic Map Symbolization (PostScript Implementation): U.S. Geological Survey Techniques and Methods 11-A2 [pubs.usgs.gov/tm/2006/11A02/]. converted by CEC Geology LLC 2018 from the USGS lithologic gs converted to inkscape by the University of Otago.<rdf:RDF>
  <cc:Work
     rdf:about="">
    <dc:format>image/svg+xml</dc:format>
    <dc:type
       rdf:resource="http://purl.org/dc/dcmitype/StillImage" />
    <dc:title></dc:title>
  </cc:Work>
</rdf:RDF>
</metadata>
  <g
     stroke="#231f20"
     fill="none"

     transform="matrix(-1,0,0,1,54.125,0)"
     id="g572"
     width="54.125"
     height="54.125">
    <g
       style="stroke-width:.3"
       id="g402">
      <path
         id="path4"
         transform="translate(54.125,50.375)"
         d="M 0,0 H -8.976" />
      <path
         id="path6"
         transform="translate(4.5864,50.375)"
         d="M 0,0 H -4.586" />
      <path
         id="path8"
         transform="translate(42.0156,50.375)"
         d="M 0,0 H -11.242" />
      <path
         id="path10"
         transform="translate(17.3364,50.375)"
         d="M 0,0 H 11.013" />
      <path
         id="path12"
         transform="translate(17.3364,50.375)"
         d="M 0,0 H -12.75" />
      <path
         id="path14"
         transform="translate(30.7739,50.375)"
         d="M 0,0 H -2.425" />
      <path
         id="path16"
         transform="translate(42.0156,50.375)"
         d="M 0,0 H 3.133" />
      <path
         id="path18"
         transform="translate(54.125,46.2002)"
         d="M 0,0 H -19.343" />
      <path
         id="path20"
         transform="translate(34.7822,46.2002)"
         d="M 0,0 H -26.813" />
      <path
         id="path22"
         transform="translate(7.9697,46.2002)"
         d="M 0,0 H -7.97" />
      <path
         id="path24"
         transform="translate(12.7202,42.0127)"
         d="M 0,0 H -12.72" />
      <path
         id="path26"
         transform="translate(40.9702,42.0127)"
         d="M 0,0 H 12.812" />
      <path
         id="path28"
         transform="translate(27.5327,42.0127)"
         d="M 0,0 H 13.438" />
      <path
         id="path30"
         transform="translate(27.5327,42.0127)"
         d="M 0,0 H -14.813" />
      <path
         id="path32"
         transform="translate(53.7822,42.0127)"
         d="M 0,0 H 0.343" />
      <path
         id="path34"
         transform="translate(53.6821,12.3999)"
         d="M 0,0 H 0.443" />
      <path
         id="path36"
         transform="translate(12.602,12.3999)"
         d="M 0,0 H 14.5" />
      <path
         id="path38"
         transform="translate(41.102,12.3999)"
         d="M 0,0 H -14" />
      <path
         id="path40"
         transform="translate(41.102,12.3999)"
         d="M 0,0 H 12.58" />
      <path
         id="path42"
         transform="translate(54.125,12.3999)"
         d="M 0,0 H 0.063" />
      <path
         id="path44"
         transform="translate(12.602,12.3999)"
         d="M 0,0 H -12.602" />
      <path
         id="path46"
         transform="translate(51.228,8.625)"
         d="M 0,0 H 2.897" />
      <path
         id="path48"
         transform="translate(18.4629,8.625)"
         d="M 0,0 H 6.325" />
      <path
         id="path50"
         transform="translate(5.4629,8.625)"
         d="M 0,0 H -5.463" />
      <path
         id="path52"
         transform="translate(38.7881,8.625)"
         d="M 0,0 H 8.274" />
      <path
         id="path54"
         transform="translate(51.228,8.625)"
         d="M 0,0 H -4.165" />
      <path
         id="path56"
         transform="translate(24.7881,8.625)"
         d="M 0,0 H 7.675" />
      <path
         id="path58"
         transform="translate(10.2881,8.625)"
         d="M 0,0 H -4.825" />
      <path
         id="path60"
         transform="translate(38.7881,8.625)"
         d="M 0,0 H -6.325" />
      <path
         id="path62"
         transform="translate(10.2881,8.625)"
         d="M 0,0 H 8.175" />
      <path
         id="path64"
         transform="translate(6.6211,37.9937)"
         d="M 0,0 H 12.688" />
      <path
         id="path66"
         transform="translate(32.6211,37.9937)"
         d="M 0,0 H 14.625" />
      <path
         id="path68"
         transform="translate(6.6211,37.9937)"
         d="M 0,0 H -6.621" />
      <path
         id="path70"
         transform="translate(54.125,37.9937)"
         d="M 0,0 H -6.879" />
      <path
         id="path72"
         transform="translate(32.6211,37.9937)"
         d="M 0,0 H -13.313" />
      <path
         id="path74"
         transform="translate(28.0405,34.7124)"
         d="M 0,0 H -15" />
      <path
         id="path76"
         transform="translate(13.0405,34.7124)"
         d="M 0,0 H -13.04" />
      <path
         id="path78"
         transform="translate(41.853,34.7124)"
         d="M 0,0 H 12.058" />
      <path
         id="path80"
         transform="translate(28.0405,34.7124)"
         d="M 0,0 H 13.813" />
      <path
         id="path82"
         transform="translate(54.125,34.7124)"
         d="M 0,0 H -0.214" />
      <path
         id="path84"
         transform="translate(34.6099,31.2876)"
         d="M 0,0 H -13.688" />
      <path
         id="path86"
         transform="translate(49.5474,31.2876)"
         d="M 0,0 H 2.165" />
      <path
         id="path88"
         transform="translate(51.7119,31.2876)"
         d="M 0,0 H 2.413" />
      <path
         id="path90"
         transform="translate(7.4849,31.2876)"
         d="M 0,0 H 13.438" />
      <path
         id="path92"
         transform="translate(7.4849,31.2876)"
         d="M 0,0 H -7.485" />
      <path
         id="path94"
         transform="translate(34.6099,31.2876)"
         d="M 0,0 H 14.938" />
      <path
         id="path96"
         transform="translate(54.0547,27.2373)"
         d="M 0,0 H -13.188" />
      <path
         id="path98"
         transform="translate(40.8672,27.2373)"
         d="M 0,0 H -13.375" />
      <path
         id="path100"
         transform="translate(12.4922,27.2373)"
         d="M 0,0 H -12.492" />
      <path
         id="path102"
         transform="translate(54.0547,27.2373)"
         d="M 0,0 H 0.07" />
      <path
         id="path104"
         transform="translate(27.4922,27.2373)"
         d="M 0,0 H -15" />
      <path
         id="path106"
         transform="translate(54.125,23.4375)"
         d="M 0,0 H -54.125" />
      <path
         id="path108"
         transform="translate(54.1875,19.2373)"
         d="M 0,0 H -0.063" />
      <path
         id="path110"
         transform="translate(0,19.2373)"
         d="M 0,0 H 54.125" />
      <path
         id="path112"
         transform="translate(51.8208,16.0127)"
         d="M 0,0 H 2.304" />
      <path
         id="path114"
         transform="translate(0,16.0127)"
         d="M 0,0 H 51.821" />
      <path
         id="path116"
         transform="translate(0,0.8374)"
         d="M 0,0 H 9.015" />
      <path
         id="path118"
         transform="translate(37.0151,0.8374)"
         d="M 0,0 H 13.375" />
      <path
         id="path120"
         transform="translate(50.3901,0.8374)"
         d="M 0,0 H 3.735" />
      <path
         id="path122"
         transform="translate(23.3276,0.8374)"
         d="M 0,0 H 13.688" />
      <path
         id="path124"
         transform="translate(9.0151,0.8374)"
         d="M 0,0 H 14.313" />
      <path
         id="path126"
         transform="translate(0,4.2124)"
         d="M 0,0 H 54.125" />
      <path
         id="path128"
         transform="translate(5.4629,8.625)"
         d="M 0,0 -2.592,-4.387" />
      <path
         id="path130"
         transform="translate(5.5,8.6875)"
         d="M 0,0 -0.037,-0.063" />
      <path
         id="path132"
         transform="translate(18.5,8.6875)"
         d="M 0,0 -0.037,-0.063" />
      <path
         id="path134"
         transform="translate(18.4629,8.625)"
         d="M 0,0 -2.592,-4.387" />
      <path
         id="path136"
         transform="translate(32.5,8.6875)"
         d="M 0,0 -0.037,-0.063" />
      <path
         id="path138"
         transform="translate(29.8706,4.2378)"
         d="M 0,0 2.592,4.387" />
      <path
         id="path140"
         transform="translate(47.0625,8.625)"
         d="M 0,0 -2.629,-4.387" />
      <path
         id="path142"
         transform="translate(50.3901,0.8374)"
         d="M 0,0 -0.015,-0.025" />
      <path
         id="path144"
         transform="translate(50.3901,0.8374)"
         d="M 0,0 2.047,3.35" />
      <path
         id="path146"
         transform="translate(37.0151,0.8374)"
         d="M 0,0 -0.015,-0.025" />
      <path
         id="path148"
         transform="translate(37.0151,0.8374)"
         d="M 0,0 2.047,3.35" />
      <path
         id="path150"
         transform="translate(23.3276,0.8374)"
         d="M 0,0 -0.015,-0.025" />
      <path
         id="path152"
         transform="translate(23.3276,0.8374)"
         d="M 0,0 2.047,3.35" />
      <path
         id="path154"
         transform="translate(9.0151,0.8374)"
         d="M 0,0 2.047,3.35" />
      <path
         id="path156"
         transform="translate(9.0151,0.8374)"
         d="M 0,0 -0.015,-0.025" />
      <path
         id="path158"
         transform="translate(53.6821,12.3999)"
         d="M 0,0 0.014,0.021" />
      <path
         id="path160"
         transform="translate(51.228,8.625)"
         d="M 0,0 2.454,3.775" />
      <path
         id="path162"
         transform="translate(51.228,8.625)"
         d="M 0,0 -0.04,-0.063" />
      <path
         id="path164"
         transform="translate(47.3125,12.4375)"
         d="M 0,0 2.125,3.563" />
      <path
         id="path166"
         transform="translate(47.375,23.375)"
         d="M 0,0 -2.563,-4.063" />
      <path
         id="path168"
         transform="translate(53.8623,19.2124)"
         d="M 0,0 -2.042,-3.2" />
      <path
         id="path170"
         transform="translate(51.8125,16)"
         d="M 0,0 0.008,0.013" />
      <path
         id="path172"
         transform="translate(54.0547,27.2373)"
         d="M 0,0 0.008,0.013" />
      <path
         id="path174"
         transform="translate(54.0547,27.2373)"
         d="M 0,0 -2.242,-3.737" />
      <path
         id="path176"
         transform="translate(49.5474,31.2876)"
         d="M 0,0 0.015,0.025" />
      <path
         id="path178"
         transform="translate(49.5474,31.2876)"
         d="M 0,0 -2.422,-4.038" />
      <path
         id="path180"
         transform="translate(51.6875,31.25)"
         d="M 0,0 0.024,0.038" />
      <path
         id="path182"
         transform="translate(53.9111,34.7124)"
         d="M 0,0 -2.199,-3.425" />
      <path
         id="path184"
         transform="translate(53.9111,34.7124)"
         d="M 0,0 0.014,0.021" />
      <path
         id="path186"
         transform="translate(47.25,38)"
         d="M 0,0 -0.004,-0.006" />
      <path
         id="path188"
         transform="translate(45.25,34.75)"
         d="M 0,0 1.996,3.244" />
      <path
         id="path190"
         transform="translate(53.7822,42.0127)"
         d="M 0,0 -2.423,-4.013" />
      <path
         id="path192"
         transform="translate(53.7822,42.0127)"
         d="M 0,0 0.03,0.05" />
      <path
         id="path194"
         transform="translate(46.1875,42.0625)"
         d="M 0,0 2.654,4.108" />
      <path
         id="path196"
         transform="translate(51.2915,46.25)"
         d="M 0,0 2.613,4.108" />
      <path
         id="path198"
         transform="translate(45.1489,50.375)"
         d="M 0,0 2.285,3.75" />
      <path
         id="path200"
         transform="translate(45.1489,50.375)"
         d="M 0,0 -0.007,-0.012" />
      <path
         id="path202"
         transform="translate(38.7881,8.625)"
         d="M 0,0 -0.038,-0.063" />
      <path
         id="path204"
         transform="translate(41.102,12.3999)"
         d="M 0,0 -2.314,-3.775" />
      <path
         id="path206"
         transform="translate(41.102,12.3999)"
         d="M 0,0 0.023,0.038" />
      <path
         id="path208"
         transform="translate(24.75,8.5625)"
         d="M 0,0 0.038,0.063" />
      <path
         id="path210"
         transform="translate(27.102,12.3999)"
         d="M 0,0 -2.314,-3.775" />
      <path
         id="path212"
         transform="translate(27.125,12.4375)"
         d="M 0,0 -0.023,-0.038" />
      <path
         id="path214"
         transform="translate(10.2881,8.625)"
         d="M 0,0 -0.038,-0.063" />
      <path
         id="path216"
         transform="translate(12.602,12.3999)"
         d="M 0,0 0.023,0.038" />
      <path
         id="path218"
         transform="translate(12.602,12.3999)"
         d="M 0,0 -2.314,-3.775" />
      <path
         id="path220"
         transform="translate(32.4375,12.4375)"
         d="M 0,0 2.125,3.563" />
      <path
         id="path222"
         transform="translate(18.75,12.4375)"
         d="M 0,0 2.125,3.563" />
      <path
         id="path224"
         transform="translate(5.5,12.4375)"
         d="M 0,0 2.125,3.563" />
      <path
         id="path226"
         transform="translate(41.9375,19.1875)"
         d="M 0,0 -1.938,-3.125" />
      <path
         id="path228"
         transform="translate(27.6875,19.1875)"
         d="M 0,0 -1.938,-3.125" />
      <path
         id="path230"
         transform="translate(12.625,19.1875)"
         d="M 0,0 -1.938,-3.125" />
      <path
         id="path232"
         transform="translate(33.0625,23.375)"
         d="M 0,0 -2.563,-4.063" />
      <path
         id="path234"
         transform="translate(19.4375,23.375)"
         d="M 0,0 -2.563,-4.063" />
      <path
         id="path236"
         transform="translate(6.4375,23.375)"
         d="M 0,0 -2.563,-4.063" />
      <path
         id="path238"
         transform="translate(40.875,27.25)"
         d="M 0,0 -0.008,-0.013" />
      <path
         id="path240"
         transform="translate(40.8672,27.2373)"
         d="M 0,0 -2.242,-3.737" />
      <path
         id="path242"
         transform="translate(27.4922,27.2373)"
         d="M 0,0 -2.242,-3.737" />
      <path
         id="path244"
         transform="translate(27.5,27.25)"
         d="M 0,0 -0.008,-0.013" />
      <path
         id="path246"
         transform="translate(12.4922,27.2373)"
         d="M 0,0 -2.242,-3.737" />
      <path
         id="path248"
         transform="translate(12.4922,27.2373)"
         d="M 0,0 0.008,0.013" />
      <path
         id="path250"
         transform="translate(34.6099,31.2876)"
         d="M 0,0 -2.422,-4.038" />
      <path
         id="path252"
         transform="translate(34.6099,31.2876)"
         d="M 0,0 0.015,0.025" />
      <path
         id="path254"
         transform="translate(18.5,27.25)"
         d="M 0,0 2.422,4.038" />
      <path
         id="path256"
         transform="translate(20.9375,31.3125)"
         d="M 0,0 -0.015,-0.025" />
      <path
         id="path258"
         transform="translate(7.4849,31.2876)"
         d="M 0,0 -2.422,-4.038" />
      <path
         id="path260"
         transform="translate(7.4849,31.2876)"
         d="M 0,0 0.015,0.025" />
      <path
         id="path262"
         transform="translate(41.853,34.7124)"
         d="M 0,0 0.022,0.038" />
      <path
         id="path264"
         transform="translate(41.853,34.7124)"
         d="M 0,0 -1.978,-3.4" />
      <path
         id="path266"
         transform="translate(28.0405,34.7124)"
         d="M 0,0 0.022,0.038" />
      <path
         id="path268"
         transform="translate(28.0405,34.7124)"
         d="M 0,0 -1.978,-3.4" />
      <path
         id="path270"
         transform="translate(13.0405,34.7124)"
         d="M 0,0 -1.978,-3.4" />
      <path
         id="path272"
         transform="translate(13.0405,34.7124)"
         d="M 0,0 0.022,0.038" />
      <path
         id="path274"
         transform="translate(32.6211,37.9937)"
         d="M 0,0 -1.996,-3.244" />
      <path
         id="path276"
         transform="translate(32.6211,37.9937)"
         d="M 0,0 0.004,0.006" />
      <path
         id="path278"
         transform="translate(19.3125,38)"
         d="M 0,0 -0.004,-0.006" />
      <path
         id="path280"
         transform="translate(17.3125,34.75)"
         d="M 0,0 1.996,3.244" />
      <path
         id="path282"
         transform="translate(6.6211,37.9937)"
         d="M 0,0 -1.996,-3.244" />
      <path
         id="path284"
         transform="translate(6.6211,37.9937)"
         d="M 0,0 0.004,0.006" />
      <path
         id="path286"
         transform="translate(40.9702,42.0127)"
         d="M 0,0 0.03,0.05" />
      <path
         id="path288"
         transform="translate(38.5625,38)"
         d="M 0,0 2.408,4.013" />
      <path
         id="path290"
         transform="translate(27.5327,42.0127)"
         d="M 0,0 -2.408,-4.013" />
      <path
         id="path292"
         transform="translate(27.5327,42.0127)"
         d="M 0,0 0.03,0.05" />
      <path
         id="path294"
         transform="translate(12.7202,42.0127)"
         d="M 0,0 0.03,0.05" />
      <path
         id="path296"
         transform="translate(12.7202,42.0127)"
         d="M 0,0 -2.408,-4.013" />
      <path
         id="path298"
         transform="translate(34.7822,46.2002)"
         d="M 0,0 0.03,0.05" />
      <path
         id="path300"
         transform="translate(34.7822,46.2002)"
         d="M 0,0 -2.532,-4.138" />
      <path
         id="path302"
         transform="translate(18.625,42.0625)"
         d="M 0,0 2.5,4.125" />
      <path
         id="path304"
         transform="translate(7.9697,46.2002)"
         d="M 0,0 0.03,0.05" />
      <path
         id="path306"
         transform="translate(7.9697,46.2002)"
         d="M 0,0 -2.532,-4.138" />
      <path
         id="path308"
         transform="translate(42.0156,50.375)"
         d="M 0,0 -2.516,-4.125" />
      <path
         id="path310"
         transform="translate(42.0156,50.375)"
         d="M 0,0 0.026,0.042" />
      <path
         id="path312"
         transform="translate(25.8125,46.25)"
         d="M 0,0 2.537,4.125" />
      <path
         id="path314"
         transform="translate(28.375,50.417)"
         d="M 0,0 -0.026,-0.042" />
      <path
         id="path316"
         transform="translate(13.4585,50.3335)"
         d="M 0,0 -2.521,-4.083" />
      <path
         id="path318"
         transform="translate(30.7739,50.375)"
         d="M 0,0 2.285,3.75" />
      <path
         id="path320"
         transform="translate(30.7666,50.3628)"
         d="M 0,0 0.007,0.012" />
      <path
         id="path322"
         transform="translate(17.3364,50.375)"
         d="M 0,0 2.285,3.75" />
      <path
         id="path324"
         transform="translate(17.3364,50.375)"
         d="M 0,0 -0.007,-0.012" />
      <path
         id="path326"
         transform="translate(4.5864,50.375)"
         d="M 0,0 2.285,3.75" />
      <path
         id="path328"
         transform="translate(4.5791,50.3628)"
         d="M 0,0 0.007,0.012" />
      <path
         id="path330"
         transform="translate(47.875,0.75)"
         d="M 0,0 -0.452,-0.75" />
      <path
         id="path332"
         transform="translate(33.5,0.75)"
         d="M 0,0 -0.452,-0.75" />
      <path
         id="path334"
         transform="translate(20.0625,0.75)"
         d="M 0,0 -0.452,-0.75" />
      <path
         id="path336"
         transform="translate(7.3125,0.75)"
         d="M 0,0 -0.452,-0.75" />
      <path
         id="path338"
         transform="translate(8.1216,52.1919)"
         d="M 0,0 H 7.25" />
      <path
         id="path340"
         transform="translate(35.2466,52.1919)"
         d="M 0,0 H 7.25" />
      <path
         id="path342"
         transform="translate(22.6719,48.1792)"
         d="M 0,0 H -7.25" />
      <path
         id="path344"
         transform="translate(50.4219,48.1792)"
         d="M 0,0 H -7.25" />
      <path
         id="path346"
         transform="translate(22.812,44.1167)"
         d="M 0,0 H 7.25" />
      <path
         id="path348"
         transform="translate(3.3965,44.1167)"
         d="M 0,0 H -3.396" />
      <path
         id="path350"
         transform="translate(36.4966,39.8667)"
         d="M 0,0 H -7.25" />
      <path
         id="path352"
         transform="translate(0.8716,39.8667)"
         d="M 0,0 H 7.25" />
      <path
         id="path354"
         transform="translate(42.1968,36.3667)"
         d="M 0,0 H -7.25" />
      <path
         id="path356"
         transform="translate(51.2466,32.9917)"
         d="M 0,0 H -7.25" />
      <path
         id="path358"
         transform="translate(51.1953,29.1167)"
         d="M 0,0 H 2.93" />
      <path
         id="path360"
         transform="translate(49.6465,25.3667)"
         d="M 0,0 H -7.25" />
      <path
         id="path362"
         transform="translate(42.4053,21.3667)"
         d="M 0,0 H -7.25" />
      <path
         id="path364"
         transform="translate(37.3301,17.6167)"
         d="M 0,0 H -7.25" />
      <path
         id="path366"
         transform="translate(22.8218,14.1167)"
         d="M 0,0 H 7.25" />
      <path
         id="path368"
         transform="translate(14.917,10.4917)"
         d="M 0,0 H 7.25" />
      <path
         id="path370"
         transform="translate(13.9683,6.1167)"
         d="M 0,0 H -7.25" />
      <path
         id="path372"
         transform="translate(7.2637,2.4419)"
         d="M 0,0 H -7.25" />
      <path
         id="path374"
         transform="translate(8.0718,36.2544)"
         d="M 0,0 H 7.25" />
      <path
         id="path376"
         transform="translate(23.2236,33.0044)"
         d="M 0,0 H -7.25" />
      <path
         id="path378"
         transform="translate(22.9121,29.2544)"
         d="M 0,0 H 7.25" />
      <path
         id="path380"
         transform="translate(22.2715,25.2544)"
         d="M 0,0 H -7.25" />
      <path
         id="path382"
         transform="translate(15.1436,21.2544)"
         d="M 0,0 H -7.25" />
      <path
         id="path384"
         transform="translate(8.5464,17.5044)"
         d="M 0,0 H -7.25" />
      <path
         id="path386"
         transform="translate(3.0718,14.0044)"
         d="M 0,0 H -3.072" />
      <path
         id="path388"
         transform="translate(42.9966,10.3794)"
         d="M 0,0 H 7.25" />
      <path
         id="path390"
         transform="translate(41.9683,6.2544)"
         d="M 0,0 H -7.25" />
      <path
         id="path392"
         transform="translate(34.4468,2.5044)"
         d="M 0,0 H -7.25" />
      <path
         id="path394"
         transform="translate(50.2217,44.1167)"
         d="M 0,0 H 3.903" />
      <path
         id="path396"
         transform="translate(50.5215,14.0044)"
         d="M 0,0 H 3.604" />
      <path
         id="path398"
         transform="translate(2.5205,29.1167)"
         d="M 0,0 H -2.52" />
      <path
         id="path400"
         transform="translate(53.7222,2.4419)"
         d="M 0,0 H 0.403" />
    </g>
    <path
       style="stroke-width:0.60000002;stroke-linecap:round"
       id="path404"
       transform="translate(17.4585,2.542)"
       d="M 0,0 0.01,0.01" />
    <path
       style="stroke-width:0.60000002;stroke-linecap:round"
       id="path406"
       transform="translate(20.4585,2.542)"
       d="M 0,0 0.01,0.01" />
    <path
       style="stroke-width:0.60000002;stroke-linecap:round"
       id="path408"
       transform="translate(14.2915,2.542)"
       d="M 0,0 0.01,0.01" />
    <path
       style="stroke-width:0.60000002;stroke-linecap:round"
       id="path410"
       transform="translate(24.125,6.292)"
       d="M 0,0 0.01,0.01" />
    <path
       style="stroke-width:0.60000002;stroke-linecap:round"
       id="path412"
       transform="translate(27.125,6.292)"
       d="M 0,0 0.01,0.01" />
    <path
       style="stroke-width:0.60000002;stroke-linecap:round"
       id="path414"
       transform="translate(20.9585,6.292)"
       d="M 0,0 0.01,0.01" />
    <path
       style="stroke-width:0.60000002;stroke-linecap:round"
       id="path416"
       transform="translate(33.0835,10.292)"
       d="M 0,0 0.01,0.01" />
    <path
       style="stroke-width:0.60000002;stroke-linecap:round"
       id="path418"
       transform="translate(36.0835,10.292)"
       d="M 0,0 0.01,0.01" />
    <path
       style="stroke-width:0.60000002;stroke-linecap:round"
       id="path420"
       transform="translate(29.9165,10.292)"
       d="M 0,0 0.01,0.01" />
    <path
       style="stroke-width:0.60000002;stroke-linecap:round"
       id="path422"
       transform="translate(4.9585,10.292)"
       d="M 0,0 0.01,0.01" />
    <path
       style="stroke-width:0.60000002;stroke-linecap:round"
       id="path424"
       transform="translate(7.9585,10.292)"
       d="M 0,0 0.01,0.01" />
    <path
       style="stroke-width:0.60000002;stroke-linecap:round"
       id="path426"
       transform="translate(1.7915,10.292)"
       d="M 0,0 0.01,0.01" />
    <path
       style="stroke-width:0.60000002;stroke-linecap:round"
       id="path428"
       transform="translate(13.2085,14.1167)"
       d="M 0,0 0.01,0.01" />
    <path
       style="stroke-width:0.60000002;stroke-linecap:round"
       id="path430"
       transform="translate(16.2085,14.1167)"
       d="M 0,0 0.01,0.01" />
    <path
       style="stroke-width:0.60000002;stroke-linecap:round"
       id="path432"
       transform="translate(10.0415,14.1167)"
       d="M 0,0 0.01,0.01" />
    <path
       style="stroke-width:0.60000002;stroke-linecap:round"
       id="path434"
       transform="translate(41.0835,14.1167)"
       d="M 0,0 0.01,0.01" />
    <path
       style="stroke-width:0.60000002;stroke-linecap:round"
       id="path436"
       transform="translate(44.0835,14.1167)"
       d="M 0,0 0.01,0.01" />
    <path
       style="stroke-width:0.60000002;stroke-linecap:round"
       id="path438"
       transform="translate(37.9165,14.1167)"
       d="M 0,0 0.01,0.01" />
    <path
       style="stroke-width:0.60000002;stroke-linecap:round"
       id="path440"
       transform="translate(46.9585,17.667)"
       d="M 0,0 0.01,0.01" />
    <path
       style="stroke-width:0.60000002;stroke-linecap:round"
       id="path442"
       transform="translate(49.9585,17.667)"
       d="M 0,0 0.01,0.01" />
    <path
       style="stroke-width:0.60000002;stroke-linecap:round"
       id="path444"
       transform="translate(43.7915,17.667)"
       d="M 0,0 0.01,0.01" />
    <path
       style="stroke-width:0.60000002;stroke-linecap:round"
       id="path446"
       transform="translate(19.2085,17.667)"
       d="M 0,0 0.01,0.01" />
    <path
       style="stroke-width:0.60000002;stroke-linecap:round"
       id="path448"
       transform="translate(22.2085,17.667)"
       d="M 0,0 0.01,0.01" />
    <path
       style="stroke-width:0.60000002;stroke-linecap:round"
       id="path450"
       transform="translate(16.0415,17.667)"
       d="M 0,0 0.01,0.01" />
    <path
       style="stroke-width:0.60000002;stroke-linecap:round"
       id="path452"
       transform="translate(25.2085,21.417)"
       d="M 0,0 0.01,0.01" />
    <path
       style="stroke-width:0.60000002;stroke-linecap:round"
       id="path454"
       transform="translate(28.2085,21.417)"
       d="M 0,0 0.01,0.01" />
    <path
       style="stroke-width:0.60000002;stroke-linecap:round"
       id="path456"
       transform="translate(22.0415,21.417)"
       d="M 0,0 0.01,0.01" />
    <path
       style="stroke-width:0.60000002;stroke-linecap:round"
       id="path458"
       transform="translate(53.2085,21.417)"
       d="M 0,0 0.01,0.01" />
    <path
       style="stroke-width:0.60000002;stroke-linecap:round"
       id="path460"
       transform="translate(50.0415,21.417)"
       d="M 0,0 0.01,0.01" />
    <path
       style="stroke-width:0.60000002;stroke-linecap:round"
       id="path462"
       transform="translate(2.2085,21.417)"
       d="M 0,0 0.01,0.01" />
    <path
       style="stroke-width:0.60000002;stroke-linecap:round"
       id="path464"
       transform="translate(32.8335,25.292)"
       d="M 0,0 0.01,0.01" />
    <path
       style="stroke-width:0.60000002;stroke-linecap:round"
       id="path466"
       transform="translate(35.8335,25.292)"
       d="M 0,0 0.01,0.01" />
    <path
       style="stroke-width:0.60000002;stroke-linecap:round"
       id="path468"
       transform="translate(29.6665,25.292)"
       d="M 0,0 0.01,0.01" />
    <path
       style="stroke-width:0.60000002;stroke-linecap:round"
       id="path470"
       transform="translate(4.8335,25.292)"
       d="M 0,0 0.01,0.01" />
    <path
       style="stroke-width:0.60000002;stroke-linecap:round"
       id="path472"
       transform="translate(7.8335,25.292)"
       d="M 0,0 0.01,0.01" />
    <path
       style="stroke-width:0.60000002;stroke-linecap:round"
       id="path474"
       transform="translate(1.6665,25.292)"
       d="M 0,0 0.01,0.01" />
    <path
       style="stroke-width:0.60000002;stroke-linecap:round"
       id="path476"
       transform="translate(12.9585,29.292)"
       d="M 0,0 0.01,0.01" />
    <path
       style="stroke-width:0.60000002;stroke-linecap:round"
       id="path478"
       transform="translate(15.9585,29.292)"
       d="M 0,0 0.01,0.01" />
    <path
       style="stroke-width:0.60000002;stroke-linecap:round"
       id="path480"
       transform="translate(9.7915,29.292)"
       d="M 0,0 0.01,0.01" />
    <path
       style="stroke-width:0.60000002;stroke-linecap:round"
       id="path482"
       transform="translate(40.8335,29.292)"
       d="M 0,0 0.01,0.01" />
    <path
       style="stroke-width:0.60000002;stroke-linecap:round"
       id="path484"
       transform="translate(43.8335,29.292)"
       d="M 0,0 0.01,0.01" />
    <path
       style="stroke-width:0.60000002;stroke-linecap:round"
       id="path486"
       transform="translate(37.6665,29.292)"
       d="M 0,0 0.01,0.01" />
    <path
       style="stroke-width:0.60000002;stroke-linecap:round"
       id="path488"
       transform="translate(33.9585,33.042)"
       d="M 0,0 0.01,0.01" />
    <path
       style="stroke-width:0.60000002;stroke-linecap:round"
       id="path490"
       transform="translate(36.9585,33.042)"
       d="M 0,0 0.01,0.01" />
    <path
       style="stroke-width:0.60000002;stroke-linecap:round"
       id="path492"
       transform="translate(30.7915,33.042)"
       d="M 0,0 0.01,0.01" />
    <path
       style="stroke-width:0.60000002;stroke-linecap:round"
       id="path494"
       transform="translate(5.5835,33.042)"
       d="M 0,0 0.01,0.01" />
    <path
       style="stroke-width:0.60000002;stroke-linecap:round"
       id="path496"
       transform="translate(8.5835,33.042)"
       d="M 0,0 0.01,0.01" />
    <path
       style="stroke-width:0.60000002;stroke-linecap:round"
       id="path498"
       transform="translate(2.4165,33.042)"
       d="M 0,0 0.01,0.01" />
    <path
       style="stroke-width:0.60000002;stroke-linecap:round"
       id="path500"
       transform="translate(53.0835,36.292)"
       d="M 0,0 0.01,0.01" />
    <path
       style="stroke-width:0.60000002;stroke-linecap:round"
       id="path502"
       transform="translate(49.9165,36.292)"
       d="M 0,0 0.01,0.01" />
    <path
       style="stroke-width:0.60000002;stroke-linecap:round"
       id="path504"
       transform="translate(2.2085,36.292)"
       d="M 0,0 0.01,0.01" />
    <path
       style="stroke-width:0.60000002;stroke-linecap:round"
       id="path506"
       transform="translate(18.8335,39.917)"
       d="M 0,0 0.01,0.01" />
    <path
       style="stroke-width:0.60000002;stroke-linecap:round"
       id="path508"
       transform="translate(21.8335,39.917)"
       d="M 0,0 0.01,0.01" />
    <path
       style="stroke-width:0.60000002;stroke-linecap:round"
       id="path510"
       transform="translate(15.6665,39.917)"
       d="M 0,0 0.01,0.01" />
    <path
       style="stroke-width:0.60000002;stroke-linecap:round"
       id="path512"
       transform="translate(46.4585,39.917)"
       d="M 0,0 0.01,0.01" />
    <path
       style="stroke-width:0.60000002;stroke-linecap:round"
       id="path514"
       transform="translate(49.4585,39.917)"
       d="M 0,0 0.01,0.01" />
    <path
       style="stroke-width:0.60000002;stroke-linecap:round"
       id="path516"
       transform="translate(43.2915,39.917)"
       d="M 0,0 0.01,0.01" />
    <path
       style="stroke-width:0.60000002;stroke-linecap:round"
       id="path518"
       transform="translate(40.4585,44.167)"
       d="M 0,0 0.01,0.01" />
    <path
       style="stroke-width:0.60000002;stroke-linecap:round"
       id="path520"
       transform="translate(43.4585,44.167)"
       d="M 0,0 0.01,0.01" />
    <path
       style="stroke-width:0.60000002;stroke-linecap:round"
       id="path522"
       transform="translate(37.2915,44.167)"
       d="M 0,0 0.01,0.01" />
    <path
       style="stroke-width:0.60000002;stroke-linecap:round"
       id="path524"
       transform="translate(13.0835,44.167)"
       d="M 0,0 0.01,0.01" />
    <path
       style="stroke-width:0.60000002;stroke-linecap:round"
       id="path526"
       transform="translate(16.0835,44.167)"
       d="M 0,0 0.01,0.01" />
    <path
       style="stroke-width:0.60000002;stroke-linecap:round"
       id="path528"
       transform="translate(9.9165,44.167)"
       d="M 0,0 0.01,0.01" />
    <path
       style="stroke-width:0.60000002;stroke-linecap:round"
       id="path530"
       transform="translate(33.9585,48.292)"
       d="M 0,0 0.01,0.01" />
    <path
       style="stroke-width:0.60000002;stroke-linecap:round"
       id="path532"
       transform="translate(36.9585,48.292)"
       d="M 0,0 0.01,0.01" />
    <path
       style="stroke-width:0.60000002;stroke-linecap:round"
       id="path534"
       transform="translate(30.7915,48.292)"
       d="M 0,0 0.01,0.01" />
    <path
       style="stroke-width:0.60000002;stroke-linecap:round"
       id="path536"
       transform="translate(5.3335,48.292)"
       d="M 0,0 0.01,0.01" />
    <path
       style="stroke-width:0.60000002;stroke-linecap:round"
       id="path538"
       transform="translate(8.3335,48.292)"
       d="M 0,0 0.01,0.01" />
    <path
       style="stroke-width:0.60000002;stroke-linecap:round"
       id="path540"
       transform="translate(2.1665,48.292)"
       d="M 0,0 0.01,0.01" />
    <path
       style="stroke-width:0.60000002;stroke-linecap:round"
       id="path542"
       transform="translate(25.3335,52.167)"
       d="M 0,0 0.01,0.01" />
    <path
       style="stroke-width:0.60000002;stroke-linecap:round"
       id="path544"
       transform="translate(28.3335,52.167)"
       d="M 0,0 0.01,0.01" />
    <path
       style="stroke-width:0.60000002;stroke-linecap:round"
       id="path546"
       transform="translate(22.1665,52.167)"
       d="M 0,0 0.01,0.01" />
    <path
       style="stroke-width:0.60000002;stroke-linecap:round"
       id="path548"
       transform="translate(53.3335,52.167)"
       d="M 0,0 0.01,0.01" />
    <path
       style="stroke-width:0.60000002;stroke-linecap:round"
       id="path550"
       transform="translate(50.1665,52.167)"
       d="M 0,0 0.01,0.01" />
    <path
       style="stroke-width:0.60000002;stroke-linecap:round"
       id="path552"
       transform="translate(2.2085,52.167)"
       d="M 0,0 0.01,0.01" />
    <path
       style="stroke-width:0.60000002;stroke-linecap:round"
       id="path554"
       transform="translate(25.0835,36.292)"
       d="M 0,0 0.01,0.01" />
    <path
       style="stroke-width:0.60000002;stroke-linecap:round"
       id="path556"
       transform="translate(28.0835,36.292)"
       d="M 0,0 0.01,0.01" />
    <path
       style="stroke-width:0.60000002;stroke-linecap:round"
       id="path558"
       transform="translate(21.9165,36.292)"
       d="M 0,0 0.01,0.01" />
    <path
       style="stroke-width:0.60000002;stroke-linecap:round"
       id="path560"
       transform="translate(52.5161,6.292)"
       d="M 0,0 0.01,0.01" />
    <path
       style="stroke-width:0.60000002;stroke-linecap:round"
       id="path562"
       transform="translate(49.3496,6.292)"
       d="M 0,0 0.01,0.01" />
    <path
       style="stroke-width:0.60000002;stroke-linecap:round"
       id="path564"
       transform="translate(1.2549,6.292)"
       d="M 0,0 0.01,0.01" />
    <path
       style="stroke-width:0.60000002;stroke-linecap:round"
       id="path566"
       transform="translate(44.7085,2.542)"
       d="M 0,0 0.01,0.01" />
    <path
       style="stroke-width:0.60000002;stroke-linecap:round"
       id="path568"
       transform="translate(47.7085,2.542)"
       d="M 0,0 0.01,0.01" />
    <path
       style="stroke-width:0.60000002;stroke-linecap:round"
       id="path570"
       transform="translate(41.5415,2.542)"
       d="M 0,0 0.01,0.01" />
  </g>
</svg>
