<?xml version="1.0" encoding="UTF-8" standalone="no"?>
<svg
   xmlns:dc="http://purl.org/dc/elements/1.1/"
   xmlns:cc="http://creativecommons.org/ns#"
   xmlns:rdf="http://www.w3.org/1999/02/22-rdf-syntax-ns#"
   xmlns:svg="http://www.w3.org/2000/svg"
   xmlns="http://www.w3.org/2000/svg"
   height="53.9775"
   width="53.9775"
   id="svg396"
   version="1.1">
  <defs
     id="defs400" />
  <metadata
     id="metadata2">citation: U.S. Geological Survey, 2006, FGDC Digital Cartographic Standard for Geologic Map Symbolization (PostScript Implementation): U.S. Geological Survey Techniques and Methods 11-A2 [pubs.usgs.gov/tm/2006/11A02/]. converted by CEC Geology LLC 2018 from the USGS lithologic gs converted to inkscape by the University of Otago.<rdf:RDF>
  <cc:Work
     rdf:about="">
    <dc:format>image/svg+xml</dc:format>
    <dc:type
       rdf:resource="http://purl.org/dc/dcmitype/StillImage" />
    <dc:title></dc:title>
  </cc:Work>
</rdf:RDF>
</metadata>
  <g
     stroke-width=".3"
     stroke="#231f20"
     fill="none"
     id="g394"
     width="53.9775"
     height="53.9775">
    <path
       id="path4"
       transform="translate(47.7021,19.3901)"
       d="M 0,0 C 1.287,0 2.331,1.041 2.334,2.328" />
    <path
       id="path6"
       transform="translate(47.7021,19.3901)"
       d="M 0,0 C -1.286,0 -2.33,1.041 -2.333,2.328" />
    <path
       id="path8"
       transform="translate(50.0361,21.7178)"
       d="m 0,0 v 0.006 c 0,1.288 -1.045,2.333 -2.334,2.333 -1.288,0 -2.333,-1.045 -2.333,-2.333 V 0" />
    <path
       id="path10"
       transform="translate(47.7021,21.7178)"
       d="M 0,0 V -2.328" />
    <path
       id="path12"
       transform="translate(47.7021,21.7178)"
       d="M 0,0 V 2.273" />
    <path
       id="path14"
       transform="translate(47.7021,21.7178)"
       d="M 0,0 H 2.334" />
    <path
       id="path16"
       transform="translate(50.0361,21.7178)"
       d="M 0,0 0.01,0.01" />
    <path
       id="path18"
       transform="translate(47.7021,21.7178)"
       d="M 0,0 H -2.333" />
    <path
       id="path20"
       transform="translate(45.3691,21.7178)"
       d="M 0,0 H -0.003" />
    <path
       id="path22"
       transform="translate(42.7236,33.6875)"
       d="m 0,0 v 0.006 c 0,1.288 -1.045,2.333 -2.334,2.333 -1.289,0 -2.333,-1.045 -2.333,-2.333 V 0" />
    <path
       id="path24"
       transform="translate(42.7236,33.6875)"
       d="M 0,0 C -0.003,-1.286 -1.047,-2.328 -2.334,-2.328" />
    <path
       id="path26"
       transform="translate(40.3896,31.3599)"
       d="M 0,0 C -1.287,0 -2.33,1.042 -2.333,2.328" />
    <path
       id="path28"
       transform="translate(40.3896,33.6875)"
       d="M 0,0 V -2.328" />
    <path
       id="path30"
       transform="translate(40.3896,33.6875)"
       d="M 0,0 V 2.273" />
    <path
       id="path32"
       transform="translate(42.7236,33.6875)"
       d="M 0,0 0.01,0.01" />
    <path
       id="path34"
       transform="translate(40.3896,33.6875)"
       d="M 0,0 H -2.333" />
    <path
       id="path36"
       transform="translate(40.3896,33.6875)"
       d="M 0,0 H 2.334" />
    <path
       id="path38"
       transform="translate(38.0566,33.6875)"
       d="M 0,0 H -0.003" />
    <path
       id="path40"
       transform="translate(35.5283,23.1099)"
       d="m 0,0 v 0.006 c 0,1.288 -1.045,2.333 -2.333,2.333 -1.289,0 -2.334,-1.045 -2.334,-2.333 V 0" />
    <path
       id="path42"
       transform="translate(33.1953,20.7822)"
       d="M 0,0 C 1.286,0 2.33,1.041 2.333,2.328" />
    <path
       id="path44"
       transform="translate(33.1953,20.7822)"
       d="M 0,0 C -1.287,0 -2.331,1.041 -2.334,2.328" />
    <path
       id="path46"
       transform="translate(33.1953,20.7822)"
       d="M 0,0 V 2.328" />
    <path
       id="path48"
       transform="translate(33.1953,23.1099)"
       d="M 0,0 V 2.273" />
    <path
       id="path50"
       transform="translate(30.8613,23.1099)"
       d="M 0,0 H -0.002" />
    <path
       id="path52"
       transform="translate(33.1953,23.1099)"
       d="M 0,0 H 2.333" />
    <path
       id="path54"
       transform="translate(35.5283,23.1099)"
       d="M 0,0 0.01,0.01" />
    <path
       id="path56"
       transform="translate(30.8613,23.1099)"
       d="M 0,0 H 2.334" />
    <path
       id="path58"
       transform="translate(18.3271,14.8486)"
       d="M 0,0 C 1.287,0 2.331,1.041 2.334,2.328" />
    <path
       id="path60"
       transform="translate(15.9941,17.1763)"
       d="M 0,0 C 0.003,-1.287 1.046,-2.328 2.333,-2.328" />
    <path
       id="path62"
       transform="translate(15.9941,17.1763)"
       d="m 0,0 v 0.006 c 0,1.288 1.044,2.333 2.333,2.333 1.289,0 2.334,-1.045 2.334,-2.333 V 0" />
    <path
       id="path64"
       transform="translate(18.3271,14.8486)"
       d="M 0,0 V 2.328" />
    <path
       id="path66"
       transform="translate(18.3271,19.4492)"
       d="M 0,0 V -2.273" />
    <path
       id="path68"
       transform="translate(15.9941,17.1763)"
       d="M 0,0 H 2.333" />
    <path
       id="path70"
       transform="translate(20.6611,17.1763)"
       d="M 0,0 0.01,0.01" />
    <path
       id="path72"
       transform="translate(15.9941,17.1763)"
       d="M 0,0 H -0.003" />
    <path
       id="path74"
       transform="translate(18.3271,17.1763)"
       d="M 0,0 H 2.334" />
    <path
       id="path76"
       transform="translate(4.6816,8.7593)"
       d="m 0,0 v 0.006 c 0,1.289 -1.045,2.333 -2.334,2.333 -1.288,0 -2.333,-1.044 -2.333,-2.333 V 0" />
    <path
       id="path78"
       transform="translate(2.3476,6.4316)"
       d="M 0,0 C -1.286,0 -2.33,1.042 -2.333,2.328" />
    <path
       id="path80"
       transform="translate(4.6816,8.7593)"
       d="M 0,0 C -0.003,-1.286 -1.047,-2.328 -2.334,-2.328" />
    <path
       id="path82"
       transform="translate(2.3476,8.7593)"
       d="M 0,0 V 2.273" />
    <path
       id="path84"
       transform="translate(2.3476,8.7593)"
       d="M 0,0 V -2.328" />
    <path
       id="path86"
       transform="translate(2.3476,8.7593)"
       d="M 0,0 H -2.333" />
    <path
       id="path88"
       transform="translate(4.6816,8.7593)"
       d="M 0,0 0.01,0.01" />
    <path
       id="path90"
       transform="translate(2.3476,8.7593)"
       d="M 0,0 H 2.334" />
    <path
       id="path92"
       transform="translate(18.0361,4.7388)"
       d="M 0,0 C -0.003,-1.287 -1.047,-2.328 -2.334,-2.328" />
    <path
       id="path94"
       transform="translate(15.7021,2.4111)"
       d="M 0,0 C -1.287,0 -2.33,1.041 -2.333,2.328" />
    <path
       id="path96"
       transform="translate(18.0361,4.7388)"
       d="m 0,0 v 0.006 c 0,1.288 -1.045,2.333 -2.334,2.333 -1.289,0 -2.333,-1.045 -2.333,-2.333 V 0" />
    <path
       id="path98"
       transform="translate(15.7021,4.7388)"
       d="M 0,0 V 2.273" />
    <path
       id="path100"
       transform="translate(15.7021,4.7388)"
       d="M 0,0 V -2.328" />
    <path
       id="path102"
       transform="translate(15.7021,4.7388)"
       d="M 0,0 H 2.334" />
    <path
       id="path104"
       transform="translate(13.3691,4.7388)"
       d="M 0,0 H -0.003" />
    <path
       id="path106"
       transform="translate(18.0361,4.7388)"
       d="M 0,0 0.01,0.01" />
    <path
       id="path108"
       transform="translate(15.7021,4.7388)"
       d="M 0,0 H -2.333" />
    <path
       id="path110"
       transform="translate(33.7236,9.0718)"
       d="M 0,0 C -0.003,-1.286 -1.047,-2.328 -2.334,-2.328" />
    <path
       id="path112"
       transform="translate(33.7236,9.0718)"
       d="m 0,0 v 0.006 c 0,1.289 -1.045,2.333 -2.334,2.333 -1.289,0 -2.333,-1.044 -2.333,-2.333 V 0" />
    <path
       id="path114"
       transform="translate(31.3896,6.7441)"
       d="M 0,0 C -1.287,0 -2.33,1.042 -2.333,2.328" />
    <path
       id="path116"
       transform="translate(31.3896,9.0718)"
       d="M 0,0 V -2.328" />
    <path
       id="path118"
       transform="translate(31.3896,9.0718)"
       d="M 0,0 V 2.273" />
    <path
       id="path120"
       transform="translate(31.3896,9.0718)"
       d="M 0,0 H -2.333" />
    <path
       id="path122"
       transform="translate(33.7236,9.0718)"
       d="M 0,0 0.01,0.01" />
    <path
       id="path124"
       transform="translate(31.3896,9.0718)"
       d="M 0,0 H 2.334" />
    <path
       id="path126"
       transform="translate(29.0566,9.0718)"
       d="M 0,0 H -0.003" />
    <path
       id="path128"
       transform="translate(45.7646,3.7026)"
       d="M 0,0 C -1.287,0 -2.33,1.041 -2.333,2.328" />
    <path
       id="path130"
       transform="translate(48.0986,6.0303)"
       d="M 0,0 C -0.003,-1.286 -1.047,-2.328 -2.334,-2.328" />
    <path
       id="path132"
       transform="translate(48.0986,6.0303)"
       d="m 0,0 v 0.006 c 0,1.288 -1.045,2.333 -2.334,2.333 -1.289,0 -2.333,-1.045 -2.333,-2.333 V 0" />
    <g
       id="g142"
       transform="translate(45.7646,6.0303)">
      <path
         id="path134"
         d="M 0,0 V 2.273" />
      <path
         id="path136"
         d="M 0,0 V -2.328" />
      <path
         id="path138"
         d="M 0,0 H 2.334" />
      <path
         id="path140"
         d="M 0,0 H -2.333" />
    </g>
    <path
       id="path144"
       transform="translate(43.4316,6.0303)"
       d="M 0,0 H -0.003" />
    <path
       id="path146"
       transform="translate(48.0986,6.0303)"
       d="M 0,0 0.01,0.01" />
    <path
       id="path148"
       transform="translate(16.3476,31.0415)"
       d="M 0,0 C 0.003,-1.286 1.047,-2.328 2.334,-2.328" />
    <path
       id="path150"
       transform="translate(21.0146,31.0415)"
       d="m 0,0 v 0.006 c 0,1.289 -1.045,2.333 -2.333,2.333 -1.289,0 -2.334,-1.044 -2.334,-2.333 V 0" />
    <path
       id="path152"
       transform="translate(18.6816,28.7139)"
       d="M 0,0 C 1.286,0 2.33,1.042 2.333,2.328" />
    <path
       id="path154"
       transform="translate(18.6816,28.7139)"
       d="M 0,0 V 2.328" />
    <path
       id="path156"
       transform="translate(18.6816,33.3149)"
       d="M 0,0 V -2.273" />
    <path
       id="path158"
       transform="translate(16.3476,31.0415)"
       d="M 0,0 H 2.334" />
    <path
       id="path160"
       transform="translate(16.3476,31.0415)"
       d="M 0,0 H -0.002" />
    <path
       id="path162"
       transform="translate(21.0146,31.0415)"
       d="M 0,0 0.01,0.01" />
    <path
       id="path164"
       transform="translate(21.0146,31.0415)"
       d="M 0,0 H -2.333" />
    <path
       id="path166"
       transform="translate(7.5361,22.2388)"
       d="m 0,0 v 0.006 c 0,1.288 -1.045,2.333 -2.334,2.333 -1.289,0 -2.333,-1.045 -2.333,-2.333 V 0" />
    <path
       id="path168"
       transform="translate(5.2021,19.9111)"
       d="M 0,0 C -1.287,0 -2.33,1.041 -2.333,2.328" />
    <path
       id="path170"
       transform="translate(7.5361,22.2388)"
       d="M 0,0 C -0.003,-1.287 -1.047,-2.328 -2.334,-2.328" />
    <path
       id="path172"
       transform="translate(5.2021,22.2388)"
       d="M 0,0 V 2.273" />
    <path
       id="path174"
       transform="translate(5.2021,22.2388)"
       d="M 0,0 V -2.328" />
    <path
       id="path176"
       transform="translate(2.8662,22.2388)"
       d="M 0,0 H 0.003" />
    <path
       id="path178"
       transform="translate(5.2021,22.2388)"
       d="M 0,0 H 2.334" />
    <path
       id="path180"
       transform="translate(5.2021,22.2388)"
       d="M 0,0 H -2.333" />
    <path
       id="path182"
       transform="translate(7.5361,22.2388)"
       d="M 0,0 0.01,0.01" />
    <path
       id="path184"
       transform="translate(3.5,34.2915)"
       d="M 0,0 V 0.006 C 0,1.295 -1.045,2.339 -2.334,2.339 -2.759,2.339 -3.157,2.225 -3.5,2.027" />
    <path
       id="path186"
       transform="translate(3.5,34.2915)"
       d="M 0,0 C -0.003,-1.286 -1.047,-2.328 -2.334,-2.328" />
    <path
       id="path188"
       transform="translate(0,32.2764)"
       d="M 0,0 C 0.343,-0.198 0.741,-0.313 1.166,-0.313" />
    <path
       id="path190"
       transform="translate(1.166,34.2915)"
       d="M 0,0 V 2.273" />
    <path
       id="path192"
       transform="translate(1.166,34.2915)"
       d="M 0,0 V -2.328" />
    <path
       id="path194"
       transform="translate(1.166,34.2915)"
       d="M 0,0 H -1.166" />
    <path
       id="path196"
       transform="translate(1.166,34.2915)"
       d="M 0,0 H 2.334" />
    <path
       id="path198"
       transform="translate(3.5,34.2915)"
       d="M 0,0 0.01,0.01" />
    <path
       id="path200"
       transform="translate(8.3486,42.5835)"
       d="m 0,0 v 0.005 c 0,1.289 -1.045,2.334 -2.334,2.334 -1.289,0 -2.333,-1.045 -2.333,-2.334 V 0" />
    <path
       id="path202"
       transform="translate(6.0146,40.2559)"
       d="M 0,0 C 1.287,0 2.331,1.041 2.334,2.328" />
    <path
       id="path204"
       transform="translate(6.0146,40.2559)"
       d="M 0,0 C -1.287,0 -2.33,1.041 -2.333,2.328" />
    <path
       id="path206"
       transform="translate(6.0146,42.5835)"
       d="M 0,0 V 2.273" />
    <path
       id="path208"
       transform="translate(6.0146,42.5835)"
       d="M 0,0 V -2.328" />
    <path
       id="path210"
       transform="translate(8.3486,42.5835)"
       d="M 0,0 0.01,0.01" />
    <path
       id="path212"
       transform="translate(3.6816,42.5835)"
       d="M 0,0 H -0.003" />
    <path
       id="path214"
       transform="translate(6.0146,42.5835)"
       d="M 0,0 H -2.333" />
    <path
       id="path216"
       transform="translate(6.0146,42.5835)"
       d="M 0,0 H 2.334" />
    <path
       id="path218"
       transform="translate(2.5361,49.021)"
       d="M 0,0 C -0.003,-1.286 -1.047,-2.328 -2.334,-2.328" />
    <path
       id="path220"
       transform="translate(2.5361,49.021)"
       d="M 0,0 V 0.005 C 0,1.294 -1.045,2.339 -2.334,2.339 -2.402,2.339 -2.47,2.335 -2.536,2.33" />
    <path
       id="path222"
       transform="translate(0.2021,46.6934)"
       d="M 0,0 C -0.068,0 -0.136,0.003 -0.202,0.009" />
    <path
       id="path224"
       transform="translate(0.2021,46.6934)"
       d="M 0,0 V 2.328" />
    <path
       id="path226"
       transform="translate(0.2021,51.2939)"
       d="M 0,0 V -2.273" />
    <path
       id="path228"
       transform="translate(2.5361,49.021)"
       d="M 0,0 0.01,0.01" />
    <path
       id="path230"
       transform="translate(0.2021,49.021)"
       d="M 0,0 H -0.202" />
    <path
       id="path232"
       transform="translate(2.5361,49.021)"
       d="M 0,0 H -2.334" />
    <path
       id="path234"
       transform="translate(13.5361,49.271)"
       d="m 0,0 v 0.005 c 0,1.289 -1.045,2.334 -2.334,2.334 -1.289,0 -2.333,-1.045 -2.333,-2.334 V 0" />
    <path
       id="path236"
       transform="translate(11.2021,46.9434)"
       d="M 0,0 C -1.287,0 -2.33,1.041 -2.333,2.328" />
    <path
       id="path238"
       transform="translate(13.5361,49.271)"
       d="M 0,0 C -0.003,-1.286 -1.047,-2.328 -2.334,-2.328" />
    <path
       id="path240"
       transform="translate(11.2021,49.271)"
       d="M 0,0 V -2.328" />
    <path
       id="path242"
       transform="translate(11.2021,49.271)"
       d="M 0,0 V 2.273" />
    <path
       id="path244"
       transform="translate(8.8662,49.271)"
       d="M 0,0 H 0.003" />
    <path
       id="path246"
       transform="translate(11.2021,49.271)"
       d="M 0,0 H -2.333" />
    <path
       id="path248"
       transform="translate(13.5361,49.271)"
       d="M 0,0 0.01,0.01" />
    <path
       id="path250"
       transform="translate(11.2021,49.271)"
       d="M 0,0 H 2.334" />
    <path
       id="path252"
       transform="translate(18.5361,43.521)"
       d="m 0,0 v 0.005 c 0,1.289 -1.045,2.334 -2.334,2.334 -1.289,0 -2.333,-1.045 -2.333,-2.334 V 0" />
    <path
       id="path254"
       transform="translate(16.2021,41.1934)"
       d="M 0,0 C -1.287,0 -2.33,1.041 -2.333,2.328" />
    <path
       id="path256"
       transform="translate(16.2021,41.1934)"
       d="M 0,0 C 1.287,0 2.331,1.041 2.334,2.328" />
    <path
       id="path258"
       transform="translate(16.2021,43.521)"
       d="M 0,0 V -2.328" />
    <path
       id="path260"
       transform="translate(16.2021,43.521)"
       d="M 0,0 V 2.273" />
    <path
       id="path262"
       transform="translate(16.2021,43.521)"
       d="M 0,0 H 2.334" />
    <path
       id="path264"
       transform="translate(13.8691,43.521)"
       d="M 0,0 H -0.003" />
    <path
       id="path266"
       transform="translate(16.2021,43.521)"
       d="M 0,0 H -2.333" />
    <path
       id="path268"
       transform="translate(18.5361,43.521)"
       d="M 0,0 0.01,0.01" />
    <path
       id="path270"
       transform="translate(27.5976,39.9639)"
       d="M 0,0 C 1.287,0 2.331,1.042 2.334,2.328" />
    <path
       id="path272"
       transform="translate(25.2646,42.2915)"
       d="M 0,0 C 0.003,-1.286 1.047,-2.328 2.333,-2.328" />
    <path
       id="path274"
       transform="translate(29.9316,42.2915)"
       d="m 0,0 v 0.006 c 0,1.289 -1.045,2.333 -2.334,2.333 -1.288,0 -2.333,-1.044 -2.333,-2.333 V 0" />
    <path
       id="path276"
       transform="translate(27.5976,39.9639)"
       d="M 0,0 V 2.328" />
    <path
       id="path278"
       transform="translate(27.5976,44.5649)"
       d="M 0,0 V -2.273" />
    <path
       id="path280"
       transform="translate(25.2626,42.2915)"
       d="M 0,0 H 0.002" />
    <path
       id="path282"
       transform="translate(25.2646,42.2915)"
       d="M 0,0 H 2.333" />
    <path
       id="path284"
       transform="translate(29.9316,42.2915)"
       d="M 0,0 H -2.334" />
    <path
       id="path286"
       transform="translate(29.9316,42.2915)"
       d="M 0,0 0.01,0.01" />
    <path
       id="path288"
       transform="translate(22.3476,48.3184)"
       d="M 0,0 C -1.286,0 -2.33,1.041 -2.333,2.328" />
    <path
       id="path290"
       transform="translate(24.6816,50.646)"
       d="M 0,0 C -0.003,-1.287 -1.047,-2.328 -2.334,-2.328" />
    <path
       id="path292"
       transform="translate(24.6816,50.646)"
       d="m 0,0 v 0.006 c 0,1.288 -1.045,2.333 -2.334,2.333 -1.288,0 -2.333,-1.045 -2.333,-2.333 V 0" />
    <path
       id="path294"
       transform="translate(22.3476,50.646)"
       d="M 0,0 V 2.273" />
    <path
       id="path296"
       transform="translate(22.3476,50.646)"
       d="M 0,0 V -2.328" />
    <path
       id="path298"
       transform="translate(22.3476,50.646)"
       d="M 0,0 H 2.334" />
    <path
       id="path300"
       transform="translate(24.6816,50.646)"
       d="M 0,0 0.01,0.01" />
    <path
       id="path302"
       transform="translate(20.0146,50.646)"
       d="M 0,0 H -0.002" />
    <path
       id="path304"
       transform="translate(22.3476,50.646)"
       d="M 0,0 H -2.333" />
    <path
       id="path306"
       transform="translate(34.4111,49.521)"
       d="M 0,0 C -0.003,-1.286 -1.047,-2.328 -2.334,-2.328" />
    <path
       id="path308"
       transform="translate(34.4111,49.521)"
       d="m 0,0 v 0.005 c 0,1.289 -1.045,2.334 -2.334,2.334 -1.289,0 -2.333,-1.045 -2.333,-2.334 V 0" />
    <path
       id="path310"
       transform="translate(32.0771,47.1934)"
       d="M 0,0 C -1.287,0 -2.33,1.041 -2.333,2.328" />
    <path
       id="path312"
       transform="translate(32.0771,49.521)"
       d="M 0,0 V -2.328" />
    <path
       id="path314"
       transform="translate(32.0771,49.521)"
       d="M 0,0 V 2.273" />
    <path
       id="path316"
       transform="translate(32.0771,49.521)"
       d="M 0,0 H -2.333" />
    <path
       id="path318"
       transform="translate(29.7441,49.521)"
       d="M 0,0 H -0.003" />
    <path
       id="path320"
       transform="translate(34.4111,49.521)"
       d="M 0,0 0.01,0.01" />
    <path
       id="path322"
       transform="translate(32.0771,49.521)"
       d="M 0,0 H 2.334" />
    <path
       id="path324"
       transform="translate(37.7021,41.4434)"
       d="M 0,0 C -1.287,0 -2.33,1.041 -2.333,2.328" />
    <path
       id="path326"
       transform="translate(40.0361,43.771)"
       d="M 0,0 C -0.003,-1.286 -1.047,-2.328 -2.334,-2.328" />
    <path
       id="path328"
       transform="translate(40.0361,43.771)"
       d="m 0,0 v 0.005 c 0,1.289 -1.045,2.334 -2.334,2.334 -1.289,0 -2.333,-1.045 -2.333,-2.334 V 0" />
    <path
       id="path330"
       transform="translate(37.7021,43.771)"
       d="M 0,0 V -2.328" />
    <path
       id="path332"
       transform="translate(37.7021,43.771)"
       d="M 0,0 V 2.273" />
    <path
       id="path334"
       transform="translate(37.7021,43.771)"
       d="M 0,0 H 2.334" />
    <path
       id="path336"
       transform="translate(35.3691,43.771)"
       d="M 0,0 H -0.003" />
    <path
       id="path338"
       transform="translate(37.7021,43.771)"
       d="M 0,0 H -2.333" />
    <path
       id="path340"
       transform="translate(40.0361,43.771)"
       d="M 0,0 0.01,0.01" />
    <path
       id="path342"
       transform="translate(45.0361,50.5)"
       d="m 0,0 v 0.006 c 0,1.288 -1.045,2.333 -2.334,2.333 -1.288,0 -2.333,-1.045 -2.333,-2.333 V 0" />
    <path
       id="path344"
       transform="translate(42.7021,48.1724)"
       d="M 0,0 C -1.286,0 -2.33,1.042 -2.333,2.328" />
    <path
       id="path346"
       transform="translate(42.7021,48.1724)"
       d="M 0,0 C 1.287,0 2.331,1.042 2.334,2.328" />
    <path
       id="path348"
       transform="translate(42.7021,50.5)"
       d="M 0,0 V 2.273" />
    <path
       id="path350"
       transform="translate(42.7021,50.5)"
       d="M 0,0 V -2.328" />
    <path
       id="path352"
       transform="translate(42.7021,50.5)"
       d="M 0,0 H -2.333" />
    <path
       id="path354"
       transform="translate(42.7021,50.5)"
       d="M 0,0 H 2.334" />
    <path
       id="path356"
       transform="translate(45.0361,50.5)"
       d="M 0,0 0.01,0.01" />
    <path
       id="path358"
       transform="translate(40.3691,50.5)"
       d="M 0,0 H -0.003" />
    <path
       id="path360"
       transform="translate(51.3486,43.6665)"
       d="m 0,0 v 0.006 c 0,1.289 -1.045,2.333 -2.334,2.333 -1.288,0 -2.333,-1.044 -2.333,-2.333 V 0" />
    <path
       id="path362"
       transform="translate(49.0146,41.3389)"
       d="M 0,0 C 1.287,0 2.331,1.042 2.334,2.328" />
    <path
       id="path364"
       transform="translate(49.0146,41.3389)"
       d="M 0,0 C -1.286,0 -2.33,1.042 -2.333,2.328" />
    <path
       id="path366"
       transform="translate(49.0146,43.6665)"
       d="M 0,0 V 2.273" />
    <path
       id="path368"
       transform="translate(49.0146,43.6665)"
       d="M 0,0 V -2.328" />
    <path
       id="path370"
       transform="translate(49.0146,43.6665)"
       d="M 0,0 H -2.333" />
    <path
       id="path372"
       transform="translate(51.3486,43.6665)"
       d="M 0,0 0.01,0.01" />
    <path
       id="path374"
       transform="translate(46.6816,43.6665)"
       d="M 0,0 H -0.003" />
    <path
       id="path376"
       transform="translate(49.0146,43.6665)"
       d="M 0,0 H 2.334" />
    <path
       id="path378"
       transform="translate(52.8105,34.2915)"
       d="M 0,0 C 0.002,-0.861 0.472,-1.612 1.167,-2.015" />
    <path
       id="path380"
       transform="translate(53.9775,36.3184)"
       d="M 0,0 C -0.697,-0.404 -1.167,-1.157 -1.167,-2.021 V -2.027" />
    <path
       id="path382"
       transform="translate(52.8105,34.2915)"
       d="M 0,0 H 1.167" />
    <path
       id="path384"
       transform="translate(52.8076,34.2915)"
       d="M 0,0 H 0.003" />
    <path
       id="path386"
       transform="translate(51.8466,49.021)"
       d="M 0,0 C 0.003,-1.218 0.938,-2.216 2.131,-2.318" />
    <path
       id="path388"
       transform="translate(51.8466,49.021)"
       d="M 0,0 V 0.005 C 0,1.226 0.937,2.227 2.131,2.33" />
    <path
       id="path390"
       transform="translate(51.8466,49.021)"
       d="M 0,0 H -0.003" />
    <path
       id="path392"
       transform="translate(51.8466,49.021)"
       d="M 0,0 H 2.131" />
  </g>
</svg>
